<svg id="Layer_1" data-name="Layer 1" xmlns="http://www.w3.org/2000/svg" viewBox="0 0 465.51 360"><defs><style>.cls-1{fill:#ed2f38;}.cls-2{opacity:0.24;}.cls-3,.cls-4{opacity:0.19;font-family:Poppins-Black, Poppins;font-weight:800;}.cls-3{font-size:65.16px;}.cls-3,.cls-4,.cls-5{fill:#fff;}.cls-4{font-size:71.62px;}.cls-6{fill:#1b1e2a;stroke:#46506d;stroke-miterlimit:10;}</style></defs><rect class="cls-1" width="465.51" height="360"/><g class="cls-2"><text class="cls-3" transform="translate(-87.01 114.71)">DUMAGUETE</text><text class="cls-3" transform="translate(341.82 114.71)">DUMAGUETE</text></g><g class="cls-2"><text class="cls-3" transform="translate(-341.26 175.55)">DUMAGUETE</text><text class="cls-3" transform="translate(87.57 175.55)">DUMAGUETE</text></g><g class="cls-2"><text class="cls-3" transform="translate(-47.63 233.09)">DUMAGUETE</text><text class="cls-3" transform="translate(381.2 233.09)">DUMAGUETE</text></g><g class="cls-2"><text class="cls-3" transform="translate(-344.48 294.07)">DUMAGUETE</text><text class="cls-3" transform="translate(84.35 294.07)">DUMAGUETE</text></g><g class="cls-2"><text class="cls-3" transform="translate(-155.03 354.2)">DUMAGUETE</text><text class="cls-3" transform="translate(273.8 354.2)">DUMAGUETE</text></g><g class="cls-2"><text class="cls-4" transform="translate(4.11 58.02)">DUMAGUETE</text></g><path class="cls-5" d="M386.3,89.49v-.06a.25.25,0,0,0,0-.07,11.27,11.27,0,0,1,1.31-3.18,16.19,16.19,0,0,0,2-12L389.21,72c-.17-1-.34-1.93-.51-2.86h0c-1.14-6.39-2.18-11.2-3.82-15.46A231.88,231.88,0,0,1,378,31.17c-.91-4.28-1.61-12.84-1.62-12.93a4.28,4.28,0,0,0-8-1.82c-2,3.39-5,6.89-6.36,7.34-1.83.63-8.49.89-12.07,1-4.86.19-6.62.26-7.81,1a14.21,14.21,0,0,1-3.79.14c-2.36-.65-17.6-1.68-22.88.39-1.67.65-3.08,1.32-4.23,1.88h0l-1.07.54A17.37,17.37,0,0,1,308,29.79a194.68,194.68,0,0,1-22.86,1.77h0l-2,.05c-12.74.28-20.46-1.27-21.62-1.65-.16-.05-.37-.15-.64-.27-2.73-1.21-10-4.4-18.41-2.93h-.06l-.18,0-.08,0-.71.13c-9.27,2-14.32,4.36-15.55,5-1.81.74-15.36,5.22-20.91,6.83-1.37-2.37-3.51-6.61-4.92-9.4-4.16-8.23-4.93-9.61-6.39-10.55s-11-4.36-13.85-5.37C166,8.57,165.4,8.89,163.6,10c-1.25.72-1.62,1.33-5.14,7.21-3,5.05-11,18.4-13.8,20.29-1.63.67-8.51,3.29-16.45,6.32-10,3.82-22.43,8.57-32.45,12.47-5.53,2.16-9.64,3.8-12.57,5-1.68.69-2.93,1.22-3.81,1.63-1.3.59-4.35,2-3.73,5.37.27,1.48.56,1.8,5.38,7.14,5,5.56,14.36,15.91,17.33,21.35,1.53,2.8,4.52,9.6,8.4,19.13h0c3.06,7.51,6.55,16.38,9.56,24.34h0c2.56,6.79,4.61,12.43,5.77,15.88,2.13,6.4,9.31,29.31,20.75,66.24h0l5.09,16.46L154,259.94h0l25.2,87.66a4.28,4.28,0,0,0,4.11,3.1,4.53,4.53,0,0,0,.52,0l52.25-6.33.18,0,.35-.06h.05l38-6.65h0l.54-.1.3-.06,43.71-11a4.3,4.3,0,0,0,3.09-3.05c1.61-6.07,5.66-16.76,9.68-19.63a4.2,4.2,0,0,0,.79-.73s.27-.31.71-.85h0c11.82-14.27,11.94-17.4,12-18.75l0-.91c.41-14.65,2.35-19.34,3.42-20.76l.39-.52h0a35.89,35.89,0,0,0,5.91-14c1.06-5.54,1.72-9.42,2-11.07h0v0l.19-1.11c0-.1,0-.19,0-.29a85.2,85.2,0,0,1,6.66-24.11,62.92,62.92,0,0,1,8.63-13.45c2.17-2.73,4.05-5.08,5-8,.44-1.31,1-2.65,1.46-3.95.29-.75.58-1.51.85-2.25h0a28,28,0,0,0,2.15-9.6c0-2.82-.05-6.7-.5-11.73h0a146.32,146.32,0,0,0-2.13-14.81A92.81,92.81,0,0,0,374.29,128h0v0c-.34-.83-.65-1.59-.92-2.33a4.86,4.86,0,0,1-.51-2s.23-.44,1.62-1.21c4.21-2.36,9.6-7.08,12.11-13.27h0a18.7,18.7,0,0,0,1.19-4.21,23.76,23.76,0,0,0-.87-10.55C386.35,92.15,386.05,90.86,386.3,89.49Z"/><path class="cls-6" d="M262.88,67.76,214.22,97.24l-1,.18c-5.31.93-30.43,5.3-60,10.17-23.35,3.86-36.63,5.81-42.48,6.63-3.58-8.8-6.83-16.34-8.6-19.57C97.42,86.07,80,68.34,79.85,67.45s61.78-24.12,66.58-26.13,18.33-27.13,19.3-27.69,24.2,7.84,25.58,8.74,10.4,21.16,12,21.16,23.31-7.2,24.41-7.77,5.82-2.75,14.61-4.65A4.8,4.8,0,0,1,243,31Z"/><path class="cls-6" d="M236.59,142.52c-3,.19-7.92.49-9.66.49-2.55,0-6.4-5.22-9.64-5.22s-5.67,3.88-7.36,5.83c-1.4,1.6-3.46,3-9.54,3.81q-1.94.24-4.47.39c-9.63.58-12.87-3.8-18.37-4.85s-5.75.89-9.47,1.7-6.31-4.29-16.27-9.14-8.9-1.63-13.28-.57-11.25-5.42-12.22-5.19c-.59.16-3.67,5.07-6,8.9-2.93-7.75-6.4-16.6-9.61-24.45,5.85-.82,19.13-2.77,42.48-6.63,29.56-4.87,54.68-9.24,60-10.17C217.86,108.66,228.46,132.9,236.59,142.52Z"/><path class="cls-6" d="M221.29,197.74l-74.36,23.31c-6.68-21.59-17.88-57.65-20.78-66.34-1.22-3.63-3.33-9.42-5.83-16,2.32-3.83,5.4-8.74,6-8.9,1-.23,7.86,6.24,12.22,5.19s3.32-4.29,13.28.57,12.55,9.95,16.27,9.14,4-2.75,9.47-1.7,8.74,5.43,18.37,4.85q2.54-.15,4.47-.39a2.32,2.32,0,0,1,.07.56c0,2.67,12.87,28.41,18,39.1A43.75,43.75,0,0,1,221.29,197.74Z"/><path class="cls-6" d="M225.37,244.31c-26.41,5.07-54.4,11.43-67.24,14.42l-6.08-21.13s-2.1-6.8-5.12-16.55l74.36-23.31c2.56,15,3.14,37.57,3.7,43C225.06,241.45,225.19,242.68,225.37,244.31Z"/><path class="cls-6" d="M235.93,340l-.35.06-52.25,6.33-25.2-87.67c12.84-3,40.83-9.35,67.24-14.42,1.59,14.74,6.94,63.31,7.39,75.12A104.47,104.47,0,0,0,235.93,340Z"/><path class="cls-6" d="M271.36,280.81c-.5,1.82,1.76,39.78,2.54,52.55l-38,6.65a104.47,104.47,0,0,1-3.17-20.58c-.45-11.81-5.8-60.38-7.39-75.12,13.07-2.5,25.76-4.69,36-6,10.54-1.33,18.22-2.34,23.87-3.12a188.84,188.84,0,0,1-5.38,19.94C276.06,267.38,271.71,279.55,271.36,280.81Z"/><path class="cls-6" d="M330.17,299.42l-.69.82c-6.8,4.85-11.34,22-11.34,22l-43.7,11-.54.1c-.78-12.77-3-50.73-2.54-52.55.35-1.26,4.7-13.43,8.53-25.67C283,262.49,289,276.06,291,277.9,293.26,279.94,319.62,293.88,330.17,299.42Z"/><path class="cls-6" d="M345.84,258.68c-.19.27-.3.4-.3.4-4.12,5.47-4.25,20.89-4.36,24.17-.11,2.78-8.52,13.16-11,16.17-10.55-5.54-36.91-19.48-39.14-21.52-2-1.84-8-15.41-11.14-22.76a188.84,188.84,0,0,0,5.38-19.94h0c7.16.9,20.56,8.47,25,10.23C313.64,246.72,334.83,254.59,345.84,258.68Z"/><path class="cls-6" d="M353,235.46c-.3,1.78-1,5.6-2,11a31.79,31.79,0,0,1-5.17,12.23c-11-4.09-32.2-12-35.5-13.26-4.48-1.76-17.88-9.33-25-10.23,14.93-2.06,15.78-2.56,17.95-3.26,1-.32,4-4.58,7.66-10.17,3.48,1.74,10.31,5.06,13.71,6.12C328.46,229.07,346.54,233.78,353,235.46Z"/><path class="cls-6" d="M376.07,181.47c-.76,2.07-1.63,4.18-2.36,6.35-1.7,5.1-7.77,8.85-13.47,21a89,89,0,0,0-7.05,25.5s-.07.39-.19,1.14c-6.46-1.68-24.54-6.39-28.38-7.58-3.4-1.06-10.23-4.38-13.71-6.12,7.51-11.52,17.6-28.68,17.6-28.68s-6.51-10.28-15-23.75c5.44.19,24.15.84,25.4.84a1.18,1.18,0,0,1,.38.07c1.39.43,4.69,2.73,7.16,4.31A17.07,17.07,0,0,0,349,176c1.71.67,9.73-.1,12.62,0a5.79,5.79,0,0,1,.65,0C363.64,176.16,371.34,179.43,376.07,181.47Z"/><path class="cls-6" d="M352.21,64.47c-7.09-.5-8.94,6.43-33.25,11.87l-.61.14c-17.84,3.91-35.93,8.71-44.75,11.1L262.88,67.76,243,31c8.49-1.56,15.68,2.52,17.1,3s9.53,2.19,23.13,1.88l2,0c4.27,7,13.64,22.2,14.06,22.2s23.24-6.48,33.82-9.45Z"/><path class="cls-6" d="M333.1,48.57c-10.58,3-33.45,9.36-33.82,9.45s-9.79-15.23-14.06-22.2a192.05,192.05,0,0,0,23.66-1.88A23.38,23.38,0,0,0,313.2,32Z"/><path class="cls-6" d="M384.48,69.9c-6.81-1.31-25.12-4.77-31.61-5.38l-.65,0h0L333.1,48.57,313.2,32c1.1-.54,2.39-1.15,3.9-1.74,4-1.58,18.29-.77,20.19-.24s6.55,0,7.08-.53,15.06-.32,19.1-1.7,8.67-9.23,8.67-9.23.72,8.87,1.7,13.48a233.66,233.66,0,0,0,7,23.19A83.09,83.09,0,0,1,384.48,69.9Z"/><path class="cls-6" d="M383.55,104.16a15.14,15.14,0,0,1-.93,3.29c-3.54.13-10.69,1.3-20.57,7.27-.7.43-1.37.83-2,1.25l-1.5-29.74c6.68.73,17.68,1.86,23.55,2.46C381.15,93.75,384.63,97.39,383.55,104.16Z"/><path class="cls-6" d="M382.62,107.45c-2.11,5.21-6.81,9.24-10.25,11.16-4.12,2.3-4.49,4.61-3,8.5.29.78.62,1.58,1,2.44-1.67,1.16-5.27,3.59-7.6,5a12.31,12.31,0,0,1-1.65.88c-2.1.85-4.53,1.89-4.31.52s1.3-5.28,0-4.74c-.91.38-4.7,2.2-7,3.29l-.41-.73h0c-1.05-1.83-2.4-3.94-3.95-6.18,2.43-2.72,6.79-6.64,14.62-11.57.65-.42,1.32-.82,2-1.25C371.93,108.75,379.08,107.58,382.62,107.45Z"/><path class="cls-6" d="M377.48,162a44.47,44.47,0,0,1-5.79-1.16c-1.14-.18-7.41-.08-10.31,0,0-4.51-.3-11.91.8-15.33a15.61,15.61,0,0,0,.59-2.88,37.83,37.83,0,0,0-.06-8.11c2.33-1.37,5.93-3.8,7.6-5a88.89,88.89,0,0,1,5.11,18.08A143.06,143.06,0,0,1,377.48,162Z"/><path class="cls-6" d="M378,173.36a23.88,23.88,0,0,1-1.9,8.11c-4.73-2-12.43-5.31-13.81-5.47a5.79,5.79,0,0,0-.65,0c0-2.31-.09-5.52-.58-6.31a4.68,4.68,0,0,1-.55-1.68c-.21-1.33-.06-2.87.55-3.48.28-.28.34-1.7.35-3.67,2.9-.06,9.17-.16,10.31,0a44.47,44.47,0,0,0,5.79,1.16C377.93,167.06,378,170.86,378,173.36Z"/><path class="cls-6" d="M285.69,232.38c-.07.81-.22,1.76-.41,2.81h0c-5.65.78-13.33,1.79-23.87,3.12-10.27,1.3-23,3.49-36,6-.18-1.63-.31-2.86-.38-3.57-.56-5.43-1.14-28-3.7-43l64.07-20.09C285.85,198.28,286.35,225.57,285.69,232.38Z"/><path class="cls-6" d="M285.36,177.65l-64.07,20.09a43.75,43.75,0,0,0-2.87-10.65c-5.09-10.69-18-36.43-18-39.1a2.32,2.32,0,0,0-.07-.56c6.08-.77,8.14-2.21,9.54-3.81,1.69-2,4.13-5.83,7.36-5.83s7.09,5.22,9.64,5.22c1.74,0,6.7-.3,9.66-.49a14,14,0,0,0,4.17,3.65c10.45,5,9.35,3.77,13,1.09s7.53-5.83,13.35-2.18,5.1,3.84,5.83,2.95,2.72-2.95,5.71.85c2.67,3.4,4.28,10.89,6.26,11.45C285,164.72,285.2,170.82,285.36,177.65Z"/><path class="cls-6" d="M328.51,193.08s-10.09,17.16-17.6,28.68c-3.65,5.59-6.68,9.85-7.66,10.17-2.17.7-3,1.2-17.95,3.26h0c.19-1.05.34-2,.41-2.81.66-6.81.16-34.1-.33-54.73-.16-6.83-.32-12.93-.45-17.32a1,1,0,0,0,.74-.12c2.34-1.42,5.14-4.39,9.33-2.87,3.65,1.32,6.79,1.17,10.1-1.55,2.92,4.68,5.79,9.27,8.47,13.54C322,182.8,328.51,193.08,328.51,193.08Z"/><path class="cls-6" d="M305.08,155.79c-3.31,2.72-6.45,2.87-10.1,1.55-4.19-1.52-7,1.45-9.33,2.87a1,1,0,0,1-.74.12c-2-.56-3.59-8.05-6.26-11.45-3-3.8-5-1.74-5.71-.85s0,.69-5.83-2.95-9.71-.49-13.35,2.18-2.55,3.88-13-1.09a14,14,0,0,1-4.17-3.65c-8.13-9.62-18.73-33.86-23.41-45.1l1-.18,48.66-29.48L273.6,87.58l7.73,14.26c-5.26,0-5.59,2.18-5.59,5C275.74,108.39,291,133.19,305.08,155.79Z"/><path class="cls-6" d="M326.52,101.86c-9.36,0-39.68.09-44.59,0h-.6L273.6,87.58c8.82-2.39,26.91-7.19,44.75-11.1l.61-.14C320.14,81.65,323.26,94.89,326.52,101.86Z"/><path class="cls-6" d="M382.09,88.62s0,0,0,.07c-5.87-.6-16.87-1.73-23.55-2.46-3.14-.34-5.34-.59-5.58-.64-.76-.19-.32-14.48-.1-20.58,0-.18,0-.34,0-.49,6.49.61,24.8,4.07,31.61,5.38.3,1.62.58,3.29.89,5C386.71,82.43,383.06,83.52,382.09,88.62Z"/><path class="cls-6" d="M345.41,127.54a17.53,17.53,0,0,0-2.65,3.7c-.52,1-1.42,11.29-2.18,21.32-.55,7.2-1,14.27-1.25,17.68a1.18,1.18,0,0,0-.38-.07c-1.25,0-20-.65-25.4-.84-2.68-4.27-5.55-8.86-8.47-13.54-14.1-22.6-29.34-47.4-29.34-49,0-2.81.33-5,5.59-5h.6c4.91.1,35.23,0,44.59,0a16,16,0,0,0,1.9,3.27C331.75,109.23,339.78,119.28,345.41,127.54Z"/><path class="cls-6" d="M360,116c-7.83,4.93-12.19,8.85-14.62,11.57-5.63-8.26-13.66-18.31-17-22.41a16,16,0,0,1-1.9-3.27c-3.26-7-6.38-20.21-7.56-25.52C343.27,70.9,345.12,64,352.21,64.47h0l.63.54c-.22,6.1-.66,20.39.1,20.58.24,0,2.44.3,5.58.64Z"/><path class="cls-6" d="M349.36,133.72h0a3.89,3.89,0,0,0-.24,1c-.25,1.67-.54,5.12-.85,9.38-.18,2.49-.36,5.24-.53,8.08l-7.16.33c.76-10,1.66-20.3,2.18-21.32a17.53,17.53,0,0,1,2.65-3.7C347,129.78,348.31,131.89,349.36,133.72Z"/><path class="cls-6" d="M362.77,142.62c-1.22.27-3,.68-4.23,1.08-1.55.51-7.82.49-10.27.45.31-4.26.6-7.71.85-9.38l.65-.31c2.26-1.09,6.05-2.91,7-3.29,1.32-.54.23,3.37,0,4.74s2.21.33,4.31-.52a12.31,12.31,0,0,0,1.65-.88A37.83,37.83,0,0,1,362.77,142.62Z"/><path class="cls-6" d="M361.61,176c-2.89-.07-10.91.7-12.62,0a17.07,17.07,0,0,1-2.5-1.45c.08-1.66.2-3.94.34-6.57h13.65a4.68,4.68,0,0,0,.55,1.68C361.52,170.45,361.61,173.66,361.61,176Z"/><path class="cls-6" d="M347.74,152.23c-.34,5.43-.66,11.14-.91,15.75-.14,2.63-.26,4.91-.34,6.57-2.47-1.58-5.77-3.88-7.16-4.31.21-3.41.7-10.48,1.25-17.68Z"/><path class="cls-6" d="M362.18,145.5c-1.1,3.42-.78,10.82-.8,15.33,0,2-.07,3.39-.35,3.67-.61.61-.76,2.15-.55,3.48H346.83c.25-4.61.57-10.32.91-15.75.17-2.84.35-5.59.53-8.08,2.45,0,8.72.06,10.27-.45,1.18-.4,3-.81,4.23-1.08A15.61,15.61,0,0,1,362.18,145.5Z"/></svg>