<?xml version="1.0" encoding="utf-8"?>
<!-- Generator: Adobe Illustrator 26.0.0, SVG Export Plug-In . SVG Version: 6.00 Build 0)  -->
<svg version="1.1" id="Layer_1" xmlns="http://www.w3.org/2000/svg" xmlns:xlink="http://www.w3.org/1999/xlink" x="0px" y="0px"
	 viewBox="0 0 1116 360" style="enable-background:new 0 0 1116 360;" xml:space="preserve">
<style type="text/css">
	.st0{fill:#ED2F38;}
	.st1{fill:#FFFFFF;}
	.st2{opacity:0.24;}
	.st3{opacity:0.19;fill:#FFFFFF;enable-background:new    ;}
	.st4{font-family:'Poppins-ExtraBold';}
	.st5{font-size:65.16px;}
	.st6{font-size:71.62px;}
	.st7{fill:#46506D;stroke:#1B1E2A;stroke-miterlimit:10;}
	.st8{fill:#1B1E2A;stroke:#1B1E2A;stroke-miterlimit:10;}
	.st9{fill:#1B1E2A;}
	.st10{font-family:'Poppins-Regular';}
	.st11{font-size:69.773px;}
	.st12{fill:none;stroke:#1B1E2A;stroke-miterlimit:10;}
	.st13{fill:#46506D;}
</style>
<rect class="st0" width="1116" height="360"/>
<image style="overflow:visible;enable-background:new    ;" width="1163" height="477" xlink:href="460151E1.jpg"  transform="matrix(0.999 0 0 0.999 -4.5776 471.5579)">
</image>
<rect y="375" class="st1" width="1116" height="360"/>
<g>
	<g class="st2">
		<text transform="matrix(1 0 0 1 -142.7365 114.885)" class="st3 st4 st5">DUMAGUETE</text>
		<text transform="matrix(1 0 0 1 286.0935 114.885)" class="st3 st4 st5">DUMAGUETE</text>
	</g>
	<g class="st2">
		<text transform="matrix(1 0 0 1 -396.9865 175.7251)" class="st3 st4 st5">DUMAGUETE</text>
		<text transform="matrix(1 0 0 1 31.8435 175.7251)" class="st3 st4 st5">DUMAGUETE</text>
	</g>
	<g class="st2">
		<text transform="matrix(1 0 0 1 -103.3565 233.265)" class="st3 st4 st5">DUMAGUETE</text>
		<text transform="matrix(1 0 0 1 325.4735 233.265)" class="st3 st4 st5">DUMAGUETE</text>
	</g>
	<g class="st2">
		<text transform="matrix(1 0 0 1 -400.2065 294.2451)" class="st3 st4 st5">DUMAGUETE</text>
		<text transform="matrix(1 0 0 1 28.6235 294.2451)" class="st3 st4 st5">DUMAGUETE</text>
	</g>
	<g class="st2">
		<text transform="matrix(1 0 0 1 -210.7565 354.3751)" class="st3 st4 st5">DUMAGUETE</text>
		<text transform="matrix(1 0 0 1 218.0735 354.3751)" class="st3 st4 st5">DUMAGUETE</text>
	</g>
	<g class="st2">
		<text transform="matrix(1 0 0 1 -51.6165 58.1951)" class="st3 st4 st6">DUMAGUETE</text>
	</g>
	<g class="st2">
		<text transform="matrix(1 0 0 1 714.3794 114.885)" class="st3 st4 st5">DUMAGUETE</text>
		<text transform="matrix(1 0 0 1 1143.2095 114.885)" class="st3 st4 st5">DUMAGUETE</text>
	</g>
	<g class="st2">
		<text transform="matrix(1 0 0 1 460.1295 175.725)" class="st3 st4 st5">DUMAGUETE</text>
		<text transform="matrix(1 0 0 1 888.9595 175.725)" class="st3 st4 st5">DUMAGUETE</text>
	</g>
	<g class="st2">
		<text transform="matrix(1 0 0 1 753.7595 233.265)" class="st3 st4 st5">DUMAGUETE</text>
		<text transform="matrix(1 0 0 1 1182.5894 233.265)" class="st3 st4 st5">DUMAGUETE</text>
	</g>
	<g class="st2">
		<text transform="matrix(1 0 0 1 456.9094 294.245)" class="st3 st4 st5">DUMAGUETE</text>
		<text transform="matrix(1 0 0 1 885.7395 294.245)" class="st3 st4 st5">DUMAGUETE</text>
	</g>
	<g class="st2">
		<text transform="matrix(1 0 0 1 646.3594 354.375)" class="st3 st4 st5">DUMAGUETE</text>
		<text transform="matrix(1 0 0 1 1075.1895 354.375)" class="st3 st4 st5">DUMAGUETE</text>
	</g>
	<g class="st2">
		<text transform="matrix(1 0 0 1 413.89 58.1955)" class="st3 st4 st6">DUMAGUETE</text>
	</g>
	<g class="st2">
		<text transform="matrix(1 0 0 1 876.7581 58.6968)" class="st3 st4 st6">DUMAGUETE</text>
	</g>
</g>
<g>
	<path class="st1" d="M-270.1-275.1L-270.1-275.1c0-0.1,0-0.1,0-0.1c0.3-1.1,0.7-2.2,1.3-3.2c2.2-3.6,2.9-7.9,2-12l-0.4-2.2
		c-0.2-1-0.3-1.9-0.5-2.9l0,0c-1.1-6.4-2.2-11.2-3.8-15.5c-2.7-7.4-5-14.9-6.9-22.5c-0.9-4.3-1.6-12.8-1.6-12.9
		c-0.2-2.4-2.2-4.1-4.6-4c-1.4,0.1-2.7,0.9-3.4,2.2c-2,3.4-5,6.9-6.4,7.3c-1.8,0.6-8.5,0.9-12.1,1c-4.9,0.2-6.6,0.3-7.8,1
		c-1.3,0.2-2.5,0.3-3.8,0.1c-2.4-0.6-17.6-1.7-22.9,0.4c-1.7,0.6-3.1,1.3-4.2,1.9l0,0l-1.1,0.5c-0.7,0.4-1.4,0.8-2.2,1.1
		c-7.6,1-15.2,1.6-22.9,1.8l0,0l-2,0.1c-12.7,0.3-20.5-1.3-21.6-1.6c-0.2-0.1-0.4-0.2-0.6-0.3c-2.7-1.2-10-4.4-18.4-2.9h-0.1h-0.2
		h-0.1l-0.7,0.1c-9.3,2-14.3,4.4-15.6,5c-1.8,0.7-15.4,5.2-20.9,6.8c-1.4-2.4-3.5-6.6-4.9-9.4c-4.2-8.2-4.9-9.6-6.4-10.5
		s-11-4.4-13.9-5.4c-13.8-4.8-14.4-4.5-16.2-3.4c-1.2,0.7-1.6,1.3-5.1,7.2c-3,5-11,18.4-13.8,20.3c-1.6,0.7-8.5,3.3-16.4,6.3
		c-10,3.8-22.4,8.6-32.5,12.5c-5.5,2.2-9.6,3.8-12.6,5c-1.7,0.7-2.9,1.2-3.8,1.6c-1.3,0.6-4.3,2-3.7,5.4c0.3,1.5,0.6,1.8,5.4,7.1
		c5,5.6,14.4,15.9,17.3,21.3c1.5,2.8,4.5,9.6,8.4,19.1l0,0c3.1,7.5,6.5,16.4,9.6,24.3l0,0c2.6,6.8,4.6,12.4,5.8,15.9
		c2.1,6.4,9.3,29.3,20.8,66.2l0,0l5.1,16.5l6.1,21.1l0,0l25.2,87.7c0.5,1.8,2.2,3.1,4.1,3.1c0.2,0,0.3,0,0.5,0l52.2-6.3h0.2l0.4-0.1
		h0.1l38-6.6l0,0l0.5-0.1l0.3-0.1l43.7-11c1.5-0.4,2.7-1.5,3.1-3c1.6-6.1,5.7-16.8,9.7-19.6c0.3-0.2,0.6-0.5,0.8-0.7
		c0,0,0.3-0.3,0.7-0.9l0,0c11.8-14.3,11.9-17.4,12-18.8V-82c0.4-14.6,2.4-19.3,3.4-20.8l0.4-0.5l0,0c2.9-4.2,5-9,5.9-14
		c1.1-5.5,1.7-9.4,2-11.1l0,0l0,0l0.2-1.1c0-0.1,0-0.2,0-0.3c1-8.3,3.3-16.4,6.7-24.1c2.3-4.8,5.2-9.4,8.6-13.4c2.2-2.7,4-5.1,5-8
		c0.4-1.3,1-2.6,1.5-3.9c0.3-0.8,0.6-1.5,0.9-2.2l0,0c1.3-3,2-6.3,2.1-9.6c0-2.8,0-6.7-0.5-11.7l0,0c-0.5-5-1.2-9.9-2.1-14.8
		c-1.1-6.5-2.8-12.8-5.2-18.9l0,0l0,0c-0.3-0.8-0.6-1.6-0.9-2.3c-0.3-0.6-0.5-1.3-0.5-2c0,0,0.2-0.4,1.6-1.2
		c4.2-2.4,9.6-7.1,12.1-13.3l0,0c0.6-1.4,1-2.8,1.2-4.2c0.5-3.5,0.2-7.1-0.9-10.5C-270-272.5-270.3-273.7-270.1-275.1z"/>
	<path class="st7" d="M-419.8-222.1c-3,0.2-7.9,0.5-9.7,0.5c-2.6,0-6.4-5.2-9.6-5.2s-5.7,3.9-7.4,5.8c-1.4,1.6-3.5,3-9.5,3.8
		c-1.3,0.2-2.8,0.3-4.5,0.4c-9.6,0.6-12.9-3.8-18.4-4.9s-5.8,0.9-9.5,1.7s-6.3-4.3-16.3-9.1c-10-4.9-8.9-1.6-13.3-0.6
		s-11.2-5.4-12.2-5.2c-0.6,0.2-3.7,5.1-6,8.9c-2.9-7.8-6.4-16.6-9.6-24.4c5.8-0.8,19.1-2.8,42.5-6.6c29.6-4.9,54.7-9.2,60-10.2
		C-438.5-255.9-427.9-231.7-419.8-222.1z"/>
	<path class="st7" d="M-393.5-296.8l-48.7,29.5l-1,0.2c-5.3,0.9-30.4,5.3-60,10.2c-23.4,3.9-36.6,5.8-42.5,6.6
		c-3.6-8.8-6.8-16.3-8.6-19.6c-4.7-8.6-22.1-26.3-22.3-27.2c-0.1-0.9,61.8-24.1,66.6-26.1c4.8-2,18.3-27.1,19.3-27.7
		s24.2,7.8,25.6,8.7c1.4,0.9,10.4,21.2,12,21.2s23.3-7.2,24.4-7.8s5.8-2.8,14.6-4.6c0.2-0.1,0.4-0.1,0.7-0.1L-393.5-296.8z"/>
	<path class="st7" d="M-435.1-166.9l-74.4,23.3c-6.7-21.6-17.9-57.7-20.8-66.3c-1.2-3.6-3.3-9.4-5.8-16c2.3-3.8,5.4-8.7,6-8.9
		c1-0.2,7.9,6.2,12.2,5.2s3.3-4.3,13.3,0.6s12.6,9.9,16.3,9.1s4-2.8,9.5-1.7s8.7,5.4,18.4,4.9c1.7-0.1,3.2-0.2,4.5-0.4
		c0,0.2,0.1,0.4,0.1,0.6c0,2.7,12.9,28.4,18,39.1C-436.5-174.1-435.6-170.5-435.1-166.9z"/>
	<path class="st7" d="M-431-120.3c-26.4,5.1-54.4,11.4-67.2,14.4l-6.1-21.1c0,0-2.1-6.8-5.1-16.5l74.4-23.3c2.6,15,3.1,37.6,3.7,43
		C-431.3-123.2-431.2-121.9-431-120.3z"/>
	<path class="st7" d="M-420.5-24.6l-0.4,0.1l-52.2,6.3l-25.2-87.7c12.8-3,40.8-9.4,67.2-14.4c1.6,14.7,6.9,63.3,7.4,75.1
		C-423.3-38.2-422.2-31.3-420.5-24.6z"/>
	<path class="st7" d="M-385-83.8c-0.5,1.8,1.8,39.8,2.5,52.5l-38,6.6c-1.7-6.7-2.8-13.6-3.2-20.6c-0.4-11.8-5.8-60.4-7.4-75.1
		c13.1-2.5,25.8-4.7,36-6c10.5-1.3,18.2-2.3,23.9-3.1c-1.4,6.7-3.2,13.4-5.4,19.9C-380.3-97.2-384.7-85.1-385-83.8z"/>
	<path class="st7" d="M-326.2-65.2l-0.7,0.8c-6.8,4.9-11.3,22-11.3,22l-43.7,11l-0.5,0.1c-0.8-12.8-3-50.7-2.5-52.5
		c0.4-1.3,4.7-13.4,8.5-25.7c3.1,7.4,9.1,20.9,11.1,22.8C-363.1-84.7-336.8-70.7-326.2-65.2z"/>
	<path class="st7" d="M-310.6-105.9c-0.2,0.3-0.3,0.4-0.3,0.4c-4.1,5.5-4.2,20.9-4.4,24.2c-0.1,2.8-8.5,13.2-11,16.2
		c-10.5-5.5-36.9-19.5-39.1-21.5c-2-1.8-8-15.4-11.1-22.8c2.2-6.5,4-13.2,5.4-19.9l0,0c7.2,0.9,20.6,8.5,25,10.2
		C-342.8-117.9-321.6-110-310.6-105.9z"/>
	<path class="st7" d="M-303.4-129.1c-0.3,1.8-1,5.6-2,11c-0.8,4.4-2.6,8.6-5.2,12.2c-11-4.1-32.2-12-35.5-13.3
		c-4.5-1.8-17.9-9.3-25-10.2c14.9-2.1,15.8-2.6,18-3.3c1-0.3,4-4.6,7.7-10.2c3.5,1.7,10.3,5.1,13.7,6.1
		C-327.9-135.5-309.9-130.8-303.4-129.1z"/>
	<path class="st7" d="M-280.3-183.1c-0.8,2.1-1.6,4.2-2.4,6.4c-1.7,5.1-7.8,8.9-13.5,21c-3.6,8.1-6,16.7-7,25.5c0,0-0.1,0.4-0.2,1.1
		c-6.5-1.7-24.5-6.4-28.4-7.6c-3.4-1.1-10.2-4.4-13.7-6.1c7.5-11.5,17.6-28.7,17.6-28.7s-6.5-10.3-15-23.8
		c5.4,0.2,24.1,0.8,25.4,0.8c0.1,0,0.3,0,0.4,0.1c1.4,0.4,4.7,2.7,7.2,4.3c0.8,0.6,1.7,1,2.5,1.4c1.7,0.7,9.7-0.1,12.6,0
		c0.2,0,0.4,0,0.6,0C-292.8-188.4-285.1-185.2-280.3-183.1z"/>
	<path class="st7" d="M-304.2-300.1c-7.1-0.5-8.9,6.4-33.2,11.9l-0.6,0.1c-17.8,3.9-35.9,8.7-44.8,11.1l-10.7-19.8l-19.9-36.8
		c8.5-1.6,15.7,2.5,17.1,3s9.5,2.2,23.1,1.9h2c4.3,7,13.6,22.2,14.1,22.2s23.2-6.5,33.8-9.5L-304.2-300.1z"/>
	<path class="st7" d="M-323.3-316c-10.6,3-33.5,9.4-33.8,9.5s-9.8-15.2-14.1-22.2c7.9-0.1,15.8-0.8,23.7-1.9
		c1.5-0.5,2.9-1.1,4.3-1.9L-323.3-316z"/>
	<path class="st7" d="M-271.9-294.7c-6.8-1.3-25.1-4.8-31.6-5.4h-0.6l0,0l-19.1-16l-19.9-16.6c1.1-0.5,2.4-1.1,3.9-1.7
		c4-1.6,18.3-0.8,20.2-0.2s6.5,0,7.1-0.5s15.1-0.3,19.1-1.7s8.7-9.2,8.7-9.2s0.7,8.9,1.7,13.5c1.9,7.8,4.3,15.6,7,23.2
		C-273.9-304.6-272.7-299.7-271.9-294.7z"/>
	<path class="st7" d="M-272.8-260.4c-0.2,1.1-0.5,2.2-0.9,3.3c-3.5,0.1-10.7,1.3-20.6,7.3c-0.7,0.4-1.4,0.8-2,1.2l-1.5-29.7
		c6.7,0.7,17.7,1.9,23.5,2.5C-275.2-270.9-271.8-267.2-272.8-260.4z"/>
	<path class="st7" d="M-273.8-257.2c-2.1,5.2-6.8,9.2-10.2,11.2c-4.1,2.3-4.5,4.6-3,8.5c0.3,0.8,0.6,1.6,1,2.4
		c-1.7,1.2-5.3,3.6-7.6,5c-0.5,0.3-1.1,0.6-1.6,0.9c-2.1,0.9-4.5,1.9-4.3,0.5s1.3-5.3,0-4.7c-0.9,0.4-4.7,2.2-7,3.3l-0.4-0.7l0,0
		c-1-1.8-2.4-3.9-4-6.2c2.4-2.7,6.8-6.6,14.6-11.6c0.6-0.4,1.3-0.8,2-1.2C-284.5-255.9-277.3-257-273.8-257.2z"/>
	<path class="st7" d="M-278.9-202.6c-2-0.3-3.9-0.6-5.8-1.2c-1.1-0.2-7.4-0.1-10.3,0c0-4.5-0.3-11.9,0.8-15.3
		c0.3-0.9,0.5-1.9,0.6-2.9c0.3-2.7,0.3-5.4-0.1-8.1c2.3-1.4,5.9-3.8,7.6-5c2.3,5.8,4.1,11.9,5.1,18.1
		C-280-212.2-279.4-207.4-278.9-202.6z"/>
	<path class="st7" d="M-278.4-191.2c-0.2,2.8-0.8,5.5-1.9,8.1c-4.7-2-12.4-5.3-13.8-5.5c-0.2,0-0.4,0-0.6,0c0-2.3-0.1-5.5-0.6-6.3
		c-0.3-0.5-0.5-1.1-0.5-1.7c-0.2-1.3-0.1-2.9,0.5-3.5c0.3-0.3,0.3-1.7,0.4-3.7c2.9-0.1,9.2-0.2,10.3,0c1.9,0.5,3.8,0.9,5.8,1.2
		C-278.5-197.5-278.4-193.7-278.4-191.2z"/>
	<path class="st7" d="M-370.7-132.2c-0.1,0.8-0.2,1.8-0.4,2.8l0,0c-5.6,0.8-13.3,1.8-23.9,3.1c-10.3,1.3-23,3.5-36,6
		c-0.2-1.6-0.3-2.9-0.4-3.6c-0.6-5.4-1.1-28-3.7-43L-371-187C-370.5-166.3-370-139-370.7-132.2z"/>
	<path class="st7" d="M-371-187l-64.1,20.1c-0.5-3.7-1.5-7.2-2.9-10.6c-5.1-10.7-18-36.4-18-39.1c0-0.2,0-0.4-0.1-0.6
		c6.1-0.8,8.1-2.2,9.5-3.8c1.7-2,4.1-5.8,7.4-5.8c3.2,0,7.1,5.2,9.6,5.2c1.7,0,6.7-0.3,9.7-0.5c1.1,1.5,2.6,2.7,4.2,3.6
		c10.4,5,9.4,3.8,13,1.1s7.5-5.8,13.4-2.2s5.1,3.8,5.8,2.9s2.7-2.9,5.7,0.9c2.7,3.4,4.3,10.9,6.3,11.4
		C-371.4-199.9-371.2-193.8-371-187z"/>
	<path class="st8" d="M-327.9-171.5c0,0-10.1,17.2-17.6,28.7c-3.6,5.6-6.7,9.9-7.7,10.2c-2.2,0.7-3,1.2-18,3.3l0,0
		c0.2-1.1,0.3-2,0.4-2.8c0.7-6.8,0.2-34.1-0.3-54.7c-0.2-6.8-0.3-12.9-0.5-17.3c0.3,0.1,0.5,0,0.7-0.1c2.3-1.4,5.1-4.4,9.3-2.9
		c3.6,1.3,6.8,1.2,10.1-1.6c2.9,4.7,5.8,9.3,8.5,13.5C-334.4-181.8-327.9-171.5-327.9-171.5z"/>
	<path class="st7" d="M-351.3-208.8c-3.3,2.7-6.5,2.9-10.1,1.6c-4.2-1.5-7,1.4-9.3,2.9c-0.2,0.1-0.5,0.2-0.7,0.1
		c-2-0.6-3.6-8.1-6.3-11.4c-3-3.8-5-1.7-5.7-0.9s0,0.7-5.8-2.9s-9.7-0.5-13.4,2.2s-2.6,3.9-13-1.1c-1.6-0.9-3-2.2-4.2-3.6
		c-8.1-9.6-18.7-33.9-23.4-45.1l1-0.2l48.7-29.5l10.8,19.8l7.7,14.3c-5.3,0-5.6,2.2-5.6,5C-380.7-256.2-365.4-231.4-351.3-208.8z"/>
	<path class="st7" d="M-329.9-262.7c-9.4,0-39.7,0.1-44.6,0h-0.6l-7.7-14.3c8.8-2.4,26.9-7.2,44.8-11.1l0.6-0.1
		C-336.3-283-333.1-269.7-329.9-262.7z"/>
	<path class="st7" d="M-274.3-276L-274.3-276c-5.9-0.5-16.9-1.7-23.5-2.4c-3.1-0.3-5.3-0.6-5.6-0.6c-0.8-0.2-0.3-14.5-0.1-20.6
		c0-0.2,0-0.3,0-0.5c6.5,0.6,24.8,4.1,31.6,5.4c0.3,1.6,0.6,3.3,0.9,5C-269.7-282.2-273.3-281.1-274.3-276z"/>
	<path class="st7" d="M-311-237.1c-1,1.1-1.9,2.4-2.6,3.7c-0.5,1-1.4,11.3-2.2,21.3c-0.5,7.2-1,14.3-1.2,17.7
		c-0.1,0-0.3-0.1-0.4-0.1c-1.2,0-20-0.6-25.4-0.8c-2.7-4.3-5.5-8.9-8.5-13.5c-14.1-22.6-29.3-47.4-29.3-49c0-2.8,0.3-5,5.6-5h0.6
		c4.9,0.1,35.2,0,44.6,0c0.5,1.2,1.1,2.3,1.9,3.3C-324.6-255.4-316.6-245.3-311-237.1z"/>
	<path class="st7" d="M-296.4-248.6c-7.8,4.9-12.2,8.8-14.6,11.6c-5.6-8.3-13.7-18.3-17-22.4c-0.8-1-1.4-2.1-1.9-3.3
		c-3.3-7-6.4-20.2-7.6-25.5c24.3-5.5,26.2-12.4,33.3-11.9l0,0l0.6,0.5c-0.2,6.1-0.7,20.4,0.1,20.6c0.2,0,2.4,0.3,5.6,0.6
		L-296.4-248.6z"/>
	<path class="st7" d="M-307-230.9L-307-230.9c-0.1,0.3-0.2,0.7-0.2,1c-0.2,1.7-0.5,5.1-0.9,9.4c-0.2,2.5-0.4,5.2-0.5,8.1l-7.2,0.3
		c0.8-10,1.7-20.3,2.2-21.3c0.7-1.3,1.6-2.6,2.6-3.7C-309.4-234.8-308.1-232.7-307-230.9z"/>
	<path class="st7" d="M-293.6-222c-1.2,0.3-3,0.7-4.2,1.1c-1.5,0.5-7.8,0.5-10.3,0.4c0.3-4.3,0.6-7.7,0.9-9.4l0.6-0.3
		c2.3-1.1,6-2.9,7-3.3c1.3-0.5,0.2,3.4,0,4.7s2.2,0.3,4.3-0.5c0.6-0.3,1.1-0.5,1.6-0.9C-293.4-227.4-293.3-224.7-293.6-222z"/>
	<path class="st7" d="M-294.8-188.6c-2.9-0.1-10.9,0.7-12.6,0c-0.9-0.4-1.7-0.9-2.5-1.4c0.1-1.7,0.2-3.9,0.3-6.6h13.6
		c0.1,0.6,0.3,1.2,0.5,1.7C-294.9-194.2-294.8-190.9-294.8-188.6z"/>
	<path class="st7" d="M-308.7-212.4c-0.3,5.4-0.7,11.1-0.9,15.8c-0.1,2.6-0.3,4.9-0.3,6.6c-2.5-1.6-5.8-3.9-7.2-4.3
		c0.2-3.4,0.7-10.5,1.2-17.7L-308.7-212.4z"/>
	<path class="st7" d="M-294.2-219.1c-1.1,3.4-0.8,10.8-0.8,15.3c0,2-0.1,3.4-0.4,3.7c-0.6,0.6-0.8,2.1-0.5,3.5h-13.7
		c0.2-4.6,0.6-10.3,0.9-15.8c0.2-2.8,0.4-5.6,0.5-8.1c2.5,0,8.7,0.1,10.3-0.4c1.2-0.4,3-0.8,4.2-1.1
		C-293.7-221-293.9-220-294.2-219.1z"/>
</g>
<g>
	<text transform="matrix(1 0 0 1 184.1554 213.1137)" class="st9 st10 st11">BAGACAY</text>
	<text transform="matrix(1 0 0 1 184.1554 213.1137)" class="st12 st10 st11">BAGACAY</text>
	<g>
		<g>
			<path class="st1" d="M171.9,154.9L171.9,154.9L171.9,154.9c0.1-0.4,0.2-0.8,0.4-1.1c0.7-1.2,1-2.6,0.7-4l-0.1-0.7
				c-0.1-0.3-0.1-0.6-0.2-1l0,0c-0.4-2.1-0.7-3.8-1.3-5.2c-0.9-2.5-1.7-5-2.3-7.5c-0.3-1.4-0.5-4.3-0.5-4.3
				c-0.1-0.8-0.7-1.4-1.5-1.3c-0.5,0-0.9,0.3-1.2,0.7c-0.7,1.1-1.7,2.3-2.1,2.5c-0.6,0.2-2.8,0.3-4,0.3c-1.6,0.1-2.2,0.1-2.6,0.3
				c-0.4,0.1-0.8,0.1-1.3,0c-0.8-0.2-5.9-0.6-7.7,0.1c-0.6,0.2-1,0.4-1.4,0.6l0,0l-0.4,0.2c-0.2,0.1-0.5,0.3-0.7,0.4
				c-2.5,0.3-5.1,0.5-7.7,0.6l0,0h-0.7c-4.3,0.1-6.9-0.4-7.2-0.6c-0.1,0-0.1-0.1-0.2-0.1c-0.9-0.4-3.3-1.5-6.2-1l0,0h-0.1l0,0h-0.2
				c-3.1,0.7-4.8,1.5-5.2,1.7c-0.6,0.2-5.1,1.7-7,2.3c-0.5-0.8-1.2-2.2-1.6-3.1c-1.4-2.8-1.7-3.2-2.1-3.5c-0.5-0.3-3.7-1.5-4.6-1.8
				c-4.6-1.6-4.8-1.5-5.4-1.1c-0.4,0.2-0.5,0.4-1.7,2.4c-1,1.7-3.7,6.2-4.6,6.8c-0.5,0.2-2.9,1.1-5.5,2.1c-3.3,1.3-7.5,2.9-10.9,4.2
				c-1.9,0.7-3.2,1.3-4.2,1.7c-0.6,0.2-1,0.4-1.3,0.5c-0.4,0.2-1.5,0.7-1.2,1.8c0.1,0.5,0.2,0.6,1.8,2.4c1.7,1.9,4.8,5.3,5.8,7.2
				c0.5,0.9,1.5,3.2,2.8,6.4l0,0c1,2.5,2.2,5.5,3.2,8.2l0,0c0.9,2.3,1.5,4.2,1.9,5.3c0.7,2.1,3.1,9.8,7,22.2l0,0l1.7,5.5l2,7.1l0,0
				l8.4,29.4c0.2,0.6,0.7,1,1.4,1c0.1,0,0.1,0,0.2,0l17.5-2.1h0.1h0.1l0,0l12.7-2.2l0,0h0.2h0.1l14.6-3.7c0.5-0.1,0.9-0.5,1-1
				c0.5-2,1.9-5.6,3.2-6.6c0.1-0.1,0.2-0.2,0.3-0.2c0,0,0.1-0.1,0.2-0.3l0,0c4-4.8,4-5.8,4-6.3v-0.3c0.1-4.9,0.8-6.5,1.1-7l0.1-0.2
				l0,0c1-1.4,1.7-3,2-4.7c0.4-1.9,0.6-3.2,0.7-3.7l0,0l0,0l0.1-0.4v-0.1c0.3-2.8,1.1-5.5,2.2-8.1c0.8-1.6,1.7-3.1,2.9-4.5
				c0.7-0.9,1.4-1.7,1.7-2.7c0.1-0.4,0.3-0.9,0.5-1.3c0.1-0.3,0.2-0.5,0.3-0.8l0,0c0.4-1,0.7-2.1,0.7-3.2c0-0.9,0-2.2-0.2-3.9l0,0
				c-0.2-1.7-0.4-3.3-0.7-5c-0.4-2.2-0.9-4.3-1.7-6.3l0,0l0,0c-0.1-0.3-0.2-0.5-0.3-0.8c-0.1-0.2-0.2-0.4-0.2-0.7
				c0,0,0.1-0.1,0.5-0.4c1.4-0.8,3.2-2.4,4.1-4.4l0,0c0.2-0.5,0.3-0.9,0.4-1.4c0.2-1.2,0.1-2.4-0.3-3.5
				C171.9,155.8,171.8,155.4,171.9,154.9z"/>
		</g>
		<g>
			<path class="st13" d="M121.8,172.7c-1,0.1-2.7,0.2-3.2,0.2c-0.9,0-2.1-1.7-3.2-1.7s-1.9,1.3-2.5,2c-0.5,0.5-1.2,1-3.2,1.3
				c-0.4,0.1-0.9,0.1-1.5,0.1c-3.2,0.2-4.3-1.3-6.2-1.6c-1.8-0.4-1.9,0.3-3.2,0.6c-1.2,0.3-2.1-1.4-5.4-3.1c-3.3-1.6-3-0.5-4.4-0.2
				c-1.5,0.4-3.8-1.8-4.1-1.7c-0.2,0.1-1.2,1.7-2,3c-1-2.6-2.1-5.6-3.2-8.2c2-0.3,6.4-0.9,14.2-2.2c9.9-1.6,18.3-3.1,20.1-3.4
				C115.5,161.4,119,169.5,121.8,172.7z"/>
			<path class="st9" d="M107.6,174.7c-1.8,0-2.9-0.5-3.8-1c-0.6-0.3-1.1-0.5-1.8-0.7c-1.2-0.2-1.6,0-2.1,0.2c-0.3,0.1-0.6,0.3-1,0.4
				c-0.7,0.2-1.3-0.3-2.3-1c-0.7-0.6-1.8-1.3-3.3-2.1c-2.4-1.2-2.8-0.9-3.4-0.6c-0.2,0.1-0.5,0.3-0.9,0.4c-1.1,0.3-2.5-0.7-3.4-1.3
				c-0.3-0.2-0.6-0.4-0.7-0.4c-0.1,0.1-0.5,0.6-1.9,2.9l-0.2,0.3l-0.1-0.3c-1-2.7-2.2-5.7-3.2-8.2l-0.1-0.2h0.2
				c2-0.3,6.4-0.9,14.2-2.2c10.4-1.7,19.1-3.2,20.1-3.4h0.1l0.1,0.1c1.4,3.4,5.1,11.8,7.8,15.1l0.2,0.3h-0.3
				c-1.1,0.1-2.7,0.2-3.2,0.2s-1-0.4-1.5-0.8c-0.6-0.5-1.2-0.9-1.7-0.9c-0.8,0-1.5,0.9-2,1.5c-0.1,0.1-0.2,0.3-0.3,0.4
				c-0.5,0.6-1.3,1.1-3.3,1.3c-0.4,0.1-0.9,0.1-1.5,0.1C108,174.7,107.8,174.7,107.6,174.7z M101,172.6c0.3,0,0.6,0,1,0.1
				c0.7,0.1,1.2,0.4,1.8,0.7c1,0.5,2.2,1.1,4.3,0.9c0.6,0,1.1-0.1,1.5-0.1c2.1-0.3,2.7-0.8,3.1-1.2c0.1-0.1,0.2-0.2,0.3-0.4
				c0.6-0.7,1.3-1.6,2.3-1.6c0.6,0,1.3,0.5,1.9,1c0.5,0.4,1,0.8,1.3,0.8c0.5,0,2.1-0.1,2.9-0.1c-2.7-3.4-6.2-11.3-7.6-14.8
				c-1.5,0.3-9.9,1.7-20,3.4c-7.6,1.2-12,1.9-14,2.2c1,2.4,2.1,5.2,3,7.7c1.6-2.7,1.8-2.7,1.9-2.8c0.2,0,0.4,0.1,1,0.5
				c0.8,0.6,2.2,1.5,3.1,1.3c0.4-0.1,0.6-0.2,0.8-0.4c0.8-0.4,1.3-0.6,3.7,0.6c1.6,0.8,2.6,1.5,3.4,2.1c0.9,0.7,1.4,1.1,2,0.9
				c0.4-0.1,0.7-0.2,0.9-0.3C100.1,172.7,100.4,172.6,101,172.6z"/>
		</g>
		<g>
			<path class="st13" d="M130.6,147.7l-16.3,9.9l-0.3,0.1c-1.8,0.3-10.2,1.8-20.1,3.4c-7.8,1.3-12.3,1.9-14.2,2.2
				c-1.2-2.9-2.3-5.5-2.9-6.6c-1.6-2.9-7.4-8.8-7.5-9.1s20.7-8.1,22.3-8.8s6.1-9.1,6.5-9.3c0.3-0.2,8.1,2.6,8.6,2.9
				c0.5,0.3,3.5,7.1,4,7.1s7.8-2.4,8.2-2.6c0.4-0.2,1.9-0.9,4.9-1.6c0.1,0,0.1,0,0.2,0L130.6,147.7z"/>
			<path class="st9" d="M79.5,163.4v-0.1c-0.9-2.3-2.2-5.3-2.9-6.5c-1.1-1.9-4.1-5.3-6-7.4c-1.3-1.5-1.5-1.7-1.5-1.8
				c0-0.2-0.1-0.3,16.8-6.8c2.9-1.1,5.1-2,5.6-2.2c1.1-0.5,3.7-4.9,5.2-7.3c0.9-1.5,1.1-1.9,1.3-2c0.5-0.3,8.7,2.9,8.7,2.9
				c0.2,0.1,0.7,1,1.7,3c0.8,1.6,2,3.9,2.3,4.1c0.5,0,7.7-2.4,8.1-2.6c0.2-0.1,1.8-0.9,4.9-1.6c0.1,0,0.2,0,0.2,0h0.1l6.8,12.6
				l-16.5,10l-0.3,0.1c-0.4,0.1-9.3,1.6-20.1,3.4c-7.8,1.3-12.3,1.9-14.2,2.2L79.5,163.4z M69.5,147.6c0.2,0.2,0.8,0.9,1.4,1.6
				c1.8,2,4.9,5.5,6,7.4c0.7,1.2,1.9,4.2,2.8,6.5c2-0.3,6.4-0.9,14.1-2.2c10.8-1.8,19.7-3.3,20.1-3.4l0.3-0.1l16.1-9.8l-6.5-12.1
				h-0.1c-3.1,0.7-4.7,1.5-4.9,1.5c-0.3,0.2-7.7,2.6-8.3,2.6c-0.4,0-0.9-1-2.5-4.2c-0.7-1.3-1.4-2.7-1.6-2.9
				c-0.5-0.3-7.7-2.9-8.4-2.9c-0.1,0.1-0.6,1-1.1,1.8c-2.1,3.5-4.2,7-5.3,7.4c-0.5,0.2-2.7,1.1-5.6,2.2
				C80.2,143.3,70.6,147,69.5,147.6z"/>
		</g>
		<g>
			<path class="st13" d="M116.6,191.2L91.7,199c-2.2-7.2-6-19.3-7-22.2c-0.4-1.2-1.1-3.2-2-5.4c0.8-1.3,1.8-2.9,2-3
				c0.3-0.1,2.6,2.1,4.1,1.7s1.1-1.4,4.4,0.2c3.3,1.6,4.2,3.3,5.4,3.1c1.2-0.3,1.3-0.9,3.2-0.6c1.8,0.4,2.9,1.8,6.2,1.6
				c0.6,0,1.1-0.1,1.5-0.1c0,0.1,0,0.1,0,0.2c0,0.9,4.3,9.5,6,13.1C116.2,188.8,116.5,190,116.6,191.2z"/>
			<path class="st9" d="M91.6,199.2V199c-1.4-4.4-5.9-19-7-22.2c-0.4-1.2-1.1-3.2-2-5.4v-0.1v-0.1c1.8-3,2-3,2.1-3.1
				c0.2,0,0.4,0.1,1,0.5c0.8,0.5,2.2,1.5,3.1,1.2c0.4-0.1,0.6-0.2,0.8-0.4c0.8-0.4,1.3-0.6,3.7,0.6c1.6,0.8,2.6,1.5,3.4,2.1
				c0.9,0.7,1.4,1.1,2,0.9c0.4-0.1,0.7-0.2,0.9-0.3c0.6-0.3,1-0.5,2.3-0.2c0.7,0.1,1.2,0.4,1.8,0.7c1,0.5,2.2,1.1,4.3,0.9
				c0.6,0,1.1-0.1,1.5-0.1h0.1v0.1c0,0.1,0,0.2,0,0.2c0,0.7,2.8,6.5,4.7,10.4c0.5,1,0.9,1.9,1.3,2.6c0.5,1.2,0.8,2.4,1,3.6v0.1h-0.1
				L91.6,199.2z M83,171.4c0.8,2.2,1.5,4.1,1.9,5.3c1.1,3.2,5.5,17.5,6.9,22.1l24.6-7.7c-0.2-1.2-0.5-2.3-0.9-3.4
				c-0.3-0.7-0.8-1.6-1.3-2.6c-2.6-5.3-4.8-9.8-4.8-10.5l0,0c-0.4,0-0.8,0.1-1.3,0.1c-2.1,0.1-3.4-0.5-4.4-1
				c-0.6-0.3-1.1-0.5-1.8-0.7c-1.2-0.2-1.6,0-2.1,0.2c-0.3,0.1-0.6,0.3-1,0.4c-0.7,0.2-1.3-0.3-2.3-1c-0.7-0.6-1.8-1.3-3.3-2.1
				c-2.4-1.2-2.8-0.9-3.4-0.6c-0.2,0.1-0.5,0.3-0.9,0.4c-1.1,0.3-2.5-0.7-3.4-1.3c-0.3-0.2-0.6-0.4-0.7-0.4
				C84.8,168.7,84.4,169.2,83,171.4z"/>
		</g>
		<g>
			<path class="st13" d="M118,206.8c-8.8,1.7-18.2,3.8-22.5,4.8l-2-7.1c0,0-0.7-2.3-1.7-5.5l24.9-7.8c0.9,5,1.1,12.6,1.2,14.4
				C117.9,205.8,117.9,206.3,118,206.8z"/>
			<path class="st9" d="M95.4,211.8l-2.1-7.2l0,0c0,0-0.7-2.3-1.7-5.5v-0.2l25.2-7.9v0.2c0.6,3.6,0.9,8.5,1.1,11.7
				c0.1,1.2,0.1,2.2,0.2,2.7c0,0.2,0.1,0.6,0.1,1.2v0.2H118C108.9,208.8,99.2,211,95.4,211.8L95.4,211.8z M91.9,199.1
				c1,3.2,1.7,5.4,1.7,5.4l2,6.9c3.8-0.9,13.2-3,22.2-4.8c-0.1-0.5-0.1-0.8-0.1-1c-0.1-0.5-0.1-1.5-0.2-2.7c-0.2-3.2-0.4-7.9-1-11.5
				L91.9,199.1z"/>
		</g>
		<g>
			<path class="st13" d="M121.5,238.9L121.5,238.9l-17.6,2.1l-8.4-29.4c4.3-1,13.7-3.1,22.5-4.8c0.5,4.9,2.3,21.2,2.5,25.2
				C120.6,234.3,121,236.6,121.5,238.9z"/>
			<path class="st9" d="M103.8,241.2l-8.5-29.7h0.2c2.9-0.7,12.9-3,22.5-4.8h0.2l0.2,1.8c0.6,6,2.2,20,2.3,23.6
				c0.1,2.3,0.5,4.6,1.1,6.9v0.2l-0.3,0.1L103.8,241.2z M95.7,211.7l8.4,29.1l17.3-2.1c-0.6-2.2-0.9-4.5-1-6.7
				c-0.1-3.6-1.7-17.6-2.3-23.5l-0.2-1.4C108.5,208.8,98.7,211,95.7,211.7z"/>
		</g>
		<g>
			<path class="st13" d="M133.4,219c-0.2,0.6,0.6,13.3,0.9,17.6l-12.7,2.2c-0.6-2.3-0.9-4.6-1.1-6.9c-0.2-4-1.9-20.2-2.5-25.2
				c4.4-0.8,8.6-1.6,12.1-2s6.1-0.8,8-1c-0.5,2.3-1.1,4.5-1.8,6.7C135,214.5,133.5,218.6,133.4,219z"/>
			<path class="st9" d="M121.4,239v-0.1c-0.6-2.3-0.9-4.6-1.1-6.9c-0.1-3.6-1.7-17.6-2.3-23.5l-0.2-1.8h0.2c4.9-0.9,9-1.6,12.1-2
				c3.3-0.4,6-0.8,8-1h0.2v0.2c-0.5,2.3-1.1,4.5-1.8,6.7c-0.9,2.8-1.8,5.6-2.4,7.3c-0.2,0.7-0.4,1.2-0.4,1.3
				c-0.1,0.5,0.4,9.4,0.9,17.5v0.1L121.4,239z M118.2,206.9l0.2,1.5c0.6,6,2.2,19.9,2.3,23.5c0.1,2.3,0.5,4.5,1,6.7l12.4-2.2
				c-0.3-5.2-1-16.9-0.8-17.5l0,0c0-0.1,0.2-0.6,0.4-1.3c0.6-1.7,1.5-4.4,2.4-7.3c0.7-2.1,1.3-4.3,1.7-6.4c-2,0.3-4.6,0.6-7.8,1
				C127,205.3,123,206,118.2,206.9z"/>
		</g>
		<g>
			<path class="st13" d="M153.1,225.3l-0.2,0.3c-2.3,1.6-3.8,7.4-3.8,7.4l-14.6,3.7h-0.2c-0.3-4.3-1-17-0.9-17.6
				c0.1-0.4,1.6-4.5,2.9-8.6c1,2.5,3.1,7,3.7,7.6C140.7,218.7,149.6,223.4,153.1,225.3z"/>
			<path class="st9" d="M134.1,236.8v-0.2c-0.1-1.7-1-16.9-0.8-17.7c0-0.1,0.2-0.7,0.5-1.4c0.6-1.6,1.5-4.4,2.4-7.2l0.1-0.4l0.2,0.4
				c1.4,3.4,3.1,7.1,3.7,7.6c0.8,0.7,10.2,5.7,13.1,7.2l0.2,0.1l-0.4,0.5c-2.2,1.6-3.7,7.2-3.7,7.3v0.1L134.1,236.8z M136.3,210.9
				c-0.8,2.6-1.7,5.2-2.2,6.8c-0.3,0.7-0.4,1.3-0.5,1.4c-0.1,0.5,0.4,10.6,0.8,17.4l14.5-3.7c0.2-0.8,1.7-5.8,3.8-7.4l0.1-0.1
				c-3.8-2-12.2-6.4-13-7.1C139.1,217.5,137,212.6,136.3,210.9z"/>
		</g>
		<g>
			<path class="st13" d="M158.4,211.6c-0.1,0.1-0.1,0.1-0.1,0.1c-1.4,1.8-1.4,7-1.5,8.1c0,0.9-2.9,4.4-3.7,5.4
				c-3.5-1.9-12.4-6.5-13.1-7.2c-0.7-0.6-2.7-5.2-3.7-7.6c0.7-2.2,1.3-4.4,1.8-6.7l0,0c2.4,0.3,6.9,2.8,8.4,3.4
				C147.6,207.6,154.7,210.2,158.4,211.6z"/>
			<path class="st9" d="M153.2,225.5l-0.1-0.1c-3.7-1.9-12.4-6.5-13.1-7.2c-0.7-0.7-2.9-5.6-3.8-7.7v-0.1v-0.1
				c0.7-2.2,1.3-4.4,1.8-6.7v-0.2h0.2c1.7,0.2,4.5,1.6,6.6,2.6c0.8,0.4,1.4,0.7,1.9,0.9c1.1,0.4,7.9,2.9,11.5,4.3l0.6,0.2l-0.1,0.2
				c-0.1,0.1-0.1,0.1-0.1,0.1c-1.2,1.7-1.4,6.2-1.4,7.7v0.3c0,0.9-2.3,3.8-3.7,5.5L153.2,225.5z M136.5,210.4
				c1.8,4.3,3.2,7.1,3.7,7.5c0.7,0.7,9.9,5.5,13,7.1c2.2-2.6,3.5-4.6,3.6-5.2v-0.3c0-1.5,0.2-6.1,1.5-7.9l-0.2-0.1
				c-3.9-1.5-10.4-3.9-11.5-4.3c-0.4-0.2-1.1-0.5-1.9-0.9c-1.9-1-4.6-2.2-6.3-2.5C137.7,206.1,137.1,208.3,136.5,210.4z"/>
		</g>
		<g>
			<path class="st13" d="M160.8,203.8c-0.1,0.6-0.3,1.9-0.7,3.7c-0.3,1.5-0.9,2.9-1.7,4.1c-3.7-1.4-10.8-4-11.9-4.4
				c-1.5-0.6-6-3.1-8.4-3.4c5-0.7,5.3-0.9,6-1.1c0.3-0.1,1.3-1.5,2.6-3.4c1.2,0.6,3.5,1.7,4.6,2
				C152.5,201.7,158.6,203.3,160.8,203.8z"/>
			<path class="st9" d="M158.4,211.8h-0.1c-3.7-1.4-10.8-4-11.9-4.4c-0.4-0.2-1.1-0.5-1.9-0.9c-2-1-4.7-2.3-6.4-2.5l-1.3-0.2
				l1.3-0.2c4.6-0.6,5.2-0.8,5.8-1h0.2c0.2-0.1,0.7-0.7,2.5-3.3l0.1-0.1l0.1,0.1c1,0.5,3.4,1.7,4.6,2c0.9,0.3,4.2,1.1,9.5,2.5h0.1
				v0.2c-0.1,0.7-0.4,2.2-0.7,3.7s-0.9,2.9-1.8,4.2L158.4,211.8z M139.1,203.8c1.7,0.5,3.9,1.5,5.6,2.3c0.8,0.4,1.5,0.7,1.9,0.9
				c1.1,0.4,8,3,11.8,4.4c0.8-1.2,1.4-2.5,1.6-3.9c0.3-1.4,0.5-2.8,0.6-3.5c-5.3-1.4-8.5-2.2-9.4-2.5c-1.1-0.4-3.4-1.5-4.5-2
				c-1.8,2.8-2.3,3.3-2.6,3.3H144C143.4,203.1,142.9,203.2,139.1,203.8z"/>
		</g>
		<g>
			<path class="st13" d="M168.5,185.8c-0.3,0.7-0.5,1.4-0.8,2.1c-0.6,1.7-2.6,3-4.5,7c-1.2,2.7-2,5.6-2.4,8.5c0,0,0,0.1-0.1,0.4
				c-2.2-0.6-8.2-2.1-9.5-2.5c-1.1-0.4-3.4-1.5-4.6-2c2.5-3.9,5.9-9.6,5.9-9.6s-2.2-3.4-5-8c1.8,0.1,8.1,0.3,8.5,0.3h0.1
				c0.5,0.1,1.6,0.9,2.4,1.4c0.3,0.2,0.6,0.3,0.9,0.5c0.6,0.2,3.3,0,4.2,0c0.1,0,0.1,0,0.2,0C164.3,184,166.9,185.1,168.5,185.8z"/>
			<path class="st9" d="M160.9,204h-0.2c-5.3-1.4-8.6-2.3-9.5-2.5c-1.2-0.4-3.6-1.6-4.6-2.1l-0.2-0.1l0.1-0.2
				c2.3-3.6,5.4-8.8,5.8-9.5c-0.4-0.6-2.4-3.8-5-7.9l-0.2-0.3h0.3c3,0.1,8.1,0.3,8.5,0.3c0.1,0,0.1,0,0.2,0c0.4,0.1,1.1,0.6,1.8,1.1
				c0.2,0.1,0.4,0.3,0.6,0.4c0.3,0.2,0.5,0.3,0.8,0.5c0.3,0.1,1.6,0.1,2.6,0c0.6,0,1.2-0.1,1.5,0c0.1,0,0.1,0,0.2,0
				c0.4,0,1.9,0.6,4.7,1.8l0.1,0.1l-0.1,0.1c-0.1,0.3-0.2,0.5-0.3,0.8c-0.2,0.4-0.3,0.9-0.5,1.4c-0.3,0.8-0.8,1.4-1.5,2.3
				c-0.9,1.1-2,2.5-3,4.8c-1.2,2.7-2,5.6-2.3,8.5c0,0,0,0.1-0.1,0.4L160.9,204z M146.9,199.2c1.1,0.5,3.3,1.6,4.4,2
				c0.9,0.3,4.1,1.1,9.3,2.5c0-0.1,0-0.2,0-0.2c0.4-3,1.2-5.8,2.4-8.6c1.1-2.3,2.2-3.7,3.1-4.8c0.7-0.8,1.2-1.5,1.4-2.2
				c0.2-0.5,0.3-0.9,0.5-1.4c0.1-0.2,0.2-0.4,0.2-0.6c-3.3-1.4-4.2-1.7-4.4-1.8c-0.1,0-0.1,0-0.2,0c-0.4,0-0.9,0-1.5,0
				c-1.4,0.1-2.4,0.1-2.8-0.1c-0.3-0.1-0.6-0.3-0.9-0.5c-0.2-0.1-0.4-0.2-0.6-0.4c-0.7-0.4-1.4-0.9-1.8-1h-0.1
				c-0.4,0-6.7-0.2-8.2-0.3c2.8,4.4,4.9,7.7,4.9,7.7l0.1,0.1l-0.1,0.1C152.7,189.8,149.4,195.4,146.9,199.2z"/>
		</g>
		<g>
			<path class="st13" d="M160.5,146.6c-2.4-0.2-3,2.2-11.1,4h-0.2c-6,1.3-12,2.9-15,3.7l-3.6-6.6l-6.7-12.3c2.8-0.5,5.3,0.8,5.7,1
				c0.5,0.2,3.2,0.7,7.7,0.6h0.7c1.4,2.3,4.6,7.4,4.7,7.4c0.1,0,7.8-2.2,11.3-3.2L160.5,146.6z"/>
			<path class="st9" d="M134.1,154.5l-10.4-19.3h0.2c2.5-0.5,4.6,0.5,5.5,0.9c0.1,0.1,0.2,0.1,0.3,0.1c0.5,0.2,3.1,0.7,7.7,0.6h0.8
				v0.1c2,3.3,4.2,6.9,4.6,7.3c0.5-0.1,4.6-1.3,7.9-2.2c1.3-0.4,2.4-0.7,3.4-0.9h0.1l6.9,5.7h-0.5c-1-0.1-1.6,0.3-2.7,0.9
				c-1.5,0.8-3.7,2-8.4,3.1h-0.2c-5.5,1.2-11.2,2.7-15,3.7L134.1,154.5z M124.2,135.5l10.1,18.6c3.8-1,9.4-2.5,14.9-3.7h0.2
				c4.6-1,6.8-2.2,8.3-3c0.9-0.5,1.6-0.9,2.4-0.9l-6-5c-0.9,0.3-2.1,0.6-3.3,0.9c-6.3,1.8-7.9,2.2-8,2.2s-0.3,0-4.8-7.4h-0.6
				c-4.6,0.1-7.3-0.5-7.8-0.6c-0.1,0-0.2-0.1-0.3-0.1C128.4,136,126.5,135.1,124.2,135.5z"/>
		</g>
		<g>
			<path class="st13" d="M154.1,141.2c-3.5,1-11.2,3.1-11.3,3.2s-3.3-5.1-4.7-7.4c2.7,0,5.3-0.3,7.9-0.6c0.5-0.2,1-0.4,1.4-0.6
				L154.1,141.2z"/>
			<path class="st9" d="M142.8,144.6c-0.2,0-0.5-0.5-4.9-7.5l-0.2-0.2h0.3c2.6,0,5.3-0.3,7.9-0.6c0.5-0.2,0.9-0.4,1.4-0.6l0.1-0.1
				l7,5.8l-0.3,0.1C150.5,142.4,142.9,144.5,142.8,144.6L142.8,144.6z M138.3,137.1c3.3,5.4,4.2,6.8,4.5,7.1
				c0.8-0.2,7.5-2.1,10.9-3.1l-6.3-5.3c-0.4,0.2-0.9,0.4-1.4,0.6C143.5,136.9,140.9,137.1,138.3,137.1z"/>
		</g>
		<g>
			<path class="st13" d="M171.3,148.4c-2.3-0.4-8.4-1.6-10.6-1.8h-0.2l0,0l-6.4-5.3l-6.7-5.6c0.4-0.2,0.8-0.4,1.3-0.6
				c1.3-0.5,6.1-0.3,6.8-0.1c0.6,0.2,2.2,0,2.4-0.2s5-0.1,6.4-0.6s2.9-3.1,2.9-3.1s0.2,3,0.6,4.5c0.6,2.6,1.4,5.2,2.3,7.8
				C170.6,145.1,171,146.7,171.3,148.4z"/>
			<path class="st9" d="M171.5,148.6h-0.2c-2.5-0.5-8.4-1.6-10.6-1.8h-0.3l0,0l-13.3-11.1l0.2-0.1c0.4-0.2,0.8-0.4,1.3-0.6
				c1.4-0.6,6.2-0.3,6.9-0.1c0.6,0.2,2,0,2.2-0.1c0.1-0.1,0.3-0.1,2-0.2c1.5-0.1,3.7-0.1,4.5-0.4c1.3-0.4,2.8-3,2.8-3l0.3-0.5v0.5
				c0,0,0.2,3,0.6,4.5c0.6,2.6,1.4,5.2,2.3,7.7c0.6,1.6,1,3.3,1.2,4.9L171.5,148.6z M160.6,146.4h0.2c2.1,0.2,7.8,1.3,10.4,1.8
				c-0.3-1.6-0.7-3.1-1.2-4.6c-0.9-2.5-1.7-5.2-2.3-7.8c-0.2-1.2-0.4-3.1-0.5-4c-0.5,0.8-1.7,2.4-2.7,2.7c-0.8,0.3-3,0.4-4.6,0.4
				c-0.8,0-1.6,0.1-1.8,0.1c-0.3,0.2-1.9,0.4-2.5,0.2c-0.7-0.2-5.4-0.4-6.7,0.1c-0.4,0.2-0.8,0.3-1.1,0.5L160.6,146.4z"/>
		</g>
		<g>
			<path class="st13" d="M171,159.9c-0.1,0.4-0.2,0.7-0.3,1.1c-1.2,0-3.6,0.4-6.9,2.4c-0.2,0.1-0.5,0.3-0.7,0.4l-0.5-10
				c2.2,0.2,5.9,0.6,7.9,0.8C170.2,156.4,171.4,157.6,171,159.9z"/>
			<path class="st9" d="M163,164.1l-0.5-10.5h0.2c2.2,0.2,5.9,0.6,7.9,0.8h0.2v0.2c-0.1,0.8,0,1.4,0.2,2.2s0.5,1.8,0.3,3l0,0
				c-0.1,0.4-0.2,0.8-0.3,1.1v0.1h-0.1c-1.1,0-3.5,0.4-6.8,2.4l-0.1,0.1c-0.2,0.1-0.4,0.2-0.5,0.3L163,164.1z M162.8,154l0.5,9.5
				c0.1-0.1,0.2-0.1,0.3-0.2l0.1-0.1c3.3-2,5.7-2.4,6.9-2.5c0.1-0.3,0.2-0.6,0.3-1c0.2-1.2,0-2-0.3-2.9c-0.2-0.7-0.4-1.4-0.3-2.1
				C168.4,154.6,165,154.3,162.8,154z"/>
		</g>
		<g>
			<path class="st13" d="M170.7,161c-0.7,1.7-2.3,3.1-3.4,3.7c-1.4,0.8-1.5,1.5-1,2.8c0.1,0.3,0.2,0.5,0.3,0.8
				c-0.6,0.4-1.8,1.2-2.5,1.7c-0.2,0.1-0.4,0.2-0.6,0.3c-0.7,0.3-1.5,0.6-1.4,0.2c0.1-0.5,0.4-1.8,0-1.6c-0.3,0.1-1.6,0.7-2.3,1.1
				l-0.1-0.2l0,0c-0.4-0.6-0.8-1.3-1.3-2.1c0.8-0.9,2.3-2.2,4.9-3.9c0.2-0.1,0.4-0.3,0.7-0.4C167.1,161.4,169.5,161,170.7,161z"/>
			<path class="st9" d="M162.2,170.9c-0.1,0-0.2,0-0.3-0.1s-0.1-0.2-0.1-0.3s0-0.2,0.1-0.3c0.1-0.3,0.2-0.9,0.1-1.1
				c-0.3,0.1-1,0.5-1.7,0.8l-0.8,0.4l-0.2-0.4c-0.3-0.6-0.8-1.3-1.3-2.1l-0.1-0.1l0.1-0.1c1.1-1.2,2.7-2.5,4.9-3.9
				c0.1-0.1,0.3-0.2,0.4-0.2l0.3-0.2c3.4-2.1,5.8-2.4,7-2.5h0.3l-0.1,0.2c-0.7,1.8-2.3,3.2-3.5,3.8c-1.4,0.8-1.4,1.5-0.9,2.6
				c0.1,0.2,0.2,0.5,0.3,0.8l0.1,0.1l-0.1,0.1c-0.6,0.4-1.8,1.2-2.6,1.7c-0.2,0.1-0.4,0.2-0.6,0.3h-0.1
				C162.9,170.7,162.5,170.9,162.2,170.9z M162.1,168.7c0.1,0,0.1,0,0.2,0.1c0.2,0.2,0.1,0.7,0,1.4c0,0.1,0,0.2-0.1,0.3l0,0
				c0.1,0.1,0.8-0.2,1.1-0.4h0.1c0.2-0.1,0.4-0.2,0.5-0.3c0.7-0.4,1.8-1.2,2.4-1.6c-0.1-0.3-0.2-0.5-0.3-0.7
				c-0.5-1.3-0.5-2.2,1.1-3.1c1.1-0.6,2.5-1.8,3.3-3.4c-1.2,0.1-3.5,0.5-6.5,2.4l-0.3,0.2c-0.1,0.1-0.3,0.2-0.4,0.2
				c-2.1,1.3-3.7,2.6-4.8,3.7c0.5,0.7,0.9,1.4,1.3,2l0.1,0.1l0.5-0.2c0.7-0.3,1.5-0.7,1.7-0.8C162,168.7,162.1,168.7,162.1,168.7z"
				/>
		</g>
		<g>
			<path class="st13" d="M169,179.2c-0.7-0.1-1.3-0.2-1.9-0.4c-0.4-0.1-2.5,0-3.5,0c0-1.5-0.1-4,0.3-5.1c0.1-0.3,0.2-0.6,0.2-1
				c0.1-0.9,0.1-1.8,0-2.7c0.8-0.5,2-1.3,2.5-1.7c0.8,2,1.4,4,1.7,6.1C168.6,176,168.8,177.6,169,179.2z"/>
			<path class="st9" d="M169.1,179.4h-0.2c-0.7-0.1-1.3-0.2-2-0.4c-0.3-0.1-2.2,0-3.4,0h-0.2v-0.2c0-0.3,0-0.5,0-0.8
				c0-1.5,0-3.4,0.3-4.4c0.1-0.3,0.2-0.6,0.2-0.9c0.1-0.9,0.1-1.8,0-2.7v-0.1l0.1-0.1c0.8-0.5,2-1.3,2.5-1.7l0.2-0.1l0.1,0.2
				c0.8,2,1.4,4,1.7,6.1c0.3,1.6,0.5,3.2,0.7,4.8L169.1,179.4z M165.9,178.6c0.6,0,1,0,1.2,0c0.6,0.2,1.2,0.3,1.7,0.4
				c-0.1-1.5-0.4-3.1-0.7-4.6c-0.3-2-0.9-4-1.6-5.8c-0.6,0.4-1.6,1.1-2.3,1.5c0.1,0.9,0.1,1.8,0,2.6c0,0.3-0.1,0.7-0.2,1
				c-0.3,0.9-0.3,2.8-0.3,4.3c0,0.2,0,0.4,0,0.7C164.3,178.7,165.2,178.6,165.9,178.6z"/>
		</g>
		<g>
			<path class="st13" d="M169.1,183c-0.1,0.9-0.3,1.9-0.6,2.7c-1.6-0.7-4.2-1.8-4.6-1.8c-0.1,0-0.1,0-0.2,0c0-0.8,0-1.8-0.2-2.1
				c-0.1-0.2-0.2-0.4-0.2-0.6c-0.1-0.4,0-1,0.2-1.2c0.1-0.1,0.1-0.6,0.1-1.2c1,0,3.1-0.1,3.5,0c0.6,0.2,1.3,0.3,1.9,0.4
				C169.1,180.9,169.1,182.2,169.1,183z"/>
			<path class="st9" d="M168.6,186l-0.6-0.3c-1.5-0.6-3.7-1.6-4.1-1.6c-0.1,0-0.1,0-0.2,0h-0.2v-0.2c0-1.6-0.1-2-0.2-2
				c-0.1-0.2-0.2-0.4-0.2-0.6c-0.1-0.5,0-1,0.2-1.3c0-0.1,0.1-0.4,0.1-1.1v-0.2h0.2c0.7,0,3.1-0.1,3.5,0c0.6,0.2,1.3,0.3,1.9,0.4
				h0.1v0.1c0.1,1.3,0.2,2.6,0.2,3.8l0,0c-0.1,1-0.3,1.9-0.6,2.8L168.6,186z M163.8,183.7C163.8,183.7,163.9,183.7,163.8,183.7
				c0.5,0.1,2.2,0.8,4.3,1.6l0.3,0.1c0.3-0.8,0.5-1.6,0.6-2.5c0-1.2-0.1-2.4-0.2-3.6c-0.6-0.1-1.2-0.2-1.8-0.4c-0.3,0-1.8,0-3.2,0
				c0,0.8,0,1.1-0.2,1.2c-0.1,0.1-0.2,0.6-0.1,1c0,0.2,0.1,0.4,0.2,0.5C163.7,181.8,163.8,182.1,163.8,183.7z"/>
		</g>
		<g>
			<path class="st13" d="M138.2,202.8c0,0.3-0.1,0.6-0.1,0.9l0,0c-1.9,0.3-4.5,0.6-8,1c-3.4,0.4-7.7,1.2-12.1,2
				c-0.1-0.5-0.1-1-0.1-1.2c-0.2-1.8-0.4-9.4-1.2-14.4l21.5-6.7C138.3,191.4,138.4,200.5,138.2,202.8z"/>
			<path class="st9" d="M117.9,207v-0.2c-0.1-0.5-0.1-1-0.1-1.2c-0.1-0.5-0.1-1.5-0.2-2.7c-0.2-3.2-0.4-8.1-1.1-11.7v-0.1l21.8-6.8
				v0.2c0.1,6.8,0.3,16.1,0.1,18.4c0,0.2-0.1,0.5-0.1,1v0.1h-0.1c-2,0.3-4.7,0.6-8,1c-3.2,0.4-7.2,1.1-12,2H117.9z M116.8,191.3
				c0.6,3.6,0.9,8.4,1,11.6c0.1,1.2,0.1,2.2,0.2,2.7c0,0.2,0.1,0.6,0.1,1c4.8-0.9,8.8-1.6,11.9-2c3.3-0.4,5.8-0.7,7.9-1
				c0.1-0.3,0.1-0.6,0.1-0.8l0,0c0.2-2.3,0.1-11.3-0.1-18.1L116.8,191.3z"/>
		</g>
		<g>
			<path class="st13" d="M138.1,184.5l-21.5,6.7c-0.2-1.2-0.5-2.4-1-3.6c-1.7-3.6-6-12.2-6-13.1c0-0.1,0-0.1,0-0.2
				c2-0.3,2.7-0.7,3.2-1.3c0.6-0.7,1.4-2,2.5-2s2.4,1.7,3.2,1.7c0.6,0,2.2-0.1,3.2-0.2c0.4,0.5,0.9,0.9,1.4,1.2
				c3.5,1.7,3.1,1.3,4.4,0.4s2.5-2,4.5-0.7c1.9,1.2,1.7,1.3,2,1c0.2-0.3,0.9-1,1.9,0.3c0.9,1.1,1.4,3.6,2.1,3.8
				C138,180.1,138,182.2,138.1,184.5z"/>
			<path class="st9" d="M116.5,191.4v-0.2c-0.2-1.2-0.5-2.4-1-3.5c-0.4-0.8-0.9-1.9-1.5-3.1c-2.6-5.3-4.6-9.4-4.6-10.1v-0.1v-0.2
				h0.2c2.1-0.3,2.7-0.8,3.1-1.2c0.1-0.1,0.2-0.2,0.3-0.3c0.6-0.7,1.3-1.7,2.3-1.7c0.6,0,1.3,0.5,1.9,1c0.5,0.4,1,0.8,1.3,0.8
				c0.6,0,2.3-0.1,3.2-0.2h0.1l0.1,0.1c0.4,0.5,0.8,0.9,1.3,1.2c2.9,1.4,3,1.3,3.7,0.7c0.1-0.1,0.3-0.2,0.4-0.3l0.1-0.1
				c1.2-0.9,2.6-1.9,4.5-0.6c0.6,0.4,1,0.7,1.3,0.9c0.2,0.1,0.3,0.2,0.4,0.2l0,0v-0.1c0.1-0.1,0.4-0.5,0.9-0.5
				c0.4,0,0.8,0.3,1.2,0.8s0.8,1.4,1.1,2.1c0.3,0.7,0.7,1.6,0.9,1.7h0.1v1.2c0,1.3,0.1,3,0.1,4.7v0.1h-0.1L116.5,191.4z
				 M109.8,174.5L109.8,174.5c0,0.7,2.7,6.3,4.5,10c0.6,1.2,1.1,2.3,1.5,3.1c0.5,1.1,0.8,2.3,0.9,3.4l21.2-6.6
				c0-1.7-0.1-3.3-0.1-4.6v-1c-0.4-0.2-0.7-0.9-1-1.8c-0.3-0.7-0.6-1.5-1-2c-0.4-0.4-0.7-0.7-1-0.7c-0.2,0-0.4,0.1-0.7,0.4l0,0
				c-0.2,0.3-0.3,0.2-0.8-0.1c-0.3-0.2-0.7-0.5-1.3-0.9c-1.8-1.1-3-0.2-4.2,0.6l-0.1,0.1c-0.2,0.1-0.3,0.2-0.4,0.3
				c-0.8,0.7-1.1,0.8-4.1-0.7c-0.5-0.3-1-0.7-1.4-1.2c-1.2,0.1-2.6,0.2-3.2,0.2c-0.5,0-1-0.4-1.5-0.8c-0.6-0.5-1.2-0.9-1.7-0.9
				c-0.8,0-1.5,0.9-2.1,1.5c-0.1,0.1-0.2,0.2-0.3,0.4C112.4,173.8,111.7,174.2,109.8,174.5z"/>
		</g>
		<g>
			<path class="st9" d="M152.6,189.6c0,0-3.4,5.7-5.9,9.6c-1.2,1.9-2.2,3.3-2.6,3.4c-0.7,0.2-1,0.4-6,1.1l0,0
				c0.1-0.4,0.1-0.7,0.1-0.9c0.2-2.3,0.1-11.4-0.1-18.3c-0.1-2.3-0.1-4.3-0.2-5.8c0.1,0,0.2,0,0.2,0c0.8-0.5,1.7-1.5,3.1-1
				c1.2,0.4,2.3,0.4,3.4-0.5c1,1.6,1.9,3.1,2.8,4.5C150.4,186.2,152.6,189.6,152.6,189.6z"/>
			<path class="st9" d="M137.9,203.9v-0.2c0.1-0.4,0.1-0.7,0.1-0.9c0.2-1.8,0.1-7.9-0.1-18.3c-0.1-2.3-0.1-4.3-0.2-5.8v-0.2h0.2h0.1
				c0.1-0.1,0.3-0.2,0.4-0.3c0.7-0.5,1.6-1.1,2.8-0.7c1.3,0.5,2.2,0.3,3.2-0.5l0.1-0.1l0.1,0.2c1,1.6,1.9,3.1,2.8,4.5
				c2.8,4.5,5,7.9,5,8l0.1,0.1l-0.1,0.1c0,0.1-3.4,5.8-5.9,9.6c-1.9,2.9-2.4,3.4-2.7,3.5l-0.2,0.1c-0.7,0.2-1.2,0.4-5.9,1
				L137.9,203.9z M138.1,178.8c0,1.5,0.1,3.4,0.1,5.6c0.2,10.4,0.3,16.6,0.1,18.4c0,0.2,0,0.4-0.1,0.7c4.4-0.6,5-0.8,5.6-1l0.2-0.1
				c0.1,0,0.6-0.4,2.5-3.3c2.3-3.6,5.4-8.8,5.8-9.5c-0.4-0.6-2.4-3.8-4.9-7.9c-0.9-1.4-1.8-2.9-2.7-4.4c-1,0.8-2.1,0.9-3.4,0.4
				c-1.1-0.4-1.8,0.2-2.5,0.6c-0.2,0.1-0.3,0.2-0.5,0.3C138.2,178.8,138.2,178.8,138.1,178.8z"/>
		</g>
		<g>
			<path class="st13" d="M144.7,177.1c-1.1,0.9-2.2,1-3.4,0.5c-1.4-0.5-2.3,0.5-3.1,1c-0.1,0-0.2,0.1-0.2,0
				c-0.7-0.2-1.2-2.7-2.1-3.8c-1-1.3-1.7-0.6-1.9-0.3s0,0.2-2-1s-3.3-0.2-4.5,0.7s-0.9,1.3-4.4-0.4c-0.5-0.3-1-0.7-1.4-1.2
				c-2.7-3.2-6.3-11.3-7.8-15.1l0.3-0.1l16.3-9.9l3.6,6.6l2.6,4.8c-1.8,0-1.9,0.7-1.9,1.7C134.9,161.3,140,169.6,144.7,177.1z"/>
			<path class="st9" d="M138,178.8h-0.1c-0.4-0.1-0.8-0.9-1.2-1.9c-0.3-0.7-0.6-1.5-1-2c-0.4-0.4-0.7-0.7-1-0.7l0,0
				c-0.2,0-0.4,0.1-0.7,0.4l0,0c-0.2,0.3-0.3,0.2-0.8-0.1c-0.3-0.2-0.7-0.5-1.3-0.9c-1.8-1.1-3-0.2-4.2,0.6l-0.1,0.1
				c-0.2,0.1-0.3,0.2-0.4,0.3c-0.8,0.7-1.1,0.8-4.1-0.7c-0.6-0.3-1.1-0.8-1.5-1.3c-2.8-3.3-6.4-11.7-7.9-15.1l-0.1-0.2l0.5-0.1
				l16.4-9.9l6.4,11.8h-0.3c-1.6,0-1.7,0.6-1.7,1.5c0,0.3,1.8,3.4,9.8,16.3l0.1,0.1l-0.1,0.1c-1.1,0.9-2.2,1-3.5,0.5
				c-1.1-0.4-1.8,0.2-2.5,0.6c-0.2,0.1-0.3,0.2-0.5,0.3C138.2,178.8,138.1,178.8,138,178.8z M134.7,173.9L134.7,173.9
				c0.4,0,0.8,0.3,1.3,0.8c0.4,0.5,0.8,1.4,1.1,2.1c0.3,0.7,0.7,1.6,0.9,1.7h0.1c0.1-0.1,0.3-0.2,0.4-0.3c0.7-0.5,1.6-1.1,2.8-0.7
				c1.2,0.4,2.2,0.3,3.1-0.4c-8.7-13.9-9.8-16-9.8-16.4c0-1,0.1-1.8,1.8-1.8l-6-11l-16.2,9.8H114c1.5,3.6,5,11.7,7.7,14.9
				c0.4,0.5,0.8,0.9,1.4,1.2c2.9,1.4,3,1.3,3.7,0.7c0.1-0.1,0.3-0.2,0.4-0.3l0.1-0.1c1.2-0.9,2.6-1.9,4.5-0.6
				c0.7,0.4,1.1,0.7,1.3,0.9c0.2,0.1,0.3,0.2,0.4,0.2l0,0v-0.1C134.1,174.1,134.4,173.9,134.7,173.9z"/>
		</g>
		<g>
			<path class="st13" d="M151.9,159.1c-3.1,0-13.3,0-14.9,0h-0.2l-2.6-4.8c3-0.8,9-2.4,15-3.7h0.2
				C149.8,152.3,150.8,156.7,151.9,159.1z"/>
			<path class="st9" d="M140.9,159.3c-1.9,0-3.4,0-3.9,0h-0.3l-2.7-5.1l0.2-0.1c3.8-1,9.5-2.5,15-3.7l0.4-0.1v0.2
				c0.4,1.8,1.4,6.2,2.5,8.5l0.1,0.2h-0.3c-0.9,0-2.4,0-4,0C145.7,159.3,143,159.3,140.9,159.3z M136.9,158.9h0.1
				c1.2,0,6.8,0,10.9,0c1.5,0,2.9,0,3.8,0c-1-2.3-2-6.4-2.4-8.2l0,0c-5.4,1.2-11,2.6-14.8,3.7L136.9,158.9z"/>
		</g>
		<g>
			<path class="st13" d="M170.5,154.6L170.5,154.6c-2-0.2-5.7-0.6-7.9-0.8c-1.1-0.1-1.8-0.2-1.9-0.2c-0.3-0.1-0.1-4.9,0-6.9
				c0-0.1,0-0.1,0-0.2c2.2,0.2,8.3,1.4,10.6,1.8c0.1,0.5,0.2,1.1,0.3,1.7C172,152.6,170.8,152.9,170.5,154.6z"/>
			<path class="st9" d="M170.7,154.9h-0.2c-2-0.2-5.6-0.6-7.9-0.8c-0.8-0.1-1.8-0.2-1.9-0.2c-0.2,0-0.4-0.1-0.2-7.1v-0.3h0.2
				c2.2,0.2,8.1,1.3,10.6,1.8h0.1v0.1c0.1,0.3,0.1,0.6,0.2,0.9c0,0.3,0.1,0.5,0.1,0.8c0.3,1.7-0.1,2.4-0.5,3.2
				c-0.2,0.4-0.5,0.8-0.6,1.4L170.7,154.9L170.7,154.9z M160.8,153.5c0.2,0,0.7,0.1,1.8,0.2c2.2,0.2,5.7,0.6,7.7,0.8
				c0.1-0.6,0.4-1,0.6-1.4c0.4-0.7,0.8-1.4,0.5-3c0-0.3-0.1-0.5-0.1-0.8s-0.1-0.5-0.1-0.8c-2.5-0.5-8-1.5-10.3-1.8
				C160.7,151.2,160.8,153.1,160.8,153.5z"/>
		</g>
		<g>
			<path class="st13" d="M158.2,167.7c-0.3,0.4-0.6,0.8-0.9,1.2c-0.2,0.3-0.5,3.8-0.7,7.1c-0.2,2.4-0.3,4.8-0.4,5.9h-0.1
				c-0.4,0-6.7-0.2-8.5-0.3c-0.9-1.4-1.9-3-2.8-4.5c-4.7-7.6-9.8-15.9-9.8-16.4c0-0.9,0.1-1.7,1.9-1.7h0.2c1.6,0,11.8,0,14.9,0
				c0.2,0.4,0.4,0.8,0.6,1.1C153.6,161.6,156.3,164.9,158.2,167.7z"/>
			<path class="st9" d="M156.3,182.2l-0.2-0.1c0,0,0,0-0.1,0c-0.4,0-7.2-0.2-8.5-0.3h-0.1v-0.1c-0.9-1.4-1.9-3-2.8-4.5
				c-9.9-15.8-9.9-16.3-9.9-16.5c0-1,0.2-1.8,2-1.8h0.2c1.2,0,6.8,0,10.9,0c1.7,0,3.1,0,4,0h0.1v0.1c0.2,0.4,0.4,0.7,0.6,1.1
				c1.2,1.4,3.8,4.8,5.7,7.5l0.1,0.1l-0.1,0.1c-0.3,0.4-0.6,0.8-0.9,1.2c0,0.1-0.2,0.9-0.7,7.1c-0.1,1.6-0.2,3.1-0.3,4.3
				c0,0.7-0.1,1.2-0.1,1.6L156.3,182.2z M147.6,181.5c2.2,0.1,7.8,0.3,8.4,0.3c0-0.4,0.1-0.9,0.1-1.4c0.1-1.2,0.2-2.7,0.3-4.3
				c0.5-6.7,0.7-7.1,0.7-7.2c0.2-0.4,0.5-0.8,0.8-1.2c-1.9-2.7-4.5-6-5.6-7.4c-0.3-0.3-0.5-0.7-0.6-1.1c-0.9,0-2.3,0-3.9,0
				c-4.1,0-9.7,0-10.9,0h-0.2c-1.6,0-1.7,0.6-1.7,1.5c0,0.3,1.4,2.8,9.8,16.3C145.8,178.6,146.8,180.1,147.6,181.5z"/>
		</g>
		<g>
			<path class="st13" d="M163.1,163.8c-2.6,1.7-4.1,3-4.9,3.9c-1.9-2.8-4.6-6.1-5.7-7.5c-0.3-0.3-0.5-0.7-0.6-1.1
				c-1.1-2.3-2.1-6.8-2.5-8.5c8.2-1.8,8.8-4.1,11.2-4l0,0l0.2,0.2c-0.1,2-0.2,6.8,0,6.9c0.1,0,0.8,0.1,1.9,0.2L163.1,163.8z"/>
			<path class="st9" d="M158.2,168l-0.1-0.2c-2-2.9-4.9-6.5-5.7-7.5c-0.3-0.4-0.5-0.7-0.7-1.1c-1.1-2.4-2.1-6.8-2.5-8.6v-0.2h0.2
				c4.7-1,6.9-2.3,8.3-3.1c1.1-0.6,1.8-1,2.9-0.9h0.1l0.3,0.3v0.1c-0.2,4.4-0.1,6.3,0,6.7c0.1,0,0.2,0,0.4,0c0.3,0,0.8,0.1,1.4,0.2
				h0.1l0.5,10.2l-0.1,0.1c-2.2,1.4-3.8,2.7-4.9,3.8L158.2,168z M149.5,150.7c0.4,1.9,1.4,6.1,2.5,8.4c0.2,0.4,0.4,0.7,0.6,1.1
				c0.8,1,3.6,4.4,5.6,7.3c1.1-1.2,2.7-2.4,4.7-3.7l-0.5-9.7c-0.5-0.1-0.9-0.1-1.2-0.1c-0.2,0-0.4-0.1-0.5-0.1l0,0
				c-0.2,0-0.4-0.1-0.2-7l-0.1-0.1c-0.9,0-1.6,0.3-2.7,0.9C156.3,148.4,154.1,149.6,149.5,150.7z"/>
		</g>
		<g>
			<path class="st13" d="M159.5,169.8L159.5,169.8c0,0.1-0.1,0.2-0.1,0.3c-0.1,0.6-0.2,1.7-0.3,3.1c-0.1,0.8-0.1,1.8-0.2,2.7
				l-2.4,0.1c0.3-3.3,0.6-6.8,0.7-7.1c0.2-0.4,0.5-0.9,0.9-1.2C158.7,168.4,159.2,169.1,159.5,169.8z"/>
			<path class="st9" d="M156.4,176.2V176c0.5-6.7,0.7-7.1,0.7-7.2c0.2-0.5,0.6-0.9,0.9-1.3l0.1-0.2l0.1,0.2c0.5,0.7,0.9,1.4,1.3,2.1
				v0.1v0.1c0,0.1-0.1,0.2-0.1,0.3c-0.1,0.5-0.2,1.5-0.3,3.1c-0.1,0.8-0.1,1.8-0.2,2.7v0.2L156.4,176.2z M158.2,167.9
				c-0.3,0.3-0.5,0.7-0.7,1c-0.1,0.1-0.2,1-0.7,6.9l2.1-0.1c0.1-0.9,0.1-1.8,0.2-2.6c0.1-1.7,0.2-2.7,0.3-3.2c0-0.1,0-0.2,0.1-0.3
				C159,169.2,158.6,168.5,158.2,167.9z"/>
		</g>
		<g>
			<path class="st13" d="M164,172.7c-0.4,0.1-1,0.2-1.4,0.4c-0.5,0.2-2.6,0.2-3.4,0.2c0.1-1.4,0.2-2.6,0.3-3.1l0.2-0.1
				c0.8-0.4,2-1,2.3-1.1c0.4-0.2,0.1,1.1,0,1.6s0.7,0.1,1.4-0.2c0.2-0.1,0.4-0.2,0.6-0.3C164.1,170.9,164.1,171.8,164,172.7z"/>
			<path class="st9" d="M160,173.4c-0.4,0-0.7,0-0.8,0H159v-0.2c0.1-1.7,0.2-2.7,0.3-3.2v-0.1l0.3-0.1c1.3-0.6,2.1-1,2.4-1.1
				c0.2-0.1,0.3,0,0.3,0c0.2,0.2,0.1,0.7,0,1.4c0,0.1,0,0.2-0.1,0.3l0,0c0.1,0.1,0.8-0.2,1.1-0.4h0.1c0.2-0.1,0.4-0.2,0.5-0.3
				l0.2-0.1v0.3c0.1,0.9,0.1,1.8,0,2.8v0.1H164c-0.4,0.1-1,0.2-1.4,0.4C162.2,173.4,160.9,173.4,160,173.4z M159.4,173.1
				c1.1,0,2.8,0,3.2-0.1s0.9-0.2,1.3-0.3c0.1-0.8,0.1-1.5,0-2.3c-0.1,0.1-0.2,0.1-0.3,0.2h-0.1c-0.8,0.3-1.2,0.5-1.5,0.3
				c-0.1-0.1-0.1-0.2-0.1-0.3s0-0.2,0.1-0.3c0.1-0.3,0.2-0.9,0.1-1.1c-0.3,0.1-1.1,0.5-2.3,1.1l-0.1,0.1
				C159.5,170.7,159.5,171.6,159.4,173.1z"/>
		</g>
		<g>
			<path class="st13" d="M163.6,183.9c-1,0-3.7,0.2-4.2,0c-0.3-0.1-0.6-0.3-0.8-0.5c0-0.6,0.1-1.3,0.1-2.2h4.6
				c0,0.2,0.1,0.4,0.2,0.6C163.6,182.1,163.6,183.1,163.6,183.9z"/>
			<path class="st9" d="M160.5,184.2c-0.5,0-0.9,0-1.1-0.1c-0.3-0.1-0.6-0.3-0.9-0.5l-0.1-0.1v-0.1c0-0.6,0.1-1.3,0.1-2.2V181h4.9
				v0.1c0,0.2,0.1,0.3,0.2,0.5c0.1,0.1,0.2,0.3,0.2,2.2v0.2h-0.2c-0.3,0-0.9,0-1.4,0C161.5,184.2,160.9,184.2,160.5,184.2z
				 M158.7,183.3c0.2,0.2,0.5,0.3,0.7,0.4c0.3,0.1,1.7,0.1,2.7,0c0.5,0,0.9,0,1.3,0c0-1.5-0.1-1.8-0.2-1.9c-0.1-0.2-0.1-0.3-0.2-0.5
				h-4.3C158.8,182.2,158.8,182.8,158.7,183.3z"/>
		</g>
		<g>
			<path class="st13" d="M159,176c-0.1,1.8-0.2,3.7-0.3,5.3c0,0.9-0.1,1.6-0.1,2.2c-0.8-0.5-1.9-1.3-2.4-1.4
				c0.1-1.1,0.2-3.5,0.4-5.9L159,176z"/>
			<path class="st9" d="M158.7,183.7l-0.2-0.2c-0.2-0.1-0.4-0.2-0.6-0.4c-0.7-0.4-1.4-0.9-1.8-1H156V182c0.1-1.1,0.2-3.4,0.4-5.9
				V176l2.7-0.1v0.2c-0.1,1.5-0.2,3.2-0.3,5.3c0,0.9-0.1,1.6-0.1,2.2L158.7,183.7z M156.4,181.9c0.4,0.2,1.1,0.6,1.7,1
				c0.1,0.1,0.2,0.1,0.3,0.2c0-0.5,0.1-1.2,0.1-1.9c0.1-2,0.2-3.7,0.3-5.1l-2.1,0.1C156.6,178.6,156.4,180.8,156.4,181.9z"/>
		</g>
		<g>
			<path class="st13" d="M163.8,173.7c-0.4,1.1-0.3,3.6-0.3,5.1c0,0.7,0,1.1-0.1,1.2c-0.2,0.2-0.3,0.7-0.2,1.2h-4.6
				c0.1-1.5,0.2-3.5,0.3-5.3c0.1-1,0.1-1.9,0.2-2.7c0.8,0,2.9,0,3.4-0.2c0.4-0.1,1-0.3,1.4-0.4C164,173.1,163.9,173.4,163.8,173.7z"
				/>
			<path class="st9" d="M163.5,181.4h-4.9v-0.2c0.1-2.1,0.2-3.8,0.3-5.3c0.1-1,0.1-1.9,0.2-2.7V173h0.4c0.9,0,2.7,0,3.2-0.1
				c0.4-0.1,0.9-0.3,1.4-0.4l0.2-0.1v0.2c0,0.3-0.1,0.7-0.2,1l0,0c-0.3,0.9-0.3,2.7-0.3,4.2c0,0.3,0,0.6,0,0.9c0,1-0.1,1.2-0.2,1.3
				c-0.1,0.1-0.2,0.6-0.1,1L163.5,181.4z M158.9,181.1h4.2c0-0.4,0-0.9,0.3-1.1c0,0,0.1-0.3,0.1-1.1c0-0.3,0-0.6,0-0.9
				c0-1.5,0-3.3,0.3-4.3c0.1-0.2,0.1-0.5,0.2-0.7c-0.4,0.1-0.9,0.2-1.2,0.3c-0.5,0.2-1.9,0.2-3.3,0.2h-0.1c-0.1,0.8-0.1,1.7-0.2,2.5
				C159.1,177.4,159,179.1,158.9,181.1z"/>
		</g>
	</g>
</g>
<g>
	<g>
		<path class="st1" d="M1051.3-0.1v-0.1v-0.1c0.5-2.2,1.4-4.4,2.6-6.3c4.4-7.1,5.8-15.7,4-23.9l-0.8-4.3c-0.3-2-0.7-3.8-1-5.7l0,0
			c-2.3-12.7-4.3-22.3-7.6-30.8c-5.3-14.7-9.9-29.7-13.7-44.8c-1.8-8.5-3.2-25.6-3.2-25.8c-0.3-4.7-4.4-8.3-9.1-7.9
			c-2.9,0.2-5.5,1.8-6.9,4.3c-4,6.8-10,13.7-12.7,14.6c-3.6,1.3-16.9,1.8-24,2c-9.7,0.4-13.2,0.5-15.6,2c-2.5,0.4-5,0.5-7.5,0.3
			c-4.7-1.3-35.1-3.3-45.6,0.8c-3.3,1.3-6.1,2.6-8.4,3.7l0,0l-2.1,1.1c-1.4,0.8-2.8,1.5-4.3,2.2c-15.1,2.1-30.3,3.2-45.5,3.5l0,0
			l-4,0.1c-25.4,0.6-40.8-2.5-43.1-3.3c-0.3-0.1-0.7-0.3-1.3-0.5c-5.4-2.4-19.9-8.8-36.7-5.8h-0.1h-0.4h-0.2l-1.4,0.3
			c-18.5,4-28.5,8.7-31,10c-3.6,1.5-30.6,10.4-41.7,13.6c-2.7-4.7-7-13.2-9.8-18.7c-8.3-16.4-9.8-19.1-12.7-21s-21.9-8.7-27.6-10.7
			c-27.5-9.6-28.7-9-32.3-6.8c-2.5,1.4-3.2,2.6-10.2,14.4c-6,10.1-21.9,36.7-27.5,40.4c-3.2,1.3-17,6.6-32.8,12.6
			c-19.9,7.6-44.7,17.1-64.6,24.8c-11,4.3-19.2,7.6-25,10c-3.3,1.4-5.8,2.4-7.6,3.2c-2.6,1.2-8.7,4-7.4,10.7
			c0.5,2.9,1.1,3.6,10.7,14.2c10,11.1,28.6,31.7,34.5,42.5c3,5.6,9,19.1,16.7,38.1l0,0c6.1,15,13,32.6,19,48.5l0,0
			c5.1,13.5,9.2,24.8,11.5,31.6c4.2,12.7,18.5,58.4,41.3,131.9l0,0l10.1,32.8l12.1,42.1l0,0L638.7,514c1,3.7,4.4,6.2,8.2,6.2
			c0.3,0,0.7,0,1,0L752,507.6h0.4l0.7-0.1h0.1l75.7-13.2l0,0l1.1-0.2l0.6-0.1l87.1-21.9c3-0.8,5.4-3.1,6.2-6.1
			c3.2-12.1,11.3-33.4,19.3-39.1c0.6-0.4,1.1-0.9,1.6-1.5c0,0,0.5-0.6,1.4-1.7l0,0c23.5-28.4,23.8-34.7,23.9-37.3v-1.8
			c0.8-29.2,4.7-38.5,6.8-41.4l0.8-1l0,0c5.9-8.3,9.9-17.9,11.8-27.9c2.1-11,3.4-18.8,4-22.1l0,0l0,0l0.4-2.2c0-0.2,0-0.4,0-0.6
			c2-16.6,6.5-32.8,13.3-48c4.6-9.6,10.3-18.6,17.2-26.8c4.3-5.4,8.1-10.1,10-15.9c0.9-2.6,2-5.3,2.9-7.9c0.6-1.5,1.2-3,1.7-4.5l0,0
			c2.5-6.1,4-12.5,4.3-19.1c0-5.6-0.1-13.3-1-23.4l0,0c-0.9-9.9-2.3-19.7-4.2-29.5c-2.1-12.9-5.6-25.5-10.4-37.7l0,0l0,0
			c-0.7-1.7-1.3-3.2-1.8-4.6c-0.6-1.2-1-2.6-1-4c0,0,0.5-0.9,3.2-2.4c8.4-4.7,19.1-14.1,24.1-26.4l0,0c1.1-2.7,1.9-5.5,2.4-8.4
			c1-7,0.4-14.2-1.7-21C1051.4,5.2,1050.8,2.6,1051.3-0.1z"/>
	</g>
	<g>
		<path class="st13" d="M753.1,105.5c-6,0.4-15.8,1-19.2,1c-5.1,0-12.7-10.4-19.2-10.4s-11.3,7.7-14.7,11.6c-2.8,3.2-6.9,6-19,7.6
			c-2.6,0.3-5.5,0.6-8.9,0.8c-19.2,1.2-25.6-7.6-36.6-9.7s-11.5,1.8-18.9,3.4s-12.6-8.5-32.4-18.2c-19.8-9.7-17.7-3.2-26.5-1.1
			s-22.4-10.8-24.3-10.3c-1.2,0.3-7.3,10.1-12,17.7c-5.8-15.4-12.7-33.1-19.1-48.7c11.7-1.6,38.1-5.5,84.6-13.2
			c58.9-9.7,108.9-18.4,119.5-20.3C715.7,38,736.9,86.3,753.1,105.5z"/>
		<path class="st9" d="M668.6,117.1c-10.5,0-17.1-3.1-22.9-5.9c-3.5-1.6-6.7-3.2-10.5-3.9c-7-1.3-9.4-0.2-12.5,1.2
			c-1.6,0.7-3.4,1.6-6,2.1c-4.4,1-8-1.7-13.4-5.9c-4.4-3.4-10.5-8-19.6-12.4c-14.1-6.8-16.6-5.4-20.2-3.4c-1.4,0.8-3.1,1.7-5.6,2.3
			c-6.4,1.5-14.7-4.1-20.2-7.8c-1.6-1.1-3.4-2.3-4.1-2.5c-0.6,0.6-3,3.5-11.3,17.2l-1.1,1.7l-0.7-1.9c-6-15.9-13-33.6-19.1-48.7
			l-0.5-1.2l1.3-0.2c11.6-1.6,38-5.5,84.6-13.2c61.9-10.2,113.8-19.3,119.5-20.3l0.8-0.1l0.3,0.7c8.5,20.5,30.2,70.3,46.5,89.6
			l1.3,1.5l-2,0.1c-6.7,0.4-15.9,1-19.3,1c-2.7,0-5.8-2.4-9.1-4.9c-3.5-2.7-7-5.5-10.1-5.5c-4.9,0-9,5.2-12,9
			c-0.7,0.8-1.3,1.6-1.9,2.3c-3.2,3.6-7.7,6.3-19.6,7.9c-2.6,0.3-5.6,0.6-9,0.8C670.9,117.1,669.7,117.1,668.6,117.1z M629.9,104.8
			c1.6,0,3.5,0.2,5.8,0.6c4,0.8,7.4,2.4,11,4.1c6.2,3,13.3,6.3,25.4,5.6c3.3-0.2,6.3-0.5,8.8-0.8c12.6-1.7,16.1-4.6,18.4-7.3
			c0.6-0.6,1.2-1.4,1.8-2.2c3.3-4.1,7.8-9.7,13.6-9.7c3.8,0,7.6,3,11.3,5.9c2.9,2.2,5.8,4.5,7.9,4.5c3.2,0,12.4-0.5,17.2-0.9
			c-16.1-20.2-36.7-67.4-45.2-87.8c-8.6,1.5-59.1,10.3-118.7,20.1c-44.9,7.4-71.2,11.3-83.4,13c5.8,14.2,12.3,30.6,17.9,45.6
			c9.8-16,10.8-16.3,11.5-16.4c1-0.2,2.3,0.5,5.7,2.9c4.9,3.3,13.1,8.8,18.6,7.5c2.2-0.5,3.7-1.3,5.1-2.1c4.5-2.5,7.8-3.6,22.1,3.3
			c9.3,4.5,15.5,9.2,20,12.6c5.2,3.9,8.3,6.3,11.8,5.5c2.4-0.5,4-1.3,5.6-2C624.2,105.7,626.3,104.8,629.9,104.8z"/>
	</g>
	<g>
		<path class="st13" d="M805.4-43.4l-96.9,58.7l-2,0.4C695.9,17.6,645.9,26.3,587,36c-46.5,7.7-73,11.6-84.6,13.2
			c-7.1-17.5-13.6-32.5-17.1-39C475.8-7,441.1-42.3,440.8-44s123.1-48,132.6-52.1s36.5-54,38.4-55.2s48.2,15.6,51,17.4
			c2.7,1.8,20.7,42.2,23.9,42.2s46.4-14.3,48.6-15.5s11.6-5.5,29.1-9.3c0.4-0.1,0.9-0.2,1.3-0.2L805.4-43.4z"/>
		<path class="st9" d="M501.7,50.2l-0.3-0.7c-5.6-13.7-13-31.5-17.1-38.9C478-1,459.8-21.1,448.9-33.2c-7.8-8.6-8.9-9.9-9-10.7
			c-0.2-1.4-0.3-2,100-40.3c17-6.5,30.4-11.6,33.3-12.8c6.4-2.7,22.3-29.2,30.8-43.4c5.5-9.1,6.8-11.3,7.5-11.7
			c3.1-1.8,51.6,17.2,52,17.4c1.3,0.8,3.9,5.8,10,17.9c4.7,9.2,11.7,23.2,13.5,24.1c2.7,0,45.7-14.2,48-15.4
			c1-0.5,10.5-5.3,29.4-9.4c0.5-0.1,1-0.2,1.4-0.2l0.7-0.1l40.4,74.6l-98.1,59.3l-2,0.4c-2.2,0.4-55.2,9.7-119.5,20.3
			c-46.6,7.7-73,11.6-84.6,13.2L501.7,50.2z M442.1-43.8c1.1,1.3,4.6,5.2,8.2,9.2c11,12.1,29.3,32.4,35.8,44.2
			c4,7.4,11.3,24.8,16.9,38.4c12-1.7,38.3-5.6,83.8-13.1C651.1,24.3,704.1,15,706.3,14.6l1.8-0.3l96-58.1l-38.8-71.8
			c-0.2,0-0.4,0.1-0.6,0.1c-18.6,4-27.9,8.7-28.9,9.2c-2,1-45.6,15.6-49.1,15.6c-2.1,0-5.4-6-15.1-25.2c-3.9-7.7-8.3-16.3-9.3-17.2
			c-2.9-1.9-45.8-17.2-50-17.3c-0.7,0.8-3.6,5.7-6.8,10.9C593-118.6,580.3-98,573.8-95.3c-2.9,1.2-16.3,6.3-33.3,12.8
			C505.9-69.1,448.9-47.4,442.1-43.8z"/>
	</g>
	<g>
		<path class="st13" d="M722.6,215.5l-148.1,46.4c-13.3-43-35.6-114.8-41.4-132.1c-2.4-7.2-6.6-18.8-11.6-31.9
			c4.6-7.6,10.8-17.4,12-17.7c2-0.5,15.7,12.4,24.3,10.3s6.6-8.5,26.5,1.1s25,19.8,32.4,18.2c7.4-1.6,8-5.5,18.9-3.4
			s17.4,10.8,36.6,9.7c3.4-0.2,6.3-0.5,8.9-0.8c0.1,0.4,0.1,0.7,0.1,1.1c0,5.3,25.6,56.6,35.9,77.9
			C719.7,201.1,721.6,208.2,722.6,215.5z"/>
		<path class="st9" d="M573.8,263.2l-0.3-1c-8.1-26.1-34.9-112.7-41.4-132.1c-2.4-7.2-6.6-18.8-11.6-31.8l-0.2-0.5l0.3-0.4
			c10.7-17.7,11.9-18,12.5-18.2c1-0.2,2.3,0.6,5.8,2.9c4.9,3.3,13.1,8.7,18.5,7.4c2.2-0.5,3.6-1.3,5-2.1c4.5-2.5,7.8-3.6,22.1,3.3
			c9.3,4.5,15.4,9.2,20,12.6c5.2,3.9,8.3,6.3,11.8,5.5c2.4-0.5,4-1.3,5.6-2c3.3-1.5,6.1-2.8,13.7-1.4c4,0.8,7.4,2.4,10.9,4.1
			c6.2,3,13.3,6.3,25.4,5.6c3.3-0.2,6.3-0.5,8.8-0.8l0.9-0.1l0.2,0.9c0.1,0.4,0.2,0.9,0.2,1.4c0,4,16.9,38.8,28.1,61.7
			c2.9,6,5.6,11.5,7.6,15.7c2.8,6.9,4.7,14.1,5.7,21.4l0.1,0.8l-0.8,0.3L573.8,263.2z M522.5,98c4.9,12.9,9.1,24.3,11.5,31.5
			c6.4,19.2,32.7,104,41.1,131.2l146.4-45.9c-1-6.9-2.8-13.6-5.4-20.1c-2-4.2-4.7-9.6-7.6-15.7c-15.5-31.8-28.3-58.5-28.3-62.6l0,0
			c-2.3,0.3-5,0.5-8,0.7c-12.7,0.8-20-2.7-26.4-5.8c-3.4-1.6-6.7-3.2-10.4-3.9c-6.9-1.3-9.4-0.2-12.5,1.2c-1.6,0.7-3.4,1.6-6,2.1
			c-4.4,1-8-1.7-13.4-5.9c-4.4-3.4-10.5-8-19.6-12.4c-14.1-6.9-16.6-5.4-20.2-3.4c-1.4,0.8-3.1,1.7-5.5,2.3
			c-6.3,1.5-14.6-4-20.1-7.7c-1.6-1.1-3.5-2.3-4.2-2.6C533.1,81.7,530.8,84.4,522.5,98z"/>
	</g>
	<g>
		<path class="st13" d="M730.7,308.3C678.1,318.4,622.3,331,596.8,337l-12.1-42.1c0,0-4.2-13.5-10.2-33l148.1-46.4
			c5.1,29.9,6.3,74.8,7.4,85.7C730.1,302.6,730.3,305,730.7,308.3z"/>
		<path class="st9" d="M596.1,338.2l-12.4-43l0,0c0,0-4.2-13.5-10.2-32.9l-0.3-0.9l150.2-47.1l0.2,1.1c3.7,21.6,5.3,50.6,6.4,69.8
			c0.4,7.2,0.7,12.9,1,15.9c0.1,1.4,0.4,3.9,0.8,7.1l0.1,0.9l-0.9,0.2c-54.4,10.4-111.8,23.6-133.9,28.7L596.1,338.2z M575.7,262.6
			c5.9,18.9,9.9,32,9.9,32l11.9,41.2c22.7-5.3,78.7-18.1,132.2-28.3c-0.3-2.8-0.5-4.9-0.7-6.2c-0.3-3-0.6-8.8-1-16
			c-1-18.8-2.6-47.1-6.1-68.4L575.7,262.6z"/>
	</g>
	<g>
		<path class="st13" d="M751.7,498.9L751,499l-104,12.6L596.8,337c25.6-6,81.3-18.6,133.9-28.7c3.2,29.4,13.8,126.1,14.7,149.6
			C746.2,471.7,748.3,485.4,751.7,498.9z"/>
		<path class="st9" d="M646.2,512.7l-50.7-176.5l1-0.2c17-4,76.8-17.7,134-28.7l1.1-0.2l1.2,10.7c3.8,35.5,12.9,118.7,13.7,140.1
			c0.7,13.7,2.8,27.5,6.3,40.8l0.3,1l-1.8,0.3L646.2,512.7z M598,337.7l49.7,172.8L750.5,498c-3.3-13.1-5.4-26.6-6.1-40.1
			c-0.8-21.4-9.8-104.5-13.7-140l-0.9-8.5C674.1,320.1,616.1,333.5,598,337.7z"/>
	</g>
	<g>
		<path class="st13" d="M822.3,381c-1,3.6,3.5,79.2,5.1,104.7l-75.7,13.2c-3.5-13.4-5.6-27.2-6.3-41
			c-0.9-23.5-11.6-120.3-14.7-149.6c26-5,51.3-9.3,71.7-12c21-2.6,36.3-4.7,47.5-6.2c-2.8,13.4-6.4,26.7-10.7,39.7
			C831.7,354.2,823,378.4,822.3,381z"/>
		<path class="st9" d="M750.9,500l-0.2-0.9c-3.5-13.5-5.6-27.3-6.3-41.2c-0.8-21.3-9.8-104.4-13.7-139.9l-1.1-10.6l0.9-0.2
			c29.1-5.6,53.3-9.6,71.8-12c19.8-2.5,35.4-4.5,47.5-6.2l1.4-0.2l-0.3,1.4c-2.8,13.4-6.5,26.8-10.7,39.8
			c-5.2,16.9-10.9,33.5-14.3,43.4c-1.4,4-2.4,7-2.6,7.7c-0.8,3,2.1,55.8,5.1,104.4l0.1,0.9L750.9,500z M731.7,309.1l0.9,8.8
			c3.8,35.5,12.9,118.6,13.7,140c0.7,13.4,2.8,26.8,6.1,39.9l73.9-12.9c-1.9-30.8-6-100.4-5-104.1l0,0c0.2-0.8,1.2-3.6,2.6-7.8
			c3.4-9.9,9-26.4,14.3-43.4c4.1-12.5,7.6-25.4,10.4-38.2c-11.9,1.6-27.1,3.6-46.2,6C784.2,299.6,760.4,303.6,731.7,309.1z"/>
	</g>
	<g>
		<path class="st13" d="M939.5,418l-1.4,1.6c-13.5,9.7-22.6,43.8-22.6,43.8l-87,21.9l-1.1,0.2c-1.6-25.4-6-101.1-5.1-104.7
			c0.7-2.5,9.4-26.8,17-51.1c6.2,14.7,18.1,41.7,22.1,45.4C865.9,379.2,918.4,407,939.5,418z"/>
		<path class="st9" d="M826.4,486.8l-0.1-1.1c-0.6-10.3-6.1-100.7-5-105c0.2-0.9,1.3-3.9,2.9-8.5c3.4-9.8,9-26.1,14.1-42.7l0.8-2.6
			l1.1,2.5c8.5,20.3,18.6,42,21.9,45c4.6,4.1,60.7,33.7,77.8,42.7l1.1,0.6l-2.4,2.8c-13.1,9.3-22.1,42.9-22.2,43.3l-0.1,0.6
			L826.4,486.8z M839.4,332.7c-5,15.7-10.2,30.9-13.4,40.2c-1.5,4.4-2.6,7.6-2.8,8.4c-0.7,3,2.6,63,5,103.2l86.4-21.7
			c1.3-4.7,9.9-34.5,22.7-43.7l0.5-0.6c-22.6-11.9-72.6-38.3-77.1-42.4C856.4,371.9,843.9,343,839.4,332.7z"/>
	</g>
	<g>
		<path class="st13" d="M970.7,336.9c-0.4,0.5-0.6,0.8-0.6,0.8c-8.2,10.9-8.5,41.6-8.7,48.1c-0.2,5.5-17,26.2-21.9,32.2
			c-21-11-73.5-38.8-78-42.9c-4-3.7-15.9-30.7-22.2-45.3c4.3-13,7.9-26.3,10.7-39.7l0,0c14.3,1.8,41,16.9,49.8,20.4
			C906.5,313.1,948.7,328.7,970.7,336.9z"/>
		<path class="st9" d="M939.7,419.3l-0.7-0.4c-22-11.5-73.6-38.9-78.2-43c-4.3-4-17.1-33.3-22.4-45.7l-0.1-0.3l0.1-0.4
			c4.3-12.9,7.9-26.3,10.7-39.6l0.2-0.9l0.9,0.1c10.4,1.3,26.9,9.4,39,15.3c4.6,2.3,8.6,4.2,11.1,5.2c6.4,2.5,46.8,17.5,68.5,25.5
			l3.5,1.3l-0.7,1.1c-0.4,0.6-0.6,0.9-0.6,0.9c-7.4,9.9-8.2,37-8.4,45.9v1.7c-0.2,5.4-14,22.9-22.1,32.8L939.7,419.3z M840.4,329.8
			c10.9,25.4,19,42.1,21.8,44.7c4.4,4.1,59.1,32.9,77,42.3c12.9-15.8,21-27.6,21.2-31v-1.6c0.2-9,1-36.2,8.6-46.8l-1-0.4
			c-23.2-8.6-62.1-23.1-68.5-25.5c-2.6-1-6.6-3-11.2-5.2c-11.6-5.7-27.3-13.3-37.4-14.9C848,304.2,844.5,317.2,840.4,329.8z"/>
	</g>
	<g>
		<path class="st13" d="M984.9,290.6c-0.6,3.5-2,11.2-4,21.9c-1.7,8.8-5.2,17.1-10.3,24.4c-21.9-8.1-64.1-23.9-70.7-26.4
			c-8.9-3.5-35.6-18.6-49.8-20.4c29.7-4.1,31.4-5.1,35.8-6.5c2-0.6,8-9.1,15.3-20.3c6.9,3.5,20.5,10.1,27.3,12.2
			C936.1,277.9,972.1,287.3,984.9,290.6z"/>
		<path class="st9" d="M971,338.1l-0.7-0.3c-22.1-8.2-64.3-23.9-70.7-26.4c-2.6-1-6.7-3-11.5-5.4c-11.9-5.8-28.1-13.7-38.1-15
			l-7.5-0.9l7.5-1c27.5-3.8,31-4.9,34.7-6.2l0.9-0.3c1-0.3,4.4-4,14.7-19.9l0.5-0.7l0.8,0.4c5.8,2.9,20.2,10,27.2,12.1
			c5.2,1.6,24.7,6.8,56.4,15.1l0.9,0.2l-0.2,0.9c-0.7,3.9-2.3,12.8-4,21.9c-1.7,9-5.2,17.3-10.5,24.8L971,338.1z M855.9,290.3
			c10,2.7,23,9.1,33,14c4.7,2.3,8.8,4.3,11.4,5.3c6.4,2.4,47.7,17.9,70,26.1c4.8-7.1,8.1-14.9,9.7-23.3c1.6-8.4,3.1-16.7,3.8-21
			c-31.2-8.1-50.5-13.3-55.6-14.9c-6.8-2.1-20.4-8.7-26.7-11.9c-11,16.7-13.8,19.5-15.3,19.9l-0.9,0.3
			C881.7,286.1,878.5,287.1,855.9,290.3z"/>
	</g>
	<g>
		<path class="st13" d="M1030.9,183.1c-1.5,4.1-3.2,8.3-4.7,12.6c-3.4,10.2-15.5,17.6-26.8,41.8c-7.2,16.1-11.9,33.3-14,50.8
			c0,0-0.1,0.8-0.4,2.3c-12.9-3.3-48.9-12.7-56.5-15.1c-6.8-2.1-20.4-8.7-27.3-12.2c15-22.9,35.1-57.1,35.1-57.1s-13-20.5-29.9-47.3
			c10.8,0.4,48.1,1.7,50.6,1.7c0.3,0,0.5,0.1,0.8,0.1c2.8,0.9,9.3,5.4,14.3,8.6c1.6,1.1,3.3,2.1,5.1,2.9c3.4,1.3,19.4-0.2,25.1,0
			c0.4,0,0.9,0,1.3,0C1006.1,172.5,1021.5,179,1030.9,183.1z"/>
		<path class="st9" d="M985.7,291.9l-1.1-0.3c-31.8-8.3-51.3-13.5-56.6-15.1c-7.1-2.2-21.6-9.3-27.5-12.2l-1-0.5l0.6-0.9
			c13.8-21.1,32.1-52.2,34.7-56.6c-2.1-3.3-14.2-22.4-29.6-46.8l-1-1.6l1.9,0.1c17.7,0.6,48.4,1.7,50.6,1.7c0.4,0,0.8,0.1,1.1,0.2
			c2.2,0.7,6.7,3.6,11,6.4c1.2,0.8,2.4,1.6,3.5,2.3c1.6,1.1,3.2,2,5,2.8c1.9,0.8,9.6,0.4,15.7,0.1c3.6-0.2,7-0.3,9.1-0.2
			c0.4,0,0.8,0,1.3,0c2.2,0.3,11.3,3.8,27.8,11l0.9,0.4l-0.3,0.9c-0.6,1.5-1.1,3-1.7,4.6c-1,2.6-2.1,5.3-3,8.1
			c-1.5,4.6-4.7,8.6-8.7,13.6c-5.2,6.6-11.8,14.7-18.1,28.3c-7.1,16-11.8,33-14,50.5c0,0.1-0.1,0.8-0.4,2.3L985.7,291.9z
			 M902.5,262.9c6.4,3.2,19.6,9.6,26.2,11.6c5.2,1.6,24.3,6.7,55.4,14.8c0.1-0.8,0.2-1.2,0.2-1.2c2.1-17.6,6.9-34.8,14.1-51
			c6.5-13.8,13.1-22.1,18.4-28.7c3.9-4.9,7-8.8,8.4-13c0.9-2.8,2-5.5,3-8.2c0.5-1.2,0.9-2.4,1.4-3.6c-19.4-8.3-25-10.3-26.3-10.4
			c-0.3,0-0.7,0-1.1,0c-2.1-0.1-5.5,0.1-9,0.2c-8.3,0.4-14.3,0.6-16.5-0.3c-1.9-0.9-3.6-1.9-5.3-3c-1.1-0.7-2.3-1.5-3.5-2.2
			c-4-2.6-8.5-5.6-10.5-6.2c-0.2-0.1-0.3-0.1-0.5-0.1c-2.5,0-39.7-1.3-48.7-1.6c16.4,26,28.9,45.7,28.9,45.7l0.3,0.5l-0.3,0.5
			C936.8,207,917.3,240.2,902.5,262.9z"/>
	</g>
	<g>
		<path class="st13" d="M983.4-50c-14.1-1-17.8,12.8-66.2,23.6l-1.2,0.3C880.4-18.3,844.3-8.7,826.8-4l-21.4-39.5l-39.6-73.2
			c16.9-3.1,31.2,5,34.1,6s19,4.4,46.1,3.7h4c8.5,13.9,27.2,44.2,28,44.2s46.3-12.9,67.4-18.8L983.4-50z"/>
		<path class="st9" d="M826.3-2.8l-62-114.6l1.4-0.2c14.8-2.7,27.4,2.9,32.7,5.2c0.8,0.4,1.4,0.6,1.8,0.8c2.8,0.9,18.7,4.3,45.7,3.7
			h4.6l0.3,0.5C862.7-88,876-66.6,878.3-63.8c3.3-0.8,27.3-7.6,46.8-13.1c7.5-2.1,14.5-4.1,20-5.6l0.5-0.1l40.8,33.9l-3.1-0.2
			c-5.7-0.4-9.6,1.7-16.1,5.3c-8.7,4.8-21.9,12.1-49.8,18.3l-1.2,0.3C883.6-17.9,849.7-9.1,827-3L826.3-2.8z M767.4-115.9L827.3-5.1
			C850-11.3,883.5-20,915.7-27l1.2-0.3c27.6-6.2,40.7-13.4,49.3-18.1c5.5-3,9.5-5.2,14.4-5.6l-35.5-29.5c-5.4,1.5-12.2,3.4-19.5,5.5
			c-37.7,10.6-47.1,13.2-47.7,13.2c-0.7,0-1.6,0-28.6-44.2H846c-27.4,0.6-43.6-2.8-46.4-3.8c-0.4-0.1-1.1-0.4-2-0.8
			C792.5-112.8,781-117.9,767.4-115.9z"/>
	</g>
	<g>
		<path class="st13" d="M945.3-81.7c-21.1,6-66.6,18.6-67.4,18.8c-0.7,0.2-19.5-30.3-28-44.2c15.8-0.3,31.5-1.5,47.1-3.7
			c3-1,5.9-2.3,8.6-3.9L945.3-81.7z"/>
		<path class="st9" d="M877.9-61.8c-1,0-3.3-2.9-28.9-44.7l-0.9-1.5h1.7c15.7-0.3,31.5-1.5,47-3.7c2.8-0.9,5.6-2.2,8.2-3.7l0.6-0.3
			L947.2-81l-1.8,0.5C924-74.6,878.8-62,878.2-61.9C878.1-61.8,878-61.8,877.9-61.8z M851.7-106.1c19.9,32.4,25.2,40.5,26.5,42.2
			c5-1.4,44.4-12.3,65-18.2l-37.7-31.4c-2.6,1.5-5.4,2.7-8.2,3.6C882.2-107.7,866.9-106.4,851.7-106.1z"/>
	</g>
	<g>
		<path class="st13" d="M1047.6-39.2c-13.6-2.6-50-9.5-63-10.7h-1.3l0,0l-38.1-31.8l-39.6-33c2.2-1.1,4.8-2.3,7.8-3.5
			c8-3.1,36.4-1.5,40.2-0.5s13,0,14.1-1.1s30-0.6,38-3.4c8-2.7,17.3-18.4,17.3-18.4s1.4,17.7,3.4,26.9c3.8,15.6,8.5,31,13.9,46.2
			C1043.7-58.9,1046.1-49.1,1047.6-39.2z"/>
		<path class="st9" d="M1048.8-37.9l-1.4-0.3c-14.7-2.8-50.1-9.5-62.9-10.7h-1.6l-0.3-0.2l-78.9-65.8l1.4-0.7c2.1-1,4.7-2.3,7.8-3.5
			c8.4-3.3,37-1.6,40.8-0.5c3.5,1,12.1,0,13.2-0.8c0.6-0.6,2-0.7,11.8-1.1c9.2-0.4,21.8-0.9,26.6-2.5c7.6-2.6,16.6-17.8,16.7-17.9
			l1.6-2.7l0.3,3.1c0,0.2,1.5,17.7,3.4,26.7c3.8,15.5,8.5,31,13.9,46.1c3.3,9.5,5.8,19.4,7.3,29.4L1048.8-37.9z M983.7-50.9h0.9
			c12.5,1.2,46.3,7.5,61.8,10.5c-1.5-9.4-3.9-18.7-7-27.7c-5.4-15.1-10.1-30.7-14-46.3c-1.5-6.9-2.6-18.6-3.2-24
			c-3,4.6-9.9,14.1-16.2,16.3c-5,1.7-17.8,2.2-27.1,2.6c-4.8,0.2-9.7,0.4-10.7,0.7c-1.9,1.4-11.3,2.2-14.9,1.2
			c-3.9-1.1-32.1-2.5-39.6,0.4c-2.4,0.9-4.5,1.9-6.3,2.8L983.7-50.9z"/>
	</g>
	<g>
		<path class="st13" d="M1045.8,29.1c-0.4,2.2-1,4.4-1.9,6.6c-7.1,0.3-21.3,2.6-41,14.5c-1.4,0.9-2.7,1.7-4,2.5l-3-59.2
			c13.3,1.5,35.2,3.7,46.9,4.9C1041,8.3,1047.9,15.6,1045.8,29.1z"/>
		<path class="st9" d="M998.1,54.4L995-7.8l1.2,0.1c13.4,1.5,35.1,3.7,46.9,4.9l1.1,0.1l-0.2,1.1c-0.9,4.5,0.2,8.6,1.3,12.9
			c1.3,5,2.7,10.6,1.6,17.9l0,0c-0.4,2.3-1,4.6-1.9,6.8l-0.2,0.6h-0.6c-6.7,0.2-20.8,2.4-40.5,14.3l-0.8,0.5c-1.1,0.7-2.1,1.3-3.1,2
			L998.1,54.4z M997-5.5l2.8,56.4c0.6-0.4,1.1-0.7,1.7-1.1l0.8-0.5c19.5-11.8,33.7-14.2,40.8-14.6c0.7-1.9,1.2-3.8,1.6-5.7
			c1.1-6.9-0.2-12.1-1.5-17.1c-1.1-4.2-2.1-8.2-1.5-12.7C1030.1-2,1010.1-4.1,997-5.5z"/>
	</g>
	<g>
		<path class="st13" d="M1043.9,35.6c-4.2,10.4-13.6,18.4-20.4,22.2c-8.2,4.6-8.9,9.2-6,16.9c0.6,1.6,1.2,3.1,2,4.9
			c-3.3,2.3-10.5,7.2-15.1,10c-1,0.7-2.1,1.3-3.3,1.8c-4.2,1.7-9,3.8-8.6,1c0.4-2.7,2.6-10.5,0-9.4c-1.8,0.8-9.4,4.4-13.9,6.6
			l-0.8-1.5l0,0c-2.1-3.6-4.8-7.8-7.9-12.3c4.8-5.4,13.5-13.2,29.1-23c1.3-0.8,2.6-1.6,4-2.5C1022.6,38.2,1036.9,35.9,1043.9,35.6z"
			/>
		<path class="st9" d="M993.8,94.7c-0.6,0-1.2-0.1-1.6-0.5c-0.4-0.3-0.8-0.9-0.6-2c0.1-0.5,0.2-1.2,0.4-2c0.3-1.6,1.1-5.1,0.8-6.3
			c-1.7,0.7-6.1,2.8-10.1,4.7l-4.5,2.1l-1.3-2.3c-2.1-3.6-4.8-7.8-7.8-12.2l-0.4-0.6l0.5-0.6c6.4-7.2,16.3-15,29.3-23.2
			c0.8-0.5,1.5-1,2.3-1.5l1.7-1c20-12.2,34.6-14.5,41.4-14.7l1.5-0.1l-0.6,1.4c-4.3,10.6-13.9,18.8-20.9,22.7
			c-8,4.5-8.2,8.8-5.5,15.7c0.6,1.5,1.2,3.1,2,4.8l0.3,0.8l-0.7,0.5c-3.6,2.5-10.6,7.2-15.2,10c-1.1,0.7-2.2,1.3-3.4,1.8l-0.5,0.2
			C997.7,93.8,995.4,94.7,993.8,94.7z M993,81.9c0.5,0,0.8,0.2,1,0.4c1.3,1.1,0.8,4-0.1,8.4c-0.2,0.8-0.3,1.4-0.4,1.9
			c0,0.2,0,0.2,0,0.2c0.7,0.3,4.6-1.3,6.7-2.1l0.5-0.2c1.1-0.5,2.1-1,3.1-1.7c4.3-2.6,10.7-6.9,14.4-9.5c-0.6-1.5-1.2-2.9-1.7-4.2
			c-2.9-7.6-2.8-13,6.4-18.1c6.3-3.5,15-10.9,19.3-20.3c-7.2,0.5-20.7,3.2-38.9,14.3l-1.7,1c-0.8,0.5-1.5,1-2.3,1.4
			c-12.5,7.9-22.1,15.4-28.4,22.3c2.9,4.3,5.5,8.2,7.5,11.7l0.4,0.6l2.8-1.3c4.2-2,8.9-4.3,10.3-4.8C992.5,81.9,992.7,81.9,993,81.9
			z"/>
	</g>
	<g>
		<path class="st13" d="M1033.7,144.3c-3.9-0.5-7.7-1.3-11.5-2.3c-2.3-0.4-14.8-0.2-20.5,0c0-9-0.6-23.7,1.6-30.5
			c0.6-1.9,1-3.8,1.2-5.7c0.5-5.4,0.5-10.8-0.1-16.2c4.6-2.7,11.8-7.6,15.1-10c4.7,11.6,8.1,23.7,10.2,36
			C1031.5,125.1,1032.8,134.7,1033.7,144.3z"/>
		<path class="st9" d="M1034.8,145.4l-1.2-0.2c-3.9-0.5-7.8-1.3-11.7-2.3c-1.9-0.3-13.2-0.2-20.3,0h-1v-1c0-1.5,0-3.1,0-4.9
			c-0.1-9-0.2-20.1,1.7-26c0.5-1.8,0.9-3.7,1.1-5.5c0.5-5.3,0.5-10.6-0.1-15.9l-0.1-0.6l0.6-0.3c4.6-2.7,11.7-7.5,15.1-9.9l1-0.7
			l0.5,1.2c4.7,11.7,8.1,23.8,10.2,36.2c1.8,9.5,3.2,19.1,4.1,28.8L1034.8,145.4z M1015.2,140.8c3.3,0,6.1,0.1,7.1,0.2
			c3.4,0.9,6.9,1.6,10.3,2.1c-0.9-9.1-2.2-18.3-4-27.3c-2-11.8-5.3-23.5-9.7-34.7c-3.5,2.5-9.4,6.4-13.6,8.9
			c0.6,5.2,0.6,10.5,0,15.7c-0.2,2-0.6,4-1.2,5.9c-1.8,5.5-1.7,16.5-1.6,25.3c0,1.4,0,2.7,0,3.9
			C1006,140.9,1011.1,140.8,1015.2,140.8z"/>
	</g>
	<g>
		<path class="st13" d="M1034.7,166.9c-0.3,5.6-1.6,11-3.8,16.2c-9.4-4-24.8-10.6-27.5-10.9c-0.4,0-0.9,0-1.3,0
			c0-4.6-0.2-11-1.2-12.6c-0.6-1-0.9-2.2-1.1-3.3c-0.4-2.6-0.1-5.7,1.1-6.9c0.6-0.6,0.7-3.4,0.7-7.3c5.8-0.1,18.3-0.3,20.5,0
			c3.8,1,7.6,1.8,11.5,2.3C1034.6,154.4,1034.7,161.9,1034.7,166.9z"/>
		<path class="st9" d="M1031.5,184.4l-3.8-1.6c-8.7-3.7-22-9.3-24.3-9.6c-0.3,0-0.7,0-1.1,0l-1.1,0.1v-1.1c0-9.7-0.8-11.7-1-12
			c-0.7-1.2-1.1-2.4-1.2-3.7c-0.4-2.7-0.2-6.2,1.4-7.8c0.2-0.4,0.4-2.7,0.4-6.6v-1h1c4.2-0.1,18.2-0.3,20.7,0
			c3.9,1,7.7,1.8,11.5,2.3l0.8,0.1l0.1,0.8c0.7,7.9,1,15.3,1,22.7v0.1c-0.3,5.7-1.6,11.2-3.9,16.5L1031.5,184.4z M1003.1,171.2
			c0.1,0,0.2,0,0.4,0c2.5,0.3,12.8,4.6,24.9,9.7l2,0.8c1.9-4.8,3-9.8,3.3-14.9c0-7-0.3-14.1-0.9-21.7c-3.7-0.5-7.3-1.3-10.9-2.2
			c-1.7-0.2-10.9-0.1-19.3,0c0,4.7-0.3,6.3-1,7c-0.9,0.9-1.2,3.5-0.8,6.1c0.1,1.1,0.5,2.1,1,3
			C1002.2,159.6,1003.1,161.1,1003.1,171.2z"/>
	</g>
	<g>
		<path class="st13" d="M850.9,284.5c-0.1,1.6-0.4,3.5-0.8,5.6l0,0c-11.3,1.6-26.6,3.6-47.5,6.2c-20.5,2.6-45.8,7-71.7,12
			c-0.4-3.2-0.6-5.7-0.8-7.1c-1.1-10.8-2.3-55.8-7.4-85.7l127.6-40C851.2,216.6,852.2,270.9,850.9,284.5z"/>
		<path class="st9" d="M729.9,309.4l-0.1-1.1c-0.4-3.3-0.6-5.7-0.8-7.1c-0.3-3-0.6-8.8-1-16c-1.1-19.1-2.7-48.1-6.3-69.6l-0.1-0.9
			L851.3,174v1.3c0.9,40.3,1.9,95.5,0.6,109.1c-0.1,1.5-0.4,3.2-0.8,5.7l-0.1,0.7l-0.7,0.1c-12.2,1.7-27.7,3.7-47.6,6.2
			c-18.9,2.4-43,6.4-71.6,11.9L729.9,309.4z M723.8,216.2c3.6,21.5,5.2,50,6.2,68.9c0.4,7.2,0.7,12.9,1,15.9c0.1,1.3,0.3,3.3,0.6,6
			c28.3-5.4,52-9.4,70.7-11.8c19.5-2.5,34.8-4.5,46.8-6.1c0.4-2,0.6-3.5,0.7-4.8l0,0c1.3-13.4,0.3-67.4-0.6-107.6L723.8,216.2z"/>
	</g>
	<g>
		<path class="st13" d="M850.2,175.5l-127.6,40c-1-7.3-2.9-14.4-5.7-21.2C706.7,173,681,121.7,681,116.4c0-0.4,0-0.8-0.1-1.1
			c12.1-1.5,16.2-4.4,19-7.6c3.4-4,8.2-11.6,14.7-11.6s14.1,10.4,19.2,10.4c3.5,0,13.3-0.6,19.2-1c2.3,3,5.1,5.4,8.3,7.3
			c20.8,10,18.6,7.5,25.9,2.2s15-11.6,26.6-4.3c11.6,7.3,10.2,7.6,11.6,5.9c1.5-1.8,5.4-5.9,11.4,1.7c5.3,6.8,8.5,21.7,12.5,22.8
			C849.5,149.7,849.9,161.9,850.2,175.5z"/>
		<path class="st9" d="M721.7,216.8l-0.2-1.2c-1-7.2-2.9-14.3-5.7-21c-2.3-4.8-5.4-11.2-8.8-18.3c-15.4-31.5-27.1-56-27.1-60
			c0-0.3,0-0.6-0.1-0.9l-0.3-1.1l1.1-0.1c12.5-1.6,16-4.6,18.4-7.3c0.5-0.6,1.1-1.3,1.6-2c3.3-4.2,7.9-9.9,13.8-9.9
			c3.7,0,7.6,3,11.3,5.9c2.9,2.2,5.8,4.5,7.9,4.5c3.4,0,13.5-0.6,19.2-1h0.5l0.3,0.4c2.2,2.9,4.9,5.2,8,7c17.4,8.3,18,7.8,22.3,4.3
			c0.7-0.6,1.6-1.3,2.6-2l0.8-0.6c7.1-5.2,15.2-11.2,26.9-3.8c3.8,2.4,6.2,4,7.8,5.1c1,0.7,1.7,1.2,2.1,1.4l0.1-0.1l0.3-0.3
			c0.6-0.8,2.5-3.2,5.5-3.1c2.4,0,4.9,1.6,7.4,4.8c2.5,3.2,4.6,8.2,6.4,12.6c1.8,4.4,3.9,9.4,5.5,9.9l0.7,0.2l0.2,7.1
			c0.2,7.9,0.5,17.6,0.8,28.1v0.7l-0.7,0.2L721.7,216.8z M682,116.1c0,0.1,0,0.2,0,0.3c0,3.9,16.2,37.1,26.9,59.1
			c3.4,7.1,6.6,13.5,8.9,18.3c2.7,6.6,4.6,13.4,5.6,20.3l125.8-39.4c-0.2-10.2-0.5-19.6-0.8-27.3l-0.2-5.8c-2.2-1.3-4-5.5-6.1-10.7
			c-1.8-4.3-3.8-9.1-6.1-12.1c-2.1-2.6-4.1-4-5.8-4c-1.4-0.1-2.7,0.8-4,2.3l-0.2,0.3c-1.3,1.6-2.1,1.1-4.9-0.9
			c-1.6-1.1-3.9-2.7-7.8-5.1c-10.6-6.7-17.8-1.4-24.7,3.7l-0.8,0.6c-1,0.7-1.8,1.4-2.5,2c-5,4.2-6.4,4.6-24.4-4
			c-3.3-1.9-6-4.3-8.3-7.1c-6.9,0.4-15.5,0.9-18.8,0.9c-2.7,0-5.8-2.4-9.1-4.9c-3.5-2.7-7-5.5-10.1-5.5c-5,0-9.2,5.3-12.2,9.2
			c-0.6,0.8-1.2,1.5-1.7,2.1C697.5,111.9,693.1,114.6,682,116.1z"/>
	</g>
	<g>
		<path class="st9" d="M936.2,206.2c0,0-20.1,34.2-35.1,57.1c-7.3,11.1-13.3,19.6-15.3,20.3c-4.3,1.4-6,2.4-35.8,6.5l0,0
			c0.4-2.1,0.7-4,0.8-5.6c1.3-13.6,0.3-67.9-0.7-109c-0.3-13.6-0.6-25.8-0.9-34.5c0.5,0.1,1,0,1.5-0.2c4.7-2.8,10.2-8.7,18.6-5.7
			c7.3,2.6,13.5,2.3,20.1-3.1c5.8,9.3,11.5,18.5,16.9,27C923.2,185.7,936.2,206.2,936.2,206.2z"/>
		<path class="st9" d="M848.9,291.3l0.2-1.4c0.4-2.4,0.7-4.1,0.8-5.5c1-10.6,0.8-47.2-0.7-108.9c-0.3-13.6-0.6-25.8-0.9-34.5v-1.3
			l1.3,0.3c0.3,0.1,0.5,0,0.7-0.1c0.8-0.5,1.7-1.1,2.6-1.8c4.2-3,9.5-6.7,16.8-4c7.6,2.7,13.3,1.9,19.1-2.9l0.9-0.7l0.6,1
			c5.8,9.3,11.5,18.5,16.9,27c16.6,26.5,29.6,47.1,29.8,47.3l0.3,0.5l-0.3,0.5c-0.2,0.3-20.3,34.5-35.1,57.2
			c-11.4,17.5-14.4,20.2-15.8,20.7l-0.9,0.3c-3.9,1.3-7.3,2.4-35,6.2L848.9,291.3z M850.4,142c0.3,8.7,0.6,20.4,0.9,33.5
			c1.5,61.8,1.7,98.5,0.7,109.1c-0.1,1.2-0.3,2.6-0.6,4.3c26.3-3.6,29.7-4.8,33.3-6l0.9-0.3c0.7-0.2,3.5-2.6,14.7-19.9
			c13.8-21.1,32.1-52.2,34.7-56.6c-2.1-3.3-14.3-22.6-29.4-46.8c-5.2-8.2-10.7-17-16.3-26c-6.1,4.6-12.4,5.4-20.2,2.6
			c-6.3-2.3-10.9,0.9-15,3.8c-0.9,0.7-1.8,1.3-2.7,1.8C851,141.8,850.7,141.9,850.4,142z"/>
	</g>
	<g>
		<path class="st13" d="M889.5,131.9c-6.6,5.4-12.8,5.7-20.1,3.1c-8.3-3-13.9,2.9-18.6,5.7c-0.4,0.3-1,0.4-1.5,0.2
			c-4-1.1-7.2-16-12.5-22.8c-6-7.6-10-3.5-11.4-1.7s0,1.4-11.6-5.9s-19.3-1-26.6,4.3s-5.1,7.7-25.9-2.2c-3.2-1.8-6-4.3-8.3-7.3
			c-16.2-19.2-37.3-67.4-46.6-89.8l2-0.4l96.9-58.7L826.8-4l15.4,28.4c-10.5,0-11.1,4.3-11.1,10C831,37.5,861.4,86.9,889.5,131.9z"
			/>
		<path class="st9" d="M849.8,142c-0.2,0-0.4,0-0.7-0.1c-2.7-0.7-4.5-5.3-6.9-11.1c-1.8-4.3-3.8-9.1-6.1-12.1c-2.1-2.7-4.1-4-5.9-4
			l0,0c-1.4,0-2.7,0.8-3.9,2.3l-0.2,0.3c-1.3,1.7-2,1.1-4.9-0.8c-1.6-1.1-4-2.7-7.8-5.1c-10.6-6.6-17.8-1.4-24.7,3.7l-0.8,0.6
			c-1,0.7-1.7,1.4-2.4,1.9c-5,4.1-6.4,4.6-24.5-4c-3.4-2-6.3-4.5-8.7-7.6c-16.5-19.5-38.2-69.5-46.8-90.1l-0.5-1.1l3-0.5l97.7-59.2
			l38.1,70.3h-1.7c-9.5,0-10.1,3.4-10.1,9c0.3,2,10.6,20.5,58.3,97l0.5,0.7l-0.7,0.6c-6.4,5.2-12.9,6.2-21.1,3.3
			c-6.3-2.3-11,0.9-15,3.8c-0.9,0.7-1.8,1.3-2.7,1.8C850.8,141.9,850.3,142,849.8,142z M830.1,112.8
			C830.1,112.8,830.2,112.8,830.1,112.8c2.5,0,5,1.6,7.5,4.8c2.5,3.2,4.6,8.2,6.4,12.6c1.8,4.4,3.9,9.4,5.6,9.9c0.2,0,0.5,0,0.7-0.1
			c0.8-0.5,1.7-1.1,2.6-1.7c4.3-3,9.5-6.7,16.9-4.1c7.3,2.6,12.9,1.9,18.5-2.4C836.7,49,830,36.3,830,34.4c0-5.7,0.8-10.4,10.5-10.9
			L805-42l-96.2,58.3l-1,0.2c8.8,21.2,30,69.5,46,88.4c2.2,2.9,4.9,5.3,8,7c17.4,8.3,18,7.7,22.3,4.2c0.7-0.6,1.5-1.3,2.5-2l0.8-0.6
			c7.1-5.2,15.2-11.2,26.9-3.8c3.9,2.4,6.3,4.1,7.9,5.2c0.9,0.6,1.7,1.2,2.1,1.4l0.1-0.1l0.2-0.3
			C826.3,113.8,828.2,112.8,830.1,112.8z"/>
	</g>
	<g>
		<path class="st13" d="M932.2,24.5c-18.6,0-79,0.2-88.8,0h-1.2L826.8-4c17.6-4.8,53.6-14.3,89.1-22.1l1.2-0.3
			C919.5-15.8,925.7,10.6,932.2,24.5z"/>
		<path class="st9" d="M866.7,25.6c-11.1,0-20.1,0-23.4-0.1h-1.8L825.3-4.6l1.2-0.3c22.7-6.1,56.6-15,89.2-22.1l2.2-0.5l0.2,1
			c2.4,10.6,8.6,36.9,15,50.6l0.7,1.4h-1.6c-5.3,0-14,0-24,0C895.1,25.5,879.5,25.6,866.7,25.6z M842.8,23.5h0.6
			c7,0.1,40.4,0.1,64.8,0c9.1,0,17.1,0,22.5,0c-6.1-13.8-11.8-37.8-14.3-48.6l-0.2,0.1c-32,7-65.2,15.6-87.9,21.8L842.8,23.5z"/>
	</g>
	<g>
		<path class="st13" d="M1042.9-1.9c0,0,0,0,0,0.1c-11.7-1.2-33.6-3.4-46.9-4.9c-6.3-0.7-10.6-1.2-11.1-1.3
			c-1.5-0.4-0.6-28.8-0.2-41c0-0.4,0-0.7,0-1c12.9,1.2,49.4,8.1,63,10.7c0.6,3.2,1.2,6.6,1.8,10C1052.1-14.2,1044.8-12,1042.9-1.9z"
			/>
		<path class="st9" d="M1043.9-0.6l-1.1-0.1c-11.8-1.2-33.6-3.4-46.9-4.9c-4.8-0.5-10.6-1.2-11.2-1.3c-1.1-0.3-2.5-0.6-1-42v-2
			l1.1,0.1c12.8,1.2,48.4,7.9,63.1,10.7l0.7,0.1l0.1,0.7c0.3,1.8,0.6,3.6,1,5.4c0.3,1.5,0.5,3,0.8,4.6c1.8,9.9-0.7,14.6-3.1,19.1
			c-1.3,2.5-2.7,5-3.4,8.5L1043.9-0.6L1043.9-0.6z M985.5-8.8c1.1,0.1,4.2,0.5,10.6,1.2c13,1.4,34,3.6,46,4.8c0.8-3.4,2.1-6,3.4-8.4
			c2.4-4.4,4.6-8.6,2.9-17.8c-0.3-1.5-0.5-3.1-0.8-4.6c-0.3-1.6-0.6-3.2-0.8-4.7c-14.6-2.8-47.8-9-61.1-10.5
			C984.7-22.5,984.9-11,985.5-8.8z"/>
	</g>
	<g>
		<path class="st13" d="M969.8,75.6c-2.1,2.2-3.8,4.7-5.3,7.4c-1,2-2.8,22.5-4.3,42.5c-1.1,14.3-2,28.4-2.5,35.2
			c-0.2-0.1-0.5-0.1-0.8-0.1c-2.5,0-39.8-1.3-50.6-1.7c-5.3-8.5-11.1-17.6-16.9-27c-28.1-45-58.4-94.4-58.4-97.6
			c0-5.6,0.7-10,11.1-10h1.2c9.8,0.2,70.2,0,88.8,0c1,2.3,2.3,4.5,3.8,6.5C942.6,39.2,958.6,59.2,969.8,75.6z"/>
		<path class="st9" d="M958.6,162.1l-1.2-0.4c-0.1-0.1-0.3-0.1-0.4-0.1c-2.6,0-42.8-1.4-50.6-1.7h-0.5l-0.3-0.4
			c-5.3-8.5-11.1-17.6-16.9-27C830,38.5,830,35.4,830,34.3c0-6,0.9-11,12.1-11h1.2c7,0.1,40.4,0.1,64.8,0c10,0,18.7,0,24,0h0.7
			l0.3,0.6c1,2.2,2.2,4.4,3.7,6.3c6.8,8.6,22.7,28.4,33.9,44.8l0.4,0.7l-0.5,0.6c-2,2.1-3.7,4.6-5.1,7.2c-0.3,0.5-1.4,5.2-4.2,42.1
			c-0.7,9.3-1.3,18.5-1.8,25.6c-0.3,3.9-0.5,7.2-0.7,9.6L958.6,162.1z M906.9,157.9c12.9,0.5,46.4,1.6,49.9,1.7
			c0.2-2.3,0.4-5.2,0.6-8.5c0.5-7.2,1.1-16.3,1.8-25.6c3-40.1,4.1-42.2,4.5-42.9c1.4-2.5,3-4.9,4.9-7c-11.1-16.2-26.6-35.6-33.3-44
			c-1.5-2-2.8-4.1-3.7-6.3c-5.4,0-13.8,0-23.4,0c-24.4,0-57.8,0.1-64.8,0h-1.2c-9.5,0-10.1,3.4-10.1,9c0.2,1.7,8.1,16.6,58.3,97.1
			C896,140.6,901.7,149.5,906.9,157.9z"/>
	</g>
	<g>
		<path class="st13" d="M998.9,52.7c-15.6,9.8-24.3,17.6-29.1,23c-11.2-16.5-27.2-36.5-33.9-44.6c-1.5-2-2.8-4.2-3.8-6.5
			c-6.5-13.9-12.7-40.3-15.1-50.8c48.5-10.9,52.2-24.6,66.3-23.7l0,0l1.3,1.1c-0.4,12.2-1.3,40.6,0.2,41c0.5,0,4.9,0.6,11.1,1.3
			L998.9,52.7z"/>
		<path class="st9" d="M969.7,77.3l-0.7-1.1c-11.9-17.4-28.9-38.5-33.8-44.6c-1.6-2.1-2.9-4.4-3.9-6.7c-6.5-14-12.7-40.3-15.1-51
			l-0.2-1l1-0.2c27.7-6.2,40.8-13.4,49.4-18.2c6.6-3.6,10.9-6,17.2-5.6h0.3l1.9,1.6v0.5c-0.9,26.2-0.7,37.7-0.2,40
			c0.5,0,1.2,0.1,2.5,0.3c2,0.2,4.8,0.6,8.1,0.9l0.8,0.1l3,60.7l-0.5,0.3c-12.9,8.1-22.6,15.8-28.9,22.9L969.7,77.3z M918.2-25.5
			c2.5,11.2,8.5,36.2,14.8,49.7c1,2.3,2.2,4.4,3.7,6.3c4.8,5.9,21.3,26.4,33.2,43.6c6.4-6.9,15.8-14.2,28-22L995-5.7
			c-3-0.3-5.5-0.6-7.3-0.9c-1.4-0.2-2.6-0.3-2.8-0.3h-0.2c-1.1-0.3-2.4-0.6-1-41.5L983-49c-5.5-0.3-9.4,1.9-15.8,5.3
			C958.6-38.9,945.5-31.8,918.2-25.5z"/>
	</g>
	<g>
		<path class="st13" d="M977.7,88L977.7,88c-0.2,0.6-0.4,1.3-0.5,2c-0.5,3.3-1.1,10.2-1.7,18.7c-0.4,5-0.7,10.4-1.1,16.1l-14.3,0.7
			c1.5-19.9,3.3-40.4,4.3-42.5c1.4-2.7,3.2-5.2,5.3-7.4C973,80.1,975.6,84.3,977.7,88z"/>
		<path class="st9" d="M959.1,126.4l0.1-1.1c3-40.1,4.1-42.2,4.4-42.8c1.5-2.8,3.3-5.3,5.4-7.6l0.8-0.9l0.7,1
			c2.9,4.1,5.5,8.3,7.9,12.5l0.2,0.4l-0.2,0.4c-0.2,0.6-0.4,1.1-0.4,1.7c-0.4,3-1,8.9-1.7,18.7c-0.4,5-0.7,10.4-1.1,16.1l-0.1,0.9
			L959.1,126.4z M969.7,77.2c-1.7,1.9-3.1,4-4.3,6.2c-0.4,0.7-1.5,6.1-4.1,41l12.2-0.6c0.3-5.3,0.7-10.5,1-15.2
			c0.7-9.8,1.3-15.8,1.7-18.8c0.1-0.6,0.2-1.2,0.4-1.7C974.5,84.4,972.2,80.8,969.7,77.2z"/>
	</g>
	<g>
		<path class="st13" d="M1004.4,105.7c-2.4,0.5-6,1.4-8.4,2.2c-3.1,1-15.6,1-20.5,0.9c0.6-8.5,1.2-15.4,1.7-18.7l1.3-0.6
			c4.5-2.2,12.1-5.8,13.9-6.6c2.6-1.1,0.5,6.7,0,9.4c-0.5,2.7,4.4,0.7,8.6-1c1.1-0.5,2.2-1.1,3.3-1.8
			C1004.9,94.9,1005,100.3,1004.4,105.7z"/>
		<path class="st9" d="M980.2,109.8c-2.2,0-3.9,0-4.7,0h-1.1l0.1-1.1c0.7-9.8,1.3-15.8,1.7-18.8l0.1-0.5l1.8-0.8
			c8-3.9,12.6-6,14-6.6c0.9-0.4,1.6,0,1.9,0.2c1.3,1.1,0.8,4.1-0.1,8.5c-0.2,0.7-0.3,1.4-0.4,1.8c0,0.2,0,0.2,0,0.2
			c0.7,0.3,4.6-1.3,6.8-2.2l0.5-0.2c1.1-0.5,2.1-1,3.1-1.7l1.3-0.9l0.2,1.6c0.6,5.4,0.6,10.9,0.1,16.4l-0.1,0.7l-0.7,0.2
			c-2.4,0.5-5.9,1.3-8.3,2.1C993.7,109.6,985.7,109.8,980.2,109.8z M976.6,107.8c6.4,0.1,16.5,0,19.1-0.9c2.3-0.7,5.4-1.5,7.8-2
			c0.4-4.6,0.4-9.1,0-13.7c-0.7,0.4-1.4,0.7-2.1,1l-0.5,0.2c-4.5,1.8-7.4,2.9-8.8,1.8c-0.4-0.3-0.8-0.9-0.6-2
			c0.1-0.5,0.2-1.2,0.4-1.9c0.3-1.6,1.1-5.2,0.8-6.4c-1.7,0.7-6.3,2.9-13.8,6.5l-0.8,0.4C977.7,93.7,977.2,99.1,976.6,107.8z"/>
	</g>
	<g>
		<path class="st13" d="M1002.1,172.2c-5.8-0.1-21.7,1.4-25.1,0c-1.7-0.8-3.4-1.8-5-2.9c0.2-3.3,0.4-7.8,0.7-13.1h27.2
			c0.1,1.2,0.5,2.3,1.1,3.3C1001.9,161.1,1002.1,167.5,1002.1,172.2z"/>
		<path class="st9" d="M983.2,173.8c-3.1,0-5.4-0.2-6.6-0.7c-1.8-0.9-3.6-1.9-5.2-3l-0.4-0.3v-0.6c0.2-3.3,0.4-7.9,0.7-13.1l0.1-0.9
			h29l0.1,0.9c0.1,1.1,0.5,2.1,1,3c0.3,0.5,1.3,2.1,1.3,13.1v1h-1c-1.9,0-5.1,0.1-8.4,0.3C989.6,173.6,986,173.8,983.2,173.8z
			 M973,168.8c1.4,0.9,2.9,1.8,4.4,2.5c2,0.8,10.2,0.4,16.2,0.2c2.8-0.1,5.5-0.3,7.5-0.3c-0.1-8.9-0.8-10.7-1-11.1
			c-0.5-0.9-0.9-1.9-1.1-2.9h-25.4C973.3,161.8,973.1,165.7,973,168.8z"/>
	</g>
	<g>
		<path class="st13" d="M974.5,124.8c-0.7,10.8-1.3,22.2-1.8,31.4c-0.3,5.2-0.5,9.8-0.7,13.1c-4.9-3.1-11.5-7.7-14.3-8.6
			c0.4-6.8,1.4-20.9,2.5-35.2L974.5,124.8z"/>
		<path class="st9" d="M972.9,171.1l-1.4-0.9c-1.1-0.7-2.3-1.5-3.5-2.3c-4-2.6-8.5-5.6-10.5-6.2l-0.7-0.2v-0.8
			c0.4-6.5,1.4-20.3,2.5-35.2l0.1-0.9l16.3-0.7l-0.1,1.1c-0.6,8.8-1.1,19.1-1.8,31.4c-0.3,5.2-0.5,9.8-0.7,13.1L972.9,171.1z
			 M958.7,160c2.4,1,6.4,3.6,10.3,6.2c0.7,0.4,1.4,0.9,2,1.3c0.2-3.1,0.4-7,0.6-11.4c0.6-11.8,1.2-21.7,1.7-30.3l-12.3,0.6
			C960.1,140.5,959.2,153.4,958.7,160z"/>
	</g>
	<g>
		<path class="st13" d="M1003.2,111.4c-2.2,6.8-1.6,21.6-1.6,30.5c0,4-0.1,6.8-0.7,7.3c-1.2,1.2-1.5,4.3-1.1,6.9h-27.2
			c0.5-9.2,1.1-20.6,1.8-31.4c0.3-5.7,0.7-11.1,1.1-16.1c4.9,0,17.4,0.1,20.5-0.9c2.4-0.8,6-1.6,8.4-2.2
			C1004.2,107.6,1003.8,109.6,1003.2,111.4z"/>
		<path class="st9" d="M1001,157.2h-29.4l0.1-1.1c0.7-12.3,1.3-22.6,1.8-31.4c0.3-5.7,0.7-11.1,1.1-16.1l0.1-0.9h2.3
			c5.2,0,16.1,0,18.7-0.8c2.3-0.8,5.6-1.5,8.5-2.2l1.4-0.3l-0.1,1.4c-0.2,2-0.6,4-1.2,5.9l0,0c-1.7,5.4-1.6,16.1-1.6,24.7
			c0,2,0,3.8,0,5.5c0,5.9-0.3,7.4-1,8c-0.9,0.9-1.2,3.5-0.8,6.1L1001,157.2z M973.7,155.2h25c-0.2-2.5,0.2-5.3,1.5-6.6
			c0.2-0.3,0.4-1.7,0.4-6.6c0-1.7,0-3.5,0-5.5c-0.1-8.8-0.2-19.7,1.7-25.4c0.4-1.4,0.7-2.7,1-4.2c-2.5,0.6-5.1,1.2-6.9,1.8
			c-2.8,0.9-11.4,0.9-19.4,1h-0.5c-0.3,4.7-0.7,9.9-1,15.2C974.9,133.4,974.3,143.4,973.7,155.2z"/>
	</g>
</g>
</svg>
