<?xml version="1.0" encoding="utf-8"?>
<!-- Generator: Adobe Illustrator 26.0.0, SVG Export Plug-In . SVG Version: 6.00 Build 0)  -->
<svg version="1.1" id="Layer_1" xmlns="http://www.w3.org/2000/svg" xmlns:xlink="http://www.w3.org/1999/xlink" x="0px" y="0px"
	 viewBox="0 0 1116 360" style="enable-background:new 0 0 1116 360;" xml:space="preserve">
<style type="text/css">
	.st0{fill:#ED2F38;}
	.st1{opacity:0.24;}
	.st2{opacity:0.19;fill:#FFFFFF;enable-background:new    ;}
	.st3{font-family:'Poppins-ExtraBold';}
	.st4{font-size:65.16px;}
	.st5{font-size:71.62px;}
	.st6{fill:#FFFFFF;}
	.st7{fill:#46506D;stroke:#1B1E2A;stroke-miterlimit:10;}
	.st8{fill:#1B1E2A;stroke:#1B1E2A;stroke-miterlimit:10;}
	.st9{fill:#1B1E2A;}
	.st10{font-family:'Poppins-Regular';}
	.st11{font-size:69.773px;}
	.st12{fill:#46506D;}
</style>
<rect class="st0" width="1116" height="360"/>
<g>
	<g class="st1">
		<text transform="matrix(1 0 0 1 -142.7365 114.885)" class="st2 st3 st4">DUMAGUETE</text>
		<text transform="matrix(1 0 0 1 286.0935 114.885)" class="st2 st3 st4">DUMAGUETE</text>
	</g>
	<g class="st1">
		<text transform="matrix(1 0 0 1 -396.9865 175.7251)" class="st2 st3 st4">DUMAGUETE</text>
		<text transform="matrix(1 0 0 1 31.8435 175.7251)" class="st2 st3 st4">DUMAGUETE</text>
	</g>
	<g class="st1">
		<text transform="matrix(1 0 0 1 -103.3565 233.265)" class="st2 st3 st4">DUMAGUETE</text>
		<text transform="matrix(1 0 0 1 325.4735 233.265)" class="st2 st3 st4">DUMAGUETE</text>
	</g>
	<g class="st1">
		<text transform="matrix(1 0 0 1 -400.2065 294.2451)" class="st2 st3 st4">DUMAGUETE</text>
		<text transform="matrix(1 0 0 1 28.6235 294.2451)" class="st2 st3 st4">DUMAGUETE</text>
	</g>
	<g class="st1">
		<text transform="matrix(1 0 0 1 -210.7565 354.3751)" class="st2 st3 st4">DUMAGUETE</text>
		<text transform="matrix(1 0 0 1 218.0735 354.3751)" class="st2 st3 st4">DUMAGUETE</text>
	</g>
	<g class="st1">
		<text transform="matrix(1 0 0 1 -51.6165 58.1951)" class="st2 st3 st5">DUMAGUETE</text>
	</g>
	<g class="st1">
		<text transform="matrix(1 0 0 1 714.3794 114.885)" class="st2 st3 st4">DUMAGUETE</text>
	</g>
	<g class="st1">
		<text transform="matrix(1 0 0 1 460.1295 175.725)" class="st2 st3 st4">DUMAGUETE</text>
		<text transform="matrix(1 0 0 1 888.9595 175.725)" class="st2 st3 st4">DUMAGUETE</text>
	</g>
	<g class="st1">
		<text transform="matrix(1 0 0 1 753.7595 233.265)" class="st2 st3 st4">DUMAGUETE</text>
	</g>
	<g class="st1">
		<text transform="matrix(1 0 0 1 456.9094 294.245)" class="st2 st3 st4">DUMAGUETE</text>
		<text transform="matrix(1 0 0 1 885.7395 294.245)" class="st2 st3 st4">DUMAGUETE</text>
	</g>
	<g class="st1">
		<text transform="matrix(1 0 0 1 646.3594 354.375)" class="st2 st3 st4">DUMAGUETE</text>
		<text transform="matrix(1 0 0 1 1075.1895 354.375)" class="st2 st3 st4">DUMAGUETE</text>
	</g>
	<g class="st1">
		<text transform="matrix(1 0 0 1 413.89 58.1955)" class="st2 st3 st5">DUMAGUETE</text>
	</g>
	<g class="st1">
		<text transform="matrix(1 0 0 1 876.7581 58.6968)" class="st2 st3 st5">DUMAGUETE</text>
	</g>
</g>
<g>
	<text transform="matrix(1 0 0 1 184.1554 213.1137)" class="st9 st10 st11">BAJUMPANDAN</text>
	<g>
		<g>
			<path class="st6" d="M171.9,154.9L171.9,154.9L171.9,154.9c0.1-0.4,0.2-0.8,0.4-1.1c0.7-1.2,1-2.6,0.7-4l-0.1-0.7
				c-0.1-0.3-0.1-0.6-0.2-1l0,0c-0.4-2.1-0.7-3.8-1.3-5.2c-0.9-2.5-1.7-5-2.3-7.5c-0.3-1.4-0.5-4.3-0.5-4.3
				c-0.1-0.8-0.7-1.4-1.5-1.3c-0.5,0-0.9,0.3-1.2,0.7c-0.7,1.1-1.7,2.3-2.1,2.5c-0.6,0.2-2.8,0.3-4,0.3c-1.6,0.1-2.2,0.1-2.6,0.3
				c-0.4,0.1-0.8,0.1-1.3,0c-0.8-0.2-5.9-0.6-7.7,0.1c-0.6,0.2-1,0.4-1.4,0.6l0,0l-0.4,0.2c-0.2,0.1-0.5,0.3-0.7,0.4
				c-2.5,0.3-5.1,0.5-7.7,0.6l0,0h-0.7c-4.3,0.1-6.9-0.4-7.2-0.6c-0.1,0-0.1-0.1-0.2-0.1c-0.9-0.4-3.3-1.5-6.2-1l0,0h-0.1l0,0h-0.2
				c-3.1,0.7-4.8,1.5-5.2,1.7c-0.6,0.2-5.1,1.7-7,2.3c-0.5-0.8-1.2-2.2-1.6-3.1c-1.4-2.8-1.7-3.2-2.1-3.5c-0.5-0.3-3.7-1.5-4.6-1.8
				c-4.6-1.6-4.8-1.5-5.4-1.1c-0.4,0.2-0.5,0.4-1.7,2.4c-1,1.7-3.7,6.2-4.6,6.8c-0.5,0.2-2.9,1.1-5.5,2.1c-3.3,1.3-7.5,2.9-10.9,4.2
				c-1.9,0.7-3.2,1.3-4.2,1.7c-0.6,0.2-1,0.4-1.3,0.5c-0.4,0.2-1.5,0.7-1.2,1.8c0.1,0.5,0.2,0.6,1.8,2.4c1.7,1.9,4.8,5.3,5.8,7.2
				c0.5,0.9,1.5,3.2,2.8,6.4l0,0c1,2.5,2.2,5.5,3.2,8.2l0,0c0.9,2.3,1.5,4.2,1.9,5.3c0.7,2.1,3.1,9.8,7,22.2l0,0l1.7,5.5l2,7.1l0,0
				l8.4,29.4c0.2,0.6,0.7,1,1.4,1c0.1,0,0.1,0,0.2,0l17.5-2.1h0.1h0.1l0,0l12.7-2.2l0,0h0.2h0.1l14.6-3.7c0.5-0.1,0.9-0.5,1-1
				c0.5-2,1.9-5.6,3.2-6.6c0.1-0.1,0.2-0.2,0.3-0.2c0,0,0.1-0.1,0.2-0.3l0,0c4-4.8,4-5.8,4-6.3v-0.3c0.1-4.9,0.8-6.5,1.1-7l0.1-0.2
				l0,0c1-1.4,1.7-3,2-4.7c0.4-1.9,0.6-3.2,0.7-3.7l0,0l0,0l0.1-0.4v-0.1c0.3-2.8,1.1-5.5,2.2-8.1c0.8-1.6,1.7-3.1,2.9-4.5
				c0.7-0.9,1.4-1.7,1.7-2.7c0.1-0.4,0.3-0.9,0.5-1.3c0.1-0.3,0.2-0.5,0.3-0.8l0,0c0.4-1,0.7-2.1,0.7-3.2c0-0.9,0-2.2-0.2-3.9l0,0
				c-0.2-1.7-0.4-3.3-0.7-5c-0.4-2.2-0.9-4.3-1.7-6.3l0,0l0,0c-0.1-0.3-0.2-0.5-0.3-0.8c-0.1-0.2-0.2-0.4-0.2-0.7
				c0,0,0.1-0.1,0.5-0.4c1.4-0.8,3.2-2.4,4.1-4.4l0,0c0.2-0.5,0.3-0.9,0.4-1.4c0.2-1.2,0.1-2.4-0.3-3.5
				C171.9,155.8,171.8,155.4,171.9,154.9z"/>
		</g>
		<g>
			<path class="st12" d="M121.8,172.7c-1,0.1-2.7,0.2-3.2,0.2c-0.9,0-2.1-1.7-3.2-1.7s-1.9,1.3-2.5,2c-0.5,0.5-1.2,1-3.2,1.3
				c-0.4,0.1-0.9,0.1-1.5,0.1c-3.2,0.2-4.3-1.3-6.2-1.6c-1.8-0.4-1.9,0.3-3.2,0.6c-1.2,0.3-2.1-1.4-5.4-3.1c-3.3-1.6-3-0.5-4.4-0.2
				c-1.5,0.4-3.8-1.8-4.1-1.7c-0.2,0.1-1.2,1.7-2,3c-1-2.6-2.1-5.6-3.2-8.2c2-0.3,6.4-0.9,14.2-2.2c9.9-1.6,18.3-3.1,20.1-3.4
				C115.5,161.4,119,169.5,121.8,172.7z"/>
			<path class="st9" d="M107.6,174.7c-1.8,0-2.9-0.5-3.8-1c-0.6-0.3-1.1-0.5-1.8-0.7c-1.2-0.2-1.6,0-2.1,0.2c-0.3,0.1-0.6,0.3-1,0.4
				c-0.7,0.2-1.3-0.3-2.3-1c-0.7-0.6-1.8-1.3-3.3-2.1c-2.4-1.2-2.8-0.9-3.4-0.6c-0.2,0.1-0.5,0.3-0.9,0.4c-1.1,0.3-2.5-0.7-3.4-1.3
				c-0.3-0.2-0.6-0.4-0.7-0.4c-0.1,0.1-0.5,0.6-1.9,2.9l-0.2,0.3l-0.1-0.3c-1-2.7-2.2-5.7-3.2-8.2l-0.1-0.2h0.2
				c2-0.3,6.4-0.9,14.2-2.2c10.4-1.7,19.1-3.2,20.1-3.4h0.1l0.1,0.1c1.4,3.4,5.1,11.8,7.8,15.1l0.2,0.3h-0.3
				c-1.1,0.1-2.7,0.2-3.2,0.2s-1-0.4-1.5-0.8c-0.6-0.5-1.2-0.9-1.7-0.9c-0.8,0-1.5,0.9-2,1.5c-0.1,0.1-0.2,0.3-0.3,0.4
				c-0.5,0.6-1.3,1.1-3.3,1.3c-0.4,0.1-0.9,0.1-1.5,0.1C108,174.7,107.8,174.7,107.6,174.7z M101,172.6c0.3,0,0.6,0,1,0.1
				c0.7,0.1,1.2,0.4,1.8,0.7c1,0.5,2.2,1.1,4.3,0.9c0.6,0,1.1-0.1,1.5-0.1c2.1-0.3,2.7-0.8,3.1-1.2c0.1-0.1,0.2-0.2,0.3-0.4
				c0.6-0.7,1.3-1.6,2.3-1.6c0.6,0,1.3,0.5,1.9,1c0.5,0.4,1,0.8,1.3,0.8c0.5,0,2.1-0.1,2.9-0.1c-2.7-3.4-6.2-11.3-7.6-14.8
				c-1.5,0.3-9.9,1.7-20,3.4c-7.6,1.2-12,1.9-14,2.2c1,2.4,2.1,5.2,3,7.7c1.6-2.7,1.8-2.7,1.9-2.8c0.2,0,0.4,0.1,1,0.5
				c0.8,0.6,2.2,1.5,3.1,1.3c0.4-0.1,0.6-0.2,0.8-0.4c0.8-0.4,1.3-0.6,3.7,0.6c1.6,0.8,2.6,1.5,3.4,2.1c0.9,0.7,1.4,1.1,2,0.9
				c0.4-0.1,0.7-0.2,0.9-0.3C100.1,172.7,100.4,172.6,101,172.6z"/>
		</g>
		<g>
			<path class="st12" d="M130.6,147.7l-16.3,9.9l-0.3,0.1c-1.8,0.3-10.2,1.8-20.1,3.4c-7.8,1.3-12.3,1.9-14.2,2.2
				c-1.2-2.9-2.3-5.5-2.9-6.6c-1.6-2.9-7.4-8.8-7.5-9.1s20.7-8.1,22.3-8.8s6.1-9.1,6.5-9.3c0.3-0.2,8.1,2.6,8.6,2.9
				c0.5,0.3,3.5,7.1,4,7.1s7.8-2.4,8.2-2.6c0.4-0.2,1.9-0.9,4.9-1.6c0.1,0,0.1,0,0.2,0L130.6,147.7z"/>
			<path class="st9" d="M79.5,163.4v-0.1c-0.9-2.3-2.2-5.3-2.9-6.5c-1.1-1.9-4.1-5.3-6-7.4c-1.3-1.5-1.5-1.7-1.5-1.8
				c0-0.2-0.1-0.3,16.8-6.8c2.9-1.1,5.1-2,5.6-2.2c1.1-0.5,3.7-4.9,5.2-7.3c0.9-1.5,1.1-1.9,1.3-2c0.5-0.3,8.7,2.9,8.7,2.9
				c0.2,0.1,0.7,1,1.7,3c0.8,1.6,2,3.9,2.3,4.1c0.5,0,7.7-2.4,8.1-2.6c0.2-0.1,1.8-0.9,4.9-1.6c0.1,0,0.2,0,0.2,0h0.1l6.8,12.6
				l-16.5,10l-0.3,0.1c-0.4,0.1-9.3,1.6-20.1,3.4c-7.8,1.3-12.3,1.9-14.2,2.2L79.5,163.4z M69.5,147.6c0.2,0.2,0.8,0.9,1.4,1.6
				c1.8,2,4.9,5.5,6,7.4c0.7,1.2,1.9,4.2,2.8,6.5c2-0.3,6.4-0.9,14.1-2.2c10.8-1.8,19.7-3.3,20.1-3.4l0.3-0.1l16.1-9.8l-6.5-12.1
				h-0.1c-3.1,0.7-4.7,1.5-4.9,1.5c-0.3,0.2-7.7,2.6-8.3,2.6c-0.4,0-0.9-1-2.5-4.2c-0.7-1.3-1.4-2.7-1.6-2.9
				c-0.5-0.3-7.7-2.9-8.4-2.9c-0.1,0.1-0.6,1-1.1,1.8c-2.1,3.5-4.2,7-5.3,7.4c-0.5,0.2-2.7,1.1-5.6,2.2
				C80.2,143.3,70.6,147,69.5,147.6z"/>
		</g>
		<g>
			<path class="st12" d="M116.6,191.2L91.7,199c-2.2-7.2-6-19.3-7-22.2c-0.4-1.2-1.1-3.2-2-5.4c0.8-1.3,1.8-2.9,2-3
				c0.3-0.1,2.6,2.1,4.1,1.7s1.1-1.4,4.4,0.2c3.3,1.6,4.2,3.3,5.4,3.1c1.2-0.3,1.3-0.9,3.2-0.6c1.8,0.4,2.9,1.8,6.2,1.6
				c0.6,0,1.1-0.1,1.5-0.1c0,0.1,0,0.1,0,0.2c0,0.9,4.3,9.5,6,13.1C116.2,188.8,116.5,190,116.6,191.2z"/>
			<path class="st9" d="M91.6,199.2V199c-1.4-4.4-5.9-19-7-22.2c-0.4-1.2-1.1-3.2-2-5.4v-0.1v-0.1c1.8-3,2-3,2.1-3.1
				c0.2,0,0.4,0.1,1,0.5c0.8,0.5,2.2,1.5,3.1,1.2c0.4-0.1,0.6-0.2,0.8-0.4c0.8-0.4,1.3-0.6,3.7,0.6c1.6,0.8,2.6,1.5,3.4,2.1
				c0.9,0.7,1.4,1.1,2,0.9c0.4-0.1,0.7-0.2,0.9-0.3c0.6-0.3,1-0.5,2.3-0.2c0.7,0.1,1.2,0.4,1.8,0.7c1,0.5,2.2,1.1,4.3,0.9
				c0.6,0,1.1-0.1,1.5-0.1h0.1v0.1c0,0.1,0,0.2,0,0.2c0,0.7,2.8,6.5,4.7,10.4c0.5,1,0.9,1.9,1.3,2.6c0.5,1.2,0.8,2.4,1,3.6v0.1h-0.1
				L91.6,199.2z M83,171.4c0.8,2.2,1.5,4.1,1.9,5.3c1.1,3.2,5.5,17.5,6.9,22.1l24.6-7.7c-0.2-1.2-0.5-2.3-0.9-3.4
				c-0.3-0.7-0.8-1.6-1.3-2.6c-2.6-5.3-4.8-9.8-4.8-10.5l0,0c-0.4,0-0.8,0.1-1.3,0.1c-2.1,0.1-3.4-0.5-4.4-1
				c-0.6-0.3-1.1-0.5-1.8-0.7c-1.2-0.2-1.6,0-2.1,0.2c-0.3,0.1-0.6,0.3-1,0.4c-0.7,0.2-1.3-0.3-2.3-1c-0.7-0.6-1.8-1.3-3.3-2.1
				c-2.4-1.2-2.8-0.9-3.4-0.6c-0.2,0.1-0.5,0.3-0.9,0.4c-1.1,0.3-2.5-0.7-3.4-1.3c-0.3-0.2-0.6-0.4-0.7-0.4
				C84.8,168.7,84.4,169.2,83,171.4z"/>
		</g>
		<g>
			<path class="st12" d="M118,206.8c-8.8,1.7-18.2,3.8-22.5,4.8l-2-7.1c0,0-0.7-2.3-1.7-5.5l24.9-7.8c0.9,5,1.1,12.6,1.2,14.4
				C117.9,205.8,117.9,206.3,118,206.8z"/>
			<path class="st9" d="M95.4,211.8l-2.1-7.2l0,0c0,0-0.7-2.3-1.7-5.5v-0.2l25.2-7.9v0.2c0.6,3.6,0.9,8.5,1.1,11.7
				c0.1,1.2,0.1,2.2,0.2,2.7c0,0.2,0.1,0.6,0.1,1.2v0.2H118C108.9,208.8,99.2,211,95.4,211.8L95.4,211.8z M91.9,199.1
				c1,3.2,1.7,5.4,1.7,5.4l2,6.9c3.8-0.9,13.2-3,22.2-4.8c-0.1-0.5-0.1-0.8-0.1-1c-0.1-0.5-0.1-1.5-0.2-2.7c-0.2-3.2-0.4-7.9-1-11.5
				L91.9,199.1z"/>
		</g>
		<g>
			<path class="st12" d="M121.5,238.9L121.5,238.9l-17.6,2.1l-8.4-29.4c4.3-1,13.7-3.1,22.5-4.8c0.5,4.9,2.3,21.2,2.5,25.2
				C120.6,234.3,121,236.6,121.5,238.9z"/>
			<path class="st9" d="M103.8,241.2l-8.5-29.7h0.2c2.9-0.7,12.9-3,22.5-4.8h0.2l0.2,1.8c0.6,6,2.2,20,2.3,23.6
				c0.1,2.3,0.5,4.6,1.1,6.9v0.2l-0.3,0.1L103.8,241.2z M95.7,211.7l8.4,29.1l17.3-2.1c-0.6-2.2-0.9-4.5-1-6.7
				c-0.1-3.6-1.7-17.6-2.3-23.5l-0.2-1.4C108.5,208.8,98.7,211,95.7,211.7z"/>
		</g>
		<g>
			<path class="st9" d="M133.4,219c-0.2,0.6,0.6,13.3,0.9,17.6l-12.7,2.2c-0.6-2.3-0.9-4.6-1.1-6.9c-0.2-4-1.9-20.2-2.5-25.2
				c4.4-0.8,8.6-1.6,12.1-2s6.1-0.8,8-1c-0.5,2.3-1.1,4.5-1.8,6.7C135,214.5,133.5,218.6,133.4,219z"/>
			<path class="st9" d="M121.4,239v-0.1c-0.6-2.3-0.9-4.6-1.1-6.9c-0.1-3.6-1.7-17.6-2.3-23.5l-0.2-1.8h0.2c4.9-0.9,9-1.6,12.1-2
				c3.3-0.4,6-0.8,8-1h0.2v0.2c-0.5,2.3-1.1,4.5-1.8,6.7c-0.9,2.8-1.8,5.6-2.4,7.3c-0.2,0.7-0.4,1.2-0.4,1.3
				c-0.1,0.5,0.4,9.4,0.9,17.5v0.1L121.4,239z M118.2,206.9l0.2,1.5c0.6,6,2.2,19.9,2.3,23.5c0.1,2.3,0.5,4.5,1,6.7l12.4-2.2
				c-0.3-5.2-1-16.9-0.8-17.5l0,0c0-0.1,0.2-0.6,0.4-1.3c0.6-1.7,1.5-4.4,2.4-7.3c0.7-2.1,1.3-4.3,1.7-6.4c-2,0.3-4.6,0.6-7.8,1
				C127,205.3,123,206,118.2,206.9z"/>
		</g>
		<g>
			<path class="st12" d="M153.1,225.3l-0.2,0.3c-2.3,1.6-3.8,7.4-3.8,7.4l-14.6,3.7h-0.2c-0.3-4.3-1-17-0.9-17.6
				c0.1-0.4,1.6-4.5,2.9-8.6c1,2.5,3.1,7,3.7,7.6C140.7,218.7,149.6,223.4,153.1,225.3z"/>
			<path class="st9" d="M134.1,236.8v-0.2c-0.1-1.7-1-16.9-0.8-17.7c0-0.1,0.2-0.7,0.5-1.4c0.6-1.6,1.5-4.4,2.4-7.2l0.1-0.4l0.2,0.4
				c1.4,3.4,3.1,7.1,3.7,7.6c0.8,0.7,10.2,5.7,13.1,7.2l0.2,0.1l-0.4,0.5c-2.2,1.6-3.7,7.2-3.7,7.3v0.1L134.1,236.8z M136.3,210.9
				c-0.8,2.6-1.7,5.2-2.2,6.8c-0.3,0.7-0.4,1.3-0.5,1.4c-0.1,0.5,0.4,10.6,0.8,17.4l14.5-3.7c0.2-0.8,1.7-5.8,3.8-7.4l0.1-0.1
				c-3.8-2-12.2-6.4-13-7.1C139.1,217.5,137,212.6,136.3,210.9z"/>
		</g>
		<g>
			<path class="st12" d="M158.4,211.6c-0.1,0.1-0.1,0.1-0.1,0.1c-1.4,1.8-1.4,7-1.5,8.1c0,0.9-2.9,4.4-3.7,5.4
				c-3.5-1.9-12.4-6.5-13.1-7.2c-0.7-0.6-2.7-5.2-3.7-7.6c0.7-2.2,1.3-4.4,1.8-6.7l0,0c2.4,0.3,6.9,2.8,8.4,3.4
				C147.6,207.6,154.7,210.2,158.4,211.6z"/>
			<path class="st9" d="M153.2,225.5l-0.1-0.1c-3.7-1.9-12.4-6.5-13.1-7.2c-0.7-0.7-2.9-5.6-3.8-7.7v-0.1v-0.1
				c0.7-2.2,1.3-4.4,1.8-6.7v-0.2h0.2c1.7,0.2,4.5,1.6,6.6,2.6c0.8,0.4,1.4,0.7,1.9,0.9c1.1,0.4,7.9,2.9,11.5,4.3l0.6,0.2l-0.1,0.2
				c-0.1,0.1-0.1,0.1-0.1,0.1c-1.2,1.7-1.4,6.2-1.4,7.7v0.3c0,0.9-2.3,3.8-3.7,5.5L153.2,225.5z M136.5,210.4
				c1.8,4.3,3.2,7.1,3.7,7.5c0.7,0.7,9.9,5.5,13,7.1c2.2-2.6,3.5-4.6,3.6-5.2v-0.3c0-1.5,0.2-6.1,1.5-7.9l-0.2-0.1
				c-3.9-1.5-10.4-3.9-11.5-4.3c-0.4-0.2-1.1-0.5-1.9-0.9c-1.9-1-4.6-2.2-6.3-2.5C137.7,206.1,137.1,208.3,136.5,210.4z"/>
		</g>
		<g>
			<path class="st12" d="M160.8,203.8c-0.1,0.6-0.3,1.9-0.7,3.7c-0.3,1.5-0.9,2.9-1.7,4.1c-3.7-1.4-10.8-4-11.9-4.4
				c-1.5-0.6-6-3.1-8.4-3.4c5-0.7,5.3-0.9,6-1.1c0.3-0.1,1.3-1.5,2.6-3.4c1.2,0.6,3.5,1.7,4.6,2
				C152.5,201.7,158.6,203.3,160.8,203.8z"/>
			<path class="st9" d="M158.4,211.8h-0.1c-3.7-1.4-10.8-4-11.9-4.4c-0.4-0.2-1.1-0.5-1.9-0.9c-2-1-4.7-2.3-6.4-2.5l-1.3-0.2
				l1.3-0.2c4.6-0.6,5.2-0.8,5.8-1h0.2c0.2-0.1,0.7-0.7,2.5-3.3l0.1-0.1l0.1,0.1c1,0.5,3.4,1.7,4.6,2c0.9,0.3,4.2,1.1,9.5,2.5h0.1
				v0.2c-0.1,0.7-0.4,2.2-0.7,3.7s-0.9,2.9-1.8,4.2L158.4,211.8z M139.1,203.8c1.7,0.5,3.9,1.5,5.6,2.3c0.8,0.4,1.5,0.7,1.9,0.9
				c1.1,0.4,8,3,11.8,4.4c0.8-1.2,1.4-2.5,1.6-3.9c0.3-1.4,0.5-2.8,0.6-3.5c-5.3-1.4-8.5-2.2-9.4-2.5c-1.1-0.4-3.4-1.5-4.5-2
				c-1.8,2.8-2.3,3.3-2.6,3.3H144C143.4,203.1,142.9,203.2,139.1,203.8z"/>
		</g>
		<g>
			<path class="st12" d="M168.5,185.8c-0.3,0.7-0.5,1.4-0.8,2.1c-0.6,1.7-2.6,3-4.5,7c-1.2,2.7-2,5.6-2.4,8.5c0,0,0,0.1-0.1,0.4
				c-2.2-0.6-8.2-2.1-9.5-2.5c-1.1-0.4-3.4-1.5-4.6-2c2.5-3.9,5.9-9.6,5.9-9.6s-2.2-3.4-5-8c1.8,0.1,8.1,0.3,8.5,0.3h0.1
				c0.5,0.1,1.6,0.9,2.4,1.4c0.3,0.2,0.6,0.3,0.9,0.5c0.6,0.2,3.3,0,4.2,0c0.1,0,0.1,0,0.2,0C164.3,184,166.9,185.1,168.5,185.8z"/>
			<path class="st9" d="M160.9,204h-0.2c-5.3-1.4-8.6-2.3-9.5-2.5c-1.2-0.4-3.6-1.6-4.6-2.1l-0.2-0.1l0.1-0.2
				c2.3-3.6,5.4-8.8,5.8-9.5c-0.4-0.6-2.4-3.8-5-7.9l-0.2-0.3h0.3c3,0.1,8.1,0.3,8.5,0.3c0.1,0,0.1,0,0.2,0c0.4,0.1,1.1,0.6,1.8,1.1
				c0.2,0.1,0.4,0.3,0.6,0.4c0.3,0.2,0.5,0.3,0.8,0.5c0.3,0.1,1.6,0.1,2.6,0c0.6,0,1.2-0.1,1.5,0c0.1,0,0.1,0,0.2,0
				c0.4,0,1.9,0.6,4.7,1.8l0.1,0.1l-0.1,0.1c-0.1,0.3-0.2,0.5-0.3,0.8c-0.2,0.4-0.3,0.9-0.5,1.4c-0.3,0.8-0.8,1.4-1.5,2.3
				c-0.9,1.1-2,2.5-3,4.8c-1.2,2.7-2,5.6-2.3,8.5c0,0,0,0.1-0.1,0.4L160.9,204z M146.9,199.2c1.1,0.5,3.3,1.6,4.4,2
				c0.9,0.3,4.1,1.1,9.3,2.5c0-0.1,0-0.2,0-0.2c0.4-3,1.2-5.8,2.4-8.6c1.1-2.3,2.2-3.7,3.1-4.8c0.7-0.8,1.2-1.5,1.4-2.2
				c0.2-0.5,0.3-0.9,0.5-1.4c0.1-0.2,0.2-0.4,0.2-0.6c-3.3-1.4-4.2-1.7-4.4-1.8c-0.1,0-0.1,0-0.2,0c-0.4,0-0.9,0-1.5,0
				c-1.4,0.1-2.4,0.1-2.8-0.1c-0.3-0.1-0.6-0.3-0.9-0.5c-0.2-0.1-0.4-0.2-0.6-0.4c-0.7-0.4-1.4-0.9-1.8-1h-0.1
				c-0.4,0-6.7-0.2-8.2-0.3c2.8,4.4,4.9,7.7,4.9,7.7l0.1,0.1l-0.1,0.1C152.7,189.8,149.4,195.4,146.9,199.2z"/>
		</g>
		<g>
			<path class="st12" d="M160.5,146.6c-2.4-0.2-3,2.2-11.1,4h-0.2c-6,1.3-12,2.9-15,3.7l-3.6-6.6l-6.7-12.3c2.8-0.5,5.3,0.8,5.7,1
				c0.5,0.2,3.2,0.7,7.7,0.6h0.7c1.4,2.3,4.6,7.4,4.7,7.4c0.1,0,7.8-2.2,11.3-3.2L160.5,146.6z"/>
			<path class="st9" d="M134.1,154.5l-10.4-19.3h0.2c2.5-0.5,4.6,0.5,5.5,0.9c0.1,0.1,0.2,0.1,0.3,0.1c0.5,0.2,3.1,0.7,7.7,0.6h0.8
				v0.1c2,3.3,4.2,6.9,4.6,7.3c0.5-0.1,4.6-1.3,7.9-2.2c1.3-0.4,2.4-0.7,3.4-0.9h0.1l6.9,5.7h-0.5c-1-0.1-1.6,0.3-2.7,0.9
				c-1.5,0.8-3.7,2-8.4,3.1h-0.2c-5.5,1.2-11.2,2.7-15,3.7L134.1,154.5z M124.2,135.5l10.1,18.6c3.8-1,9.4-2.5,14.9-3.7h0.2
				c4.6-1,6.8-2.2,8.3-3c0.9-0.5,1.6-0.9,2.4-0.9l-6-5c-0.9,0.3-2.1,0.6-3.3,0.9c-6.3,1.8-7.9,2.2-8,2.2s-0.3,0-4.8-7.4h-0.6
				c-4.6,0.1-7.3-0.5-7.8-0.6c-0.1,0-0.2-0.1-0.3-0.1C128.4,136,126.5,135.1,124.2,135.5z"/>
		</g>
		<g>
			<path class="st12" d="M154.1,141.2c-3.5,1-11.2,3.1-11.3,3.2s-3.3-5.1-4.7-7.4c2.7,0,5.3-0.3,7.9-0.6c0.5-0.2,1-0.4,1.4-0.6
				L154.1,141.2z"/>
			<path class="st9" d="M142.8,144.6c-0.2,0-0.5-0.5-4.9-7.5l-0.2-0.2h0.3c2.6,0,5.3-0.3,7.9-0.6c0.5-0.2,0.9-0.4,1.4-0.6l0.1-0.1
				l7,5.8l-0.3,0.1C150.5,142.4,142.9,144.5,142.8,144.6L142.8,144.6z M138.3,137.1c3.3,5.4,4.2,6.8,4.5,7.1
				c0.8-0.2,7.5-2.1,10.9-3.1l-6.3-5.3c-0.4,0.2-0.9,0.4-1.4,0.6C143.5,136.9,140.9,137.1,138.3,137.1z"/>
		</g>
		<g>
			<path class="st12" d="M171.3,148.4c-2.3-0.4-8.4-1.6-10.6-1.8h-0.2l0,0l-6.4-5.3l-6.7-5.6c0.4-0.2,0.8-0.4,1.3-0.6
				c1.3-0.5,6.1-0.3,6.8-0.1c0.6,0.2,2.2,0,2.4-0.2s5-0.1,6.4-0.6s2.9-3.1,2.9-3.1s0.2,3,0.6,4.5c0.6,2.6,1.4,5.2,2.3,7.8
				C170.6,145.1,171,146.7,171.3,148.4z"/>
			<path class="st9" d="M171.5,148.6h-0.2c-2.5-0.5-8.4-1.6-10.6-1.8h-0.3l0,0l-13.3-11.1l0.2-0.1c0.4-0.2,0.8-0.4,1.3-0.6
				c1.4-0.6,6.2-0.3,6.9-0.1c0.6,0.2,2,0,2.2-0.1c0.1-0.1,0.3-0.1,2-0.2c1.5-0.1,3.7-0.1,4.5-0.4c1.3-0.4,2.8-3,2.8-3l0.3-0.5v0.5
				c0,0,0.2,3,0.6,4.5c0.6,2.6,1.4,5.2,2.3,7.7c0.6,1.6,1,3.3,1.2,4.9L171.5,148.6z M160.6,146.4h0.2c2.1,0.2,7.8,1.3,10.4,1.8
				c-0.3-1.6-0.7-3.1-1.2-4.6c-0.9-2.5-1.7-5.2-2.3-7.8c-0.2-1.2-0.4-3.1-0.5-4c-0.5,0.8-1.7,2.4-2.7,2.7c-0.8,0.3-3,0.4-4.6,0.4
				c-0.8,0-1.6,0.1-1.8,0.1c-0.3,0.2-1.9,0.4-2.5,0.2c-0.7-0.2-5.4-0.4-6.7,0.1c-0.4,0.2-0.8,0.3-1.1,0.5L160.6,146.4z"/>
		</g>
		<g>
			<path class="st12" d="M171,159.9c-0.1,0.4-0.2,0.7-0.3,1.1c-1.2,0-3.6,0.4-6.9,2.4c-0.2,0.1-0.5,0.3-0.7,0.4l-0.5-10
				c2.2,0.2,5.9,0.6,7.9,0.8C170.2,156.4,171.4,157.6,171,159.9z"/>
			<path class="st9" d="M163,164.1l-0.5-10.5h0.2c2.2,0.2,5.9,0.6,7.9,0.8h0.2v0.2c-0.1,0.8,0,1.4,0.2,2.2s0.5,1.8,0.3,3l0,0
				c-0.1,0.4-0.2,0.8-0.3,1.1v0.1h-0.1c-1.1,0-3.5,0.4-6.8,2.4l-0.1,0.1c-0.2,0.1-0.4,0.2-0.5,0.3L163,164.1z M162.8,154l0.5,9.5
				c0.1-0.1,0.2-0.1,0.3-0.2l0.1-0.1c3.3-2,5.7-2.4,6.9-2.5c0.1-0.3,0.2-0.6,0.3-1c0.2-1.2,0-2-0.3-2.9c-0.2-0.7-0.4-1.4-0.3-2.1
				C168.4,154.6,165,154.3,162.8,154z"/>
		</g>
		<g>
			<path class="st12" d="M170.7,161c-0.7,1.7-2.3,3.1-3.4,3.7c-1.4,0.8-1.5,1.5-1,2.8c0.1,0.3,0.2,0.5,0.3,0.8
				c-0.6,0.4-1.8,1.2-2.5,1.7c-0.2,0.1-0.4,0.2-0.6,0.3c-0.7,0.3-1.5,0.6-1.4,0.2c0.1-0.5,0.4-1.8,0-1.6c-0.3,0.1-1.6,0.7-2.3,1.1
				l-0.1-0.2l0,0c-0.4-0.6-0.8-1.3-1.3-2.1c0.8-0.9,2.3-2.2,4.9-3.9c0.2-0.1,0.4-0.3,0.7-0.4C167.1,161.4,169.5,161,170.7,161z"/>
			<path class="st9" d="M162.2,170.9c-0.1,0-0.2,0-0.3-0.1s-0.1-0.2-0.1-0.3s0-0.2,0.1-0.3c0.1-0.3,0.2-0.9,0.1-1.1
				c-0.3,0.1-1,0.5-1.7,0.8l-0.8,0.4l-0.2-0.4c-0.3-0.6-0.8-1.3-1.3-2.1l-0.1-0.1l0.1-0.1c1.1-1.2,2.7-2.5,4.9-3.9
				c0.1-0.1,0.3-0.2,0.4-0.2l0.3-0.2c3.4-2.1,5.8-2.4,7-2.5h0.3l-0.1,0.2c-0.7,1.8-2.3,3.2-3.5,3.8c-1.4,0.8-1.4,1.5-0.9,2.6
				c0.1,0.2,0.2,0.5,0.3,0.8l0.1,0.1l-0.1,0.1c-0.6,0.4-1.8,1.2-2.6,1.7c-0.2,0.1-0.4,0.2-0.6,0.3h-0.1
				C162.9,170.7,162.5,170.9,162.2,170.9z M162.1,168.7c0.1,0,0.1,0,0.2,0.1c0.2,0.2,0.1,0.7,0,1.4c0,0.1,0,0.2-0.1,0.3l0,0
				c0.1,0.1,0.8-0.2,1.1-0.4h0.1c0.2-0.1,0.4-0.2,0.5-0.3c0.7-0.4,1.8-1.2,2.4-1.6c-0.1-0.3-0.2-0.5-0.3-0.7
				c-0.5-1.3-0.5-2.2,1.1-3.1c1.1-0.6,2.5-1.8,3.3-3.4c-1.2,0.1-3.5,0.5-6.5,2.4l-0.3,0.2c-0.1,0.1-0.3,0.2-0.4,0.2
				c-2.1,1.3-3.7,2.6-4.8,3.7c0.5,0.7,0.9,1.4,1.3,2l0.1,0.1l0.5-0.2c0.7-0.3,1.5-0.7,1.7-0.8C162,168.7,162.1,168.7,162.1,168.7z"
				/>
		</g>
		<g>
			<path class="st12" d="M169,179.2c-0.7-0.1-1.3-0.2-1.9-0.4c-0.4-0.1-2.5,0-3.5,0c0-1.5-0.1-4,0.3-5.1c0.1-0.3,0.2-0.6,0.2-1
				c0.1-0.9,0.1-1.8,0-2.7c0.8-0.5,2-1.3,2.5-1.7c0.8,2,1.4,4,1.7,6.1C168.6,176,168.8,177.6,169,179.2z"/>
			<path class="st9" d="M169.1,179.4h-0.2c-0.7-0.1-1.3-0.2-2-0.4c-0.3-0.1-2.2,0-3.4,0h-0.2v-0.2c0-0.3,0-0.5,0-0.8
				c0-1.5,0-3.4,0.3-4.4c0.1-0.3,0.2-0.6,0.2-0.9c0.1-0.9,0.1-1.8,0-2.7v-0.1l0.1-0.1c0.8-0.5,2-1.3,2.5-1.7l0.2-0.1l0.1,0.2
				c0.8,2,1.4,4,1.7,6.1c0.3,1.6,0.5,3.2,0.7,4.8L169.1,179.4z M165.9,178.6c0.6,0,1,0,1.2,0c0.6,0.2,1.2,0.3,1.7,0.4
				c-0.1-1.5-0.4-3.1-0.7-4.6c-0.3-2-0.9-4-1.6-5.8c-0.6,0.4-1.6,1.1-2.3,1.5c0.1,0.9,0.1,1.8,0,2.6c0,0.3-0.1,0.7-0.2,1
				c-0.3,0.9-0.3,2.8-0.3,4.3c0,0.2,0,0.4,0,0.7C164.3,178.7,165.2,178.6,165.9,178.6z"/>
		</g>
		<g>
			<path class="st12" d="M169.1,183c-0.1,0.9-0.3,1.9-0.6,2.7c-1.6-0.7-4.2-1.8-4.6-1.8c-0.1,0-0.1,0-0.2,0c0-0.8,0-1.8-0.2-2.1
				c-0.1-0.2-0.2-0.4-0.2-0.6c-0.1-0.4,0-1,0.2-1.2c0.1-0.1,0.1-0.6,0.1-1.2c1,0,3.1-0.1,3.5,0c0.6,0.2,1.3,0.3,1.9,0.4
				C169.1,180.9,169.1,182.2,169.1,183z"/>
			<path class="st9" d="M168.6,186l-0.6-0.3c-1.5-0.6-3.7-1.6-4.1-1.6c-0.1,0-0.1,0-0.2,0h-0.2v-0.2c0-1.6-0.1-2-0.2-2
				c-0.1-0.2-0.2-0.4-0.2-0.6c-0.1-0.5,0-1,0.2-1.3c0-0.1,0.1-0.4,0.1-1.1v-0.2h0.2c0.7,0,3.1-0.1,3.5,0c0.6,0.2,1.3,0.3,1.9,0.4
				h0.1v0.1c0.1,1.3,0.2,2.6,0.2,3.8l0,0c-0.1,1-0.3,1.9-0.6,2.8L168.6,186z M163.8,183.7C163.8,183.7,163.9,183.7,163.8,183.7
				c0.5,0.1,2.2,0.8,4.3,1.6l0.3,0.1c0.3-0.8,0.5-1.6,0.6-2.5c0-1.2-0.1-2.4-0.2-3.6c-0.6-0.1-1.2-0.2-1.8-0.4c-0.3,0-1.8,0-3.2,0
				c0,0.8,0,1.1-0.2,1.2c-0.1,0.1-0.2,0.6-0.1,1c0,0.2,0.1,0.4,0.2,0.5C163.7,181.8,163.8,182.1,163.8,183.7z"/>
		</g>
		<g>
			<path class="st12" d="M138.2,202.8c0,0.3-0.1,0.6-0.1,0.9l0,0c-1.9,0.3-4.5,0.6-8,1c-3.4,0.4-7.7,1.2-12.1,2
				c-0.1-0.5-0.1-1-0.1-1.2c-0.2-1.8-0.4-9.4-1.2-14.4l21.5-6.7C138.3,191.4,138.4,200.5,138.2,202.8z"/>
			<path class="st9" d="M117.9,207v-0.2c-0.1-0.5-0.1-1-0.1-1.2c-0.1-0.5-0.1-1.5-0.2-2.7c-0.2-3.2-0.4-8.1-1.1-11.7v-0.1l21.8-6.8
				v0.2c0.1,6.8,0.3,16.1,0.1,18.4c0,0.2-0.1,0.5-0.1,1v0.1h-0.1c-2,0.3-4.7,0.6-8,1c-3.2,0.4-7.2,1.1-12,2H117.9z M116.8,191.3
				c0.6,3.6,0.9,8.4,1,11.6c0.1,1.2,0.1,2.2,0.2,2.7c0,0.2,0.1,0.6,0.1,1c4.8-0.9,8.8-1.6,11.9-2c3.3-0.4,5.8-0.7,7.9-1
				c0.1-0.3,0.1-0.6,0.1-0.8l0,0c0.2-2.3,0.1-11.3-0.1-18.1L116.8,191.3z"/>
		</g>
		<g>
			<path class="st12" d="M138.1,184.5l-21.5,6.7c-0.2-1.2-0.5-2.4-1-3.6c-1.7-3.6-6-12.2-6-13.1c0-0.1,0-0.1,0-0.2
				c2-0.3,2.7-0.7,3.2-1.3c0.6-0.7,1.4-2,2.5-2s2.4,1.7,3.2,1.7c0.6,0,2.2-0.1,3.2-0.2c0.4,0.5,0.9,0.9,1.4,1.2
				c3.5,1.7,3.1,1.3,4.4,0.4s2.5-2,4.5-0.7c1.9,1.2,1.7,1.3,2,1c0.2-0.3,0.9-1,1.9,0.3c0.9,1.1,1.4,3.6,2.1,3.8
				C138,180.1,138,182.2,138.1,184.5z"/>
			<path class="st9" d="M116.5,191.4v-0.2c-0.2-1.2-0.5-2.4-1-3.5c-0.4-0.8-0.9-1.9-1.5-3.1c-2.6-5.3-4.6-9.4-4.6-10.1v-0.1v-0.2
				h0.2c2.1-0.3,2.7-0.8,3.1-1.2c0.1-0.1,0.2-0.2,0.3-0.3c0.6-0.7,1.3-1.7,2.3-1.7c0.6,0,1.3,0.5,1.9,1c0.5,0.4,1,0.8,1.3,0.8
				c0.6,0,2.3-0.1,3.2-0.2h0.1l0.1,0.1c0.4,0.5,0.8,0.9,1.3,1.2c2.9,1.4,3,1.3,3.7,0.7c0.1-0.1,0.3-0.2,0.4-0.3l0.1-0.1
				c1.2-0.9,2.6-1.9,4.5-0.6c0.6,0.4,1,0.7,1.3,0.9c0.2,0.1,0.3,0.2,0.4,0.2l0,0v-0.1c0.1-0.1,0.4-0.5,0.9-0.5
				c0.4,0,0.8,0.3,1.2,0.8s0.8,1.4,1.1,2.1c0.3,0.7,0.7,1.6,0.9,1.7h0.1v1.2c0,1.3,0.1,3,0.1,4.7v0.1h-0.1L116.5,191.4z
				 M109.8,174.5L109.8,174.5c0,0.7,2.7,6.3,4.5,10c0.6,1.2,1.1,2.3,1.5,3.1c0.5,1.1,0.8,2.3,0.9,3.4l21.2-6.6
				c0-1.7-0.1-3.3-0.1-4.6v-1c-0.4-0.2-0.7-0.9-1-1.8c-0.3-0.7-0.6-1.5-1-2c-0.4-0.4-0.7-0.7-1-0.7c-0.2,0-0.4,0.1-0.7,0.4l0,0
				c-0.2,0.3-0.3,0.2-0.8-0.1c-0.3-0.2-0.7-0.5-1.3-0.9c-1.8-1.1-3-0.2-4.2,0.6l-0.1,0.1c-0.2,0.1-0.3,0.2-0.4,0.3
				c-0.8,0.7-1.1,0.8-4.1-0.7c-0.5-0.3-1-0.7-1.4-1.2c-1.2,0.1-2.6,0.2-3.2,0.2c-0.5,0-1-0.4-1.5-0.8c-0.6-0.5-1.2-0.9-1.7-0.9
				c-0.8,0-1.5,0.9-2.1,1.5c-0.1,0.1-0.2,0.2-0.3,0.4C112.4,173.8,111.7,174.2,109.8,174.5z"/>
		</g>
		<g>
			<path class="st12" d="M152.6,189.6c0,0-3.4,5.7-5.9,9.6c-1.2,1.9-2.2,3.3-2.6,3.4c-0.7,0.2-1,0.4-6,1.1l0,0
				c0.1-0.4,0.1-0.7,0.1-0.9c0.2-2.3,0.1-11.4-0.1-18.3c-0.1-2.3-0.1-4.3-0.2-5.8c0.1,0,0.2,0,0.2,0c0.8-0.5,1.7-1.5,3.1-1
				c1.2,0.4,2.3,0.4,3.4-0.5c1,1.6,1.9,3.1,2.8,4.5C150.4,186.2,152.6,189.6,152.6,189.6z"/>
			<path class="st9" d="M137.9,203.9v-0.2c0.1-0.4,0.1-0.7,0.1-0.9c0.2-1.8,0.1-7.9-0.1-18.3c-0.1-2.3-0.1-4.3-0.2-5.8v-0.2h0.2h0.1
				c0.1-0.1,0.3-0.2,0.4-0.3c0.7-0.5,1.6-1.1,2.8-0.7c1.3,0.5,2.2,0.3,3.2-0.5l0.1-0.1l0.1,0.2c1,1.6,1.9,3.1,2.8,4.5
				c2.8,4.5,5,7.9,5,8l0.1,0.1l-0.1,0.1c0,0.1-3.4,5.8-5.9,9.6c-1.9,2.9-2.4,3.4-2.7,3.5l-0.2,0.1c-0.7,0.2-1.2,0.4-5.9,1
				L137.9,203.9z M138.1,178.8c0,1.5,0.1,3.4,0.1,5.6c0.2,10.4,0.3,16.6,0.1,18.4c0,0.2,0,0.4-0.1,0.7c4.4-0.6,5-0.8,5.6-1l0.2-0.1
				c0.1,0,0.6-0.4,2.5-3.3c2.3-3.6,5.4-8.8,5.8-9.5c-0.4-0.6-2.4-3.8-4.9-7.9c-0.9-1.4-1.8-2.9-2.7-4.4c-1,0.8-2.1,0.9-3.4,0.4
				c-1.1-0.4-1.8,0.2-2.5,0.6c-0.2,0.1-0.3,0.2-0.5,0.3C138.2,178.8,138.2,178.8,138.1,178.8z"/>
		</g>
		<g>
			<path class="st12" d="M144.7,177.1c-1.1,0.9-2.2,1-3.4,0.5c-1.4-0.5-2.3,0.5-3.1,1c-0.1,0-0.2,0.1-0.2,0
				c-0.7-0.2-1.2-2.7-2.1-3.8c-1-1.3-1.7-0.6-1.9-0.3s0,0.2-2-1s-3.3-0.2-4.5,0.7s-0.9,1.3-4.4-0.4c-0.5-0.3-1-0.7-1.4-1.2
				c-2.7-3.2-6.3-11.3-7.8-15.1l0.3-0.1l16.3-9.9l3.6,6.6l2.6,4.8c-1.8,0-1.9,0.7-1.9,1.7C134.9,161.3,140,169.6,144.7,177.1z"/>
			<path class="st9" d="M138,178.8h-0.1c-0.4-0.1-0.8-0.9-1.2-1.9c-0.3-0.7-0.6-1.5-1-2c-0.4-0.4-0.7-0.7-1-0.7l0,0
				c-0.2,0-0.4,0.1-0.7,0.4l0,0c-0.2,0.3-0.3,0.2-0.8-0.1c-0.3-0.2-0.7-0.5-1.3-0.9c-1.8-1.1-3-0.2-4.2,0.6l-0.1,0.1
				c-0.2,0.1-0.3,0.2-0.4,0.3c-0.8,0.7-1.1,0.8-4.1-0.7c-0.6-0.3-1.1-0.8-1.5-1.3c-2.8-3.3-6.4-11.7-7.9-15.1l-0.1-0.2l0.5-0.1
				l16.4-9.9l6.4,11.8h-0.3c-1.6,0-1.7,0.6-1.7,1.5c0,0.3,1.8,3.4,9.8,16.3l0.1,0.1l-0.1,0.1c-1.1,0.9-2.2,1-3.5,0.5
				c-1.1-0.4-1.8,0.2-2.5,0.6c-0.2,0.1-0.3,0.2-0.5,0.3C138.2,178.8,138.1,178.8,138,178.8z M134.7,173.9L134.7,173.9
				c0.4,0,0.8,0.3,1.3,0.8c0.4,0.5,0.8,1.4,1.1,2.1c0.3,0.7,0.7,1.6,0.9,1.7h0.1c0.1-0.1,0.3-0.2,0.4-0.3c0.7-0.5,1.6-1.1,2.8-0.7
				c1.2,0.4,2.2,0.3,3.1-0.4c-8.7-13.9-9.8-16-9.8-16.4c0-1,0.1-1.8,1.8-1.8l-6-11l-16.2,9.8H114c1.5,3.6,5,11.7,7.7,14.9
				c0.4,0.5,0.8,0.9,1.4,1.2c2.9,1.4,3,1.3,3.7,0.7c0.1-0.1,0.3-0.2,0.4-0.3l0.1-0.1c1.2-0.9,2.6-1.9,4.5-0.6
				c0.7,0.4,1.1,0.7,1.3,0.9c0.2,0.1,0.3,0.2,0.4,0.2l0,0v-0.1C134.1,174.1,134.4,173.9,134.7,173.9z"/>
		</g>
		<g>
			<path class="st12" d="M151.9,159.1c-3.1,0-13.3,0-14.9,0h-0.2l-2.6-4.8c3-0.8,9-2.4,15-3.7h0.2
				C149.8,152.3,150.8,156.7,151.9,159.1z"/>
			<path class="st9" d="M140.9,159.3c-1.9,0-3.4,0-3.9,0h-0.3l-2.7-5.1l0.2-0.1c3.8-1,9.5-2.5,15-3.7l0.4-0.1v0.2
				c0.4,1.8,1.4,6.2,2.5,8.5l0.1,0.2h-0.3c-0.9,0-2.4,0-4,0C145.7,159.3,143,159.3,140.9,159.3z M136.9,158.9h0.1
				c1.2,0,6.8,0,10.9,0c1.5,0,2.9,0,3.8,0c-1-2.3-2-6.4-2.4-8.2l0,0c-5.4,1.2-11,2.6-14.8,3.7L136.9,158.9z"/>
		</g>
		<g>
			<path class="st12" d="M170.5,154.6L170.5,154.6c-2-0.2-5.7-0.6-7.9-0.8c-1.1-0.1-1.8-0.2-1.9-0.2c-0.3-0.1-0.1-4.9,0-6.9
				c0-0.1,0-0.1,0-0.2c2.2,0.2,8.3,1.4,10.6,1.8c0.1,0.5,0.2,1.1,0.3,1.7C172,152.6,170.8,152.9,170.5,154.6z"/>
			<path class="st9" d="M170.7,154.9h-0.2c-2-0.2-5.6-0.6-7.9-0.8c-0.8-0.1-1.8-0.2-1.9-0.2c-0.2,0-0.4-0.1-0.2-7.1v-0.3h0.2
				c2.2,0.2,8.1,1.3,10.6,1.8h0.1v0.1c0.1,0.3,0.1,0.6,0.2,0.9c0,0.3,0.1,0.5,0.1,0.8c0.3,1.7-0.1,2.4-0.5,3.2
				c-0.2,0.4-0.5,0.8-0.6,1.4L170.7,154.9L170.7,154.9z M160.8,153.5c0.2,0,0.7,0.1,1.8,0.2c2.2,0.2,5.7,0.6,7.7,0.8
				c0.1-0.6,0.4-1,0.6-1.4c0.4-0.7,0.8-1.4,0.5-3c0-0.3-0.1-0.5-0.1-0.8s-0.1-0.5-0.1-0.8c-2.5-0.5-8-1.5-10.3-1.8
				C160.7,151.2,160.8,153.1,160.8,153.5z"/>
		</g>
		<g>
			<path class="st12" d="M158.2,167.7c-0.3,0.4-0.6,0.8-0.9,1.2c-0.2,0.3-0.5,3.8-0.7,7.1c-0.2,2.4-0.3,4.8-0.4,5.9h-0.1
				c-0.4,0-6.7-0.2-8.5-0.3c-0.9-1.4-1.9-3-2.8-4.5c-4.7-7.6-9.8-15.9-9.8-16.4c0-0.9,0.1-1.7,1.9-1.7h0.2c1.6,0,11.8,0,14.9,0
				c0.2,0.4,0.4,0.8,0.6,1.1C153.6,161.6,156.3,164.9,158.2,167.7z"/>
			<path class="st9" d="M156.3,182.2l-0.2-0.1c0,0,0,0-0.1,0c-0.4,0-7.2-0.2-8.5-0.3h-0.1v-0.1c-0.9-1.4-1.9-3-2.8-4.5
				c-9.9-15.8-9.9-16.3-9.9-16.5c0-1,0.2-1.8,2-1.8h0.2c1.2,0,6.8,0,10.9,0c1.7,0,3.1,0,4,0h0.1v0.1c0.2,0.4,0.4,0.7,0.6,1.1
				c1.2,1.4,3.8,4.8,5.7,7.5l0.1,0.1l-0.1,0.1c-0.3,0.4-0.6,0.8-0.9,1.2c0,0.1-0.2,0.9-0.7,7.1c-0.1,1.6-0.2,3.1-0.3,4.3
				c0,0.7-0.1,1.2-0.1,1.6L156.3,182.2z M147.6,181.5c2.2,0.1,7.8,0.3,8.4,0.3c0-0.4,0.1-0.9,0.1-1.4c0.1-1.2,0.2-2.7,0.3-4.3
				c0.5-6.7,0.7-7.1,0.7-7.2c0.2-0.4,0.5-0.8,0.8-1.2c-1.9-2.7-4.5-6-5.6-7.4c-0.3-0.3-0.5-0.7-0.6-1.1c-0.9,0-2.3,0-3.9,0
				c-4.1,0-9.7,0-10.9,0h-0.2c-1.6,0-1.7,0.6-1.7,1.5c0,0.3,1.4,2.8,9.8,16.3C145.8,178.6,146.8,180.1,147.6,181.5z"/>
		</g>
		<g>
			<path class="st12" d="M163.1,163.8c-2.6,1.7-4.1,3-4.9,3.9c-1.9-2.8-4.6-6.1-5.7-7.5c-0.3-0.3-0.5-0.7-0.6-1.1
				c-1.1-2.3-2.1-6.8-2.5-8.5c8.2-1.8,8.8-4.1,11.2-4l0,0l0.2,0.2c-0.1,2-0.2,6.8,0,6.9c0.1,0,0.8,0.1,1.9,0.2L163.1,163.8z"/>
			<path class="st9" d="M158.2,168l-0.1-0.2c-2-2.9-4.9-6.5-5.7-7.5c-0.3-0.4-0.5-0.7-0.7-1.1c-1.1-2.4-2.1-6.8-2.5-8.6v-0.2h0.2
				c4.7-1,6.9-2.3,8.3-3.1c1.1-0.6,1.8-1,2.9-0.9h0.1l0.3,0.3v0.1c-0.2,4.4-0.1,6.3,0,6.7c0.1,0,0.2,0,0.4,0c0.3,0,0.8,0.1,1.4,0.2
				h0.1l0.5,10.2l-0.1,0.1c-2.2,1.4-3.8,2.7-4.9,3.8L158.2,168z M149.5,150.7c0.4,1.9,1.4,6.1,2.5,8.4c0.2,0.4,0.4,0.7,0.6,1.1
				c0.8,1,3.6,4.4,5.6,7.3c1.1-1.2,2.7-2.4,4.7-3.7l-0.5-9.7c-0.5-0.1-0.9-0.1-1.2-0.1c-0.2,0-0.4-0.1-0.5-0.1l0,0
				c-0.2,0-0.4-0.1-0.2-7l-0.1-0.1c-0.9,0-1.6,0.3-2.7,0.9C156.3,148.4,154.1,149.6,149.5,150.7z"/>
		</g>
		<g>
			<path class="st12" d="M159.5,169.8L159.5,169.8c0,0.1-0.1,0.2-0.1,0.3c-0.1,0.6-0.2,1.7-0.3,3.1c-0.1,0.8-0.1,1.8-0.2,2.7
				l-2.4,0.1c0.3-3.3,0.6-6.8,0.7-7.1c0.2-0.4,0.5-0.9,0.9-1.2C158.7,168.4,159.2,169.1,159.5,169.8z"/>
			<path class="st9" d="M156.4,176.2V176c0.5-6.7,0.7-7.1,0.7-7.2c0.2-0.5,0.6-0.9,0.9-1.3l0.1-0.2l0.1,0.2c0.5,0.7,0.9,1.4,1.3,2.1
				v0.1v0.1c0,0.1-0.1,0.2-0.1,0.3c-0.1,0.5-0.2,1.5-0.3,3.1c-0.1,0.8-0.1,1.8-0.2,2.7v0.2L156.4,176.2z M158.2,167.9
				c-0.3,0.3-0.5,0.7-0.7,1c-0.1,0.1-0.2,1-0.7,6.9l2.1-0.1c0.1-0.9,0.1-1.8,0.2-2.6c0.1-1.7,0.2-2.7,0.3-3.2c0-0.1,0-0.2,0.1-0.3
				C159,169.2,158.6,168.5,158.2,167.9z"/>
		</g>
		<g>
			<path class="st12" d="M164,172.7c-0.4,0.1-1,0.2-1.4,0.4c-0.5,0.2-2.6,0.2-3.4,0.2c0.1-1.4,0.2-2.6,0.3-3.1l0.2-0.1
				c0.8-0.4,2-1,2.3-1.1c0.4-0.2,0.1,1.1,0,1.6s0.7,0.1,1.4-0.2c0.2-0.1,0.4-0.2,0.6-0.3C164.1,170.9,164.1,171.8,164,172.7z"/>
			<path class="st9" d="M160,173.4c-0.4,0-0.7,0-0.8,0H159v-0.2c0.1-1.7,0.2-2.7,0.3-3.2v-0.1l0.3-0.1c1.3-0.6,2.1-1,2.4-1.1
				c0.2-0.1,0.3,0,0.3,0c0.2,0.2,0.1,0.7,0,1.4c0,0.1,0,0.2-0.1,0.3l0,0c0.1,0.1,0.8-0.2,1.1-0.4h0.1c0.2-0.1,0.4-0.2,0.5-0.3
				l0.2-0.1v0.3c0.1,0.9,0.1,1.8,0,2.8v0.1H164c-0.4,0.1-1,0.2-1.4,0.4C162.2,173.4,160.9,173.4,160,173.4z M159.4,173.1
				c1.1,0,2.8,0,3.2-0.1s0.9-0.2,1.3-0.3c0.1-0.8,0.1-1.5,0-2.3c-0.1,0.1-0.2,0.1-0.3,0.2h-0.1c-0.8,0.3-1.2,0.5-1.5,0.3
				c-0.1-0.1-0.1-0.2-0.1-0.3s0-0.2,0.1-0.3c0.1-0.3,0.2-0.9,0.1-1.1c-0.3,0.1-1.1,0.5-2.3,1.1l-0.1,0.1
				C159.5,170.7,159.5,171.6,159.4,173.1z"/>
		</g>
		<g>
			<path class="st12" d="M163.6,183.9c-1,0-3.7,0.2-4.2,0c-0.3-0.1-0.6-0.3-0.8-0.5c0-0.6,0.1-1.3,0.1-2.2h4.6
				c0,0.2,0.1,0.4,0.2,0.6C163.6,182.1,163.6,183.1,163.6,183.9z"/>
			<path class="st9" d="M160.5,184.2c-0.5,0-0.9,0-1.1-0.1c-0.3-0.1-0.6-0.3-0.9-0.5l-0.1-0.1v-0.1c0-0.6,0.1-1.3,0.1-2.2V181h4.9
				v0.1c0,0.2,0.1,0.3,0.2,0.5c0.1,0.1,0.2,0.3,0.2,2.2v0.2h-0.2c-0.3,0-0.9,0-1.4,0C161.5,184.2,160.9,184.2,160.5,184.2z
				 M158.7,183.3c0.2,0.2,0.5,0.3,0.7,0.4c0.3,0.1,1.7,0.1,2.7,0c0.5,0,0.9,0,1.3,0c0-1.5-0.1-1.8-0.2-1.9c-0.1-0.2-0.1-0.3-0.2-0.5
				h-4.3C158.8,182.2,158.8,182.8,158.7,183.3z"/>
		</g>
		<g>
			<path class="st12" d="M159,176c-0.1,1.8-0.2,3.7-0.3,5.3c0,0.9-0.1,1.6-0.1,2.2c-0.8-0.5-1.9-1.3-2.4-1.4
				c0.1-1.1,0.2-3.5,0.4-5.9L159,176z"/>
			<path class="st9" d="M158.7,183.7l-0.2-0.2c-0.2-0.1-0.4-0.2-0.6-0.4c-0.7-0.4-1.4-0.9-1.8-1H156V182c0.1-1.1,0.2-3.4,0.4-5.9
				V176l2.7-0.1v0.2c-0.1,1.5-0.2,3.2-0.3,5.3c0,0.9-0.1,1.6-0.1,2.2L158.7,183.7z M156.4,181.9c0.4,0.2,1.1,0.6,1.7,1
				c0.1,0.1,0.2,0.1,0.3,0.2c0-0.5,0.1-1.2,0.1-1.9c0.1-2,0.2-3.7,0.3-5.1l-2.1,0.1C156.6,178.6,156.4,180.8,156.4,181.9z"/>
		</g>
		<g>
			<path class="st12" d="M163.8,173.7c-0.4,1.1-0.3,3.6-0.3,5.1c0,0.7,0,1.1-0.1,1.2c-0.2,0.2-0.3,0.7-0.2,1.2h-4.6
				c0.1-1.5,0.2-3.5,0.3-5.3c0.1-1,0.1-1.9,0.2-2.7c0.8,0,2.9,0,3.4-0.2c0.4-0.1,1-0.3,1.4-0.4C164,173.1,163.9,173.4,163.8,173.7z"
				/>
			<path class="st9" d="M163.5,181.4h-4.9v-0.2c0.1-2.1,0.2-3.8,0.3-5.3c0.1-1,0.1-1.9,0.2-2.7V173h0.4c0.9,0,2.7,0,3.2-0.1
				c0.4-0.1,0.9-0.3,1.4-0.4l0.2-0.1v0.2c0,0.3-0.1,0.7-0.2,1l0,0c-0.3,0.9-0.3,2.7-0.3,4.2c0,0.3,0,0.6,0,0.9c0,1-0.1,1.2-0.2,1.3
				c-0.1,0.1-0.2,0.6-0.1,1L163.5,181.4z M158.9,181.1h4.2c0-0.4,0-0.9,0.3-1.1c0,0,0.1-0.3,0.1-1.1c0-0.3,0-0.6,0-0.9
				c0-1.5,0-3.3,0.3-4.3c0.1-0.2,0.1-0.5,0.2-0.7c-0.4,0.1-0.9,0.2-1.2,0.3c-0.5,0.2-1.9,0.2-3.3,0.2h-0.1c-0.1,0.8-0.1,1.7-0.2,2.5
				C159.1,177.4,159,179.1,158.9,181.1z"/>
		</g>
	</g>
</g>
<g>
	<g>
		<path class="st6" d="M1067.9-82.8L1067.9-82.8V-83c0.4-1.7,1.1-3.4,2-4.9c3.4-5.5,4.5-12.1,3.1-18.5l-0.6-3.3
			c-0.2-1.5-0.5-2.9-0.8-4.4l0,0c-1.8-9.8-3.3-17.2-5.9-23.8c-4.1-11.4-7.6-22.9-10.6-34.6c-1.4-6.6-2.5-19.8-2.5-19.9
			c-0.2-3.6-3.4-6.4-7-6.1c-2.2,0.2-4.2,1.4-5.3,3.3c-3.1,5.3-7.7,10.6-9.8,11.3c-2.8,1-13.1,1.4-18.5,1.5c-7.5,0.3-10.2,0.4-12,1.5
			c-1.9,0.3-3.9,0.4-5.8,0.2c-3.6-1-27.1-2.5-35.2,0.6c-2.5,1-4.7,2-6.5,2.9l0,0l-1.6,0.8c-1.1,0.6-2.2,1.2-3.3,1.7
			c-11.7,1.6-23.4,2.5-35.1,2.7l0,0l-3.1,0.1c-19.6,0.5-31.5-1.9-33.3-2.5c-0.2-0.1-0.5-0.2-1-0.4c-4.2-1.9-15.4-6.8-28.3-4.5h-0.1
			h-0.3h-0.2l-1.1,0.2c-14.3,3.1-22,6.7-23.9,7.7c-2.8,1.2-23.6,8-32.2,10.5c-2.1-3.6-5.4-10.2-7.6-14.4
			c-6.4-12.7-7.6-14.7-9.8-16.2c-2.2-1.5-16.9-6.7-21.3-8.3c-21.2-7.4-22.2-7-24.9-5.3c-1.9,1.1-2.5,2-7.9,11.1
			c-4.6,7.8-16.9,28.3-21.2,31.2c-2.5,1-13.1,5.1-25.3,9.7c-15.4,5.9-34.5,13.2-49.9,19.2c-8.5,3.3-14.8,5.9-19.3,7.7
			c-2.5,1.1-4.5,1.9-5.9,2.5c-2,0.9-6.7,3.1-5.7,8.3c0.4,2.2,0.8,2.8,8.3,11c7.7,8.6,22.1,24.5,26.6,32.8c2.3,4.3,7,14.7,12.9,29.4
			l0,0c4.7,11.6,10,25.2,14.7,37.5l0,0c3.9,10.4,7.1,19.2,8.9,24.4c3.2,9.8,14.3,45.1,31.9,101.9l0,0l7.8,25.3l9.3,32.5l0,0
			l38.8,134.6c0.8,2.9,3.4,4.8,6.3,4.8c0.2,0,0.5,0,0.8,0l80.4-9.7h0.3l0.5-0.1h0.1l58.5-10.2l0,0l0.8-0.2l0.5-0.1l67.3-16.9
			c2.3-0.6,4.2-2.4,4.8-4.7c2.5-9.3,8.7-25.8,14.9-30.2c0.5-0.3,0.8-0.7,1.2-1.2c0,0,0.4-0.5,1.1-1.3l0,0
			c18.1-21.9,18.4-26.8,18.5-28.8v-1.4c0.6-22.5,3.6-29.7,5.3-32l0.6-0.8l0,0c4.6-6.4,7.6-13.8,9.1-21.5c1.6-8.5,2.6-14.5,3.1-17.1
			l0,0l0,0l0.3-1.7c0-0.2,0-0.3,0-0.5c1.5-12.8,5-25.3,10.3-37.1c3.6-7.4,8-14.4,13.3-20.7c3.3-4.2,6.3-7.8,7.7-12.3
			c0.7-2,1.5-4.1,2.2-6.1c0.5-1.2,0.9-2.3,1.3-3.5l0,0c1.9-4.7,3.1-9.7,3.3-14.7c0-4.3-0.1-10.3-0.8-18.1l0,0
			c-0.7-7.6-1.8-15.2-3.2-22.8c-1.6-10-4.3-19.7-8-29.1l0,0l0,0c-0.5-1.3-1-2.5-1.4-3.6c-0.5-0.9-0.8-2-0.8-3.1c0,0,0.4-0.7,2.5-1.9
			c6.5-3.6,14.7-10.9,18.6-20.4l0,0c0.8-2.1,1.5-4.2,1.9-6.5c0.8-5.4,0.3-11-1.3-16.2C1068-78.7,1067.5-80.7,1067.9-82.8z"/>
	</g>
	<g>
		<path class="st12" d="M837.6-1.3C833-1,825.4-0.5,822.8-0.5c-3.9,0-9.8-8-14.8-8s-8.7,5.9-11.4,9c-2.2,2.5-5.3,4.6-14.7,5.9
			c-2,0.2-4.2,0.5-6.9,0.6c-14.8,0.9-19.8-5.9-28.3-7.5s-8.9,1.4-14.6,2.6c-5.7,1.2-9.7-6.6-25-14.1s-13.7-2.5-20.5-0.8
			s-17.3-8.3-18.8-8c-0.9,0.2-5.6,7.8-9.3,13.7c-4.5-11.9-9.8-25.6-14.7-37.6c9-1.2,29.4-4.2,65.3-10.2
			c45.5-7.5,84.1-14.2,92.3-15.7C808.7-53.4,825.1-16.1,837.6-1.3z"/>
		<path class="st9" d="M772.3,7.7c-8.1,0-13.2-2.4-17.7-4.6c-2.7-1.2-5.2-2.5-8.1-3c-5.4-1-7.3-0.2-9.7,0.9
			c-1.2,0.5-2.6,1.2-4.6,1.6c-3.4,0.8-6.2-1.3-10.3-4.6c-3.4-2.6-8.1-6.2-15.1-9.6c-10.9-5.3-12.8-4.2-15.6-2.6
			c-1.1,0.6-2.4,1.3-4.3,1.8c-4.9,1.2-11.4-3.2-15.6-6c-1.2-0.8-2.6-1.8-3.2-1.9c-0.5,0.5-2.3,2.7-8.7,13.3l-0.8,1.3L658-7.1
			c-4.6-12.3-10-25.9-14.7-37.6l-0.4-0.9l1-0.2c9-1.2,29.3-4.2,65.3-10.2c47.8-7.9,87.9-14.9,92.3-15.7l0.6-0.1l0.2,0.5
			C808.9-55.4,825.6-17,838.2-2l1,1.2l-1.5,0.1C832.5-0.5,825.4,0,822.8,0c-2.1,0-4.5-1.9-7-3.8c-2.7-2.1-5.4-4.2-7.8-4.2
			c-3.8,0-7,4-9.3,7c-0.5,0.6-1,1.2-1.5,1.8c-2.5,2.8-5.9,4.9-15.1,6.1c-2,0.2-4.3,0.5-7,0.6C774.1,7.7,773.2,7.7,772.3,7.7z
			 M742.5-1.8c1.2,0,2.7,0.2,4.5,0.5c3.1,0.6,5.7,1.9,8.5,3.2c4.8,2.3,10.3,4.9,19.6,4.3c2.5-0.2,4.9-0.4,6.8-0.6
			c9.7-1.3,12.4-3.6,14.2-5.6c0.5-0.5,0.9-1.1,1.4-1.7c2.5-3.2,6-7.5,10.5-7.5c2.9,0,5.9,2.3,8.7,4.6c2.2,1.7,4.5,3.5,6.1,3.5
			c2.5,0,9.6-0.4,13.3-0.7c-12.4-15.6-28.3-52-34.9-67.8c-6.6,1.2-45.6,8-91.7,15.5c-34.7,5.7-55,8.7-64.4,10
			c4.5,11,9.5,23.6,13.8,35.2c7.6-12.4,8.3-12.6,8.9-12.7c0.8-0.2,1.8,0.4,4.4,2.2c3.8,2.5,10.1,6.8,14.4,5.8c1.7-0.4,2.9-1,3.9-1.6
			c3.5-1.9,6-2.8,17.1,2.5c7.2,3.5,12,7.1,15.4,9.7c4,3,6.4,4.9,9.1,4.2c1.9-0.4,3.1-1,4.3-1.5C738.1-1.1,739.7-1.8,742.5-1.8z"/>
	</g>
	<g>
		<path class="st12" d="M814,83.7l-114.4,35.8c-10.3-33.2-27.5-88.7-32-102c-1.9-5.6-5.1-14.5-9-24.6c3.6-5.9,8.3-13.4,9.3-13.7
			c1.5-0.4,12.1,9.6,18.8,8c6.6-1.6,5.1-6.6,20.5,0.8c15.4,7.4,19.3,15.3,25,14.1c5.7-1.2,6.2-4.2,14.6-2.6s13.4,8.3,28.3,7.5
			c2.6-0.2,4.9-0.4,6.9-0.6c0.1,0.3,0.1,0.5,0.1,0.8c0,4.1,19.8,43.7,27.7,60.2C811.8,72.5,813.3,78,814,83.7z"/>
		<path class="st9" d="M699.1,120.5l-0.2-0.8c-6.3-20.2-27-87-32-102c-1.9-5.6-5.1-14.5-9-24.6l-0.2-0.4l0.2-0.3
			c8.3-13.7,9.2-13.9,9.7-14.1c0.8-0.2,1.8,0.5,4.5,2.2c3.8,2.5,10.1,6.7,14.3,5.7c1.7-0.4,2.8-1,3.9-1.6c3.5-1.9,6-2.8,17.1,2.5
			c7.2,3.5,11.9,7.1,15.4,9.7c4,3,6.4,4.9,9.1,4.2c1.9-0.4,3.1-1,4.3-1.5c2.5-1.2,4.7-2.2,10.6-1.1c3.1,0.6,5.7,1.9,8.4,3.2
			c4.8,2.3,10.3,4.9,19.6,4.3c2.5-0.2,4.9-0.4,6.8-0.6l0.7-0.1l0.2,0.7c0.1,0.3,0.2,0.7,0.2,1.1c0,3.1,13.1,30,21.7,47.6
			c2.2,4.6,4.3,8.9,5.9,12.1c2.2,5.3,3.6,10.9,4.4,16.5l0.1,0.6l-0.6,0.2L699.1,120.5z M659.5-7.1c3.8,10,7,18.8,8.9,24.3
			c4.9,14.8,25.3,80.3,31.7,101.3l113.1-35.4c-0.8-5.3-2.2-10.5-4.2-15.5c-1.5-3.2-3.6-7.4-5.9-12.1c-12-24.6-21.9-45.2-21.9-48.3
			l0,0c-1.8,0.2-3.9,0.4-6.2,0.5c-9.8,0.6-15.4-2.1-20.4-4.5c-2.6-1.2-5.2-2.5-8-3c-5.3-1-7.3-0.2-9.7,0.9c-1.2,0.5-2.6,1.2-4.6,1.6
			c-3.4,0.8-6.2-1.3-10.3-4.6c-3.4-2.6-8.1-6.2-15.1-9.6c-10.9-5.3-12.8-4.2-15.6-2.6c-1.1,0.6-2.4,1.3-4.2,1.8
			c-4.9,1.2-11.3-3.1-15.5-5.9c-1.2-0.8-2.7-1.8-3.2-2C667.7-19.7,665.9-17.6,659.5-7.1z"/>
	</g>
	<g>
		<path class="st12" d="M820.3,155.3c-40.6,7.8-83.7,17.5-103.4,22.2l-9.3-32.5c0,0-3.2-10.4-7.9-25.5L814,83.7
			c3.9,23.1,4.9,57.8,5.7,66.2C819.8,150.9,820,152.8,820.3,155.3z"/>
		<path class="st9" d="M716.4,178.4l-9.6-33.2l0,0c0,0-3.2-10.4-7.9-25.4l-0.2-0.7l116-36.4l0.2,0.8c2.9,16.7,4.1,39.1,4.9,53.9
			c0.3,5.6,0.5,10,0.8,12.3c0.1,1.1,0.3,3,0.6,5.5l0.1,0.7l-0.7,0.2c-42,8-86.3,18.2-103.4,22.2L716.4,178.4z M700.6,120
			c4.6,14.6,7.6,24.7,7.6,24.7l9.2,31.8c17.5-4.1,60.8-14,102.1-21.9c-0.2-2.2-0.4-3.8-0.5-4.8c-0.2-2.3-0.5-6.8-0.8-12.4
			c-0.8-14.5-2-36.4-4.7-52.8L700.6,120z"/>
	</g>
	<g>
		<path class="st12" d="M836.5,302.5l-0.5,0.1l-80.3,9.7l-38.8-134.8c19.8-4.6,62.8-14.4,103.4-22.2c2.5,22.7,10.7,97.4,11.4,115.5
			C832.3,281.5,833.9,292.1,836.5,302.5z"/>
		<path class="st9" d="M755,313.2l-39.2-136.3l0.8-0.2c13.1-3.1,59.3-13.7,103.5-22.2l0.8-0.2l0.9,8.3c2.9,27.4,10,91.7,10.6,108.2
			c0.5,10.6,2.2,21.2,4.9,31.5l0.2,0.8l-1.4,0.2L755,313.2z M717.8,178l38.4,133.4l79.4-9.7c-2.5-10.1-4.2-20.5-4.7-31
			c-0.6-16.5-7.6-80.7-10.6-108.1l-0.7-6.6C776.6,164.4,731.8,174.8,717.8,178z"/>
	</g>
	<g>
		<path class="st9" d="M891,211.5c-0.8,2.8,2.7,61.2,3.9,80.9l-58.5,10.2c-2.7-10.3-4.3-21-4.9-31.7c-0.7-18.1-9-92.9-11.4-115.5
			c20.1-3.9,39.6-7.2,55.4-9.3c16.2-2,28-3.6,36.7-4.8c-2.2,10.3-4.9,20.6-8.3,30.7C898.3,190.8,891.6,209.5,891,211.5z"/>
		<path class="st9" d="M835.9,303.4l-0.2-0.7c-2.7-10.4-4.3-21.1-4.9-31.8c-0.6-16.4-7.6-80.6-10.6-108l-0.8-8.2l0.7-0.2
			c22.5-4.3,41.2-7.4,55.4-9.3c15.3-1.9,27.3-3.5,36.7-4.8l1.1-0.2l-0.2,1.1c-2.2,10.3-5,20.7-8.3,30.7c-4,13.1-8.4,25.9-11,33.5
			c-1.1,3.1-1.9,5.4-2,5.9c-0.6,2.3,1.6,43.1,3.9,80.6l0.1,0.7L835.9,303.4z M821.1,155.9l0.7,6.8c2.9,27.4,10,91.6,10.6,108.1
			c0.5,10.3,2.2,20.7,4.7,30.8l57.1-10c-1.5-23.8-4.6-77.5-3.9-80.4l0,0c0.2-0.6,0.9-2.8,2-6c2.6-7.6,7-20.4,11-33.5
			c3.2-9.7,5.9-19.6,8-29.5c-9.2,1.2-20.9,2.8-35.7,4.6C861.6,148.6,843.2,151.7,821.1,155.9z"/>
	</g>
	<g>
		<path class="st12" d="M981.5,240l-1.1,1.2c-10.4,7.5-17.5,33.8-17.5,33.8L895.8,292l-0.8,0.2c-1.2-19.6-4.6-78.1-3.9-80.9
			c0.5-1.9,7.3-20.7,13.1-39.5c4.8,11.4,14,32.2,17.1,35.1C924.7,210.1,965.2,231.5,981.5,240z"/>
		<path class="st9" d="M894.2,293.2l-0.1-0.8c-0.5-8-4.7-77.8-3.9-81.1c0.2-0.7,1-3,2.2-6.6c2.6-7.6,7-20.2,10.9-33l0.6-2l0.8,1.9
			c6.6,15.7,14.4,32.4,16.9,34.8c3.6,3.2,46.9,26,60.1,33l0.8,0.5l-1.9,2.2c-10.1,7.2-17.1,33.1-17.1,33.4l-0.1,0.5L894.2,293.2z
			 M904.2,174.2c-3.9,12.1-7.9,23.9-10.3,31c-1.2,3.4-2,5.9-2.2,6.5c-0.5,2.3,2,48.7,3.9,79.7l66.7-16.8c1-3.6,7.6-26.6,17.5-33.7
			l0.4-0.5c-17.5-9.2-56.1-29.6-59.5-32.7C917.4,204.4,907.7,182.1,904.2,174.2z"/>
	</g>
	<g>
		<path class="st12" d="M1005.6,177.4c-0.3,0.4-0.5,0.6-0.5,0.6c-6.3,8.4-6.6,32.1-6.7,37.1c-0.2,4.2-13.1,20.2-16.9,24.9
			c-16.2-8.5-56.8-30-60.2-33.1c-3.1-2.9-12.3-23.7-17.1-35c3.3-10,6.1-20.3,8.3-30.7l0,0c11,1.4,31.7,13.1,38.5,15.8
			C956.1,159,988.6,171.1,1005.6,177.4z"/>
		<path class="st9" d="M981.7,241l-0.5-0.3c-17-8.9-56.8-30-60.4-33.2c-3.3-3.1-13.2-25.7-17.3-35.3l-0.1-0.2l0.1-0.3
			c3.3-10,6.1-20.3,8.3-30.6l0.2-0.7l0.7,0.1c8,1,20.8,7.3,30.1,11.8c3.6,1.8,6.6,3.2,8.6,4c4.9,1.9,36.1,13.5,52.9,19.7l2.7,1
			l-0.5,0.8c-0.3,0.5-0.5,0.7-0.5,0.7c-5.7,7.6-6.3,28.6-6.5,35.4v1.3c-0.2,4.2-10.8,17.7-17.1,25.3L981.7,241z M905,171.9
			c8.4,19.6,14.7,32.5,16.8,34.5c3.4,3.2,45.6,25.4,59.5,32.7c10-12.2,16.2-21.3,16.4-23.9v-1.2c0.2-7,0.8-28,6.6-36.1l-0.8-0.3
			c-17.9-6.6-48-17.8-52.9-19.7c-2-0.8-5.1-2.3-8.6-4c-9-4.4-21.1-10.3-28.9-11.5C910.9,152.2,908.2,162.2,905,171.9z"/>
	</g>
	<g>
		<path class="st12" d="M1016.6,141.7c-0.5,2.7-1.5,8.6-3.1,16.9c-1.3,6.8-4,13.2-8,18.8c-16.9-6.3-49.5-18.5-54.6-20.4
			c-6.9-2.7-27.5-14.4-38.5-15.8c22.9-3.2,24.2-3.9,27.6-5c1.5-0.5,6.2-7,11.8-15.7c5.3,2.7,15.8,7.8,21.1,9.4
			C978.9,131.9,1006.7,139.1,1016.6,141.7z"/>
		<path class="st9" d="M1005.9,178.3l-0.5-0.2c-17.1-6.3-49.7-18.5-54.6-20.4c-2-0.8-5.2-2.3-8.9-4.2c-9.2-4.5-21.7-10.6-29.4-11.6
			l-5.8-0.7l5.8-0.8c21.2-2.9,23.9-3.8,26.8-4.8l0.7-0.2c0.8-0.2,3.4-3.1,11.4-15.4l0.4-0.5l0.6,0.3c4.5,2.2,15.6,7.7,21,9.3
			c4,1.2,19.1,5.3,43.6,11.7l0.7,0.2l-0.2,0.7c-0.5,3-1.8,9.9-3.1,16.9c-1.3,7-4,13.4-8.1,19.2L1005.9,178.3z M917,141.4
			c7.7,2.1,17.8,7,25.5,10.8c3.6,1.8,6.8,3.3,8.8,4.1c4.9,1.9,36.8,13.8,54.1,20.2c3.7-5.5,6.3-11.5,7.5-18
			c1.2-6.5,2.4-12.9,2.9-16.2c-24.1-6.3-39-10.3-42.9-11.5c-5.3-1.6-15.8-6.7-20.6-9.2c-8.5,12.9-10.7,15.1-11.8,15.4l-0.7,0.2
			C936.9,138.2,934.4,139,917,141.4z"/>
	</g>
	<g>
		<path class="st12" d="M1052.1,58.6c-1.2,3.2-2.5,6.4-3.6,9.7c-2.6,7.9-12,13.6-20.7,32.3c-5.6,12.4-9.2,25.7-10.8,39.2
			c0,0-0.1,0.6-0.3,1.8c-10-2.5-37.8-9.8-43.6-11.7c-5.3-1.6-15.8-6.7-21.1-9.4c11.6-17.7,27.1-44.1,27.1-44.1S969,60.7,956,40
			c8.3,0.3,37.1,1.3,39.1,1.3c0.2,0,0.4,0.1,0.6,0.1c2.2,0.7,7.2,4.2,11,6.6c1.2,0.8,2.5,1.6,3.9,2.2c2.6,1,15-0.2,19.4,0
			c0.3,0,0.7,0,1,0C1033,50.5,1044.9,55.5,1052.1,58.6z"/>
		<path class="st9" d="M1017.2,142.7l-0.8-0.2c-24.6-6.4-39.6-10.4-43.7-11.7c-5.5-1.7-16.7-7.2-21.2-9.4l-0.8-0.4l0.5-0.7
			c10.7-16.3,24.8-40.3,26.8-43.7c-1.6-2.5-11-17.3-22.9-36.1l-0.8-1.2l1.5,0.1c13.7,0.5,37.4,1.3,39.1,1.3c0.3,0,0.6,0.1,0.8,0.2
			c1.7,0.5,5.2,2.8,8.5,4.9c0.9,0.6,1.9,1.2,2.7,1.8c1.2,0.8,2.5,1.5,3.9,2.2c1.5,0.6,7.4,0.3,12.1,0.1c2.8-0.2,5.4-0.2,7-0.2
			c0.3,0,0.6,0,1,0c1.7,0.2,8.7,2.9,21.5,8.5l0.7,0.3l-0.2,0.7c-0.5,1.2-0.8,2.3-1.3,3.6c-0.8,2-1.6,4.1-2.3,6.3
			c-1.2,3.6-3.6,6.6-6.7,10.5c-4,5.1-9.1,11.4-14,21.9c-5.5,12.4-9.1,25.5-10.8,39c0,0.1-0.1,0.6-0.3,1.8L1017.2,142.7z M953,120.3
			c4.9,2.5,15.1,7.4,20.2,9c4,1.2,18.8,5.2,42.8,11.4c0.1-0.6,0.2-0.9,0.2-0.9c1.6-13.6,5.3-26.9,10.9-39.4
			c5-10.7,10.1-17.1,14.2-22.2c3-3.8,5.4-6.8,6.5-10c0.7-2.2,1.5-4.2,2.3-6.3c0.4-0.9,0.7-1.9,1.1-2.8c-15-6.4-19.3-8-20.3-8
			c-0.2,0-0.5,0-0.8,0c-1.6-0.1-4.2,0.1-7,0.2c-6.4,0.3-11,0.5-12.7-0.2c-1.5-0.7-2.8-1.5-4.1-2.3c-0.8-0.5-1.8-1.2-2.7-1.7
			c-3.1-2-6.6-4.3-8.1-4.8c-0.2-0.1-0.2-0.1-0.4-0.1c-1.9,0-30.7-1-37.6-1.2c12.7,20.1,22.3,35.3,22.3,35.3l0.2,0.4l-0.2,0.4
			C979.5,77.1,964.4,102.7,953,120.3z"/>
	</g>
	<g>
		<path class="st12" d="M1054.3,28.7c-3-0.4-5.9-1-8.9-1.8c-1.8-0.3-11.4-0.2-15.8,0c0-7-0.5-18.3,1.2-23.6c0.5-1.5,0.8-2.9,0.9-4.4
			c0.4-4.2,0.4-8.3-0.1-12.5c3.6-2.1,9.1-5.9,11.7-7.7c3.6,9,6.3,18.3,7.9,27.8C1052.6,13.9,1053.6,21.3,1054.3,28.7z"/>
		<path class="st9" d="M1055.1,29.5l-0.9-0.2c-3-0.4-6-1-9-1.8c-1.5-0.2-10.2-0.2-15.7,0h-0.8v-0.8c0-1.2,0-2.4,0-3.8
			c-0.1-7-0.2-15.5,1.3-20.1c0.4-1.4,0.7-2.9,0.8-4.2c0.4-4.1,0.4-8.2-0.1-12.3l-0.1-0.5l0.5-0.2c3.6-2.1,9-5.8,11.7-7.6l0.8-0.5
			l0.4,0.9c3.6,9,6.3,18.4,7.9,28c1.4,7.3,2.5,14.7,3.2,22.2L1055.1,29.5z M1040,26c2.5,0,4.7,0.1,5.5,0.2c2.6,0.7,5.3,1.2,8,1.6
			c-0.7-7-1.7-14.1-3.1-21.1c-1.5-9.1-4.1-18.1-7.5-26.8c-2.7,1.9-7.3,4.9-10.5,6.9c0.5,4,0.5,8.1,0,12.1c-0.2,1.5-0.5,3.1-0.9,4.6
			c-1.4,4.2-1.3,12.7-1.2,19.5c0,1.1,0,2.1,0,3C1032.9,26.1,1036.8,26,1040,26z"/>
	</g>
	<g>
		<path class="st12" d="M1055.1,46.1c-0.2,4.3-1.2,8.5-2.9,12.5c-7.3-3.1-19.2-8.2-21.2-8.4c-0.3,0-0.7,0-1,0c0-3.6-0.2-8.5-0.9-9.7
			c-0.5-0.8-0.7-1.7-0.8-2.5c-0.3-2-0.1-4.4,0.8-5.3c0.5-0.5,0.5-2.6,0.5-5.6c4.5-0.1,14.1-0.2,15.8,0c2.9,0.8,5.9,1.4,8.9,1.8
			C1055,36.5,1055.1,42.3,1055.1,46.1z"/>
		<path class="st9" d="M1052.6,59.7l-2.9-1.2c-6.7-2.9-17-7.2-18.8-7.4c-0.2,0-0.5,0-0.8,0l-0.8,0.1v-0.8c0-7.5-0.6-9-0.8-9.3
			c-0.5-0.9-0.8-1.9-0.9-2.9c-0.3-2.1-0.2-4.8,1.1-6c0.2-0.3,0.3-2.1,0.3-5.1v-0.8h0.8c3.2-0.1,14.1-0.2,16,0c3,0.8,5.9,1.4,8.9,1.8
			l0.6,0.1l0.1,0.6c0.5,6.1,0.8,11.8,0.8,17.5v0.1c-0.2,4.4-1.2,8.6-3,12.7L1052.6,59.7z M1030.7,49.5c0.1,0,0.2,0,0.3,0
			c1.9,0.2,9.9,3.6,19.2,7.5l1.5,0.6c1.5-3.7,2.3-7.6,2.5-11.5c0-5.4-0.2-10.9-0.7-16.8c-2.9-0.4-5.6-1-8.4-1.7
			c-1.3-0.2-8.4-0.1-14.9,0c0,3.6-0.2,4.9-0.8,5.4c-0.7,0.7-0.9,2.7-0.6,4.7c0.1,0.8,0.4,1.6,0.8,2.3
			C1030,40.5,1030.7,41.7,1030.7,49.5z"/>
	</g>
	<g>
		<path class="st12" d="M913.1,137c-0.1,1.2-0.3,2.7-0.6,4.3l0,0c-8.7,1.2-20.5,2.8-36.7,4.8c-15.8,2-35.4,5.4-55.4,9.3
			c-0.3-2.5-0.5-4.4-0.6-5.5c-0.8-8.3-1.8-43.1-5.7-66.2l98.5-30.9C913.4,84.5,914.1,126.4,913.1,137z"/>
		<path class="st9" d="M819.7,156.2l-0.1-0.8c-0.3-2.5-0.5-4.4-0.6-5.5c-0.2-2.3-0.5-6.8-0.8-12.4c-0.8-14.7-2.1-37.1-4.9-53.7
			l-0.1-0.7l100.2-31.4v1c0.7,31.1,1.5,73.7,0.5,84.2c-0.1,1.2-0.3,2.5-0.6,4.4l-0.1,0.5l-0.5,0.1c-9.4,1.3-21.4,2.9-36.8,4.8
			c-14.6,1.9-33.2,4.9-55.3,9.2L819.7,156.2z M815,84.2c2.8,16.6,4,38.6,4.8,53.2c0.3,5.6,0.5,10,0.8,12.3c0.1,1,0.2,2.5,0.5,4.6
			c21.9-4.2,40.2-7.3,54.6-9.1c15.1-1.9,26.9-3.5,36.1-4.7c0.3-1.5,0.5-2.7,0.5-3.7l0,0c1-10.3,0.2-52-0.5-83.1L815,84.2z"/>
	</g>
	<g>
		<path class="st12" d="M912.6,52.8L814,83.7c-0.8-5.6-2.2-11.1-4.4-16.4c-7.9-16.4-27.7-56.1-27.7-60.2c0-0.3,0-0.6-0.1-0.8
			c9.3-1.2,12.5-3.4,14.7-5.9c2.6-3.1,6.3-9,11.4-9c5,0,10.9,8,14.8,8c2.7,0,10.3-0.5,14.8-0.8c1.8,2.3,3.9,4.2,6.4,5.6
			c16.1,7.7,14.4,5.8,20,1.7c5.6-4.1,11.6-9,20.5-3.3c9,5.6,7.9,5.9,9,4.6c1.2-1.4,4.2-4.6,8.8,1.3c4.1,5.3,6.6,16.8,9.7,17.6
			C912,32.9,912.3,42.3,912.6,52.8z"/>
		<path class="st9" d="M813.3,84.7l-0.2-0.9c-0.8-5.6-2.2-11-4.4-16.2c-1.8-3.7-4.2-8.6-6.8-14.1c-11.9-24.3-20.9-43.2-20.9-46.3
			c0-0.2,0-0.5-0.1-0.7l-0.2-0.8l0.8-0.1c9.7-1.2,12.4-3.6,14.2-5.6c0.4-0.5,0.8-1,1.2-1.5c2.5-3.2,6.1-7.6,10.7-7.6
			c2.9,0,5.9,2.3,8.7,4.6c2.2,1.7,4.5,3.5,6.1,3.5c2.6,0,10.4-0.5,14.8-0.8h0.4l0.2,0.3c1.7,2.2,3.8,4,6.2,5.4
			c13.4,6.4,13.9,6,17.2,3.3c0.5-0.5,1.2-1,2-1.5l0.6-0.5c5.5-4,11.7-8.6,20.8-2.9c2.9,1.9,4.8,3.1,6,3.9c0.8,0.5,1.3,0.9,1.6,1.1
			l0.1-0.1l0.2-0.2c0.5-0.6,1.9-2.5,4.2-2.4c1.9,0,3.8,1.2,5.7,3.7c1.9,2.5,3.6,6.3,4.9,9.7c1.4,3.4,3,7.3,4.2,7.6l0.5,0.2l0.2,5.5
			c0.2,6.1,0.4,13.6,0.6,21.7v0.5l-0.5,0.2L813.3,84.7z M782.7,6.9c0,0.1,0,0.2,0,0.2c0,3,12.5,28.6,20.8,45.6
			c2.6,5.5,5.1,10.4,6.9,14.1c2.1,5.1,3.6,10.3,4.3,15.7l97.1-30.4c-0.2-7.9-0.4-15.1-0.6-21.1l-0.2-4.5c-1.7-1-3.1-4.2-4.7-8.3
			c-1.4-3.3-2.9-7-4.7-9.3c-1.6-2-3.2-3.1-4.5-3.1c-1.1-0.1-2.1,0.6-3.1,1.8l-0.2,0.2c-1,1.2-1.6,0.8-3.8-0.7c-1.2-0.8-3-2.1-6-3.9
			c-8.2-5.2-13.7-1.1-19.1,2.9l-0.6,0.5c-0.8,0.5-1.4,1.1-1.9,1.5c-3.9,3.2-4.9,3.6-18.8-3.1c-2.5-1.5-4.6-3.3-6.4-5.5
			c-5.3,0.3-12,0.7-14.5,0.7c-2.1,0-4.5-1.9-7-3.8c-2.7-2.1-5.4-4.2-7.8-4.2c-3.9,0-7.1,4.1-9.4,7.1C798,0,797.5,0.5,797.1,1
			C794.7,3.7,791.3,5.7,782.7,6.9z"/>
	</g>
	<g>
		<path class="st12" d="M979,76.5c0,0-15.5,26.4-27.1,44.1c-5.6,8.6-10.3,15.1-11.8,15.7c-3.3,1.1-4.6,1.9-27.6,5l0,0
			c0.3-1.6,0.5-3.1,0.6-4.3c1-10.5,0.2-52.4-0.5-84.2c-0.2-10.5-0.5-19.9-0.7-26.6c0.4,0.1,0.8,0,1.2-0.2c3.6-2.2,7.9-6.7,14.4-4.4
			c5.6,2,10.4,1.8,15.5-2.4c4.5,7.2,8.9,14.3,13.1,20.9C969,60.7,979,76.5,979,76.5z"/>
		<path class="st9" d="M911.6,142.2l0.2-1.1c0.3-1.9,0.5-3.2,0.6-4.2c0.8-8.2,0.6-36.4-0.5-84.1c-0.2-10.5-0.5-19.9-0.7-26.6v-1
			l1,0.2c0.2,0.1,0.4,0,0.5-0.1c0.6-0.4,1.3-0.8,2-1.4c3.2-2.3,7.3-5.2,13-3.1c5.9,2.1,10.3,1.5,14.7-2.2l0.7-0.5l0.5,0.8
			c4.5,7.2,8.9,14.3,13.1,20.9c12.8,20.5,22.9,36.4,23,36.5l0.2,0.4l-0.2,0.4c-0.2,0.2-15.7,26.6-27.1,44.2
			c-8.8,13.5-11.1,15.6-12.2,16l-0.7,0.2c-3,1-5.6,1.9-27,4.8L911.6,142.2z M912.7,26.9c0.2,6.7,0.5,15.8,0.7,25.9
			c1.2,47.7,1.3,76.1,0.5,84.2c-0.1,0.9-0.2,2-0.5,3.3c20.3-2.8,22.9-3.7,25.7-4.6l0.7-0.2c0.5-0.2,2.7-2,11.4-15.4
			c10.7-16.3,24.8-40.3,26.8-43.7c-1.6-2.5-11-17.5-22.7-36.1c-4-6.3-8.3-13.1-12.6-20.1c-4.7,3.6-9.6,4.2-15.6,2
			c-4.9-1.8-8.4,0.7-11.6,2.9c-0.7,0.5-1.4,1-2.1,1.4C913.2,26.8,913,26.8,912.7,26.9z"/>
	</g>
	<g>
		<path class="st12" d="M942.9,19.1c-5.1,4.2-9.9,4.4-15.5,2.4c-6.4-2.3-10.7,2.2-14.4,4.4c-0.3,0.2-0.8,0.3-1.2,0.2
			c-3.1-0.8-5.6-12.4-9.7-17.6c-4.6-5.9-7.7-2.7-8.8-1.3s0,1.1-9-4.6s-14.9-0.8-20.5,3.3c-5.6,4.1-3.9,5.9-20-1.7
			c-2.5-1.4-4.6-3.3-6.4-5.6c-12.5-14.8-28.8-52-36-69.3l1.5-0.3l74.8-45.3l16.6,30.6l11.9,21.9c-8.1,0-8.6,3.3-8.6,7.7
			C897.8-53.8,921.2-15.6,942.9,19.1z"/>
		<path class="st9" d="M912.3,26.9c-0.2,0-0.3,0-0.5-0.1c-2.1-0.5-3.5-4.1-5.3-8.6c-1.4-3.3-2.9-7-4.7-9.3c-1.6-2.1-3.2-3.1-4.6-3.1
			l0,0c-1.1,0-2.1,0.6-3,1.8L894,7.8c-1,1.3-1.5,0.8-3.8-0.6c-1.2-0.8-3.1-2.1-6-3.9c-8.2-5.1-13.7-1.1-19.1,2.9l-0.6,0.5
			c-0.8,0.5-1.3,1.1-1.9,1.5c-3.9,3.2-4.9,3.6-18.9-3.1c-2.6-1.5-4.9-3.5-6.7-5.9c-12.7-15.1-29.5-53.7-36.1-69.6l-0.4-0.8l2.3-0.4
			l75.4-45.7l29.4,54.3h-1.3c-7.3,0-7.8,2.6-7.8,7c0.2,1.5,8.2,15.8,45,74.9l0.4,0.5l-0.5,0.5c-4.9,4-10,4.8-16.3,2.5
			c-4.9-1.8-8.5,0.7-11.6,2.9c-0.7,0.5-1.4,1-2.1,1.4C913,26.8,912.7,26.9,912.3,26.9z M897.1,4.4C897.1,4.4,897.1,4.4,897.1,4.4
			c1.9,0,3.9,1.2,5.8,3.7c1.9,2.5,3.6,6.3,4.9,9.7c1.4,3.4,3,7.3,4.3,7.6c0.2,0,0.4,0,0.5-0.1c0.6-0.4,1.3-0.8,2-1.3
			c3.3-2.3,7.3-5.2,13.1-3.2c5.6,2,10,1.5,14.3-1.9c-39.8-63.9-45-73.7-45-75.2c0-4.4,0.6-8,8.1-8.4l-27.4-50.6l-74.3,45l-0.8,0.2
			c6.8,16.4,23.2,53.7,35.5,68.3c1.7,2.2,3.8,4.1,6.2,5.4c13.4,6.4,13.9,5.9,17.2,3.2c0.5-0.5,1.2-1,1.9-1.5l0.6-0.5
			c5.5-4,11.7-8.6,20.8-2.9c3,1.9,4.9,3.2,6.1,4c0.7,0.5,1.3,0.9,1.6,1.1l0.1-0.1l0.2-0.2C894.1,5.1,895.6,4.4,897.1,4.4z"/>
	</g>
	<g>
		<path class="st12" d="M1004.9-24.4c-1.6,1.7-2.9,3.6-4.1,5.7c-0.8,1.5-2.2,17.4-3.3,32.8c-0.8,11-1.5,21.9-1.9,27.2
			c-0.2-0.1-0.4-0.1-0.6-0.1c-1.9,0-30.7-1-39.1-1.3c-4.1-6.6-8.6-13.6-13.1-20.9c-21.7-34.8-45.1-72.9-45.1-75.4
			c0-4.3,0.5-7.7,8.6-7.7h0.9c7.6,0.2,54.2,0,68.6,0c0.8,1.8,1.8,3.5,2.9,5C983.9-52.5,996.3-37,1004.9-24.4z"/>
		<path class="st9" d="M996.3,42.4l-0.9-0.3c-0.1-0.1-0.2-0.1-0.3-0.1c-2,0-33.1-1.1-39.1-1.3h-0.4l-0.2-0.3
			c-4.1-6.6-8.6-13.6-13.1-20.9C897-53,897-55.4,897-56.3c0-4.6,0.7-8.5,9.3-8.5h0.9c5.4,0.1,31.2,0.1,50,0c7.7,0,14.4,0,18.5,0h0.5
			l0.2,0.5c0.8,1.7,1.7,3.4,2.9,4.9c5.3,6.6,17.5,21.9,26.2,34.6l0.3,0.5l-0.4,0.5c-1.5,1.6-2.9,3.6-3.9,5.6
			c-0.2,0.4-1.1,4-3.2,32.5c-0.5,7.2-1,14.3-1.4,19.8c-0.2,3-0.4,5.6-0.5,7.4L996.3,42.4z M956.4,39.2c10,0.4,35.8,1.2,38.5,1.3
			c0.2-1.8,0.3-4,0.5-6.6c0.4-5.6,0.8-12.6,1.4-19.8c2.3-31,3.2-32.6,3.5-33.1c1.1-1.9,2.3-3.8,3.8-5.4c-8.6-12.5-20.5-27.5-25.7-34
			c-1.2-1.5-2.2-3.2-2.9-4.9c-4.2,0-10.7,0-18.1,0c-18.8,0-44.6,0.1-50,0h-0.9c-7.3,0-7.8,2.6-7.8,7c0.2,1.3,6.3,12.8,45,75
			C947.9,25.8,952.3,32.7,956.4,39.2z"/>
	</g>
	<g>
		<path class="st12" d="M1011-14.8L1011-14.8c-0.2,0.5-0.3,1-0.4,1.5c-0.4,2.5-0.8,7.9-1.3,14.4c-0.3,3.9-0.5,8-0.8,12.4l-11,0.5
			c1.2-15.4,2.5-31.2,3.3-32.8c1.1-2.1,2.5-4,4.1-5.7C1007.4-20.9,1009.4-17.6,1011-14.8z"/>
		<path class="st9" d="M996.7,14.9l0.1-0.8c2.3-31,3.2-32.6,3.4-33.1c1.2-2.2,2.5-4.1,4.2-5.9l0.6-0.7l0.5,0.8
			c2.2,3.2,4.2,6.4,6.1,9.7l0.2,0.3l-0.2,0.3c-0.2,0.5-0.3,0.8-0.3,1.3c-0.3,2.3-0.8,6.9-1.3,14.4c-0.3,3.9-0.5,8-0.8,12.4l-0.1,0.7
			L996.7,14.9z M1004.9-23.1c-1.3,1.5-2.4,3.1-3.3,4.8c-0.3,0.5-1.2,4.7-3.2,31.7l9.4-0.5c0.2-4.1,0.5-8.1,0.8-11.7
			c0.5-7.6,1-12.2,1.3-14.5c0.1-0.5,0.2-0.9,0.3-1.3C1008.6-17.6,1006.8-20.4,1004.9-23.1z"/>
	</g>
	<g>
		<path class="st12" d="M1031.7-1.1c-1.9,0.4-4.6,1.1-6.5,1.7c-2.4,0.8-12,0.8-15.8,0.7c0.5-6.6,0.9-11.9,1.3-14.4l1-0.5
			c3.5-1.7,9.3-4.5,10.7-5.1c2-0.8,0.4,5.2,0,7.3c-0.4,2.1,3.4,0.5,6.6-0.8c0.8-0.4,1.7-0.8,2.5-1.4C1032-9.5,1032.1-5.3,1031.7-1.1
			z"/>
		<path class="st9" d="M1013,2c-1.7,0-3,0-3.6,0h-0.8l0.1-0.8c0.5-7.6,1-12.2,1.3-14.5l0.1-0.4l1.4-0.6c6.2-3,9.7-4.6,10.8-5.1
			c0.7-0.3,1.2,0,1.5,0.2c1,0.8,0.6,3.2-0.1,6.6c-0.2,0.5-0.2,1.1-0.3,1.4c0,0.2,0,0.2,0,0.2c0.5,0.2,3.6-1,5.3-1.7l0.4-0.2
			c0.8-0.4,1.6-0.8,2.4-1.3l1-0.7l0.2,1.2c0.5,4.2,0.5,8.4,0.1,12.7l-0.1,0.5l-0.5,0.2c-1.9,0.4-4.6,1-6.4,1.6
			C1023.4,1.9,1017.2,2,1013,2z M1010.2,0.5c4.9,0.1,12.7,0,14.7-0.7c1.8-0.5,4.2-1.2,6-1.5c0.3-3.6,0.3-7,0-10.6
			c-0.5,0.3-1.1,0.5-1.6,0.8l-0.4,0.2c-3.5,1.4-5.7,2.2-6.8,1.4c-0.3-0.2-0.6-0.7-0.5-1.5c0.1-0.4,0.2-0.9,0.3-1.5
			c0.2-1.2,0.8-4,0.6-4.9c-1.3,0.5-4.9,2.2-10.7,5l-0.6,0.3C1011-10.4,1010.7-6.2,1010.2,0.5z"/>
	</g>
	<g>
		<path class="st12" d="M1029.9,50.2c-4.5-0.1-16.8,1.1-19.4,0c-1.3-0.6-2.6-1.4-3.9-2.2c0.2-2.5,0.3-6,0.5-10.1h21
			c0.1,0.9,0.4,1.8,0.8,2.5C1029.7,41.7,1029.9,46.6,1029.9,50.2z"/>
		<path class="st9" d="M1015.3,51.5c-2.4,0-4.2-0.2-5.1-0.5c-1.4-0.7-2.8-1.5-4-2.3l-0.3-0.2v-0.5c0.2-2.5,0.3-6.1,0.5-10.1l0.1-0.7
			h22.4l0.1,0.7c0.1,0.8,0.4,1.6,0.8,2.3c0.2,0.4,1,1.6,1,10.1V51h-0.8c-1.5,0-3.9,0.1-6.5,0.2C1020.2,51.3,1017.4,51.5,1015.3,51.5
			z M1007.4,47.6c1.1,0.7,2.2,1.4,3.4,1.9c1.5,0.6,7.9,0.3,12.5,0.2c2.2-0.1,4.2-0.2,5.8-0.2c-0.1-6.9-0.6-8.3-0.8-8.6
			c-0.4-0.7-0.7-1.5-0.8-2.2h-19.6C1007.6,42.2,1007.5,45.2,1007.4,47.6z"/>
	</g>
	<g>
		<path class="st12" d="M1008.6,13.6c-0.5,8.3-1,17.1-1.4,24.2c-0.2,4-0.4,7.6-0.5,10.1c-3.8-2.4-8.9-5.9-11-6.6
			c0.3-5.3,1.1-16.1,1.9-27.2L1008.6,13.6z"/>
		<path class="st9" d="M1007.3,49.4l-1.1-0.7c-0.8-0.5-1.8-1.2-2.7-1.8c-3.1-2-6.6-4.3-8.1-4.8l-0.5-0.2v-0.6
			c0.3-5,1.1-15.7,1.9-27.2l0.1-0.7l12.6-0.5l-0.1,0.8c-0.5,6.8-0.8,14.7-1.4,24.2c-0.2,4-0.4,7.6-0.5,10.1L1007.3,49.4z
			 M996.4,40.8c1.9,0.8,4.9,2.8,8,4.8c0.5,0.3,1.1,0.7,1.5,1c0.2-2.4,0.3-5.4,0.5-8.8c0.5-9.1,0.9-16.8,1.3-23.4l-9.5,0.5
			C997.4,25.8,996.8,35.7,996.4,40.8z"/>
	</g>
	<g>
		<path class="st12" d="M1030.7,3.3c-1.7,5.3-1.2,16.7-1.2,23.6c0,3.1-0.1,5.3-0.5,5.6c-0.9,0.9-1.2,3.3-0.8,5.3h-21
			c0.4-7.1,0.8-15.9,1.4-24.2c0.2-4.4,0.5-8.6,0.8-12.4c3.8,0,13.4,0.1,15.8-0.7c1.9-0.6,4.6-1.2,6.5-1.7
			C1031.5,0.3,1031.2,1.9,1030.7,3.3z"/>
		<path class="st9" d="M1029,38.6h-22.7l0.1-0.8c0.5-9.5,1-17.5,1.4-24.2c0.2-4.4,0.5-8.6,0.8-12.4l0.1-0.7h1.8c4,0,12.4,0,14.4-0.6
			c1.8-0.6,4.3-1.2,6.6-1.7l1.1-0.2l-0.1,1.1c-0.2,1.5-0.5,3.1-0.9,4.6l0,0c-1.3,4.2-1.2,12.4-1.2,19.1c0,1.5,0,2.9,0,4.2
			c0,4.6-0.2,5.7-0.8,6.2c-0.7,0.7-0.9,2.7-0.6,4.7L1029,38.6z M1007.9,37.1h19.3c-0.2-1.9,0.2-4.1,1.2-5.1c0.2-0.2,0.3-1.3,0.3-5.1
			c0-1.3,0-2.7,0-4.2c-0.1-6.8-0.2-15.2,1.3-19.6c0.3-1.1,0.5-2.1,0.8-3.2c-1.9,0.5-3.9,0.9-5.3,1.4c-2.2,0.7-8.8,0.7-15,0.8h-0.4
			c-0.2,3.6-0.5,7.6-0.8,11.7C1008.9,20.3,1008.4,28,1007.9,37.1z"/>
	</g>
</g>
</svg>
