<?xml version="1.0" encoding="utf-8"?>
<!-- Generator: Adobe Illustrator 26.0.0, SVG Export Plug-In . SVG Version: 6.00 Build 0)  -->
<svg version="1.1" id="Layer_1" xmlns="http://www.w3.org/2000/svg" xmlns:xlink="http://www.w3.org/1999/xlink" x="0px" y="0px"
	 viewBox="0 0 1116 360" style="enable-background:new 0 0 1116 360;" xml:space="preserve">
<style type="text/css">
	.st0{fill:#ED2F38;}
	.st1{opacity:0.24;}
	.st2{opacity:0.19;fill:#FFFFFF;enable-background:new    ;}
	.st3{font-family:'Poppins-ExtraBold';}
	.st4{font-size:65.16px;}
	.st5{font-size:71.62px;}
	.st6{fill:#FFFFFF;}
	.st7{fill:#46506D;stroke:#1B1E2A;stroke-miterlimit:10;}
	.st8{fill:#1B1E2A;stroke:#1B1E2A;stroke-miterlimit:10;}
	.st9{fill:#1B1E2A;}
	.st10{font-family:'Poppins-Regular';}
	.st11{font-size:69.773px;}
	.st12{fill:#46506D;}
</style>
<rect class="st0" width="1116" height="360"/>
<g>
	<g class="st1">
		<text transform="matrix(1 0 0 1 -142.7365 114.885)" class="st2 st3 st4">DUMAGUETE</text>
		<text transform="matrix(1 0 0 1 286.0935 114.885)" class="st2 st3 st4">DUMAGUETE</text>
	</g>
	<g class="st1">
		<text transform="matrix(1 0 0 1 -396.9865 175.7251)" class="st2 st3 st4">DUMAGUETE</text>
		<text transform="matrix(1 0 0 1 31.8435 175.7251)" class="st2 st3 st4">DUMAGUETE</text>
	</g>
	<g class="st1">
		<text transform="matrix(1 0 0 1 -103.3565 233.265)" class="st2 st3 st4">DUMAGUETE</text>
		<text transform="matrix(1 0 0 1 325.4735 233.265)" class="st2 st3 st4">DUMAGUETE</text>
	</g>
	<g class="st1">
		<text transform="matrix(1 0 0 1 -400.2065 294.2451)" class="st2 st3 st4">DUMAGUETE</text>
		<text transform="matrix(1 0 0 1 28.6235 294.2451)" class="st2 st3 st4">DUMAGUETE</text>
	</g>
	<g class="st1">
		<text transform="matrix(1 0 0 1 -210.7565 354.3751)" class="st2 st3 st4">DUMAGUETE</text>
		<text transform="matrix(1 0 0 1 218.0735 354.3751)" class="st2 st3 st4">DUMAGUETE</text>
	</g>
	<g class="st1">
		<text transform="matrix(1 0 0 1 -51.6165 58.1951)" class="st2 st3 st5">DUMAGUETE</text>
	</g>
	<g class="st1">
		<text transform="matrix(1 0 0 1 714.3794 114.885)" class="st2 st3 st4">DUMAGUETE</text>
	</g>
	<g class="st1">
		<text transform="matrix(1 0 0 1 460.1295 175.725)" class="st2 st3 st4">DUMAGUETE</text>
		<text transform="matrix(1 0 0 1 888.9595 175.725)" class="st2 st3 st4">DUMAGUETE</text>
	</g>
	<g class="st1">
		<text transform="matrix(1 0 0 1 753.7595 233.265)" class="st2 st3 st4">DUMAGUETE</text>
	</g>
	<g class="st1">
		<text transform="matrix(1 0 0 1 456.9094 294.245)" class="st2 st3 st4">DUMAGUETE</text>
		<text transform="matrix(1 0 0 1 885.7395 294.245)" class="st2 st3 st4">DUMAGUETE</text>
	</g>
	<g class="st1">
		<text transform="matrix(1 0 0 1 646.3594 354.375)" class="st2 st3 st4">DUMAGUETE</text>
		<text transform="matrix(1 0 0 1 1075.1895 354.375)" class="st2 st3 st4">DUMAGUETE</text>
	</g>
	<g class="st1">
		<text transform="matrix(1 0 0 1 413.89 58.1955)" class="st2 st3 st5">DUMAGUETE</text>
	</g>
	<g class="st1">
		<text transform="matrix(1 0 0 1 876.7581 58.6968)" class="st2 st3 st5">DUMAGUETE</text>
	</g>
</g>
<g>
	<text transform="matrix(1 0 0 1 184.1554 213.1137)" class="st9 st10 st11">BALUGO</text>
	<g>
		<g>
			<path class="st6" d="M171.9,154.9L171.9,154.9L171.9,154.9c0.1-0.4,0.2-0.8,0.4-1.1c0.7-1.2,1-2.6,0.7-4l-0.1-0.7
				c-0.1-0.3-0.1-0.6-0.2-1l0,0c-0.4-2.1-0.7-3.8-1.3-5.2c-0.9-2.5-1.7-5-2.3-7.5c-0.3-1.4-0.5-4.3-0.5-4.3
				c-0.1-0.8-0.7-1.4-1.5-1.3c-0.5,0-0.9,0.3-1.2,0.7c-0.7,1.1-1.7,2.3-2.1,2.5c-0.6,0.2-2.8,0.3-4,0.3c-1.6,0.1-2.2,0.1-2.6,0.3
				c-0.4,0.1-0.8,0.1-1.3,0c-0.8-0.2-5.9-0.6-7.7,0.1c-0.6,0.2-1,0.4-1.4,0.6l0,0l-0.4,0.2c-0.2,0.1-0.5,0.3-0.7,0.4
				c-2.5,0.3-5.1,0.5-7.7,0.6l0,0h-0.7c-4.3,0.1-6.9-0.4-7.2-0.6c-0.1,0-0.1-0.1-0.2-0.1c-0.9-0.4-3.3-1.5-6.2-1l0,0h-0.1l0,0h-0.2
				c-3.1,0.7-4.8,1.5-5.2,1.7c-0.6,0.2-5.1,1.7-7,2.3c-0.5-0.8-1.2-2.2-1.6-3.1c-1.4-2.8-1.7-3.2-2.1-3.5c-0.5-0.3-3.7-1.5-4.6-1.8
				c-4.6-1.6-4.8-1.5-5.4-1.1c-0.4,0.2-0.5,0.4-1.7,2.4c-1,1.7-3.7,6.2-4.6,6.8c-0.5,0.2-2.9,1.1-5.5,2.1c-3.3,1.3-7.5,2.9-10.9,4.2
				c-1.9,0.7-3.2,1.3-4.2,1.7c-0.6,0.2-1,0.4-1.3,0.5c-0.4,0.2-1.5,0.7-1.2,1.8c0.1,0.5,0.2,0.6,1.8,2.4c1.7,1.9,4.8,5.3,5.8,7.2
				c0.5,0.9,1.5,3.2,2.8,6.4l0,0c1,2.5,2.2,5.5,3.2,8.2l0,0c0.9,2.3,1.5,4.2,1.9,5.3c0.7,2.1,3.1,9.8,7,22.2l0,0l1.7,5.5l2,7.1l0,0
				l8.4,29.4c0.2,0.6,0.7,1,1.4,1c0.1,0,0.1,0,0.2,0l17.5-2.1h0.1h0.1l0,0l12.7-2.2l0,0h0.2h0.1l14.6-3.7c0.5-0.1,0.9-0.5,1-1
				c0.5-2,1.9-5.6,3.2-6.6c0.1-0.1,0.2-0.2,0.3-0.2c0,0,0.1-0.1,0.2-0.3l0,0c4-4.8,4-5.8,4-6.3v-0.3c0.1-4.9,0.8-6.5,1.1-7l0.1-0.2
				l0,0c1-1.4,1.7-3,2-4.7c0.4-1.9,0.6-3.2,0.7-3.7l0,0l0,0l0.1-0.4v-0.1c0.3-2.8,1.1-5.5,2.2-8.1c0.8-1.6,1.7-3.1,2.9-4.5
				c0.7-0.9,1.4-1.7,1.7-2.7c0.1-0.4,0.3-0.9,0.5-1.3c0.1-0.3,0.2-0.5,0.3-0.8l0,0c0.4-1,0.7-2.1,0.7-3.2c0-0.9,0-2.2-0.2-3.9l0,0
				c-0.2-1.7-0.4-3.3-0.7-5c-0.4-2.2-0.9-4.3-1.7-6.3l0,0l0,0c-0.1-0.3-0.2-0.5-0.3-0.8c-0.1-0.2-0.2-0.4-0.2-0.7
				c0,0,0.1-0.1,0.5-0.4c1.4-0.8,3.2-2.4,4.1-4.4l0,0c0.2-0.5,0.3-0.9,0.4-1.4c0.2-1.2,0.1-2.4-0.3-3.5
				C171.9,155.8,171.8,155.4,171.9,154.9z"/>
		</g>
		<g>
			<path class="st12" d="M121.8,172.7c-1,0.1-2.7,0.2-3.2,0.2c-0.9,0-2.1-1.7-3.2-1.7s-1.9,1.3-2.5,2c-0.5,0.5-1.2,1-3.2,1.3
				c-0.4,0.1-0.9,0.1-1.5,0.1c-3.2,0.2-4.3-1.3-6.2-1.6c-1.8-0.4-1.9,0.3-3.2,0.6c-1.2,0.3-2.1-1.4-5.4-3.1c-3.3-1.6-3-0.5-4.4-0.2
				c-1.5,0.4-3.8-1.8-4.1-1.7c-0.2,0.1-1.2,1.7-2,3c-1-2.6-2.1-5.6-3.2-8.2c2-0.3,6.4-0.9,14.2-2.2c9.9-1.6,18.3-3.1,20.1-3.4
				C115.5,161.4,119,169.5,121.8,172.7z"/>
			<path class="st9" d="M107.6,174.7c-1.8,0-2.9-0.5-3.8-1c-0.6-0.3-1.1-0.5-1.8-0.7c-1.2-0.2-1.6,0-2.1,0.2c-0.3,0.1-0.6,0.3-1,0.4
				c-0.7,0.2-1.3-0.3-2.3-1c-0.7-0.6-1.8-1.3-3.3-2.1c-2.4-1.2-2.8-0.9-3.4-0.6c-0.2,0.1-0.5,0.3-0.9,0.4c-1.1,0.3-2.5-0.7-3.4-1.3
				c-0.3-0.2-0.6-0.4-0.7-0.4c-0.1,0.1-0.5,0.6-1.9,2.9l-0.2,0.3l-0.1-0.3c-1-2.7-2.2-5.7-3.2-8.2l-0.1-0.2h0.2
				c2-0.3,6.4-0.9,14.2-2.2c10.4-1.7,19.1-3.2,20.1-3.4h0.1l0.1,0.1c1.4,3.4,5.1,11.8,7.8,15.1l0.2,0.3h-0.3
				c-1.1,0.1-2.7,0.2-3.2,0.2s-1-0.4-1.5-0.8c-0.6-0.5-1.2-0.9-1.7-0.9c-0.8,0-1.5,0.9-2,1.5c-0.1,0.1-0.2,0.3-0.3,0.4
				c-0.5,0.6-1.3,1.1-3.3,1.3c-0.4,0.1-0.9,0.1-1.5,0.1C108,174.7,107.8,174.7,107.6,174.7z M101,172.6c0.3,0,0.6,0,1,0.1
				c0.7,0.1,1.2,0.4,1.8,0.7c1,0.5,2.2,1.1,4.3,0.9c0.6,0,1.1-0.1,1.5-0.1c2.1-0.3,2.7-0.8,3.1-1.2c0.1-0.1,0.2-0.2,0.3-0.4
				c0.6-0.7,1.3-1.6,2.3-1.6c0.6,0,1.3,0.5,1.9,1c0.5,0.4,1,0.8,1.3,0.8c0.5,0,2.1-0.1,2.9-0.1c-2.7-3.4-6.2-11.3-7.6-14.8
				c-1.5,0.3-9.9,1.7-20,3.4c-7.6,1.2-12,1.9-14,2.2c1,2.4,2.1,5.2,3,7.7c1.6-2.7,1.8-2.7,1.9-2.8c0.2,0,0.4,0.1,1,0.5
				c0.8,0.6,2.2,1.5,3.1,1.3c0.4-0.1,0.6-0.2,0.8-0.4c0.8-0.4,1.3-0.6,3.7,0.6c1.6,0.8,2.6,1.5,3.4,2.1c0.9,0.7,1.4,1.1,2,0.9
				c0.4-0.1,0.7-0.2,0.9-0.3C100.1,172.7,100.4,172.6,101,172.6z"/>
		</g>
		<g>
			<path class="st12" d="M130.6,147.7l-16.3,9.9l-0.3,0.1c-1.8,0.3-10.2,1.8-20.1,3.4c-7.8,1.3-12.3,1.9-14.2,2.2
				c-1.2-2.9-2.3-5.5-2.9-6.6c-1.6-2.9-7.4-8.8-7.5-9.1s20.7-8.1,22.3-8.8s6.1-9.1,6.5-9.3c0.3-0.2,8.1,2.6,8.6,2.9
				c0.5,0.3,3.5,7.1,4,7.1s7.8-2.4,8.2-2.6c0.4-0.2,1.9-0.9,4.9-1.6c0.1,0,0.1,0,0.2,0L130.6,147.7z"/>
			<path class="st9" d="M79.5,163.4v-0.1c-0.9-2.3-2.2-5.3-2.9-6.5c-1.1-1.9-4.1-5.3-6-7.4c-1.3-1.5-1.5-1.7-1.5-1.8
				c0-0.2-0.1-0.3,16.8-6.8c2.9-1.1,5.1-2,5.6-2.2c1.1-0.5,3.7-4.9,5.2-7.3c0.9-1.5,1.1-1.9,1.3-2c0.5-0.3,8.7,2.9,8.7,2.9
				c0.2,0.1,0.7,1,1.7,3c0.8,1.6,2,3.9,2.3,4.1c0.5,0,7.7-2.4,8.1-2.6c0.2-0.1,1.8-0.9,4.9-1.6c0.1,0,0.2,0,0.2,0h0.1l6.8,12.6
				l-16.5,10l-0.3,0.1c-0.4,0.1-9.3,1.6-20.1,3.4c-7.8,1.3-12.3,1.9-14.2,2.2L79.5,163.4z M69.5,147.6c0.2,0.2,0.8,0.9,1.4,1.6
				c1.8,2,4.9,5.5,6,7.4c0.7,1.2,1.9,4.2,2.8,6.5c2-0.3,6.4-0.9,14.1-2.2c10.8-1.8,19.7-3.3,20.1-3.4l0.3-0.1l16.1-9.8l-6.5-12.1
				h-0.1c-3.1,0.7-4.7,1.5-4.9,1.5c-0.3,0.2-7.7,2.6-8.3,2.6c-0.4,0-0.9-1-2.5-4.2c-0.7-1.3-1.4-2.7-1.6-2.9
				c-0.5-0.3-7.7-2.9-8.4-2.9c-0.1,0.1-0.6,1-1.1,1.8c-2.1,3.5-4.2,7-5.3,7.4c-0.5,0.2-2.7,1.1-5.6,2.2
				C80.2,143.3,70.6,147,69.5,147.6z"/>
		</g>
		<g>
			<path class="st9" d="M116.6,191.2L91.7,199c-2.2-7.2-6-19.3-7-22.2c-0.4-1.2-1.1-3.2-2-5.4c0.8-1.3,1.8-2.9,2-3
				c0.3-0.1,2.6,2.1,4.1,1.7s1.1-1.4,4.4,0.2c3.3,1.6,4.2,3.3,5.4,3.1c1.2-0.3,1.3-0.9,3.2-0.6c1.8,0.4,2.9,1.8,6.2,1.6
				c0.6,0,1.1-0.1,1.5-0.1c0,0.1,0,0.1,0,0.2c0,0.9,4.3,9.5,6,13.1C116.2,188.8,116.5,190,116.6,191.2z"/>
			<path class="st9" d="M91.6,199.2V199c-1.4-4.4-5.9-19-7-22.2c-0.4-1.2-1.1-3.2-2-5.4v-0.1v-0.1c1.8-3,2-3,2.1-3.1
				c0.2,0,0.4,0.1,1,0.5c0.8,0.5,2.2,1.5,3.1,1.2c0.4-0.1,0.6-0.2,0.8-0.4c0.8-0.4,1.3-0.6,3.7,0.6c1.6,0.8,2.6,1.5,3.4,2.1
				c0.9,0.7,1.4,1.1,2,0.9c0.4-0.1,0.7-0.2,0.9-0.3c0.6-0.3,1-0.5,2.3-0.2c0.7,0.1,1.2,0.4,1.8,0.7c1,0.5,2.2,1.1,4.3,0.9
				c0.6,0,1.1-0.1,1.5-0.1h0.1v0.1c0,0.1,0,0.2,0,0.2c0,0.7,2.8,6.5,4.7,10.4c0.5,1,0.9,1.9,1.3,2.6c0.5,1.2,0.8,2.4,1,3.6v0.1h-0.1
				L91.6,199.2z M83,171.4c0.8,2.2,1.5,4.1,1.9,5.3c1.1,3.2,5.5,17.5,6.9,22.1l24.6-7.7c-0.2-1.2-0.5-2.3-0.9-3.4
				c-0.3-0.7-0.8-1.6-1.3-2.6c-2.6-5.3-4.8-9.8-4.8-10.5l0,0c-0.4,0-0.8,0.1-1.3,0.1c-2.1,0.1-3.4-0.5-4.4-1
				c-0.6-0.3-1.1-0.5-1.8-0.7c-1.2-0.2-1.6,0-2.1,0.2c-0.3,0.1-0.6,0.3-1,0.4c-0.7,0.2-1.3-0.3-2.3-1c-0.7-0.6-1.8-1.3-3.3-2.1
				c-2.4-1.2-2.8-0.9-3.4-0.6c-0.2,0.1-0.5,0.3-0.9,0.4c-1.1,0.3-2.5-0.7-3.4-1.3c-0.3-0.2-0.6-0.4-0.7-0.4
				C84.8,168.7,84.4,169.2,83,171.4z"/>
		</g>
		<g>
			<path class="st12" d="M118,206.8c-8.8,1.7-18.2,3.8-22.5,4.8l-2-7.1c0,0-0.7-2.3-1.7-5.5l24.9-7.8c0.9,5,1.1,12.6,1.2,14.4
				C117.9,205.8,117.9,206.3,118,206.8z"/>
			<path class="st9" d="M95.4,211.8l-2.1-7.2l0,0c0,0-0.7-2.3-1.7-5.5v-0.2l25.2-7.9v0.2c0.6,3.6,0.9,8.5,1.1,11.7
				c0.1,1.2,0.1,2.2,0.2,2.7c0,0.2,0.1,0.6,0.1,1.2v0.2H118C108.9,208.8,99.2,211,95.4,211.8L95.4,211.8z M91.9,199.1
				c1,3.2,1.7,5.4,1.7,5.4l2,6.9c3.8-0.9,13.2-3,22.2-4.8c-0.1-0.5-0.1-0.8-0.1-1c-0.1-0.5-0.1-1.5-0.2-2.7c-0.2-3.2-0.4-7.9-1-11.5
				L91.9,199.1z"/>
		</g>
		<g>
			<path class="st12" d="M121.5,238.9L121.5,238.9l-17.6,2.1l-8.4-29.4c4.3-1,13.7-3.1,22.5-4.8c0.5,4.9,2.3,21.2,2.5,25.2
				C120.6,234.3,121,236.6,121.5,238.9z"/>
			<path class="st9" d="M103.8,241.2l-8.5-29.7h0.2c2.9-0.7,12.9-3,22.5-4.8h0.2l0.2,1.8c0.6,6,2.2,20,2.3,23.6
				c0.1,2.3,0.5,4.6,1.1,6.9v0.2l-0.3,0.1L103.8,241.2z M95.7,211.7l8.4,29.1l17.3-2.1c-0.6-2.2-0.9-4.5-1-6.7
				c-0.1-3.6-1.7-17.6-2.3-23.5l-0.2-1.4C108.5,208.8,98.7,211,95.7,211.7z"/>
		</g>
		<g>
			<path class="st12" d="M133.4,219c-0.2,0.6,0.6,13.3,0.9,17.6l-12.7,2.2c-0.6-2.3-0.9-4.6-1.1-6.9c-0.2-4-1.9-20.2-2.5-25.2
				c4.4-0.8,8.6-1.6,12.1-2s6.1-0.8,8-1c-0.5,2.3-1.1,4.5-1.8,6.7C135,214.5,133.5,218.6,133.4,219z"/>
			<path class="st9" d="M121.4,239v-0.1c-0.6-2.3-0.9-4.6-1.1-6.9c-0.1-3.6-1.7-17.6-2.3-23.5l-0.2-1.8h0.2c4.9-0.9,9-1.6,12.1-2
				c3.3-0.4,6-0.8,8-1h0.2v0.2c-0.5,2.3-1.1,4.5-1.8,6.7c-0.9,2.8-1.8,5.6-2.4,7.3c-0.2,0.7-0.4,1.2-0.4,1.3
				c-0.1,0.5,0.4,9.4,0.9,17.5v0.1L121.4,239z M118.2,206.9l0.2,1.5c0.6,6,2.2,19.9,2.3,23.5c0.1,2.3,0.5,4.5,1,6.7l12.4-2.2
				c-0.3-5.2-1-16.9-0.8-17.5l0,0c0-0.1,0.2-0.6,0.4-1.3c0.6-1.7,1.5-4.4,2.4-7.3c0.7-2.1,1.3-4.3,1.7-6.4c-2,0.3-4.6,0.6-7.8,1
				C127,205.3,123,206,118.2,206.9z"/>
		</g>
		<g>
			<path class="st12" d="M153.1,225.3l-0.2,0.3c-2.3,1.6-3.8,7.4-3.8,7.4l-14.6,3.7h-0.2c-0.3-4.3-1-17-0.9-17.6
				c0.1-0.4,1.6-4.5,2.9-8.6c1,2.5,3.1,7,3.7,7.6C140.7,218.7,149.6,223.4,153.1,225.3z"/>
			<path class="st9" d="M134.1,236.8v-0.2c-0.1-1.7-1-16.9-0.8-17.7c0-0.1,0.2-0.7,0.5-1.4c0.6-1.6,1.5-4.4,2.4-7.2l0.1-0.4l0.2,0.4
				c1.4,3.4,3.1,7.1,3.7,7.6c0.8,0.7,10.2,5.7,13.1,7.2l0.2,0.1l-0.4,0.5c-2.2,1.6-3.7,7.2-3.7,7.3v0.1L134.1,236.8z M136.3,210.9
				c-0.8,2.6-1.7,5.2-2.2,6.8c-0.3,0.7-0.4,1.3-0.5,1.4c-0.1,0.5,0.4,10.6,0.8,17.4l14.5-3.7c0.2-0.8,1.7-5.8,3.8-7.4l0.1-0.1
				c-3.8-2-12.2-6.4-13-7.1C139.1,217.5,137,212.6,136.3,210.9z"/>
		</g>
		<g>
			<path class="st12" d="M158.4,211.6c-0.1,0.1-0.1,0.1-0.1,0.1c-1.4,1.8-1.4,7-1.5,8.1c0,0.9-2.9,4.4-3.7,5.4
				c-3.5-1.9-12.4-6.5-13.1-7.2c-0.7-0.6-2.7-5.2-3.7-7.6c0.7-2.2,1.3-4.4,1.8-6.7l0,0c2.4,0.3,6.9,2.8,8.4,3.4
				C147.6,207.6,154.7,210.2,158.4,211.6z"/>
			<path class="st9" d="M153.2,225.5l-0.1-0.1c-3.7-1.9-12.4-6.5-13.1-7.2c-0.7-0.7-2.9-5.6-3.8-7.7v-0.1v-0.1
				c0.7-2.2,1.3-4.4,1.8-6.7v-0.2h0.2c1.7,0.2,4.5,1.6,6.6,2.6c0.8,0.4,1.4,0.7,1.9,0.9c1.1,0.4,7.9,2.9,11.5,4.3l0.6,0.2l-0.1,0.2
				c-0.1,0.1-0.1,0.1-0.1,0.1c-1.2,1.7-1.4,6.2-1.4,7.7v0.3c0,0.9-2.3,3.8-3.7,5.5L153.2,225.5z M136.5,210.4
				c1.8,4.3,3.2,7.1,3.7,7.5c0.7,0.7,9.9,5.5,13,7.1c2.2-2.6,3.5-4.6,3.6-5.2v-0.3c0-1.5,0.2-6.1,1.5-7.9l-0.2-0.1
				c-3.9-1.5-10.4-3.9-11.5-4.3c-0.4-0.2-1.1-0.5-1.9-0.9c-1.9-1-4.6-2.2-6.3-2.5C137.7,206.1,137.1,208.3,136.5,210.4z"/>
		</g>
		<g>
			<path class="st12" d="M160.8,203.8c-0.1,0.6-0.3,1.9-0.7,3.7c-0.3,1.5-0.9,2.9-1.7,4.1c-3.7-1.4-10.8-4-11.9-4.4
				c-1.5-0.6-6-3.1-8.4-3.4c5-0.7,5.3-0.9,6-1.1c0.3-0.1,1.3-1.5,2.6-3.4c1.2,0.6,3.5,1.7,4.6,2
				C152.5,201.7,158.6,203.3,160.8,203.8z"/>
			<path class="st9" d="M158.4,211.8h-0.1c-3.7-1.4-10.8-4-11.9-4.4c-0.4-0.2-1.1-0.5-1.9-0.9c-2-1-4.7-2.3-6.4-2.5l-1.3-0.2
				l1.3-0.2c4.6-0.6,5.2-0.8,5.8-1h0.2c0.2-0.1,0.7-0.7,2.5-3.3l0.1-0.1l0.1,0.1c1,0.5,3.4,1.7,4.6,2c0.9,0.3,4.2,1.1,9.5,2.5h0.1
				v0.2c-0.1,0.7-0.4,2.2-0.7,3.7s-0.9,2.9-1.8,4.2L158.4,211.8z M139.1,203.8c1.7,0.5,3.9,1.5,5.6,2.3c0.8,0.4,1.5,0.7,1.9,0.9
				c1.1,0.4,8,3,11.8,4.4c0.8-1.2,1.4-2.5,1.6-3.9c0.3-1.4,0.5-2.8,0.6-3.5c-5.3-1.4-8.5-2.2-9.4-2.5c-1.1-0.4-3.4-1.5-4.5-2
				c-1.8,2.8-2.3,3.3-2.6,3.3H144C143.4,203.1,142.9,203.2,139.1,203.8z"/>
		</g>
		<g>
			<path class="st12" d="M168.5,185.8c-0.3,0.7-0.5,1.4-0.8,2.1c-0.6,1.7-2.6,3-4.5,7c-1.2,2.7-2,5.6-2.4,8.5c0,0,0,0.1-0.1,0.4
				c-2.2-0.6-8.2-2.1-9.5-2.5c-1.1-0.4-3.4-1.5-4.6-2c2.5-3.9,5.9-9.6,5.9-9.6s-2.2-3.4-5-8c1.8,0.1,8.1,0.3,8.5,0.3h0.1
				c0.5,0.1,1.6,0.9,2.4,1.4c0.3,0.2,0.6,0.3,0.9,0.5c0.6,0.2,3.3,0,4.2,0c0.1,0,0.1,0,0.2,0C164.3,184,166.9,185.1,168.5,185.8z"/>
			<path class="st9" d="M160.9,204h-0.2c-5.3-1.4-8.6-2.3-9.5-2.5c-1.2-0.4-3.6-1.6-4.6-2.1l-0.2-0.1l0.1-0.2
				c2.3-3.6,5.4-8.8,5.8-9.5c-0.4-0.6-2.4-3.8-5-7.9l-0.2-0.3h0.3c3,0.1,8.1,0.3,8.5,0.3c0.1,0,0.1,0,0.2,0c0.4,0.1,1.1,0.6,1.8,1.1
				c0.2,0.1,0.4,0.3,0.6,0.4c0.3,0.2,0.5,0.3,0.8,0.5c0.3,0.1,1.6,0.1,2.6,0c0.6,0,1.2-0.1,1.5,0c0.1,0,0.1,0,0.2,0
				c0.4,0,1.9,0.6,4.7,1.8l0.1,0.1l-0.1,0.1c-0.1,0.3-0.2,0.5-0.3,0.8c-0.2,0.4-0.3,0.9-0.5,1.4c-0.3,0.8-0.8,1.4-1.5,2.3
				c-0.9,1.1-2,2.5-3,4.8c-1.2,2.7-2,5.6-2.3,8.5c0,0,0,0.1-0.1,0.4L160.9,204z M146.9,199.2c1.1,0.5,3.3,1.6,4.4,2
				c0.9,0.3,4.1,1.1,9.3,2.5c0-0.1,0-0.2,0-0.2c0.4-3,1.2-5.8,2.4-8.6c1.1-2.3,2.2-3.7,3.1-4.8c0.7-0.8,1.2-1.5,1.4-2.2
				c0.2-0.5,0.3-0.9,0.5-1.4c0.1-0.2,0.2-0.4,0.2-0.6c-3.3-1.4-4.2-1.7-4.4-1.8c-0.1,0-0.1,0-0.2,0c-0.4,0-0.9,0-1.5,0
				c-1.4,0.1-2.4,0.1-2.8-0.1c-0.3-0.1-0.6-0.3-0.9-0.5c-0.2-0.1-0.4-0.2-0.6-0.4c-0.7-0.4-1.4-0.9-1.8-1h-0.1
				c-0.4,0-6.7-0.2-8.2-0.3c2.8,4.4,4.9,7.7,4.9,7.7l0.1,0.1l-0.1,0.1C152.7,189.8,149.4,195.4,146.9,199.2z"/>
		</g>
		<g>
			<path class="st12" d="M160.5,146.6c-2.4-0.2-3,2.2-11.1,4h-0.2c-6,1.3-12,2.9-15,3.7l-3.6-6.6l-6.7-12.3c2.8-0.5,5.3,0.8,5.7,1
				c0.5,0.2,3.2,0.7,7.7,0.6h0.7c1.4,2.3,4.6,7.4,4.7,7.4c0.1,0,7.8-2.2,11.3-3.2L160.5,146.6z"/>
			<path class="st9" d="M134.1,154.5l-10.4-19.3h0.2c2.5-0.5,4.6,0.5,5.5,0.9c0.1,0.1,0.2,0.1,0.3,0.1c0.5,0.2,3.1,0.7,7.7,0.6h0.8
				v0.1c2,3.3,4.2,6.9,4.6,7.3c0.5-0.1,4.6-1.3,7.9-2.2c1.3-0.4,2.4-0.7,3.4-0.9h0.1l6.9,5.7h-0.5c-1-0.1-1.6,0.3-2.7,0.9
				c-1.5,0.8-3.7,2-8.4,3.1h-0.2c-5.5,1.2-11.2,2.7-15,3.7L134.1,154.5z M124.2,135.5l10.1,18.6c3.8-1,9.4-2.5,14.9-3.7h0.2
				c4.6-1,6.8-2.2,8.3-3c0.9-0.5,1.6-0.9,2.4-0.9l-6-5c-0.9,0.3-2.1,0.6-3.3,0.9c-6.3,1.8-7.9,2.2-8,2.2s-0.3,0-4.8-7.4h-0.6
				c-4.6,0.1-7.3-0.5-7.8-0.6c-0.1,0-0.2-0.1-0.3-0.1C128.4,136,126.5,135.1,124.2,135.5z"/>
		</g>
		<g>
			<path class="st12" d="M154.1,141.2c-3.5,1-11.2,3.1-11.3,3.2s-3.3-5.1-4.7-7.4c2.7,0,5.3-0.3,7.9-0.6c0.5-0.2,1-0.4,1.4-0.6
				L154.1,141.2z"/>
			<path class="st9" d="M142.8,144.6c-0.2,0-0.5-0.5-4.9-7.5l-0.2-0.2h0.3c2.6,0,5.3-0.3,7.9-0.6c0.5-0.2,0.9-0.4,1.4-0.6l0.1-0.1
				l7,5.8l-0.3,0.1C150.5,142.4,142.9,144.5,142.8,144.6L142.8,144.6z M138.3,137.1c3.3,5.4,4.2,6.8,4.5,7.1
				c0.8-0.2,7.5-2.1,10.9-3.1l-6.3-5.3c-0.4,0.2-0.9,0.4-1.4,0.6C143.5,136.9,140.9,137.1,138.3,137.1z"/>
		</g>
		<g>
			<path class="st12" d="M171.3,148.4c-2.3-0.4-8.4-1.6-10.6-1.8h-0.2l0,0l-6.4-5.3l-6.7-5.6c0.4-0.2,0.8-0.4,1.3-0.6
				c1.3-0.5,6.1-0.3,6.8-0.1c0.6,0.2,2.2,0,2.4-0.2s5-0.1,6.4-0.6s2.9-3.1,2.9-3.1s0.2,3,0.6,4.5c0.6,2.6,1.4,5.2,2.3,7.8
				C170.6,145.1,171,146.7,171.3,148.4z"/>
			<path class="st9" d="M171.5,148.6h-0.2c-2.5-0.5-8.4-1.6-10.6-1.8h-0.3l0,0l-13.3-11.1l0.2-0.1c0.4-0.2,0.8-0.4,1.3-0.6
				c1.4-0.6,6.2-0.3,6.9-0.1c0.6,0.2,2,0,2.2-0.1c0.1-0.1,0.3-0.1,2-0.2c1.5-0.1,3.7-0.1,4.5-0.4c1.3-0.4,2.8-3,2.8-3l0.3-0.5v0.5
				c0,0,0.2,3,0.6,4.5c0.6,2.6,1.4,5.2,2.3,7.7c0.6,1.6,1,3.3,1.2,4.9L171.5,148.6z M160.6,146.4h0.2c2.1,0.2,7.8,1.3,10.4,1.8
				c-0.3-1.6-0.7-3.1-1.2-4.6c-0.9-2.5-1.7-5.2-2.3-7.8c-0.2-1.2-0.4-3.1-0.5-4c-0.5,0.8-1.7,2.4-2.7,2.7c-0.8,0.3-3,0.4-4.6,0.4
				c-0.8,0-1.6,0.1-1.8,0.1c-0.3,0.2-1.9,0.4-2.5,0.2c-0.7-0.2-5.4-0.4-6.7,0.1c-0.4,0.2-0.8,0.3-1.1,0.5L160.6,146.4z"/>
		</g>
		<g>
			<path class="st12" d="M171,159.9c-0.1,0.4-0.2,0.7-0.3,1.1c-1.2,0-3.6,0.4-6.9,2.4c-0.2,0.1-0.5,0.3-0.7,0.4l-0.5-10
				c2.2,0.2,5.9,0.6,7.9,0.8C170.2,156.4,171.4,157.6,171,159.9z"/>
			<path class="st9" d="M163,164.1l-0.5-10.5h0.2c2.2,0.2,5.9,0.6,7.9,0.8h0.2v0.2c-0.1,0.8,0,1.4,0.2,2.2s0.5,1.8,0.3,3l0,0
				c-0.1,0.4-0.2,0.8-0.3,1.1v0.1h-0.1c-1.1,0-3.5,0.4-6.8,2.4l-0.1,0.1c-0.2,0.1-0.4,0.2-0.5,0.3L163,164.1z M162.8,154l0.5,9.5
				c0.1-0.1,0.2-0.1,0.3-0.2l0.1-0.1c3.3-2,5.7-2.4,6.9-2.5c0.1-0.3,0.2-0.6,0.3-1c0.2-1.2,0-2-0.3-2.9c-0.2-0.7-0.4-1.4-0.3-2.1
				C168.4,154.6,165,154.3,162.8,154z"/>
		</g>
		<g>
			<path class="st12" d="M170.7,161c-0.7,1.7-2.3,3.1-3.4,3.7c-1.4,0.8-1.5,1.5-1,2.8c0.1,0.3,0.2,0.5,0.3,0.8
				c-0.6,0.4-1.8,1.2-2.5,1.7c-0.2,0.1-0.4,0.2-0.6,0.3c-0.7,0.3-1.5,0.6-1.4,0.2c0.1-0.5,0.4-1.8,0-1.6c-0.3,0.1-1.6,0.7-2.3,1.1
				l-0.1-0.2l0,0c-0.4-0.6-0.8-1.3-1.3-2.1c0.8-0.9,2.3-2.2,4.9-3.9c0.2-0.1,0.4-0.3,0.7-0.4C167.1,161.4,169.5,161,170.7,161z"/>
			<path class="st9" d="M162.2,170.9c-0.1,0-0.2,0-0.3-0.1s-0.1-0.2-0.1-0.3s0-0.2,0.1-0.3c0.1-0.3,0.2-0.9,0.1-1.1
				c-0.3,0.1-1,0.5-1.7,0.8l-0.8,0.4l-0.2-0.4c-0.3-0.6-0.8-1.3-1.3-2.1l-0.1-0.1l0.1-0.1c1.1-1.2,2.7-2.5,4.9-3.9
				c0.1-0.1,0.3-0.2,0.4-0.2l0.3-0.2c3.4-2.1,5.8-2.4,7-2.5h0.3l-0.1,0.2c-0.7,1.8-2.3,3.2-3.5,3.8c-1.4,0.8-1.4,1.5-0.9,2.6
				c0.1,0.2,0.2,0.5,0.3,0.8l0.1,0.1l-0.1,0.1c-0.6,0.4-1.8,1.2-2.6,1.7c-0.2,0.1-0.4,0.2-0.6,0.3h-0.1
				C162.9,170.7,162.5,170.9,162.2,170.9z M162.1,168.7c0.1,0,0.1,0,0.2,0.1c0.2,0.2,0.1,0.7,0,1.4c0,0.1,0,0.2-0.1,0.3l0,0
				c0.1,0.1,0.8-0.2,1.1-0.4h0.1c0.2-0.1,0.4-0.2,0.5-0.3c0.7-0.4,1.8-1.2,2.4-1.6c-0.1-0.3-0.2-0.5-0.3-0.7
				c-0.5-1.3-0.5-2.2,1.1-3.1c1.1-0.6,2.5-1.8,3.3-3.4c-1.2,0.1-3.5,0.5-6.5,2.4l-0.3,0.2c-0.1,0.1-0.3,0.2-0.4,0.2
				c-2.1,1.3-3.7,2.6-4.8,3.7c0.5,0.7,0.9,1.4,1.3,2l0.1,0.1l0.5-0.2c0.7-0.3,1.5-0.7,1.7-0.8C162,168.7,162.1,168.7,162.1,168.7z"
				/>
		</g>
		<g>
			<path class="st12" d="M169,179.2c-0.7-0.1-1.3-0.2-1.9-0.4c-0.4-0.1-2.5,0-3.5,0c0-1.5-0.1-4,0.3-5.1c0.1-0.3,0.2-0.6,0.2-1
				c0.1-0.9,0.1-1.8,0-2.7c0.8-0.5,2-1.3,2.5-1.7c0.8,2,1.4,4,1.7,6.1C168.6,176,168.8,177.6,169,179.2z"/>
			<path class="st9" d="M169.1,179.4h-0.2c-0.7-0.1-1.3-0.2-2-0.4c-0.3-0.1-2.2,0-3.4,0h-0.2v-0.2c0-0.3,0-0.5,0-0.8
				c0-1.5,0-3.4,0.3-4.4c0.1-0.3,0.2-0.6,0.2-0.9c0.1-0.9,0.1-1.8,0-2.7v-0.1l0.1-0.1c0.8-0.5,2-1.3,2.5-1.7l0.2-0.1l0.1,0.2
				c0.8,2,1.4,4,1.7,6.1c0.3,1.6,0.5,3.2,0.7,4.8L169.1,179.4z M165.9,178.6c0.6,0,1,0,1.2,0c0.6,0.2,1.2,0.3,1.7,0.4
				c-0.1-1.5-0.4-3.1-0.7-4.6c-0.3-2-0.9-4-1.6-5.8c-0.6,0.4-1.6,1.1-2.3,1.5c0.1,0.9,0.1,1.8,0,2.6c0,0.3-0.1,0.7-0.2,1
				c-0.3,0.9-0.3,2.8-0.3,4.3c0,0.2,0,0.4,0,0.7C164.3,178.7,165.2,178.6,165.9,178.6z"/>
		</g>
		<g>
			<path class="st12" d="M169.1,183c-0.1,0.9-0.3,1.9-0.6,2.7c-1.6-0.7-4.2-1.8-4.6-1.8c-0.1,0-0.1,0-0.2,0c0-0.8,0-1.8-0.2-2.1
				c-0.1-0.2-0.2-0.4-0.2-0.6c-0.1-0.4,0-1,0.2-1.2c0.1-0.1,0.1-0.6,0.1-1.2c1,0,3.1-0.1,3.5,0c0.6,0.2,1.3,0.3,1.9,0.4
				C169.1,180.9,169.1,182.2,169.1,183z"/>
			<path class="st9" d="M168.6,186l-0.6-0.3c-1.5-0.6-3.7-1.6-4.1-1.6c-0.1,0-0.1,0-0.2,0h-0.2v-0.2c0-1.6-0.1-2-0.2-2
				c-0.1-0.2-0.2-0.4-0.2-0.6c-0.1-0.5,0-1,0.2-1.3c0-0.1,0.1-0.4,0.1-1.1v-0.2h0.2c0.7,0,3.1-0.1,3.5,0c0.6,0.2,1.3,0.3,1.9,0.4
				h0.1v0.1c0.1,1.3,0.2,2.6,0.2,3.8l0,0c-0.1,1-0.3,1.9-0.6,2.8L168.6,186z M163.8,183.7C163.8,183.7,163.9,183.7,163.8,183.7
				c0.5,0.1,2.2,0.8,4.3,1.6l0.3,0.1c0.3-0.8,0.5-1.6,0.6-2.5c0-1.2-0.1-2.4-0.2-3.6c-0.6-0.1-1.2-0.2-1.8-0.4c-0.3,0-1.8,0-3.2,0
				c0,0.8,0,1.1-0.2,1.2c-0.1,0.1-0.2,0.6-0.1,1c0,0.2,0.1,0.4,0.2,0.5C163.7,181.8,163.8,182.1,163.8,183.7z"/>
		</g>
		<g>
			<path class="st12" d="M138.2,202.8c0,0.3-0.1,0.6-0.1,0.9l0,0c-1.9,0.3-4.5,0.6-8,1c-3.4,0.4-7.7,1.2-12.1,2
				c-0.1-0.5-0.1-1-0.1-1.2c-0.2-1.8-0.4-9.4-1.2-14.4l21.5-6.7C138.3,191.4,138.4,200.5,138.2,202.8z"/>
			<path class="st9" d="M117.9,207v-0.2c-0.1-0.5-0.1-1-0.1-1.2c-0.1-0.5-0.1-1.5-0.2-2.7c-0.2-3.2-0.4-8.1-1.1-11.7v-0.1l21.8-6.8
				v0.2c0.1,6.8,0.3,16.1,0.1,18.4c0,0.2-0.1,0.5-0.1,1v0.1h-0.1c-2,0.3-4.7,0.6-8,1c-3.2,0.4-7.2,1.1-12,2H117.9z M116.8,191.3
				c0.6,3.6,0.9,8.4,1,11.6c0.1,1.2,0.1,2.2,0.2,2.7c0,0.2,0.1,0.6,0.1,1c4.8-0.9,8.8-1.6,11.9-2c3.3-0.4,5.8-0.7,7.9-1
				c0.1-0.3,0.1-0.6,0.1-0.8l0,0c0.2-2.3,0.1-11.3-0.1-18.1L116.8,191.3z"/>
		</g>
		<g>
			<path class="st12" d="M138.1,184.5l-21.5,6.7c-0.2-1.2-0.5-2.4-1-3.6c-1.7-3.6-6-12.2-6-13.1c0-0.1,0-0.1,0-0.2
				c2-0.3,2.7-0.7,3.2-1.3c0.6-0.7,1.4-2,2.5-2s2.4,1.7,3.2,1.7c0.6,0,2.2-0.1,3.2-0.2c0.4,0.5,0.9,0.9,1.4,1.2
				c3.5,1.7,3.1,1.3,4.4,0.4s2.5-2,4.5-0.7c1.9,1.2,1.7,1.3,2,1c0.2-0.3,0.9-1,1.9,0.3c0.9,1.1,1.4,3.6,2.1,3.8
				C138,180.1,138,182.2,138.1,184.5z"/>
			<path class="st9" d="M116.5,191.4v-0.2c-0.2-1.2-0.5-2.4-1-3.5c-0.4-0.8-0.9-1.9-1.5-3.1c-2.6-5.3-4.6-9.4-4.6-10.1v-0.1v-0.2
				h0.2c2.1-0.3,2.7-0.8,3.1-1.2c0.1-0.1,0.2-0.2,0.3-0.3c0.6-0.7,1.3-1.7,2.3-1.7c0.6,0,1.3,0.5,1.9,1c0.5,0.4,1,0.8,1.3,0.8
				c0.6,0,2.3-0.1,3.2-0.2h0.1l0.1,0.1c0.4,0.5,0.8,0.9,1.3,1.2c2.9,1.4,3,1.3,3.7,0.7c0.1-0.1,0.3-0.2,0.4-0.3l0.1-0.1
				c1.2-0.9,2.6-1.9,4.5-0.6c0.6,0.4,1,0.7,1.3,0.9c0.2,0.1,0.3,0.2,0.4,0.2l0,0v-0.1c0.1-0.1,0.4-0.5,0.9-0.5
				c0.4,0,0.8,0.3,1.2,0.8s0.8,1.4,1.1,2.1c0.3,0.7,0.7,1.6,0.9,1.7h0.1v1.2c0,1.3,0.1,3,0.1,4.7v0.1h-0.1L116.5,191.4z
				 M109.8,174.5L109.8,174.5c0,0.7,2.7,6.3,4.5,10c0.6,1.2,1.1,2.3,1.5,3.1c0.5,1.1,0.8,2.3,0.9,3.4l21.2-6.6
				c0-1.7-0.1-3.3-0.1-4.6v-1c-0.4-0.2-0.7-0.9-1-1.8c-0.3-0.7-0.6-1.5-1-2c-0.4-0.4-0.7-0.7-1-0.7c-0.2,0-0.4,0.1-0.7,0.4l0,0
				c-0.2,0.3-0.3,0.2-0.8-0.1c-0.3-0.2-0.7-0.5-1.3-0.9c-1.8-1.1-3-0.2-4.2,0.6l-0.1,0.1c-0.2,0.1-0.3,0.2-0.4,0.3
				c-0.8,0.7-1.1,0.8-4.1-0.7c-0.5-0.3-1-0.7-1.4-1.2c-1.2,0.1-2.6,0.2-3.2,0.2c-0.5,0-1-0.4-1.5-0.8c-0.6-0.5-1.2-0.9-1.7-0.9
				c-0.8,0-1.5,0.9-2.1,1.5c-0.1,0.1-0.2,0.2-0.3,0.4C112.4,173.8,111.7,174.2,109.8,174.5z"/>
		</g>
		<g>
			<path class="st12" d="M152.6,189.6c0,0-3.4,5.7-5.9,9.6c-1.2,1.9-2.2,3.3-2.6,3.4c-0.7,0.2-1,0.4-6,1.1l0,0
				c0.1-0.4,0.1-0.7,0.1-0.9c0.2-2.3,0.1-11.4-0.1-18.3c-0.1-2.3-0.1-4.3-0.2-5.8c0.1,0,0.2,0,0.2,0c0.8-0.5,1.7-1.5,3.1-1
				c1.2,0.4,2.3,0.4,3.4-0.5c1,1.6,1.9,3.1,2.8,4.5C150.4,186.2,152.6,189.6,152.6,189.6z"/>
			<path class="st9" d="M137.9,203.9v-0.2c0.1-0.4,0.1-0.7,0.1-0.9c0.2-1.8,0.1-7.9-0.1-18.3c-0.1-2.3-0.1-4.3-0.2-5.8v-0.2h0.2h0.1
				c0.1-0.1,0.3-0.2,0.4-0.3c0.7-0.5,1.6-1.1,2.8-0.7c1.3,0.5,2.2,0.3,3.2-0.5l0.1-0.1l0.1,0.2c1,1.6,1.9,3.1,2.8,4.5
				c2.8,4.5,5,7.9,5,8l0.1,0.1l-0.1,0.1c0,0.1-3.4,5.8-5.9,9.6c-1.9,2.9-2.4,3.4-2.7,3.5l-0.2,0.1c-0.7,0.2-1.2,0.4-5.9,1
				L137.9,203.9z M138.1,178.8c0,1.5,0.1,3.4,0.1,5.6c0.2,10.4,0.3,16.6,0.1,18.4c0,0.2,0,0.4-0.1,0.7c4.4-0.6,5-0.8,5.6-1l0.2-0.1
				c0.1,0,0.6-0.4,2.5-3.3c2.3-3.6,5.4-8.8,5.8-9.5c-0.4-0.6-2.4-3.8-4.9-7.9c-0.9-1.4-1.8-2.9-2.7-4.4c-1,0.8-2.1,0.9-3.4,0.4
				c-1.1-0.4-1.8,0.2-2.5,0.6c-0.2,0.1-0.3,0.2-0.5,0.3C138.2,178.8,138.2,178.8,138.1,178.8z"/>
		</g>
		<g>
			<path class="st12" d="M144.7,177.1c-1.1,0.9-2.2,1-3.4,0.5c-1.4-0.5-2.3,0.5-3.1,1c-0.1,0-0.2,0.1-0.2,0
				c-0.7-0.2-1.2-2.7-2.1-3.8c-1-1.3-1.7-0.6-1.9-0.3s0,0.2-2-1s-3.3-0.2-4.5,0.7s-0.9,1.3-4.4-0.4c-0.5-0.3-1-0.7-1.4-1.2
				c-2.7-3.2-6.3-11.3-7.8-15.1l0.3-0.1l16.3-9.9l3.6,6.6l2.6,4.8c-1.8,0-1.9,0.7-1.9,1.7C134.9,161.3,140,169.6,144.7,177.1z"/>
			<path class="st9" d="M138,178.8h-0.1c-0.4-0.1-0.8-0.9-1.2-1.9c-0.3-0.7-0.6-1.5-1-2c-0.4-0.4-0.7-0.7-1-0.7l0,0
				c-0.2,0-0.4,0.1-0.7,0.4l0,0c-0.2,0.3-0.3,0.2-0.8-0.1c-0.3-0.2-0.7-0.5-1.3-0.9c-1.8-1.1-3-0.2-4.2,0.6l-0.1,0.1
				c-0.2,0.1-0.3,0.2-0.4,0.3c-0.8,0.7-1.1,0.8-4.1-0.7c-0.6-0.3-1.1-0.8-1.5-1.3c-2.8-3.3-6.4-11.7-7.9-15.1l-0.1-0.2l0.5-0.1
				l16.4-9.9l6.4,11.8h-0.3c-1.6,0-1.7,0.6-1.7,1.5c0,0.3,1.8,3.4,9.8,16.3l0.1,0.1l-0.1,0.1c-1.1,0.9-2.2,1-3.5,0.5
				c-1.1-0.4-1.8,0.2-2.5,0.6c-0.2,0.1-0.3,0.2-0.5,0.3C138.2,178.8,138.1,178.8,138,178.8z M134.7,173.9L134.7,173.9
				c0.4,0,0.8,0.3,1.3,0.8c0.4,0.5,0.8,1.4,1.1,2.1c0.3,0.7,0.7,1.6,0.9,1.7h0.1c0.1-0.1,0.3-0.2,0.4-0.3c0.7-0.5,1.6-1.1,2.8-0.7
				c1.2,0.4,2.2,0.3,3.1-0.4c-8.7-13.9-9.8-16-9.8-16.4c0-1,0.1-1.8,1.8-1.8l-6-11l-16.2,9.8H114c1.5,3.6,5,11.7,7.7,14.9
				c0.4,0.5,0.8,0.9,1.4,1.2c2.9,1.4,3,1.3,3.7,0.7c0.1-0.1,0.3-0.2,0.4-0.3l0.1-0.1c1.2-0.9,2.6-1.9,4.5-0.6
				c0.7,0.4,1.1,0.7,1.3,0.9c0.2,0.1,0.3,0.2,0.4,0.2l0,0v-0.1C134.1,174.1,134.4,173.9,134.7,173.9z"/>
		</g>
		<g>
			<path class="st12" d="M151.9,159.1c-3.1,0-13.3,0-14.9,0h-0.2l-2.6-4.8c3-0.8,9-2.4,15-3.7h0.2
				C149.8,152.3,150.8,156.7,151.9,159.1z"/>
			<path class="st9" d="M140.9,159.3c-1.9,0-3.4,0-3.9,0h-0.3l-2.7-5.1l0.2-0.1c3.8-1,9.5-2.5,15-3.7l0.4-0.1v0.2
				c0.4,1.8,1.4,6.2,2.5,8.5l0.1,0.2h-0.3c-0.9,0-2.4,0-4,0C145.7,159.3,143,159.3,140.9,159.3z M136.9,158.9h0.1
				c1.2,0,6.8,0,10.9,0c1.5,0,2.9,0,3.8,0c-1-2.3-2-6.4-2.4-8.2l0,0c-5.4,1.2-11,2.6-14.8,3.7L136.9,158.9z"/>
		</g>
		<g>
			<path class="st12" d="M170.5,154.6L170.5,154.6c-2-0.2-5.7-0.6-7.9-0.8c-1.1-0.1-1.8-0.2-1.9-0.2c-0.3-0.1-0.1-4.9,0-6.9
				c0-0.1,0-0.1,0-0.2c2.2,0.2,8.3,1.4,10.6,1.8c0.1,0.5,0.2,1.1,0.3,1.7C172,152.6,170.8,152.9,170.5,154.6z"/>
			<path class="st9" d="M170.7,154.9h-0.2c-2-0.2-5.6-0.6-7.9-0.8c-0.8-0.1-1.8-0.2-1.9-0.2c-0.2,0-0.4-0.1-0.2-7.1v-0.3h0.2
				c2.2,0.2,8.1,1.3,10.6,1.8h0.1v0.1c0.1,0.3,0.1,0.6,0.2,0.9c0,0.3,0.1,0.5,0.1,0.8c0.3,1.7-0.1,2.4-0.5,3.2
				c-0.2,0.4-0.5,0.8-0.6,1.4L170.7,154.9L170.7,154.9z M160.8,153.5c0.2,0,0.7,0.1,1.8,0.2c2.2,0.2,5.7,0.6,7.7,0.8
				c0.1-0.6,0.4-1,0.6-1.4c0.4-0.7,0.8-1.4,0.5-3c0-0.3-0.1-0.5-0.1-0.8s-0.1-0.5-0.1-0.8c-2.5-0.5-8-1.5-10.3-1.8
				C160.7,151.2,160.8,153.1,160.8,153.5z"/>
		</g>
		<g>
			<path class="st12" d="M158.2,167.7c-0.3,0.4-0.6,0.8-0.9,1.2c-0.2,0.3-0.5,3.8-0.7,7.1c-0.2,2.4-0.3,4.8-0.4,5.9h-0.1
				c-0.4,0-6.7-0.2-8.5-0.3c-0.9-1.4-1.9-3-2.8-4.5c-4.7-7.6-9.8-15.9-9.8-16.4c0-0.9,0.1-1.7,1.9-1.7h0.2c1.6,0,11.8,0,14.9,0
				c0.2,0.4,0.4,0.8,0.6,1.1C153.6,161.6,156.3,164.9,158.2,167.7z"/>
			<path class="st9" d="M156.3,182.2l-0.2-0.1c0,0,0,0-0.1,0c-0.4,0-7.2-0.2-8.5-0.3h-0.1v-0.1c-0.9-1.4-1.9-3-2.8-4.5
				c-9.9-15.8-9.9-16.3-9.9-16.5c0-1,0.2-1.8,2-1.8h0.2c1.2,0,6.8,0,10.9,0c1.7,0,3.1,0,4,0h0.1v0.1c0.2,0.4,0.4,0.7,0.6,1.1
				c1.2,1.4,3.8,4.8,5.7,7.5l0.1,0.1l-0.1,0.1c-0.3,0.4-0.6,0.8-0.9,1.2c0,0.1-0.2,0.9-0.7,7.1c-0.1,1.6-0.2,3.1-0.3,4.3
				c0,0.7-0.1,1.2-0.1,1.6L156.3,182.2z M147.6,181.5c2.2,0.1,7.8,0.3,8.4,0.3c0-0.4,0.1-0.9,0.1-1.4c0.1-1.2,0.2-2.7,0.3-4.3
				c0.5-6.7,0.7-7.1,0.7-7.2c0.2-0.4,0.5-0.8,0.8-1.2c-1.9-2.7-4.5-6-5.6-7.4c-0.3-0.3-0.5-0.7-0.6-1.1c-0.9,0-2.3,0-3.9,0
				c-4.1,0-9.7,0-10.9,0h-0.2c-1.6,0-1.7,0.6-1.7,1.5c0,0.3,1.4,2.8,9.8,16.3C145.8,178.6,146.8,180.1,147.6,181.5z"/>
		</g>
		<g>
			<path class="st12" d="M163.1,163.8c-2.6,1.7-4.1,3-4.9,3.9c-1.9-2.8-4.6-6.1-5.7-7.5c-0.3-0.3-0.5-0.7-0.6-1.1
				c-1.1-2.3-2.1-6.8-2.5-8.5c8.2-1.8,8.8-4.1,11.2-4l0,0l0.2,0.2c-0.1,2-0.2,6.8,0,6.9c0.1,0,0.8,0.1,1.9,0.2L163.1,163.8z"/>
			<path class="st9" d="M158.2,168l-0.1-0.2c-2-2.9-4.9-6.5-5.7-7.5c-0.3-0.4-0.5-0.7-0.7-1.1c-1.1-2.4-2.1-6.8-2.5-8.6v-0.2h0.2
				c4.7-1,6.9-2.3,8.3-3.1c1.1-0.6,1.8-1,2.9-0.9h0.1l0.3,0.3v0.1c-0.2,4.4-0.1,6.3,0,6.7c0.1,0,0.2,0,0.4,0c0.3,0,0.8,0.1,1.4,0.2
				h0.1l0.5,10.2l-0.1,0.1c-2.2,1.4-3.8,2.7-4.9,3.8L158.2,168z M149.5,150.7c0.4,1.9,1.4,6.1,2.5,8.4c0.2,0.4,0.4,0.7,0.6,1.1
				c0.8,1,3.6,4.4,5.6,7.3c1.1-1.2,2.7-2.4,4.7-3.7l-0.5-9.7c-0.5-0.1-0.9-0.1-1.2-0.1c-0.2,0-0.4-0.1-0.5-0.1l0,0
				c-0.2,0-0.4-0.1-0.2-7l-0.1-0.1c-0.9,0-1.6,0.3-2.7,0.9C156.3,148.4,154.1,149.6,149.5,150.7z"/>
		</g>
		<g>
			<path class="st12" d="M159.5,169.8L159.5,169.8c0,0.1-0.1,0.2-0.1,0.3c-0.1,0.6-0.2,1.7-0.3,3.1c-0.1,0.8-0.1,1.8-0.2,2.7
				l-2.4,0.1c0.3-3.3,0.6-6.8,0.7-7.1c0.2-0.4,0.5-0.9,0.9-1.2C158.7,168.4,159.2,169.1,159.5,169.8z"/>
			<path class="st9" d="M156.4,176.2V176c0.5-6.7,0.7-7.1,0.7-7.2c0.2-0.5,0.6-0.9,0.9-1.3l0.1-0.2l0.1,0.2c0.5,0.7,0.9,1.4,1.3,2.1
				v0.1v0.1c0,0.1-0.1,0.2-0.1,0.3c-0.1,0.5-0.2,1.5-0.3,3.1c-0.1,0.8-0.1,1.8-0.2,2.7v0.2L156.4,176.2z M158.2,167.9
				c-0.3,0.3-0.5,0.7-0.7,1c-0.1,0.1-0.2,1-0.7,6.9l2.1-0.1c0.1-0.9,0.1-1.8,0.2-2.6c0.1-1.7,0.2-2.7,0.3-3.2c0-0.1,0-0.2,0.1-0.3
				C159,169.2,158.6,168.5,158.2,167.9z"/>
		</g>
		<g>
			<path class="st12" d="M164,172.7c-0.4,0.1-1,0.2-1.4,0.4c-0.5,0.2-2.6,0.2-3.4,0.2c0.1-1.4,0.2-2.6,0.3-3.1l0.2-0.1
				c0.8-0.4,2-1,2.3-1.1c0.4-0.2,0.1,1.1,0,1.6s0.7,0.1,1.4-0.2c0.2-0.1,0.4-0.2,0.6-0.3C164.1,170.9,164.1,171.8,164,172.7z"/>
			<path class="st9" d="M160,173.4c-0.4,0-0.7,0-0.8,0H159v-0.2c0.1-1.7,0.2-2.7,0.3-3.2v-0.1l0.3-0.1c1.3-0.6,2.1-1,2.4-1.1
				c0.2-0.1,0.3,0,0.3,0c0.2,0.2,0.1,0.7,0,1.4c0,0.1,0,0.2-0.1,0.3l0,0c0.1,0.1,0.8-0.2,1.1-0.4h0.1c0.2-0.1,0.4-0.2,0.5-0.3
				l0.2-0.1v0.3c0.1,0.9,0.1,1.8,0,2.8v0.1H164c-0.4,0.1-1,0.2-1.4,0.4C162.2,173.4,160.9,173.4,160,173.4z M159.4,173.1
				c1.1,0,2.8,0,3.2-0.1s0.9-0.2,1.3-0.3c0.1-0.8,0.1-1.5,0-2.3c-0.1,0.1-0.2,0.1-0.3,0.2h-0.1c-0.8,0.3-1.2,0.5-1.5,0.3
				c-0.1-0.1-0.1-0.2-0.1-0.3s0-0.2,0.1-0.3c0.1-0.3,0.2-0.9,0.1-1.1c-0.3,0.1-1.1,0.5-2.3,1.1l-0.1,0.1
				C159.5,170.7,159.5,171.6,159.4,173.1z"/>
		</g>
		<g>
			<path class="st12" d="M163.6,183.9c-1,0-3.7,0.2-4.2,0c-0.3-0.1-0.6-0.3-0.8-0.5c0-0.6,0.1-1.3,0.1-2.2h4.6
				c0,0.2,0.1,0.4,0.2,0.6C163.6,182.1,163.6,183.1,163.6,183.9z"/>
			<path class="st9" d="M160.5,184.2c-0.5,0-0.9,0-1.1-0.1c-0.3-0.1-0.6-0.3-0.9-0.5l-0.1-0.1v-0.1c0-0.6,0.1-1.3,0.1-2.2V181h4.9
				v0.1c0,0.2,0.1,0.3,0.2,0.5c0.1,0.1,0.2,0.3,0.2,2.2v0.2h-0.2c-0.3,0-0.9,0-1.4,0C161.5,184.2,160.9,184.2,160.5,184.2z
				 M158.7,183.3c0.2,0.2,0.5,0.3,0.7,0.4c0.3,0.1,1.7,0.1,2.7,0c0.5,0,0.9,0,1.3,0c0-1.5-0.1-1.8-0.2-1.9c-0.1-0.2-0.1-0.3-0.2-0.5
				h-4.3C158.8,182.2,158.8,182.8,158.7,183.3z"/>
		</g>
		<g>
			<path class="st12" d="M159,176c-0.1,1.8-0.2,3.7-0.3,5.3c0,0.9-0.1,1.6-0.1,2.2c-0.8-0.5-1.9-1.3-2.4-1.4
				c0.1-1.1,0.2-3.5,0.4-5.9L159,176z"/>
			<path class="st9" d="M158.7,183.7l-0.2-0.2c-0.2-0.1-0.4-0.2-0.6-0.4c-0.7-0.4-1.4-0.9-1.8-1H156V182c0.1-1.1,0.2-3.4,0.4-5.9
				V176l2.7-0.1v0.2c-0.1,1.5-0.2,3.2-0.3,5.3c0,0.9-0.1,1.6-0.1,2.2L158.7,183.7z M156.4,181.9c0.4,0.2,1.1,0.6,1.7,1
				c0.1,0.1,0.2,0.1,0.3,0.2c0-0.5,0.1-1.2,0.1-1.9c0.1-2,0.2-3.7,0.3-5.1l-2.1,0.1C156.6,178.6,156.4,180.8,156.4,181.9z"/>
		</g>
		<g>
			<path class="st12" d="M163.8,173.7c-0.4,1.1-0.3,3.6-0.3,5.1c0,0.7,0,1.1-0.1,1.2c-0.2,0.2-0.3,0.7-0.2,1.2h-4.6
				c0.1-1.5,0.2-3.5,0.3-5.3c0.1-1,0.1-1.9,0.2-2.7c0.8,0,2.9,0,3.4-0.2c0.4-0.1,1-0.3,1.4-0.4C164,173.1,163.9,173.4,163.8,173.7z"
				/>
			<path class="st9" d="M163.5,181.4h-4.9v-0.2c0.1-2.1,0.2-3.8,0.3-5.3c0.1-1,0.1-1.9,0.2-2.7V173h0.4c0.9,0,2.7,0,3.2-0.1
				c0.4-0.1,0.9-0.3,1.4-0.4l0.2-0.1v0.2c0,0.3-0.1,0.7-0.2,1l0,0c-0.3,0.9-0.3,2.7-0.3,4.2c0,0.3,0,0.6,0,0.9c0,1-0.1,1.2-0.2,1.3
				c-0.1,0.1-0.2,0.6-0.1,1L163.5,181.4z M158.9,181.1h4.2c0-0.4,0-0.9,0.3-1.1c0,0,0.1-0.3,0.1-1.1c0-0.3,0-0.6,0-0.9
				c0-1.5,0-3.3,0.3-4.3c0.1-0.2,0.1-0.5,0.2-0.7c-0.4,0.1-0.9,0.2-1.2,0.3c-0.5,0.2-1.9,0.2-3.3,0.2h-0.1c-0.1,0.8-0.1,1.7-0.2,2.5
				C159.1,177.4,159,179.1,158.9,181.1z"/>
		</g>
	</g>
</g>
<g>
	<g>
		<path class="st6" d="M1016.3,36L1016.3,36v-0.2c0.4-1.9,1.2-3.9,2.3-5.6c3.9-6.3,5.1-13.9,3.5-21.1l-0.7-3.8
			c-0.3-1.8-0.6-3.4-0.9-5l0,0c-2-11.2-3.8-19.7-6.7-27.2c-4.7-13-8.7-26.2-12.1-39.6c-1.6-7.5-2.8-22.6-2.8-22.8
			c-0.3-4.2-3.9-7.3-8-7c-2.6,0.2-4.9,1.6-6.1,3.8c-3.5,6-8.8,12.1-11.2,12.9c-3.2,1.1-14.9,1.6-21.2,1.8
			c-8.6,0.4-11.7,0.4-13.8,1.8c-2.2,0.4-4.4,0.4-6.6,0.3c-4.2-1.1-31-2.9-40.3,0.7c-2.9,1.1-5.4,2.3-7.4,3.3l0,0l-1.9,1
			c-1.2,0.7-2.5,1.3-3.8,1.9c-13.3,1.9-26.8,2.8-40.2,3.1l0,0l-3.5,0.1c-22.4,0.5-36.1-2.2-38.1-2.9c-0.3-0.1-0.6-0.3-1.1-0.4
			c-4.8-2.1-17.6-7.8-32.4-5.1H763h-0.4h-0.2l-1.2,0.3c-16.4,3.5-25.2,7.7-27.4,8.8c-3.2,1.3-27,9.2-36.9,12
			c-2.4-4.2-6.2-11.7-8.7-16.5c-7.3-14.5-8.7-16.9-11.2-18.6c-2.6-1.7-19.4-7.7-24.4-9.5c-24.3-8.5-25.4-8-28.5-6
			c-2.2,1.2-2.8,2.3-9,12.7c-5.3,8.9-19.4,32.4-24.3,35.7c-2.8,1.1-15,5.8-29,11.1c-17.6,6.7-39.5,15.1-57.1,21.9
			c-9.7,3.8-17,6.7-22.1,8.8c-2.9,1.2-5.1,2.1-6.7,2.8c-2.3,1.1-7.7,3.5-6.5,9.5c0.4,2.6,1,3.2,9.5,12.5c8.8,9.8,25.3,28,30.5,37.6
			c2.7,4.9,8,16.9,14.8,33.7l0,0c5.4,13.3,11.5,28.8,16.8,42.9l0,0c4.5,11.9,8.1,21.9,10.2,27.9c3.7,11.2,16.4,51.6,36.5,116.6l0,0
			l8.9,29l10.7,37.2l0,0l44.5,154c0.9,3.3,3.9,5.5,7.2,5.5c0.3,0,0.6,0,0.9,0l92-11.1h0.4l0.6-0.1h0.1l66.9-11.7l0,0l1-0.2l0.5-0.1
			l77-19.4c2.7-0.7,4.8-2.7,5.5-5.4c2.8-10.7,10-29.5,17.1-34.6c0.5-0.4,1-0.8,1.4-1.3c0,0,0.4-0.5,1.2-1.5l0,0
			c20.8-25.1,21-30.7,21.1-33V376c0.7-25.8,4.2-34,6-36.6l0.7-0.9l0,0c5.2-7.3,8.7-15.8,10.4-24.7c1.9-9.7,3-16.6,3.5-19.5l0,0l0,0
			l0.4-1.9c0-0.2,0-0.4,0-0.5c1.8-14.7,5.7-29,11.8-42.4c4.1-8.5,9.1-16.4,15.2-23.7c3.8-4.8,7.2-8.9,8.8-14.1
			c0.8-2.3,1.8-4.7,2.6-7c0.5-1.3,1.1-2.7,1.5-4l0,0c2.2-5.4,3.5-11,3.8-16.9c0-4.9-0.1-11.8-0.9-20.7l0,0c-0.8-8.7-2-17.4-3.7-26.1
			c-1.9-11.4-4.9-22.5-9.2-33.3l0,0l0,0c-0.6-1.5-1.1-2.8-1.6-4.1c-0.5-1.1-0.9-2.3-0.9-3.5c0,0,0.4-0.8,2.8-2.1
			c7.4-4.2,16.9-12.5,21.3-23.3l0,0c1-2.4,1.7-4.9,2.1-7.4c0.9-6.2,0.4-12.5-1.5-18.6C1016.4,40.7,1015.9,38.4,1016.3,36z"/>
	</g>
	<g>
		<path class="st12" d="M752.8,129.4c-5.3,0.4-14,0.9-17,0.9c-4.5,0-11.2-9.2-17-9.2s-10,6.8-13,10.3c-2.5,2.8-6.1,5.3-16.8,6.7
			c-2.3,0.3-4.9,0.5-7.9,0.7c-17,1.1-22.6-6.7-32.3-8.6c-9.7-1.9-10.2,1.6-16.7,3c-6.5,1.4-11.1-7.5-28.6-16.1s-15.6-2.8-23.4-1
			c-7.8,1.9-19.8-9.5-21.5-9.1c-1.1,0.3-6.5,8.9-10.6,15.6c-5.1-13.6-11.2-29.3-16.9-43c10.3-1.4,33.7-4.9,74.8-11.7
			C658,59.4,702.1,51.7,711.5,50C719.7,69.7,738.5,112.4,752.8,129.4z"/>
		<path class="st9" d="M678.1,139.6c-9.3,0-15.1-2.7-20.2-5.2c-3.1-1.4-5.9-2.8-9.3-3.4c-6.2-1.1-8.3-0.2-11,1.1
			c-1.4,0.6-3,1.4-5.3,1.9c-3.9,0.9-7.1-1.5-11.8-5.2c-3.9-3-9.3-7.1-17.3-11c-12.5-6-14.7-4.8-17.9-3c-1.2,0.7-2.7,1.5-4.9,2
			c-5.7,1.3-13-3.6-17.9-6.9c-1.4-1-3-2-3.6-2.2c-0.5,0.5-2.7,3.1-10,15.2l-1,1.5l-0.6-1.7c-5.3-14.1-11.5-29.7-16.9-43l-0.4-1.1
			l1.1-0.2c10.3-1.4,33.6-4.9,74.8-11.7c54.7-9,100.6-17.1,105.6-17.9l0.7-0.1l0.3,0.6c7.5,18.1,26.7,62.1,41.1,79.2l1.1,1.3
			l-1.8,0.1c-5.9,0.4-14.1,0.9-17.1,0.9c-2.4,0-5.1-2.1-8-4.3c-3.1-2.4-6.2-4.9-8.9-4.9c-4.3,0-8,4.6-10.6,8c-0.6,0.7-1.1,1.4-1.7,2
			c-2.8,3.2-6.8,5.6-17.3,7c-2.3,0.3-4.9,0.5-8,0.7C680.1,139.6,679.1,139.6,678.1,139.6z M643.9,128.8c1.4,0,3.1,0.2,5.1,0.5
			c3.5,0.7,6.5,2.1,9.7,3.6c5.5,2.7,11.8,5.6,22.4,4.9c2.9-0.2,5.6-0.4,7.8-0.7c11.1-1.5,14.2-4.1,16.3-6.5c0.5-0.5,1.1-1.2,1.6-1.9
			c2.9-3.6,6.9-8.6,12-8.6c3.4,0,6.7,2.7,10,5.2c2.6,1.9,5.1,4,7,4c2.8,0,11-0.4,15.2-0.8C736.8,110.7,718.6,69,711.1,51
			c-7.6,1.3-52.2,9.1-104.9,17.8c-39.7,6.5-62.9,10-73.7,11.5c5.1,12.5,10.9,27,15.8,40.3c8.7-14.1,9.5-14.4,10.2-14.5
			c0.9-0.2,2,0.4,5,2.6c4.3,2.9,11.6,7.8,16.4,6.6c1.9-0.4,3.3-1.1,4.5-1.9c4-2.2,6.9-3.2,19.5,2.9c8.2,4,13.7,8.1,17.7,11.1
			c4.6,3.4,7.3,5.6,10.4,4.9c2.1-0.4,3.5-1.1,4.9-1.8C638.9,129.6,640.7,128.8,643.9,128.8z"/>
	</g>
	<g>
		<path class="st12" d="M799-2.2l-85.6,51.9l-1.8,0.4C702.2,51.7,658,59.4,606,68c-41.1,6.8-64.5,10.3-74.8,11.7
			c-6.3-15.5-12-28.7-15.1-34.5C507.7,30,477-1.2,476.8-2.7c-0.3-1.5,108.8-42.4,117.2-46c8.4-3.6,32.3-47.7,33.9-48.8
			c1.7-1.1,42.6,13.8,45.1,15.4c2.4,1.6,18.3,37.3,21.1,37.3s41-12.6,43-13.7s10.3-4.9,25.7-8.2c0.4-0.1,0.8-0.2,1.1-0.2L799-2.2z"
			/>
		<path class="st9" d="M530.6,80.5l-0.3-0.6c-4.9-12.1-11.5-27.8-15.1-34.4c-5.6-10.3-21.7-28-31.3-38.7c-6.9-7.6-7.9-8.7-8-9.5
			c-0.2-1.2-0.3-1.8,88.4-35.6c15-5.7,26.9-10.3,29.4-11.3c5.7-2.4,19.7-25.8,27.2-38.4c4.9-8,6-10,6.6-10.3
			c2.7-1.6,45.6,15.2,46,15.4c1.1,0.7,3.4,5.1,8.8,15.8c4.2,8.1,10.3,20.5,11.9,21.3c2.4,0,40.4-12.5,42.4-13.6
			c0.9-0.4,9.3-4.7,26-8.3c0.4-0.1,0.9-0.2,1.2-0.2l0.6-0.1L800.3-2l-86.7,52.4l-1.8,0.4c-1.9,0.4-48.8,8.6-105.6,17.9
			c-41.2,6.8-64.5,10.3-74.8,11.7L530.6,80.5z M477.9-2.6c1,1.1,4.1,4.6,7.2,8.1c9.7,10.7,25.9,28.6,31.6,39.1
			c3.5,6.5,10,21.9,14.9,33.9c10.6-1.5,33.8-4.9,74.1-11.6c56.8-9.4,103.7-17.6,105.6-17.9l1.6-0.3l84.8-51.3L763.6-66
			c-0.2,0-0.4,0.1-0.5,0.1c-16.4,3.5-24.7,7.7-25.5,8.1c-1.8,0.9-40.3,13.8-43.4,13.8c-1.9,0-4.8-5.3-13.3-22.3
			c-3.4-6.8-7.3-14.4-8.2-15.2c-2.6-1.7-40.5-15.2-44.2-15.3c-0.6,0.7-3.2,5-6,9.6c-11,18.5-22.3,36.7-28,39.1
			c-2.6,1.1-14.4,5.6-29.4,11.3C534.3-24.9,483.9-5.8,477.9-2.6z"/>
	</g>
	<g>
		<path class="st9" d="M725.8,226.6l-130.9,41c-11.8-38-31.5-101.5-36.6-116.7c-2.1-6.4-5.8-16.6-10.3-28.2
			c4.1-6.7,9.5-15.4,10.6-15.6c1.8-0.4,13.9,11,21.5,9.1s5.8-7.5,23.4,1s22.1,17.5,28.6,16.1c6.5-1.4,7.1-4.9,16.7-3
			c9.6,1.9,15.4,9.5,32.3,8.6c3-0.2,5.6-0.4,7.9-0.7c0.1,0.4,0.1,0.6,0.1,1c0,4.7,22.6,50,31.7,68.8
			C723.3,213.9,724.9,220.1,725.8,226.6z"/>
		<path class="st9" d="M594.3,268.8l-0.3-0.9c-7.2-23.1-30.8-99.6-36.6-116.7c-2.1-6.4-5.8-16.6-10.3-28.1l-0.2-0.4l0.3-0.4
			c9.5-15.6,10.5-15.9,11-16.1c0.9-0.2,2,0.5,5.1,2.6c4.3,2.9,11.6,7.7,16.4,6.5c1.9-0.4,3.2-1.1,4.4-1.9c4-2.2,6.9-3.2,19.5,2.9
			c8.2,4,13.6,8.1,17.7,11.1c4.6,3.4,7.3,5.6,10.4,4.9c2.1-0.4,3.5-1.1,4.9-1.8c2.9-1.3,5.4-2.5,12.1-1.2c3.5,0.7,6.5,2.1,9.6,3.6
			c5.5,2.7,11.8,5.6,22.4,4.9c2.9-0.2,5.6-0.4,7.8-0.7l0.8-0.1l0.2,0.8c0.1,0.4,0.2,0.8,0.2,1.2c0,3.5,14.9,34.3,24.8,54.5
			c2.6,5.3,4.9,10.2,6.7,13.9c2.5,6.1,4.2,12.5,5,18.9l0.1,0.7l-0.7,0.3L594.3,268.8z M549,122.7c4.3,11.4,8,21.5,10.2,27.8
			c5.7,17,28.9,91.9,36.3,116L724.9,226c-0.9-6.1-2.5-12-4.8-17.8c-1.8-3.7-4.2-8.5-6.7-13.9c-13.7-28.1-25-51.7-25-55.3l0,0
			c-2,0.3-4.4,0.4-7.1,0.6c-11.2,0.7-17.7-2.4-23.3-5.1c-3-1.4-5.9-2.8-9.2-3.4c-6.1-1.1-8.3-0.2-11,1.1c-1.4,0.6-3,1.4-5.3,1.9
			c-3.9,0.9-7.1-1.5-11.8-5.2c-3.9-3-9.3-7.1-17.3-11c-12.5-6.1-14.7-4.8-17.9-3c-1.2,0.7-2.7,1.5-4.9,2c-5.6,1.3-12.9-3.5-17.8-6.8
			c-1.4-1-3.1-2-3.7-2.3C558.4,108.3,556.3,110.7,549,122.7z"/>
	</g>
	<g>
		<path class="st12" d="M733,308.6c-46.5,8.9-95.8,20.1-118.3,25.4L604,296.8c0,0-3.7-11.9-9-29.2l130.9-41
			c4.5,26.4,5.6,66.1,6.5,75.7C732.5,303.6,732.6,305.7,733,308.6z"/>
		<path class="st9" d="M614,335l-11-38l0,0c0,0-3.7-11.9-9-29.1l-0.3-0.8l132.7-41.6l0.2,1c3.3,19.1,4.7,44.7,5.7,61.7
			c0.4,6.4,0.6,11.4,0.9,14.1c0.1,1.2,0.4,3.4,0.7,6.3l0.1,0.8l-0.8,0.2c-48.1,9.2-98.8,20.9-118.3,25.4L614,335z M596,268.2
			c5.2,16.7,8.7,28.3,8.7,28.3l10.5,36.4c20.1-4.7,69.6-16,116.8-25c-0.3-2.5-0.4-4.3-0.6-5.5c-0.3-2.7-0.5-7.8-0.9-14.1
			c-0.9-16.6-2.3-41.6-5.4-60.5L596,268.2z"/>
	</g>
	<g>
		<path class="st12" d="M751.5,477.1l-0.6,0.1L659,488.3L614.7,334c22.6-5.3,71.9-16.4,118.3-25.4c2.8,26,12.2,111.4,13,132.2
			C746.7,453,748.5,465.1,751.5,477.1z"/>
		<path class="st9" d="M658.3,489.3l-44.8-156l0.9-0.2c15-3.5,67.9-15.6,118.4-25.4l1-0.2l1.1,9.5c3.4,31.4,11.4,104.9,12.1,123.8
			c0.6,12.1,2.5,24.3,5.6,36.1l0.3,0.9l-1.6,0.3L658.3,489.3z M615.7,334.6l43.9,152.7l90.9-11c-2.9-11.6-4.8-23.5-5.4-35.4
			c-0.7-18.9-8.7-92.4-12.1-123.7l-0.8-7.5C683,319,631.7,330.9,615.7,334.6z"/>
	</g>
	<g>
		<path class="st12" d="M813.9,372.9c-0.9,3.2,3.1,70,4.5,92.5l-66.9,11.7c-3.1-11.8-4.9-24-5.6-36.2c-0.8-20.8-10.3-106.3-13-132.2
			c23-4.4,45.3-8.2,63.4-10.6c18.6-2.3,32.1-4.2,42-5.5c-2.5,11.8-5.7,23.6-9.5,35.1C822.3,349.2,814.6,370.6,813.9,372.9z"/>
		<path class="st9" d="M750.8,478l-0.2-0.8c-3.1-11.9-4.9-24.1-5.6-36.4c-0.7-18.8-8.7-92.3-12.1-123.6l-1-9.4l0.8-0.2
			c25.7-4.9,47.1-8.5,63.5-10.6c17.5-2.2,31.3-4,42-5.5l1.2-0.2l-0.3,1.2c-2.5,11.8-5.7,23.7-9.5,35.2c-4.6,14.9-9.6,29.6-12.6,38.4
			c-1.2,3.5-2.1,6.2-2.3,6.8c-0.7,2.7,1.9,49.3,4.5,92.3l0.1,0.8L750.8,478z M733.9,309.3l0.8,7.8c3.4,31.4,11.4,104.8,12.1,123.7
			c0.6,11.8,2.5,23.7,5.4,35.3l65.3-11.4c-1.7-27.2-5.3-88.7-4.4-92l0,0c0.2-0.7,1.1-3.2,2.3-6.9c3-8.7,8-23.3,12.6-38.4
			c3.6-11,6.7-22.4,9.2-33.8c-10.5,1.4-24,3.2-40.8,5.3C780.3,300.9,759.2,304.5,733.9,309.3z"/>
	</g>
	<g>
		<path class="st12" d="M917.5,405.6l-1.2,1.4c-11.9,8.6-20,38.7-20,38.7L819.4,465l-1,0.2c-1.4-22.4-5.3-89.4-4.5-92.5
			c0.6-2.2,8.3-23.7,15-45.2c5.5,13,16,36.9,19.5,40.1C852.5,371.3,898.9,395.8,917.5,405.6z"/>
		<path class="st9" d="M817.6,466.4l-0.1-1c-0.5-9.1-5.4-89-4.4-92.8c0.2-0.8,1.1-3.4,2.6-7.5c3-8.7,8-23.1,12.5-37.7l0.7-2.3l1,2.2
			c7.5,17.9,16.4,37.1,19.4,39.8c4.1,3.6,53.6,29.8,68.8,37.7l1,0.5l-2.1,2.5c-11.6,8.2-19.5,37.9-19.6,38.3l-0.1,0.5L817.6,466.4z
			 M829.1,330.2c-4.4,13.9-9,27.3-11.8,35.5c-1.3,3.9-2.3,6.7-2.5,7.4c-0.6,2.7,2.3,55.7,4.4,91.2l76.4-19.2
			c1.1-4.2,8.7-30.5,20.1-38.6l0.4-0.5c-20-10.5-64.2-33.8-68.1-37.5C844.1,364.8,833,339.3,829.1,330.2z"/>
	</g>
	<g>
		<path class="st12" d="M945.1,333.9c-0.4,0.4-0.5,0.7-0.5,0.7c-7.2,9.6-7.5,36.8-7.7,42.5c-0.2,4.9-15,23.2-19.4,28.5
			c-18.6-9.7-65-34.3-68.9-37.9c-3.5-3.3-14.1-27.1-19.6-40c3.8-11.5,7-23.2,9.5-35.1l0,0c12.6,1.6,36.2,14.9,44,18
			C888.4,312.9,925.7,326.6,945.1,333.9z"/>
		<path class="st9" d="M917.7,406.7l-0.6-0.4c-19.4-10.2-65-34.4-69.1-38c-3.8-3.5-15.1-29.4-19.8-40.4l-0.1-0.3l0.1-0.4
			c3.8-11.4,7-23.2,9.5-35l0.2-0.8l0.8,0.1c9.2,1.1,23.8,8.3,34.5,13.5c4.1,2,7.6,3.7,9.8,4.6c5.7,2.2,41.4,15.5,60.5,22.5l3.1,1.1
			l-0.6,1c-0.4,0.5-0.5,0.8-0.5,0.8c-6.5,8.7-7.2,32.7-7.4,40.6v1.5c-0.2,4.8-12.4,20.2-19.5,29L917.7,406.7z M829.9,327.6
			c9.6,22.4,16.8,37.2,19.3,39.5c3.9,3.6,52.2,29.1,68.1,37.4c11.4-14,18.6-24.4,18.7-27.4v-1.4c0.2-8,0.9-32,7.6-41.4l-0.9-0.4
			c-20.5-7.6-54.9-20.4-60.5-22.5c-2.3-0.9-5.8-2.7-9.9-4.6c-10.3-5-24.1-11.8-33.1-13.2C836.7,305,833.6,316.5,829.9,327.6z"/>
	</g>
	<g>
		<path class="st12" d="M957.6,293c-0.5,3.1-1.8,9.9-3.5,19.4c-1.5,7.8-4.6,15.1-9.1,21.6c-19.4-7.2-56.7-21.1-62.5-23.3
			c-7.9-3.1-31.5-16.4-44-18c26.2-3.6,27.8-4.5,31.6-5.7c1.8-0.5,7.1-8,13.5-17.9c6.1,3.1,18.1,8.9,24.1,10.8
			C914.5,281.7,946.3,290.1,957.6,293z"/>
		<path class="st9" d="M945.4,334.9l-0.6-0.3c-19.5-7.2-56.8-21.1-62.5-23.3c-2.3-0.9-5.9-2.7-10.2-4.8
			c-10.5-5.1-24.8-12.1-33.7-13.3l-6.6-0.8l6.6-0.9c24.3-3.4,27.4-4.3,30.7-5.5l0.8-0.3c0.9-0.3,3.9-3.5,13-17.6l0.4-0.6l0.7,0.4
			c5.1,2.6,17.9,8.8,24,10.7c4.6,1.4,21.8,6,49.8,13.3l0.8,0.2l-0.2,0.8c-0.6,3.4-2,11.3-3.5,19.4c-1.5,8-4.6,15.3-9.3,21.9
			L945.4,334.9z M843.6,292.7c8.8,2.4,20.3,8,29.2,12.4c4.2,2,7.8,3.8,10.1,4.7c5.7,2.1,42.2,15.8,61.9,23.1
			c4.2-6.3,7.2-13.2,8.6-20.6c1.4-7.4,2.7-14.8,3.4-18.6c-27.6-7.2-44.6-11.8-49.1-13.2c-6-1.9-18-7.7-23.6-10.5
			c-9.7,14.8-12.2,17.2-13.5,17.6l-0.8,0.3C866.4,289,863.6,289.9,843.6,292.7z"/>
	</g>
	<g>
		<path class="st12" d="M998.3,198c-1.3,3.6-2.8,7.3-4.2,11.1c-3,9-13.7,15.6-23.7,36.9c-6.4,14.2-10.5,29.4-12.4,44.9
			c0,0-0.1,0.7-0.4,2c-11.4-2.9-43.2-11.2-49.9-13.3c-6-1.9-18-7.7-24.1-10.8c13.3-20.2,31-50.5,31-50.5s-11.5-18.1-26.4-41.8
			c9.5,0.4,42.5,1.5,44.7,1.5c0.3,0,0.4,0.1,0.7,0.1c2.5,0.8,8.2,4.8,12.6,7.6c1.4,1,2.9,1.9,4.5,2.6c3,1.1,17.1-0.2,22.2,0
			c0.4,0,0.8,0,1.1,0C976.4,188.6,990,194.3,998.3,198z"/>
		<path class="st9" d="M958.4,294.1l-1-0.3c-28.1-7.3-45.3-11.9-50-13.3c-6.3-1.9-19.1-8.2-24.3-10.8l-0.9-0.4l0.5-0.8
			c12.2-18.6,28.4-46.1,30.7-50c-1.9-2.9-12.5-19.8-26.2-41.4l-0.9-1.4l1.7,0.1c15.6,0.5,42.8,1.5,44.7,1.5c0.4,0,0.7,0.1,1,0.2
			c1.9,0.6,5.9,3.2,9.7,5.7c1.1,0.7,2.1,1.4,3.1,2c1.4,1,2.8,1.8,4.4,2.5c1.7,0.7,8.5,0.4,13.9,0.1c3.2-0.2,6.2-0.3,8-0.2
			c0.4,0,0.7,0,1.1,0c1.9,0.3,10,3.4,24.6,9.7l0.8,0.4l-0.3,0.8c-0.5,1.3-1,2.7-1.5,4.1c-0.9,2.3-1.9,4.7-2.7,7.2
			c-1.3,4.1-4.2,7.6-7.7,12c-4.6,5.8-10.4,13-16,25c-6.3,14.1-10.4,29.2-12.4,44.6c0,0.1-0.1,0.7-0.4,2L958.4,294.1z M884.8,268.5
			c5.7,2.8,17.3,8.5,23.2,10.3c4.6,1.4,21.5,5.9,49,13.1c0.1-0.7,0.2-1.1,0.2-1.1c1.9-15.6,6.1-30.8,12.5-45.1
			c5.7-12.2,11.6-19.5,16.3-25.4c3.4-4.3,6.2-7.8,7.4-11.5c0.8-2.5,1.8-4.9,2.7-7.2c0.4-1.1,0.8-2.1,1.2-3.2
			c-17.1-7.3-22.1-9.1-23.2-9.2c-0.3,0-0.6,0-1,0c-1.9-0.1-4.9,0.1-8,0.2c-7.3,0.4-12.6,0.5-14.6-0.3c-1.7-0.8-3.2-1.7-4.7-2.7
			c-1-0.6-2-1.3-3.1-1.9c-3.5-2.3-7.5-4.9-9.3-5.5c-0.2-0.1-0.3-0.1-0.4-0.1c-2.2,0-35.1-1.1-43-1.4c14.5,23,25.5,40.4,25.5,40.4
			l0.3,0.4l-0.3,0.4C915.1,219.1,897.9,248.4,884.8,268.5z"/>
	</g>
	<g>
		<path class="st12" d="M956.3-8.1c-12.5-0.9-15.7,11.3-58.5,20.9l-1.1,0.3c-31.5,6.9-63.4,15.4-78.8,19.5L799-2.3L764-67
			c14.9-2.7,27.6,4.4,30.1,5.3c2.6,0.9,16.8,3.9,40.7,3.3h3.5c7.5,12.3,24,39.1,24.7,39.1s40.9-11.4,59.6-16.6L956.3-8.1z"/>
		<path class="st9" d="M817.5,33.7L762.7-67.6l1.2-0.2c13.1-2.4,24.2,2.6,28.9,4.6c0.7,0.4,1.2,0.5,1.6,0.7
			c2.5,0.8,16.5,3.8,40.4,3.3h4.1l0.3,0.4c10.5,17.1,22.3,36.1,24.3,38.5c2.9-0.7,24.1-6.7,41.4-11.6c6.6-1.9,12.8-3.6,17.7-4.9
			l0.4-0.1l36.1,30l-2.7-0.2c-5-0.4-8.5,1.5-14.2,4.7c-7.7,4.2-19.4,10.7-44,16.2l-1.1,0.3c-28.8,6.3-58.8,14.1-78.8,19.4
			L817.5,33.7z M765.4-66.3l52.9,97.9c20.1-5.5,49.7-13.2,78.1-19.4l1.1-0.3c24.4-5.5,36-11.8,43.6-16c4.9-2.7,8.4-4.6,12.7-4.9
			L922.5-35c-4.8,1.3-10.8,3-17.2,4.9c-33.3,9.4-41.6,11.7-42.2,11.7c-0.6,0-1.4,0-25.3-39.1h-2.9c-24.2,0.5-38.5-2.5-41-3.4
			c-0.4-0.1-1-0.4-1.8-0.7C787.6-63.6,777.4-68.1,765.4-66.3z"/>
	</g>
	<g>
		<path class="st12" d="M1013.1,1.5c-12-2.3-44.2-8.4-55.7-9.5h-1.1l0,0l-33.7-28.1l-35-29.2c1.9-1,4.2-2,6.9-3.1
			c7.1-2.7,32.2-1.3,35.5-0.4s11.5,0,12.5-1c1-1,26.5-0.5,33.6-3c7.1-2.4,15.3-16.3,15.3-16.3s1.2,15.6,3,23.8
			c3.4,13.8,7.5,27.4,12.3,40.8C1009.6-15.9,1011.7-7.3,1013.1,1.5z"/>
		<path class="st9" d="M1014.1,2.6l-1.2-0.3c-13-2.5-44.3-8.4-55.6-9.5h-1.4l-0.3-0.2l-69.7-58.2l1.2-0.6c1.9-0.9,4.2-2,6.9-3.1
			c7.4-2.9,32.7-1.4,36.1-0.4c3.1,0.9,10.7,0,11.7-0.7c0.5-0.5,1.8-0.6,10.4-1c8.1-0.4,19.3-0.8,23.5-2.2
			c6.7-2.3,14.7-15.7,14.8-15.8l1.4-2.4l0.3,2.7c0,0.2,1.3,15.6,3,23.6c3.4,13.7,7.5,27.4,12.3,40.7c2.9,8.4,5.1,17.1,6.5,26
			L1014.1,2.6z M956.6-8.8h0.8c11,1.1,40.9,6.6,54.6,9.3c-1.3-8.3-3.4-16.5-6.2-24.5c-4.8-13.3-8.9-27.1-12.4-40.9
			c-1.3-6.1-2.3-16.4-2.8-21.2c-2.7,4.1-8.7,12.5-14.3,14.4c-4.4,1.5-15.7,1.9-24,2.3c-4.2,0.2-8.6,0.4-9.5,0.6
			c-1.7,1.2-10,1.9-13.2,1.1c-3.4-1-28.4-2.2-35,0.4c-2.1,0.8-4,1.7-5.6,2.5L956.6-8.8z"/>
	</g>
	<g>
		<path class="st12" d="M1011.5,61.9c-0.4,1.9-0.9,3.9-1.7,5.8c-6.3,0.3-18.8,2.3-36.2,12.8c-1.2,0.8-2.4,1.5-3.5,2.2l-2.7-52.3
			c11.8,1.3,31.1,3.3,41.4,4.3C1007.2,43.5,1013.3,49.9,1011.5,61.9z"/>
		<path class="st9" d="M969.3,84.2l-2.7-55l1.1,0.1c11.8,1.3,31,3.3,41.4,4.3l1,0.1l-0.2,1c-0.8,4,0.2,7.6,1.1,11.4
			c1.1,4.4,2.4,9.4,1.4,15.8l0,0c-0.4,2-0.9,4.1-1.7,6l-0.2,0.5h-0.5c-5.9,0.2-18.4,2.1-35.8,12.6l-0.7,0.4c-1,0.6-1.9,1.1-2.7,1.8
			L969.3,84.2z M968.3,31.3l2.5,49.8c0.5-0.4,1-0.6,1.5-1l0.7-0.4c17.2-10.4,29.8-12.5,36.1-12.9c0.6-1.7,1.1-3.4,1.4-5
			c1-6.1-0.2-10.7-1.3-15.1c-1-3.7-1.9-7.2-1.3-11.2C997.6,34.4,979.9,32.5,968.3,31.3z"/>
	</g>
	<g>
		<path class="st12" d="M1009.8,67.6c-3.7,9.2-12,16.3-18,19.6c-7.2,4.1-7.9,8.1-5.3,14.9c0.5,1.4,1.1,2.7,1.8,4.3
			c-2.9,2-9.3,6.4-13.3,8.8c-0.9,0.6-1.9,1.1-2.9,1.6c-3.7,1.5-8,3.4-7.6,0.9c0.4-2.4,2.3-9.3,0-8.3c-1.6,0.7-8.3,3.9-12.3,5.8
			l-0.7-1.3l0,0c-1.9-3.2-4.2-6.9-7-10.9c4.2-4.8,11.9-11.7,25.7-20.3c1.1-0.7,2.3-1.4,3.5-2.2C991,69.9,1003.6,67.9,1009.8,67.6z"
			/>
		<path class="st9" d="M965.5,119.8c-0.5,0-1.1-0.1-1.4-0.4c-0.4-0.3-0.7-0.8-0.5-1.8c0.1-0.4,0.2-1.1,0.4-1.8
			c0.3-1.4,1-4.5,0.7-5.6c-1.5,0.6-5.4,2.5-8.9,4.2l-4,1.9l-1.1-2c-1.9-3.2-4.2-6.9-6.9-10.8l-0.4-0.5l0.4-0.5
			c5.7-6.4,14.4-13.3,25.9-20.5c0.7-0.4,1.3-0.9,2-1.3l1.5-0.9c17.7-10.8,30.6-12.8,36.6-13l1.3-0.1l-0.5,1.2
			c-3.8,9.4-12.3,16.6-18.5,20.1c-7.1,4-7.2,7.8-4.9,13.9c0.5,1.3,1.1,2.7,1.8,4.2l0.3,0.7l-0.6,0.4c-3.2,2.2-9.4,6.4-13.4,8.8
			c-1,0.6-1.9,1.1-3,1.6l-0.4,0.2C969,119,966.9,119.8,965.5,119.8z M964.8,108.5c0.4,0,0.7,0.2,0.9,0.4c1.1,1,0.7,3.5-0.1,7.4
			c-0.2,0.7-0.3,1.2-0.4,1.7c0,0.2,0,0.2,0,0.2c0.6,0.3,4.1-1.1,5.9-1.9l0.4-0.2c1-0.4,1.9-0.9,2.7-1.5c3.8-2.3,9.5-6.1,12.7-8.4
			c-0.5-1.3-1.1-2.6-1.5-3.7c-2.6-6.7-2.5-11.5,5.7-16c5.6-3.1,13.3-9.6,17.1-17.9c-6.4,0.4-18.3,2.8-34.4,12.6l-1.5,0.9
			c-0.7,0.4-1.3,0.9-2,1.2c-11,7-19.5,13.6-25.1,19.7c2.6,3.8,4.9,7.2,6.6,10.3l0.4,0.5l2.5-1.1c3.7-1.8,7.9-3.8,9.1-4.2
			C964.4,108.5,964.5,108.5,964.8,108.5z"/>
	</g>
	<g>
		<path class="st12" d="M1000.8,163.7c-3.4-0.4-6.8-1.1-10.2-2c-2-0.4-13.1-0.2-18.1,0c0-8-0.5-20.9,1.4-27c0.5-1.7,0.9-3.4,1.1-5
			c0.4-4.8,0.4-9.5-0.1-14.3c4.1-2.4,10.4-6.7,13.3-8.8c4.2,10.3,7.2,20.9,9,31.8C998.8,146.7,1000,155.2,1000.8,163.7z"/>
		<path class="st9" d="M1001.8,164.6l-1.1-0.2c-3.4-0.4-6.9-1.1-10.3-2c-1.7-0.3-11.7-0.2-17.9,0h-0.9v-0.9c0-1.3,0-2.7,0-4.3
			c-0.1-8-0.2-17.8,1.5-23c0.4-1.6,0.8-3.3,1-4.9c0.4-4.7,0.4-9.4-0.1-14.1l-0.1-0.5l0.5-0.3c4.1-2.4,10.3-6.6,13.3-8.7l0.9-0.6
			l0.4,1.1c4.2,10.3,7.2,21,9,32c1.6,8.4,2.8,16.9,3.6,25.5L1001.8,164.6z M984.4,160.6c2.9,0,5.4,0.1,6.3,0.2
			c3,0.8,6.1,1.4,9.1,1.9c-0.8-8-1.9-16.2-3.5-24.1c-1.8-10.4-4.7-20.8-8.6-30.7c-3.1,2.2-8.3,5.7-12,7.9c0.5,4.6,0.5,9.3,0,13.9
			c-0.2,1.8-0.5,3.5-1.1,5.2c-1.6,4.9-1.5,14.6-1.4,22.4c0,1.2,0,2.4,0,3.4C976.3,160.7,980.8,160.6,984.4,160.6z"/>
	</g>
	<g>
		<path class="st12" d="M1001.7,183.6c-0.3,4.9-1.4,9.7-3.4,14.3c-8.3-3.5-21.9-9.4-24.3-9.6c-0.4,0-0.8,0-1.1,0
			c0-4.1-0.2-9.7-1.1-11.1c-0.5-0.9-0.8-1.9-1-2.9c-0.4-2.3-0.1-5,1-6.1c0.5-0.5,0.6-3,0.6-6.5c5.1-0.1,16.2-0.3,18.1,0
			c3.4,0.9,6.7,1.6,10.2,2C1001.6,172.6,1001.7,179.2,1001.7,183.6z"/>
		<path class="st9" d="M998.8,199.1l-3.4-1.4c-7.7-3.3-19.4-8.2-21.5-8.5c-0.3,0-0.6,0-1,0l-1,0.1v-1c0-8.6-0.7-10.3-0.9-10.6
			c-0.6-1.1-1-2.1-1.1-3.3c-0.4-2.4-0.2-5.5,1.2-6.9c0.2-0.4,0.4-2.4,0.4-5.8v-0.9h0.9c3.7-0.1,16.1-0.3,18.3,0
			c3.4,0.9,6.8,1.6,10.2,2l0.7,0.1l0.1,0.7c0.6,7,0.9,13.5,0.9,20.1v0.1c-0.3,5-1.4,9.9-3.4,14.6L998.8,199.1z M973.7,187.4
			c0.1,0,0.2,0,0.4,0c2.2,0.3,11.3,4.1,22,8.6l1.8,0.7c1.7-4.2,2.7-8.7,2.9-13.2c0-6.2-0.3-12.5-0.8-19.2c-3.3-0.4-6.5-1.1-9.6-1.9
			c-1.5-0.2-9.6-0.1-17.1,0c0,4.2-0.3,5.6-0.9,6.2c-0.8,0.8-1.1,3.1-0.7,5.4c0.1,1,0.4,1.9,0.9,2.7
			C972.9,177.2,973.7,178.5,973.7,187.4z"/>
	</g>
	<g>
		<path class="st12" d="M839.2,287.6c-0.1,1.4-0.4,3.1-0.7,4.9l0,0c-10,1.4-23.5,3.2-42,5.5c-18.1,2.3-40.5,6.2-63.4,10.6
			c-0.4-2.8-0.5-5-0.7-6.3c-1-9.5-2-49.3-6.5-75.7l112.8-35.4C839.5,227.6,840.4,275.6,839.2,287.6z"/>
		<path class="st9" d="M732.3,309.6l-0.1-1c-0.4-2.9-0.5-5-0.7-6.3c-0.3-2.7-0.5-7.8-0.9-14.1c-1-16.9-2.4-42.5-5.6-61.5l-0.1-0.8
			l114.6-36v1.1c0.8,35.6,1.7,84.4,0.5,96.4c-0.1,1.3-0.4,2.8-0.7,5l-0.1,0.6l-0.6,0.1c-10.8,1.5-24.5,3.3-42.1,5.5
			c-16.7,2.1-38,5.7-63.3,10.5L732.3,309.6z M726.9,227.2c3.2,19,4.6,44.2,5.5,60.9c0.4,6.4,0.6,11.4,0.9,14.1
			c0.1,1.1,0.3,2.9,0.5,5.3c25-4.8,46-8.3,62.5-10.4c17.2-2.2,30.8-4,41.4-5.4c0.4-1.8,0.5-3.1,0.6-4.2l0,0
			c1.1-11.8,0.3-59.6-0.5-95.1L726.9,227.2z"/>
	</g>
	<g>
		<path class="st12" d="M838.6,191.2l-112.8,35.4c-0.9-6.5-2.6-12.7-5-18.7c-9-18.8-31.7-64.2-31.7-68.8c0-0.4,0-0.7-0.1-1
			c10.7-1.3,14.3-3.9,16.8-6.7c3-3.5,7.2-10.3,13-10.3s12.5,9.2,17,9.2c3.1,0,11.8-0.5,17-0.9c2,2.7,4.5,4.8,7.3,6.5
			c18.4,8.8,16.4,6.6,22.9,1.9c6.5-4.7,13.3-10.3,23.5-3.8s9,6.7,10.3,5.2c1.3-1.6,4.8-5.2,10.1,1.5c4.7,6,7.5,19.2,11,20.2
			C838,168.4,838.3,179.2,838.6,191.2z"/>
		<path class="st9" d="M725,227.7l-0.2-1.1c-0.9-6.4-2.6-12.6-5-18.6c-2-4.2-4.8-9.9-7.8-16.2c-13.6-27.8-24-49.5-24-53
			c0-0.3,0-0.5-0.1-0.8l-0.3-1l1-0.1c11-1.4,14.1-4.1,16.3-6.5c0.4-0.5,1-1.1,1.4-1.8c2.9-3.7,7-8.7,12.2-8.7c3.3,0,6.7,2.7,10,5.2
			c2.6,1.9,5.1,4,7,4c3,0,11.9-0.5,17-0.9h0.4l0.3,0.4c1.9,2.6,4.3,4.6,7.1,6.2c15.4,7.3,15.9,6.9,19.7,3.8c0.6-0.5,1.4-1.1,2.3-1.8
			l0.7-0.5c6.3-4.6,13.4-9.9,23.8-3.4c3.4,2.1,5.5,3.5,6.9,4.5c0.9,0.6,1.5,1.1,1.9,1.2l0.1-0.1l0.3-0.3c0.5-0.7,2.2-2.8,4.9-2.7
			c2.1,0,4.3,1.4,6.5,4.2c2.2,2.8,4.1,7.2,5.7,11.1c1.6,3.9,3.4,8.3,4.9,8.7l0.6,0.2l0.2,6.3c0.2,7,0.4,15.6,0.7,24.8v0.6l-0.6,0.2
			L725,227.7z M689.9,138.7c0,0.1,0,0.2,0,0.3c0,3.4,14.3,32.8,23.8,52.2c3,6.3,5.8,11.9,7.9,16.2c2.4,5.8,4.1,11.8,4.9,17.9
			l111.2-34.8c-0.2-9-0.4-17.3-0.7-24.1l-0.2-5.1c-1.9-1.1-3.5-4.9-5.4-9.5c-1.6-3.8-3.4-8-5.4-10.7c-1.9-2.3-3.6-3.5-5.1-3.5
			c-1.2-0.1-2.4,0.7-3.5,2l-0.2,0.3c-1.1,1.4-1.9,1-4.3-0.8c-1.4-1-3.4-2.4-6.9-4.5c-9.4-5.9-15.7-1.2-21.8,3.3l-0.7,0.5
			c-0.9,0.6-1.6,1.2-2.2,1.8c-4.4,3.7-5.7,4.1-21.6-3.5c-2.9-1.7-5.3-3.8-7.3-6.3c-6.1,0.4-13.7,0.8-16.6,0.8c-2.4,0-5.1-2.1-8-4.3
			c-3.1-2.4-6.2-4.9-8.9-4.9c-4.4,0-8.1,4.7-10.8,8.1c-0.5,0.7-1.1,1.3-1.5,1.9C703.6,135,699.8,137.4,689.9,138.7z"/>
	</g>
	<g>
		<path class="st12" d="M914.6,218.4c0,0-17.8,30.2-31,50.5c-6.5,9.8-11.8,17.3-13.5,17.9c-3.8,1.2-5.3,2.1-31.6,5.7l0,0
			c0.4-1.9,0.6-3.5,0.7-4.9c1.1-12,0.3-60-0.6-96.3c-0.3-12-0.5-22.8-0.8-30.5c0.4,0.1,0.9,0,1.3-0.2c4.2-2.5,9-7.7,16.4-5
			c6.5,2.3,11.9,2,17.8-2.7c5.1,8.2,10.2,16.4,14.9,23.9C903.1,200.3,914.6,218.4,914.6,218.4z"/>
		<path class="st9" d="M837.5,293.6l0.2-1.2c0.4-2.1,0.6-3.6,0.7-4.9c0.9-9.4,0.7-41.7-0.6-96.2c-0.3-12-0.5-22.8-0.8-30.5v-1.1
			l1.1,0.3c0.3,0.1,0.4,0,0.6-0.1c0.7-0.4,1.5-1,2.3-1.6c3.7-2.7,8.4-5.9,14.8-3.5c6.7,2.4,11.8,1.7,16.9-2.6l0.8-0.6l0.5,0.9
			c5.1,8.2,10.2,16.4,14.9,23.9c14.7,23.4,26.2,41.6,26.3,41.8l0.3,0.4l-0.3,0.4c-0.2,0.3-17.9,30.5-31,50.6
			c-10.1,15.5-12.7,17.9-14,18.3l-0.8,0.3c-3.4,1.1-6.5,2.1-30.9,5.5L837.5,293.6z M838.8,161.6c0.3,7.7,0.5,18,0.8,29.6
			c1.3,54.6,1.5,87.1,0.6,96.4c-0.1,1.1-0.3,2.3-0.5,3.8c23.2-3.2,26.2-4.2,29.4-5.3l0.8-0.3c0.6-0.2,3.1-2.3,13-17.6
			c12.2-18.6,28.4-46.1,30.7-50c-1.9-2.9-12.6-20-26-41.4c-4.6-7.2-9.5-15-14.4-23c-5.4,4.1-11,4.8-17.9,2.3
			c-5.6-2-9.6,0.8-13.3,3.4c-0.8,0.6-1.6,1.1-2.4,1.6C839.3,161.5,839,161.5,838.8,161.6z"/>
	</g>
	<g>
		<path class="st12" d="M873.3,152.7c-5.8,4.8-11.3,5-17.8,2.7c-7.3-2.7-12.3,2.6-16.4,5c-0.4,0.3-0.9,0.4-1.3,0.2
			c-3.5-1-6.4-14.1-11-20.2c-5.3-6.7-8.8-3.1-10.1-1.5c-1.2,1.6,0,1.2-10.3-5.2s-17.1-0.9-23.5,3.8c-6.5,4.7-4.5,6.8-22.9-1.9
			c-2.8-1.6-5.3-3.8-7.3-6.5c-14.3-17-33-59.6-41.2-79.4l1.8-0.4l85.6-51.9l19,35l13.6,25.1c-9.3,0-9.8,3.8-9.8,8.8
			C821.6,69.3,848.5,112.9,873.3,152.7z"/>
		<path class="st9" d="M838.2,161.6c-0.2,0-0.4,0-0.6-0.1c-2.4-0.6-4-4.7-6.1-9.8c-1.6-3.8-3.4-8-5.4-10.7c-1.9-2.4-3.6-3.5-5.2-3.5
			l0,0c-1.2,0-2.4,0.7-3.4,2l-0.2,0.3c-1.1,1.5-1.8,1-4.3-0.7c-1.4-1-3.5-2.4-6.9-4.5c-9.4-5.8-15.7-1.2-21.8,3.3l-0.7,0.5
			c-0.9,0.6-1.5,1.2-2.1,1.7c-4.4,3.6-5.7,4.1-21.7-3.5c-3-1.8-5.6-4-7.7-6.7c-14.6-17.2-33.8-61.4-41.4-79.6l-0.4-1l2.7-0.4
			l86.3-52.3l33.7,62.1h-1.5c-8.4,0-8.9,3-8.9,8c0.3,1.8,9.4,18.1,51.5,85.7l0.4,0.6l-0.6,0.5c-5.7,4.6-11.4,5.5-18.6,2.9
			c-5.6-2-9.7,0.8-13.3,3.4c-0.8,0.6-1.6,1.1-2.4,1.6C839.1,161.5,838.7,161.6,838.2,161.6z M820.8,135.8
			C820.8,135.8,820.9,135.8,820.8,135.8c2.2,0,4.4,1.4,6.6,4.2c2.2,2.8,4.1,7.2,5.7,11.1c1.6,3.9,3.4,8.3,4.9,8.7
			c0.2,0,0.4,0,0.6-0.1c0.7-0.4,1.5-1,2.3-1.5c3.8-2.7,8.4-5.9,14.9-3.6c6.5,2.3,11.4,1.7,16.4-2.1c-45.6-73.2-51.5-84.4-51.5-86.1
			c0-5,0.7-9.2,9.3-9.6L798.7-1l-85,51.5l-0.9,0.2c7.8,18.7,26.5,61.4,40.7,78.1c1.9,2.6,4.3,4.7,7.1,6.2
			c15.4,7.3,15.9,6.8,19.7,3.7c0.6-0.5,1.3-1.1,2.2-1.8l0.7-0.5c6.3-4.6,13.4-9.9,23.8-3.4c3.4,2.1,5.6,3.6,7,4.6
			c0.8,0.5,1.5,1.1,1.9,1.2l0.1-0.1l0.2-0.3C817.5,136.7,819.2,135.8,820.8,135.8z"/>
	</g>
	<g>
		<path class="st12" d="M911.1,57.8c-16.4,0-69.8,0.2-78.5,0h-1.1l-13.6-25.2c15.6-4.2,47.4-12.6,78.7-19.5l1.1-0.3
			C899.8,22.2,905.3,45.5,911.1,57.8z"/>
		<path class="st9" d="M853.2,58.8c-9.8,0-17.8,0-20.7-0.1h-1.6l-14.3-26.6l1.1-0.3c20.1-5.4,50-13.3,78.8-19.5l1.9-0.4l0.2,0.9
			c2.1,9.4,7.6,32.6,13.3,44.7l0.6,1.2h-1.4c-4.7,0-12.4,0-21.2,0C878.3,58.7,864.5,58.8,853.2,58.8z M832.1,56.9h0.5
			c6.2,0.1,35.7,0.1,57.3,0c8,0,15.1,0,19.9,0c-5.4-12.2-10.4-33.4-12.6-43l-0.2,0.1c-28.3,6.2-57.6,13.8-77.7,19.3L832.1,56.9z"/>
	</g>
	<g>
		<path class="st12" d="M1008.9,34.5C1008.9,34.5,1008.9,34.5,1008.9,34.5c-10.3-1-29.7-2.9-41.4-4.2c-5.6-0.6-9.4-1.1-9.8-1.1
			c-1.3-0.4-0.5-25.5-0.2-36.2c0-0.4,0-0.6,0-0.9c11.4,1.1,43.7,7.2,55.7,9.5c0.5,2.8,1.1,5.8,1.6,8.8
			C1017,23.6,1010.6,25.5,1008.9,34.5z"/>
		<path class="st9" d="M1009.8,35.6l-1-0.1c-10.4-1.1-29.7-3-41.4-4.3c-4.2-0.4-9.4-1.1-9.9-1.1c-1-0.3-2.2-0.5-0.9-37.1v-1.8l1,0.1
			c11.3,1.1,42.8,7,55.8,9.5l0.6,0.1l0.1,0.6c0.3,1.6,0.5,3.2,0.9,4.8c0.3,1.3,0.4,2.7,0.7,4.1c1.6,8.7-0.6,12.9-2.7,16.9
			c-1.1,2.2-2.4,4.4-3,7.5L1009.8,35.6L1009.8,35.6z M958.2,28.4c1,0.1,3.7,0.4,9.4,1.1c11.5,1.2,30,3.2,40.7,4.2
			c0.7-3,1.9-5.3,3-7.4c2.1-3.9,4.1-7.6,2.6-15.7c-0.3-1.3-0.4-2.7-0.7-4.1c-0.3-1.4-0.5-2.8-0.7-4.2c-12.9-2.5-42.2-8-54-9.3
			C957.5,16.3,957.6,26.4,958.2,28.4z"/>
	</g>
	<g>
		<path class="st12" d="M944.3,103c-1.9,1.9-3.4,4.2-4.7,6.5c-0.9,1.8-2.5,19.9-3.8,37.6c-1,12.6-1.8,25.1-2.2,31.1
			c-0.2-0.1-0.4-0.1-0.7-0.1c-2.2,0-35.2-1.1-44.7-1.5c-4.7-7.5-9.8-15.6-14.9-23.9c-24.8-39.8-51.6-83.4-51.6-86.3
			c0-4.9,0.6-8.8,9.8-8.8h1.1c8.7,0.2,62,0,78.5,0c0.9,2,2,4,3.4,5.7C920.3,70.8,934.4,88.5,944.3,103z"/>
		<path class="st9" d="M934.4,179.4l-1.1-0.4c-0.1-0.1-0.3-0.1-0.4-0.1c-2.3,0-37.8-1.2-44.7-1.5h-0.4l-0.3-0.4
			c-4.7-7.5-9.8-15.6-14.9-23.9c-51.9-83.1-51.9-85.8-51.9-86.8c0-5.3,0.8-9.7,10.7-9.7h1.1c6.2,0.1,35.7,0.1,57.3,0
			c8.8,0,16.5,0,21.2,0h0.6l0.3,0.5c0.9,1.9,1.9,3.9,3.3,5.6c6,7.6,20.1,25.1,30,39.6l0.4,0.6l-0.4,0.5c-1.8,1.9-3.3,4.1-4.5,6.4
			c-0.3,0.4-1.2,4.6-3.7,37.2c-0.6,8.2-1.1,16.4-1.6,22.6c-0.3,3.4-0.4,6.4-0.6,8.5L934.4,179.4z M888.7,175.7
			c11.4,0.4,41,1.4,44.1,1.5c0.2-2,0.4-4.6,0.5-7.5c0.4-6.4,1-14.4,1.6-22.6c2.7-35.4,3.6-37.3,4-37.9c1.2-2.2,2.7-4.3,4.3-6.2
			c-9.8-14.3-23.5-31.5-29.4-38.9c-1.3-1.8-2.5-3.6-3.3-5.6c-4.8,0-12.2,0-20.7,0c-21.6,0-51.1,0.1-57.3,0h-1.1c-8.4,0-8.9,3-8.9,8
			c0.2,1.5,7.2,14.7,51.5,85.8C879.1,160.4,884.1,168.3,888.7,175.7z"/>
	</g>
	<g>
		<path class="st12" d="M970,82.7c-13.8,8.7-21.5,15.6-25.7,20.3c-9.9-14.6-24-32.3-30-39.4c-1.3-1.8-2.5-3.7-3.4-5.7
			c-5.7-12.3-11.2-35.6-13.3-44.9C940.5,3.3,943.8-8.8,956.2-8l0,0l1.1,1c-0.4,10.8-1.1,35.9,0.2,36.2c0.4,0,4.3,0.5,9.8,1.1
			L970,82.7z"/>
		<path class="st9" d="M944.2,104.5l-0.6-1c-10.5-15.4-25.5-34-29.9-39.4c-1.4-1.9-2.6-3.9-3.4-5.9c-5.7-12.4-11.2-35.6-13.3-45.1
			l-0.2-0.9l0.9-0.2c24.5-5.5,36.1-11.8,43.7-16.1c5.8-3.2,9.6-5.3,15.2-4.9h0.3l1.7,1.4v0.4c-0.8,23.2-0.6,33.3-0.2,35.4
			c0.4,0,1.1,0.1,2.2,0.3c1.8,0.2,4.2,0.5,7.2,0.8l0.7,0.1L971,83l-0.4,0.3c-11.4,7.2-20,14-25.5,20.2L944.2,104.5z M898.7,13.6
			c2.2,9.9,7.5,32,13.1,43.9c0.9,2,1.9,3.9,3.3,5.6c4.2,5.2,18.8,23.3,29.3,38.5c5.7-6.1,14-12.5,24.7-19.4l-2.6-51.1
			c-2.7-0.3-4.9-0.5-6.5-0.8c-1.2-0.2-2.3-0.3-2.5-0.3h-0.2c-1-0.3-2.1-0.5-0.9-36.7L956-7.2c-4.9-0.3-8.3,1.7-14,4.7
			C934.4,1.8,922.8,8,898.7,13.6z"/>
	</g>
	<g>
		<path class="st12" d="M951.3,113.9L951.3,113.9c-0.2,0.5-0.4,1.1-0.4,1.8c-0.4,2.9-1,9-1.5,16.5c-0.4,4.4-0.6,9.2-1,14.2
			l-12.6,0.6c1.3-17.6,2.9-35.7,3.8-37.6c1.2-2.4,2.8-4.6,4.7-6.5C947.1,106.9,949.4,110.6,951.3,113.9z"/>
		<path class="st9" d="M934.8,147.8l0.1-1c2.7-35.4,3.6-37.3,3.9-37.8c1.3-2.5,2.9-4.7,4.8-6.7l0.7-0.8l0.6,0.9
			c2.6,3.6,4.9,7.3,7,11l0.2,0.4l-0.2,0.4c-0.2,0.5-0.4,1-0.4,1.5c-0.4,2.7-0.9,7.9-1.5,16.5c-0.4,4.4-0.6,9.2-1,14.2l-0.1,0.8
			L934.8,147.8z M944.2,104.4c-1.5,1.7-2.7,3.5-3.8,5.5c-0.4,0.6-1.3,5.4-3.6,36.2l10.8-0.5c0.3-4.7,0.6-9.3,0.9-13.4
			c0.6-8.7,1.1-14,1.5-16.6c0.1-0.5,0.2-1.1,0.4-1.5C948.5,110.7,946.4,107.5,944.2,104.4z"/>
	</g>
	<g>
		<path class="st12" d="M974.9,129.6c-2.1,0.4-5.3,1.2-7.4,1.9c-2.7,0.9-13.8,0.9-18.1,0.8c0.5-7.5,1.1-13.6,1.5-16.5l1.1-0.5
			c4-1.9,10.7-5.1,12.3-5.8c2.3-1,0.4,5.9,0,8.3c-0.4,2.4,3.9,0.6,7.6-0.9c1-0.4,1.9-1,2.9-1.6C975.3,120,975.4,124.8,974.9,129.6z"
			/>
		<path class="st9" d="M953.5,133.2c-1.9,0-3.4,0-4.2,0h-1l0.1-1c0.6-8.7,1.1-14,1.5-16.6l0.1-0.4l1.6-0.7
			c7.1-3.4,11.1-5.3,12.4-5.8c0.8-0.4,1.4,0,1.7,0.2c1.1,1,0.7,3.6-0.1,7.5c-0.2,0.6-0.3,1.2-0.4,1.6c0,0.2,0,0.2,0,0.2
			c0.6,0.3,4.1-1.1,6-1.9l0.4-0.2c1-0.4,1.9-0.9,2.7-1.5l1.1-0.8l0.2,1.4c0.5,4.8,0.5,9.6,0.1,14.5l-0.1,0.6l-0.6,0.2
			c-2.1,0.4-5.2,1.1-7.3,1.9C965.4,133,958.4,133.2,953.5,133.2z M950.3,131.4c5.7,0.1,14.6,0,16.9-0.8c2-0.6,4.8-1.3,6.9-1.8
			c0.4-4.1,0.4-8,0-12.1c-0.6,0.4-1.2,0.6-1.9,0.9l-0.4,0.2c-4,1.6-6.5,2.6-7.8,1.6c-0.4-0.3-0.7-0.8-0.5-1.8
			c0.1-0.4,0.2-1.1,0.4-1.7c0.3-1.4,1-4.6,0.7-5.7c-1.5,0.6-5.6,2.6-12.2,5.7l-0.7,0.4C951.3,118.9,950.8,123.7,950.3,131.4z"/>
	</g>
	<g>
		<path class="st12" d="M972.9,188.3c-5.1-0.1-19.2,1.2-22.2,0c-1.5-0.7-3-1.6-4.4-2.6c0.2-2.9,0.4-6.9,0.6-11.6h24
			c0.1,1.1,0.4,2,1,2.9C972.7,178.5,972.9,184.2,972.9,188.3z"/>
		<path class="st9" d="M956.1,189.7c-2.7,0-4.8-0.2-5.8-0.6c-1.6-0.8-3.2-1.7-4.6-2.7l-0.4-0.3v-0.5c0.2-2.9,0.4-7,0.6-11.6l0.1-0.8
			h25.6l0.1,0.8c0.1,1,0.4,1.9,0.9,2.7c0.3,0.4,1.1,1.9,1.1,11.6v0.9h-0.9c-1.7,0-4.5,0.1-7.4,0.3
			C961.8,189.6,958.6,189.7,956.1,189.7z M947.1,185.3c1.2,0.8,2.6,1.6,3.9,2.2c1.8,0.7,9,0.4,14.3,0.2c2.5-0.1,4.9-0.3,6.6-0.3
			c-0.1-7.9-0.7-9.5-0.9-9.8c-0.4-0.8-0.8-1.7-1-2.6h-22.4C947.4,179.1,947.2,182.6,947.1,185.3z"/>
	</g>
	<g>
		<path class="st12" d="M948.5,146.4c-0.6,9.5-1.1,19.6-1.6,27.8c-0.3,4.6-0.4,8.7-0.6,11.6c-4.3-2.7-10.2-6.8-12.6-7.6
			c0.4-6,1.2-18.5,2.2-31.1L948.5,146.4z"/>
		<path class="st9" d="M947,187.4l-1.2-0.8c-1-0.6-2-1.3-3.1-2c-3.5-2.3-7.5-4.9-9.3-5.5l-0.6-0.2v-0.7c0.4-5.7,1.2-17.9,2.2-31.1
			l0.1-0.8l14.4-0.6l-0.1,1c-0.5,7.8-1,16.9-1.6,27.8c-0.3,4.6-0.4,8.7-0.6,11.6L947,187.4z M934.5,177.5c2.1,0.9,5.7,3.2,9.1,5.5
			c0.6,0.4,1.2,0.8,1.8,1.1c0.2-2.7,0.4-6.2,0.5-10.1c0.5-10.4,1.1-19.2,1.5-26.8l-10.9,0.5C935.7,160.3,934.9,171.7,934.5,177.5z"
			/>
	</g>
	<g>
		<path class="st12" d="M973.8,134.6c-1.9,6-1.4,19.1-1.4,27c0,3.5-0.1,6-0.6,6.5c-1.1,1.1-1.3,3.8-1,6.1h-24
			c0.4-8.1,1-18.2,1.6-27.8c0.3-5,0.6-9.8,1-14.2c4.3,0,15.4,0.1,18.1-0.8c2.1-0.7,5.3-1.4,7.4-1.9
			C974.7,131.2,974.4,133,973.8,134.6z"/>
		<path class="st9" d="M971.9,175.1h-26l0.1-1c0.6-10.9,1.1-20,1.6-27.8c0.3-5,0.6-9.8,1-14.2l0.1-0.8h2c4.6,0,14.2,0,16.5-0.7
			c2-0.7,4.9-1.3,7.5-1.9l1.2-0.3l-0.1,1.2c-0.2,1.8-0.5,3.5-1.1,5.2l0,0c-1.5,4.8-1.4,14.2-1.4,21.8c0,1.8,0,3.4,0,4.9
			c0,5.2-0.3,6.5-0.9,7.1c-0.8,0.8-1.1,3.1-0.7,5.4L971.9,175.1z M947.8,173.3h22.1c-0.2-2.2,0.2-4.7,1.3-5.8
			c0.2-0.3,0.4-1.5,0.4-5.8c0-1.5,0-3.1,0-4.9c-0.1-7.8-0.2-17.4,1.5-22.4c0.4-1.2,0.6-2.4,0.9-3.7c-2.2,0.5-4.5,1.1-6.1,1.6
			c-2.5,0.8-10.1,0.8-17.1,0.9h-0.4c-0.3,4.2-0.6,8.7-0.9,13.4C948.8,154,948.3,162.9,947.8,173.3z"/>
	</g>
</g>
</svg>
