<?xml version="1.0" encoding="utf-8"?>
<!-- Generator: Adobe Illustrator 26.0.0, SVG Export Plug-In . SVG Version: 6.00 Build 0)  -->
<svg version="1.1" id="Layer_1" xmlns="http://www.w3.org/2000/svg" xmlns:xlink="http://www.w3.org/1999/xlink" x="0px" y="0px"
	 viewBox="0 0 1116 360" style="enable-background:new 0 0 1116 360;" xml:space="preserve">
<style type="text/css">
	.st0{fill:#ED2F38;}
	.st1{opacity:0.24;}
	.st2{opacity:0.19;fill:#FFFFFF;enable-background:new    ;}
	.st3{font-family:'Poppins-ExtraBold';}
	.st4{font-size:65.16px;}
	.st5{font-size:71.62px;}
	.st6{fill:#FFFFFF;}
	.st7{fill:#46506D;stroke:#1B1E2A;stroke-miterlimit:10;}
	.st8{fill:#1B1E2A;stroke:#1B1E2A;stroke-miterlimit:10;}
	.st9{fill:#1B1E2A;}
	.st10{font-family:'Poppins-Regular';}
	.st11{font-size:69.773px;}
	.st12{fill:#46506D;}
</style>
<rect class="st0" width="1116" height="360"/>
<g>
	<g class="st1">
		<text transform="matrix(1 0 0 1 -142.7365 114.885)" class="st2 st3 st4">DUMAGUETE</text>
		<text transform="matrix(1 0 0 1 286.0935 114.885)" class="st2 st3 st4">DUMAGUETE</text>
	</g>
	<g class="st1">
		<text transform="matrix(1 0 0 1 -396.9865 175.7251)" class="st2 st3 st4">DUMAGUETE</text>
		<text transform="matrix(1 0 0 1 31.8435 175.7251)" class="st2 st3 st4">DUMAGUETE</text>
	</g>
	<g class="st1">
		<text transform="matrix(1 0 0 1 -103.3565 233.265)" class="st2 st3 st4">DUMAGUETE</text>
		<text transform="matrix(1 0 0 1 325.4735 233.265)" class="st2 st3 st4">DUMAGUETE</text>
	</g>
	<g class="st1">
		<text transform="matrix(1 0 0 1 -400.2065 294.2451)" class="st2 st3 st4">DUMAGUETE</text>
		<text transform="matrix(1 0 0 1 28.6235 294.2451)" class="st2 st3 st4">DUMAGUETE</text>
	</g>
	<g class="st1">
		<text transform="matrix(1 0 0 1 -210.7565 354.3751)" class="st2 st3 st4">DUMAGUETE</text>
		<text transform="matrix(1 0 0 1 218.0735 354.3751)" class="st2 st3 st4">DUMAGUETE</text>
	</g>
	<g class="st1">
		<text transform="matrix(1 0 0 1 -51.6165 58.1951)" class="st2 st3 st5">DUMAGUETE</text>
	</g>
	<g class="st1">
		<text transform="matrix(1 0 0 1 714.3794 114.885)" class="st2 st3 st4">DUMAGUETE</text>
	</g>
	<g class="st1">
		<text transform="matrix(1 0 0 1 460.1295 175.725)" class="st2 st3 st4">DUMAGUETE</text>
		<text transform="matrix(1 0 0 1 888.9595 175.725)" class="st2 st3 st4">DUMAGUETE</text>
	</g>
	<g class="st1">
		<text transform="matrix(1 0 0 1 753.7595 233.265)" class="st2 st3 st4">DUMAGUETE</text>
	</g>
	<g class="st1">
		<text transform="matrix(1 0 0 1 456.9094 294.245)" class="st2 st3 st4">DUMAGUETE</text>
		<text transform="matrix(1 0 0 1 885.7395 294.245)" class="st2 st3 st4">DUMAGUETE</text>
	</g>
	<g class="st1">
		<text transform="matrix(1 0 0 1 646.3594 354.375)" class="st2 st3 st4">DUMAGUETE</text>
		<text transform="matrix(1 0 0 1 1075.1895 354.375)" class="st2 st3 st4">DUMAGUETE</text>
	</g>
	<g class="st1">
		<text transform="matrix(1 0 0 1 413.89 58.1955)" class="st2 st3 st5">DUMAGUETE</text>
	</g>
	<g class="st1">
		<text transform="matrix(1 0 0 1 876.7581 58.6968)" class="st2 st3 st5">DUMAGUETE</text>
	</g>
</g>
<g>
	<text transform="matrix(1 0 0 1 184.1554 213.1137)" class="st9 st10 st11">BATINGUEL</text>
	<g>
		<g>
			<path class="st6" d="M171.9,154.9L171.9,154.9L171.9,154.9c0.1-0.4,0.2-0.8,0.4-1.1c0.7-1.2,1-2.6,0.7-4l-0.1-0.7
				c-0.1-0.3-0.1-0.6-0.2-1l0,0c-0.4-2.1-0.7-3.8-1.3-5.2c-0.9-2.5-1.7-5-2.3-7.5c-0.3-1.4-0.5-4.3-0.5-4.3
				c-0.1-0.8-0.7-1.4-1.5-1.3c-0.5,0-0.9,0.3-1.2,0.7c-0.7,1.1-1.7,2.3-2.1,2.5c-0.6,0.2-2.8,0.3-4,0.3c-1.6,0.1-2.2,0.1-2.6,0.3
				c-0.4,0.1-0.8,0.1-1.3,0c-0.8-0.2-5.9-0.6-7.7,0.1c-0.6,0.2-1,0.4-1.4,0.6l0,0l-0.4,0.2c-0.2,0.1-0.5,0.3-0.7,0.4
				c-2.5,0.3-5.1,0.5-7.7,0.6l0,0h-0.7c-4.3,0.1-6.9-0.4-7.2-0.6c-0.1,0-0.1-0.1-0.2-0.1c-0.9-0.4-3.3-1.5-6.2-1l0,0h-0.1l0,0h-0.2
				c-3.1,0.7-4.8,1.5-5.2,1.7c-0.6,0.2-5.1,1.7-7,2.3c-0.5-0.8-1.2-2.2-1.6-3.1c-1.4-2.8-1.7-3.2-2.1-3.5c-0.5-0.3-3.7-1.5-4.6-1.8
				c-4.6-1.6-4.8-1.5-5.4-1.1c-0.4,0.2-0.5,0.4-1.7,2.4c-1,1.7-3.7,6.2-4.6,6.8c-0.5,0.2-2.9,1.1-5.5,2.1c-3.3,1.3-7.5,2.9-10.9,4.2
				c-1.9,0.7-3.2,1.3-4.2,1.7c-0.6,0.2-1,0.4-1.3,0.5c-0.4,0.2-1.5,0.7-1.2,1.8c0.1,0.5,0.2,0.6,1.8,2.4c1.7,1.9,4.8,5.3,5.8,7.2
				c0.5,0.9,1.5,3.2,2.8,6.4l0,0c1,2.5,2.2,5.5,3.2,8.2l0,0c0.9,2.3,1.5,4.2,1.9,5.3c0.7,2.1,3.1,9.8,7,22.2l0,0l1.7,5.5l2,7.1l0,0
				l8.4,29.4c0.2,0.6,0.7,1,1.4,1c0.1,0,0.1,0,0.2,0l17.5-2.1h0.1h0.1l0,0l12.7-2.2l0,0h0.2h0.1l14.6-3.7c0.5-0.1,0.9-0.5,1-1
				c0.5-2,1.9-5.6,3.2-6.6c0.1-0.1,0.2-0.2,0.3-0.2c0,0,0.1-0.1,0.2-0.3l0,0c4-4.8,4-5.8,4-6.3v-0.3c0.1-4.9,0.8-6.5,1.1-7l0.1-0.2
				l0,0c1-1.4,1.7-3,2-4.7c0.4-1.9,0.6-3.2,0.7-3.7l0,0l0,0l0.1-0.4v-0.1c0.3-2.8,1.1-5.5,2.2-8.1c0.8-1.6,1.7-3.1,2.9-4.5
				c0.7-0.9,1.4-1.7,1.7-2.7c0.1-0.4,0.3-0.9,0.5-1.3c0.1-0.3,0.2-0.5,0.3-0.8l0,0c0.4-1,0.7-2.1,0.7-3.2c0-0.9,0-2.2-0.2-3.9l0,0
				c-0.2-1.7-0.4-3.3-0.7-5c-0.4-2.2-0.9-4.3-1.7-6.3l0,0l0,0c-0.1-0.3-0.2-0.5-0.3-0.8c-0.1-0.2-0.2-0.4-0.2-0.7
				c0,0,0.1-0.1,0.5-0.4c1.4-0.8,3.2-2.4,4.1-4.4l0,0c0.2-0.5,0.3-0.9,0.4-1.4c0.2-1.2,0.1-2.4-0.3-3.5
				C171.9,155.8,171.8,155.4,171.9,154.9z"/>
		</g>
		<g>
			<path class="st12" d="M121.8,172.7c-1,0.1-2.7,0.2-3.2,0.2c-0.9,0-2.1-1.7-3.2-1.7s-1.9,1.3-2.5,2c-0.5,0.5-1.2,1-3.2,1.3
				c-0.4,0.1-0.9,0.1-1.5,0.1c-3.2,0.2-4.3-1.3-6.2-1.6c-1.8-0.4-1.9,0.3-3.2,0.6c-1.2,0.3-2.1-1.4-5.4-3.1c-3.3-1.6-3-0.5-4.4-0.2
				c-1.5,0.4-3.8-1.8-4.1-1.7c-0.2,0.1-1.2,1.7-2,3c-1-2.6-2.1-5.6-3.2-8.2c2-0.3,6.4-0.9,14.2-2.2c9.9-1.6,18.3-3.1,20.1-3.4
				C115.5,161.4,119,169.5,121.8,172.7z"/>
			<path class="st9" d="M107.6,174.7c-1.8,0-2.9-0.5-3.8-1c-0.6-0.3-1.1-0.5-1.8-0.7c-1.2-0.2-1.6,0-2.1,0.2c-0.3,0.1-0.6,0.3-1,0.4
				c-0.7,0.2-1.3-0.3-2.3-1c-0.7-0.6-1.8-1.3-3.3-2.1c-2.4-1.2-2.8-0.9-3.4-0.6c-0.2,0.1-0.5,0.3-0.9,0.4c-1.1,0.3-2.5-0.7-3.4-1.3
				c-0.3-0.2-0.6-0.4-0.7-0.4c-0.1,0.1-0.5,0.6-1.9,2.9l-0.2,0.3l-0.1-0.3c-1-2.7-2.2-5.7-3.2-8.2l-0.1-0.2h0.2
				c2-0.3,6.4-0.9,14.2-2.2c10.4-1.7,19.1-3.2,20.1-3.4h0.1l0.1,0.1c1.4,3.4,5.1,11.8,7.8,15.1l0.2,0.3h-0.3
				c-1.1,0.1-2.7,0.2-3.2,0.2s-1-0.4-1.5-0.8c-0.6-0.5-1.2-0.9-1.7-0.9c-0.8,0-1.5,0.9-2,1.5c-0.1,0.1-0.2,0.3-0.3,0.4
				c-0.5,0.6-1.3,1.1-3.3,1.3c-0.4,0.1-0.9,0.1-1.5,0.1C108,174.7,107.8,174.7,107.6,174.7z M101,172.6c0.3,0,0.6,0,1,0.1
				c0.7,0.1,1.2,0.4,1.8,0.7c1,0.5,2.2,1.1,4.3,0.9c0.6,0,1.1-0.1,1.5-0.1c2.1-0.3,2.7-0.8,3.1-1.2c0.1-0.1,0.2-0.2,0.3-0.4
				c0.6-0.7,1.3-1.6,2.3-1.6c0.6,0,1.3,0.5,1.9,1c0.5,0.4,1,0.8,1.3,0.8c0.5,0,2.1-0.1,2.9-0.1c-2.7-3.4-6.2-11.3-7.6-14.8
				c-1.5,0.3-9.9,1.7-20,3.4c-7.6,1.2-12,1.9-14,2.2c1,2.4,2.1,5.2,3,7.7c1.6-2.7,1.8-2.7,1.9-2.8c0.2,0,0.4,0.1,1,0.5
				c0.8,0.6,2.2,1.5,3.1,1.3c0.4-0.1,0.6-0.2,0.8-0.4c0.8-0.4,1.3-0.6,3.7,0.6c1.6,0.8,2.6,1.5,3.4,2.1c0.9,0.7,1.4,1.1,2,0.9
				c0.4-0.1,0.7-0.2,0.9-0.3C100.1,172.7,100.4,172.6,101,172.6z"/>
		</g>
		<g>
			<path class="st12" d="M130.6,147.7l-16.3,9.9l-0.3,0.1c-1.8,0.3-10.2,1.8-20.1,3.4c-7.8,1.3-12.3,1.9-14.2,2.2
				c-1.2-2.9-2.3-5.5-2.9-6.6c-1.6-2.9-7.4-8.8-7.5-9.1s20.7-8.1,22.3-8.8s6.1-9.1,6.5-9.3c0.3-0.2,8.1,2.6,8.6,2.9
				c0.5,0.3,3.5,7.1,4,7.1s7.8-2.4,8.2-2.6c0.4-0.2,1.9-0.9,4.9-1.6c0.1,0,0.1,0,0.2,0L130.6,147.7z"/>
			<path class="st9" d="M79.5,163.4v-0.1c-0.9-2.3-2.2-5.3-2.9-6.5c-1.1-1.9-4.1-5.3-6-7.4c-1.3-1.5-1.5-1.7-1.5-1.8
				c0-0.2-0.1-0.3,16.8-6.8c2.9-1.1,5.1-2,5.6-2.2c1.1-0.5,3.7-4.9,5.2-7.3c0.9-1.5,1.1-1.9,1.3-2c0.5-0.3,8.7,2.9,8.7,2.9
				c0.2,0.1,0.7,1,1.7,3c0.8,1.6,2,3.9,2.3,4.1c0.5,0,7.7-2.4,8.1-2.6c0.2-0.1,1.8-0.9,4.9-1.6c0.1,0,0.2,0,0.2,0h0.1l6.8,12.6
				l-16.5,10l-0.3,0.1c-0.4,0.1-9.3,1.6-20.1,3.4c-7.8,1.3-12.3,1.9-14.2,2.2L79.5,163.4z M69.5,147.6c0.2,0.2,0.8,0.9,1.4,1.6
				c1.8,2,4.9,5.5,6,7.4c0.7,1.2,1.9,4.2,2.8,6.5c2-0.3,6.4-0.9,14.1-2.2c10.8-1.8,19.7-3.3,20.1-3.4l0.3-0.1l16.1-9.8l-6.5-12.1
				h-0.1c-3.1,0.7-4.7,1.5-4.9,1.5c-0.3,0.2-7.7,2.6-8.3,2.6c-0.4,0-0.9-1-2.5-4.2c-0.7-1.3-1.4-2.7-1.6-2.9
				c-0.5-0.3-7.7-2.9-8.4-2.9c-0.1,0.1-0.6,1-1.1,1.8c-2.1,3.5-4.2,7-5.3,7.4c-0.5,0.2-2.7,1.1-5.6,2.2
				C80.2,143.3,70.6,147,69.5,147.6z"/>
		</g>
		<g>
			<path class="st12" d="M116.6,191.2L91.7,199c-2.2-7.2-6-19.3-7-22.2c-0.4-1.2-1.1-3.2-2-5.4c0.8-1.3,1.8-2.9,2-3
				c0.3-0.1,2.6,2.1,4.1,1.7s1.1-1.4,4.4,0.2c3.3,1.6,4.2,3.3,5.4,3.1c1.2-0.3,1.3-0.9,3.2-0.6c1.8,0.4,2.9,1.8,6.2,1.6
				c0.6,0,1.1-0.1,1.5-0.1c0,0.1,0,0.1,0,0.2c0,0.9,4.3,9.5,6,13.1C116.2,188.8,116.5,190,116.6,191.2z"/>
			<path class="st9" d="M91.6,199.2V199c-1.4-4.4-5.9-19-7-22.2c-0.4-1.2-1.1-3.2-2-5.4v-0.1v-0.1c1.8-3,2-3,2.1-3.1
				c0.2,0,0.4,0.1,1,0.5c0.8,0.5,2.2,1.5,3.1,1.2c0.4-0.1,0.6-0.2,0.8-0.4c0.8-0.4,1.3-0.6,3.7,0.6c1.6,0.8,2.6,1.5,3.4,2.1
				c0.9,0.7,1.4,1.1,2,0.9c0.4-0.1,0.7-0.2,0.9-0.3c0.6-0.3,1-0.5,2.3-0.2c0.7,0.1,1.2,0.4,1.8,0.7c1,0.5,2.2,1.1,4.3,0.9
				c0.6,0,1.1-0.1,1.5-0.1h0.1v0.1c0,0.1,0,0.2,0,0.2c0,0.7,2.8,6.5,4.7,10.4c0.5,1,0.9,1.9,1.3,2.6c0.5,1.2,0.8,2.4,1,3.6v0.1h-0.1
				L91.6,199.2z M83,171.4c0.8,2.2,1.5,4.1,1.9,5.3c1.1,3.2,5.5,17.5,6.9,22.1l24.6-7.7c-0.2-1.2-0.5-2.3-0.9-3.4
				c-0.3-0.7-0.8-1.6-1.3-2.6c-2.6-5.3-4.8-9.8-4.8-10.5l0,0c-0.4,0-0.8,0.1-1.3,0.1c-2.1,0.1-3.4-0.5-4.4-1
				c-0.6-0.3-1.1-0.5-1.8-0.7c-1.2-0.2-1.6,0-2.1,0.2c-0.3,0.1-0.6,0.3-1,0.4c-0.7,0.2-1.3-0.3-2.3-1c-0.7-0.6-1.8-1.3-3.3-2.1
				c-2.4-1.2-2.8-0.9-3.4-0.6c-0.2,0.1-0.5,0.3-0.9,0.4c-1.1,0.3-2.5-0.7-3.4-1.3c-0.3-0.2-0.6-0.4-0.7-0.4
				C84.8,168.7,84.4,169.2,83,171.4z"/>
		</g>
		<g>
			<path class="st12" d="M118,206.8c-8.8,1.7-18.2,3.8-22.5,4.8l-2-7.1c0,0-0.7-2.3-1.7-5.5l24.9-7.8c0.9,5,1.1,12.6,1.2,14.4
				C117.9,205.8,117.9,206.3,118,206.8z"/>
			<path class="st9" d="M95.4,211.8l-2.1-7.2l0,0c0,0-0.7-2.3-1.7-5.5v-0.2l25.2-7.9v0.2c0.6,3.6,0.9,8.5,1.1,11.7
				c0.1,1.2,0.1,2.2,0.2,2.7c0,0.2,0.1,0.6,0.1,1.2v0.2H118C108.9,208.8,99.2,211,95.4,211.8L95.4,211.8z M91.9,199.1
				c1,3.2,1.7,5.4,1.7,5.4l2,6.9c3.8-0.9,13.2-3,22.2-4.8c-0.1-0.5-0.1-0.8-0.1-1c-0.1-0.5-0.1-1.5-0.2-2.7c-0.2-3.2-0.4-7.9-1-11.5
				L91.9,199.1z"/>
		</g>
		<g>
			<path class="st12" d="M121.5,238.9L121.5,238.9l-17.6,2.1l-8.4-29.4c4.3-1,13.7-3.1,22.5-4.8c0.5,4.9,2.3,21.2,2.5,25.2
				C120.6,234.3,121,236.6,121.5,238.9z"/>
			<path class="st9" d="M103.8,241.2l-8.5-29.7h0.2c2.9-0.7,12.9-3,22.5-4.8h0.2l0.2,1.8c0.6,6,2.2,20,2.3,23.6
				c0.1,2.3,0.5,4.6,1.1,6.9v0.2l-0.3,0.1L103.8,241.2z M95.7,211.7l8.4,29.1l17.3-2.1c-0.6-2.2-0.9-4.5-1-6.7
				c-0.1-3.6-1.7-17.6-2.3-23.5l-0.2-1.4C108.5,208.8,98.7,211,95.7,211.7z"/>
		</g>
		<g>
			<path class="st12" d="M133.4,219c-0.2,0.6,0.6,13.3,0.9,17.6l-12.7,2.2c-0.6-2.3-0.9-4.6-1.1-6.9c-0.2-4-1.9-20.2-2.5-25.2
				c4.4-0.8,8.6-1.6,12.1-2s6.1-0.8,8-1c-0.5,2.3-1.1,4.5-1.8,6.7C135,214.5,133.5,218.6,133.4,219z"/>
			<path class="st9" d="M121.4,239v-0.1c-0.6-2.3-0.9-4.6-1.1-6.9c-0.1-3.6-1.7-17.6-2.3-23.5l-0.2-1.8h0.2c4.9-0.9,9-1.6,12.1-2
				c3.3-0.4,6-0.8,8-1h0.2v0.2c-0.5,2.3-1.1,4.5-1.8,6.7c-0.9,2.8-1.8,5.6-2.4,7.3c-0.2,0.7-0.4,1.2-0.4,1.3
				c-0.1,0.5,0.4,9.4,0.9,17.5v0.1L121.4,239z M118.2,206.9l0.2,1.5c0.6,6,2.2,19.9,2.3,23.5c0.1,2.3,0.5,4.5,1,6.7l12.4-2.2
				c-0.3-5.2-1-16.9-0.8-17.5l0,0c0-0.1,0.2-0.6,0.4-1.3c0.6-1.7,1.5-4.4,2.4-7.3c0.7-2.1,1.3-4.3,1.7-6.4c-2,0.3-4.6,0.6-7.8,1
				C127,205.3,123,206,118.2,206.9z"/>
		</g>
		<g>
			<path class="st12" d="M153.1,225.3l-0.2,0.3c-2.3,1.6-3.8,7.4-3.8,7.4l-14.6,3.7h-0.2c-0.3-4.3-1-17-0.9-17.6
				c0.1-0.4,1.6-4.5,2.9-8.6c1,2.5,3.1,7,3.7,7.6C140.7,218.7,149.6,223.4,153.1,225.3z"/>
			<path class="st9" d="M134.1,236.8v-0.2c-0.1-1.7-1-16.9-0.8-17.7c0-0.1,0.2-0.7,0.5-1.4c0.6-1.6,1.5-4.4,2.4-7.2l0.1-0.4l0.2,0.4
				c1.4,3.4,3.1,7.1,3.7,7.6c0.8,0.7,10.2,5.7,13.1,7.2l0.2,0.1l-0.4,0.5c-2.2,1.6-3.7,7.2-3.7,7.3v0.1L134.1,236.8z M136.3,210.9
				c-0.8,2.6-1.7,5.2-2.2,6.8c-0.3,0.7-0.4,1.3-0.5,1.4c-0.1,0.5,0.4,10.6,0.8,17.4l14.5-3.7c0.2-0.8,1.7-5.8,3.8-7.4l0.1-0.1
				c-3.8-2-12.2-6.4-13-7.1C139.1,217.5,137,212.6,136.3,210.9z"/>
		</g>
		<g>
			<path class="st12" d="M158.4,211.6c-0.1,0.1-0.1,0.1-0.1,0.1c-1.4,1.8-1.4,7-1.5,8.1c0,0.9-2.9,4.4-3.7,5.4
				c-3.5-1.9-12.4-6.5-13.1-7.2c-0.7-0.6-2.7-5.2-3.7-7.6c0.7-2.2,1.3-4.4,1.8-6.7l0,0c2.4,0.3,6.9,2.8,8.4,3.4
				C147.6,207.6,154.7,210.2,158.4,211.6z"/>
			<path class="st9" d="M153.2,225.5l-0.1-0.1c-3.7-1.9-12.4-6.5-13.1-7.2c-0.7-0.7-2.9-5.6-3.8-7.7v-0.1v-0.1
				c0.7-2.2,1.3-4.4,1.8-6.7v-0.2h0.2c1.7,0.2,4.5,1.6,6.6,2.6c0.8,0.4,1.4,0.7,1.9,0.9c1.1,0.4,7.9,2.9,11.5,4.3l0.6,0.2l-0.1,0.2
				c-0.1,0.1-0.1,0.1-0.1,0.1c-1.2,1.7-1.4,6.2-1.4,7.7v0.3c0,0.9-2.3,3.8-3.7,5.5L153.2,225.5z M136.5,210.4
				c1.8,4.3,3.2,7.1,3.7,7.5c0.7,0.7,9.9,5.5,13,7.1c2.2-2.6,3.5-4.6,3.6-5.2v-0.3c0-1.5,0.2-6.1,1.5-7.9l-0.2-0.1
				c-3.9-1.5-10.4-3.9-11.5-4.3c-0.4-0.2-1.1-0.5-1.9-0.9c-1.9-1-4.6-2.2-6.3-2.5C137.7,206.1,137.1,208.3,136.5,210.4z"/>
		</g>
		<g>
			<path class="st12" d="M160.8,203.8c-0.1,0.6-0.3,1.9-0.7,3.7c-0.3,1.5-0.9,2.9-1.7,4.1c-3.7-1.4-10.8-4-11.9-4.4
				c-1.5-0.6-6-3.1-8.4-3.4c5-0.7,5.3-0.9,6-1.1c0.3-0.1,1.3-1.5,2.6-3.4c1.2,0.6,3.5,1.7,4.6,2
				C152.5,201.7,158.6,203.3,160.8,203.8z"/>
			<path class="st9" d="M158.4,211.8h-0.1c-3.7-1.4-10.8-4-11.9-4.4c-0.4-0.2-1.1-0.5-1.9-0.9c-2-1-4.7-2.3-6.4-2.5l-1.3-0.2
				l1.3-0.2c4.6-0.6,5.2-0.8,5.8-1h0.2c0.2-0.1,0.7-0.7,2.5-3.3l0.1-0.1l0.1,0.1c1,0.5,3.4,1.7,4.6,2c0.9,0.3,4.2,1.1,9.5,2.5h0.1
				v0.2c-0.1,0.7-0.4,2.2-0.7,3.7s-0.9,2.9-1.8,4.2L158.4,211.8z M139.1,203.8c1.7,0.5,3.9,1.5,5.6,2.3c0.8,0.4,1.5,0.7,1.9,0.9
				c1.1,0.4,8,3,11.8,4.4c0.8-1.2,1.4-2.5,1.6-3.9c0.3-1.4,0.5-2.8,0.6-3.5c-5.3-1.4-8.5-2.2-9.4-2.5c-1.1-0.4-3.4-1.5-4.5-2
				c-1.8,2.8-2.3,3.3-2.6,3.3H144C143.4,203.1,142.9,203.2,139.1,203.8z"/>
		</g>
		<g>
			<path class="st12" d="M168.5,185.8c-0.3,0.7-0.5,1.4-0.8,2.1c-0.6,1.7-2.6,3-4.5,7c-1.2,2.7-2,5.6-2.4,8.5c0,0,0,0.1-0.1,0.4
				c-2.2-0.6-8.2-2.1-9.5-2.5c-1.1-0.4-3.4-1.5-4.6-2c2.5-3.9,5.9-9.6,5.9-9.6s-2.2-3.4-5-8c1.8,0.1,8.1,0.3,8.5,0.3h0.1
				c0.5,0.1,1.6,0.9,2.4,1.4c0.3,0.2,0.6,0.3,0.9,0.5c0.6,0.2,3.3,0,4.2,0c0.1,0,0.1,0,0.2,0C164.3,184,166.9,185.1,168.5,185.8z"/>
			<path class="st9" d="M160.9,204h-0.2c-5.3-1.4-8.6-2.3-9.5-2.5c-1.2-0.4-3.6-1.6-4.6-2.1l-0.2-0.1l0.1-0.2
				c2.3-3.6,5.4-8.8,5.8-9.5c-0.4-0.6-2.4-3.8-5-7.9l-0.2-0.3h0.3c3,0.1,8.1,0.3,8.5,0.3c0.1,0,0.1,0,0.2,0c0.4,0.1,1.1,0.6,1.8,1.1
				c0.2,0.1,0.4,0.3,0.6,0.4c0.3,0.2,0.5,0.3,0.8,0.5c0.3,0.1,1.6,0.1,2.6,0c0.6,0,1.2-0.1,1.5,0c0.1,0,0.1,0,0.2,0
				c0.4,0,1.9,0.6,4.7,1.8l0.1,0.1l-0.1,0.1c-0.1,0.3-0.2,0.5-0.3,0.8c-0.2,0.4-0.3,0.9-0.5,1.4c-0.3,0.8-0.8,1.4-1.5,2.3
				c-0.9,1.1-2,2.5-3,4.8c-1.2,2.7-2,5.6-2.3,8.5c0,0,0,0.1-0.1,0.4L160.9,204z M146.9,199.2c1.1,0.5,3.3,1.6,4.4,2
				c0.9,0.3,4.1,1.1,9.3,2.5c0-0.1,0-0.2,0-0.2c0.4-3,1.2-5.8,2.4-8.6c1.1-2.3,2.2-3.7,3.1-4.8c0.7-0.8,1.2-1.5,1.4-2.2
				c0.2-0.5,0.3-0.9,0.5-1.4c0.1-0.2,0.2-0.4,0.2-0.6c-3.3-1.4-4.2-1.7-4.4-1.8c-0.1,0-0.1,0-0.2,0c-0.4,0-0.9,0-1.5,0
				c-1.4,0.1-2.4,0.1-2.8-0.1c-0.3-0.1-0.6-0.3-0.9-0.5c-0.2-0.1-0.4-0.2-0.6-0.4c-0.7-0.4-1.4-0.9-1.8-1h-0.1
				c-0.4,0-6.7-0.2-8.2-0.3c2.8,4.4,4.9,7.7,4.9,7.7l0.1,0.1l-0.1,0.1C152.7,189.8,149.4,195.4,146.9,199.2z"/>
		</g>
		<g>
			<path class="st12" d="M160.5,146.6c-2.4-0.2-3,2.2-11.1,4h-0.2c-6,1.3-12,2.9-15,3.7l-3.6-6.6l-6.7-12.3c2.8-0.5,5.3,0.8,5.7,1
				c0.5,0.2,3.2,0.7,7.7,0.6h0.7c1.4,2.3,4.6,7.4,4.7,7.4c0.1,0,7.8-2.2,11.3-3.2L160.5,146.6z"/>
			<path class="st9" d="M134.1,154.5l-10.4-19.3h0.2c2.5-0.5,4.6,0.5,5.5,0.9c0.1,0.1,0.2,0.1,0.3,0.1c0.5,0.2,3.1,0.7,7.7,0.6h0.8
				v0.1c2,3.3,4.2,6.9,4.6,7.3c0.5-0.1,4.6-1.3,7.9-2.2c1.3-0.4,2.4-0.7,3.4-0.9h0.1l6.9,5.7h-0.5c-1-0.1-1.6,0.3-2.7,0.9
				c-1.5,0.8-3.7,2-8.4,3.1h-0.2c-5.5,1.2-11.2,2.7-15,3.7L134.1,154.5z M124.2,135.5l10.1,18.6c3.8-1,9.4-2.5,14.9-3.7h0.2
				c4.6-1,6.8-2.2,8.3-3c0.9-0.5,1.6-0.9,2.4-0.9l-6-5c-0.9,0.3-2.1,0.6-3.3,0.9c-6.3,1.8-7.9,2.2-8,2.2s-0.3,0-4.8-7.4h-0.6
				c-4.6,0.1-7.3-0.5-7.8-0.6c-0.1,0-0.2-0.1-0.3-0.1C128.4,136,126.5,135.1,124.2,135.5z"/>
		</g>
		<g>
			<path class="st12" d="M154.1,141.2c-3.5,1-11.2,3.1-11.3,3.2s-3.3-5.1-4.7-7.4c2.7,0,5.3-0.3,7.9-0.6c0.5-0.2,1-0.4,1.4-0.6
				L154.1,141.2z"/>
			<path class="st9" d="M142.8,144.6c-0.2,0-0.5-0.5-4.9-7.5l-0.2-0.2h0.3c2.6,0,5.3-0.3,7.9-0.6c0.5-0.2,0.9-0.4,1.4-0.6l0.1-0.1
				l7,5.8l-0.3,0.1C150.5,142.4,142.9,144.5,142.8,144.6L142.8,144.6z M138.3,137.1c3.3,5.4,4.2,6.8,4.5,7.1
				c0.8-0.2,7.5-2.1,10.9-3.1l-6.3-5.3c-0.4,0.2-0.9,0.4-1.4,0.6C143.5,136.9,140.9,137.1,138.3,137.1z"/>
		</g>
		<g>
			<path class="st12" d="M171.3,148.4c-2.3-0.4-8.4-1.6-10.6-1.8h-0.2l0,0l-6.4-5.3l-6.7-5.6c0.4-0.2,0.8-0.4,1.3-0.6
				c1.3-0.5,6.1-0.3,6.8-0.1c0.6,0.2,2.2,0,2.4-0.2s5-0.1,6.4-0.6s2.9-3.1,2.9-3.1s0.2,3,0.6,4.5c0.6,2.6,1.4,5.2,2.3,7.8
				C170.6,145.1,171,146.7,171.3,148.4z"/>
			<path class="st9" d="M171.5,148.6h-0.2c-2.5-0.5-8.4-1.6-10.6-1.8h-0.3l0,0l-13.3-11.1l0.2-0.1c0.4-0.2,0.8-0.4,1.3-0.6
				c1.4-0.6,6.2-0.3,6.9-0.1c0.6,0.2,2,0,2.2-0.1c0.1-0.1,0.3-0.1,2-0.2c1.5-0.1,3.7-0.1,4.5-0.4c1.3-0.4,2.8-3,2.8-3l0.3-0.5v0.5
				c0,0,0.2,3,0.6,4.5c0.6,2.6,1.4,5.2,2.3,7.7c0.6,1.6,1,3.3,1.2,4.9L171.5,148.6z M160.6,146.4h0.2c2.1,0.2,7.8,1.3,10.4,1.8
				c-0.3-1.6-0.7-3.1-1.2-4.6c-0.9-2.5-1.7-5.2-2.3-7.8c-0.2-1.2-0.4-3.1-0.5-4c-0.5,0.8-1.7,2.4-2.7,2.7c-0.8,0.3-3,0.4-4.6,0.4
				c-0.8,0-1.6,0.1-1.8,0.1c-0.3,0.2-1.9,0.4-2.5,0.2c-0.7-0.2-5.4-0.4-6.7,0.1c-0.4,0.2-0.8,0.3-1.1,0.5L160.6,146.4z"/>
		</g>
		<g>
			<path class="st12" d="M171,159.9c-0.1,0.4-0.2,0.7-0.3,1.1c-1.2,0-3.6,0.4-6.9,2.4c-0.2,0.1-0.5,0.3-0.7,0.4l-0.5-10
				c2.2,0.2,5.9,0.6,7.9,0.8C170.2,156.4,171.4,157.6,171,159.9z"/>
			<path class="st9" d="M163,164.1l-0.5-10.5h0.2c2.2,0.2,5.9,0.6,7.9,0.8h0.2v0.2c-0.1,0.8,0,1.4,0.2,2.2s0.5,1.8,0.3,3l0,0
				c-0.1,0.4-0.2,0.8-0.3,1.1v0.1h-0.1c-1.1,0-3.5,0.4-6.8,2.4l-0.1,0.1c-0.2,0.1-0.4,0.2-0.5,0.3L163,164.1z M162.8,154l0.5,9.5
				c0.1-0.1,0.2-0.1,0.3-0.2l0.1-0.1c3.3-2,5.7-2.4,6.9-2.5c0.1-0.3,0.2-0.6,0.3-1c0.2-1.2,0-2-0.3-2.9c-0.2-0.7-0.4-1.4-0.3-2.1
				C168.4,154.6,165,154.3,162.8,154z"/>
		</g>
		<g>
			<path class="st12" d="M170.7,161c-0.7,1.7-2.3,3.1-3.4,3.7c-1.4,0.8-1.5,1.5-1,2.8c0.1,0.3,0.2,0.5,0.3,0.8
				c-0.6,0.4-1.8,1.2-2.5,1.7c-0.2,0.1-0.4,0.2-0.6,0.3c-0.7,0.3-1.5,0.6-1.4,0.2c0.1-0.5,0.4-1.8,0-1.6c-0.3,0.1-1.6,0.7-2.3,1.1
				l-0.1-0.2l0,0c-0.4-0.6-0.8-1.3-1.3-2.1c0.8-0.9,2.3-2.2,4.9-3.9c0.2-0.1,0.4-0.3,0.7-0.4C167.1,161.4,169.5,161,170.7,161z"/>
			<path class="st9" d="M162.2,170.9c-0.1,0-0.2,0-0.3-0.1s-0.1-0.2-0.1-0.3s0-0.2,0.1-0.3c0.1-0.3,0.2-0.9,0.1-1.1
				c-0.3,0.1-1,0.5-1.7,0.8l-0.8,0.4l-0.2-0.4c-0.3-0.6-0.8-1.3-1.3-2.1l-0.1-0.1l0.1-0.1c1.1-1.2,2.7-2.5,4.9-3.9
				c0.1-0.1,0.3-0.2,0.4-0.2l0.3-0.2c3.4-2.1,5.8-2.4,7-2.5h0.3l-0.1,0.2c-0.7,1.8-2.3,3.2-3.5,3.8c-1.4,0.8-1.4,1.5-0.9,2.6
				c0.1,0.2,0.2,0.5,0.3,0.8l0.1,0.1l-0.1,0.1c-0.6,0.4-1.8,1.2-2.6,1.7c-0.2,0.1-0.4,0.2-0.6,0.3h-0.1
				C162.9,170.7,162.5,170.9,162.2,170.9z M162.1,168.7c0.1,0,0.1,0,0.2,0.1c0.2,0.2,0.1,0.7,0,1.4c0,0.1,0,0.2-0.1,0.3l0,0
				c0.1,0.1,0.8-0.2,1.1-0.4h0.1c0.2-0.1,0.4-0.2,0.5-0.3c0.7-0.4,1.8-1.2,2.4-1.6c-0.1-0.3-0.2-0.5-0.3-0.7
				c-0.5-1.3-0.5-2.2,1.1-3.1c1.1-0.6,2.5-1.8,3.3-3.4c-1.2,0.1-3.5,0.5-6.5,2.4l-0.3,0.2c-0.1,0.1-0.3,0.2-0.4,0.2
				c-2.1,1.3-3.7,2.6-4.8,3.7c0.5,0.7,0.9,1.4,1.3,2l0.1,0.1l0.5-0.2c0.7-0.3,1.5-0.7,1.7-0.8C162,168.7,162.1,168.7,162.1,168.7z"
				/>
		</g>
		<g>
			<path class="st12" d="M169,179.2c-0.7-0.1-1.3-0.2-1.9-0.4c-0.4-0.1-2.5,0-3.5,0c0-1.5-0.1-4,0.3-5.1c0.1-0.3,0.2-0.6,0.2-1
				c0.1-0.9,0.1-1.8,0-2.7c0.8-0.5,2-1.3,2.5-1.7c0.8,2,1.4,4,1.7,6.1C168.6,176,168.8,177.6,169,179.2z"/>
			<path class="st9" d="M169.1,179.4h-0.2c-0.7-0.1-1.3-0.2-2-0.4c-0.3-0.1-2.2,0-3.4,0h-0.2v-0.2c0-0.3,0-0.5,0-0.8
				c0-1.5,0-3.4,0.3-4.4c0.1-0.3,0.2-0.6,0.2-0.9c0.1-0.9,0.1-1.8,0-2.7v-0.1l0.1-0.1c0.8-0.5,2-1.3,2.5-1.7l0.2-0.1l0.1,0.2
				c0.8,2,1.4,4,1.7,6.1c0.3,1.6,0.5,3.2,0.7,4.8L169.1,179.4z M165.9,178.6c0.6,0,1,0,1.2,0c0.6,0.2,1.2,0.3,1.7,0.4
				c-0.1-1.5-0.4-3.1-0.7-4.6c-0.3-2-0.9-4-1.6-5.8c-0.6,0.4-1.6,1.1-2.3,1.5c0.1,0.9,0.1,1.8,0,2.6c0,0.3-0.1,0.7-0.2,1
				c-0.3,0.9-0.3,2.8-0.3,4.3c0,0.2,0,0.4,0,0.7C164.3,178.7,165.2,178.6,165.9,178.6z"/>
		</g>
		<g>
			<path class="st12" d="M169.1,183c-0.1,0.9-0.3,1.9-0.6,2.7c-1.6-0.7-4.2-1.8-4.6-1.8c-0.1,0-0.1,0-0.2,0c0-0.8,0-1.8-0.2-2.1
				c-0.1-0.2-0.2-0.4-0.2-0.6c-0.1-0.4,0-1,0.2-1.2c0.1-0.1,0.1-0.6,0.1-1.2c1,0,3.1-0.1,3.5,0c0.6,0.2,1.3,0.3,1.9,0.4
				C169.1,180.9,169.1,182.2,169.1,183z"/>
			<path class="st9" d="M168.6,186l-0.6-0.3c-1.5-0.6-3.7-1.6-4.1-1.6c-0.1,0-0.1,0-0.2,0h-0.2v-0.2c0-1.6-0.1-2-0.2-2
				c-0.1-0.2-0.2-0.4-0.2-0.6c-0.1-0.5,0-1,0.2-1.3c0-0.1,0.1-0.4,0.1-1.1v-0.2h0.2c0.7,0,3.1-0.1,3.5,0c0.6,0.2,1.3,0.3,1.9,0.4
				h0.1v0.1c0.1,1.3,0.2,2.6,0.2,3.8l0,0c-0.1,1-0.3,1.9-0.6,2.8L168.6,186z M163.8,183.7C163.8,183.7,163.9,183.7,163.8,183.7
				c0.5,0.1,2.2,0.8,4.3,1.6l0.3,0.1c0.3-0.8,0.5-1.6,0.6-2.5c0-1.2-0.1-2.4-0.2-3.6c-0.6-0.1-1.2-0.2-1.8-0.4c-0.3,0-1.8,0-3.2,0
				c0,0.8,0,1.1-0.2,1.2c-0.1,0.1-0.2,0.6-0.1,1c0,0.2,0.1,0.4,0.2,0.5C163.7,181.8,163.8,182.1,163.8,183.7z"/>
		</g>
		<g>
			<path class="st12" d="M138.2,202.8c0,0.3-0.1,0.6-0.1,0.9l0,0c-1.9,0.3-4.5,0.6-8,1c-3.4,0.4-7.7,1.2-12.1,2
				c-0.1-0.5-0.1-1-0.1-1.2c-0.2-1.8-0.4-9.4-1.2-14.4l21.5-6.7C138.3,191.4,138.4,200.5,138.2,202.8z"/>
			<path class="st9" d="M117.9,207v-0.2c-0.1-0.5-0.1-1-0.1-1.2c-0.1-0.5-0.1-1.5-0.2-2.7c-0.2-3.2-0.4-8.1-1.1-11.7v-0.1l21.8-6.8
				v0.2c0.1,6.8,0.3,16.1,0.1,18.4c0,0.2-0.1,0.5-0.1,1v0.1h-0.1c-2,0.3-4.7,0.6-8,1c-3.2,0.4-7.2,1.1-12,2H117.9z M116.8,191.3
				c0.6,3.6,0.9,8.4,1,11.6c0.1,1.2,0.1,2.2,0.2,2.7c0,0.2,0.1,0.6,0.1,1c4.8-0.9,8.8-1.6,11.9-2c3.3-0.4,5.8-0.7,7.9-1
				c0.1-0.3,0.1-0.6,0.1-0.8l0,0c0.2-2.3,0.1-11.3-0.1-18.1L116.8,191.3z"/>
		</g>
		<g>
			<path class="st12" d="M138.1,184.5l-21.5,6.7c-0.2-1.2-0.5-2.4-1-3.6c-1.7-3.6-6-12.2-6-13.1c0-0.1,0-0.1,0-0.2
				c2-0.3,2.7-0.7,3.2-1.3c0.6-0.7,1.4-2,2.5-2s2.4,1.7,3.2,1.7c0.6,0,2.2-0.1,3.2-0.2c0.4,0.5,0.9,0.9,1.4,1.2
				c3.5,1.7,3.1,1.3,4.4,0.4s2.5-2,4.5-0.7c1.9,1.2,1.7,1.3,2,1c0.2-0.3,0.9-1,1.9,0.3c0.9,1.1,1.4,3.6,2.1,3.8
				C138,180.1,138,182.2,138.1,184.5z"/>
			<path class="st9" d="M116.5,191.4v-0.2c-0.2-1.2-0.5-2.4-1-3.5c-0.4-0.8-0.9-1.9-1.5-3.1c-2.6-5.3-4.6-9.4-4.6-10.1v-0.1v-0.2
				h0.2c2.1-0.3,2.7-0.8,3.1-1.2c0.1-0.1,0.2-0.2,0.3-0.3c0.6-0.7,1.3-1.7,2.3-1.7c0.6,0,1.3,0.5,1.9,1c0.5,0.4,1,0.8,1.3,0.8
				c0.6,0,2.3-0.1,3.2-0.2h0.1l0.1,0.1c0.4,0.5,0.8,0.9,1.3,1.2c2.9,1.4,3,1.3,3.7,0.7c0.1-0.1,0.3-0.2,0.4-0.3l0.1-0.1
				c1.2-0.9,2.6-1.9,4.5-0.6c0.6,0.4,1,0.7,1.3,0.9c0.2,0.1,0.3,0.2,0.4,0.2l0,0v-0.1c0.1-0.1,0.4-0.5,0.9-0.5
				c0.4,0,0.8,0.3,1.2,0.8s0.8,1.4,1.1,2.1c0.3,0.7,0.7,1.6,0.9,1.7h0.1v1.2c0,1.3,0.1,3,0.1,4.7v0.1h-0.1L116.5,191.4z
				 M109.8,174.5L109.8,174.5c0,0.7,2.7,6.3,4.5,10c0.6,1.2,1.1,2.3,1.5,3.1c0.5,1.1,0.8,2.3,0.9,3.4l21.2-6.6
				c0-1.7-0.1-3.3-0.1-4.6v-1c-0.4-0.2-0.7-0.9-1-1.8c-0.3-0.7-0.6-1.5-1-2c-0.4-0.4-0.7-0.7-1-0.7c-0.2,0-0.4,0.1-0.7,0.4l0,0
				c-0.2,0.3-0.3,0.2-0.8-0.1c-0.3-0.2-0.7-0.5-1.3-0.9c-1.8-1.1-3-0.2-4.2,0.6l-0.1,0.1c-0.2,0.1-0.3,0.2-0.4,0.3
				c-0.8,0.7-1.1,0.8-4.1-0.7c-0.5-0.3-1-0.7-1.4-1.2c-1.2,0.1-2.6,0.2-3.2,0.2c-0.5,0-1-0.4-1.5-0.8c-0.6-0.5-1.2-0.9-1.7-0.9
				c-0.8,0-1.5,0.9-2.1,1.5c-0.1,0.1-0.2,0.2-0.3,0.4C112.4,173.8,111.7,174.2,109.8,174.5z"/>
		</g>
		<g>
			<path class="st12" d="M152.6,189.6c0,0-3.4,5.7-5.9,9.6c-1.2,1.9-2.2,3.3-2.6,3.4c-0.7,0.2-1,0.4-6,1.1l0,0
				c0.1-0.4,0.1-0.7,0.1-0.9c0.2-2.3,0.1-11.4-0.1-18.3c-0.1-2.3-0.1-4.3-0.2-5.8c0.1,0,0.2,0,0.2,0c0.8-0.5,1.7-1.5,3.1-1
				c1.2,0.4,2.3,0.4,3.4-0.5c1,1.6,1.9,3.1,2.8,4.5C150.4,186.2,152.6,189.6,152.6,189.6z"/>
			<path class="st9" d="M137.9,203.9v-0.2c0.1-0.4,0.1-0.7,0.1-0.9c0.2-1.8,0.1-7.9-0.1-18.3c-0.1-2.3-0.1-4.3-0.2-5.8v-0.2h0.2h0.1
				c0.1-0.1,0.3-0.2,0.4-0.3c0.7-0.5,1.6-1.1,2.8-0.7c1.3,0.5,2.2,0.3,3.2-0.5l0.1-0.1l0.1,0.2c1,1.6,1.9,3.1,2.8,4.5
				c2.8,4.5,5,7.9,5,8l0.1,0.1l-0.1,0.1c0,0.1-3.4,5.8-5.9,9.6c-1.9,2.9-2.4,3.4-2.7,3.5l-0.2,0.1c-0.7,0.2-1.2,0.4-5.9,1
				L137.9,203.9z M138.1,178.8c0,1.5,0.1,3.4,0.1,5.6c0.2,10.4,0.3,16.6,0.1,18.4c0,0.2,0,0.4-0.1,0.7c4.4-0.6,5-0.8,5.6-1l0.2-0.1
				c0.1,0,0.6-0.4,2.5-3.3c2.3-3.6,5.4-8.8,5.8-9.5c-0.4-0.6-2.4-3.8-4.9-7.9c-0.9-1.4-1.8-2.9-2.7-4.4c-1,0.8-2.1,0.9-3.4,0.4
				c-1.1-0.4-1.8,0.2-2.5,0.6c-0.2,0.1-0.3,0.2-0.5,0.3C138.2,178.8,138.2,178.8,138.1,178.8z"/>
		</g>
		<g>
			<path class="st9" d="M144.7,177.1c-1.1,0.9-2.2,1-3.4,0.5c-1.4-0.5-2.3,0.5-3.1,1c-0.1,0-0.2,0.1-0.2,0c-0.7-0.2-1.2-2.7-2.1-3.8
				c-1-1.3-1.7-0.6-1.9-0.3s0,0.2-2-1s-3.3-0.2-4.5,0.7s-0.9,1.3-4.4-0.4c-0.5-0.3-1-0.7-1.4-1.2c-2.7-3.2-6.3-11.3-7.8-15.1
				l0.3-0.1l16.3-9.9l3.6,6.6l2.6,4.8c-1.8,0-1.9,0.7-1.9,1.7C134.9,161.3,140,169.6,144.7,177.1z"/>
			<path class="st9" d="M138,178.8h-0.1c-0.4-0.1-0.8-0.9-1.2-1.9c-0.3-0.7-0.6-1.5-1-2c-0.4-0.4-0.7-0.7-1-0.7l0,0
				c-0.2,0-0.4,0.1-0.7,0.4l0,0c-0.2,0.3-0.3,0.2-0.8-0.1c-0.3-0.2-0.7-0.5-1.3-0.9c-1.8-1.1-3-0.2-4.2,0.6l-0.1,0.1
				c-0.2,0.1-0.3,0.2-0.4,0.3c-0.8,0.7-1.1,0.8-4.1-0.7c-0.6-0.3-1.1-0.8-1.5-1.3c-2.8-3.3-6.4-11.7-7.9-15.1l-0.1-0.2l0.5-0.1
				l16.4-9.9l6.4,11.8h-0.3c-1.6,0-1.7,0.6-1.7,1.5c0,0.3,1.8,3.4,9.8,16.3l0.1,0.1l-0.1,0.1c-1.1,0.9-2.2,1-3.5,0.5
				c-1.1-0.4-1.8,0.2-2.5,0.6c-0.2,0.1-0.3,0.2-0.5,0.3C138.2,178.8,138.1,178.8,138,178.8z M134.7,173.9L134.7,173.9
				c0.4,0,0.8,0.3,1.3,0.8c0.4,0.5,0.8,1.4,1.1,2.1c0.3,0.7,0.7,1.6,0.9,1.7h0.1c0.1-0.1,0.3-0.2,0.4-0.3c0.7-0.5,1.6-1.1,2.8-0.7
				c1.2,0.4,2.2,0.3,3.1-0.4c-8.7-13.9-9.8-16-9.8-16.4c0-1,0.1-1.8,1.8-1.8l-6-11l-16.2,9.8H114c1.5,3.6,5,11.7,7.7,14.9
				c0.4,0.5,0.8,0.9,1.4,1.2c2.9,1.4,3,1.3,3.7,0.7c0.1-0.1,0.3-0.2,0.4-0.3l0.1-0.1c1.2-0.9,2.6-1.9,4.5-0.6
				c0.7,0.4,1.1,0.7,1.3,0.9c0.2,0.1,0.3,0.2,0.4,0.2l0,0v-0.1C134.1,174.1,134.4,173.9,134.7,173.9z"/>
		</g>
		<g>
			<path class="st12" d="M151.9,159.1c-3.1,0-13.3,0-14.9,0h-0.2l-2.6-4.8c3-0.8,9-2.4,15-3.7h0.2
				C149.8,152.3,150.8,156.7,151.9,159.1z"/>
			<path class="st9" d="M140.9,159.3c-1.9,0-3.4,0-3.9,0h-0.3l-2.7-5.1l0.2-0.1c3.8-1,9.5-2.5,15-3.7l0.4-0.1v0.2
				c0.4,1.8,1.4,6.2,2.5,8.5l0.1,0.2h-0.3c-0.9,0-2.4,0-4,0C145.7,159.3,143,159.3,140.9,159.3z M136.9,158.9h0.1
				c1.2,0,6.8,0,10.9,0c1.5,0,2.9,0,3.8,0c-1-2.3-2-6.4-2.4-8.2l0,0c-5.4,1.2-11,2.6-14.8,3.7L136.9,158.9z"/>
		</g>
		<g>
			<path class="st12" d="M170.5,154.6L170.5,154.6c-2-0.2-5.7-0.6-7.9-0.8c-1.1-0.1-1.8-0.2-1.9-0.2c-0.3-0.1-0.1-4.9,0-6.9
				c0-0.1,0-0.1,0-0.2c2.2,0.2,8.3,1.4,10.6,1.8c0.1,0.5,0.2,1.1,0.3,1.7C172,152.6,170.8,152.9,170.5,154.6z"/>
			<path class="st9" d="M170.7,154.9h-0.2c-2-0.2-5.6-0.6-7.9-0.8c-0.8-0.1-1.8-0.2-1.9-0.2c-0.2,0-0.4-0.1-0.2-7.1v-0.3h0.2
				c2.2,0.2,8.1,1.3,10.6,1.8h0.1v0.1c0.1,0.3,0.1,0.6,0.2,0.9c0,0.3,0.1,0.5,0.1,0.8c0.3,1.7-0.1,2.4-0.5,3.2
				c-0.2,0.4-0.5,0.8-0.6,1.4L170.7,154.9L170.7,154.9z M160.8,153.5c0.2,0,0.7,0.1,1.8,0.2c2.2,0.2,5.7,0.6,7.7,0.8
				c0.1-0.6,0.4-1,0.6-1.4c0.4-0.7,0.8-1.4,0.5-3c0-0.3-0.1-0.5-0.1-0.8s-0.1-0.5-0.1-0.8c-2.5-0.5-8-1.5-10.3-1.8
				C160.7,151.2,160.8,153.1,160.8,153.5z"/>
		</g>
		<g>
			<path class="st12" d="M158.2,167.7c-0.3,0.4-0.6,0.8-0.9,1.2c-0.2,0.3-0.5,3.8-0.7,7.1c-0.2,2.4-0.3,4.8-0.4,5.9h-0.1
				c-0.4,0-6.7-0.2-8.5-0.3c-0.9-1.4-1.9-3-2.8-4.5c-4.7-7.6-9.8-15.9-9.8-16.4c0-0.9,0.1-1.7,1.9-1.7h0.2c1.6,0,11.8,0,14.9,0
				c0.2,0.4,0.4,0.8,0.6,1.1C153.6,161.6,156.3,164.9,158.2,167.7z"/>
			<path class="st9" d="M156.3,182.2l-0.2-0.1c0,0,0,0-0.1,0c-0.4,0-7.2-0.2-8.5-0.3h-0.1v-0.1c-0.9-1.4-1.9-3-2.8-4.5
				c-9.9-15.8-9.9-16.3-9.9-16.5c0-1,0.2-1.8,2-1.8h0.2c1.2,0,6.8,0,10.9,0c1.7,0,3.1,0,4,0h0.1v0.1c0.2,0.4,0.4,0.7,0.6,1.1
				c1.2,1.4,3.8,4.8,5.7,7.5l0.1,0.1l-0.1,0.1c-0.3,0.4-0.6,0.8-0.9,1.2c0,0.1-0.2,0.9-0.7,7.1c-0.1,1.6-0.2,3.1-0.3,4.3
				c0,0.7-0.1,1.2-0.1,1.6L156.3,182.2z M147.6,181.5c2.2,0.1,7.8,0.3,8.4,0.3c0-0.4,0.1-0.9,0.1-1.4c0.1-1.2,0.2-2.7,0.3-4.3
				c0.5-6.7,0.7-7.1,0.7-7.2c0.2-0.4,0.5-0.8,0.8-1.2c-1.9-2.7-4.5-6-5.6-7.4c-0.3-0.3-0.5-0.7-0.6-1.1c-0.9,0-2.3,0-3.9,0
				c-4.1,0-9.7,0-10.9,0h-0.2c-1.6,0-1.7,0.6-1.7,1.5c0,0.3,1.4,2.8,9.8,16.3C145.8,178.6,146.8,180.1,147.6,181.5z"/>
		</g>
		<g>
			<path class="st12" d="M163.1,163.8c-2.6,1.7-4.1,3-4.9,3.9c-1.9-2.8-4.6-6.1-5.7-7.5c-0.3-0.3-0.5-0.7-0.6-1.1
				c-1.1-2.3-2.1-6.8-2.5-8.5c8.2-1.8,8.8-4.1,11.2-4l0,0l0.2,0.2c-0.1,2-0.2,6.8,0,6.9c0.1,0,0.8,0.1,1.9,0.2L163.1,163.8z"/>
			<path class="st9" d="M158.2,168l-0.1-0.2c-2-2.9-4.9-6.5-5.7-7.5c-0.3-0.4-0.5-0.7-0.7-1.1c-1.1-2.4-2.1-6.8-2.5-8.6v-0.2h0.2
				c4.7-1,6.9-2.3,8.3-3.1c1.1-0.6,1.8-1,2.9-0.9h0.1l0.3,0.3v0.1c-0.2,4.4-0.1,6.3,0,6.7c0.1,0,0.2,0,0.4,0c0.3,0,0.8,0.1,1.4,0.2
				h0.1l0.5,10.2l-0.1,0.1c-2.2,1.4-3.8,2.7-4.9,3.8L158.2,168z M149.5,150.7c0.4,1.9,1.4,6.1,2.5,8.4c0.2,0.4,0.4,0.7,0.6,1.1
				c0.8,1,3.6,4.4,5.6,7.3c1.1-1.2,2.7-2.4,4.7-3.7l-0.5-9.7c-0.5-0.1-0.9-0.1-1.2-0.1c-0.2,0-0.4-0.1-0.5-0.1l0,0
				c-0.2,0-0.4-0.1-0.2-7l-0.1-0.1c-0.9,0-1.6,0.3-2.7,0.9C156.3,148.4,154.1,149.6,149.5,150.7z"/>
		</g>
		<g>
			<path class="st12" d="M159.5,169.8L159.5,169.8c0,0.1-0.1,0.2-0.1,0.3c-0.1,0.6-0.2,1.7-0.3,3.1c-0.1,0.8-0.1,1.8-0.2,2.7
				l-2.4,0.1c0.3-3.3,0.6-6.8,0.7-7.1c0.2-0.4,0.5-0.9,0.9-1.2C158.7,168.4,159.2,169.1,159.5,169.8z"/>
			<path class="st9" d="M156.4,176.2V176c0.5-6.7,0.7-7.1,0.7-7.2c0.2-0.5,0.6-0.9,0.9-1.3l0.1-0.2l0.1,0.2c0.5,0.7,0.9,1.4,1.3,2.1
				v0.1v0.1c0,0.1-0.1,0.2-0.1,0.3c-0.1,0.5-0.2,1.5-0.3,3.1c-0.1,0.8-0.1,1.8-0.2,2.7v0.2L156.4,176.2z M158.2,167.9
				c-0.3,0.3-0.5,0.7-0.7,1c-0.1,0.1-0.2,1-0.7,6.9l2.1-0.1c0.1-0.9,0.1-1.8,0.2-2.6c0.1-1.7,0.2-2.7,0.3-3.2c0-0.1,0-0.2,0.1-0.3
				C159,169.2,158.6,168.5,158.2,167.9z"/>
		</g>
		<g>
			<path class="st12" d="M164,172.7c-0.4,0.1-1,0.2-1.4,0.4c-0.5,0.2-2.6,0.2-3.4,0.2c0.1-1.4,0.2-2.6,0.3-3.1l0.2-0.1
				c0.8-0.4,2-1,2.3-1.1c0.4-0.2,0.1,1.1,0,1.6s0.7,0.1,1.4-0.2c0.2-0.1,0.4-0.2,0.6-0.3C164.1,170.9,164.1,171.8,164,172.7z"/>
			<path class="st9" d="M160,173.4c-0.4,0-0.7,0-0.8,0H159v-0.2c0.1-1.7,0.2-2.7,0.3-3.2v-0.1l0.3-0.1c1.3-0.6,2.1-1,2.4-1.1
				c0.2-0.1,0.3,0,0.3,0c0.2,0.2,0.1,0.7,0,1.4c0,0.1,0,0.2-0.1,0.3l0,0c0.1,0.1,0.8-0.2,1.1-0.4h0.1c0.2-0.1,0.4-0.2,0.5-0.3
				l0.2-0.1v0.3c0.1,0.9,0.1,1.8,0,2.8v0.1H164c-0.4,0.1-1,0.2-1.4,0.4C162.2,173.4,160.9,173.4,160,173.4z M159.4,173.1
				c1.1,0,2.8,0,3.2-0.1s0.9-0.2,1.3-0.3c0.1-0.8,0.1-1.5,0-2.3c-0.1,0.1-0.2,0.1-0.3,0.2h-0.1c-0.8,0.3-1.2,0.5-1.5,0.3
				c-0.1-0.1-0.1-0.2-0.1-0.3s0-0.2,0.1-0.3c0.1-0.3,0.2-0.9,0.1-1.1c-0.3,0.1-1.1,0.5-2.3,1.1l-0.1,0.1
				C159.5,170.7,159.5,171.6,159.4,173.1z"/>
		</g>
		<g>
			<path class="st12" d="M163.6,183.9c-1,0-3.7,0.2-4.2,0c-0.3-0.1-0.6-0.3-0.8-0.5c0-0.6,0.1-1.3,0.1-2.2h4.6
				c0,0.2,0.1,0.4,0.2,0.6C163.6,182.1,163.6,183.1,163.6,183.9z"/>
			<path class="st9" d="M160.5,184.2c-0.5,0-0.9,0-1.1-0.1c-0.3-0.1-0.6-0.3-0.9-0.5l-0.1-0.1v-0.1c0-0.6,0.1-1.3,0.1-2.2V181h4.9
				v0.1c0,0.2,0.1,0.3,0.2,0.5c0.1,0.1,0.2,0.3,0.2,2.2v0.2h-0.2c-0.3,0-0.9,0-1.4,0C161.5,184.2,160.9,184.2,160.5,184.2z
				 M158.7,183.3c0.2,0.2,0.5,0.3,0.7,0.4c0.3,0.1,1.7,0.1,2.7,0c0.5,0,0.9,0,1.3,0c0-1.5-0.1-1.8-0.2-1.9c-0.1-0.2-0.1-0.3-0.2-0.5
				h-4.3C158.8,182.2,158.8,182.8,158.7,183.3z"/>
		</g>
		<g>
			<path class="st12" d="M159,176c-0.1,1.8-0.2,3.7-0.3,5.3c0,0.9-0.1,1.6-0.1,2.2c-0.8-0.5-1.9-1.3-2.4-1.4
				c0.1-1.1,0.2-3.5,0.4-5.9L159,176z"/>
			<path class="st9" d="M158.7,183.7l-0.2-0.2c-0.2-0.1-0.4-0.2-0.6-0.4c-0.7-0.4-1.4-0.9-1.8-1H156V182c0.1-1.1,0.2-3.4,0.4-5.9
				V176l2.7-0.1v0.2c-0.1,1.5-0.2,3.2-0.3,5.3c0,0.9-0.1,1.6-0.1,2.2L158.7,183.7z M156.4,181.9c0.4,0.2,1.1,0.6,1.7,1
				c0.1,0.1,0.2,0.1,0.3,0.2c0-0.5,0.1-1.2,0.1-1.9c0.1-2,0.2-3.7,0.3-5.1l-2.1,0.1C156.6,178.6,156.4,180.8,156.4,181.9z"/>
		</g>
		<g>
			<path class="st12" d="M163.8,173.7c-0.4,1.1-0.3,3.6-0.3,5.1c0,0.7,0,1.1-0.1,1.2c-0.2,0.2-0.3,0.7-0.2,1.2h-4.6
				c0.1-1.5,0.2-3.5,0.3-5.3c0.1-1,0.1-1.9,0.2-2.7c0.8,0,2.9,0,3.4-0.2c0.4-0.1,1-0.3,1.4-0.4C164,173.1,163.9,173.4,163.8,173.7z"
				/>
			<path class="st9" d="M163.5,181.4h-4.9v-0.2c0.1-2.1,0.2-3.8,0.3-5.3c0.1-1,0.1-1.9,0.2-2.7V173h0.4c0.9,0,2.7,0,3.2-0.1
				c0.4-0.1,0.9-0.3,1.4-0.4l0.2-0.1v0.2c0,0.3-0.1,0.7-0.2,1l0,0c-0.3,0.9-0.3,2.7-0.3,4.2c0,0.3,0,0.6,0,0.9c0,1-0.1,1.2-0.2,1.3
				c-0.1,0.1-0.2,0.6-0.1,1L163.5,181.4z M158.9,181.1h4.2c0-0.4,0-0.9,0.3-1.1c0,0,0.1-0.3,0.1-1.1c0-0.3,0-0.6,0-0.9
				c0-1.5,0-3.3,0.3-4.3c0.1-0.2,0.1-0.5,0.2-0.7c-0.4,0.1-0.9,0.2-1.2,0.3c-0.5,0.2-1.9,0.2-3.3,0.2h-0.1c-0.1,0.8-0.1,1.7-0.2,2.5
				C159.1,177.4,159,179.1,158.9,181.1z"/>
		</g>
	</g>
</g>
<g>
	<g>
		<path class="st6" d="M1016.9,125.8L1016.9,125.8v-0.2c0.4-1.8,1.1-3.5,2.1-5.1c3.5-5.7,4.7-12.6,3.2-19.2l-0.6-3.5
			c-0.2-1.6-0.6-3.1-0.8-4.6l0,0c-1.9-10.2-3.5-17.9-6.1-24.8c-4.3-11.8-8-23.9-11-36c-1.4-6.8-2.6-20.6-2.6-20.8
			c-0.2-3.8-3.5-6.7-7.3-6.4c-2.3,0.2-4.4,1.4-5.6,3.5c-3.2,5.5-8,11-10.2,11.7c-2.9,1-13.6,1.4-19.3,1.6
			c-7.8,0.3-10.6,0.4-12.6,1.6c-2,0.3-4,0.4-6,0.2c-3.8-1-28.2-2.7-36.7,0.6c-2.7,1-4.9,2.1-6.8,3l0,0l-1.7,0.9
			c-1.1,0.6-2.3,1.2-3.5,1.8c-12.2,1.7-24.4,2.6-36.6,2.8l0,0l-3.2,0.1c-20.4,0.5-32.8-2-34.7-2.7c-0.2-0.1-0.6-0.2-1-0.4
			c-4.3-1.9-16-7.1-29.5-4.7h-0.1H786h-0.2l-1.1,0.2c-14.9,3.2-22.9,7-24.9,8c-2.9,1.2-24.6,8.4-33.6,10.9c-2.2-3.8-5.6-10.6-7.9-15
			c-6.7-13.2-7.9-15.4-10.2-16.9c-2.3-1.5-17.6-7-22.2-8.6c-22.1-7.7-23.1-7.2-26-5.5c-2,1.1-2.6,2.1-8.2,11.6
			c-4.8,8.1-17.6,29.5-22.1,32.5c-2.6,1-13.7,5.3-26.4,10.1c-16,6.1-36,13.8-52,20c-8.9,3.5-15.4,6.1-20.1,8
			c-2.7,1.1-4.7,1.9-6.1,2.6c-2.1,1-7,3.2-6,8.6c0.4,2.3,0.9,2.9,8.6,11.4c8,8.9,23,25.5,27.8,34.2c2.4,4.5,7.2,15.4,13.4,30.7l0,0
			c4.9,12.1,10.5,26.2,15.3,39l0,0c4.1,10.9,7.4,20,9.3,25.4c3.4,10.2,14.9,47,33.2,106.1l0,0l8.1,26.4l9.7,33.9l0,0l40.5,140.3
			c0.8,3,3.5,5,6.6,5c0.2,0,0.6,0,0.8,0l83.8-10.1h0.3l0.6-0.1h0.1l60.9-10.6l0,0l0.9-0.2l0.5-0.1l70.1-17.6c2.4-0.6,4.3-2.5,5-4.9
			c2.6-9.7,9.1-26.9,15.5-31.5c0.5-0.3,0.9-0.7,1.3-1.2c0,0,0.4-0.5,1.1-1.4l0,0c18.9-22.9,19.2-27.9,19.2-30v-1.4
			c0.6-23.5,3.8-31,5.5-33.3l0.6-0.8l0,0c4.7-6.7,8-14.4,9.5-22.4c1.7-8.9,2.7-15.1,3.2-17.8l0,0l0,0l0.3-1.8c0-0.2,0-0.3,0-0.5
			c1.6-13.4,5.2-26.4,10.7-38.6c3.7-7.7,8.3-15,13.8-21.6c3.5-4.3,6.5-8.1,8-12.8c0.7-2.1,1.6-4.3,2.3-6.4c0.5-1.2,1-2.4,1.4-3.6
			l0,0c2-4.9,3.2-10.1,3.5-15.4c0-4.5-0.1-10.7-0.8-18.8l0,0c-0.7-8-1.9-15.9-3.4-23.7c-1.7-10.4-4.5-20.5-8.4-30.3l0,0l0,0
			c-0.6-1.4-1-2.6-1.4-3.7c-0.5-1-0.8-2.1-0.8-3.2c0,0,0.4-0.7,2.6-1.9c6.8-3.8,15.4-11.3,19.4-21.2l0,0c0.9-2.2,1.5-4.4,1.9-6.8
			c0.8-5.6,0.3-11.4-1.4-16.9C1017,130.1,1016.5,128,1016.9,125.8z"/>
	</g>
	<g>
		<path class="st12" d="M777,210.8c-4.8,0.3-12.7,0.8-15.4,0.8c-4.1,0-10.2-8.4-15.4-8.4c-5.2,0-9.1,6.2-11.8,9.3
			c-2.3,2.6-5.6,4.8-15.3,6.1c-2.1,0.2-4.4,0.5-7.2,0.6c-15.4,1-20.6-6.1-29.5-7.8s-9.3,1.4-15.2,2.7c-6,1.3-10.1-6.8-26.1-14.6
			c-15.9-7.8-14.2-2.6-21.3-0.9c-7.1,1.7-18-8.7-19.6-8.3c-1,0.2-5.9,8.1-9.7,14.2c-4.7-12.4-10.2-26.6-15.4-39.2
			c9.4-1.3,30.7-4.4,68.1-10.6c47.4-7.8,87.6-14.8,96.2-16.3C746.9,156.5,763.9,195.3,777,210.8z"/>
		<path class="st9" d="M709,220.1c-8.4,0-13.8-2.5-18.4-4.7c-2.8-1.3-5.4-2.6-8.4-3.1c-5.6-1-7.6-0.2-10.1,1
			c-1.3,0.6-2.7,1.3-4.8,1.7c-3.5,0.8-6.4-1.4-10.8-4.7c-3.5-2.7-8.4-6.4-15.8-10c-11.3-5.5-13.4-4.3-16.3-2.7
			c-1.1,0.6-2.5,1.4-4.5,1.9c-5.1,1.2-11.8-3.3-16.3-6.3c-1.3-0.9-2.7-1.9-3.3-2c-0.5,0.5-2.4,2.8-9.1,13.8l-0.9,1.4l-0.6-1.5
			c-4.8-12.8-10.5-27-15.4-39.2l-0.4-1l1-0.2c9.3-1.3,30.6-4.4,68.1-10.6c49.8-8.2,91.6-15.5,96.2-16.3l0.6-0.1l0.2,0.6
			c6.8,16.5,24.3,56.6,37.4,72.1l1,1.2l-1.6,0.1c-5.4,0.3-12.8,0.8-15.5,0.8c-2.2,0-4.7-1.9-7.3-3.9c-2.8-2.2-5.6-4.4-8.1-4.4
			c-3.9,0-7.2,4.2-9.7,7.2c-0.6,0.6-1,1.3-1.5,1.9c-2.6,2.9-6.2,5.1-15.8,6.4c-2.1,0.2-4.5,0.5-7.2,0.6
			C710.8,220.1,709.9,220.1,709,220.1z M677.8,210.2c1.3,0,2.8,0.2,4.7,0.5c3.2,0.6,6,1.9,8.9,3.3c5,2.4,10.7,5.1,20.4,4.5
			c2.7-0.2,5.1-0.4,7.1-0.6c10.1-1.4,13-3.7,14.8-5.9c0.5-0.5,1-1.1,1.4-1.8c2.7-3.3,6.3-7.8,10.9-7.8c3.1,0,6.1,2.4,9.1,4.7
			c2.3,1.8,4.7,3.6,6.4,3.6c2.6,0,10-0.4,13.8-0.7c-13-16.3-29.5-54.2-36.4-70.6c-6.9,1.2-47.6,8.3-95.5,16.2
			c-36.1,6-57.3,9.1-67.1,10.5c4.7,11.4,9.9,24.6,14.4,36.7c7.9-12.9,8.7-13.1,9.3-13.2c0.8-0.2,1.9,0.4,4.6,2.3
			c3.9,2.7,10.5,7.1,15,6c1.8-0.4,3-1,4.1-1.7c3.6-2,6.3-2.9,17.8,2.7c7.5,3.6,12.5,7.4,16.1,10.1c4.2,3.1,6.7,5.1,9.5,4.4
			c1.9-0.4,3.2-1,4.5-1.6C673.2,210.9,674.9,210.2,677.8,210.2z"/>
	</g>
	<g>
		<path class="st12" d="M819.1,91l-78,47.2l-1.6,0.3c-8.5,1.5-48.8,8.5-96.2,16.3c-37.4,6.2-58.7,9.3-68.1,10.6
			c-5.7-14.1-10.9-26.2-13.8-31.4c-7.6-13.8-35.6-42.2-35.8-43.6s99.1-38.6,106.7-41.9c7.6-3.3,29.4-43.5,30.9-44.4s38.8,12.6,41,14
			c2.2,1.4,16.7,34,19.2,34c2.6,0,37.3-11.5,39.1-12.5s9.3-4.4,23.4-7.5c0.3-0.1,0.7-0.2,1-0.2L819.1,91z"/>
		<path class="st9" d="M574.7,166.3l-0.2-0.6c-4.5-11-10.5-25.3-13.8-31.3c-5.1-9.3-19.7-25.5-28.5-35.2c-6.3-6.9-7.2-8-7.2-8.6
			c-0.2-1.1-0.2-1.6,80.5-32.4c13.7-5.2,24.5-9.3,26.8-10.3c5.1-2.2,17.9-23.5,24.8-34.9c4.4-7.3,5.5-9.1,6-9.4
			c2.5-1.4,41.5,13.8,41.8,14c1,0.6,3.1,4.7,8,14.4c3.8,7.4,9.4,18.7,10.9,19.4c2.2,0,36.8-11.4,38.6-12.4c0.8-0.4,8.4-4.3,23.7-7.6
			c0.4-0.1,0.8-0.2,1.1-0.2l0.6-0.1l32.5,60l-78.9,47.7l-1.6,0.3c-1.8,0.3-44.4,7.8-96.2,16.3c-37.5,6.2-58.7,9.3-68.1,10.6
			L574.7,166.3z M526.7,90.6c0.9,1,3.7,4.2,6.6,7.4c8.9,9.7,23.6,26.1,28.8,35.6c3.2,6,9.1,20,13.6,30.9c9.7-1.4,30.8-4.5,67.4-10.5
			c51.7-8.5,94.4-16,96.2-16.3l1.4-0.2L818,90.6l-31.2-57.8c-0.2,0-0.3,0.1-0.5,0.1c-15,3.2-22.4,7-23.3,7.4
			c-1.6,0.8-36.7,12.6-39.5,12.6c-1.7,0-4.3-4.8-12.2-20.3c-3.1-6.2-6.7-13.1-7.5-13.8c-2.3-1.5-36.9-13.8-40.2-13.9
			c-0.6,0.6-2.9,4.6-5.5,8.8c-10.1,16.8-20.3,33.4-25.5,35.6c-2.3,1-13.1,5.1-26.8,10.3C578.1,70.3,532.2,87.7,526.7,90.6z"/>
	</g>
	<g>
		<path class="st12" d="M752.4,299.3l-119.2,37.3c-10.7-34.6-28.6-92.4-33.3-106.3c-1.9-5.8-5.3-15.1-9.3-25.7
			c3.7-6.1,8.7-14,9.7-14.2c1.6-0.4,12.6,10,19.6,8.3c6.9-1.7,5.3-6.8,21.3,0.9c16,7.7,20.1,15.9,26.1,14.6s6.4-4.4,15.2-2.7
			s14,8.7,29.5,7.8c2.7-0.2,5.1-0.4,7.2-0.6c0.1,0.3,0.1,0.6,0.1,0.9c0,4.3,20.6,45.5,28.9,62.7
			C750.1,287.7,751.6,293.4,752.4,299.3z"/>
		<path class="st9" d="M632.7,337.7l-0.2-0.8c-6.5-21-28.1-90.7-33.3-106.3c-1.9-5.8-5.3-15.1-9.3-25.6l-0.2-0.4l0.2-0.3
			c8.6-14.2,9.6-14.5,10.1-14.6c0.8-0.2,1.9,0.5,4.7,2.3c3.9,2.7,10.5,7,14.9,6c1.8-0.4,2.9-1,4-1.7c3.6-2,6.3-2.9,17.8,2.7
			c7.5,3.6,12.4,7.4,16.1,10.1c4.2,3.1,6.7,5.1,9.5,4.4c1.9-0.4,3.2-1,4.5-1.6c2.7-1.2,4.9-2.3,11-1.1c3.2,0.6,6,1.9,8.8,3.3
			c5,2.4,10.7,5.1,20.4,4.5c2.7-0.2,5.1-0.4,7.1-0.6l0.7-0.1l0.2,0.7c0.1,0.3,0.2,0.7,0.2,1.1c0,3.2,13.6,31.2,22.6,49.6
			c2.3,4.8,4.5,9.3,6.1,12.6c2.3,5.6,3.8,11.3,4.6,17.2l0.1,0.6l-0.6,0.2L632.7,337.7z M591.4,204.7c3.9,10.4,7.3,19.6,9.3,25.3
			c5.1,15.4,26.3,83.7,33.1,105.6l117.8-36.9c-0.8-5.6-2.3-10.9-4.3-16.2c-1.6-3.4-3.8-7.7-6.1-12.6c-12.5-25.6-22.8-47.1-22.8-50.4
			l0,0c-1.9,0.2-4,0.4-6.4,0.6c-10.2,0.6-16.1-2.2-21.2-4.7c-2.7-1.3-5.4-2.6-8.4-3.1c-5.6-1-7.6-0.2-10.1,1
			c-1.3,0.6-2.7,1.3-4.8,1.7c-3.5,0.8-6.4-1.4-10.8-4.7c-3.5-2.7-8.4-6.4-15.8-10c-11.3-5.6-13.4-4.3-16.3-2.7
			c-1.1,0.6-2.5,1.4-4.4,1.9c-5.1,1.2-11.7-3.2-16.2-6.2c-1.3-0.9-2.8-1.9-3.4-2.1C599.9,191.6,598.1,193.8,591.4,204.7z"/>
	</g>
	<g>
		<path class="st12" d="M758.9,374c-42.3,8.1-87.2,18.3-107.7,23.1l-9.7-33.9c0,0-3.4-10.9-8.2-26.6l119.2-37.3
			c4.1,24.1,5.1,60.2,6,69C758.5,369.4,758.6,371.3,758.9,374z"/>
		<path class="st9" d="M650.6,398l-10-34.6l0,0c0,0-3.4-10.9-8.2-26.5l-0.2-0.7l120.9-37.9l0.2,0.9c3,17.4,4.3,40.7,5.1,56.2
			c0.3,5.8,0.6,10.4,0.8,12.8c0.1,1.1,0.3,3.1,0.6,5.7l0.1,0.7l-0.7,0.2c-43.8,8.4-90,19-107.7,23.1L650.6,398z M634.2,337.2
			c4.7,15.2,8,25.7,8,25.7l9.6,33.2c18.3-4.3,63.3-14.6,106.4-22.8c-0.2-2.3-0.4-3.9-0.6-5c-0.2-2.4-0.5-7.1-0.8-12.9
			c-0.8-15.1-2.1-37.9-4.9-55L634.2,337.2z"/>
	</g>
	<g>
		<path class="st12" d="M832.6,432.5c-0.8,2.9,2.8,63.7,4.1,84.2l-60.9,10.6c-2.8-10.8-4.5-21.9-5.1-33
			c-0.7-18.9-9.3-96.8-11.8-120.4c20.9-4,41.3-7.5,57.7-9.7c16.9-2.1,29.2-3.8,38.2-5c-2.3,10.8-5.1,21.5-8.6,31.9
			C840.2,410.9,833.2,430.4,832.6,432.5z"/>
		<path class="st9" d="M775.2,528.2l-0.2-0.7c-2.8-10.9-4.5-22-5.1-33.2c-0.6-17.1-7.9-84-11-112.6l-0.9-8.5l0.7-0.2
			c23.4-4.5,42.9-7.7,57.8-9.7c15.9-2,28.5-3.6,38.2-5l1.1-0.2l-0.2,1.1c-2.3,10.8-5.2,21.6-8.6,32c-4.2,13.6-8.8,27-11.5,34.9
			c-1.1,3.2-1.9,5.6-2.1,6.2c-0.6,2.4,1.7,44.9,4.1,84l0.1,0.7L775.2,528.2z M759.7,374.6l0.7,7.1c3.1,28.6,10.4,95.4,11,112.7
			c0.6,10.8,2.3,21.6,4.9,32.1l59.5-10.4c-1.5-24.8-4.8-80.8-4-83.8l0,0c0.2-0.6,1-2.9,2.1-6.3c2.7-8,7.2-21.2,11.5-34.9
			c3.3-10.1,6.1-20.4,8.4-30.7c-9.6,1.3-21.8,2.9-37.2,4.8C802,367,782.8,370.2,759.7,374.6z"/>
	</g>
	<g>
		<path class="st12" d="M952.1,397c-0.3,0.4-0.5,0.6-0.5,0.6c-6.6,8.8-6.8,33.5-7,38.7c-0.2,4.4-13.7,21.1-17.6,25.9
			c-16.9-8.9-59.1-31.2-62.8-34.5c-3.2-3-12.8-24.7-17.9-36.5c3.5-10.5,6.4-21.2,8.6-31.9l0,0c11.5,1.4,33,13.6,40.1,16.4
			C900.4,377.8,934.4,390.4,952.1,397z"/>
		<path class="st9" d="M927.1,463.3l-0.6-0.3c-17.7-9.3-59.2-31.3-62.9-34.6c-3.5-3.2-13.8-26.8-18-36.8l-0.1-0.2l0.1-0.3
			c3.5-10.4,6.4-21.2,8.6-31.9l0.2-0.7l0.7,0.1c8.4,1,21.6,7.6,31.4,12.3c3.7,1.9,6.9,3.4,8.9,4.2c5.1,2,37.7,14.1,55.1,20.5l2.8,1
			l-0.6,0.9c-0.3,0.5-0.5,0.7-0.5,0.7c-6,8-6.6,29.8-6.8,36.9v1.4c-0.2,4.3-11.3,18.4-17.8,26.4L927.1,463.3z M847.2,391.3
			c8.8,20.4,15.3,33.9,17.5,36c3.5,3.3,47.6,26.5,62,34c10.4-12.7,16.9-22.2,17.1-24.9V435c0.2-7.2,0.8-29.1,6.9-37.7l-0.8-0.3
			c-18.7-6.9-50-18.6-55.1-20.5c-2.1-0.8-5.3-2.4-9-4.2c-9.3-4.6-22-10.7-30.1-12C853.3,370.7,850.5,381.1,847.2,391.3z"/>
	</g>
	<g>
		<path class="st12" d="M963.5,359.7c-0.5,2.8-1.6,9-3.2,17.6c-1.4,7.1-4.2,13.8-8.3,19.6c-17.6-6.5-51.6-19.2-56.9-21.2
			c-7.2-2.8-28.6-15-40.1-16.4c23.9-3.3,25.3-4.1,28.8-5.2c1.6-0.5,6.4-7.3,12.3-16.3c5.6,2.8,16.5,8.1,22,9.8
			C924.2,349.5,953.2,357.1,963.5,359.7z"/>
		<path class="st9" d="M952.3,397.9l-0.6-0.2c-17.8-6.6-51.7-19.2-56.9-21.2c-2.1-0.8-5.4-2.4-9.3-4.3c-9.6-4.7-22.6-11-30.7-12.1
			l-6-0.7l6-0.8c22.1-3.1,24.9-3.9,27.9-5l0.7-0.2c0.8-0.2,3.5-3.2,11.8-16l0.4-0.6l0.6,0.3c4.7,2.3,16.3,8,21.9,9.7
			c4.2,1.3,19.9,5.5,45.4,12.2l0.7,0.2l-0.2,0.7c-0.6,3.1-1.9,10.3-3.2,17.6c-1.4,7.2-4.2,13.9-8.4,20L952.3,397.9z M859.7,359.5
			c8,2.2,18.5,7.3,26.6,11.3c3.8,1.9,7.1,3.5,9.2,4.3c5.1,1.9,38.4,14.4,56.3,21c3.9-5.7,6.5-12,7.8-18.7c1.3-6.8,2.5-13.4,3.1-16.9
			c-25.1-6.5-40.6-10.7-44.7-12c-5.5-1.7-16.4-7-21.5-9.6c-8.9,13.4-11.1,15.7-12.3,16l-0.7,0.2
			C880.4,356.1,877.9,356.9,859.7,359.5z"/>
	</g>
	<g>
		<path class="st12" d="M1000.5,273.2c-1.2,3.3-2.6,6.7-3.8,10.1c-2.7,8.2-12.5,14.2-21.6,33.6c-5.8,13-9.6,26.8-11.3,40.9
			c0,0-0.1,0.6-0.3,1.9c-10.4-2.7-39.3-10.2-45.5-12.2c-5.5-1.7-16.4-7-22-9.8c12.1-18.4,28.2-45.9,28.2-45.9s-10.5-16.5-24.1-38.1
			c8.7,0.3,38.7,1.4,40.7,1.4c0.2,0,0.4,0.1,0.6,0.1c2.3,0.7,7.5,4.3,11.5,6.9c1.3,0.9,2.7,1.7,4.1,2.3c2.7,1,15.6-0.2,20.2,0
			c0.3,0,0.7,0,1,0C980.5,264.7,992.9,269.9,1000.5,273.2z"/>
		<path class="st9" d="M964.1,360.8l-0.9-0.2c-25.6-6.7-41.3-10.9-45.5-12.2c-5.7-1.8-17.4-7.5-22.1-9.8l-0.8-0.4l0.5-0.7
			c11.1-17,25.8-42,27.9-45.5c-1.7-2.7-11.4-18-23.8-37.7l-0.8-1.3l1.5,0.1c14.2,0.5,38.9,1.4,40.7,1.4c0.3,0,0.6,0.1,0.9,0.2
			c1.8,0.6,5.4,2.9,8.9,5.1c1,0.6,1.9,1.3,2.8,1.9c1.3,0.9,2.6,1.6,4,2.3c1.5,0.6,7.7,0.3,12.6,0.1c2.9-0.2,5.6-0.2,7.3-0.2
			c0.3,0,0.6,0,1,0c1.8,0.2,9.1,3.1,22.4,8.9l0.7,0.3l-0.2,0.7c-0.5,1.2-0.9,2.4-1.4,3.7c-0.8,2.1-1.7,4.3-2.4,6.5
			c-1.2,3.7-3.8,6.9-7,10.9c-4.2,5.3-9.5,11.8-14.6,22.8c-5.7,12.9-9.5,26.6-11.3,40.6c0,0.1-0.1,0.6-0.3,1.9L964.1,360.8z
			 M897.2,337.4c5.1,2.6,15.8,7.7,21.1,9.3c4.2,1.3,19.6,5.4,44.6,11.9c0.1-0.6,0.2-1,0.2-1c1.7-14.2,5.6-28,11.3-41
			c5.2-11.1,10.5-17.8,14.8-23.1c3.1-3.9,5.6-7.1,6.8-10.5c0.7-2.3,1.6-4.4,2.4-6.6c0.4-1,0.7-1.9,1.1-2.9
			c-15.6-6.7-20.1-8.3-21.2-8.4c-0.2,0-0.6,0-0.9,0c-1.7-0.1-4.4,0.1-7.2,0.2c-6.7,0.3-11.5,0.5-13.3-0.2c-1.5-0.7-2.9-1.5-4.3-2.4
			c-0.9-0.6-1.9-1.2-2.8-1.8c-3.2-2.1-6.8-4.5-8.4-5c-0.2-0.1-0.2-0.1-0.4-0.1c-2,0-31.9-1-39.2-1.3c13.2,20.9,23.3,36.8,23.3,36.8
			l0.2,0.4l-0.2,0.4C924.8,292.4,909.1,319.2,897.2,337.4z"/>
	</g>
	<g>
		<path class="st12" d="M962.3,85.6c-11.3-0.8-14.3,10.3-53.3,19l-1,0.2c-28.6,6.3-57.7,14-71.8,17.8l-17.2-31.8L787.2,32
			c13.6-2.5,25.1,4,27.4,4.8c2.3,0.8,15.3,3.5,37.1,3h3.2c6.8,11.2,21.9,35.6,22.5,35.6c0.6,0,37.3-10.4,54.2-15.1L962.3,85.6z"/>
		<path class="st9" d="M835.9,123.6L786,31.4l1.1-0.2c11.9-2.2,22,2.3,26.3,4.2c0.6,0.3,1.1,0.5,1.4,0.6c2.3,0.7,15,3.5,36.8,3h3.7
			l0.2,0.4c9.6,15.6,20.3,32.8,22.1,35.1c2.7-0.6,22-6.1,37.7-10.5c6-1.7,11.7-3.3,16.1-4.5l0.4-0.1l32.8,27.3l-2.5-0.2
			c-4.6-0.3-7.7,1.4-13,4.3c-7,3.9-17.6,9.7-40.1,14.7l-1,0.2c-26.2,5.7-53.5,12.8-71.8,17.7L835.9,123.6z M788.5,32.6l48.2,89.2
			c18.3-5,45.2-12,71.1-17.6l1-0.2c22.2-5,32.7-10.8,39.7-14.6c4.4-2.4,7.6-4.2,11.6-4.5l-28.6-23.7c-4.3,1.2-9.8,2.7-15.7,4.4
			c-30.3,8.5-37.9,10.6-38.4,10.6c-0.6,0-1.3,0-23-35.6h-2.7c-22,0.5-35.1-2.3-37.3-3.1c-0.3-0.1-0.9-0.3-1.6-0.6
			C808.7,35.1,799.4,31,788.5,32.6z"/>
	</g>
	<g>
		<path class="st12" d="M931.6,60.1c-17,4.8-53.6,15-54.2,15.1c-0.6,0.2-15.7-24.4-22.5-35.6c12.7-0.2,25.3-1.2,37.9-3
			c2.4-0.8,4.7-1.9,6.9-3.1L931.6,60.1z"/>
		<path class="st9" d="M877.4,76.2c-0.8,0-2.7-2.3-23.3-36l-0.7-1.2h1.4c12.6-0.2,25.3-1.2,37.8-3c2.3-0.7,4.5-1.8,6.6-3l0.5-0.2
			l33.5,27.9l-1.4,0.4c-17.2,4.7-53.6,14.9-54.1,15C877.5,76.2,877.5,76.2,877.4,76.2z M856.3,40.5c16,26.1,20.3,32.6,21.3,34
			c4-1.1,35.7-9.9,52.3-14.6l-30.3-25.3c-2.1,1.2-4.3,2.2-6.6,2.9C880.8,39.2,868.5,40.3,856.3,40.5z"/>
	</g>
	<g>
		<path class="st12" d="M1013.9,94.3c-10.9-2.1-40.2-7.6-50.7-8.6h-1l0,0l-30.7-25.6l-31.9-26.6c1.8-0.9,3.9-1.9,6.3-2.8
			c6.4-2.5,29.3-1.2,32.3-0.4c3.1,0.8,10.5,0,11.3-0.9c0.9-0.9,24.1-0.5,30.6-2.7c6.4-2.2,13.9-14.8,13.9-14.8s1.1,14.2,2.7,21.6
			c3.1,12.6,6.8,24.9,11.2,37.2C1010.8,78.5,1012.7,86.4,1013.9,94.3z"/>
		<path class="st9" d="M1014.9,95.4l-1.1-0.2c-11.8-2.3-40.3-7.6-50.6-8.6h-1.3l-0.2-0.2l-63.5-52.9l1.1-0.6
			c1.7-0.8,3.8-1.9,6.3-2.8c6.8-2.7,29.8-1.3,32.8-0.4c2.8,0.8,9.7,0,10.6-0.6c0.5-0.5,1.6-0.6,9.5-0.9c7.4-0.3,17.5-0.7,21.4-2
			c6.1-2.1,13.4-14.3,13.4-14.4l1.3-2.2l0.2,2.5c0,0.2,1.2,14.2,2.7,21.5c3.1,12.5,6.8,24.9,11.2,37.1c2.7,7.6,4.7,15.6,5.9,23.7
			L1014.9,95.4z M962.5,84.9h0.7c10.1,1,37.3,6,49.7,8.4c-1.2-7.6-3.1-15-5.6-22.3c-4.3-12.2-8.1-24.7-11.3-37.3
			c-1.2-5.6-2.1-15-2.6-19.3c-2.4,3.7-8,11.3-13,13.1c-4,1.4-14.3,1.8-21.8,2.1c-3.9,0.2-7.8,0.3-8.6,0.6c-1.5,1.1-9.1,1.8-12,1
			c-3.1-0.9-25.8-2-31.9,0.3c-1.9,0.7-3.6,1.5-5.1,2.3L962.5,84.9z"/>
	</g>
	<g>
		<path class="st12" d="M1012.5,149.3c-0.3,1.8-0.8,3.5-1.5,5.3c-5.7,0.2-17.1,2.1-33,11.7c-1.1,0.7-2.2,1.4-3.2,2l-2.4-47.6
			c10.7,1.2,28.3,3,37.7,3.9C1008.6,132.6,1014.2,138.4,1012.5,149.3z"/>
		<path class="st9" d="M974.1,169.7l-2.5-50l1,0.1c10.8,1.2,28.2,3,37.7,3.9l0.9,0.1l-0.2,0.9c-0.7,3.6,0.2,6.9,1,10.4
			c1,4,2.2,8.5,1.3,14.4l0,0c-0.3,1.9-0.8,3.7-1.5,5.5l-0.2,0.5h-0.5c-5.4,0.2-16.7,1.9-32.6,11.5l-0.6,0.4c-0.9,0.6-1.7,1-2.5,1.6
			L974.1,169.7z M973.2,121.5l2.3,45.4c0.5-0.3,0.9-0.6,1.4-0.9l0.6-0.4c15.7-9.5,27.1-11.4,32.8-11.7c0.6-1.5,1-3.1,1.3-4.6
			c0.9-5.6-0.2-9.7-1.2-13.8c-0.9-3.4-1.7-6.6-1.2-10.2C999.9,124.3,983.8,122.6,973.2,121.5z"/>
	</g>
	<g>
		<path class="st12" d="M1011,154.5c-3.4,8.4-10.9,14.8-16.4,17.9c-6.6,3.7-7.2,7.4-4.8,13.6c0.5,1.3,1,2.5,1.6,3.9
			c-2.7,1.9-8.4,5.8-12.2,8c-0.8,0.6-1.7,1-2.7,1.4c-3.4,1.4-7.2,3.1-6.9,0.8c0.3-2.2,2.1-8.4,0-7.6c-1.4,0.6-7.6,3.5-11.2,5.3
			l-0.6-1.2l0,0c-1.7-2.9-3.9-6.3-6.4-9.9c3.9-4.3,10.9-10.6,23.4-18.5c1-0.6,2.1-1.3,3.2-2C993.8,156.6,1005.3,154.8,1011,154.5z"
			/>
		<path class="st9" d="M970.6,202.1c-0.5,0-1-0.1-1.3-0.4c-0.3-0.2-0.6-0.7-0.5-1.6c0.1-0.4,0.2-1,0.3-1.6c0.2-1.3,0.9-4.1,0.6-5.1
			c-1.4,0.6-4.9,2.3-8.1,3.8l-3.6,1.7l-1-1.9c-1.7-2.9-3.9-6.3-6.3-9.8l-0.3-0.5l0.4-0.5c5.1-5.8,13.1-12.1,23.6-18.7
			c0.6-0.4,1.2-0.8,1.9-1.2l1.4-0.8c16.1-9.8,27.8-11.7,33.3-11.8l1.2-0.1l-0.5,1.1c-3.5,8.5-11.2,15.1-16.8,18.3
			c-6.4,3.6-6.6,7.1-4.4,12.6c0.5,1.2,1,2.5,1.6,3.9l0.2,0.6l-0.6,0.4c-2.9,2-8.5,5.8-12.2,8c-0.9,0.6-1.8,1-2.7,1.4l-0.4,0.2
			C973.8,201.4,971.9,202.1,970.6,202.1z M970,191.8c0.4,0,0.6,0.2,0.8,0.3c1,0.9,0.6,3.2-0.1,6.8c-0.2,0.6-0.2,1.1-0.3,1.5
			c0,0.2,0,0.2,0,0.2c0.6,0.2,3.7-1,5.4-1.7l0.4-0.2c0.9-0.4,1.7-0.8,2.5-1.4c3.5-2.1,8.6-5.6,11.6-7.6c-0.5-1.2-1-2.3-1.4-3.4
			c-2.3-6.1-2.3-10.5,5.1-14.6c5.1-2.8,12.1-8.8,15.5-16.3c-5.8,0.4-16.7,2.6-31.3,11.5l-1.4,0.8c-0.6,0.4-1.2,0.8-1.9,1.1
			c-10.1,6.4-17.8,12.4-22.9,17.9c2.3,3.5,4.4,6.6,6,9.4l0.3,0.5l2.3-1c3.4-1.6,7.2-3.5,8.3-3.9C969.6,191.8,969.8,191.8,970,191.8z
			"/>
	</g>
	<g>
		<path class="st12" d="M1002.8,242c-3.1-0.4-6.2-1-9.3-1.9c-1.9-0.3-11.9-0.2-16.5,0c0-7.2-0.5-19.1,1.3-24.5
			c0.5-1.5,0.8-3.1,1-4.6c0.4-4.3,0.4-8.7-0.1-13c3.7-2.2,9.5-6.1,12.2-8c3.8,9.3,6.5,19.1,8.2,29C1001,226.5,1002,234.3,1002.8,242
			z"/>
		<path class="st9" d="M1003.6,242.9l-1-0.2c-3.1-0.4-6.3-1-9.4-1.9c-1.5-0.2-10.6-0.2-16.3,0h-0.8v-0.8c0-1.2,0-2.5,0-3.9
			c-0.1-7.2-0.2-16.2,1.4-20.9c0.4-1.4,0.7-3,0.9-4.4c0.4-4.3,0.4-8.5-0.1-12.8l-0.1-0.5l0.5-0.2c3.7-2.2,9.4-6,12.2-8l0.8-0.6
			l0.4,1c3.8,9.4,6.5,19.2,8.2,29.1c1.4,7.6,2.6,15.4,3.3,23.2L1003.6,242.9z M987.9,239.2c2.7,0,4.9,0.1,5.7,0.2
			c2.7,0.7,5.6,1.3,8.3,1.7c-0.7-7.3-1.8-14.7-3.2-22c-1.6-9.5-4.3-18.9-7.8-27.9c-2.8,2-7.6,5.1-10.9,7.2c0.5,4.2,0.5,8.4,0,12.6
			c-0.2,1.6-0.5,3.2-1,4.7c-1.4,4.4-1.4,13.3-1.3,20.4c0,1.1,0,2.2,0,3.1C980.5,239.3,984.6,239.2,987.9,239.2z"/>
	</g>
	<g>
		<path class="st12" d="M1003.6,260.2c-0.2,4.5-1.3,8.9-3.1,13c-7.6-3.2-20-8.5-22.1-8.8c-0.3,0-0.7,0-1,0c0-3.7-0.2-8.9-1-10.1
			c-0.5-0.8-0.7-1.8-0.9-2.7c-0.3-2.1-0.1-4.6,0.9-5.6c0.5-0.5,0.6-2.7,0.6-5.9c4.7-0.1,14.7-0.2,16.5,0c3.1,0.8,6.1,1.4,9.3,1.9
			C1003.5,250.1,1003.6,256.2,1003.6,260.2z"/>
		<path class="st9" d="M1001,274.3l-3.1-1.3c-7-3-17.7-7.5-19.6-7.7c-0.2,0-0.6,0-0.9,0l-0.9,0.1v-0.9c0-7.8-0.6-9.4-0.8-9.7
			c-0.6-1-0.9-1.9-1-3c-0.3-2.2-0.2-5,1.1-6.3c0.2-0.3,0.3-2.2,0.3-5.3v-0.8h0.8c3.4-0.1,14.6-0.2,16.7,0c3.1,0.8,6.2,1.4,9.3,1.9
			l0.6,0.1l0.1,0.6c0.6,6.4,0.8,12.3,0.8,18.3v0.1c-0.2,4.6-1.3,9-3.1,13.3L1001,274.3z M978.1,263.6c0.1,0,0.2,0,0.3,0
			c2,0.2,10.3,3.7,20,7.8l1.6,0.6c1.5-3.9,2.4-7.9,2.7-12c0-5.6-0.2-11.3-0.7-17.5c-3-0.4-5.9-1-8.8-1.8c-1.4-0.2-8.8-0.1-15.5,0
			c0,3.8-0.2,5.1-0.8,5.6c-0.7,0.7-1,2.8-0.6,4.9c0.1,0.9,0.4,1.7,0.8,2.4C977.4,254.3,978.1,255.5,978.1,263.6z"/>
	</g>
	<g>
		<path class="st12" d="M855.7,354.8c-0.1,1.3-0.3,2.8-0.6,4.5l0,0c-9.1,1.3-21.4,2.9-38.2,5c-16.5,2.1-36.9,5.6-57.7,9.7
			c-0.3-2.6-0.5-4.6-0.6-5.7c-0.9-8.7-1.9-44.9-6-69l102.7-32.2C855.9,300.2,856.7,343.9,855.7,354.8z"/>
		<path class="st9" d="M758.3,374.8l-0.1-0.9c-0.3-2.7-0.5-4.6-0.6-5.7c-0.2-2.4-0.5-7.1-0.8-12.9c-0.9-15.4-2.2-38.7-5.1-56
			l-0.1-0.7L856,265.9v1c0.7,32.4,1.5,76.8,0.5,87.8c-0.1,1.2-0.3,2.6-0.6,4.6l-0.1,0.6l-0.6,0.1c-9.8,1.4-22.3,3-38.3,5
			c-15.2,1.9-34.6,5.1-57.6,9.6L758.3,374.8z M753.4,299.8c2.9,17.3,4.2,40.2,5,55.4c0.3,5.8,0.6,10.4,0.8,12.8
			c0.1,1,0.2,2.7,0.5,4.8c22.8-4.3,41.8-7.6,56.9-9.5c15.7-2,28-3.6,37.7-4.9c0.3-1.6,0.5-2.8,0.6-3.9l0,0c1-10.8,0.2-54.2-0.5-86.6
			L753.4,299.8z"/>
	</g>
	<g>
		<path class="st12" d="M855.1,267.1l-102.7,32.2c-0.8-5.9-2.3-11.6-4.6-17.1c-8.2-17.1-28.9-58.4-28.9-62.7c0-0.3,0-0.6-0.1-0.9
			c9.7-1.2,13-3.5,15.3-6.1c2.7-3.2,6.6-9.3,11.8-9.3c5.2,0,11.3,8.4,15.4,8.4c2.8,0,10.7-0.5,15.4-0.8c1.9,2.4,4.1,4.3,6.7,5.9
			c16.7,8,15,6,20.8,1.8c5.9-4.3,12.1-9.3,21.4-3.5s8.2,6.1,9.3,4.7c1.2-1.4,4.3-4.7,9.2,1.4c4.3,5.5,6.8,17.5,10.1,18.3
			C854.5,246.3,854.9,256.2,855.1,267.1z"/>
		<path class="st9" d="M751.7,300.3l-0.2-1c-0.8-5.8-2.3-11.5-4.6-16.9c-1.9-3.9-4.3-9-7.1-14.7c-12.4-25.3-21.8-45.1-21.8-48.3
			c0-0.2,0-0.5-0.1-0.7l-0.2-0.9l0.9-0.1c10.1-1.3,12.9-3.7,14.8-5.9c0.4-0.5,0.9-1,1.3-1.6c2.7-3.4,6.4-8,11.1-8
			c3,0,6.1,2.4,9.1,4.7c2.3,1.8,4.7,3.6,6.4,3.6c2.7,0,10.9-0.5,15.4-0.8h0.4l0.2,0.3c1.8,2.3,3.9,4.2,6.4,5.6
			c14,6.7,14.5,6.3,17.9,3.5c0.6-0.5,1.3-1,2.1-1.6l0.6-0.5c5.7-4.2,12.2-9,21.6-3.1c3.1,1.9,5,3.2,6.3,4.1c0.8,0.6,1.4,1,1.7,1.1
			l0.1-0.1l0.2-0.2c0.5-0.6,2-2.6,4.4-2.5c1.9,0,3.9,1.3,6,3.9c2,2.6,3.7,6.6,5.1,10.1c1.4,3.5,3.1,7.6,4.4,8l0.6,0.2l0.2,5.7
			c0.2,6.4,0.4,14.2,0.6,22.6v0.6l-0.6,0.2L751.7,300.3z M719.8,219.3c0,0.1,0,0.2,0,0.2c0,3.1,13,29.9,21.6,47.6
			c2.7,5.7,5.3,10.9,7.2,14.7c2.2,5.3,3.7,10.8,4.5,16.3l101.2-31.7c-0.2-8.2-0.4-15.8-0.6-22l-0.2-4.7c-1.8-1-3.2-4.4-4.9-8.6
			c-1.4-3.5-3.1-7.3-4.9-9.7c-1.7-2.1-3.3-3.2-4.7-3.2c-1.1-0.1-2.2,0.6-3.2,1.9l-0.2,0.2c-1,1.3-1.7,0.9-3.9-0.7
			c-1.3-0.9-3.1-2.2-6.3-4.1c-8.5-5.4-14.3-1.1-19.9,3l-0.6,0.5c-0.8,0.6-1.4,1.1-2,1.6c-4,3.4-5.1,3.7-19.6-3.2
			c-2.7-1.5-4.8-3.5-6.7-5.7c-5.6,0.3-12.5,0.7-15.1,0.7c-2.2,0-4.7-1.9-7.3-3.9c-2.8-2.2-5.6-4.4-8.1-4.4c-4,0-7.4,4.3-9.8,7.4
			c-0.5,0.6-1,1.2-1.4,1.7C732.2,215.9,728.7,218.1,719.8,219.3z"/>
	</g>
	<g>
		<path class="st12" d="M924.3,291.8c0,0-16.2,27.5-28.2,45.9c-5.9,8.9-10.7,15.8-12.3,16.3c-3.5,1.1-4.8,1.9-28.8,5.2l0,0
			c0.3-1.7,0.6-3.2,0.6-4.5c1-10.9,0.2-54.6-0.6-87.7c-0.2-10.9-0.5-20.8-0.7-27.8c0.4,0.1,0.8,0,1.2-0.2c3.8-2.3,8.2-7,15-4.6
			c5.9,2.1,10.9,1.9,16.2-2.5c4.7,7.5,9.3,14.9,13.6,21.7C913.8,275.3,924.3,291.8,924.3,291.8z"/>
		<path class="st9" d="M854.1,360.3l0.2-1.1c0.3-1.9,0.6-3.3,0.6-4.4c0.8-8.5,0.6-38-0.6-87.6c-0.2-10.9-0.5-20.8-0.7-27.8v-1l1,0.2
			c0.2,0.1,0.4,0,0.6-0.1c0.6-0.4,1.4-0.9,2.1-1.4c3.4-2.4,7.6-5.4,13.5-3.2c6.1,2.2,10.7,1.5,15.4-2.3l0.7-0.6l0.5,0.8
			c4.7,7.5,9.3,14.9,13.6,21.7c13.4,21.3,23.8,37.9,24,38.1l0.2,0.4l-0.2,0.4c-0.2,0.2-16.3,27.8-28.2,46
			c-9.2,14.1-11.6,16.3-12.7,16.7l-0.7,0.2c-3.1,1-5.9,1.9-28.2,5L854.1,360.3z M855.3,240.1c0.2,7,0.5,16.4,0.7,27
			c1.2,49.7,1.4,79.3,0.6,87.8c-0.1,1-0.2,2.1-0.5,3.5c21.2-2.9,23.9-3.9,26.8-4.8l0.7-0.2c0.6-0.2,2.8-2.1,11.8-16
			c11.1-17,25.8-42,27.9-45.5c-1.7-2.7-11.5-18.2-23.7-37.7c-4.2-6.6-8.6-13.7-13.1-20.9c-4.9,3.7-10,4.3-16.3,2.1
			c-5.1-1.9-8.8,0.7-12.1,3.1c-0.7,0.6-1.4,1-2.2,1.4C855.7,240,855.5,240.1,855.3,240.1z"/>
	</g>
	<g>
		<path class="st9" d="M886.7,232c-5.3,4.3-10.3,4.6-16.2,2.5c-6.7-2.4-11.2,2.3-15,4.6c-0.3,0.2-0.8,0.3-1.2,0.2
			c-3.2-0.9-5.8-12.9-10.1-18.3c-4.8-6.1-8-2.8-9.2-1.4s0,1.1-9.3-4.7c-9.3-5.9-15.5-0.8-21.4,3.5s-4.1,6.2-20.8-1.8
			c-2.6-1.4-4.8-3.5-6.7-5.9c-13-15.4-30-54.2-37.5-72.3l1.6-0.3l78-47.2l17.3,31.9l12.4,22.9c-8.4,0-8.9,3.5-8.9,8
			C839.7,156.1,864.1,195.8,886.7,232z"/>
		<path class="st9" d="M854.8,240.1c-0.2,0-0.3,0-0.6-0.1c-2.2-0.6-3.6-4.3-5.6-8.9c-1.4-3.5-3.1-7.3-4.9-9.7
			c-1.7-2.2-3.3-3.2-4.7-3.2l0,0c-1.1,0-2.2,0.6-3.1,1.9l-0.2,0.2c-1,1.4-1.6,0.9-3.9-0.6c-1.3-0.9-3.2-2.2-6.3-4.1
			c-8.5-5.3-14.3-1.1-19.9,3L805,219c-0.8,0.6-1.4,1.1-1.9,1.5c-4,3.3-5.1,3.7-19.7-3.2c-2.7-1.6-5.1-3.6-7-6.1
			c-13.3-15.7-30.7-55.9-37.7-72.5l-0.4-0.9l2.4-0.4l78.6-47.6l30.7,56.6h-1.4c-7.6,0-8.1,2.7-8.1,7.2c0.2,1.6,8.5,16.5,46.9,78.1
			l0.4,0.6l-0.6,0.5c-5.1,4.2-10.4,5-17,2.7c-5.1-1.9-8.9,0.7-12.1,3.1c-0.7,0.6-1.4,1-2.2,1.4C855.6,240.1,855.2,240.1,854.8,240.1
			z M838.9,216.6C838.9,216.6,839,216.6,838.9,216.6c2,0,4,1.3,6,3.9c2,2.6,3.7,6.6,5.1,10.1c1.4,3.5,3.1,7.6,4.5,8
			c0.2,0,0.4,0,0.6-0.1c0.6-0.4,1.4-0.9,2.1-1.4c3.5-2.4,7.6-5.4,13.6-3.3c5.9,2.1,10.4,1.5,14.9-1.9
			c-41.5-66.6-46.9-76.8-46.9-78.4c0-4.6,0.6-8.4,8.4-8.8l-28.6-52.7L741.3,139l-0.8,0.2c7.1,17.1,24.1,55.9,37,71.1
			c1.8,2.3,3.9,4.3,6.4,5.6c14,6.7,14.5,6.2,17.9,3.4c0.6-0.5,1.2-1,2-1.6l0.6-0.5c5.7-4.2,12.2-9,21.6-3.1c3.1,1.9,5.1,3.3,6.4,4.2
			c0.7,0.5,1.4,1,1.7,1.1l0.1-0.1l0.2-0.2C835.9,217.4,837.4,216.6,838.9,216.6z"/>
	</g>
	<g>
		<path class="st12" d="M921.1,145.6c-15,0-63.6,0.2-71.5,0h-1l-12.4-22.9c14.2-3.9,43.1-11.5,71.7-17.8l1-0.2
			C910.9,113.2,915.9,134.4,921.1,145.6z"/>
		<path class="st9" d="M868.4,146.5c-8.9,0-16.2,0-18.8-0.1h-1.4l-13-24.2l1-0.2c18.3-4.9,45.5-12.1,71.8-17.8l1.8-0.4l0.2,0.8
			c1.9,8.5,6.9,29.7,12.1,40.7l0.6,1.1h-1.3c-4.3,0-11.3,0-19.3,0C891.2,146.4,878.7,146.5,868.4,146.5z M849.1,144.8h0.5
			c5.6,0.1,32.5,0.1,52.1,0c7.3,0,13.8,0,18.1,0c-4.9-11.1-9.5-30.4-11.5-39.1l-0.2,0.1c-25.7,5.6-52.5,12.6-70.7,17.5L849.1,144.8z
			"/>
	</g>
	<g>
		<path class="st12" d="M1010.2,124.4C1010.2,124.4,1010.2,124.4,1010.2,124.4c-9.4-0.9-27-2.7-37.7-3.9c-5.1-0.6-8.5-1-8.9-1
			c-1.2-0.3-0.5-23.2-0.2-33c0-0.3,0-0.6,0-0.8c10.4,1,39.7,6.5,50.7,8.6c0.5,2.6,1,5.3,1.4,8
			C1017.6,114.5,1011.7,116.2,1010.2,124.4z"/>
		<path class="st9" d="M1011,125.4l-0.9-0.1c-9.5-1-27-2.7-37.7-3.9c-3.9-0.4-8.5-1-9-1c-0.9-0.2-2-0.5-0.8-33.8v-1.6l0.9,0.1
			c10.3,1,38.9,6.4,50.8,8.6l0.6,0.1l0.1,0.6c0.2,1.4,0.5,2.9,0.8,4.3c0.2,1.2,0.4,2.4,0.6,3.7c1.4,8-0.6,11.7-2.5,15.4
			c-1,2-2.2,4-2.7,6.8L1011,125.4L1011,125.4z M964,118.8c0.9,0.1,3.4,0.4,8.5,1c10.5,1.1,27.4,2.9,37,3.9c0.6-2.7,1.7-4.8,2.7-6.8
			c1.9-3.5,3.7-6.9,2.3-14.3c-0.2-1.2-0.4-2.5-0.6-3.7c-0.2-1.3-0.5-2.6-0.6-3.8c-11.7-2.3-38.5-7.2-49.2-8.4
			C963.3,107.8,963.5,117,964,118.8z"/>
	</g>
	<g>
		<path class="st12" d="M951.3,186.7c-1.7,1.8-3.1,3.8-4.3,6c-0.8,1.6-2.3,18.1-3.5,34.2c-0.9,11.5-1.6,22.9-2,28.3
			c-0.2-0.1-0.4-0.1-0.6-0.1c-2,0-32-1-40.7-1.4c-4.3-6.8-8.9-14.2-13.6-21.7c-22.6-36.2-47-76-47-78.5c0-4.5,0.6-8,8.9-8h1
			c7.9,0.2,56.5,0,71.5,0c0.8,1.9,1.9,3.6,3.1,5.2C929.4,157.4,942.3,173.5,951.3,186.7z"/>
		<path class="st9" d="M942.3,256.3l-1-0.3c-0.1-0.1-0.2-0.1-0.3-0.1c-2.1,0-34.4-1.1-40.7-1.4h-0.4l-0.2-0.3
			c-4.3-6.8-8.9-14.2-13.6-21.7c-47.2-75.6-47.2-78.1-47.2-79c0-4.8,0.7-8.9,9.7-8.9h1c5.6,0.1,32.5,0.1,52.1,0c8,0,15,0,19.3,0h0.6
			l0.2,0.5c0.8,1.8,1.8,3.5,3,5.1c5.5,6.9,18.3,22.9,27.3,36l0.3,0.6l-0.4,0.5c-1.6,1.7-3,3.7-4.1,5.8c-0.2,0.4-1.1,4.2-3.4,33.9
			c-0.6,7.5-1,14.9-1.4,20.6c-0.2,3.1-0.4,5.8-0.6,7.7L942.3,256.3z M900.7,252.9c10.4,0.4,37.3,1.3,40.2,1.4
			c0.2-1.9,0.3-4.2,0.5-6.8c0.4-5.8,0.9-13.1,1.4-20.6c2.4-32.3,3.3-34,3.6-34.5c1.1-2,2.4-3.9,3.9-5.6c-8.9-13-21.4-28.6-26.8-35.4
			c-1.2-1.6-2.3-3.3-3-5.1c-4.3,0-11.1,0-18.8,0c-19.6,0-46.5,0.1-52.1,0h-1c-7.6,0-8.1,2.7-8.1,7.2c0.2,1.4,6.5,13.4,46.9,78.1
			C892,239,896.5,246.2,900.7,252.9z"/>
	</g>
	<g>
		<path class="st12" d="M974.8,168.3c-12.6,7.9-19.6,14.2-23.4,18.5c-9-13.3-21.9-29.4-27.3-35.9c-1.2-1.6-2.3-3.4-3.1-5.2
			c-5.2-11.2-10.2-32.4-12.2-40.9c39-8.8,42-19.8,53.3-19.1l0,0l1,0.9c-0.3,9.8-1,32.7,0.2,33c0.4,0,3.9,0.5,8.9,1L974.8,168.3z"/>
		<path class="st9" d="M951.3,188.1l-0.6-0.9c-9.6-14-23.3-31-27.2-35.9c-1.3-1.7-2.3-3.5-3.1-5.4c-5.2-11.3-10.2-32.4-12.2-41
			l-0.2-0.8l0.8-0.2c22.3-5,32.8-10.8,39.7-14.6c5.3-2.9,8.8-4.8,13.8-4.5h0.2l1.5,1.3v0.4c-0.7,21.1-0.6,30.3-0.2,32.2
			c0.4,0,1,0.1,2,0.2c1.6,0.2,3.9,0.5,6.5,0.7l0.6,0.1l2.4,48.8l-0.4,0.2c-10.4,6.5-18.2,12.7-23.3,18.4L951.3,188.1z M909.8,105.4
			c2,9,6.8,29.1,11.9,40c0.8,1.9,1.8,3.5,3,5.1c3.9,4.7,17.1,21.2,26.7,35.1c5.1-5.6,12.7-11.4,22.5-17.7l-2.3-46.5
			c-2.4-0.2-4.4-0.5-5.9-0.7c-1.1-0.2-2.1-0.2-2.3-0.2h-0.2c-0.9-0.2-1.9-0.5-0.8-33.4l-0.6-0.5c-4.4-0.2-7.6,1.5-12.7,4.3
			C942.3,94.6,931.8,100.3,909.8,105.4z"/>
	</g>
	<g>
		<path class="st12" d="M957.7,196.7L957.7,196.7c-0.2,0.5-0.3,1-0.4,1.6c-0.4,2.7-0.9,8.2-1.4,15c-0.3,4-0.6,8.4-0.9,13l-11.5,0.6
			c1.2-16,2.7-32.5,3.5-34.2c1.1-2.2,2.6-4.2,4.3-6C953.9,190.3,956,193.7,957.7,196.7z"/>
		<path class="st9" d="M942.7,227.6l0.1-0.9c2.4-32.3,3.3-34,3.5-34.4c1.2-2.3,2.7-4.3,4.3-6.1l0.6-0.7l0.6,0.8
			c2.3,3.3,4.4,6.7,6.4,10.1l0.2,0.3l-0.2,0.3c-0.2,0.5-0.3,0.9-0.3,1.4c-0.3,2.4-0.8,7.2-1.4,15c-0.3,4-0.6,8.4-0.9,13l-0.1,0.7
			L942.7,227.6z M951.3,188c-1.4,1.5-2.5,3.2-3.5,5c-0.3,0.6-1.2,4.9-3.3,33l9.8-0.5c0.2-4.3,0.6-8.4,0.8-12.2
			c0.6-7.9,1-12.7,1.4-15.1c0.1-0.5,0.2-1,0.3-1.4C955.1,193.8,953.3,190.9,951.3,188z"/>
	</g>
	<g>
		<path class="st12" d="M979.2,210.9c-1.9,0.4-4.8,1.1-6.8,1.8c-2.5,0.8-12.6,0.8-16.5,0.7c0.5-6.8,1-12.4,1.4-15l1-0.5
			c3.6-1.8,9.7-4.7,11.2-5.3c2.1-0.9,0.4,5.4,0,7.6c-0.4,2.2,3.5,0.6,6.9-0.8c0.9-0.4,1.8-0.9,2.7-1.4
			C979.6,202.2,979.7,206.6,979.2,210.9z"/>
		<path class="st9" d="M959.7,214.2c-1.8,0-3.1,0-3.8,0H955l0.1-0.9c0.6-7.9,1-12.7,1.4-15.1l0.1-0.4l1.4-0.6
			c6.4-3.1,10.1-4.8,11.3-5.3c0.7-0.3,1.3,0,1.5,0.2c1,0.9,0.6,3.3-0.1,6.8c-0.2,0.6-0.2,1.1-0.3,1.4c0,0.2,0,0.2,0,0.2
			c0.6,0.2,3.7-1,5.5-1.8l0.4-0.2c0.9-0.4,1.7-0.8,2.5-1.4l1-0.7l0.2,1.3c0.5,4.3,0.5,8.8,0.1,13.2l-0.1,0.6l-0.6,0.2
			c-1.9,0.4-4.7,1-6.7,1.7C970.6,214.1,964.1,214.2,959.7,214.2z M956.8,212.6c5.1,0.1,13.3,0,15.4-0.7c1.9-0.6,4.3-1.2,6.3-1.6
			c0.3-3.7,0.3-7.3,0-11c-0.6,0.3-1.1,0.6-1.7,0.8l-0.4,0.2c-3.6,1.4-6,2.3-7.1,1.4c-0.3-0.2-0.6-0.7-0.5-1.6c0.1-0.4,0.2-1,0.3-1.5
			c0.2-1.3,0.9-4.2,0.6-5.1c-1.4,0.6-5.1,2.3-11.1,5.2l-0.6,0.3C957.7,201.3,957.3,205.6,956.8,212.6z"/>
	</g>
	<g>
		<path class="st12" d="M977.3,264.4c-4.7-0.1-17.5,1.1-20.2,0c-1.4-0.6-2.7-1.4-4-2.3c0.2-2.7,0.3-6.3,0.6-10.5h21.9
			c0.1,1,0.4,1.9,0.9,2.7C977.2,255.5,977.3,260.7,977.3,264.4z"/>
		<path class="st9" d="M962.1,265.7c-2.5,0-4.3-0.2-5.3-0.6c-1.4-0.7-2.9-1.5-4.2-2.4l-0.3-0.2V262c0.2-2.7,0.3-6.4,0.6-10.5
			l0.1-0.7h23.3l0.1,0.7c0.1,0.9,0.4,1.7,0.8,2.4c0.2,0.4,1,1.7,1,10.5v0.8h-0.8c-1.5,0-4.1,0.1-6.8,0.2
			C967.3,265.6,964.4,265.7,962.1,265.7z M953.9,261.7c1.1,0.7,2.3,1.4,3.5,2c1.6,0.6,8.2,0.3,13,0.2c2.3-0.1,4.4-0.2,6-0.2
			c-0.1-7.2-0.6-8.6-0.8-8.9c-0.4-0.7-0.7-1.5-0.9-2.3h-20.4C954.2,256.1,954,259.2,953.9,261.7z"/>
	</g>
	<g>
		<path class="st12" d="M955.1,226.3c-0.6,8.7-1,17.9-1.4,25.3c-0.2,4.2-0.4,7.9-0.6,10.5c-3.9-2.5-9.3-6.2-11.5-6.9
			c0.3-5.5,1.1-16.8,2-28.3L955.1,226.3z"/>
		<path class="st9" d="M953.8,263.6l-1.1-0.7c-0.9-0.6-1.9-1.2-2.8-1.9c-3.2-2.1-6.8-4.5-8.4-5l-0.6-0.2v-0.6
			c0.3-5.2,1.1-16.3,2-28.3l0.1-0.7l13.1-0.6l-0.1,0.9c-0.5,7.1-0.9,15.4-1.4,25.3c-0.2,4.2-0.4,7.9-0.6,10.5L953.8,263.6z
			 M942.4,254.6c1.9,0.8,5.1,2.9,8.3,5c0.6,0.3,1.1,0.7,1.6,1c0.2-2.5,0.3-5.6,0.5-9.2c0.5-9.5,1-17.5,1.4-24.4l-9.9,0.5
			C943.5,238.9,942.8,249.3,942.4,254.6z"/>
	</g>
	<g>
		<path class="st12" d="M978.2,215.5c-1.8,5.5-1.3,17.4-1.3,24.5c0,3.2-0.1,5.5-0.6,5.9c-1,1-1.2,3.5-0.9,5.6h-21.9
			c0.4-7.4,0.9-16.6,1.4-25.3c0.2-4.6,0.6-8.9,0.9-13c3.9,0,14,0.1,16.5-0.7c1.9-0.6,4.8-1.3,6.8-1.8
			C979,212.5,978.7,214.1,978.2,215.5z"/>
		<path class="st9" d="M976.4,252.4h-23.7l0.1-0.9c0.6-9.9,1-18.2,1.4-25.3c0.2-4.6,0.6-8.9,0.9-13l0.1-0.7h1.9c4.2,0,13,0,15-0.6
			c1.9-0.6,4.5-1.2,6.8-1.8l1.1-0.2l-0.1,1.1c-0.2,1.6-0.5,3.2-1,4.7l0,0c-1.4,4.3-1.3,13-1.3,19.9c0,1.6,0,3.1,0,4.4
			c0,4.7-0.2,6-0.8,6.4c-0.7,0.7-1,2.8-0.6,4.9L976.4,252.4z M954.5,250.8h20.1c-0.2-2,0.2-4.3,1.2-5.3c0.2-0.2,0.3-1.4,0.3-5.3
			c0-1.4,0-2.8,0-4.4c-0.1-7.1-0.2-15.9,1.4-20.4c0.3-1.1,0.6-2.2,0.8-3.4c-2,0.5-4.1,1-5.6,1.4c-2.3,0.7-9.2,0.7-15.6,0.8h-0.4
			c-0.2,3.8-0.6,8-0.8,12.2C955.4,233.2,955,241.3,954.5,250.8z"/>
	</g>
</g>
</svg>
