<?xml version="1.0" encoding="utf-8"?>
<!-- Generator: Adobe Illustrator 26.0.0, SVG Export Plug-In . SVG Version: 6.00 Build 0)  -->
<svg version="1.1" id="Layer_1" xmlns="http://www.w3.org/2000/svg" xmlns:xlink="http://www.w3.org/1999/xlink" x="0px" y="0px"
	 viewBox="0 0 1116 360" style="enable-background:new 0 0 1116 360;" xml:space="preserve">
<style type="text/css">
	.st0{fill:#ED2F38;}
	.st1{opacity:0.24;}
	.st2{opacity:0.19;fill:#FFFFFF;enable-background:new    ;}
	.st3{font-family:'Poppins-ExtraBold';}
	.st4{font-size:65.16px;}
	.st5{font-size:71.62px;}
	.st6{fill:#FFFFFF;}
	.st7{fill:#46506D;stroke:#1B1E2A;stroke-miterlimit:10;}
	.st8{fill:#1B1E2A;stroke:#1B1E2A;stroke-miterlimit:10;}
	.st9{fill:#1B1E2A;}
	.st10{font-family:'Poppins-Regular';}
	.st11{font-size:69.773px;}
	.st12{fill:#46506D;}
</style>
<rect class="st0" width="1116" height="360"/>
<g>
	<g class="st1">
		<text transform="matrix(1 0 0 1 -142.7365 114.885)" class="st2 st3 st4">DUMAGUETE</text>
		<text transform="matrix(1 0 0 1 286.0935 114.885)" class="st2 st3 st4">DUMAGUETE</text>
	</g>
	<g class="st1">
		<text transform="matrix(1 0 0 1 -396.9865 175.7251)" class="st2 st3 st4">DUMAGUETE</text>
		<text transform="matrix(1 0 0 1 31.8435 175.7251)" class="st2 st3 st4">DUMAGUETE</text>
	</g>
	<g class="st1">
		<text transform="matrix(1 0 0 1 -103.3565 233.265)" class="st2 st3 st4">DUMAGUETE</text>
		<text transform="matrix(1 0 0 1 325.4735 233.265)" class="st2 st3 st4">DUMAGUETE</text>
	</g>
	<g class="st1">
		<text transform="matrix(1 0 0 1 -400.2065 294.2451)" class="st2 st3 st4">DUMAGUETE</text>
		<text transform="matrix(1 0 0 1 28.6235 294.2451)" class="st2 st3 st4">DUMAGUETE</text>
	</g>
	<g class="st1">
		<text transform="matrix(1 0 0 1 -210.7565 354.3751)" class="st2 st3 st4">DUMAGUETE</text>
		<text transform="matrix(1 0 0 1 218.0735 354.3751)" class="st2 st3 st4">DUMAGUETE</text>
	</g>
	<g class="st1">
		<text transform="matrix(1 0 0 1 -51.6165 58.1951)" class="st2 st3 st5">DUMAGUETE</text>
	</g>
	<g class="st1">
		<text transform="matrix(1 0 0 1 714.3794 114.885)" class="st2 st3 st4">DUMAGUETE</text>
	</g>
	<g class="st1">
		<text transform="matrix(1 0 0 1 460.1295 175.725)" class="st2 st3 st4">DUMAGUETE</text>
		<text transform="matrix(1 0 0 1 888.9595 175.725)" class="st2 st3 st4">DUMAGUETE</text>
	</g>
	<g class="st1">
		<text transform="matrix(1 0 0 1 753.7595 233.265)" class="st2 st3 st4">DUMAGUETE</text>
	</g>
	<g class="st1">
		<text transform="matrix(1 0 0 1 456.9094 294.245)" class="st2 st3 st4">DUMAGUETE</text>
		<text transform="matrix(1 0 0 1 885.7395 294.245)" class="st2 st3 st4">DUMAGUETE</text>
	</g>
	<g class="st1">
		<text transform="matrix(1 0 0 1 646.3594 354.375)" class="st2 st3 st4">DUMAGUETE</text>
		<text transform="matrix(1 0 0 1 1075.1895 354.375)" class="st2 st3 st4">DUMAGUETE</text>
	</g>
	<g class="st1">
		<text transform="matrix(1 0 0 1 413.89 58.1955)" class="st2 st3 st5">DUMAGUETE</text>
	</g>
	<g class="st1">
		<text transform="matrix(1 0 0 1 876.7581 58.6968)" class="st2 st3 st5">DUMAGUETE</text>
	</g>
</g>
<g>
	<text transform="matrix(1 0 0 1 184.1554 213.1137)" class="st9 st10 st11">CADAWINONAN</text>
	<g>
		<g>
			<path class="st6" d="M171.9,154.9L171.9,154.9L171.9,154.9c0.1-0.4,0.2-0.8,0.4-1.1c0.7-1.2,1-2.6,0.7-4l-0.1-0.7
				c-0.1-0.3-0.1-0.6-0.2-1l0,0c-0.4-2.1-0.7-3.8-1.3-5.2c-0.9-2.5-1.7-5-2.3-7.5c-0.3-1.4-0.5-4.3-0.5-4.3
				c-0.1-0.8-0.7-1.4-1.5-1.3c-0.5,0-0.9,0.3-1.2,0.7c-0.7,1.1-1.7,2.3-2.1,2.5c-0.6,0.2-2.8,0.3-4,0.3c-1.6,0.1-2.2,0.1-2.6,0.3
				c-0.4,0.1-0.8,0.1-1.3,0c-0.8-0.2-5.9-0.6-7.7,0.1c-0.6,0.2-1,0.4-1.4,0.6l0,0l-0.4,0.2c-0.2,0.1-0.5,0.3-0.7,0.4
				c-2.5,0.3-5.1,0.5-7.7,0.6l0,0h-0.7c-4.3,0.1-6.9-0.4-7.2-0.6c-0.1,0-0.1-0.1-0.2-0.1c-0.9-0.4-3.3-1.5-6.2-1l0,0h-0.1l0,0h-0.2
				c-3.1,0.7-4.8,1.5-5.2,1.7c-0.6,0.2-5.1,1.7-7,2.3c-0.5-0.8-1.2-2.2-1.6-3.1c-1.4-2.8-1.7-3.2-2.1-3.5c-0.5-0.3-3.7-1.5-4.6-1.8
				c-4.6-1.6-4.8-1.5-5.4-1.1c-0.4,0.2-0.5,0.4-1.7,2.4c-1,1.7-3.7,6.2-4.6,6.8c-0.5,0.2-2.9,1.1-5.5,2.1c-3.3,1.3-7.5,2.9-10.9,4.2
				c-1.9,0.7-3.2,1.3-4.2,1.7c-0.6,0.2-1,0.4-1.3,0.5c-0.4,0.2-1.5,0.7-1.2,1.8c0.1,0.5,0.2,0.6,1.8,2.4c1.7,1.9,4.8,5.3,5.8,7.2
				c0.5,0.9,1.5,3.2,2.8,6.4l0,0c1,2.5,2.2,5.5,3.2,8.2l0,0c0.9,2.3,1.5,4.2,1.9,5.3c0.7,2.1,3.1,9.8,7,22.2l0,0l1.7,5.5l2,7.1l0,0
				l8.4,29.4c0.2,0.6,0.7,1,1.4,1c0.1,0,0.1,0,0.2,0l17.5-2.1h0.1h0.1l0,0l12.7-2.2l0,0h0.2h0.1l14.6-3.7c0.5-0.1,0.9-0.5,1-1
				c0.5-2,1.9-5.6,3.2-6.6c0.1-0.1,0.2-0.2,0.3-0.2c0,0,0.1-0.1,0.2-0.3l0,0c4-4.8,4-5.8,4-6.3v-0.3c0.1-4.9,0.8-6.5,1.1-7l0.1-0.2
				l0,0c1-1.4,1.7-3,2-4.7c0.4-1.9,0.6-3.2,0.7-3.7l0,0l0,0l0.1-0.4v-0.1c0.3-2.8,1.1-5.5,2.2-8.1c0.8-1.6,1.7-3.1,2.9-4.5
				c0.7-0.9,1.4-1.7,1.7-2.7c0.1-0.4,0.3-0.9,0.5-1.3c0.1-0.3,0.2-0.5,0.3-0.8l0,0c0.4-1,0.7-2.1,0.7-3.2c0-0.9,0-2.2-0.2-3.9l0,0
				c-0.2-1.7-0.4-3.3-0.7-5c-0.4-2.2-0.9-4.3-1.7-6.3l0,0l0,0c-0.1-0.3-0.2-0.5-0.3-0.8c-0.1-0.2-0.2-0.4-0.2-0.7
				c0,0,0.1-0.1,0.5-0.4c1.4-0.8,3.2-2.4,4.1-4.4l0,0c0.2-0.5,0.3-0.9,0.4-1.4c0.2-1.2,0.1-2.4-0.3-3.5
				C171.9,155.8,171.8,155.4,171.9,154.9z"/>
		</g>
		<g>
			<path class="st12" d="M121.8,172.7c-1,0.1-2.7,0.2-3.2,0.2c-0.9,0-2.1-1.7-3.2-1.7s-1.9,1.3-2.5,2c-0.5,0.5-1.2,1-3.2,1.3
				c-0.4,0.1-0.9,0.1-1.5,0.1c-3.2,0.2-4.3-1.3-6.2-1.6c-1.8-0.4-1.9,0.3-3.2,0.6c-1.2,0.3-2.1-1.4-5.4-3.1c-3.3-1.6-3-0.5-4.4-0.2
				c-1.5,0.4-3.8-1.8-4.1-1.7c-0.2,0.1-1.2,1.7-2,3c-1-2.6-2.1-5.6-3.2-8.2c2-0.3,6.4-0.9,14.2-2.2c9.9-1.6,18.3-3.1,20.1-3.4
				C115.5,161.4,119,169.5,121.8,172.7z"/>
			<path class="st9" d="M107.6,174.7c-1.8,0-2.9-0.5-3.8-1c-0.6-0.3-1.1-0.5-1.8-0.7c-1.2-0.2-1.6,0-2.1,0.2c-0.3,0.1-0.6,0.3-1,0.4
				c-0.7,0.2-1.3-0.3-2.3-1c-0.7-0.6-1.8-1.3-3.3-2.1c-2.4-1.2-2.8-0.9-3.4-0.6c-0.2,0.1-0.5,0.3-0.9,0.4c-1.1,0.3-2.5-0.7-3.4-1.3
				c-0.3-0.2-0.6-0.4-0.7-0.4c-0.1,0.1-0.5,0.6-1.9,2.9l-0.2,0.3l-0.1-0.3c-1-2.7-2.2-5.7-3.2-8.2l-0.1-0.2h0.2
				c2-0.3,6.4-0.9,14.2-2.2c10.4-1.7,19.1-3.2,20.1-3.4h0.1l0.1,0.1c1.4,3.4,5.1,11.8,7.8,15.1l0.2,0.3h-0.3
				c-1.1,0.1-2.7,0.2-3.2,0.2s-1-0.4-1.5-0.8c-0.6-0.5-1.2-0.9-1.7-0.9c-0.8,0-1.5,0.9-2,1.5c-0.1,0.1-0.2,0.3-0.3,0.4
				c-0.5,0.6-1.3,1.1-3.3,1.3c-0.4,0.1-0.9,0.1-1.5,0.1C108,174.7,107.8,174.7,107.6,174.7z M101,172.6c0.3,0,0.6,0,1,0.1
				c0.7,0.1,1.2,0.4,1.8,0.7c1,0.5,2.2,1.1,4.3,0.9c0.6,0,1.1-0.1,1.5-0.1c2.1-0.3,2.7-0.8,3.1-1.2c0.1-0.1,0.2-0.2,0.3-0.4
				c0.6-0.7,1.3-1.6,2.3-1.6c0.6,0,1.3,0.5,1.9,1c0.5,0.4,1,0.8,1.3,0.8c0.5,0,2.1-0.1,2.9-0.1c-2.7-3.4-6.2-11.3-7.6-14.8
				c-1.5,0.3-9.9,1.7-20,3.4c-7.6,1.2-12,1.9-14,2.2c1,2.4,2.1,5.2,3,7.7c1.6-2.7,1.8-2.7,1.9-2.8c0.2,0,0.4,0.1,1,0.5
				c0.8,0.6,2.2,1.5,3.1,1.3c0.4-0.1,0.6-0.2,0.8-0.4c0.8-0.4,1.3-0.6,3.7,0.6c1.6,0.8,2.6,1.5,3.4,2.1c0.9,0.7,1.4,1.1,2,0.9
				c0.4-0.1,0.7-0.2,0.9-0.3C100.1,172.7,100.4,172.6,101,172.6z"/>
		</g>
		<g>
			<path class="st12" d="M130.6,147.7l-16.3,9.9l-0.3,0.1c-1.8,0.3-10.2,1.8-20.1,3.4c-7.8,1.3-12.3,1.9-14.2,2.2
				c-1.2-2.9-2.3-5.5-2.9-6.6c-1.6-2.9-7.4-8.8-7.5-9.1s20.7-8.1,22.3-8.8s6.1-9.1,6.5-9.3c0.3-0.2,8.1,2.6,8.6,2.9
				c0.5,0.3,3.5,7.1,4,7.1s7.8-2.4,8.2-2.6c0.4-0.2,1.9-0.9,4.9-1.6c0.1,0,0.1,0,0.2,0L130.6,147.7z"/>
			<path class="st9" d="M79.5,163.4v-0.1c-0.9-2.3-2.2-5.3-2.9-6.5c-1.1-1.9-4.1-5.3-6-7.4c-1.3-1.5-1.5-1.7-1.5-1.8
				c0-0.2-0.1-0.3,16.8-6.8c2.9-1.1,5.1-2,5.6-2.2c1.1-0.5,3.7-4.9,5.2-7.3c0.9-1.5,1.1-1.9,1.3-2c0.5-0.3,8.7,2.9,8.7,2.9
				c0.2,0.1,0.7,1,1.7,3c0.8,1.6,2,3.9,2.3,4.1c0.5,0,7.7-2.4,8.1-2.6c0.2-0.1,1.8-0.9,4.9-1.6c0.1,0,0.2,0,0.2,0h0.1l6.8,12.6
				l-16.5,10l-0.3,0.1c-0.4,0.1-9.3,1.6-20.1,3.4c-7.8,1.3-12.3,1.9-14.2,2.2L79.5,163.4z M69.5,147.6c0.2,0.2,0.8,0.9,1.4,1.6
				c1.8,2,4.9,5.5,6,7.4c0.7,1.2,1.9,4.2,2.8,6.5c2-0.3,6.4-0.9,14.1-2.2c10.8-1.8,19.7-3.3,20.1-3.4l0.3-0.1l16.1-9.8l-6.5-12.1
				h-0.1c-3.1,0.7-4.7,1.5-4.9,1.5c-0.3,0.2-7.7,2.6-8.3,2.6c-0.4,0-0.9-1-2.5-4.2c-0.7-1.3-1.4-2.7-1.6-2.9
				c-0.5-0.3-7.7-2.9-8.4-2.9c-0.1,0.1-0.6,1-1.1,1.8c-2.1,3.5-4.2,7-5.3,7.4c-0.5,0.2-2.7,1.1-5.6,2.2
				C80.2,143.3,70.6,147,69.5,147.6z"/>
		</g>
		<g>
			<path class="st12" d="M116.6,191.2L91.7,199c-2.2-7.2-6-19.3-7-22.2c-0.4-1.2-1.1-3.2-2-5.4c0.8-1.3,1.8-2.9,2-3
				c0.3-0.1,2.6,2.1,4.1,1.7s1.1-1.4,4.4,0.2c3.3,1.6,4.2,3.3,5.4,3.1c1.2-0.3,1.3-0.9,3.2-0.6c1.8,0.4,2.9,1.8,6.2,1.6
				c0.6,0,1.1-0.1,1.5-0.1c0,0.1,0,0.1,0,0.2c0,0.9,4.3,9.5,6,13.1C116.2,188.8,116.5,190,116.6,191.2z"/>
			<path class="st9" d="M91.6,199.2V199c-1.4-4.4-5.9-19-7-22.2c-0.4-1.2-1.1-3.2-2-5.4v-0.1v-0.1c1.8-3,2-3,2.1-3.1
				c0.2,0,0.4,0.1,1,0.5c0.8,0.5,2.2,1.5,3.1,1.2c0.4-0.1,0.6-0.2,0.8-0.4c0.8-0.4,1.3-0.6,3.7,0.6c1.6,0.8,2.6,1.5,3.4,2.1
				c0.9,0.7,1.4,1.1,2,0.9c0.4-0.1,0.7-0.2,0.9-0.3c0.6-0.3,1-0.5,2.3-0.2c0.7,0.1,1.2,0.4,1.8,0.7c1,0.5,2.2,1.1,4.3,0.9
				c0.6,0,1.1-0.1,1.5-0.1h0.1v0.1c0,0.1,0,0.2,0,0.2c0,0.7,2.8,6.5,4.7,10.4c0.5,1,0.9,1.9,1.3,2.6c0.5,1.2,0.8,2.4,1,3.6v0.1h-0.1
				L91.6,199.2z M83,171.4c0.8,2.2,1.5,4.1,1.9,5.3c1.1,3.2,5.5,17.5,6.9,22.1l24.6-7.7c-0.2-1.2-0.5-2.3-0.9-3.4
				c-0.3-0.7-0.8-1.6-1.3-2.6c-2.6-5.3-4.8-9.8-4.8-10.5l0,0c-0.4,0-0.8,0.1-1.3,0.1c-2.1,0.1-3.4-0.5-4.4-1
				c-0.6-0.3-1.1-0.5-1.8-0.7c-1.2-0.2-1.6,0-2.1,0.2c-0.3,0.1-0.6,0.3-1,0.4c-0.7,0.2-1.3-0.3-2.3-1c-0.7-0.6-1.8-1.3-3.3-2.1
				c-2.4-1.2-2.8-0.9-3.4-0.6c-0.2,0.1-0.5,0.3-0.9,0.4c-1.1,0.3-2.5-0.7-3.4-1.3c-0.3-0.2-0.6-0.4-0.7-0.4
				C84.8,168.7,84.4,169.2,83,171.4z"/>
		</g>
		<g>
			<path class="st12" d="M118,206.8c-8.8,1.7-18.2,3.8-22.5,4.8l-2-7.1c0,0-0.7-2.3-1.7-5.5l24.9-7.8c0.9,5,1.1,12.6,1.2,14.4
				C117.9,205.8,117.9,206.3,118,206.8z"/>
			<path class="st9" d="M95.4,211.8l-2.1-7.2l0,0c0,0-0.7-2.3-1.7-5.5v-0.2l25.2-7.9v0.2c0.6,3.6,0.9,8.5,1.1,11.7
				c0.1,1.2,0.1,2.2,0.2,2.7c0,0.2,0.1,0.6,0.1,1.2v0.2H118C108.9,208.8,99.2,211,95.4,211.8L95.4,211.8z M91.9,199.1
				c1,3.2,1.7,5.4,1.7,5.4l2,6.9c3.8-0.9,13.2-3,22.2-4.8c-0.1-0.5-0.1-0.8-0.1-1c-0.1-0.5-0.1-1.5-0.2-2.7c-0.2-3.2-0.4-7.9-1-11.5
				L91.9,199.1z"/>
		</g>
		<g>
			<path class="st12" d="M121.5,238.9L121.5,238.9l-17.6,2.1l-8.4-29.4c4.3-1,13.7-3.1,22.5-4.8c0.5,4.9,2.3,21.2,2.5,25.2
				C120.6,234.3,121,236.6,121.5,238.9z"/>
			<path class="st9" d="M103.8,241.2l-8.5-29.7h0.2c2.9-0.7,12.9-3,22.5-4.8h0.2l0.2,1.8c0.6,6,2.2,20,2.3,23.6
				c0.1,2.3,0.5,4.6,1.1,6.9v0.2l-0.3,0.1L103.8,241.2z M95.7,211.7l8.4,29.1l17.3-2.1c-0.6-2.2-0.9-4.5-1-6.7
				c-0.1-3.6-1.7-17.6-2.3-23.5l-0.2-1.4C108.5,208.8,98.7,211,95.7,211.7z"/>
		</g>
		<g>
			<path class="st12" d="M133.4,219c-0.2,0.6,0.6,13.3,0.9,17.6l-12.7,2.2c-0.6-2.3-0.9-4.6-1.1-6.9c-0.2-4-1.9-20.2-2.5-25.2
				c4.4-0.8,8.6-1.6,12.1-2s6.1-0.8,8-1c-0.5,2.3-1.1,4.5-1.8,6.7C135,214.5,133.5,218.6,133.4,219z"/>
			<path class="st9" d="M121.4,239v-0.1c-0.6-2.3-0.9-4.6-1.1-6.9c-0.1-3.6-1.7-17.6-2.3-23.5l-0.2-1.8h0.2c4.9-0.9,9-1.6,12.1-2
				c3.3-0.4,6-0.8,8-1h0.2v0.2c-0.5,2.3-1.1,4.5-1.8,6.7c-0.9,2.8-1.8,5.6-2.4,7.3c-0.2,0.7-0.4,1.2-0.4,1.3
				c-0.1,0.5,0.4,9.4,0.9,17.5v0.1L121.4,239z M118.2,206.9l0.2,1.5c0.6,6,2.2,19.9,2.3,23.5c0.1,2.3,0.5,4.5,1,6.7l12.4-2.2
				c-0.3-5.2-1-16.9-0.8-17.5l0,0c0-0.1,0.2-0.6,0.4-1.3c0.6-1.7,1.5-4.4,2.4-7.3c0.7-2.1,1.3-4.3,1.7-6.4c-2,0.3-4.6,0.6-7.8,1
				C127,205.3,123,206,118.2,206.9z"/>
		</g>
		<g>
			<path class="st12" d="M153.1,225.3l-0.2,0.3c-2.3,1.6-3.8,7.4-3.8,7.4l-14.6,3.7h-0.2c-0.3-4.3-1-17-0.9-17.6
				c0.1-0.4,1.6-4.5,2.9-8.6c1,2.5,3.1,7,3.7,7.6C140.7,218.7,149.6,223.4,153.1,225.3z"/>
			<path class="st9" d="M134.1,236.8v-0.2c-0.1-1.7-1-16.9-0.8-17.7c0-0.1,0.2-0.7,0.5-1.4c0.6-1.6,1.5-4.4,2.4-7.2l0.1-0.4l0.2,0.4
				c1.4,3.4,3.1,7.1,3.7,7.6c0.8,0.7,10.2,5.7,13.1,7.2l0.2,0.1l-0.4,0.5c-2.2,1.6-3.7,7.2-3.7,7.3v0.1L134.1,236.8z M136.3,210.9
				c-0.8,2.6-1.7,5.2-2.2,6.8c-0.3,0.7-0.4,1.3-0.5,1.4c-0.1,0.5,0.4,10.6,0.8,17.4l14.5-3.7c0.2-0.8,1.7-5.8,3.8-7.4l0.1-0.1
				c-3.8-2-12.2-6.4-13-7.1C139.1,217.5,137,212.6,136.3,210.9z"/>
		</g>
		<g>
			<path class="st12" d="M158.4,211.6c-0.1,0.1-0.1,0.1-0.1,0.1c-1.4,1.8-1.4,7-1.5,8.1c0,0.9-2.9,4.4-3.7,5.4
				c-3.5-1.9-12.4-6.5-13.1-7.2c-0.7-0.6-2.7-5.2-3.7-7.6c0.7-2.2,1.3-4.4,1.8-6.7l0,0c2.4,0.3,6.9,2.8,8.4,3.4
				C147.6,207.6,154.7,210.2,158.4,211.6z"/>
			<path class="st9" d="M153.2,225.5l-0.1-0.1c-3.7-1.9-12.4-6.5-13.1-7.2c-0.7-0.7-2.9-5.6-3.8-7.7v-0.1v-0.1
				c0.7-2.2,1.3-4.4,1.8-6.7v-0.2h0.2c1.7,0.2,4.5,1.6,6.6,2.6c0.8,0.4,1.4,0.7,1.9,0.9c1.1,0.4,7.9,2.9,11.5,4.3l0.6,0.2l-0.1,0.2
				c-0.1,0.1-0.1,0.1-0.1,0.1c-1.2,1.7-1.4,6.2-1.4,7.7v0.3c0,0.9-2.3,3.8-3.7,5.5L153.2,225.5z M136.5,210.4
				c1.8,4.3,3.2,7.1,3.7,7.5c0.7,0.7,9.9,5.5,13,7.1c2.2-2.6,3.5-4.6,3.6-5.2v-0.3c0-1.5,0.2-6.1,1.5-7.9l-0.2-0.1
				c-3.9-1.5-10.4-3.9-11.5-4.3c-0.4-0.2-1.1-0.5-1.9-0.9c-1.9-1-4.6-2.2-6.3-2.5C137.7,206.1,137.1,208.3,136.5,210.4z"/>
		</g>
		<g>
			<path class="st12" d="M160.8,203.8c-0.1,0.6-0.3,1.9-0.7,3.7c-0.3,1.5-0.9,2.9-1.7,4.1c-3.7-1.4-10.8-4-11.9-4.4
				c-1.5-0.6-6-3.1-8.4-3.4c5-0.7,5.3-0.9,6-1.1c0.3-0.1,1.3-1.5,2.6-3.4c1.2,0.6,3.5,1.7,4.6,2
				C152.5,201.7,158.6,203.3,160.8,203.8z"/>
			<path class="st9" d="M158.4,211.8h-0.1c-3.7-1.4-10.8-4-11.9-4.4c-0.4-0.2-1.1-0.5-1.9-0.9c-2-1-4.7-2.3-6.4-2.5l-1.3-0.2
				l1.3-0.2c4.6-0.6,5.2-0.8,5.8-1h0.2c0.2-0.1,0.7-0.7,2.5-3.3l0.1-0.1l0.1,0.1c1,0.5,3.4,1.7,4.6,2c0.9,0.3,4.2,1.1,9.5,2.5h0.1
				v0.2c-0.1,0.7-0.4,2.2-0.7,3.7s-0.9,2.9-1.8,4.2L158.4,211.8z M139.1,203.8c1.7,0.5,3.9,1.5,5.6,2.3c0.8,0.4,1.5,0.7,1.9,0.9
				c1.1,0.4,8,3,11.8,4.4c0.8-1.2,1.4-2.5,1.6-3.9c0.3-1.4,0.5-2.8,0.6-3.5c-5.3-1.4-8.5-2.2-9.4-2.5c-1.1-0.4-3.4-1.5-4.5-2
				c-1.8,2.8-2.3,3.3-2.6,3.3H144C143.4,203.1,142.9,203.2,139.1,203.8z"/>
		</g>
		<g>
			<path class="st12" d="M168.5,185.8c-0.3,0.7-0.5,1.4-0.8,2.1c-0.6,1.7-2.6,3-4.5,7c-1.2,2.7-2,5.6-2.4,8.5c0,0,0,0.1-0.1,0.4
				c-2.2-0.6-8.2-2.1-9.5-2.5c-1.1-0.4-3.4-1.5-4.6-2c2.5-3.9,5.9-9.6,5.9-9.6s-2.2-3.4-5-8c1.8,0.1,8.1,0.3,8.5,0.3h0.1
				c0.5,0.1,1.6,0.9,2.4,1.4c0.3,0.2,0.6,0.3,0.9,0.5c0.6,0.2,3.3,0,4.2,0c0.1,0,0.1,0,0.2,0C164.3,184,166.9,185.1,168.5,185.8z"/>
			<path class="st9" d="M160.9,204h-0.2c-5.3-1.4-8.6-2.3-9.5-2.5c-1.2-0.4-3.6-1.6-4.6-2.1l-0.2-0.1l0.1-0.2
				c2.3-3.6,5.4-8.8,5.8-9.5c-0.4-0.6-2.4-3.8-5-7.9l-0.2-0.3h0.3c3,0.1,8.1,0.3,8.5,0.3c0.1,0,0.1,0,0.2,0c0.4,0.1,1.1,0.6,1.8,1.1
				c0.2,0.1,0.4,0.3,0.6,0.4c0.3,0.2,0.5,0.3,0.8,0.5c0.3,0.1,1.6,0.1,2.6,0c0.6,0,1.2-0.1,1.5,0c0.1,0,0.1,0,0.2,0
				c0.4,0,1.9,0.6,4.7,1.8l0.1,0.1l-0.1,0.1c-0.1,0.3-0.2,0.5-0.3,0.8c-0.2,0.4-0.3,0.9-0.5,1.4c-0.3,0.8-0.8,1.4-1.5,2.3
				c-0.9,1.1-2,2.5-3,4.8c-1.2,2.7-2,5.6-2.3,8.5c0,0,0,0.1-0.1,0.4L160.9,204z M146.9,199.2c1.1,0.5,3.3,1.6,4.4,2
				c0.9,0.3,4.1,1.1,9.3,2.5c0-0.1,0-0.2,0-0.2c0.4-3,1.2-5.8,2.4-8.6c1.1-2.3,2.2-3.7,3.1-4.8c0.7-0.8,1.2-1.5,1.4-2.2
				c0.2-0.5,0.3-0.9,0.5-1.4c0.1-0.2,0.2-0.4,0.2-0.6c-3.3-1.4-4.2-1.7-4.4-1.8c-0.1,0-0.1,0-0.2,0c-0.4,0-0.9,0-1.5,0
				c-1.4,0.1-2.4,0.1-2.8-0.1c-0.3-0.1-0.6-0.3-0.9-0.5c-0.2-0.1-0.4-0.2-0.6-0.4c-0.7-0.4-1.4-0.9-1.8-1h-0.1
				c-0.4,0-6.7-0.2-8.2-0.3c2.8,4.4,4.9,7.7,4.9,7.7l0.1,0.1l-0.1,0.1C152.7,189.8,149.4,195.4,146.9,199.2z"/>
		</g>
		<g>
			<path class="st12" d="M160.5,146.6c-2.4-0.2-3,2.2-11.1,4h-0.2c-6,1.3-12,2.9-15,3.7l-3.6-6.6l-6.7-12.3c2.8-0.5,5.3,0.8,5.7,1
				c0.5,0.2,3.2,0.7,7.7,0.6h0.7c1.4,2.3,4.6,7.4,4.7,7.4c0.1,0,7.8-2.2,11.3-3.2L160.5,146.6z"/>
			<path class="st9" d="M134.1,154.5l-10.4-19.3h0.2c2.5-0.5,4.6,0.5,5.5,0.9c0.1,0.1,0.2,0.1,0.3,0.1c0.5,0.2,3.1,0.7,7.7,0.6h0.8
				v0.1c2,3.3,4.2,6.9,4.6,7.3c0.5-0.1,4.6-1.3,7.9-2.2c1.3-0.4,2.4-0.7,3.4-0.9h0.1l6.9,5.7h-0.5c-1-0.1-1.6,0.3-2.7,0.9
				c-1.5,0.8-3.7,2-8.4,3.1h-0.2c-5.5,1.2-11.2,2.7-15,3.7L134.1,154.5z M124.2,135.5l10.1,18.6c3.8-1,9.4-2.5,14.9-3.7h0.2
				c4.6-1,6.8-2.2,8.3-3c0.9-0.5,1.6-0.9,2.4-0.9l-6-5c-0.9,0.3-2.1,0.6-3.3,0.9c-6.3,1.8-7.9,2.2-8,2.2s-0.3,0-4.8-7.4h-0.6
				c-4.6,0.1-7.3-0.5-7.8-0.6c-0.1,0-0.2-0.1-0.3-0.1C128.4,136,126.5,135.1,124.2,135.5z"/>
		</g>
		<g>
			<path class="st12" d="M154.1,141.2c-3.5,1-11.2,3.1-11.3,3.2s-3.3-5.1-4.7-7.4c2.7,0,5.3-0.3,7.9-0.6c0.5-0.2,1-0.4,1.4-0.6
				L154.1,141.2z"/>
			<path class="st9" d="M142.8,144.6c-0.2,0-0.5-0.5-4.9-7.5l-0.2-0.2h0.3c2.6,0,5.3-0.3,7.9-0.6c0.5-0.2,0.9-0.4,1.4-0.6l0.1-0.1
				l7,5.8l-0.3,0.1C150.5,142.4,142.9,144.5,142.8,144.6L142.8,144.6z M138.3,137.1c3.3,5.4,4.2,6.8,4.5,7.1
				c0.8-0.2,7.5-2.1,10.9-3.1l-6.3-5.3c-0.4,0.2-0.9,0.4-1.4,0.6C143.5,136.9,140.9,137.1,138.3,137.1z"/>
		</g>
		<g>
			<path class="st12" d="M171.3,148.4c-2.3-0.4-8.4-1.6-10.6-1.8h-0.2l0,0l-6.4-5.3l-6.7-5.6c0.4-0.2,0.8-0.4,1.3-0.6
				c1.3-0.5,6.1-0.3,6.8-0.1c0.6,0.2,2.2,0,2.4-0.2s5-0.1,6.4-0.6s2.9-3.1,2.9-3.1s0.2,3,0.6,4.5c0.6,2.6,1.4,5.2,2.3,7.8
				C170.6,145.1,171,146.7,171.3,148.4z"/>
			<path class="st9" d="M171.5,148.6h-0.2c-2.5-0.5-8.4-1.6-10.6-1.8h-0.3l0,0l-13.3-11.1l0.2-0.1c0.4-0.2,0.8-0.4,1.3-0.6
				c1.4-0.6,6.2-0.3,6.9-0.1c0.6,0.2,2,0,2.2-0.1c0.1-0.1,0.3-0.1,2-0.2c1.5-0.1,3.7-0.1,4.5-0.4c1.3-0.4,2.8-3,2.8-3l0.3-0.5v0.5
				c0,0,0.2,3,0.6,4.5c0.6,2.6,1.4,5.2,2.3,7.7c0.6,1.6,1,3.3,1.2,4.9L171.5,148.6z M160.6,146.4h0.2c2.1,0.2,7.8,1.3,10.4,1.8
				c-0.3-1.6-0.7-3.1-1.2-4.6c-0.9-2.5-1.7-5.2-2.3-7.8c-0.2-1.2-0.4-3.1-0.5-4c-0.5,0.8-1.7,2.4-2.7,2.7c-0.8,0.3-3,0.4-4.6,0.4
				c-0.8,0-1.6,0.1-1.8,0.1c-0.3,0.2-1.9,0.4-2.5,0.2c-0.7-0.2-5.4-0.4-6.7,0.1c-0.4,0.2-0.8,0.3-1.1,0.5L160.6,146.4z"/>
		</g>
		<g>
			<path class="st12" d="M171,159.9c-0.1,0.4-0.2,0.7-0.3,1.1c-1.2,0-3.6,0.4-6.9,2.4c-0.2,0.1-0.5,0.3-0.7,0.4l-0.5-10
				c2.2,0.2,5.9,0.6,7.9,0.8C170.2,156.4,171.4,157.6,171,159.9z"/>
			<path class="st9" d="M163,164.1l-0.5-10.5h0.2c2.2,0.2,5.9,0.6,7.9,0.8h0.2v0.2c-0.1,0.8,0,1.4,0.2,2.2s0.5,1.8,0.3,3l0,0
				c-0.1,0.4-0.2,0.8-0.3,1.1v0.1h-0.1c-1.1,0-3.5,0.4-6.8,2.4l-0.1,0.1c-0.2,0.1-0.4,0.2-0.5,0.3L163,164.1z M162.8,154l0.5,9.5
				c0.1-0.1,0.2-0.1,0.3-0.2l0.1-0.1c3.3-2,5.7-2.4,6.9-2.5c0.1-0.3,0.2-0.6,0.3-1c0.2-1.2,0-2-0.3-2.9c-0.2-0.7-0.4-1.4-0.3-2.1
				C168.4,154.6,165,154.3,162.8,154z"/>
		</g>
		<g>
			<path class="st12" d="M170.7,161c-0.7,1.7-2.3,3.1-3.4,3.7c-1.4,0.8-1.5,1.5-1,2.8c0.1,0.3,0.2,0.5,0.3,0.8
				c-0.6,0.4-1.8,1.2-2.5,1.7c-0.2,0.1-0.4,0.2-0.6,0.3c-0.7,0.3-1.5,0.6-1.4,0.2c0.1-0.5,0.4-1.8,0-1.6c-0.3,0.1-1.6,0.7-2.3,1.1
				l-0.1-0.2l0,0c-0.4-0.6-0.8-1.3-1.3-2.1c0.8-0.9,2.3-2.2,4.9-3.9c0.2-0.1,0.4-0.3,0.7-0.4C167.1,161.4,169.5,161,170.7,161z"/>
			<path class="st9" d="M162.2,170.9c-0.1,0-0.2,0-0.3-0.1s-0.1-0.2-0.1-0.3s0-0.2,0.1-0.3c0.1-0.3,0.2-0.9,0.1-1.1
				c-0.3,0.1-1,0.5-1.7,0.8l-0.8,0.4l-0.2-0.4c-0.3-0.6-0.8-1.3-1.3-2.1l-0.1-0.1l0.1-0.1c1.1-1.2,2.7-2.5,4.9-3.9
				c0.1-0.1,0.3-0.2,0.4-0.2l0.3-0.2c3.4-2.1,5.8-2.4,7-2.5h0.3l-0.1,0.2c-0.7,1.8-2.3,3.2-3.5,3.8c-1.4,0.8-1.4,1.5-0.9,2.6
				c0.1,0.2,0.2,0.5,0.3,0.8l0.1,0.1l-0.1,0.1c-0.6,0.4-1.8,1.2-2.6,1.7c-0.2,0.1-0.4,0.2-0.6,0.3h-0.1
				C162.9,170.7,162.5,170.9,162.2,170.9z M162.1,168.7c0.1,0,0.1,0,0.2,0.1c0.2,0.2,0.1,0.7,0,1.4c0,0.1,0,0.2-0.1,0.3l0,0
				c0.1,0.1,0.8-0.2,1.1-0.4h0.1c0.2-0.1,0.4-0.2,0.5-0.3c0.7-0.4,1.8-1.2,2.4-1.6c-0.1-0.3-0.2-0.5-0.3-0.7
				c-0.5-1.3-0.5-2.2,1.1-3.1c1.1-0.6,2.5-1.8,3.3-3.4c-1.2,0.1-3.5,0.5-6.5,2.4l-0.3,0.2c-0.1,0.1-0.3,0.2-0.4,0.2
				c-2.1,1.3-3.7,2.6-4.8,3.7c0.5,0.7,0.9,1.4,1.3,2l0.1,0.1l0.5-0.2c0.7-0.3,1.5-0.7,1.7-0.8C162,168.7,162.1,168.7,162.1,168.7z"
				/>
		</g>
		<g>
			<path class="st12" d="M169,179.2c-0.7-0.1-1.3-0.2-1.9-0.4c-0.4-0.1-2.5,0-3.5,0c0-1.5-0.1-4,0.3-5.1c0.1-0.3,0.2-0.6,0.2-1
				c0.1-0.9,0.1-1.8,0-2.7c0.8-0.5,2-1.3,2.5-1.7c0.8,2,1.4,4,1.7,6.1C168.6,176,168.8,177.6,169,179.2z"/>
			<path class="st9" d="M169.1,179.4h-0.2c-0.7-0.1-1.3-0.2-2-0.4c-0.3-0.1-2.2,0-3.4,0h-0.2v-0.2c0-0.3,0-0.5,0-0.8
				c0-1.5,0-3.4,0.3-4.4c0.1-0.3,0.2-0.6,0.2-0.9c0.1-0.9,0.1-1.8,0-2.7v-0.1l0.1-0.1c0.8-0.5,2-1.3,2.5-1.7l0.2-0.1l0.1,0.2
				c0.8,2,1.4,4,1.7,6.1c0.3,1.6,0.5,3.2,0.7,4.8L169.1,179.4z M165.9,178.6c0.6,0,1,0,1.2,0c0.6,0.2,1.2,0.3,1.7,0.4
				c-0.1-1.5-0.4-3.1-0.7-4.6c-0.3-2-0.9-4-1.6-5.8c-0.6,0.4-1.6,1.1-2.3,1.5c0.1,0.9,0.1,1.8,0,2.6c0,0.3-0.1,0.7-0.2,1
				c-0.3,0.9-0.3,2.8-0.3,4.3c0,0.2,0,0.4,0,0.7C164.3,178.7,165.2,178.6,165.9,178.6z"/>
		</g>
		<g>
			<path class="st12" d="M169.1,183c-0.1,0.9-0.3,1.9-0.6,2.7c-1.6-0.7-4.2-1.8-4.6-1.8c-0.1,0-0.1,0-0.2,0c0-0.8,0-1.8-0.2-2.1
				c-0.1-0.2-0.2-0.4-0.2-0.6c-0.1-0.4,0-1,0.2-1.2c0.1-0.1,0.1-0.6,0.1-1.2c1,0,3.1-0.1,3.5,0c0.6,0.2,1.3,0.3,1.9,0.4
				C169.1,180.9,169.1,182.2,169.1,183z"/>
			<path class="st9" d="M168.6,186l-0.6-0.3c-1.5-0.6-3.7-1.6-4.1-1.6c-0.1,0-0.1,0-0.2,0h-0.2v-0.2c0-1.6-0.1-2-0.2-2
				c-0.1-0.2-0.2-0.4-0.2-0.6c-0.1-0.5,0-1,0.2-1.3c0-0.1,0.1-0.4,0.1-1.1v-0.2h0.2c0.7,0,3.1-0.1,3.5,0c0.6,0.2,1.3,0.3,1.9,0.4
				h0.1v0.1c0.1,1.3,0.2,2.6,0.2,3.8l0,0c-0.1,1-0.3,1.9-0.6,2.8L168.6,186z M163.8,183.7C163.8,183.7,163.9,183.7,163.8,183.7
				c0.5,0.1,2.2,0.8,4.3,1.6l0.3,0.1c0.3-0.8,0.5-1.6,0.6-2.5c0-1.2-0.1-2.4-0.2-3.6c-0.6-0.1-1.2-0.2-1.8-0.4c-0.3,0-1.8,0-3.2,0
				c0,0.8,0,1.1-0.2,1.2c-0.1,0.1-0.2,0.6-0.1,1c0,0.2,0.1,0.4,0.2,0.5C163.7,181.8,163.8,182.1,163.8,183.7z"/>
		</g>
		<g>
			<path class="st12" d="M138.2,202.8c0,0.3-0.1,0.6-0.1,0.9l0,0c-1.9,0.3-4.5,0.6-8,1c-3.4,0.4-7.7,1.2-12.1,2
				c-0.1-0.5-0.1-1-0.1-1.2c-0.2-1.8-0.4-9.4-1.2-14.4l21.5-6.7C138.3,191.4,138.4,200.5,138.2,202.8z"/>
			<path class="st9" d="M117.9,207v-0.2c-0.1-0.5-0.1-1-0.1-1.2c-0.1-0.5-0.1-1.5-0.2-2.7c-0.2-3.2-0.4-8.1-1.1-11.7v-0.1l21.8-6.8
				v0.2c0.1,6.8,0.3,16.1,0.1,18.4c0,0.2-0.1,0.5-0.1,1v0.1h-0.1c-2,0.3-4.7,0.6-8,1c-3.2,0.4-7.2,1.1-12,2H117.9z M116.8,191.3
				c0.6,3.6,0.9,8.4,1,11.6c0.1,1.2,0.1,2.2,0.2,2.7c0,0.2,0.1,0.6,0.1,1c4.8-0.9,8.8-1.6,11.9-2c3.3-0.4,5.8-0.7,7.9-1
				c0.1-0.3,0.1-0.6,0.1-0.8l0,0c0.2-2.3,0.1-11.3-0.1-18.1L116.8,191.3z"/>
		</g>
		<g>
			<path class="st9" d="M138.1,184.5l-21.5,6.7c-0.2-1.2-0.5-2.4-1-3.6c-1.7-3.6-6-12.2-6-13.1c0-0.1,0-0.1,0-0.2
				c2-0.3,2.7-0.7,3.2-1.3c0.6-0.7,1.4-2,2.5-2s2.4,1.7,3.2,1.7c0.6,0,2.2-0.1,3.2-0.2c0.4,0.5,0.9,0.9,1.4,1.2
				c3.5,1.7,3.1,1.3,4.4,0.4s2.5-2,4.5-0.7c1.9,1.2,1.7,1.3,2,1c0.2-0.3,0.9-1,1.9,0.3c0.9,1.1,1.4,3.6,2.1,3.8
				C138,180.1,138,182.2,138.1,184.5z"/>
			<path class="st9" d="M116.5,191.4v-0.2c-0.2-1.2-0.5-2.4-1-3.5c-0.4-0.8-0.9-1.9-1.5-3.1c-2.6-5.3-4.6-9.4-4.6-10.1v-0.1v-0.2
				h0.2c2.1-0.3,2.7-0.8,3.1-1.2c0.1-0.1,0.2-0.2,0.3-0.3c0.6-0.7,1.3-1.7,2.3-1.7c0.6,0,1.3,0.5,1.9,1c0.5,0.4,1,0.8,1.3,0.8
				c0.6,0,2.3-0.1,3.2-0.2h0.1l0.1,0.1c0.4,0.5,0.8,0.9,1.3,1.2c2.9,1.4,3,1.3,3.7,0.7c0.1-0.1,0.3-0.2,0.4-0.3l0.1-0.1
				c1.2-0.9,2.6-1.9,4.5-0.6c0.6,0.4,1,0.7,1.3,0.9c0.2,0.1,0.3,0.2,0.4,0.2l0,0v-0.1c0.1-0.1,0.4-0.5,0.9-0.5
				c0.4,0,0.8,0.3,1.2,0.8s0.8,1.4,1.1,2.1c0.3,0.7,0.7,1.6,0.9,1.7h0.1v1.2c0,1.3,0.1,3,0.1,4.7v0.1h-0.1L116.5,191.4z
				 M109.8,174.5L109.8,174.5c0,0.7,2.7,6.3,4.5,10c0.6,1.2,1.1,2.3,1.5,3.1c0.5,1.1,0.8,2.3,0.9,3.4l21.2-6.6
				c0-1.7-0.1-3.3-0.1-4.6v-1c-0.4-0.2-0.7-0.9-1-1.8c-0.3-0.7-0.6-1.5-1-2c-0.4-0.4-0.7-0.7-1-0.7c-0.2,0-0.4,0.1-0.7,0.4l0,0
				c-0.2,0.3-0.3,0.2-0.8-0.1c-0.3-0.2-0.7-0.5-1.3-0.9c-1.8-1.1-3-0.2-4.2,0.6l-0.1,0.1c-0.2,0.1-0.3,0.2-0.4,0.3
				c-0.8,0.7-1.1,0.8-4.1-0.7c-0.5-0.3-1-0.7-1.4-1.2c-1.2,0.1-2.6,0.2-3.2,0.2c-0.5,0-1-0.4-1.5-0.8c-0.6-0.5-1.2-0.9-1.7-0.9
				c-0.8,0-1.5,0.9-2.1,1.5c-0.1,0.1-0.2,0.2-0.3,0.4C112.4,173.8,111.7,174.2,109.8,174.5z"/>
		</g>
		<g>
			<path class="st12" d="M152.6,189.6c0,0-3.4,5.7-5.9,9.6c-1.2,1.9-2.2,3.3-2.6,3.4c-0.7,0.2-1,0.4-6,1.1l0,0
				c0.1-0.4,0.1-0.7,0.1-0.9c0.2-2.3,0.1-11.4-0.1-18.3c-0.1-2.3-0.1-4.3-0.2-5.8c0.1,0,0.2,0,0.2,0c0.8-0.5,1.7-1.5,3.1-1
				c1.2,0.4,2.3,0.4,3.4-0.5c1,1.6,1.9,3.1,2.8,4.5C150.4,186.2,152.6,189.6,152.6,189.6z"/>
			<path class="st9" d="M137.9,203.9v-0.2c0.1-0.4,0.1-0.7,0.1-0.9c0.2-1.8,0.1-7.9-0.1-18.3c-0.1-2.3-0.1-4.3-0.2-5.8v-0.2h0.2h0.1
				c0.1-0.1,0.3-0.2,0.4-0.3c0.7-0.5,1.6-1.1,2.8-0.7c1.3,0.5,2.2,0.3,3.2-0.5l0.1-0.1l0.1,0.2c1,1.6,1.9,3.1,2.8,4.5
				c2.8,4.5,5,7.9,5,8l0.1,0.1l-0.1,0.1c0,0.1-3.4,5.8-5.9,9.6c-1.9,2.9-2.4,3.4-2.7,3.5l-0.2,0.1c-0.7,0.2-1.2,0.4-5.9,1
				L137.9,203.9z M138.1,178.8c0,1.5,0.1,3.4,0.1,5.6c0.2,10.4,0.3,16.6,0.1,18.4c0,0.2,0,0.4-0.1,0.7c4.4-0.6,5-0.8,5.6-1l0.2-0.1
				c0.1,0,0.6-0.4,2.5-3.3c2.3-3.6,5.4-8.8,5.8-9.5c-0.4-0.6-2.4-3.8-4.9-7.9c-0.9-1.4-1.8-2.9-2.7-4.4c-1,0.8-2.1,0.9-3.4,0.4
				c-1.1-0.4-1.8,0.2-2.5,0.6c-0.2,0.1-0.3,0.2-0.5,0.3C138.2,178.8,138.2,178.8,138.1,178.8z"/>
		</g>
		<g>
			<path class="st12" d="M144.7,177.1c-1.1,0.9-2.2,1-3.4,0.5c-1.4-0.5-2.3,0.5-3.1,1c-0.1,0-0.2,0.1-0.2,0
				c-0.7-0.2-1.2-2.7-2.1-3.8c-1-1.3-1.7-0.6-1.9-0.3s0,0.2-2-1s-3.3-0.2-4.5,0.7s-0.9,1.3-4.4-0.4c-0.5-0.3-1-0.7-1.4-1.2
				c-2.7-3.2-6.3-11.3-7.8-15.1l0.3-0.1l16.3-9.9l3.6,6.6l2.6,4.8c-1.8,0-1.9,0.7-1.9,1.7C134.9,161.3,140,169.6,144.7,177.1z"/>
			<path class="st9" d="M138,178.8h-0.1c-0.4-0.1-0.8-0.9-1.2-1.9c-0.3-0.7-0.6-1.5-1-2c-0.4-0.4-0.7-0.7-1-0.7l0,0
				c-0.2,0-0.4,0.1-0.7,0.4l0,0c-0.2,0.3-0.3,0.2-0.8-0.1c-0.3-0.2-0.7-0.5-1.3-0.9c-1.8-1.1-3-0.2-4.2,0.6l-0.1,0.1
				c-0.2,0.1-0.3,0.2-0.4,0.3c-0.8,0.7-1.1,0.8-4.1-0.7c-0.6-0.3-1.1-0.8-1.5-1.3c-2.8-3.3-6.4-11.7-7.9-15.1l-0.1-0.2l0.5-0.1
				l16.4-9.9l6.4,11.8h-0.3c-1.6,0-1.7,0.6-1.7,1.5c0,0.3,1.8,3.4,9.8,16.3l0.1,0.1l-0.1,0.1c-1.1,0.9-2.2,1-3.5,0.5
				c-1.1-0.4-1.8,0.2-2.5,0.6c-0.2,0.1-0.3,0.2-0.5,0.3C138.2,178.8,138.1,178.8,138,178.8z M134.7,173.9L134.7,173.9
				c0.4,0,0.8,0.3,1.3,0.8c0.4,0.5,0.8,1.4,1.1,2.1c0.3,0.7,0.7,1.6,0.9,1.7h0.1c0.1-0.1,0.3-0.2,0.4-0.3c0.7-0.5,1.6-1.1,2.8-0.7
				c1.2,0.4,2.2,0.3,3.1-0.4c-8.7-13.9-9.8-16-9.8-16.4c0-1,0.1-1.8,1.8-1.8l-6-11l-16.2,9.8H114c1.5,3.6,5,11.7,7.7,14.9
				c0.4,0.5,0.8,0.9,1.4,1.2c2.9,1.4,3,1.3,3.7,0.7c0.1-0.1,0.3-0.2,0.4-0.3l0.1-0.1c1.2-0.9,2.6-1.9,4.5-0.6
				c0.7,0.4,1.1,0.7,1.3,0.9c0.2,0.1,0.3,0.2,0.4,0.2l0,0v-0.1C134.1,174.1,134.4,173.9,134.7,173.9z"/>
		</g>
		<g>
			<path class="st12" d="M151.9,159.1c-3.1,0-13.3,0-14.9,0h-0.2l-2.6-4.8c3-0.8,9-2.4,15-3.7h0.2
				C149.8,152.3,150.8,156.7,151.9,159.1z"/>
			<path class="st9" d="M140.9,159.3c-1.9,0-3.4,0-3.9,0h-0.3l-2.7-5.1l0.2-0.1c3.8-1,9.5-2.5,15-3.7l0.4-0.1v0.2
				c0.4,1.8,1.4,6.2,2.5,8.5l0.1,0.2h-0.3c-0.9,0-2.4,0-4,0C145.7,159.3,143,159.3,140.9,159.3z M136.9,158.9h0.1
				c1.2,0,6.8,0,10.9,0c1.5,0,2.9,0,3.8,0c-1-2.3-2-6.4-2.4-8.2l0,0c-5.4,1.2-11,2.6-14.8,3.7L136.9,158.9z"/>
		</g>
		<g>
			<path class="st12" d="M170.5,154.6L170.5,154.6c-2-0.2-5.7-0.6-7.9-0.8c-1.1-0.1-1.8-0.2-1.9-0.2c-0.3-0.1-0.1-4.9,0-6.9
				c0-0.1,0-0.1,0-0.2c2.2,0.2,8.3,1.4,10.6,1.8c0.1,0.5,0.2,1.1,0.3,1.7C172,152.6,170.8,152.9,170.5,154.6z"/>
			<path class="st9" d="M170.7,154.9h-0.2c-2-0.2-5.6-0.6-7.9-0.8c-0.8-0.1-1.8-0.2-1.9-0.2c-0.2,0-0.4-0.1-0.2-7.1v-0.3h0.2
				c2.2,0.2,8.1,1.3,10.6,1.8h0.1v0.1c0.1,0.3,0.1,0.6,0.2,0.9c0,0.3,0.1,0.5,0.1,0.8c0.3,1.7-0.1,2.4-0.5,3.2
				c-0.2,0.4-0.5,0.8-0.6,1.4L170.7,154.9L170.7,154.9z M160.8,153.5c0.2,0,0.7,0.1,1.8,0.2c2.2,0.2,5.7,0.6,7.7,0.8
				c0.1-0.6,0.4-1,0.6-1.4c0.4-0.7,0.8-1.4,0.5-3c0-0.3-0.1-0.5-0.1-0.8s-0.1-0.5-0.1-0.8c-2.5-0.5-8-1.5-10.3-1.8
				C160.7,151.2,160.8,153.1,160.8,153.5z"/>
		</g>
		<g>
			<path class="st12" d="M158.2,167.7c-0.3,0.4-0.6,0.8-0.9,1.2c-0.2,0.3-0.5,3.8-0.7,7.1c-0.2,2.4-0.3,4.8-0.4,5.9h-0.1
				c-0.4,0-6.7-0.2-8.5-0.3c-0.9-1.4-1.9-3-2.8-4.5c-4.7-7.6-9.8-15.9-9.8-16.4c0-0.9,0.1-1.7,1.9-1.7h0.2c1.6,0,11.8,0,14.9,0
				c0.2,0.4,0.4,0.8,0.6,1.1C153.6,161.6,156.3,164.9,158.2,167.7z"/>
			<path class="st9" d="M156.3,182.2l-0.2-0.1c0,0,0,0-0.1,0c-0.4,0-7.2-0.2-8.5-0.3h-0.1v-0.1c-0.9-1.4-1.9-3-2.8-4.5
				c-9.9-15.8-9.9-16.3-9.9-16.5c0-1,0.2-1.8,2-1.8h0.2c1.2,0,6.8,0,10.9,0c1.7,0,3.1,0,4,0h0.1v0.1c0.2,0.4,0.4,0.7,0.6,1.1
				c1.2,1.4,3.8,4.8,5.7,7.5l0.1,0.1l-0.1,0.1c-0.3,0.4-0.6,0.8-0.9,1.2c0,0.1-0.2,0.9-0.7,7.1c-0.1,1.6-0.2,3.1-0.3,4.3
				c0,0.7-0.1,1.2-0.1,1.6L156.3,182.2z M147.6,181.5c2.2,0.1,7.8,0.3,8.4,0.3c0-0.4,0.1-0.9,0.1-1.4c0.1-1.2,0.2-2.7,0.3-4.3
				c0.5-6.7,0.7-7.1,0.7-7.2c0.2-0.4,0.5-0.8,0.8-1.2c-1.9-2.7-4.5-6-5.6-7.4c-0.3-0.3-0.5-0.7-0.6-1.1c-0.9,0-2.3,0-3.9,0
				c-4.1,0-9.7,0-10.9,0h-0.2c-1.6,0-1.7,0.6-1.7,1.5c0,0.3,1.4,2.8,9.8,16.3C145.8,178.6,146.8,180.1,147.6,181.5z"/>
		</g>
		<g>
			<path class="st12" d="M163.1,163.8c-2.6,1.7-4.1,3-4.9,3.9c-1.9-2.8-4.6-6.1-5.7-7.5c-0.3-0.3-0.5-0.7-0.6-1.1
				c-1.1-2.3-2.1-6.8-2.5-8.5c8.2-1.8,8.8-4.1,11.2-4l0,0l0.2,0.2c-0.1,2-0.2,6.8,0,6.9c0.1,0,0.8,0.1,1.9,0.2L163.1,163.8z"/>
			<path class="st9" d="M158.2,168l-0.1-0.2c-2-2.9-4.9-6.5-5.7-7.5c-0.3-0.4-0.5-0.7-0.7-1.1c-1.1-2.4-2.1-6.8-2.5-8.6v-0.2h0.2
				c4.7-1,6.9-2.3,8.3-3.1c1.1-0.6,1.8-1,2.9-0.9h0.1l0.3,0.3v0.1c-0.2,4.4-0.1,6.3,0,6.7c0.1,0,0.2,0,0.4,0c0.3,0,0.8,0.1,1.4,0.2
				h0.1l0.5,10.2l-0.1,0.1c-2.2,1.4-3.8,2.7-4.9,3.8L158.2,168z M149.5,150.7c0.4,1.9,1.4,6.1,2.5,8.4c0.2,0.4,0.4,0.7,0.6,1.1
				c0.8,1,3.6,4.4,5.6,7.3c1.1-1.2,2.7-2.4,4.7-3.7l-0.5-9.7c-0.5-0.1-0.9-0.1-1.2-0.1c-0.2,0-0.4-0.1-0.5-0.1l0,0
				c-0.2,0-0.4-0.1-0.2-7l-0.1-0.1c-0.9,0-1.6,0.3-2.7,0.9C156.3,148.4,154.1,149.6,149.5,150.7z"/>
		</g>
		<g>
			<path class="st12" d="M159.5,169.8L159.5,169.8c0,0.1-0.1,0.2-0.1,0.3c-0.1,0.6-0.2,1.7-0.3,3.1c-0.1,0.8-0.1,1.8-0.2,2.7
				l-2.4,0.1c0.3-3.3,0.6-6.8,0.7-7.1c0.2-0.4,0.5-0.9,0.9-1.2C158.7,168.4,159.2,169.1,159.5,169.8z"/>
			<path class="st9" d="M156.4,176.2V176c0.5-6.7,0.7-7.1,0.7-7.2c0.2-0.5,0.6-0.9,0.9-1.3l0.1-0.2l0.1,0.2c0.5,0.7,0.9,1.4,1.3,2.1
				v0.1v0.1c0,0.1-0.1,0.2-0.1,0.3c-0.1,0.5-0.2,1.5-0.3,3.1c-0.1,0.8-0.1,1.8-0.2,2.7v0.2L156.4,176.2z M158.2,167.9
				c-0.3,0.3-0.5,0.7-0.7,1c-0.1,0.1-0.2,1-0.7,6.9l2.1-0.1c0.1-0.9,0.1-1.8,0.2-2.6c0.1-1.7,0.2-2.7,0.3-3.2c0-0.1,0-0.2,0.1-0.3
				C159,169.2,158.6,168.5,158.2,167.9z"/>
		</g>
		<g>
			<path class="st12" d="M164,172.7c-0.4,0.1-1,0.2-1.4,0.4c-0.5,0.2-2.6,0.2-3.4,0.2c0.1-1.4,0.2-2.6,0.3-3.1l0.2-0.1
				c0.8-0.4,2-1,2.3-1.1c0.4-0.2,0.1,1.1,0,1.6s0.7,0.1,1.4-0.2c0.2-0.1,0.4-0.2,0.6-0.3C164.1,170.9,164.1,171.8,164,172.7z"/>
			<path class="st9" d="M160,173.4c-0.4,0-0.7,0-0.8,0H159v-0.2c0.1-1.7,0.2-2.7,0.3-3.2v-0.1l0.3-0.1c1.3-0.6,2.1-1,2.4-1.1
				c0.2-0.1,0.3,0,0.3,0c0.2,0.2,0.1,0.7,0,1.4c0,0.1,0,0.2-0.1,0.3l0,0c0.1,0.1,0.8-0.2,1.1-0.4h0.1c0.2-0.1,0.4-0.2,0.5-0.3
				l0.2-0.1v0.3c0.1,0.9,0.1,1.8,0,2.8v0.1H164c-0.4,0.1-1,0.2-1.4,0.4C162.2,173.4,160.9,173.4,160,173.4z M159.4,173.1
				c1.1,0,2.8,0,3.2-0.1s0.9-0.2,1.3-0.3c0.1-0.8,0.1-1.5,0-2.3c-0.1,0.1-0.2,0.1-0.3,0.2h-0.1c-0.8,0.3-1.2,0.5-1.5,0.3
				c-0.1-0.1-0.1-0.2-0.1-0.3s0-0.2,0.1-0.3c0.1-0.3,0.2-0.9,0.1-1.1c-0.3,0.1-1.1,0.5-2.3,1.1l-0.1,0.1
				C159.5,170.7,159.5,171.6,159.4,173.1z"/>
		</g>
		<g>
			<path class="st12" d="M163.6,183.9c-1,0-3.7,0.2-4.2,0c-0.3-0.1-0.6-0.3-0.8-0.5c0-0.6,0.1-1.3,0.1-2.2h4.6
				c0,0.2,0.1,0.4,0.2,0.6C163.6,182.1,163.6,183.1,163.6,183.9z"/>
			<path class="st9" d="M160.5,184.2c-0.5,0-0.9,0-1.1-0.1c-0.3-0.1-0.6-0.3-0.9-0.5l-0.1-0.1v-0.1c0-0.6,0.1-1.3,0.1-2.2V181h4.9
				v0.1c0,0.2,0.1,0.3,0.2,0.5c0.1,0.1,0.2,0.3,0.2,2.2v0.2h-0.2c-0.3,0-0.9,0-1.4,0C161.5,184.2,160.9,184.2,160.5,184.2z
				 M158.7,183.3c0.2,0.2,0.5,0.3,0.7,0.4c0.3,0.1,1.7,0.1,2.7,0c0.5,0,0.9,0,1.3,0c0-1.5-0.1-1.8-0.2-1.9c-0.1-0.2-0.1-0.3-0.2-0.5
				h-4.3C158.8,182.2,158.8,182.8,158.7,183.3z"/>
		</g>
		<g>
			<path class="st12" d="M159,176c-0.1,1.8-0.2,3.7-0.3,5.3c0,0.9-0.1,1.6-0.1,2.2c-0.8-0.5-1.9-1.3-2.4-1.4
				c0.1-1.1,0.2-3.5,0.4-5.9L159,176z"/>
			<path class="st9" d="M158.7,183.7l-0.2-0.2c-0.2-0.1-0.4-0.2-0.6-0.4c-0.7-0.4-1.4-0.9-1.8-1H156V182c0.1-1.1,0.2-3.4,0.4-5.9
				V176l2.7-0.1v0.2c-0.1,1.5-0.2,3.2-0.3,5.3c0,0.9-0.1,1.6-0.1,2.2L158.7,183.7z M156.4,181.9c0.4,0.2,1.1,0.6,1.7,1
				c0.1,0.1,0.2,0.1,0.3,0.2c0-0.5,0.1-1.2,0.1-1.9c0.1-2,0.2-3.7,0.3-5.1l-2.1,0.1C156.6,178.6,156.4,180.8,156.4,181.9z"/>
		</g>
		<g>
			<path class="st12" d="M163.8,173.7c-0.4,1.1-0.3,3.6-0.3,5.1c0,0.7,0,1.1-0.1,1.2c-0.2,0.2-0.3,0.7-0.2,1.2h-4.6
				c0.1-1.5,0.2-3.5,0.3-5.3c0.1-1,0.1-1.9,0.2-2.7c0.8,0,2.9,0,3.4-0.2c0.4-0.1,1-0.3,1.4-0.4C164,173.1,163.9,173.4,163.8,173.7z"
				/>
			<path class="st9" d="M163.5,181.4h-4.9v-0.2c0.1-2.1,0.2-3.8,0.3-5.3c0.1-1,0.1-1.9,0.2-2.7V173h0.4c0.9,0,2.7,0,3.2-0.1
				c0.4-0.1,0.9-0.3,1.4-0.4l0.2-0.1v0.2c0,0.3-0.1,0.7-0.2,1l0,0c-0.3,0.9-0.3,2.7-0.3,4.2c0,0.3,0,0.6,0,0.9c0,1-0.1,1.2-0.2,1.3
				c-0.1,0.1-0.2,0.6-0.1,1L163.5,181.4z M158.9,181.1h4.2c0-0.4,0-0.9,0.3-1.1c0,0,0.1-0.3,0.1-1.1c0-0.3,0-0.6,0-0.9
				c0-1.5,0-3.3,0.3-4.3c0.1-0.2,0.1-0.5,0.2-0.7c-0.4,0.1-0.9,0.2-1.2,0.3c-0.5,0.2-1.9,0.2-3.3,0.2h-0.1c-0.1,0.8-0.1,1.7-0.2,2.5
				C159.1,177.4,159,179.1,158.9,181.1z"/>
		</g>
	</g>
</g>
<g>
	<g>
		<path class="st6" d="M1068.5,58.5L1068.5,58.5v-0.1c0.3-1.5,0.9-3,1.7-4.2c3-4.8,3.9-10.6,2.7-16.1l-0.5-2.9
			c-0.2-1.3-0.5-2.6-0.7-3.8l0,0c-1.5-8.5-2.9-15-5.1-20.7c-3.6-9.9-6.7-20-9.2-30.1c-1.2-5.7-2.2-17.2-2.2-17.3
			c-0.2-3.2-3-5.6-6.1-5.3c-1.9,0.1-3.7,1.2-4.6,2.9c-2.7,4.6-6.7,9.2-8.5,9.8c-2.4,0.9-11.4,1.2-16.1,1.3
			c-6.5,0.3-8.9,0.3-10.5,1.3c-1.7,0.3-3.4,0.3-5,0.2c-3.2-0.9-23.6-2.2-30.6,0.5c-2.2,0.9-4.1,1.7-5.6,2.5l0,0l-1.4,0.7
			c-0.9,0.5-1.9,1-2.9,1.5c-10.1,1.4-20.4,2.2-30.6,2.4l0,0l-2.7,0.1c-17.1,0.4-27.4-1.7-29-2.2c-0.2-0.1-0.5-0.2-0.9-0.3
			c-3.6-1.6-13.4-5.9-24.7-3.9h-0.1h-0.3h-0.1l-0.9,0.2c-12.4,2.7-19.2,5.8-20.8,6.7c-2.4,1-20.6,7-28,9.1
			c-1.8-3.2-4.7-8.9-6.6-12.6c-5.6-11-6.6-12.8-8.5-14.1s-14.7-5.8-18.5-7.2c-18.5-6.5-19.3-6-21.7-4.6c-1.7,0.9-2.2,1.7-6.9,9.7
			c-4,6.8-14.7,24.7-18.5,27.2c-2.2,0.9-11.4,4.4-22,8.5c-13.4,5.1-30,11.5-43.4,16.7c-7.4,2.9-12.9,5.1-16.8,6.7
			c-2.2,0.9-3.9,1.6-5.1,2.2c-1.7,0.8-5.8,2.7-5,7.2c0.3,1.9,0.7,2.4,7.2,9.5c6.7,7.5,19.2,21.3,23.2,28.6c2,3.8,6,12.8,11.2,25.6
			l0,0c4.1,10.1,8.7,21.9,12.8,32.6l0,0c3.4,9.1,6.2,16.7,7.7,21.2c2.8,8.5,12.4,39.2,27.8,88.6l0,0l6.8,22l8.1,28.3l0,0L791.2,404
			c0.7,2.5,3,4.2,5.5,4.2c0.2,0,0.5,0,0.7,0l70-8.5h0.3l0.5-0.1h0.1l50.9-8.9l0,0l0.7-0.1l0.4-0.1l58.5-14.7c2-0.5,3.6-2.1,4.2-4.1
			c2.2-8.1,7.6-22.4,13-26.3c0.4-0.3,0.7-0.6,1.1-1c0,0,0.3-0.4,0.9-1.1l0,0c15.8-19.1,16-23.3,16.1-25.1v-1.2
			c0.5-19.6,3.2-25.9,4.6-27.8l0.5-0.7l0,0c4-5.6,6.7-12,7.9-18.8c1.4-7.4,2.3-12.6,2.7-14.9l0,0l0,0l0.3-1.5c0-0.1,0-0.3,0-0.4
			c1.3-11.2,4.4-22,8.9-32.3c3.1-6.5,6.9-12.5,11.6-18c2.9-3.6,5.4-6.8,6.7-10.7c0.6-1.7,1.3-3.6,1.9-5.3c0.4-1,0.8-2,1.1-3l0,0
			c1.7-4.1,2.7-8.4,2.9-12.8c0-3.8-0.1-8.9-0.7-15.7l0,0c-0.6-6.7-1.5-13.2-2.8-19.8c-1.4-8.7-3.8-17.1-7-25.3l0,0l0,0
			c-0.5-1.1-0.9-2.2-1.2-3.1c-0.4-0.8-0.7-1.7-0.7-2.7c0,0,0.3-0.6,2.2-1.6c5.6-3.2,12.8-9.5,16.2-17.7l0,0c0.7-1.8,1.3-3.7,1.6-5.6
			c0.7-4.7,0.3-9.5-1.1-14.1C1068.5,62.1,1068.1,60.3,1068.5,58.5z"/>
	</g>
	<g>
		<path class="st12" d="M868,129.5c-4,0.3-10.6,0.7-12.9,0.7c-3.4,0-8.5-7-12.9-7c-4.4,0-7.6,5.2-9.9,7.8c-1.9,2.2-4.6,4-12.8,5.1
			c-1.7,0.2-3.7,0.4-6,0.5c-12.9,0.8-17.2-5.1-24.6-6.5s-7.7,1.2-12.7,2.3c-5,1.1-8.5-5.7-21.8-12.2c-13.3-6.5-11.9-2.2-17.8-0.7
			s-15.1-7.3-16.3-6.9c-0.8,0.2-4.9,6.8-8.1,11.9c-3.9-10.3-8.5-22.2-12.8-32.7c7.9-1.1,25.6-3.7,56.9-8.9
			c39.6-6.5,73.2-12.4,80.3-13.6C842.9,84.1,857.2,116.6,868,129.5z"/>
		<path class="st9" d="M811.3,137.3c-7.1,0-11.5-2.1-15.4-4c-2.4-1.1-4.5-2.2-7.1-2.6c-4.7-0.9-6.3-0.1-8.4,0.8
			c-1.1,0.5-2.3,1.1-4,1.4c-3,0.7-5.4-1.1-9-4c-3-2.3-7.1-5.4-13.2-8.3c-9.5-4.6-11.2-3.6-13.6-2.3c-0.9,0.5-2.1,1.1-3.8,1.5
			c-4.3,1-9.9-2.8-13.6-5.2c-1.1-0.7-2.3-1.5-2.8-1.7c-0.4,0.4-2,2.4-7.6,11.6l-0.7,1.1l-0.5-1.3c-4-10.7-8.7-22.6-12.8-32.7
			l-0.3-0.8l0.9-0.1c7.8-1.1,25.5-3.7,56.9-8.9c41.6-6.9,76.5-13,80.3-13.6l0.5-0.1l0.2,0.5c5.7,13.8,20.3,47.2,31.3,60.2l0.9,1
			l-1.3,0.1c-4.5,0.3-10.7,0.7-13,0.7c-1.8,0-3.9-1.6-6.1-3.3c-2.4-1.8-4.7-3.7-6.8-3.7c-3.3,0-6,3.5-8.1,6
			c-0.5,0.5-0.9,1.1-1.3,1.5c-2.2,2.4-5.2,4.2-13.2,5.3c-1.7,0.2-3.8,0.4-6,0.5C812.8,137.3,812,137.3,811.3,137.3z M785.2,129
			c1.1,0,2.4,0.1,3.9,0.4c2.7,0.5,5,1.6,7.4,2.8c4.2,2,8.9,4.2,17.1,3.8c2.2-0.1,4.2-0.3,5.9-0.5c8.5-1.1,10.8-3.1,12.4-4.9
			c0.4-0.4,0.8-0.9,1.2-1.5c2.2-2.8,5.2-6.5,9.1-6.5c2.6,0,5.1,2,7.6,4c1.9,1.5,3.9,3,5.3,3c2.2,0,8.3-0.3,11.6-0.6
			c-10.8-13.6-24.7-45.3-30.4-59c-5.8,1-39.7,6.9-79.8,13.5c-30.2,5-47.9,7.6-56.1,8.7c3.9,9.5,8.3,20.6,12,30.6
			c6.6-10.8,7.3-11,7.7-11c0.7-0.1,1.5,0.3,3.8,1.9c3.3,2.2,8.8,5.9,12.5,5c1.5-0.3,2.5-0.9,3.4-1.4c3-1.7,5.2-2.4,14.9,2.2
			c6.3,3,10.4,6.2,13.4,8.5c3.5,2.6,5.6,4.2,7.9,3.7c1.6-0.3,2.7-0.9,3.8-1.3C781.4,129.6,782.8,129,785.2,129z"/>
	</g>
	<g>
		<path class="st12" d="M903.2,29.4l-65.1,39.5l-1.3,0.3c-7.1,1.3-40.7,7.1-80.3,13.6c-31.3,5.2-49.1,7.8-56.9,8.9
			c-4.8-11.8-9.1-21.8-11.5-26.2c-6.4-11.6-29.7-35.3-29.9-36.4c-0.2-1.1,82.7-32.3,89.1-35c6.4-2.8,24.5-36.3,25.8-37.1
			s32.4,10.5,34.3,11.7C809.2-30.2,821.3-3,823.4-3s31.2-9.6,32.7-10.4c1.5-0.8,7.8-3.7,19.6-6.3c0.3-0.1,0.6-0.1,0.9-0.1
			L903.2,29.4z"/>
		<path class="st9" d="M699.1,92.3l-0.2-0.5c-3.8-9.2-8.7-21.2-11.5-26.1c-4.2-7.8-16.5-21.3-23.8-29.4c-5.2-5.8-6-6.7-6-7.2
			c-0.1-0.9-0.2-1.3,67.2-27.1c11.4-4.4,20.4-7.8,22.4-8.6c4.3-1.8,15-19.6,20.7-29.2c3.7-6.1,4.6-7.6,5-7.9
			c2.1-1.2,34.7,11.6,34.9,11.7c0.9,0.5,2.6,3.9,6.7,12c3.2,6.2,7.9,15.6,9.1,16.2c1.8,0,30.7-9.5,32.3-10.3
			c0.7-0.3,7.1-3.6,19.8-6.3c0.3-0.1,0.7-0.1,0.9-0.1l0.5-0.1l27.2,50.1l-65.9,39.9l-1.3,0.3c-1.5,0.3-37.1,6.5-80.3,13.6
			c-31.3,5.2-49.1,7.8-56.9,8.9L699.1,92.3z M659,29.1c0.7,0.9,3.1,3.5,5.5,6.2c7.4,8.1,19.7,21.8,24.1,29.7
			c2.7,5,7.6,16.7,11.4,25.8c8.1-1.1,25.7-3.8,56.3-8.8c43.2-7.1,78.8-13.4,80.3-13.6l1.2-0.2l64.5-39l-26.1-48.3
			c-0.1,0-0.3,0.1-0.4,0.1c-12.5,2.7-18.8,5.8-19.4,6.2c-1.3,0.7-30.6,10.5-33,10.5c-1.4,0-3.6-4-10.1-16.9
			c-2.6-5.2-5.6-11-6.3-11.6c-1.9-1.3-30.8-11.6-33.6-11.6c-0.5,0.5-2.4,3.8-4.6,7.3c-8.4,14-16.9,27.9-21.3,29.7
			c-1.9,0.8-11,4.2-22.4,8.6C701.9,12.1,663.6,26.7,659,29.1z"/>
	</g>
	<g>
		<path class="st12" d="M847.5,203.4L748,234.6c-8.9-28.9-23.9-77.2-27.8-88.8c-1.6-4.8-4.4-12.6-7.8-21.4
			c3.1-5.1,7.3-11.7,8.1-11.9c1.3-0.3,10.6,8.3,16.3,6.9c5.8-1.4,4.4-5.7,17.8,0.7s16.8,13.3,21.8,12.2s5.4-3.7,12.7-2.3
			c7.3,1.4,11.7,7.3,24.6,6.5c2.3-0.1,4.2-0.3,6-0.5c0.1,0.3,0.1,0.5,0.1,0.7c0,3.6,17.2,38,24.1,52.4
			C845.6,193.7,846.9,198.5,847.5,203.4z"/>
		<path class="st9" d="M747.5,235.5l-0.2-0.7c-5.4-17.5-23.5-75.7-27.8-88.8c-1.6-4.8-4.4-12.6-7.8-21.4l-0.1-0.3l0.2-0.3
			c7.2-11.9,8-12.1,8.4-12.2c0.7-0.1,1.5,0.4,3.9,1.9c3.3,2.2,8.8,5.8,12.4,5c1.5-0.3,2.4-0.9,3.4-1.4c3-1.7,5.2-2.4,14.9,2.2
			c6.3,3,10.3,6.2,13.4,8.5c3.5,2.6,5.6,4.2,7.9,3.7c1.6-0.3,2.7-0.9,3.8-1.3c2.2-1,4.1-1.9,9.2-0.9c2.7,0.5,5,1.6,7.3,2.8
			c4.2,2,8.9,4.2,17.1,3.8c2.2-0.1,4.2-0.3,5.9-0.5l0.6-0.1l0.1,0.6c0.1,0.3,0.1,0.6,0.1,0.9c0,2.7,11.4,26.1,18.9,41.5
			c1.9,4,3.8,7.7,5.1,10.6c1.9,4.6,3.2,9.5,3.8,14.4l0.1,0.5l-0.5,0.2L747.5,235.5z M713.1,124.4c3.3,8.7,6.1,16.3,7.7,21.2
			c4.3,12.9,22,69.9,27.6,88.2l98.4-30.8c-0.7-4.6-1.9-9.1-3.6-13.5c-1.3-2.8-3.2-6.5-5.1-10.6c-10.4-21.4-19-39.3-19-42.1l0,0
			c-1.5,0.2-3.4,0.3-5.4,0.5c-8.5,0.5-13.4-1.8-17.7-3.9c-2.3-1.1-4.5-2.2-7-2.6c-4.6-0.9-6.3-0.1-8.4,0.8c-1.1,0.5-2.3,1.1-4,1.4
			c-3,0.7-5.4-1.1-9-4c-3-2.3-7.1-5.4-13.2-8.3c-9.5-4.6-11.2-3.6-13.6-2.3c-0.9,0.5-2.1,1.1-3.7,1.5c-4.2,1-9.8-2.7-13.5-5.2
			c-1.1-0.7-2.4-1.5-2.8-1.7C720.2,113.5,718.6,115.3,713.1,124.4z"/>
	</g>
	<g>
		<path class="st12" d="M853,265.8c-35.4,6.8-72.9,15.3-90,19.3l-8.1-28.3c0,0-2.8-9.1-6.9-22.2l99.5-31.2c3.4,20.1,4.2,50.3,5,57.6
			C852.6,262,852.7,263.6,853,265.8z"/>
		<path class="st9" d="M762.5,285.9l-8.3-28.9l0,0c0,0-2.8-9.1-6.9-22.1l-0.2-0.6l100.9-31.7l0.1,0.7c2.5,14.5,3.6,34,4.3,46.9
			c0.3,4.8,0.5,8.7,0.7,10.7c0.1,0.9,0.3,2.6,0.5,4.8l0.1,0.6l-0.6,0.1c-36.6,7-75.1,15.9-90,19.3L762.5,285.9z M748.8,235.1
			c4,12.7,6.7,21.5,6.7,21.5l8,27.7c15.3-3.6,52.9-12.2,88.8-19c-0.2-1.9-0.3-3.3-0.5-4.2c-0.2-2-0.4-5.9-0.7-10.8
			c-0.7-12.6-1.7-31.7-4.1-46L748.8,235.1z"/>
	</g>
	<g>
		<path class="st12" d="M867.1,393.9l-0.5,0.1l-69.9,8.5L763,285.1c17.2-4,54.6-12.5,90-19.3c2.2,19.8,9.3,84.7,9.9,100.5
			C863.4,375.6,864.8,384.8,867.1,393.9z"/>
		<path class="st9" d="M796.2,403.2l-34.1-118.6l0.7-0.1c11.4-2.7,51.6-11.9,90.1-19.3l0.7-0.1l0.8,7.2c2.6,23.9,8.7,79.8,9.2,94.2
			c0.5,9.2,1.9,18.5,4.2,27.4l0.2,0.7l-1.2,0.2L796.2,403.2z M763.8,285.5l33.4,116.1l69.1-8.4c-2.2-8.8-3.6-17.9-4.1-27
			c-0.5-14.4-6.6-70.2-9.2-94.1l-0.6-5.7C814.9,273.7,776,282.7,763.8,285.5z"/>
	</g>
	<g>
		<path class="st12" d="M914.5,314.6c-0.7,2.4,2.4,53.2,3.4,70.4l-50.9,8.9c-2.4-9-3.8-18.3-4.2-27.6c-0.6-15.8-7.8-80.9-9.9-100.5
			c17.5-3.4,34.5-6.3,48.2-8.1c14.1-1.7,24.4-3.2,31.9-4.2c-1.9,9-4.3,17.9-7.2,26.7C920.9,296.6,915,312.9,914.5,314.6z"/>
		<path class="st9" d="M866.6,394.6l-0.1-0.6c-2.4-9.1-3.8-18.3-4.2-27.7c-0.5-14.3-6.6-70.2-9.2-94l-0.7-7.1l0.6-0.1
			c19.6-3.8,35.8-6.5,48.3-8.1c13.3-1.7,23.8-3,31.9-4.2l0.9-0.1l-0.2,0.9c-1.9,9-4.4,18-7.2,26.7c-3.5,11.4-7.3,22.5-9.6,29.2
			c-0.9,2.7-1.6,4.7-1.7,5.2c-0.5,2,1.4,37.5,3.4,70.2l0.1,0.6L866.6,394.6z M853.7,266.3l0.6,5.9c2.6,23.9,8.7,79.7,9.2,94.1
			c0.5,9,1.9,18,4.1,26.8l49.7-8.7c-1.3-20.7-4-67.5-3.4-70l0,0c0.1-0.5,0.8-2.4,1.7-5.2c2.3-6.7,6-17.7,9.6-29.2
			c2.8-8.4,5.1-17.1,7-25.7c-8,1.1-18.2,2.4-31,4C888.9,259.9,872.9,262.6,853.7,266.3z"/>
	</g>
	<g>
		<path class="st12" d="M993.3,339.5l-0.9,1.1c-9.1,6.5-15.2,29.4-15.2,29.4l-58.5,14.7l-0.7,0.1c-1.1-17.1-4-67.9-3.4-70.4
			c0.5-1.7,6.3-18,11.4-34.3c4.2,9.9,12.2,28,14.9,30.5C943.9,313.4,979.1,332.1,993.3,339.5z"/>
		<path class="st9" d="M917.3,385.8l-0.1-0.7c-0.4-6.9-4.1-67.7-3.4-70.6c0.1-0.6,0.9-2.6,1.9-5.7c2.3-6.6,6-17.5,9.5-28.7l0.5-1.7
			l0.7,1.7c5.7,13.6,12.5,28.2,14.7,30.2c3.1,2.8,40.8,22.6,52.3,28.7l0.7,0.4l-1.6,1.9c-8.8,6.3-14.9,28.8-14.9,29.1l-0.1,0.4
			L917.3,385.8z M926,282.2c-3.4,10.6-6.9,20.8-9,27c-1,3-1.7,5.1-1.9,5.6c-0.5,2,1.7,42.3,3.4,69.4l58.1-14.6
			c0.9-3.2,6.7-23.2,15.3-29.4l0.3-0.4c-15.2-8-48.8-25.7-51.8-28.5C937.5,308.5,929.1,289.1,926,282.2z"/>
	</g>
	<g>
		<path class="st12" d="M1014.3,285c-0.3,0.3-0.4,0.5-0.4,0.5c-5.5,7.3-5.7,28-5.8,32.3c-0.1,3.7-11.4,17.6-14.7,21.6
			c-14.1-7.4-49.4-26.1-52.4-28.8c-2.7-2.5-10.7-20.6-14.9-30.4c2.9-8.7,5.3-17.7,7.2-26.7l0,0c9.6,1.2,27.6,11.4,33.5,13.7
			C971.1,269,999.5,279.5,1014.3,285z"/>
		<path class="st9" d="M993.5,340.4l-0.5-0.3c-14.8-7.7-49.5-26.1-52.6-28.9c-2.9-2.7-11.5-22.4-15.1-30.7l-0.1-0.2l0.1-0.3
			c2.9-8.7,5.3-17.7,7.2-26.6l0.1-0.6l0.6,0.1c7,0.9,18.1,6.3,26.2,10.3c3.1,1.5,5.8,2.8,7.5,3.5c4.3,1.7,31.5,11.8,46,17.1l2.4,0.9
			l-0.5,0.7c-0.3,0.4-0.4,0.6-0.4,0.6c-5,6.7-5.5,24.9-5.6,30.8v1.1c-0.1,3.6-9.4,15.4-14.9,22L993.5,340.4z M926.7,280.2
			c7.3,17.1,12.8,28.3,14.7,30c3,2.8,39.7,22.1,51.7,28.4c8.7-10.6,14.1-18.5,14.2-20.8v-1.1c0.1-6,0.7-24.3,5.8-31.5l-0.7-0.3
			c-15.6-5.8-41.7-15.5-46-17.1c-1.7-0.7-4.4-2-7.5-3.5c-7.8-3.8-18.3-8.9-25.1-10C931.8,263,929.5,271.8,926.7,280.2z"/>
	</g>
	<g>
		<path class="st12" d="M1023.8,253.9c-0.4,2.4-1.3,7.5-2.7,14.7c-1.1,5.9-3.5,11.5-6.9,16.4c-14.7-5.4-43.1-16.1-47.5-17.7
			c-6-2.4-23.9-12.5-33.5-13.7c20-2.8,21.1-3.4,24.1-4.4c1.3-0.4,5.4-6.1,10.3-13.6c4.6,2.4,13.8,6.8,18.3,8.2
			C991,245.4,1015.2,251.7,1023.8,253.9z"/>
		<path class="st9" d="M1014.5,285.8l-0.5-0.2c-14.9-5.5-43.2-16.1-47.5-17.7c-1.7-0.7-4.5-2-7.7-3.6c-8-3.9-18.9-9.2-25.6-10.1
			l-5-0.6l5-0.7c18.5-2.6,20.8-3.3,23.3-4.2l0.6-0.2c0.7-0.2,3-2.7,9.9-13.4l0.3-0.5l0.5,0.3c3.9,1.9,13.6,6.7,18.3,8.1
			c3.5,1.1,16.6,4.6,37.9,10.1l0.6,0.1l-0.1,0.6c-0.5,2.6-1.5,8.6-2.7,14.7c-1.1,6-3.5,11.6-7.1,16.7L1014.5,285.8z M937.1,253.7
			c6.7,1.8,15.5,6.1,22.2,9.4c3.2,1.5,5.9,2.9,7.7,3.6c4.3,1.6,32.1,12,47,17.5c3.2-4.8,5.4-10,6.5-15.7c1.1-5.6,2.1-11.2,2.6-14.1
			c-21-5.4-33.9-8.9-37.4-10c-4.6-1.4-13.7-5.8-17.9-8c-7.4,11.2-9.3,13.1-10.3,13.4l-0.6,0.2C954.5,250.9,952.3,251.5,937.1,253.7z
			"/>
	</g>
	<g>
		<path class="st12" d="M1054.7,181.6c-1,2.8-2.2,5.6-3.2,8.5c-2.3,6.9-10.4,11.8-18,28.1c-4.8,10.8-8,22.4-9.4,34.1
			c0,0-0.1,0.5-0.3,1.5c-8.7-2.2-32.9-8.5-38-10.1c-4.6-1.4-13.7-5.8-18.3-8.2c10.1-15.4,23.6-38.4,23.6-38.4s-8.7-13.8-20.1-31.8
			c7.3,0.3,32.3,1.1,34,1.1c0.2,0,0.3,0.1,0.5,0.1c1.9,0.6,6.3,3.6,9.6,5.8c1.1,0.7,2.2,1.4,3.4,1.9c2.3,0.9,13-0.1,16.9,0
			c0.3,0,0.6,0,0.9,0C1038.1,174.5,1048.4,178.9,1054.7,181.6z"/>
		<path class="st9" d="M1024.4,254.8l-0.7-0.2c-21.4-5.6-34.5-9.1-38-10.1c-4.8-1.5-14.5-6.3-18.5-8.2l-0.7-0.3l0.4-0.6
			c9.3-14.2,21.6-35.1,23.3-38c-1.4-2.2-9.5-15.1-19.9-31.5l-0.7-1.1l1.3,0.1c11.9,0.4,32.5,1.1,34,1.1c0.3,0,0.5,0.1,0.7,0.1
			c1.5,0.5,4.5,2.4,7.4,4.3c0.8,0.5,1.6,1.1,2.4,1.5c1.1,0.7,2.2,1.3,3.4,1.9c1.3,0.5,6.5,0.3,10.6,0.1c2.4-0.1,4.7-0.2,6.1-0.1
			c0.3,0,0.5,0,0.9,0c1.5,0.2,7.6,2.6,18.7,7.4l0.6,0.3l-0.2,0.6c-0.4,1-0.7,2-1.1,3.1c-0.7,1.7-1.4,3.6-2,5.4
			c-1,3.1-3.2,5.8-5.8,9.1c-3.5,4.4-7.9,9.9-12.2,19c-4.8,10.8-7.9,22.2-9.4,33.9c0,0.1-0.1,0.5-0.3,1.5L1024.4,254.8z M968.5,235.3
			c4.3,2.2,13.2,6.5,17.6,7.8c3.5,1.1,16.3,4.5,37.2,9.9c0.1-0.5,0.1-0.8,0.1-0.8c1.4-11.8,4.6-23.4,9.5-34.3
			c4.4-9.3,8.8-14.9,12.4-19.3c2.6-3.3,4.7-5.9,5.6-8.7c0.6-1.9,1.3-3.7,2-5.5c0.3-0.8,0.6-1.6,0.9-2.4c-13-5.6-16.8-6.9-17.7-7
			c-0.2,0-0.5,0-0.7,0c-1.4-0.1-3.7,0.1-6,0.1c-5.6,0.3-9.6,0.4-11.1-0.2c-1.3-0.6-2.4-1.3-3.6-2c-0.7-0.5-1.5-1-2.4-1.5
			c-2.7-1.7-5.7-3.8-7.1-4.2c-0.1-0.1-0.2-0.1-0.3-0.1c-1.7,0-26.7-0.9-32.7-1.1c11,17.5,19.4,30.7,19.4,30.7l0.2,0.3l-0.2,0.3
			C991.5,197.7,978.4,220,968.5,235.3z"/>
	</g>
	<g>
		<path class="st12" d="M1022.8,25c-9.5-0.7-12,8.6-44.5,15.9l-0.8,0.2c-23.9,5.2-48.2,11.7-59.9,14.9l-14.4-26.5l-26.6-49.2
			c11.4-2.1,21,3.4,22.9,4c1.9,0.7,12.8,3,31,2.5h2.7c5.7,9.3,18.3,29.7,18.8,29.7s31.1-8.7,45.3-12.6L1022.8,25z"/>
		<path class="st9" d="M917.2,56.7l-41.7-77l0.9-0.1c9.9-1.8,18.4,1.9,22,3.5c0.5,0.3,0.9,0.4,1.2,0.5c1.9,0.6,12.6,2.9,30.7,2.5
			h3.1l0.2,0.3c8,13,16.9,27.4,18.5,29.3c2.2-0.5,18.3-5.1,31.5-8.8c5-1.4,9.7-2.8,13.4-3.8l0.3-0.1l27.4,22.8l-2.1-0.1
			c-3.8-0.3-6.5,1.1-10.8,3.6c-5.8,3.2-14.7,8.1-33.5,12.3l-0.8,0.2c-21.9,4.8-44.7,10.7-59.9,14.8L917.2,56.7z M877.7-19.3
			l40.3,74.5c15.3-4.2,37.8-10,59.4-14.7l0.8-0.2c18.5-4.2,27.4-9,33.1-12.2c3.7-2,6.4-3.5,9.7-3.8L997.1,4.5
			c-3.6,1-8.2,2.3-13.1,3.7c-25.3,7.1-31.7,8.9-32.1,8.9c-0.5,0-1.1,0-19.2-29.7h-2.2c-18.4,0.4-29.3-1.9-31.2-2.6
			c-0.3-0.1-0.7-0.3-1.3-0.5C894.5-17.2,886.8-20.7,877.7-19.3z"/>
	</g>
	<g>
		<path class="st12" d="M997.2,3.7c-14.2,4-44.8,12.5-45.3,12.6c-0.5,0.1-13.1-20.4-18.8-29.7c10.6-0.2,21.2-1,31.7-2.5
			c2-0.7,4-1.5,5.8-2.6L997.2,3.7z"/>
		<path class="st9" d="M951.9,17c-0.7,0-2.2-1.9-19.4-30l-0.6-1h1.1c10.6-0.2,21.2-1,31.6-2.5c1.9-0.6,3.8-1.5,5.5-2.5l0.4-0.2
			l28,23.3l-1.2,0.3c-14.4,4-44.8,12.4-45.2,12.5C952.1,17,952,17,951.9,17z M934.3-12.7c13.4,21.8,16.9,27.2,17.8,28.4
			c3.4-0.9,29.8-8.3,43.7-12.2l-25.3-21.1c-1.7,1-3.6,1.8-5.5,2.4C954.8-13.8,944.5-12.9,934.3-12.7z"/>
	</g>
	<g>
		<path class="st12" d="M1066,32.2c-9.1-1.7-33.6-6.4-42.3-7.2h-0.9l0,0L997.1,3.7l-26.6-22.2c1.5-0.7,3.2-1.5,5.2-2.4
			c5.4-2.1,24.5-1,27-0.3c2.6,0.7,8.7,0,9.5-0.7c0.7-0.7,20.2-0.4,25.5-2.3c5.4-1.8,11.6-12.4,11.6-12.4s0.9,11.9,2.3,18.1
			c2.6,10.5,5.7,20.8,9.3,31C1063.3,19,1065,25.6,1066,32.2z"/>
		<path class="st9" d="M1066.8,33.1l-0.9-0.2c-9.9-1.9-33.7-6.4-42.3-7.2h-1.1l-0.2-0.1l-53-44.2l0.9-0.5c1.4-0.7,3.2-1.5,5.2-2.4
			c5.6-2.2,24.9-1.1,27.4-0.3c2.4,0.7,8.1,0,8.9-0.5c0.4-0.4,1.3-0.5,7.9-0.7c6.2-0.3,14.7-0.6,17.9-1.7c5.1-1.7,11.2-12,11.2-12
			l1.1-1.8l0.2,2.1c0,0.1,1,11.9,2.3,17.9c2.6,10.4,5.7,20.8,9.3,31c2.2,6.4,3.9,13,4.9,19.8L1066.8,33.1z M1023,24.4h0.6
			c8.4,0.8,31.1,5,41.5,7.1c-1-6.3-2.6-12.6-4.7-18.6c-3.6-10.1-6.8-20.6-9.4-31.1c-1-4.6-1.7-12.5-2.2-16.1c-2,3.1-6.7,9.5-10.9,11
			c-3.4,1.1-12,1.5-18.2,1.7c-3.2,0.1-6.5,0.3-7.2,0.5c-1.3,0.9-7.6,1.5-10,0.8c-2.6-0.7-21.6-1.7-26.6,0.3c-1.6,0.6-3,1.3-4.2,1.9
			L1023,24.4z"/>
	</g>
	<g>
		<path class="st12" d="M1064.8,78.1c-0.3,1.5-0.7,3-1.3,4.4c-4.8,0.2-14.3,1.7-27.6,9.7c-0.9,0.6-1.8,1.1-2.7,1.7l-2-39.8
			c8.9,1,23.7,2.5,31.5,3.3C1061.5,64.2,1066.2,69.1,1064.8,78.1z"/>
		<path class="st9" d="M1032.7,95.1l-2.1-41.8l0.8,0.1c9,1,23.6,2.5,31.5,3.3l0.7,0.1l-0.1,0.7c-0.6,3,0.1,5.8,0.9,8.7
			c0.9,3.4,1.8,7.1,1.1,12l0,0c-0.3,1.5-0.7,3.1-1.3,4.6l-0.1,0.4h-0.4c-4.5,0.1-14,1.6-27.2,9.6l-0.5,0.3c-0.7,0.5-1.4,0.9-2.1,1.3
			L1032.7,95.1z M1032,54.9l1.9,37.9c0.4-0.3,0.7-0.5,1.1-0.7l0.5-0.3c13.1-7.9,22.6-9.5,27.4-9.8c0.5-1.3,0.8-2.6,1.1-3.8
			c0.7-4.6-0.1-8.1-1-11.5c-0.7-2.8-1.4-5.5-1-8.5C1054.2,57.2,1040.8,55.8,1032,54.9z"/>
	</g>
	<g>
		<path class="st12" d="M1063.5,82.5c-2.8,7-9.1,12.4-13.7,14.9c-5.5,3.1-6,6.2-4,11.4c0.4,1.1,0.8,2.1,1.3,3.3
			c-2.2,1.5-7.1,4.8-10.1,6.7c-0.7,0.5-1.4,0.9-2.2,1.2c-2.8,1.1-6,2.6-5.8,0.7c0.3-1.8,1.7-7.1,0-6.3c-1.2,0.5-6.3,3-9.3,4.4
			l-0.5-1l0,0c-1.4-2.4-3.2-5.2-5.3-8.3c3.2-3.6,9.1-8.9,19.6-15.5c0.9-0.5,1.7-1.1,2.7-1.7C1049.2,84.3,1058.8,82.7,1063.5,82.5z"
			/>
		<path class="st9" d="M1029.8,122.2c-0.4,0-0.8-0.1-1.1-0.3c-0.3-0.2-0.5-0.6-0.4-1.3c0.1-0.3,0.1-0.8,0.3-1.3
			c0.2-1.1,0.7-3.4,0.5-4.2c-1.1,0.5-4.1,1.9-6.8,3.2l-3,1.4l-0.9-1.5c-1.4-2.4-3.2-5.2-5.2-8.2l-0.3-0.4l0.3-0.4
			c4.3-4.8,11-10.1,19.7-15.6c0.5-0.3,1-0.7,1.5-1l1.1-0.7c13.4-8.2,23.3-9.7,27.8-9.9l1-0.1l-0.4,0.9c-2.9,7.1-9.3,12.6-14,15.3
			c-5.4,3-5.5,5.9-3.7,10.6c0.4,1,0.8,2.1,1.3,3.2l0.2,0.5l-0.5,0.3c-2.4,1.7-7.1,4.8-10.2,6.7c-0.7,0.5-1.5,0.9-2.3,1.2l-0.3,0.1
			C1032.4,121.6,1030.9,122.2,1029.8,122.2z M1029.3,113.6c0.3,0,0.5,0.1,0.7,0.3c0.9,0.7,0.5,2.7-0.1,5.6c-0.1,0.5-0.2,0.9-0.3,1.3
			c0,0.1,0,0.1,0,0.1c0.5,0.2,3.1-0.9,4.5-1.4l0.3-0.1c0.7-0.3,1.4-0.7,2.1-1.1c2.9-1.7,7.2-4.6,9.7-6.4c-0.4-1-0.8-1.9-1.1-2.8
			c-1.9-5.1-1.9-8.7,4.3-12.2c4.2-2.4,10.1-7.3,13-13.6c-4.8,0.3-13.9,2.2-26.1,9.6l-1.1,0.7c-0.5,0.3-1,0.7-1.5,0.9
			c-8.4,5.3-14.9,10.3-19.1,15c1.9,2.9,3.7,5.5,5,7.9l0.3,0.4l1.9-0.9c2.8-1.3,6-2.9,6.9-3.2
			C1028.9,113.6,1029.1,113.6,1029.3,113.6z"/>
	</g>
	<g>
		<path class="st12" d="M1056.6,155.6c-2.6-0.3-5.2-0.9-7.7-1.5c-1.5-0.3-9.9-0.1-13.8,0c0-6-0.4-15.9,1.1-20.5
			c0.4-1.3,0.7-2.6,0.8-3.8c0.3-3.6,0.3-7.3-0.1-10.9c3.1-1.8,7.9-5.1,10.1-6.7c3.2,7.8,5.4,15.9,6.9,24.2
			C1055.1,142.7,1056,149.1,1056.6,155.6z"/>
		<path class="st9" d="M1057.4,156.3l-0.8-0.1c-2.6-0.3-5.2-0.9-7.9-1.5c-1.3-0.2-8.9-0.1-13.6,0h-0.7V154c0-1,0-2.1,0-3.3
			c-0.1-6-0.1-13.5,1.1-17.5c0.3-1.2,0.6-2.5,0.7-3.7c0.3-3.6,0.3-7.1-0.1-10.7l-0.1-0.4l0.4-0.2c3.1-1.8,7.9-5,10.1-6.7l0.7-0.5
			l0.3,0.8c3.2,7.9,5.4,16,6.9,24.3c1.2,6.4,2.2,12.8,2.8,19.4L1057.4,156.3z M1044.2,153.2c2.2,0,4.1,0.1,4.8,0.1
			c2.3,0.6,4.6,1.1,6.9,1.4c-0.6-6.1-1.5-12.3-2.7-18.3c-1.3-7.9-3.6-15.8-6.5-23.3c-2.4,1.7-6.3,4.3-9.1,6c0.4,3.5,0.4,7.1,0,10.6
			c-0.1,1.3-0.4,2.7-0.8,4c-1.2,3.7-1.1,11.1-1.1,17c0,0.9,0,1.8,0,2.6C1038,153.3,1041.4,153.2,1044.2,153.2z"/>
	</g>
	<g>
		<path class="st12" d="M1057.3,170.8c-0.2,3.8-1.1,7.4-2.6,10.9c-6.3-2.7-16.7-7.1-18.5-7.3c-0.3,0-0.6,0-0.9,0
			c0-3.1-0.1-7.4-0.8-8.5c-0.4-0.7-0.6-1.5-0.7-2.2c-0.3-1.7-0.1-3.8,0.7-4.6c0.4-0.4,0.5-2.3,0.5-4.9c3.9-0.1,12.3-0.2,13.8,0
			c2.6,0.7,5.1,1.2,7.7,1.5C1057.2,162.4,1057.3,167.4,1057.3,170.8z"/>
		<path class="st9" d="M1055.1,182.5l-2.6-1.1c-5.8-2.5-14.8-6.3-16.3-6.5c-0.2,0-0.5,0-0.7,0l-0.7,0.1v-0.7c0-6.5-0.5-7.9-0.7-8.1
			c-0.5-0.8-0.7-1.6-0.8-2.5c-0.3-1.8-0.1-4.2,0.9-5.2c0.1-0.3,0.3-1.8,0.3-4.4v-0.7h0.7c2.8-0.1,12.2-0.2,13.9,0
			c2.6,0.7,5.2,1.2,7.7,1.5l0.5,0.1l0.1,0.5c0.5,5.3,0.7,10.3,0.7,15.3v0.1c-0.2,3.8-1.1,7.5-2.6,11.1L1055.1,182.5z M1036.1,173.6
			c0.1,0,0.1,0,0.3,0c1.7,0.2,8.6,3.1,16.7,6.5l1.3,0.5c1.3-3.2,2-6.6,2.2-10c0-4.7-0.2-9.5-0.6-14.6c-2.5-0.3-4.9-0.9-7.3-1.5
			c-1.1-0.1-7.3-0.1-13,0c0,3.2-0.2,4.2-0.7,4.7c-0.6,0.6-0.8,2.4-0.5,4.1c0.1,0.7,0.3,1.4,0.7,2
			C1035.5,165.8,1036.1,166.9,1036.1,173.6z"/>
	</g>
	<g>
		<path class="st12" d="M933.8,249.8c-0.1,1.1-0.3,2.4-0.5,3.8l0,0c-7.6,1.1-17.9,2.4-31.9,4.2c-13.8,1.7-30.8,4.7-48.2,8.1
			c-0.3-2.2-0.4-3.8-0.5-4.8c-0.7-7.3-1.5-37.5-5-57.6l85.8-26.9C934,204.2,934.6,240.6,933.8,249.8z"/>
		<path class="st9" d="M852.5,266.5l-0.1-0.7c-0.3-2.2-0.4-3.8-0.5-4.8c-0.2-2-0.4-5.9-0.7-10.8c-0.7-12.8-1.8-32.3-4.2-46.8
			l-0.1-0.6l87.2-27.4v0.9c0.6,27.1,1.3,64.2,0.4,73.3c-0.1,1-0.3,2.2-0.5,3.8l-0.1,0.5l-0.5,0.1c-8.2,1.1-18.6,2.5-32,4.2
			c-12.7,1.6-28.9,4.3-48.1,8L852.5,266.5z M848.4,203.9c2.4,14.4,3.5,33.6,4.2,46.3c0.3,4.8,0.5,8.7,0.7,10.7
			c0.1,0.9,0.2,2.2,0.4,4c19-3.6,34.9-6.3,47.5-7.9c13.1-1.7,23.4-3,31.5-4.1c0.3-1.3,0.4-2.4,0.5-3.2l0,0c0.9-9,0.2-45.3-0.4-72.3
			L848.4,203.9z"/>
	</g>
	<g>
		<path class="st9" d="M933.3,176.5l-85.8,26.9c-0.7-4.9-1.9-9.7-3.8-14.2c-6.9-14.3-24.1-48.8-24.1-52.4c0-0.3,0-0.5-0.1-0.7
			c8.1-1,10.9-3,12.8-5.1c2.3-2.7,5.5-7.8,9.9-7.8s9.5,7,12.9,7c2.4,0,8.9-0.4,12.9-0.7c1.5,2,3.4,3.6,5.6,4.9
			c14,6.7,12.5,5,17.4,1.5c4.9-3.6,10.1-7.8,17.9-2.9c7.8,4.9,6.9,5.1,7.8,4c1-1.2,3.6-4,7.7,1.1c3.6,4.6,5.7,14.6,8.4,15.3
			C932.8,159.2,933.1,167.4,933.3,176.5z"/>
		<path class="st9" d="M846.9,204.3l-0.1-0.8c-0.7-4.8-1.9-9.6-3.8-14.1c-1.5-3.2-3.6-7.5-5.9-12.3c-10.3-21.2-18.2-37.6-18.2-40.3
			c0-0.2,0-0.4-0.1-0.6l-0.2-0.7l0.7-0.1c8.4-1.1,10.8-3.1,12.4-4.9c0.3-0.4,0.7-0.9,1.1-1.3c2.2-2.8,5.3-6.7,9.3-6.7
			c2.5,0,5.1,2,7.6,4c1.9,1.5,3.9,3,5.3,3c2.3,0,9.1-0.4,12.9-0.7h0.3l0.2,0.3c1.5,1.9,3.3,3.5,5.4,4.7c11.7,5.6,12.1,5.2,15,2.9
			c0.5-0.4,1.1-0.9,1.7-1.3l0.5-0.4c4.8-3.5,10.2-7.5,18.1-2.6c2.6,1.6,4.2,2.7,5.2,3.4c0.7,0.5,1.1,0.8,1.4,0.9l0.1-0.1l0.2-0.2
			c0.4-0.5,1.7-2.2,3.7-2.1c1.6,0,3.3,1.1,5,3.2s3.1,5.5,4.3,8.5c1.2,3,2.6,6.3,3.7,6.7l0.5,0.1l0.1,4.8c0.1,5.3,0.3,11.8,0.5,18.9
			v0.5l-0.5,0.1L846.9,204.3z M820.3,136.6c0,0.1,0,0.1,0,0.2c0,2.6,10.9,24.9,18.1,39.7c2.3,4.8,4.4,9.1,6,12.3
			c1.8,4.4,3.1,9,3.8,13.6l84.5-26.5c-0.1-6.9-0.3-13.2-0.5-18.3l-0.1-3.9c-1.5-0.9-2.7-3.7-4.1-7.2c-1.2-2.9-2.6-6.1-4.1-8.1
			c-1.4-1.7-2.8-2.7-3.9-2.7c-0.9-0.1-1.8,0.5-2.7,1.5l-0.1,0.2c-0.9,1.1-1.4,0.7-3.3-0.6c-1.1-0.7-2.6-1.8-5.2-3.4
			c-7.1-4.5-12-0.9-16.6,2.5l-0.5,0.4c-0.7,0.5-1.2,0.9-1.7,1.3c-3.4,2.8-4.3,3.1-16.4-2.7c-2.2-1.3-4-2.9-5.6-4.8
			c-4.6,0.3-10.4,0.6-12.6,0.6c-1.8,0-3.9-1.6-6.1-3.3c-2.4-1.8-4.7-3.7-6.8-3.7c-3.4,0-6.2,3.6-8.2,6.2c-0.4,0.5-0.8,1-1.1,1.4
			C830.7,133.8,827.7,135.6,820.3,136.6z"/>
	</g>
	<g>
		<path class="st12" d="M991.1,197.2c0,0-13.5,23-23.6,38.4c-4.9,7.5-8.9,13.2-10.3,13.6c-2.9,0.9-4,1.6-24.1,4.4l0,0
			c0.3-1.4,0.5-2.7,0.5-3.8c0.9-9.1,0.2-45.6-0.5-73.3c-0.2-9.1-0.4-17.3-0.6-23.2c0.3,0.1,0.7,0,1-0.1c3.2-1.9,6.9-5.8,12.5-3.8
			c4.9,1.7,9.1,1.5,13.5-2.1c3.9,6.3,7.7,12.4,11.4,18.1C982.4,183.4,991.1,197.2,991.1,197.2z"/>
		<path class="st9" d="M932.4,254.4l0.1-0.9c0.3-1.6,0.5-2.8,0.5-3.7c0.7-7.1,0.5-31.7-0.5-73.2c-0.2-9.1-0.4-17.3-0.6-23.2v-0.9
			l0.9,0.2c0.2,0.1,0.3,0,0.5-0.1c0.5-0.3,1.1-0.7,1.7-1.2c2.8-2,6.4-4.5,11.3-2.7c5.1,1.8,8.9,1.3,12.8-1.9l0.6-0.5l0.4,0.7
			c3.9,6.3,7.7,12.4,11.4,18.1c11.2,17.8,19.9,31.7,20,31.8l0.2,0.3l-0.2,0.3c-0.1,0.2-13.6,23.2-23.6,38.4
			c-7.7,11.8-9.7,13.6-10.6,13.9l-0.6,0.2c-2.6,0.9-4.9,1.6-23.5,4.2L932.4,254.4z M933.4,154c0.2,5.8,0.4,13.7,0.6,22.5
			c1,41.5,1.1,66.2,0.5,73.3c-0.1,0.8-0.2,1.7-0.4,2.9c17.7-2.4,20-3.2,22.4-4l0.6-0.2c0.5-0.1,2.4-1.7,9.9-13.4
			c9.3-14.2,21.6-35.1,23.3-38c-1.4-2.2-9.6-15.2-19.8-31.5c-3.5-5.5-7.2-11.4-11-17.5c-4.1,3.1-8.3,3.6-13.6,1.7
			c-4.2-1.5-7.3,0.6-10.1,2.6c-0.6,0.5-1.2,0.9-1.8,1.2C933.8,153.9,933.6,154,933.4,154z"/>
	</g>
	<g>
		<path class="st12" d="M959.7,147.2c-4.4,3.6-8.6,3.8-13.5,2.1c-5.6-2-9.3,1.9-12.5,3.8c-0.3,0.2-0.7,0.3-1,0.1
			c-2.7-0.7-4.8-10.8-8.4-15.3c-4-5.1-6.7-2.4-7.7-1.1s0,0.9-7.8-4c-7.8-4.9-13-0.7-17.9,2.9c-4.9,3.6-3.4,5.2-17.4-1.5
			c-2.2-1.2-4-2.9-5.6-4.9c-10.9-12.9-25.1-45.3-31.3-60.4l1.3-0.3l65.1-39.5l14.4,26.6L927.9,75c-7.1,0-7.5,2.9-7.5,6.7
			C920.4,83.8,940.8,117,959.7,147.2z"/>
		<path class="st9" d="M933,154c-0.1,0-0.3,0-0.5-0.1c-1.8-0.5-3-3.6-4.6-7.5c-1.2-2.9-2.6-6.1-4.1-8.1c-1.4-1.8-2.8-2.7-4-2.7l0,0
			c-0.9,0-1.8,0.5-2.6,1.5l-0.1,0.2c-0.9,1.1-1.3,0.7-3.3-0.5c-1.1-0.7-2.7-1.8-5.2-3.4c-7.1-4.4-12-0.9-16.6,2.5l-0.5,0.4
			c-0.7,0.5-1.1,0.9-1.6,1.3c-3.4,2.8-4.3,3.1-16.5-2.7c-2.3-1.3-4.2-3-5.8-5.1c-11.1-13.1-25.7-46.7-31.5-60.6l-0.3-0.7l2-0.3
			l65.7-39.8L929,75.7h-1.1c-6.4,0-6.8,2.3-6.8,6c0.2,1.3,7.1,13.8,39.2,65.2l0.3,0.5l-0.5,0.4c-4.3,3.5-8.7,4.2-14.2,2.2
			c-4.2-1.5-7.4,0.6-10.1,2.6c-0.6,0.5-1.2,0.9-1.8,1.2C933.7,154,933.4,154,933,154z M919.8,134.4
			C919.8,134.4,919.9,134.4,919.8,134.4c1.7,0,3.4,1.1,5,3.2c1.7,2.2,3.1,5.5,4.3,8.5c1.2,3,2.6,6.3,3.8,6.7c0.1,0,0.3,0,0.5-0.1
			c0.5-0.3,1.1-0.7,1.7-1.1c2.9-2,6.4-4.5,11.4-2.8c4.9,1.7,8.7,1.3,12.4-1.6c-34.7-55.6-39.2-64.2-39.2-65.5c0-3.8,0.5-7,7.1-7.3
			l-23.9-44l-64.7,39.2l-0.7,0.1c5.9,14.2,20.2,46.7,30.9,59.4c1.5,1.9,3.3,3.6,5.4,4.7c11.7,5.6,12.1,5.2,15,2.8
			c0.5-0.4,1-0.9,1.7-1.3l0.5-0.4c4.8-3.5,10.2-7.5,18.1-2.6c2.6,1.6,4.2,2.8,5.3,3.5c0.6,0.4,1.1,0.8,1.4,0.9l0.1-0.1l0.1-0.2
			C917.2,135.1,918.5,134.4,919.8,134.4z"/>
	</g>
	<g>
		<path class="st12" d="M988.4,75c-12.5,0-53.1,0.1-59.7,0h-0.8l-10.3-19.2c11.8-3.2,36-9.6,59.9-14.9l0.8-0.2
			C979.9,48,984,65.7,988.4,75z"/>
		<path class="st9" d="M944.4,75.8c-7.5,0-13.5,0-15.7-0.1h-1.2l-10.9-20.2l0.8-0.2c15.3-4.1,38-10.1,59.9-14.9l1.5-0.3l0.1,0.7
			c1.6,7.1,5.8,24.8,10.1,34l0.5,0.9h-1.1c-3.6,0-9.4,0-16.1,0C963.5,75.7,953,75.8,944.4,75.8z M928.3,74.4h0.4
			c4.7,0.1,27.2,0.1,43.6,0c6.1,0,11.5,0,15.1,0c-4.1-9.3-7.9-25.4-9.6-32.7l-0.1,0.1c-21.5,4.7-43.8,10.5-59.1,14.7L928.3,74.4z"/>
	</g>
	<g>
		<path class="st12" d="M1062.8,57.3C1062.8,57.3,1062.8,57.3,1062.8,57.3c-7.9-0.7-22.6-2.2-31.5-3.2c-4.2-0.5-7.1-0.8-7.5-0.9
			c-1-0.3-0.4-19.4-0.1-27.6c0-0.3,0-0.5,0-0.7c8.7,0.8,33.2,5.4,42.3,7.2c0.4,2.2,0.8,4.4,1.2,6.7C1069,49,1064.1,50.5,1062.8,57.3
			z"/>
		<path class="st9" d="M1063.5,58.2l-0.7-0.1c-7.9-0.8-22.6-2.3-31.5-3.3c-3.2-0.3-7.1-0.8-7.5-0.9c-0.7-0.2-1.7-0.4-0.7-28.2v-1.3
			l0.7,0.1c8.6,0.8,32.5,5.3,42.4,7.2l0.5,0.1l0.1,0.5c0.2,1.2,0.4,2.4,0.7,3.6c0.2,1,0.3,2,0.5,3.1c1.2,6.7-0.5,9.8-2.1,12.8
			c-0.9,1.7-1.8,3.4-2.3,5.7L1063.5,58.2L1063.5,58.2z M1024.2,52.7c0.7,0.1,2.8,0.3,7.1,0.8c8.7,0.9,22.9,2.4,30.9,3.2
			c0.5-2.3,1.4-4,2.3-5.6c1.6-3,3.1-5.8,1.9-12c-0.2-1-0.3-2.1-0.5-3.1c-0.2-1.1-0.4-2.2-0.5-3.2c-9.8-1.9-32.1-6-41.1-7.1
			C1023.7,43.5,1023.8,51.2,1024.2,52.7z"/>
	</g>
	<g>
		<path class="st12" d="M1013.7,109.4c-1.4,1.5-2.6,3.2-3.6,5c-0.7,1.3-1.9,15.1-2.9,28.6c-0.7,9.6-1.3,19.1-1.7,23.7
			c-0.1-0.1-0.3-0.1-0.5-0.1c-1.7,0-26.7-0.9-34-1.1c-3.6-5.7-7.5-11.8-11.4-18.1c-18.9-30.2-39.2-63.4-39.2-65.6
			c0-3.8,0.5-6.7,7.5-6.7h0.8c6.6,0.1,47.2,0,59.7,0c0.7,1.5,1.5,3,2.6,4.4C995.4,84.9,1006.2,98.4,1013.7,109.4z"/>
		<path class="st9" d="M1006.2,167.5l-0.8-0.3c-0.1-0.1-0.2-0.1-0.3-0.1c-1.7,0-28.8-0.9-34-1.1h-0.3l-0.2-0.3
			c-3.6-5.7-7.5-11.8-11.4-18.1c-39.5-63.2-39.5-65.3-39.5-66c0-4,0.6-7.4,8.1-7.4h0.8c4.7,0.1,27.2,0.1,43.6,0c6.7,0,12.6,0,16.1,0
			h0.5l0.2,0.4c0.7,1.5,1.5,3,2.5,4.2c4.6,5.8,15.3,19.1,22.8,30.1l0.3,0.5l-0.3,0.4c-1.3,1.4-2.5,3.1-3.4,4.8
			c-0.2,0.3-0.9,3.5-2.8,28.3c-0.5,6.3-0.9,12.4-1.2,17.2c-0.2,2.6-0.3,4.8-0.5,6.5L1006.2,167.5z M971.4,164.7
			c8.7,0.3,31.2,1.1,33.5,1.1c0.1-1.5,0.3-3.5,0.4-5.7c0.3-4.8,0.7-11,1.2-17.2c2-27,2.8-28.4,3-28.8c0.9-1.7,2-3.3,3.3-4.7
			c-7.5-10.9-17.9-23.9-22.4-29.6c-1-1.3-1.9-2.8-2.5-4.2c-3.6,0-9.3,0-15.7,0c-16.4,0-38.8,0.1-43.6,0h-0.8c-6.4,0-6.8,2.3-6.8,6
			c0.1,1.1,5.4,11.2,39.2,65.3C964.1,153.1,967.9,159.1,971.4,164.7z"/>
	</g>
	<g>
		<path class="st12" d="M1033.2,94c-10.5,6.6-16.3,11.8-19.6,15.5c-7.5-11.1-18.3-24.5-22.8-30c-1-1.3-1.9-2.8-2.6-4.4
			C984,65.8,979.8,48,978.2,41c32.6-7.3,35.1-16.5,44.6-15.9l0,0l0.9,0.7c-0.3,8.2-0.9,27.3,0.1,27.6c0.3,0,3.3,0.4,7.5,0.9
			L1033.2,94z"/>
		<path class="st9" d="M1013.6,110.5l-0.5-0.7c-8-11.7-19.4-25.9-22.7-30c-1.1-1.4-1.9-3-2.6-4.5c-4.4-9.4-8.5-27.1-10.1-34.3
			l-0.1-0.7l0.7-0.1c18.6-4.2,27.4-9,33.2-12.2c4.4-2.4,7.3-4,11.6-3.8h0.2l1.3,1.1v0.3c-0.6,17.6-0.5,25.3-0.1,26.9
			c0.3,0,0.8,0.1,1.7,0.2c1.3,0.1,3.2,0.4,5.4,0.6l0.5,0.1l2,40.8l-0.3,0.2c-8.7,5.4-15.2,10.6-19.4,15.4L1013.6,110.5z M979,41.4
			c1.7,7.5,5.7,24.3,9.9,33.4c0.7,1.5,1.5,3,2.5,4.2c3.2,4,14.3,17.7,22.3,29.3c4.3-4.6,10.6-9.5,18.8-14.8l-1.9-38.8
			c-2-0.2-3.7-0.4-4.9-0.6c-0.9-0.1-1.7-0.2-1.9-0.2h-0.1c-0.7-0.2-1.6-0.4-0.7-27.9l-0.5-0.4c-3.7-0.2-6.3,1.3-10.6,3.6
			C1006.2,32.4,997.3,37.2,979,41.4z"/>
	</g>
	<g>
		<path class="st12" d="M1019,117.7L1019,117.7c-0.1,0.4-0.3,0.9-0.3,1.3c-0.3,2.2-0.7,6.9-1.1,12.6c-0.3,3.4-0.5,7-0.7,10.8
			l-9.6,0.5c1-13.4,2.2-27.2,2.9-28.6c0.9-1.8,2.2-3.5,3.6-5C1015.8,112.4,1017.6,115.2,1019,117.7z"/>
		<path class="st9" d="M1006.5,143.5l0.1-0.7c2-27,2.8-28.4,3-28.8c1-1.9,2.2-3.6,3.6-5.1l0.5-0.6l0.5,0.7c1.9,2.8,3.7,5.6,5.3,8.4
			l0.1,0.3l-0.1,0.3c-0.1,0.4-0.3,0.7-0.3,1.1c-0.3,2-0.7,6-1.1,12.6c-0.3,3.4-0.5,7-0.7,10.8l-0.1,0.6L1006.5,143.5z M1013.6,110.5
			c-1.1,1.3-2.1,2.7-2.9,4.2c-0.3,0.5-1,4.1-2.8,27.6l8.2-0.4c0.2-3.6,0.5-7.1,0.7-10.2c0.5-6.6,0.9-10.6,1.1-12.6
			c0.1-0.4,0.1-0.8,0.3-1.1C1016.8,115.3,1015.3,112.9,1013.6,110.5z"/>
	</g>
	<g>
		<path class="st12" d="M1036.9,129.6c-1.6,0.3-4,0.9-5.6,1.5c-2.1,0.7-10.5,0.7-13.8,0.6c0.4-5.7,0.8-10.3,1.1-12.6l0.9-0.4
			c3-1.5,8.1-3.9,9.3-4.4c1.7-0.7,0.3,4.5,0,6.3c-0.3,1.8,3,0.5,5.8-0.7c0.7-0.3,1.5-0.7,2.2-1.2
			C1037.3,122.4,1037.3,126,1036.9,129.6z"/>
		<path class="st9" d="M1020.7,132.4c-1.5,0-2.6,0-3.2,0h-0.7l0.1-0.7c0.5-6.6,0.9-10.6,1.1-12.6l0.1-0.3l1.2-0.5
			c5.4-2.6,8.5-4,9.4-4.4c0.6-0.3,1.1,0,1.3,0.1c0.9,0.7,0.5,2.8-0.1,5.7c-0.1,0.5-0.2,0.9-0.3,1.2c0,0.1,0,0.1,0,0.1
			c0.5,0.2,3.1-0.9,4.6-1.5l0.3-0.1c0.7-0.3,1.4-0.7,2.1-1.1l0.9-0.6l0.1,1.1c0.4,3.6,0.4,7.3,0.1,11l-0.1,0.5l-0.5,0.1
			c-1.6,0.3-4,0.9-5.6,1.4C1029.7,132.2,1024.4,132.4,1020.7,132.4z M1018.3,131c4.3,0.1,11.1,0,12.8-0.6c1.5-0.5,3.6-1,5.2-1.3
			c0.3-3.1,0.3-6.1,0-9.2c-0.5,0.3-0.9,0.5-1.4,0.7l-0.3,0.1c-3,1.2-5,1.9-5.9,1.2c-0.3-0.2-0.5-0.6-0.4-1.3
			c0.1-0.3,0.1-0.8,0.3-1.3c0.2-1.1,0.7-3.5,0.5-4.3c-1.1,0.5-4.2,1.9-9.3,4.4l-0.5,0.3C1019,121.6,1018.7,125.2,1018.3,131z"/>
	</g>
	<g>
		<path class="st12" d="M1035.4,174.3c-3.9-0.1-14.6,0.9-16.9,0c-1.1-0.5-2.3-1.2-3.4-1.9c0.1-2.2,0.3-5.2,0.5-8.8h18.3
			c0.1,0.8,0.3,1.5,0.7,2.2C1035.3,166.9,1035.4,171.2,1035.4,174.3z"/>
		<path class="st9" d="M1022.7,175.4c-2.1,0-3.6-0.1-4.4-0.5c-1.2-0.6-2.4-1.3-3.5-2l-0.3-0.2v-0.4c0.1-2.2,0.3-5.3,0.5-8.8l0.1-0.6
			h19.5l0.1,0.6c0.1,0.7,0.3,1.4,0.7,2c0.2,0.3,0.9,1.4,0.9,8.8v0.7h-0.7c-1.3,0-3.4,0.1-5.6,0.2
			C1027,175.3,1024.6,175.4,1022.7,175.4z M1015.8,172c0.9,0.6,1.9,1.2,3,1.7c1.3,0.5,6.9,0.3,10.9,0.1c1.9-0.1,3.7-0.2,5-0.2
			c-0.1-6-0.5-7.2-0.7-7.5c-0.3-0.6-0.6-1.3-0.7-1.9h-17.1C1016,167.3,1015.9,169.9,1015.8,172z"/>
	</g>
	<g>
		<path class="st12" d="M1016.8,142.5c-0.5,7.3-0.9,14.9-1.2,21.1c-0.2,3.5-0.3,6.6-0.5,8.8c-3.3-2.1-7.7-5.2-9.6-5.8
			c0.3-4.6,0.9-14,1.7-23.7L1016.8,142.5z"/>
		<path class="st9" d="M1015.8,173.6l-0.9-0.6c-0.7-0.5-1.5-1-2.4-1.5c-2.7-1.7-5.7-3.8-7.1-4.2l-0.5-0.1v-0.5
			c0.3-4.4,0.9-13.6,1.7-23.7l0.1-0.6l11-0.5l-0.1,0.7c-0.4,5.9-0.7,12.8-1.2,21.1c-0.2,3.5-0.3,6.6-0.5,8.8L1015.8,173.6z
			 M1006.2,166.1c1.6,0.7,4.3,2.4,6.9,4.2c0.5,0.3,0.9,0.6,1.3,0.9c0.1-2.1,0.3-4.7,0.4-7.7c0.4-7.9,0.8-14.6,1.1-20.4l-8.3,0.4
			C1007.2,153,1006.6,161.7,1006.2,166.1z"/>
	</g>
	<g>
		<path class="st12" d="M1036.1,133.5c-1.5,4.6-1.1,14.5-1.1,20.5c0,2.7-0.1,4.6-0.5,4.9c-0.8,0.8-1,2.9-0.7,4.6h-18.3
			c0.3-6.2,0.7-13.8,1.2-21.1c0.2-3.8,0.5-7.5,0.7-10.8c3.3,0,11.7,0.1,13.8-0.6c1.6-0.5,4-1.1,5.6-1.5
			C1036.8,130.9,1036.5,132.2,1036.1,133.5z"/>
		<path class="st9" d="M1034.6,164.2h-19.8l0.1-0.7c0.5-8.3,0.9-15.2,1.2-21.1c0.2-3.8,0.5-7.5,0.7-10.8l0.1-0.6h1.5
			c3.5,0,10.8,0,12.6-0.5c1.5-0.5,3.8-1,5.7-1.5l0.9-0.2l-0.1,0.9c-0.1,1.3-0.4,2.7-0.8,4l0,0c-1.1,3.6-1.1,10.8-1.1,16.6
			c0,1.3,0,2.6,0,3.7c0,4-0.2,5-0.7,5.4c-0.6,0.6-0.8,2.4-0.5,4.1L1034.6,164.2z M1016.3,162.9h16.8c-0.1-1.7,0.1-3.6,1-4.4
			c0.1-0.2,0.3-1.1,0.3-4.4c0-1.1,0-2.4,0-3.7c-0.1-5.9-0.1-13.2,1.1-17.1c0.3-0.9,0.5-1.8,0.7-2.8c-1.7,0.4-3.4,0.8-4.6,1.2
			c-1.9,0.6-7.7,0.6-13,0.7h-0.3c-0.2,3.2-0.5,6.7-0.7,10.2C1017.1,148.2,1016.7,155,1016.3,162.9z"/>
	</g>
</g>
</svg>
