<?xml version="1.0" encoding="utf-8"?>
<!-- Generator: Adobe Illustrator 26.0.0, SVG Export Plug-In . SVG Version: 6.00 Build 0)  -->
<svg version="1.1" id="Layer_1" xmlns="http://www.w3.org/2000/svg" xmlns:xlink="http://www.w3.org/1999/xlink" x="0px" y="0px"
	 viewBox="0 0 1116 360" style="enable-background:new 0 0 1116 360;" xml:space="preserve">
<style type="text/css">
	.st0{fill:#ED2F38;}
	.st1{opacity:0.24;}
	.st2{opacity:0.19;fill:#FFFFFF;enable-background:new    ;}
	.st3{font-family:'Poppins-ExtraBold';}
	.st4{font-size:65.16px;}
	.st5{font-size:71.62px;}
	.st6{fill:#FFFFFF;}
	.st7{fill:#46506D;stroke:#1B1E2A;stroke-miterlimit:10;}
	.st8{fill:#1B1E2A;stroke:#1B1E2A;stroke-miterlimit:10;}
	.st9{fill:#1B1E2A;}
	.st10{font-family:'Poppins-Regular';}
	.st11{font-size:69.773px;}
	.st12{fill:#46506D;}
</style>
<rect class="st0" width="1116" height="360"/>
<g>
	<g class="st1">
		<text transform="matrix(1 0 0 1 -142.7365 114.885)" class="st2 st3 st4">DUMAGUETE</text>
		<text transform="matrix(1 0 0 1 286.0935 114.885)" class="st2 st3 st4">DUMAGUETE</text>
	</g>
	<g class="st1">
		<text transform="matrix(1 0 0 1 -396.9865 175.7251)" class="st2 st3 st4">DUMAGUETE</text>
		<text transform="matrix(1 0 0 1 31.8435 175.7251)" class="st2 st3 st4">DUMAGUETE</text>
	</g>
	<g class="st1">
		<text transform="matrix(1 0 0 1 -103.3565 233.265)" class="st2 st3 st4">DUMAGUETE</text>
		<text transform="matrix(1 0 0 1 325.4735 233.265)" class="st2 st3 st4">DUMAGUETE</text>
	</g>
	<g class="st1">
		<text transform="matrix(1 0 0 1 -400.2065 294.2451)" class="st2 st3 st4">DUMAGUETE</text>
		<text transform="matrix(1 0 0 1 28.6235 294.2451)" class="st2 st3 st4">DUMAGUETE</text>
	</g>
	<g class="st1">
		<text transform="matrix(1 0 0 1 -210.7565 354.3751)" class="st2 st3 st4">DUMAGUETE</text>
		<text transform="matrix(1 0 0 1 218.0735 354.3751)" class="st2 st3 st4">DUMAGUETE</text>
	</g>
	<g class="st1">
		<text transform="matrix(1 0 0 1 -51.6165 58.1951)" class="st2 st3 st5">DUMAGUETE</text>
	</g>
	<g class="st1">
		<text transform="matrix(1 0 0 1 714.3794 114.885)" class="st2 st3 st4">DUMAGUETE</text>
	</g>
	<g class="st1">
		<text transform="matrix(1 0 0 1 460.1295 175.725)" class="st2 st3 st4">DUMAGUETE</text>
		<text transform="matrix(1 0 0 1 888.9595 175.725)" class="st2 st3 st4">DUMAGUETE</text>
	</g>
	<g class="st1">
		<text transform="matrix(1 0 0 1 753.7595 233.265)" class="st2 st3 st4">DUMAGUETE</text>
	</g>
	<g class="st1">
		<text transform="matrix(1 0 0 1 456.9094 294.245)" class="st2 st3 st4">DUMAGUETE</text>
		<text transform="matrix(1 0 0 1 885.7395 294.245)" class="st2 st3 st4">DUMAGUETE</text>
	</g>
	<g class="st1">
		<text transform="matrix(1 0 0 1 646.3594 354.375)" class="st2 st3 st4">DUMAGUETE</text>
		<text transform="matrix(1 0 0 1 1075.1895 354.375)" class="st2 st3 st4">DUMAGUETE</text>
	</g>
	<g class="st1">
		<text transform="matrix(1 0 0 1 413.89 58.1955)" class="st2 st3 st5">DUMAGUETE</text>
	</g>
	<g class="st1">
		<text transform="matrix(1 0 0 1 876.7581 58.6968)" class="st2 st3 st5">DUMAGUETE</text>
	</g>
</g>
<g>
	<text transform="matrix(1 0 0 1 184.1554 213.1137)" class="st9 st10 st11">CALINDAGAN</text>
	<g>
		<g>
			<path class="st6" d="M171.9,154.9L171.9,154.9L171.9,154.9c0.1-0.4,0.2-0.8,0.4-1.1c0.7-1.2,1-2.6,0.7-4l-0.1-0.7
				c-0.1-0.3-0.1-0.6-0.2-1l0,0c-0.4-2.1-0.7-3.8-1.3-5.2c-0.9-2.5-1.7-5-2.3-7.5c-0.3-1.4-0.5-4.3-0.5-4.3
				c-0.1-0.8-0.7-1.4-1.5-1.3c-0.5,0-0.9,0.3-1.2,0.7c-0.7,1.1-1.7,2.3-2.1,2.5c-0.6,0.2-2.8,0.3-4,0.3c-1.6,0.1-2.2,0.1-2.6,0.3
				c-0.4,0.1-0.8,0.1-1.3,0c-0.8-0.2-5.9-0.6-7.7,0.1c-0.6,0.2-1,0.4-1.4,0.6l0,0l-0.4,0.2c-0.2,0.1-0.5,0.3-0.7,0.4
				c-2.5,0.3-5.1,0.5-7.7,0.6l0,0h-0.7c-4.3,0.1-6.9-0.4-7.2-0.6c-0.1,0-0.1-0.1-0.2-0.1c-0.9-0.4-3.3-1.5-6.2-1l0,0h-0.1l0,0h-0.2
				c-3.1,0.7-4.8,1.5-5.2,1.7c-0.6,0.2-5.1,1.7-7,2.3c-0.5-0.8-1.2-2.2-1.6-3.1c-1.4-2.8-1.7-3.2-2.1-3.5c-0.5-0.3-3.7-1.5-4.6-1.8
				c-4.6-1.6-4.8-1.5-5.4-1.1c-0.4,0.2-0.5,0.4-1.7,2.4c-1,1.7-3.7,6.2-4.6,6.8c-0.5,0.2-2.9,1.1-5.5,2.1c-3.3,1.3-7.5,2.9-10.9,4.2
				c-1.9,0.7-3.2,1.3-4.2,1.7c-0.6,0.2-1,0.4-1.3,0.5c-0.4,0.2-1.5,0.7-1.2,1.8c0.1,0.5,0.2,0.6,1.8,2.4c1.7,1.9,4.8,5.3,5.8,7.2
				c0.5,0.9,1.5,3.2,2.8,6.4l0,0c1,2.5,2.2,5.5,3.2,8.2l0,0c0.9,2.3,1.5,4.2,1.9,5.3c0.7,2.1,3.1,9.8,7,22.2l0,0l1.7,5.5l2,7.1l0,0
				l8.4,29.4c0.2,0.6,0.7,1,1.4,1c0.1,0,0.1,0,0.2,0l17.5-2.1h0.1h0.1l0,0l12.7-2.2l0,0h0.2h0.1l14.6-3.7c0.5-0.1,0.9-0.5,1-1
				c0.5-2,1.9-5.6,3.2-6.6c0.1-0.1,0.2-0.2,0.3-0.2c0,0,0.1-0.1,0.2-0.3l0,0c4-4.8,4-5.8,4-6.3v-0.3c0.1-4.9,0.8-6.5,1.1-7l0.1-0.2
				l0,0c1-1.4,1.7-3,2-4.7c0.4-1.9,0.6-3.2,0.7-3.7l0,0l0,0l0.1-0.4v-0.1c0.3-2.8,1.1-5.5,2.2-8.1c0.8-1.6,1.7-3.1,2.9-4.5
				c0.7-0.9,1.4-1.7,1.7-2.7c0.1-0.4,0.3-0.9,0.5-1.3c0.1-0.3,0.2-0.5,0.3-0.8l0,0c0.4-1,0.7-2.1,0.7-3.2c0-0.9,0-2.2-0.2-3.9l0,0
				c-0.2-1.7-0.4-3.3-0.7-5c-0.4-2.2-0.9-4.3-1.7-6.3l0,0l0,0c-0.1-0.3-0.2-0.5-0.3-0.8c-0.1-0.2-0.2-0.4-0.2-0.7
				c0,0,0.1-0.1,0.5-0.4c1.4-0.8,3.2-2.4,4.1-4.4l0,0c0.2-0.5,0.3-0.9,0.4-1.4c0.2-1.2,0.1-2.4-0.3-3.5
				C171.9,155.8,171.8,155.4,171.9,154.9z"/>
		</g>
		<g>
			<path class="st12" d="M121.8,172.7c-1,0.1-2.7,0.2-3.2,0.2c-0.9,0-2.1-1.7-3.2-1.7s-1.9,1.3-2.5,2c-0.5,0.5-1.2,1-3.2,1.3
				c-0.4,0.1-0.9,0.1-1.5,0.1c-3.2,0.2-4.3-1.3-6.2-1.6c-1.8-0.4-1.9,0.3-3.2,0.6c-1.2,0.3-2.1-1.4-5.4-3.1c-3.3-1.6-3-0.5-4.4-0.2
				c-1.5,0.4-3.8-1.8-4.1-1.7c-0.2,0.1-1.2,1.7-2,3c-1-2.6-2.1-5.6-3.2-8.2c2-0.3,6.4-0.9,14.2-2.2c9.9-1.6,18.3-3.1,20.1-3.4
				C115.5,161.4,119,169.5,121.8,172.7z"/>
			<path class="st9" d="M107.6,174.7c-1.8,0-2.9-0.5-3.8-1c-0.6-0.3-1.1-0.5-1.8-0.7c-1.2-0.2-1.6,0-2.1,0.2c-0.3,0.1-0.6,0.3-1,0.4
				c-0.7,0.2-1.3-0.3-2.3-1c-0.7-0.6-1.8-1.3-3.3-2.1c-2.4-1.2-2.8-0.9-3.4-0.6c-0.2,0.1-0.5,0.3-0.9,0.4c-1.1,0.3-2.5-0.7-3.4-1.3
				c-0.3-0.2-0.6-0.4-0.7-0.4c-0.1,0.1-0.5,0.6-1.9,2.9l-0.2,0.3l-0.1-0.3c-1-2.7-2.2-5.7-3.2-8.2l-0.1-0.2h0.2
				c2-0.3,6.4-0.9,14.2-2.2c10.4-1.7,19.1-3.2,20.1-3.4h0.1l0.1,0.1c1.4,3.4,5.1,11.8,7.8,15.1l0.2,0.3h-0.3
				c-1.1,0.1-2.7,0.2-3.2,0.2s-1-0.4-1.5-0.8c-0.6-0.5-1.2-0.9-1.7-0.9c-0.8,0-1.5,0.9-2,1.5c-0.1,0.1-0.2,0.3-0.3,0.4
				c-0.5,0.6-1.3,1.1-3.3,1.3c-0.4,0.1-0.9,0.1-1.5,0.1C108,174.7,107.8,174.7,107.6,174.7z M101,172.6c0.3,0,0.6,0,1,0.1
				c0.7,0.1,1.2,0.4,1.8,0.7c1,0.5,2.2,1.1,4.3,0.9c0.6,0,1.1-0.1,1.5-0.1c2.1-0.3,2.7-0.8,3.1-1.2c0.1-0.1,0.2-0.2,0.3-0.4
				c0.6-0.7,1.3-1.6,2.3-1.6c0.6,0,1.3,0.5,1.9,1c0.5,0.4,1,0.8,1.3,0.8c0.5,0,2.1-0.1,2.9-0.1c-2.7-3.4-6.2-11.3-7.6-14.8
				c-1.5,0.3-9.9,1.7-20,3.4c-7.6,1.2-12,1.9-14,2.2c1,2.4,2.1,5.2,3,7.7c1.6-2.7,1.8-2.7,1.9-2.8c0.2,0,0.4,0.1,1,0.5
				c0.8,0.6,2.2,1.5,3.1,1.3c0.4-0.1,0.6-0.2,0.8-0.4c0.8-0.4,1.3-0.6,3.7,0.6c1.6,0.8,2.6,1.5,3.4,2.1c0.9,0.7,1.4,1.1,2,0.9
				c0.4-0.1,0.7-0.2,0.9-0.3C100.1,172.7,100.4,172.6,101,172.6z"/>
		</g>
		<g>
			<path class="st12" d="M130.6,147.7l-16.3,9.9l-0.3,0.1c-1.8,0.3-10.2,1.8-20.1,3.4c-7.8,1.3-12.3,1.9-14.2,2.2
				c-1.2-2.9-2.3-5.5-2.9-6.6c-1.6-2.9-7.4-8.8-7.5-9.1s20.7-8.1,22.3-8.8s6.1-9.1,6.5-9.3c0.3-0.2,8.1,2.6,8.6,2.9
				c0.5,0.3,3.5,7.1,4,7.1s7.8-2.4,8.2-2.6c0.4-0.2,1.9-0.9,4.9-1.6c0.1,0,0.1,0,0.2,0L130.6,147.7z"/>
			<path class="st9" d="M79.5,163.4v-0.1c-0.9-2.3-2.2-5.3-2.9-6.5c-1.1-1.9-4.1-5.3-6-7.4c-1.3-1.5-1.5-1.7-1.5-1.8
				c0-0.2-0.1-0.3,16.8-6.8c2.9-1.1,5.1-2,5.6-2.2c1.1-0.5,3.7-4.9,5.2-7.3c0.9-1.5,1.1-1.9,1.3-2c0.5-0.3,8.7,2.9,8.7,2.9
				c0.2,0.1,0.7,1,1.7,3c0.8,1.6,2,3.9,2.3,4.1c0.5,0,7.7-2.4,8.1-2.6c0.2-0.1,1.8-0.9,4.9-1.6c0.1,0,0.2,0,0.2,0h0.1l6.8,12.6
				l-16.5,10l-0.3,0.1c-0.4,0.1-9.3,1.6-20.1,3.4c-7.8,1.3-12.3,1.9-14.2,2.2L79.5,163.4z M69.5,147.6c0.2,0.2,0.8,0.9,1.4,1.6
				c1.8,2,4.9,5.5,6,7.4c0.7,1.2,1.9,4.2,2.8,6.5c2-0.3,6.4-0.9,14.1-2.2c10.8-1.8,19.7-3.3,20.1-3.4l0.3-0.1l16.1-9.8l-6.5-12.1
				h-0.1c-3.1,0.7-4.7,1.5-4.9,1.5c-0.3,0.2-7.7,2.6-8.3,2.6c-0.4,0-0.9-1-2.5-4.2c-0.7-1.3-1.4-2.7-1.6-2.9
				c-0.5-0.3-7.7-2.9-8.4-2.9c-0.1,0.1-0.6,1-1.1,1.8c-2.1,3.5-4.2,7-5.3,7.4c-0.5,0.2-2.7,1.1-5.6,2.2
				C80.2,143.3,70.6,147,69.5,147.6z"/>
		</g>
		<g>
			<path class="st12" d="M116.6,191.2L91.7,199c-2.2-7.2-6-19.3-7-22.2c-0.4-1.2-1.1-3.2-2-5.4c0.8-1.3,1.8-2.9,2-3
				c0.3-0.1,2.6,2.1,4.1,1.7s1.1-1.4,4.4,0.2c3.3,1.6,4.2,3.3,5.4,3.1c1.2-0.3,1.3-0.9,3.2-0.6c1.8,0.4,2.9,1.8,6.2,1.6
				c0.6,0,1.1-0.1,1.5-0.1c0,0.1,0,0.1,0,0.2c0,0.9,4.3,9.5,6,13.1C116.2,188.8,116.5,190,116.6,191.2z"/>
			<path class="st9" d="M91.6,199.2V199c-1.4-4.4-5.9-19-7-22.2c-0.4-1.2-1.1-3.2-2-5.4v-0.1v-0.1c1.8-3,2-3,2.1-3.1
				c0.2,0,0.4,0.1,1,0.5c0.8,0.5,2.2,1.5,3.1,1.2c0.4-0.1,0.6-0.2,0.8-0.4c0.8-0.4,1.3-0.6,3.7,0.6c1.6,0.8,2.6,1.5,3.4,2.1
				c0.9,0.7,1.4,1.1,2,0.9c0.4-0.1,0.7-0.2,0.9-0.3c0.6-0.3,1-0.5,2.3-0.2c0.7,0.1,1.2,0.4,1.8,0.7c1,0.5,2.2,1.1,4.3,0.9
				c0.6,0,1.1-0.1,1.5-0.1h0.1v0.1c0,0.1,0,0.2,0,0.2c0,0.7,2.8,6.5,4.7,10.4c0.5,1,0.9,1.9,1.3,2.6c0.5,1.2,0.8,2.4,1,3.6v0.1h-0.1
				L91.6,199.2z M83,171.4c0.8,2.2,1.5,4.1,1.9,5.3c1.1,3.2,5.5,17.5,6.9,22.1l24.6-7.7c-0.2-1.2-0.5-2.3-0.9-3.4
				c-0.3-0.7-0.8-1.6-1.3-2.6c-2.6-5.3-4.8-9.8-4.8-10.5l0,0c-0.4,0-0.8,0.1-1.3,0.1c-2.1,0.1-3.4-0.5-4.4-1
				c-0.6-0.3-1.1-0.5-1.8-0.7c-1.2-0.2-1.6,0-2.1,0.2c-0.3,0.1-0.6,0.3-1,0.4c-0.7,0.2-1.3-0.3-2.3-1c-0.7-0.6-1.8-1.3-3.3-2.1
				c-2.4-1.2-2.8-0.9-3.4-0.6c-0.2,0.1-0.5,0.3-0.9,0.4c-1.1,0.3-2.5-0.7-3.4-1.3c-0.3-0.2-0.6-0.4-0.7-0.4
				C84.8,168.7,84.4,169.2,83,171.4z"/>
		</g>
		<g>
			<path class="st12" d="M118,206.8c-8.8,1.7-18.2,3.8-22.5,4.8l-2-7.1c0,0-0.7-2.3-1.7-5.5l24.9-7.8c0.9,5,1.1,12.6,1.2,14.4
				C117.9,205.8,117.9,206.3,118,206.8z"/>
			<path class="st9" d="M95.4,211.8l-2.1-7.2l0,0c0,0-0.7-2.3-1.7-5.5v-0.2l25.2-7.9v0.2c0.6,3.6,0.9,8.5,1.1,11.7
				c0.1,1.2,0.1,2.2,0.2,2.7c0,0.2,0.1,0.6,0.1,1.2v0.2H118C108.9,208.8,99.2,211,95.4,211.8L95.4,211.8z M91.9,199.1
				c1,3.2,1.7,5.4,1.7,5.4l2,6.9c3.8-0.9,13.2-3,22.2-4.8c-0.1-0.5-0.1-0.8-0.1-1c-0.1-0.5-0.1-1.5-0.2-2.7c-0.2-3.2-0.4-7.9-1-11.5
				L91.9,199.1z"/>
		</g>
		<g>
			<path class="st12" d="M121.5,238.9L121.5,238.9l-17.6,2.1l-8.4-29.4c4.3-1,13.7-3.1,22.5-4.8c0.5,4.9,2.3,21.2,2.5,25.2
				C120.6,234.3,121,236.6,121.5,238.9z"/>
			<path class="st9" d="M103.8,241.2l-8.5-29.7h0.2c2.9-0.7,12.9-3,22.5-4.8h0.2l0.2,1.8c0.6,6,2.2,20,2.3,23.6
				c0.1,2.3,0.5,4.6,1.1,6.9v0.2l-0.3,0.1L103.8,241.2z M95.7,211.7l8.4,29.1l17.3-2.1c-0.6-2.2-0.9-4.5-1-6.7
				c-0.1-3.6-1.7-17.6-2.3-23.5l-0.2-1.4C108.5,208.8,98.7,211,95.7,211.7z"/>
		</g>
		<g>
			<path class="st12" d="M133.4,219c-0.2,0.6,0.6,13.3,0.9,17.6l-12.7,2.2c-0.6-2.3-0.9-4.6-1.1-6.9c-0.2-4-1.9-20.2-2.5-25.2
				c4.4-0.8,8.6-1.6,12.1-2s6.1-0.8,8-1c-0.5,2.3-1.1,4.5-1.8,6.7C135,214.5,133.5,218.6,133.4,219z"/>
			<path class="st9" d="M121.4,239v-0.1c-0.6-2.3-0.9-4.6-1.1-6.9c-0.1-3.6-1.7-17.6-2.3-23.5l-0.2-1.8h0.2c4.9-0.9,9-1.6,12.1-2
				c3.3-0.4,6-0.8,8-1h0.2v0.2c-0.5,2.3-1.1,4.5-1.8,6.7c-0.9,2.8-1.8,5.6-2.4,7.3c-0.2,0.7-0.4,1.2-0.4,1.3
				c-0.1,0.5,0.4,9.4,0.9,17.5v0.1L121.4,239z M118.2,206.9l0.2,1.5c0.6,6,2.2,19.9,2.3,23.5c0.1,2.3,0.5,4.5,1,6.7l12.4-2.2
				c-0.3-5.2-1-16.9-0.8-17.5l0,0c0-0.1,0.2-0.6,0.4-1.3c0.6-1.7,1.5-4.4,2.4-7.3c0.7-2.1,1.3-4.3,1.7-6.4c-2,0.3-4.6,0.6-7.8,1
				C127,205.3,123,206,118.2,206.9z"/>
		</g>
		<g>
			<path class="st12" d="M153.1,225.3l-0.2,0.3c-2.3,1.6-3.8,7.4-3.8,7.4l-14.6,3.7h-0.2c-0.3-4.3-1-17-0.9-17.6
				c0.1-0.4,1.6-4.5,2.9-8.6c1,2.5,3.1,7,3.7,7.6C140.7,218.7,149.6,223.4,153.1,225.3z"/>
			<path class="st9" d="M134.1,236.8v-0.2c-0.1-1.7-1-16.9-0.8-17.7c0-0.1,0.2-0.7,0.5-1.4c0.6-1.6,1.5-4.4,2.4-7.2l0.1-0.4l0.2,0.4
				c1.4,3.4,3.1,7.1,3.7,7.6c0.8,0.7,10.2,5.7,13.1,7.2l0.2,0.1l-0.4,0.5c-2.2,1.6-3.7,7.2-3.7,7.3v0.1L134.1,236.8z M136.3,210.9
				c-0.8,2.6-1.7,5.2-2.2,6.8c-0.3,0.7-0.4,1.3-0.5,1.4c-0.1,0.5,0.4,10.6,0.8,17.4l14.5-3.7c0.2-0.8,1.7-5.8,3.8-7.4l0.1-0.1
				c-3.8-2-12.2-6.4-13-7.1C139.1,217.5,137,212.6,136.3,210.9z"/>
		</g>
		<g>
			<path class="st12" d="M158.4,211.6c-0.1,0.1-0.1,0.1-0.1,0.1c-1.4,1.8-1.4,7-1.5,8.1c0,0.9-2.9,4.4-3.7,5.4
				c-3.5-1.9-12.4-6.5-13.1-7.2c-0.7-0.6-2.7-5.2-3.7-7.6c0.7-2.2,1.3-4.4,1.8-6.7l0,0c2.4,0.3,6.9,2.8,8.4,3.4
				C147.6,207.6,154.7,210.2,158.4,211.6z"/>
			<path class="st9" d="M153.2,225.5l-0.1-0.1c-3.7-1.9-12.4-6.5-13.1-7.2c-0.7-0.7-2.9-5.6-3.8-7.7v-0.1v-0.1
				c0.7-2.2,1.3-4.4,1.8-6.7v-0.2h0.2c1.7,0.2,4.5,1.6,6.6,2.6c0.8,0.4,1.4,0.7,1.9,0.9c1.1,0.4,7.9,2.9,11.5,4.3l0.6,0.2l-0.1,0.2
				c-0.1,0.1-0.1,0.1-0.1,0.1c-1.2,1.7-1.4,6.2-1.4,7.7v0.3c0,0.9-2.3,3.8-3.7,5.5L153.2,225.5z M136.5,210.4
				c1.8,4.3,3.2,7.1,3.7,7.5c0.7,0.7,9.9,5.5,13,7.1c2.2-2.6,3.5-4.6,3.6-5.2v-0.3c0-1.5,0.2-6.1,1.5-7.9l-0.2-0.1
				c-3.9-1.5-10.4-3.9-11.5-4.3c-0.4-0.2-1.1-0.5-1.9-0.9c-1.9-1-4.6-2.2-6.3-2.5C137.7,206.1,137.1,208.3,136.5,210.4z"/>
		</g>
		<g>
			<path class="st9" d="M160.8,203.8c-0.1,0.6-0.3,1.9-0.7,3.7c-0.3,1.5-0.9,2.9-1.7,4.1c-3.7-1.4-10.8-4-11.9-4.4
				c-1.5-0.6-6-3.1-8.4-3.4c5-0.7,5.3-0.9,6-1.1c0.3-0.1,1.3-1.5,2.6-3.4c1.2,0.6,3.5,1.7,4.6,2
				C152.5,201.7,158.6,203.3,160.8,203.8z"/>
			<path class="st9" d="M158.4,211.8h-0.1c-3.7-1.4-10.8-4-11.9-4.4c-0.4-0.2-1.1-0.5-1.9-0.9c-2-1-4.7-2.3-6.4-2.5l-1.3-0.2
				l1.3-0.2c4.6-0.6,5.2-0.8,5.8-1h0.2c0.2-0.1,0.7-0.7,2.5-3.3l0.1-0.1l0.1,0.1c1,0.5,3.4,1.7,4.6,2c0.9,0.3,4.2,1.1,9.5,2.5h0.1
				v0.2c-0.1,0.7-0.4,2.2-0.7,3.7s-0.9,2.9-1.8,4.2L158.4,211.8z M139.1,203.8c1.7,0.5,3.9,1.5,5.6,2.3c0.8,0.4,1.5,0.7,1.9,0.9
				c1.1,0.4,8,3,11.8,4.4c0.8-1.2,1.4-2.5,1.6-3.9c0.3-1.4,0.5-2.8,0.6-3.5c-5.3-1.4-8.5-2.2-9.4-2.5c-1.1-0.4-3.4-1.5-4.5-2
				c-1.8,2.8-2.3,3.3-2.6,3.3H144C143.4,203.1,142.9,203.2,139.1,203.8z"/>
		</g>
		<g>
			<path class="st12" d="M168.5,185.8c-0.3,0.7-0.5,1.4-0.8,2.1c-0.6,1.7-2.6,3-4.5,7c-1.2,2.7-2,5.6-2.4,8.5c0,0,0,0.1-0.1,0.4
				c-2.2-0.6-8.2-2.1-9.5-2.5c-1.1-0.4-3.4-1.5-4.6-2c2.5-3.9,5.9-9.6,5.9-9.6s-2.2-3.4-5-8c1.8,0.1,8.1,0.3,8.5,0.3h0.1
				c0.5,0.1,1.6,0.9,2.4,1.4c0.3,0.2,0.6,0.3,0.9,0.5c0.6,0.2,3.3,0,4.2,0c0.1,0,0.1,0,0.2,0C164.3,184,166.9,185.1,168.5,185.8z"/>
			<path class="st9" d="M160.9,204h-0.2c-5.3-1.4-8.6-2.3-9.5-2.5c-1.2-0.4-3.6-1.6-4.6-2.1l-0.2-0.1l0.1-0.2
				c2.3-3.6,5.4-8.8,5.8-9.5c-0.4-0.6-2.4-3.8-5-7.9l-0.2-0.3h0.3c3,0.1,8.1,0.3,8.5,0.3c0.1,0,0.1,0,0.2,0c0.4,0.1,1.1,0.6,1.8,1.1
				c0.2,0.1,0.4,0.3,0.6,0.4c0.3,0.2,0.5,0.3,0.8,0.5c0.3,0.1,1.6,0.1,2.6,0c0.6,0,1.2-0.1,1.5,0c0.1,0,0.1,0,0.2,0
				c0.4,0,1.9,0.6,4.7,1.8l0.1,0.1l-0.1,0.1c-0.1,0.3-0.2,0.5-0.3,0.8c-0.2,0.4-0.3,0.9-0.5,1.4c-0.3,0.8-0.8,1.4-1.5,2.3
				c-0.9,1.1-2,2.5-3,4.8c-1.2,2.7-2,5.6-2.3,8.5c0,0,0,0.1-0.1,0.4L160.9,204z M146.9,199.2c1.1,0.5,3.3,1.6,4.4,2
				c0.9,0.3,4.1,1.1,9.3,2.5c0-0.1,0-0.2,0-0.2c0.4-3,1.2-5.8,2.4-8.6c1.1-2.3,2.2-3.7,3.1-4.8c0.7-0.8,1.2-1.5,1.4-2.2
				c0.2-0.5,0.3-0.9,0.5-1.4c0.1-0.2,0.2-0.4,0.2-0.6c-3.3-1.4-4.2-1.7-4.4-1.8c-0.1,0-0.1,0-0.2,0c-0.4,0-0.9,0-1.5,0
				c-1.4,0.1-2.4,0.1-2.8-0.1c-0.3-0.1-0.6-0.3-0.9-0.5c-0.2-0.1-0.4-0.2-0.6-0.4c-0.7-0.4-1.4-0.9-1.8-1h-0.1
				c-0.4,0-6.7-0.2-8.2-0.3c2.8,4.4,4.9,7.7,4.9,7.7l0.1,0.1l-0.1,0.1C152.7,189.8,149.4,195.4,146.9,199.2z"/>
		</g>
		<g>
			<path class="st12" d="M160.5,146.6c-2.4-0.2-3,2.2-11.1,4h-0.2c-6,1.3-12,2.9-15,3.7l-3.6-6.6l-6.7-12.3c2.8-0.5,5.3,0.8,5.7,1
				c0.5,0.2,3.2,0.7,7.7,0.6h0.7c1.4,2.3,4.6,7.4,4.7,7.4c0.1,0,7.8-2.2,11.3-3.2L160.5,146.6z"/>
			<path class="st9" d="M134.1,154.5l-10.4-19.3h0.2c2.5-0.5,4.6,0.5,5.5,0.9c0.1,0.1,0.2,0.1,0.3,0.1c0.5,0.2,3.1,0.7,7.7,0.6h0.8
				v0.1c2,3.3,4.2,6.9,4.6,7.3c0.5-0.1,4.6-1.3,7.9-2.2c1.3-0.4,2.4-0.7,3.4-0.9h0.1l6.9,5.7h-0.5c-1-0.1-1.6,0.3-2.7,0.9
				c-1.5,0.8-3.7,2-8.4,3.1h-0.2c-5.5,1.2-11.2,2.7-15,3.7L134.1,154.5z M124.2,135.5l10.1,18.6c3.8-1,9.4-2.5,14.9-3.7h0.2
				c4.6-1,6.8-2.2,8.3-3c0.9-0.5,1.6-0.9,2.4-0.9l-6-5c-0.9,0.3-2.1,0.6-3.3,0.9c-6.3,1.8-7.9,2.2-8,2.2s-0.3,0-4.8-7.4h-0.6
				c-4.6,0.1-7.3-0.5-7.8-0.6c-0.1,0-0.2-0.1-0.3-0.1C128.4,136,126.5,135.1,124.2,135.5z"/>
		</g>
		<g>
			<path class="st12" d="M154.1,141.2c-3.5,1-11.2,3.1-11.3,3.2s-3.3-5.1-4.7-7.4c2.7,0,5.3-0.3,7.9-0.6c0.5-0.2,1-0.4,1.4-0.6
				L154.1,141.2z"/>
			<path class="st9" d="M142.8,144.6c-0.2,0-0.5-0.5-4.9-7.5l-0.2-0.2h0.3c2.6,0,5.3-0.3,7.9-0.6c0.5-0.2,0.9-0.4,1.4-0.6l0.1-0.1
				l7,5.8l-0.3,0.1C150.5,142.4,142.9,144.5,142.8,144.6L142.8,144.6z M138.3,137.1c3.3,5.4,4.2,6.8,4.5,7.1
				c0.8-0.2,7.5-2.1,10.9-3.1l-6.3-5.3c-0.4,0.2-0.9,0.4-1.4,0.6C143.5,136.9,140.9,137.1,138.3,137.1z"/>
		</g>
		<g>
			<path class="st12" d="M171.3,148.4c-2.3-0.4-8.4-1.6-10.6-1.8h-0.2l0,0l-6.4-5.3l-6.7-5.6c0.4-0.2,0.8-0.4,1.3-0.6
				c1.3-0.5,6.1-0.3,6.8-0.1c0.6,0.2,2.2,0,2.4-0.2s5-0.1,6.4-0.6s2.9-3.1,2.9-3.1s0.2,3,0.6,4.5c0.6,2.6,1.4,5.2,2.3,7.8
				C170.6,145.1,171,146.7,171.3,148.4z"/>
			<path class="st9" d="M171.5,148.6h-0.2c-2.5-0.5-8.4-1.6-10.6-1.8h-0.3l0,0l-13.3-11.1l0.2-0.1c0.4-0.2,0.8-0.4,1.3-0.6
				c1.4-0.6,6.2-0.3,6.9-0.1c0.6,0.2,2,0,2.2-0.1c0.1-0.1,0.3-0.1,2-0.2c1.5-0.1,3.7-0.1,4.5-0.4c1.3-0.4,2.8-3,2.8-3l0.3-0.5v0.5
				c0,0,0.2,3,0.6,4.5c0.6,2.6,1.4,5.2,2.3,7.7c0.6,1.6,1,3.3,1.2,4.9L171.5,148.6z M160.6,146.4h0.2c2.1,0.2,7.8,1.3,10.4,1.8
				c-0.3-1.6-0.7-3.1-1.2-4.6c-0.9-2.5-1.7-5.2-2.3-7.8c-0.2-1.2-0.4-3.1-0.5-4c-0.5,0.8-1.7,2.4-2.7,2.7c-0.8,0.3-3,0.4-4.6,0.4
				c-0.8,0-1.6,0.1-1.8,0.1c-0.3,0.2-1.9,0.4-2.5,0.2c-0.7-0.2-5.4-0.4-6.7,0.1c-0.4,0.2-0.8,0.3-1.1,0.5L160.6,146.4z"/>
		</g>
		<g>
			<path class="st12" d="M171,159.9c-0.1,0.4-0.2,0.7-0.3,1.1c-1.2,0-3.6,0.4-6.9,2.4c-0.2,0.1-0.5,0.3-0.7,0.4l-0.5-10
				c2.2,0.2,5.9,0.6,7.9,0.8C170.2,156.4,171.4,157.6,171,159.9z"/>
			<path class="st9" d="M163,164.1l-0.5-10.5h0.2c2.2,0.2,5.9,0.6,7.9,0.8h0.2v0.2c-0.1,0.8,0,1.4,0.2,2.2s0.5,1.8,0.3,3l0,0
				c-0.1,0.4-0.2,0.8-0.3,1.1v0.1h-0.1c-1.1,0-3.5,0.4-6.8,2.4l-0.1,0.1c-0.2,0.1-0.4,0.2-0.5,0.3L163,164.1z M162.8,154l0.5,9.5
				c0.1-0.1,0.2-0.1,0.3-0.2l0.1-0.1c3.3-2,5.7-2.4,6.9-2.5c0.1-0.3,0.2-0.6,0.3-1c0.2-1.2,0-2-0.3-2.9c-0.2-0.7-0.4-1.4-0.3-2.1
				C168.4,154.6,165,154.3,162.8,154z"/>
		</g>
		<g>
			<path class="st12" d="M170.7,161c-0.7,1.7-2.3,3.1-3.4,3.7c-1.4,0.8-1.5,1.5-1,2.8c0.1,0.3,0.2,0.5,0.3,0.8
				c-0.6,0.4-1.8,1.2-2.5,1.7c-0.2,0.1-0.4,0.2-0.6,0.3c-0.7,0.3-1.5,0.6-1.4,0.2c0.1-0.5,0.4-1.8,0-1.6c-0.3,0.1-1.6,0.7-2.3,1.1
				l-0.1-0.2l0,0c-0.4-0.6-0.8-1.3-1.3-2.1c0.8-0.9,2.3-2.2,4.9-3.9c0.2-0.1,0.4-0.3,0.7-0.4C167.1,161.4,169.5,161,170.7,161z"/>
			<path class="st9" d="M162.2,170.9c-0.1,0-0.2,0-0.3-0.1s-0.1-0.2-0.1-0.3s0-0.2,0.1-0.3c0.1-0.3,0.2-0.9,0.1-1.1
				c-0.3,0.1-1,0.5-1.7,0.8l-0.8,0.4l-0.2-0.4c-0.3-0.6-0.8-1.3-1.3-2.1l-0.1-0.1l0.1-0.1c1.1-1.2,2.7-2.5,4.9-3.9
				c0.1-0.1,0.3-0.2,0.4-0.2l0.3-0.2c3.4-2.1,5.8-2.4,7-2.5h0.3l-0.1,0.2c-0.7,1.8-2.3,3.2-3.5,3.8c-1.4,0.8-1.4,1.5-0.9,2.6
				c0.1,0.2,0.2,0.5,0.3,0.8l0.1,0.1l-0.1,0.1c-0.6,0.4-1.8,1.2-2.6,1.7c-0.2,0.1-0.4,0.2-0.6,0.3h-0.1
				C162.9,170.7,162.5,170.9,162.2,170.9z M162.1,168.7c0.1,0,0.1,0,0.2,0.1c0.2,0.2,0.1,0.7,0,1.4c0,0.1,0,0.2-0.1,0.3l0,0
				c0.1,0.1,0.8-0.2,1.1-0.4h0.1c0.2-0.1,0.4-0.2,0.5-0.3c0.7-0.4,1.8-1.2,2.4-1.6c-0.1-0.3-0.2-0.5-0.3-0.7
				c-0.5-1.3-0.5-2.2,1.1-3.1c1.1-0.6,2.5-1.8,3.3-3.4c-1.2,0.1-3.5,0.5-6.5,2.4l-0.3,0.2c-0.1,0.1-0.3,0.2-0.4,0.2
				c-2.1,1.3-3.7,2.6-4.8,3.7c0.5,0.7,0.9,1.4,1.3,2l0.1,0.1l0.5-0.2c0.7-0.3,1.5-0.7,1.7-0.8C162,168.7,162.1,168.7,162.1,168.7z"
				/>
		</g>
		<g>
			<path class="st12" d="M169,179.2c-0.7-0.1-1.3-0.2-1.9-0.4c-0.4-0.1-2.5,0-3.5,0c0-1.5-0.1-4,0.3-5.1c0.1-0.3,0.2-0.6,0.2-1
				c0.1-0.9,0.1-1.8,0-2.7c0.8-0.5,2-1.3,2.5-1.7c0.8,2,1.4,4,1.7,6.1C168.6,176,168.8,177.6,169,179.2z"/>
			<path class="st9" d="M169.1,179.4h-0.2c-0.7-0.1-1.3-0.2-2-0.4c-0.3-0.1-2.2,0-3.4,0h-0.2v-0.2c0-0.3,0-0.5,0-0.8
				c0-1.5,0-3.4,0.3-4.4c0.1-0.3,0.2-0.6,0.2-0.9c0.1-0.9,0.1-1.8,0-2.7v-0.1l0.1-0.1c0.8-0.5,2-1.3,2.5-1.7l0.2-0.1l0.1,0.2
				c0.8,2,1.4,4,1.7,6.1c0.3,1.6,0.5,3.2,0.7,4.8L169.1,179.4z M165.9,178.6c0.6,0,1,0,1.2,0c0.6,0.2,1.2,0.3,1.7,0.4
				c-0.1-1.5-0.4-3.1-0.7-4.6c-0.3-2-0.9-4-1.6-5.8c-0.6,0.4-1.6,1.1-2.3,1.5c0.1,0.9,0.1,1.8,0,2.6c0,0.3-0.1,0.7-0.2,1
				c-0.3,0.9-0.3,2.8-0.3,4.3c0,0.2,0,0.4,0,0.7C164.3,178.7,165.2,178.6,165.9,178.6z"/>
		</g>
		<g>
			<path class="st12" d="M169.1,183c-0.1,0.9-0.3,1.9-0.6,2.7c-1.6-0.7-4.2-1.8-4.6-1.8c-0.1,0-0.1,0-0.2,0c0-0.8,0-1.8-0.2-2.1
				c-0.1-0.2-0.2-0.4-0.2-0.6c-0.1-0.4,0-1,0.2-1.2c0.1-0.1,0.1-0.6,0.1-1.2c1,0,3.1-0.1,3.5,0c0.6,0.2,1.3,0.3,1.9,0.4
				C169.1,180.9,169.1,182.2,169.1,183z"/>
			<path class="st9" d="M168.6,186l-0.6-0.3c-1.5-0.6-3.7-1.6-4.1-1.6c-0.1,0-0.1,0-0.2,0h-0.2v-0.2c0-1.6-0.1-2-0.2-2
				c-0.1-0.2-0.2-0.4-0.2-0.6c-0.1-0.5,0-1,0.2-1.3c0-0.1,0.1-0.4,0.1-1.1v-0.2h0.2c0.7,0,3.1-0.1,3.5,0c0.6,0.2,1.3,0.3,1.9,0.4
				h0.1v0.1c0.1,1.3,0.2,2.6,0.2,3.8l0,0c-0.1,1-0.3,1.9-0.6,2.8L168.6,186z M163.8,183.7C163.8,183.7,163.9,183.7,163.8,183.7
				c0.5,0.1,2.2,0.8,4.3,1.6l0.3,0.1c0.3-0.8,0.5-1.6,0.6-2.5c0-1.2-0.1-2.4-0.2-3.6c-0.6-0.1-1.2-0.2-1.8-0.4c-0.3,0-1.8,0-3.2,0
				c0,0.8,0,1.1-0.2,1.2c-0.1,0.1-0.2,0.6-0.1,1c0,0.2,0.1,0.4,0.2,0.5C163.7,181.8,163.8,182.1,163.8,183.7z"/>
		</g>
		<g>
			<path class="st12" d="M138.2,202.8c0,0.3-0.1,0.6-0.1,0.9l0,0c-1.9,0.3-4.5,0.6-8,1c-3.4,0.4-7.7,1.2-12.1,2
				c-0.1-0.5-0.1-1-0.1-1.2c-0.2-1.8-0.4-9.4-1.2-14.4l21.5-6.7C138.3,191.4,138.4,200.5,138.2,202.8z"/>
			<path class="st9" d="M117.9,207v-0.2c-0.1-0.5-0.1-1-0.1-1.2c-0.1-0.5-0.1-1.5-0.2-2.7c-0.2-3.2-0.4-8.1-1.1-11.7v-0.1l21.8-6.8
				v0.2c0.1,6.8,0.3,16.1,0.1,18.4c0,0.2-0.1,0.5-0.1,1v0.1h-0.1c-2,0.3-4.7,0.6-8,1c-3.2,0.4-7.2,1.1-12,2H117.9z M116.8,191.3
				c0.6,3.6,0.9,8.4,1,11.6c0.1,1.2,0.1,2.2,0.2,2.7c0,0.2,0.1,0.6,0.1,1c4.8-0.9,8.8-1.6,11.9-2c3.3-0.4,5.8-0.7,7.9-1
				c0.1-0.3,0.1-0.6,0.1-0.8l0,0c0.2-2.3,0.1-11.3-0.1-18.1L116.8,191.3z"/>
		</g>
		<g>
			<path class="st12" d="M138.1,184.5l-21.5,6.7c-0.2-1.2-0.5-2.4-1-3.6c-1.7-3.6-6-12.2-6-13.1c0-0.1,0-0.1,0-0.2
				c2-0.3,2.7-0.7,3.2-1.3c0.6-0.7,1.4-2,2.5-2s2.4,1.7,3.2,1.7c0.6,0,2.2-0.1,3.2-0.2c0.4,0.5,0.9,0.9,1.4,1.2
				c3.5,1.7,3.1,1.3,4.4,0.4s2.5-2,4.5-0.7c1.9,1.2,1.7,1.3,2,1c0.2-0.3,0.9-1,1.9,0.3c0.9,1.1,1.4,3.6,2.1,3.8
				C138,180.1,138,182.2,138.1,184.5z"/>
			<path class="st9" d="M116.5,191.4v-0.2c-0.2-1.2-0.5-2.4-1-3.5c-0.4-0.8-0.9-1.9-1.5-3.1c-2.6-5.3-4.6-9.4-4.6-10.1v-0.1v-0.2
				h0.2c2.1-0.3,2.7-0.8,3.1-1.2c0.1-0.1,0.2-0.2,0.3-0.3c0.6-0.7,1.3-1.7,2.3-1.7c0.6,0,1.3,0.5,1.9,1c0.5,0.4,1,0.8,1.3,0.8
				c0.6,0,2.3-0.1,3.2-0.2h0.1l0.1,0.1c0.4,0.5,0.8,0.9,1.3,1.2c2.9,1.4,3,1.3,3.7,0.7c0.1-0.1,0.3-0.2,0.4-0.3l0.1-0.1
				c1.2-0.9,2.6-1.9,4.5-0.6c0.6,0.4,1,0.7,1.3,0.9c0.2,0.1,0.3,0.2,0.4,0.2l0,0v-0.1c0.1-0.1,0.4-0.5,0.9-0.5
				c0.4,0,0.8,0.3,1.2,0.8s0.8,1.4,1.1,2.1c0.3,0.7,0.7,1.6,0.9,1.7h0.1v1.2c0,1.3,0.1,3,0.1,4.7v0.1h-0.1L116.5,191.4z
				 M109.8,174.5L109.8,174.5c0,0.7,2.7,6.3,4.5,10c0.6,1.2,1.1,2.3,1.5,3.1c0.5,1.1,0.8,2.3,0.9,3.4l21.2-6.6
				c0-1.7-0.1-3.3-0.1-4.6v-1c-0.4-0.2-0.7-0.9-1-1.8c-0.3-0.7-0.6-1.5-1-2c-0.4-0.4-0.7-0.7-1-0.7c-0.2,0-0.4,0.1-0.7,0.4l0,0
				c-0.2,0.3-0.3,0.2-0.8-0.1c-0.3-0.2-0.7-0.5-1.3-0.9c-1.8-1.1-3-0.2-4.2,0.6l-0.1,0.1c-0.2,0.1-0.3,0.2-0.4,0.3
				c-0.8,0.7-1.1,0.8-4.1-0.7c-0.5-0.3-1-0.7-1.4-1.2c-1.2,0.1-2.6,0.2-3.2,0.2c-0.5,0-1-0.4-1.5-0.8c-0.6-0.5-1.2-0.9-1.7-0.9
				c-0.8,0-1.5,0.9-2.1,1.5c-0.1,0.1-0.2,0.2-0.3,0.4C112.4,173.8,111.7,174.2,109.8,174.5z"/>
		</g>
		<g>
			<path class="st12" d="M152.6,189.6c0,0-3.4,5.7-5.9,9.6c-1.2,1.9-2.2,3.3-2.6,3.4c-0.7,0.2-1,0.4-6,1.1l0,0
				c0.1-0.4,0.1-0.7,0.1-0.9c0.2-2.3,0.1-11.4-0.1-18.3c-0.1-2.3-0.1-4.3-0.2-5.8c0.1,0,0.2,0,0.2,0c0.8-0.5,1.7-1.5,3.1-1
				c1.2,0.4,2.3,0.4,3.4-0.5c1,1.6,1.9,3.1,2.8,4.5C150.4,186.2,152.6,189.6,152.6,189.6z"/>
			<path class="st9" d="M137.9,203.9v-0.2c0.1-0.4,0.1-0.7,0.1-0.9c0.2-1.8,0.1-7.9-0.1-18.3c-0.1-2.3-0.1-4.3-0.2-5.8v-0.2h0.2h0.1
				c0.1-0.1,0.3-0.2,0.4-0.3c0.7-0.5,1.6-1.1,2.8-0.7c1.3,0.5,2.2,0.3,3.2-0.5l0.1-0.1l0.1,0.2c1,1.6,1.9,3.1,2.8,4.5
				c2.8,4.5,5,7.9,5,8l0.1,0.1l-0.1,0.1c0,0.1-3.4,5.8-5.9,9.6c-1.9,2.9-2.4,3.4-2.7,3.5l-0.2,0.1c-0.7,0.2-1.2,0.4-5.9,1
				L137.9,203.9z M138.1,178.8c0,1.5,0.1,3.4,0.1,5.6c0.2,10.4,0.3,16.6,0.1,18.4c0,0.2,0,0.4-0.1,0.7c4.4-0.6,5-0.8,5.6-1l0.2-0.1
				c0.1,0,0.6-0.4,2.5-3.3c2.3-3.6,5.4-8.8,5.8-9.5c-0.4-0.6-2.4-3.8-4.9-7.9c-0.9-1.4-1.8-2.9-2.7-4.4c-1,0.8-2.1,0.9-3.4,0.4
				c-1.1-0.4-1.8,0.2-2.5,0.6c-0.2,0.1-0.3,0.2-0.5,0.3C138.2,178.8,138.2,178.8,138.1,178.8z"/>
		</g>
		<g>
			<path class="st12" d="M144.7,177.1c-1.1,0.9-2.2,1-3.4,0.5c-1.4-0.5-2.3,0.5-3.1,1c-0.1,0-0.2,0.1-0.2,0
				c-0.7-0.2-1.2-2.7-2.1-3.8c-1-1.3-1.7-0.6-1.9-0.3s0,0.2-2-1s-3.3-0.2-4.5,0.7s-0.9,1.3-4.4-0.4c-0.5-0.3-1-0.7-1.4-1.2
				c-2.7-3.2-6.3-11.3-7.8-15.1l0.3-0.1l16.3-9.9l3.6,6.6l2.6,4.8c-1.8,0-1.9,0.7-1.9,1.7C134.9,161.3,140,169.6,144.7,177.1z"/>
			<path class="st9" d="M138,178.8h-0.1c-0.4-0.1-0.8-0.9-1.2-1.9c-0.3-0.7-0.6-1.5-1-2c-0.4-0.4-0.7-0.7-1-0.7l0,0
				c-0.2,0-0.4,0.1-0.7,0.4l0,0c-0.2,0.3-0.3,0.2-0.8-0.1c-0.3-0.2-0.7-0.5-1.3-0.9c-1.8-1.1-3-0.2-4.2,0.6l-0.1,0.1
				c-0.2,0.1-0.3,0.2-0.4,0.3c-0.8,0.7-1.1,0.8-4.1-0.7c-0.6-0.3-1.1-0.8-1.5-1.3c-2.8-3.3-6.4-11.7-7.9-15.1l-0.1-0.2l0.5-0.1
				l16.4-9.9l6.4,11.8h-0.3c-1.6,0-1.7,0.6-1.7,1.5c0,0.3,1.8,3.4,9.8,16.3l0.1,0.1l-0.1,0.1c-1.1,0.9-2.2,1-3.5,0.5
				c-1.1-0.4-1.8,0.2-2.5,0.6c-0.2,0.1-0.3,0.2-0.5,0.3C138.2,178.8,138.1,178.8,138,178.8z M134.7,173.9L134.7,173.9
				c0.4,0,0.8,0.3,1.3,0.8c0.4,0.5,0.8,1.4,1.1,2.1c0.3,0.7,0.7,1.6,0.9,1.7h0.1c0.1-0.1,0.3-0.2,0.4-0.3c0.7-0.5,1.6-1.1,2.8-0.7
				c1.2,0.4,2.2,0.3,3.1-0.4c-8.7-13.9-9.8-16-9.8-16.4c0-1,0.1-1.8,1.8-1.8l-6-11l-16.2,9.8H114c1.5,3.6,5,11.7,7.7,14.9
				c0.4,0.5,0.8,0.9,1.4,1.2c2.9,1.4,3,1.3,3.7,0.7c0.1-0.1,0.3-0.2,0.4-0.3l0.1-0.1c1.2-0.9,2.6-1.9,4.5-0.6
				c0.7,0.4,1.1,0.7,1.3,0.9c0.2,0.1,0.3,0.2,0.4,0.2l0,0v-0.1C134.1,174.1,134.4,173.9,134.7,173.9z"/>
		</g>
		<g>
			<path class="st12" d="M151.9,159.1c-3.1,0-13.3,0-14.9,0h-0.2l-2.6-4.8c3-0.8,9-2.4,15-3.7h0.2
				C149.8,152.3,150.8,156.7,151.9,159.1z"/>
			<path class="st9" d="M140.9,159.3c-1.9,0-3.4,0-3.9,0h-0.3l-2.7-5.1l0.2-0.1c3.8-1,9.5-2.5,15-3.7l0.4-0.1v0.2
				c0.4,1.8,1.4,6.2,2.5,8.5l0.1,0.2h-0.3c-0.9,0-2.4,0-4,0C145.7,159.3,143,159.3,140.9,159.3z M136.9,158.9h0.1
				c1.2,0,6.8,0,10.9,0c1.5,0,2.9,0,3.8,0c-1-2.3-2-6.4-2.4-8.2l0,0c-5.4,1.2-11,2.6-14.8,3.7L136.9,158.9z"/>
		</g>
		<g>
			<path class="st12" d="M170.5,154.6L170.5,154.6c-2-0.2-5.7-0.6-7.9-0.8c-1.1-0.1-1.8-0.2-1.9-0.2c-0.3-0.1-0.1-4.9,0-6.9
				c0-0.1,0-0.1,0-0.2c2.2,0.2,8.3,1.4,10.6,1.8c0.1,0.5,0.2,1.1,0.3,1.7C172,152.6,170.8,152.9,170.5,154.6z"/>
			<path class="st9" d="M170.7,154.9h-0.2c-2-0.2-5.6-0.6-7.9-0.8c-0.8-0.1-1.8-0.2-1.9-0.2c-0.2,0-0.4-0.1-0.2-7.1v-0.3h0.2
				c2.2,0.2,8.1,1.3,10.6,1.8h0.1v0.1c0.1,0.3,0.1,0.6,0.2,0.9c0,0.3,0.1,0.5,0.1,0.8c0.3,1.7-0.1,2.4-0.5,3.2
				c-0.2,0.4-0.5,0.8-0.6,1.4L170.7,154.9L170.7,154.9z M160.8,153.5c0.2,0,0.7,0.1,1.8,0.2c2.2,0.2,5.7,0.6,7.7,0.8
				c0.1-0.6,0.4-1,0.6-1.4c0.4-0.7,0.8-1.4,0.5-3c0-0.3-0.1-0.5-0.1-0.8s-0.1-0.5-0.1-0.8c-2.5-0.5-8-1.5-10.3-1.8
				C160.7,151.2,160.8,153.1,160.8,153.5z"/>
		</g>
		<g>
			<path class="st12" d="M158.2,167.7c-0.3,0.4-0.6,0.8-0.9,1.2c-0.2,0.3-0.5,3.8-0.7,7.1c-0.2,2.4-0.3,4.8-0.4,5.9h-0.1
				c-0.4,0-6.7-0.2-8.5-0.3c-0.9-1.4-1.9-3-2.8-4.5c-4.7-7.6-9.8-15.9-9.8-16.4c0-0.9,0.1-1.7,1.9-1.7h0.2c1.6,0,11.8,0,14.9,0
				c0.2,0.4,0.4,0.8,0.6,1.1C153.6,161.6,156.3,164.9,158.2,167.7z"/>
			<path class="st9" d="M156.3,182.2l-0.2-0.1c0,0,0,0-0.1,0c-0.4,0-7.2-0.2-8.5-0.3h-0.1v-0.1c-0.9-1.4-1.9-3-2.8-4.5
				c-9.9-15.8-9.9-16.3-9.9-16.5c0-1,0.2-1.8,2-1.8h0.2c1.2,0,6.8,0,10.9,0c1.7,0,3.1,0,4,0h0.1v0.1c0.2,0.4,0.4,0.7,0.6,1.1
				c1.2,1.4,3.8,4.8,5.7,7.5l0.1,0.1l-0.1,0.1c-0.3,0.4-0.6,0.8-0.9,1.2c0,0.1-0.2,0.9-0.7,7.1c-0.1,1.6-0.2,3.1-0.3,4.3
				c0,0.7-0.1,1.2-0.1,1.6L156.3,182.2z M147.6,181.5c2.2,0.1,7.8,0.3,8.4,0.3c0-0.4,0.1-0.9,0.1-1.4c0.1-1.2,0.2-2.7,0.3-4.3
				c0.5-6.7,0.7-7.1,0.7-7.2c0.2-0.4,0.5-0.8,0.8-1.2c-1.9-2.7-4.5-6-5.6-7.4c-0.3-0.3-0.5-0.7-0.6-1.1c-0.9,0-2.3,0-3.9,0
				c-4.1,0-9.7,0-10.9,0h-0.2c-1.6,0-1.7,0.6-1.7,1.5c0,0.3,1.4,2.8,9.8,16.3C145.8,178.6,146.8,180.1,147.6,181.5z"/>
		</g>
		<g>
			<path class="st12" d="M163.1,163.8c-2.6,1.7-4.1,3-4.9,3.9c-1.9-2.8-4.6-6.1-5.7-7.5c-0.3-0.3-0.5-0.7-0.6-1.1
				c-1.1-2.3-2.1-6.8-2.5-8.5c8.2-1.8,8.8-4.1,11.2-4l0,0l0.2,0.2c-0.1,2-0.2,6.8,0,6.9c0.1,0,0.8,0.1,1.9,0.2L163.1,163.8z"/>
			<path class="st9" d="M158.2,168l-0.1-0.2c-2-2.9-4.9-6.5-5.7-7.5c-0.3-0.4-0.5-0.7-0.7-1.1c-1.1-2.4-2.1-6.8-2.5-8.6v-0.2h0.2
				c4.7-1,6.9-2.3,8.3-3.1c1.1-0.6,1.8-1,2.9-0.9h0.1l0.3,0.3v0.1c-0.2,4.4-0.1,6.3,0,6.7c0.1,0,0.2,0,0.4,0c0.3,0,0.8,0.1,1.4,0.2
				h0.1l0.5,10.2l-0.1,0.1c-2.2,1.4-3.8,2.7-4.9,3.8L158.2,168z M149.5,150.7c0.4,1.9,1.4,6.1,2.5,8.4c0.2,0.4,0.4,0.7,0.6,1.1
				c0.8,1,3.6,4.4,5.6,7.3c1.1-1.2,2.7-2.4,4.7-3.7l-0.5-9.7c-0.5-0.1-0.9-0.1-1.2-0.1c-0.2,0-0.4-0.1-0.5-0.1l0,0
				c-0.2,0-0.4-0.1-0.2-7l-0.1-0.1c-0.9,0-1.6,0.3-2.7,0.9C156.3,148.4,154.1,149.6,149.5,150.7z"/>
		</g>
		<g>
			<path class="st12" d="M159.5,169.8L159.5,169.8c0,0.1-0.1,0.2-0.1,0.3c-0.1,0.6-0.2,1.7-0.3,3.1c-0.1,0.8-0.1,1.8-0.2,2.7
				l-2.4,0.1c0.3-3.3,0.6-6.8,0.7-7.1c0.2-0.4,0.5-0.9,0.9-1.2C158.7,168.4,159.2,169.1,159.5,169.8z"/>
			<path class="st9" d="M156.4,176.2V176c0.5-6.7,0.7-7.1,0.7-7.2c0.2-0.5,0.6-0.9,0.9-1.3l0.1-0.2l0.1,0.2c0.5,0.7,0.9,1.4,1.3,2.1
				v0.1v0.1c0,0.1-0.1,0.2-0.1,0.3c-0.1,0.5-0.2,1.5-0.3,3.1c-0.1,0.8-0.1,1.8-0.2,2.7v0.2L156.4,176.2z M158.2,167.9
				c-0.3,0.3-0.5,0.7-0.7,1c-0.1,0.1-0.2,1-0.7,6.9l2.1-0.1c0.1-0.9,0.1-1.8,0.2-2.6c0.1-1.7,0.2-2.7,0.3-3.2c0-0.1,0-0.2,0.1-0.3
				C159,169.2,158.6,168.5,158.2,167.9z"/>
		</g>
		<g>
			<path class="st12" d="M164,172.7c-0.4,0.1-1,0.2-1.4,0.4c-0.5,0.2-2.6,0.2-3.4,0.2c0.1-1.4,0.2-2.6,0.3-3.1l0.2-0.1
				c0.8-0.4,2-1,2.3-1.1c0.4-0.2,0.1,1.1,0,1.6s0.7,0.1,1.4-0.2c0.2-0.1,0.4-0.2,0.6-0.3C164.1,170.9,164.1,171.8,164,172.7z"/>
			<path class="st9" d="M160,173.4c-0.4,0-0.7,0-0.8,0H159v-0.2c0.1-1.7,0.2-2.7,0.3-3.2v-0.1l0.3-0.1c1.3-0.6,2.1-1,2.4-1.1
				c0.2-0.1,0.3,0,0.3,0c0.2,0.2,0.1,0.7,0,1.4c0,0.1,0,0.2-0.1,0.3l0,0c0.1,0.1,0.8-0.2,1.1-0.4h0.1c0.2-0.1,0.4-0.2,0.5-0.3
				l0.2-0.1v0.3c0.1,0.9,0.1,1.8,0,2.8v0.1H164c-0.4,0.1-1,0.2-1.4,0.4C162.2,173.4,160.9,173.4,160,173.4z M159.4,173.1
				c1.1,0,2.8,0,3.2-0.1s0.9-0.2,1.3-0.3c0.1-0.8,0.1-1.5,0-2.3c-0.1,0.1-0.2,0.1-0.3,0.2h-0.1c-0.8,0.3-1.2,0.5-1.5,0.3
				c-0.1-0.1-0.1-0.2-0.1-0.3s0-0.2,0.1-0.3c0.1-0.3,0.2-0.9,0.1-1.1c-0.3,0.1-1.1,0.5-2.3,1.1l-0.1,0.1
				C159.5,170.7,159.5,171.6,159.4,173.1z"/>
		</g>
		<g>
			<path class="st12" d="M163.6,183.9c-1,0-3.7,0.2-4.2,0c-0.3-0.1-0.6-0.3-0.8-0.5c0-0.6,0.1-1.3,0.1-2.2h4.6
				c0,0.2,0.1,0.4,0.2,0.6C163.6,182.1,163.6,183.1,163.6,183.9z"/>
			<path class="st9" d="M160.5,184.2c-0.5,0-0.9,0-1.1-0.1c-0.3-0.1-0.6-0.3-0.9-0.5l-0.1-0.1v-0.1c0-0.6,0.1-1.3,0.1-2.2V181h4.9
				v0.1c0,0.2,0.1,0.3,0.2,0.5c0.1,0.1,0.2,0.3,0.2,2.2v0.2h-0.2c-0.3,0-0.9,0-1.4,0C161.5,184.2,160.9,184.2,160.5,184.2z
				 M158.7,183.3c0.2,0.2,0.5,0.3,0.7,0.4c0.3,0.1,1.7,0.1,2.7,0c0.5,0,0.9,0,1.3,0c0-1.5-0.1-1.8-0.2-1.9c-0.1-0.2-0.1-0.3-0.2-0.5
				h-4.3C158.8,182.2,158.8,182.8,158.7,183.3z"/>
		</g>
		<g>
			<path class="st12" d="M159,176c-0.1,1.8-0.2,3.7-0.3,5.3c0,0.9-0.1,1.6-0.1,2.2c-0.8-0.5-1.9-1.3-2.4-1.4
				c0.1-1.1,0.2-3.5,0.4-5.9L159,176z"/>
			<path class="st9" d="M158.7,183.7l-0.2-0.2c-0.2-0.1-0.4-0.2-0.6-0.4c-0.7-0.4-1.4-0.9-1.8-1H156V182c0.1-1.1,0.2-3.4,0.4-5.9
				V176l2.7-0.1v0.2c-0.1,1.5-0.2,3.2-0.3,5.3c0,0.9-0.1,1.6-0.1,2.2L158.7,183.7z M156.4,181.9c0.4,0.2,1.1,0.6,1.7,1
				c0.1,0.1,0.2,0.1,0.3,0.2c0-0.5,0.1-1.2,0.1-1.9c0.1-2,0.2-3.7,0.3-5.1l-2.1,0.1C156.6,178.6,156.4,180.8,156.4,181.9z"/>
		</g>
		<g>
			<path class="st12" d="M163.8,173.7c-0.4,1.1-0.3,3.6-0.3,5.1c0,0.7,0,1.1-0.1,1.2c-0.2,0.2-0.3,0.7-0.2,1.2h-4.6
				c0.1-1.5,0.2-3.5,0.3-5.3c0.1-1,0.1-1.9,0.2-2.7c0.8,0,2.9,0,3.4-0.2c0.4-0.1,1-0.3,1.4-0.4C164,173.1,163.9,173.4,163.8,173.7z"
				/>
			<path class="st9" d="M163.5,181.4h-4.9v-0.2c0.1-2.1,0.2-3.8,0.3-5.3c0.1-1,0.1-1.9,0.2-2.7V173h0.4c0.9,0,2.7,0,3.2-0.1
				c0.4-0.1,0.9-0.3,1.4-0.4l0.2-0.1v0.2c0,0.3-0.1,0.7-0.2,1l0,0c-0.3,0.9-0.3,2.7-0.3,4.2c0,0.3,0,0.6,0,0.9c0,1-0.1,1.2-0.2,1.3
				c-0.1,0.1-0.2,0.6-0.1,1L163.5,181.4z M158.9,181.1h4.2c0-0.4,0-0.9,0.3-1.1c0,0,0.1-0.3,0.1-1.1c0-0.3,0-0.6,0-0.9
				c0-1.5,0-3.3,0.3-4.3c0.1-0.2,0.1-0.5,0.2-0.7c-0.4,0.1-0.9,0.2-1.2,0.3c-0.5,0.2-1.9,0.2-3.3,0.2h-0.1c-0.1,0.8-0.1,1.7-0.2,2.5
				C159.1,177.4,159,179.1,158.9,181.1z"/>
		</g>
	</g>
</g>
<g>
	<g>
		<path class="st6" d="M1044.1-10.4L1044.1-10.4v-0.2c0.4-1.7,1.1-3.5,2.1-5c3.5-5.6,4.6-12.5,3.2-19l-0.6-3.4
			c-0.2-1.6-0.6-3-0.8-4.5l0,0c-1.8-10.1-3.4-17.7-6-24.5c-4.2-11.7-7.9-23.6-10.9-35.6c-1.4-6.8-2.5-20.4-2.5-20.5
			c-0.2-3.7-3.5-6.6-7.2-6.3c-2.3,0.2-4.4,1.4-5.5,3.4c-3.2,5.4-8,10.9-10.1,11.6c-2.9,1-13.4,1.4-19.1,1.6
			c-7.7,0.3-10.5,0.4-12.4,1.6c-2,0.3-4,0.4-6,0.2c-3.7-1-27.9-2.6-36.3,0.6c-2.6,1-4.8,2.1-6.7,2.9l0,0l-1.7,0.9
			c-1.1,0.6-2.2,1.2-3.4,1.7c-12,1.7-24.1,2.5-36.2,2.8l0,0l-3.2,0.1c-20.2,0.5-32.4-2-34.3-2.6c-0.2-0.1-0.6-0.2-1-0.4
			c-4.3-1.9-15.8-7-29.2-4.6h-0.1h-0.3h-0.2l-1.1,0.2c-14.7,3.2-22.7,6.9-24.6,8c-2.9,1.2-24.3,8.3-33.2,10.8
			c-2.1-3.7-5.6-10.5-7.8-14.9c-6.6-13-7.8-15.2-10.1-16.7c-2.3-1.5-17.4-6.9-21.9-8.5c-21.9-7.6-22.8-7.2-25.7-5.4
			c-2,1.1-2.5,2.1-8.1,11.4c-4.8,8-17.4,29.2-21.9,32.1c-2.5,1-13.5,5.2-26.1,10c-15.8,6-35.5,13.6-51.4,19.7
			c-8.7,3.4-15.3,6-19.9,8c-2.6,1.1-4.6,1.9-6,2.5c-2.1,1-6.9,3.2-5.9,8.5c0.4,2.3,0.9,2.9,8.5,11.3c8,8.8,22.7,25.2,27.4,33.8
			c2.4,4.5,7.2,15.2,13.3,30.3l0,0c4.8,11.9,10.3,25.9,15.1,38.6l0,0c4.1,10.7,7.3,19.7,9.1,25.1c3.3,10.1,14.7,46.4,32.8,104.9l0,0
			l8,26.1l9.6,33.5l0,0l40,138.6c0.8,2.9,3.5,4.9,6.5,4.9c0.2,0,0.6,0,0.8,0l82.8-10h0.3l0.6-0.1h0.1l60.2-10.5l0,0l0.9-0.2l0.5-0.1
			l69.3-17.4c2.4-0.6,4.3-2.5,4.9-4.8c2.5-9.6,9-26.6,15.3-31.1c0.5-0.3,0.9-0.7,1.3-1.2c0,0,0.4-0.5,1.1-1.4l0,0
			c18.7-22.6,18.9-27.6,19-29.7v-1.4c0.6-23.2,3.7-30.6,5.4-32.9l0.6-0.8l0,0c4.7-6.6,7.9-14.2,9.4-22.2c1.7-8.7,2.7-14.9,3.2-17.6
			l0,0l0,0l0.3-1.7c0-0.2,0-0.3,0-0.5c1.6-13.2,5.2-26.1,10.6-38.2c3.7-7.6,8.2-14.8,13.7-21.3c3.4-4.3,6.4-8,8-12.6
			c0.7-2.1,1.6-4.2,2.3-6.3c0.5-1.2,1-2.4,1.4-3.6l0,0c2-4.8,3.2-9.9,3.4-15.2c0-4.5-0.1-10.6-0.8-18.6l0,0
			c-0.7-7.9-1.8-15.7-3.3-23.5c-1.7-10.3-4.5-20.3-8.3-30l0,0l0,0c-0.6-1.4-1-2.5-1.4-3.7c-0.5-1-0.8-2.1-0.8-3.2
			c0,0,0.4-0.7,2.5-1.9c6.7-3.7,15.2-11.2,19.2-21l0,0c0.9-2.1,1.5-4.4,1.9-6.7c0.8-5.6,0.3-11.3-1.4-16.7
			C1044.1-6.2,1043.7-8.2,1044.1-10.4z"/>
	</g>
	<g>
		<path class="st12" d="M807,73.6c-4.8,0.3-12.6,0.8-15.3,0.8c-4.1,0-10.1-8.3-15.3-8.3s-9,6.1-11.7,9.2c-2.2,2.5-5.5,4.8-15.1,6
			c-2.1,0.2-4.4,0.5-7.1,0.6c-15.3,1-20.4-6-29.1-7.7s-9.1,1.4-15,2.7c-5.9,1.3-10-6.8-25.8-14.5c-15.7-7.7-14.1-2.5-21.1-0.9
			c-7,1.7-17.8-8.6-19.3-8.2c-1,0.2-5.8,8-9.5,14.1c-4.6-12.2-10.1-26.3-15.2-38.7c9.3-1.3,30.3-4.4,67.3-10.5
			c46.8-7.7,86.6-14.6,95-16.1C777.2,19.9,794.1,58.3,807,73.6z"/>
		<path class="st9" d="M739.8,82.8c-8.3,0-13.6-2.5-18.2-4.7c-2.8-1.3-5.3-2.5-8.3-3.1c-5.6-1-7.5-0.2-9.9,1
			c-1.3,0.6-2.7,1.3-4.8,1.7c-3.5,0.8-6.4-1.4-10.7-4.7c-3.5-2.7-8.3-6.4-15.6-9.9c-11.2-5.4-13.2-4.3-16.1-2.7
			c-1.1,0.6-2.5,1.4-4.5,1.8c-5.1,1.2-11.7-3.3-16.1-6.2c-1.3-0.9-2.7-1.8-3.3-2c-0.5,0.5-2.4,2.8-9,13.7l-0.9,1.4l-0.6-1.5
			c-4.8-12.6-10.3-26.7-15.2-38.7l-0.4-1l1-0.2c9.2-1.3,30.2-4.4,67.3-10.5c49.2-8.1,90.5-15.3,95-16.1l0.6-0.1l0.2,0.6
			c6.8,16.3,24,55.9,37,71.2l1,1.2l-1.6,0.1c-5.3,0.3-12.6,0.8-15.3,0.8c-2.1,0-4.6-1.9-7.2-3.9c-2.8-2.1-5.6-4.4-8-4.4
			c-3.9,0-7.2,4.1-9.5,7.2c-0.6,0.6-1,1.3-1.5,1.8c-2.5,2.9-6.1,5-15.6,6.3c-2.1,0.2-4.5,0.5-7.2,0.6
			C741.6,82.8,740.7,82.8,739.8,82.8z M709,73c1.3,0,2.8,0.2,4.6,0.5c3.2,0.6,5.9,1.9,8.7,3.3c4.9,2.4,10.6,5,20.2,4.5
			c2.6-0.2,5-0.4,7-0.6c10-1.4,12.8-3.7,14.6-5.8c0.5-0.5,1-1.1,1.4-1.7c2.6-3.3,6.2-7.7,10.8-7.7c3,0,6,2.4,9,4.7
			c2.3,1.7,4.6,3.6,6.3,3.6c2.5,0,9.9-0.4,13.7-0.7c-12.8-16.1-29.2-53.6-35.9-69.8c-6.8,1.2-47,8.2-94.4,16
			c-35.7,5.9-56.6,9-66.3,10.3c4.6,11.3,9.8,24.3,14.2,36.3c7.8-12.7,8.6-13,9.1-13c0.8-0.2,1.8,0.4,4.5,2.3c3.9,2.6,10.4,7,14.8,6
			c1.7-0.4,2.9-1,4.1-1.7c3.6-2,6.2-2.9,17.6,2.6c7.4,3.6,12.3,7.3,15.9,10c4.1,3.1,6.6,5,9.4,4.4c1.9-0.4,3.2-1,4.5-1.6
			C704.5,73.7,706.2,73,709,73z"/>
	</g>
	<g>
		<path class="st12" d="M848.6-44.8l-77,46.7l-1.6,0.3c-8.4,1.5-48.2,8.4-95,16.1c-37,6.1-58,9.2-67.3,10.5
			C602,14.9,596.8,3,594-2.2c-7.6-13.7-35.1-41.7-35.4-43.1c-0.2-1.4,97.9-38.2,105.4-41.4c7.6-3.3,29-42.9,30.5-43.9
			c1.5-1,38.3,12.4,40.5,13.8c2.1,1.4,16.5,33.6,19,33.6s36.9-11.4,38.6-12.3c1.7-1,9.2-4.4,23.1-7.4c0.3-0.1,0.7-0.2,1-0.2
			L848.6-44.8z"/>
		<path class="st9" d="M607.1,29.6l-0.2-0.6c-4.5-10.9-10.3-25-13.6-30.9c-5-9.2-19.5-25.2-28.1-34.8c-6.2-6.8-7.1-7.9-7.2-8.5
			c-0.2-1.1-0.2-1.6,79.5-32c13.5-5.2,24.2-9.2,26.5-10.2c5.1-2.1,17.7-23.2,24.5-34.5c4.4-7.2,5.4-9,6-9.3
			c2.5-1.4,41,13.7,41.3,13.8c1,0.6,3.1,4.6,8,14.2c3.7,7.3,9.3,18.4,10.7,19.2c2.1,0,36.3-11.3,38.2-12.2c0.8-0.4,8.3-4.2,23.4-7.5
			c0.4-0.1,0.8-0.2,1.1-0.2l0.6-0.1l32.1,59.3l-78,47.1l-1.6,0.3c-1.7,0.3-43.9,7.7-95,16.1c-37.1,6.1-58,9.2-67.3,10.5L607.1,29.6z
			 M559.7-45.1c0.9,1,3.7,4.1,6.5,7.3c8.7,9.6,23.3,25.8,28.5,35.1c3.2,5.9,9,19.7,13.4,30.5c9.5-1.4,30.5-4.5,66.6-10.4
			C725.9,9,768,1.6,769.8,1.3l1.4-0.2l76.3-46.2l-30.8-57.1c-0.2,0-0.3,0.1-0.5,0.1c-14.8,3.2-22.2,6.9-23,7.3
			c-1.6,0.8-36.3,12.4-39,12.4c-1.7,0-4.3-4.8-12-20c-3.1-6.1-6.6-13-7.4-13.7c-2.3-1.5-36.4-13.7-39.8-13.8
			c-0.6,0.6-2.9,4.5-5.4,8.7c-9.9,16.6-20,33-25.2,35.1c-2.3,1-13,5-26.5,10.2C610.4-65.2,565.1-48,559.7-45.1z"/>
	</g>
	<g>
		<path class="st12" d="M782.7,161L665,197.9c-10.6-34.2-28.3-91.3-32.9-105c-1.9-5.7-5.2-14.9-9.2-25.4c3.7-6,8.6-13.8,9.5-14.1
			c1.6-0.4,12.5,9.9,19.3,8.2c6.8-1.7,5.2-6.8,21.1,0.9s19.9,15.7,25.8,14.5c5.9-1.3,6.4-4.4,15-2.7c8.7,1.7,13.8,8.6,29.1,7.7
			c2.7-0.2,5-0.4,7.1-0.6c0.1,0.3,0.1,0.6,0.1,0.9c0,4.2,20.4,45,28.5,61.9C780.4,149.6,781.9,155.2,782.7,161z"/>
		<path class="st9" d="M664.4,199l-0.2-0.8c-6.4-20.8-27.7-89.6-32.9-105c-1.9-5.7-5.2-14.9-9.2-25.3l-0.2-0.4l0.2-0.3
			c8.5-14.1,9.5-14.3,9.9-14.5c0.8-0.2,1.8,0.5,4.6,2.3c3.9,2.6,10.4,6.9,14.7,5.9c1.7-0.4,2.9-1,4-1.7c3.6-2,6.2-2.9,17.6,2.6
			c7.4,3.6,12.2,7.3,15.9,10c4.1,3.1,6.6,5,9.4,4.4c1.9-0.4,3.2-1,4.5-1.6c2.6-1.2,4.8-2.2,10.9-1.1c3.2,0.6,5.9,1.9,8.7,3.3
			c4.9,2.4,10.6,5,20.2,4.5c2.6-0.2,5-0.4,7-0.6l0.7-0.1l0.2,0.7c0.1,0.3,0.2,0.7,0.2,1.1c0,3.2,13.4,30.8,22.3,49.1
			c2.3,4.8,4.5,9.1,6,12.5c2.2,5.5,3.7,11.2,4.5,17l0.1,0.6l-0.6,0.2L664.4,199z M623.6,67.6c3.9,10.3,7.2,19.3,9.1,25
			c5.1,15.3,26,82.7,32.7,104.3l116.4-36.5c-0.8-5.5-2.2-10.8-4.3-16c-1.6-3.3-3.7-7.6-6-12.5C759.2,106.7,749,85.5,749,82.2l0,0
			c-1.8,0.2-4,0.4-6.4,0.6c-10.1,0.6-15.9-2.1-21-4.6c-2.7-1.3-5.3-2.5-8.3-3.1c-5.5-1-7.5-0.2-9.9,1c-1.3,0.6-2.7,1.3-4.8,1.7
			c-3.5,0.8-6.4-1.4-10.7-4.7c-3.5-2.7-8.3-6.4-15.6-9.9c-11.2-5.5-13.2-4.3-16.1-2.7c-1.1,0.6-2.5,1.4-4.4,1.8
			c-5,1.2-11.6-3.2-16-6.1c-1.3-0.9-2.8-1.8-3.3-2.1C632.1,54.7,630.2,56.8,623.6,67.6z"/>
	</g>
	<g>
		<path class="st12" d="M789.2,234.8c-41.8,8-86.2,18-106.5,22.8l-9.6-33.5c0,0-3.3-10.7-8.1-26.2L782.7,161
			c4.1,23.8,5,59.5,5.9,68.1C788.7,230.3,788.8,232.2,789.2,234.8z"/>
		<path class="st9" d="M682.1,258.6l-9.9-34.2l0,0c0,0-3.3-10.7-8.1-26.2l-0.2-0.7l119.4-37.4l0.2,0.9c2.9,17.2,4.2,40.2,5.1,55.5
			c0.3,5.7,0.6,10.3,0.8,12.6c0.1,1.1,0.3,3.1,0.6,5.6l0.1,0.7l-0.7,0.2c-43.3,8.3-88.9,18.8-106.5,22.8L682.1,258.6z M665.9,198.5
			c4.7,15,7.9,25.4,7.9,25.4l9.5,32.8c18-4.2,62.6-14.4,105.1-22.5c-0.2-2.2-0.4-3.9-0.6-4.9c-0.2-2.4-0.5-7-0.8-12.7
			c-0.8-14.9-2.1-37.4-4.8-54.4L665.9,198.5z"/>
	</g>
	<g>
		<path class="st12" d="M805.9,386.4l-0.6,0.1l-82.7,10l-39.9-138.8c20.4-4.8,64.6-14.8,106.5-22.8c2.5,23.4,11,100.3,11.7,118.9
			C801.5,364.7,803.2,375.6,805.9,386.4z"/>
		<path class="st9" d="M722,397.3L681.7,257l0.8-0.2c13.5-3.2,61.1-14.1,106.5-22.8l0.9-0.2l1,8.5c3,28.2,10.3,94.4,10.9,111.4
			c0.6,10.9,2.2,21.9,5,32.4l0.2,0.8l-1.4,0.2L722,397.3z M683.7,258.2l39.5,137.4l81.7-9.9c-2.6-10.4-4.3-21.1-4.8-31.9
			c-0.6-17-7.8-83.1-10.9-111.3l-0.7-6.8C744.2,244.2,698,254.9,683.7,258.2z"/>
	</g>
	<g>
		<path class="st12" d="M862,292.6c-0.8,2.9,2.8,63,4.1,83.2l-60.2,10.5c-2.8-10.7-4.5-21.6-5-32.6c-0.7-18.7-9.2-95.6-11.7-118.9
			c20.7-4,40.8-7.4,57-9.5c16.7-2.1,28.9-3.7,37.8-4.9c-2.2,10.7-5.1,21.2-8.5,31.6C869.5,271.3,862.5,290.6,862,292.6z"/>
		<path class="st9" d="M805.2,387.2l-0.2-0.7c-2.8-10.7-4.5-21.7-5-32.8c-0.6-16.9-7.8-83-10.9-111.2l-0.9-8.4l0.7-0.2
			c23.1-4.5,42.4-7.6,57.1-9.5c15.7-2,28.1-3.6,37.8-4.9l1.1-0.2l-0.2,1.1c-2.2,10.7-5.2,21.3-8.5,31.6
			c-4.1,13.4-8.7,26.6-11.4,34.5c-1.1,3.2-1.9,5.6-2.1,6.1c-0.6,2.4,1.7,44.4,4.1,83l0.1,0.7L805.2,387.2z M790,235.5l0.7,7
			c3,28.2,10.3,94.3,10.9,111.3c0.6,10.7,2.2,21.3,4.8,31.7l58.8-10.3c-1.5-24.5-4.8-79.8-4-82.8l0,0c0.2-0.6,1-2.9,2.1-6.2
			c2.7-7.9,7.2-21,11.4-34.5c3.3-9.9,6-20.2,8.3-30.4c-9.5,1.3-21.5,2.9-36.7,4.8C831.7,227.9,812.8,231.1,790,235.5z"/>
	</g>
	<g>
		<path class="st12" d="M955.2,322l-1.1,1.3c-10.7,7.7-18,34.8-18,34.8l-69.2,17.4l-0.9,0.2c-1.3-20.2-4.8-80.4-4.1-83.2
			c0.6-2,7.5-21.3,13.5-40.6c4.9,11.7,14.4,33.2,17.6,36.1C896.7,291.2,938.4,313.3,955.2,322z"/>
		<path class="st9" d="M865.2,376.7l-0.1-0.9c-0.5-8.2-4.8-80.1-4-83.5c0.2-0.7,1-3.1,2.3-6.8c2.7-7.8,7.2-20.8,11.2-33.9l0.6-2.1
			l0.9,2c6.8,16.1,14.8,33.4,17.4,35.8c3.7,3.3,48.3,26.8,61.9,33.9l0.9,0.5l-1.9,2.2c-10.4,7.4-17.6,34.1-17.7,34.4l-0.1,0.5
			L865.2,376.7z M875.6,254.2c-4,12.5-8.1,24.6-10.7,32c-1.2,3.5-2.1,6-2.2,6.7c-0.6,2.4,2.1,50.1,4,82.1l68.7-17.3
			c1-3.7,7.9-27.4,18-34.7l0.4-0.5c-18-9.5-57.7-30.5-61.3-33.7C889.1,285.4,879.2,262.4,875.6,254.2z"/>
	</g>
	<g>
		<path class="st12" d="M980,257.6c-0.3,0.4-0.5,0.6-0.5,0.6c-6.5,8.7-6.8,33.1-6.9,38.2c-0.2,4.4-13.5,20.8-17.4,25.6
			c-16.7-8.7-58.4-30.8-62-34.1c-3.2-2.9-12.6-24.4-17.7-36c3.4-10.3,6.3-20.9,8.5-31.6l0,0c11.4,1.4,32.6,13.4,39.6,16.2
			C928.9,238.6,962.5,251,980,257.6z"/>
		<path class="st9" d="M955.3,323.1l-0.6-0.3c-17.5-9.1-58.5-30.9-62.2-34.2c-3.4-3.2-13.6-26.5-17.8-36.3l-0.1-0.2l0.1-0.3
			c3.4-10.3,6.3-20.9,8.5-31.5l0.2-0.7l0.7,0.1c8.3,1,21.4,7.5,31,12.2c3.7,1.8,6.8,3.3,8.8,4.1c5.1,2,37.2,13.9,54.5,20.3l2.8,1
			l-0.6,0.9c-0.3,0.5-0.5,0.7-0.5,0.7c-5.9,7.9-6.5,29.4-6.7,36.5v1.4c-0.2,4.3-11.1,18.2-17.6,26.1L955.3,323.1z M876.4,251.9
			c8.7,20.2,15.1,33.5,17.3,35.5c3.5,3.3,47,26.2,61.2,33.6c10.3-12.6,16.7-21.9,16.9-24.6v-1.3c0.2-7.2,0.8-28.8,6.8-37.2l-0.8-0.3
			c-18.4-6.8-49.4-18.4-54.5-20.3c-2.1-0.8-5.2-2.4-8.9-4.1c-9.2-4.5-21.7-10.6-29.7-11.8C882.4,231.6,879.6,241.9,876.4,251.9z"/>
	</g>
	<g>
		<path class="st9" d="M991.3,220.7c-0.5,2.8-1.6,8.9-3.2,17.4c-1.4,7-4.1,13.6-8.2,19.4c-17.4-6.4-51-19-56.2-21
			c-7.1-2.8-28.3-14.8-39.6-16.2c23.6-3.3,25-4.1,28.5-5.2c1.6-0.5,6.4-7.2,12.2-16.1c5.5,2.8,16.3,8,21.7,9.7
			C952.5,210.6,981.1,218.1,991.3,220.7z"/>
		<path class="st9" d="M980.2,258.5l-0.6-0.2c-17.6-6.5-51.1-19-56.2-21c-2.1-0.8-5.3-2.4-9.1-4.3c-9.5-4.6-22.3-10.9-30.3-11.9
			l-6-0.7l6-0.8c21.9-3,24.6-3.9,27.6-4.9l0.7-0.2c0.8-0.2,3.5-3.2,11.7-15.8l0.4-0.6l0.6,0.3c4.6,2.3,16.1,8,21.6,9.6
			c4.1,1.3,19.6,5.4,44.8,12l0.7,0.2l-0.2,0.7c-0.6,3.1-1.8,10.2-3.2,17.4c-1.4,7.2-4.1,13.8-8.3,19.7L980.2,258.5z M888.7,220.5
			c8,2.1,18.3,7.2,26.2,11.1c3.7,1.8,7,3.4,9.1,4.2c5.1,1.9,37.9,14.2,55.7,20.8c3.8-5.6,6.4-11.8,7.7-18.5c1.3-6.7,2.5-13.3,3-16.7
			c-24.8-6.4-40.2-10.6-44.2-11.8c-5.4-1.7-16.2-6.9-21.2-9.5c-8.7,13.3-11,15.5-12.2,15.8l-0.7,0.2
			C909.2,217.2,906.7,218,888.7,220.5z"/>
	</g>
	<g>
		<path class="st12" d="M1027.8,135.3c-1.2,3.3-2.5,6.6-3.7,10c-2.7,8.1-12.3,14-21.3,33.2c-5.7,12.8-9.5,26.5-11.1,40.4
			c0,0-0.1,0.6-0.3,1.8c-10.3-2.6-38.9-10.1-44.9-12c-5.4-1.7-16.2-6.9-21.7-9.7c11.9-18.2,27.9-45.4,27.9-45.4
			s-10.3-16.3-23.8-37.6c8.6,0.3,38.2,1.4,40.2,1.4c0.2,0,0.4,0.1,0.6,0.1c2.2,0.7,7.4,4.3,11.4,6.8c1.3,0.9,2.6,1.7,4.1,2.3
			c2.7,1,15.4-0.2,20,0c0.3,0,0.7,0,1,0C1008.1,126.8,1020.4,132,1027.8,135.3z"/>
		<path class="st9" d="M991.9,221.8l-0.9-0.2c-25.3-6.6-40.8-10.7-45-12c-5.6-1.7-17.2-7.4-21.9-9.7l-0.8-0.4l0.5-0.7
			c11-16.8,25.5-41.5,27.6-45c-1.7-2.6-11.3-17.8-23.5-37.2l-0.8-1.3l1.5,0.1c14.1,0.5,38.5,1.4,40.2,1.4c0.3,0,0.6,0.1,0.9,0.2
			c1.7,0.6,5.3,2.9,8.7,5.1c1,0.6,1.9,1.3,2.8,1.8c1.3,0.9,2.5,1.6,4,2.2c1.5,0.6,7.6,0.3,12.5,0.1c2.9-0.2,5.6-0.2,7.2-0.2
			c0.3,0,0.6,0,1,0c1.7,0.2,9,3,22.1,8.7l0.7,0.3l-0.2,0.7c-0.5,1.2-0.9,2.4-1.4,3.7c-0.8,2.1-1.7,4.2-2.4,6.4
			c-1.2,3.7-3.7,6.8-6.9,10.8c-4.1,5.2-9.4,11.7-14.4,22.5c-5.6,12.7-9.4,26.2-11.1,40.2c0,0.1-0.1,0.6-0.3,1.8L991.9,221.8z
			 M925.8,198.7c5.1,2.5,15.6,7.6,20.8,9.2c4.1,1.3,19.3,5.3,44,11.8c0.1-0.6,0.2-1,0.2-1c1.7-14,5.5-27.7,11.2-40.5
			c5.2-11,10.4-17.6,14.6-22.8c3.1-3.9,5.6-7,6.7-10.3c0.7-2.2,1.6-4.4,2.4-6.5c0.4-1,0.7-1.9,1.1-2.9c-15.4-6.6-19.9-8.2-20.9-8.3
			c-0.2,0-0.6,0-0.9,0c-1.7-0.1-4.4,0.1-7.2,0.2c-6.6,0.3-11.4,0.5-13.1-0.2c-1.5-0.7-2.9-1.5-4.2-2.4c-0.9-0.6-1.8-1.2-2.8-1.7
			c-3.2-2.1-6.8-4.5-8.3-4.9c-0.2-0.1-0.2-0.1-0.4-0.1c-2,0-31.6-1-38.7-1.3c13,20.7,23,36.3,23,36.3l0.2,0.4l-0.2,0.4
			C953,154.3,937.5,180.7,925.8,198.7z"/>
	</g>
	<g>
		<path class="st12" d="M1039.7,12.8c-0.3,1.7-0.8,3.5-1.5,5.2c-5.6,0.2-16.9,2.1-32.6,11.5c-1.1,0.7-2.1,1.4-3.2,2l-2.4-47.1
			c10.6,1.2,28,2.9,37.3,3.9C1035.9-3.7,1041.4,2.1,1039.7,12.8z"/>
		<path class="st9" d="M1001.8,32.9l-2.5-49.5l1,0.1c10.7,1.2,27.9,2.9,37.3,3.9l0.9,0.1l-0.2,0.9c-0.7,3.6,0.2,6.8,1,10.3
			c1,4,2.1,8.4,1.3,14.2l0,0c-0.3,1.8-0.8,3.7-1.5,5.4l-0.2,0.5h-0.5c-5.3,0.2-16.5,1.9-32.2,11.4l-0.6,0.4c-0.9,0.6-1.7,1-2.5,1.6
			L1001.8,32.9z M1000.9-14.7l2.2,44.8c0.5-0.3,0.9-0.6,1.4-0.9l0.6-0.4c15.5-9.4,26.8-11.3,32.4-11.6c0.6-1.5,1-3,1.3-4.5
			c0.9-5.5-0.2-9.6-1.2-13.6c-0.9-3.3-1.7-6.5-1.2-10.1C1027.2-11.9,1011.3-13.6,1000.9-14.7z"/>
	</g>
	<g>
		<path class="st12" d="M1038.2,18c-3.3,8.3-10.8,14.6-16.2,17.7c-6.5,3.7-7.1,7.3-4.8,13.4c0.5,1.3,1,2.5,1.6,3.9
			c-2.6,1.8-8.3,5.7-12,8c-0.8,0.6-1.7,1-2.6,1.4c-3.3,1.4-7.2,3-6.8,0.8c0.3-2.1,2.1-8.3,0-7.5c-1.4,0.6-7.5,3.5-11.1,5.2l-0.6-1.2
			l0,0c-1.7-2.9-3.8-6.2-6.3-9.8c3.8-4.3,10.7-10.5,23.1-18.3c1-0.6,2.1-1.3,3.2-2C1021.2,20.1,1032.6,18.2,1038.2,18z"/>
		<path class="st9" d="M998.3,65c-0.5,0-1-0.1-1.3-0.4c-0.3-0.2-0.6-0.7-0.5-1.6c0.1-0.4,0.2-1,0.3-1.6c0.2-1.3,0.9-4.1,0.6-5
			c-1.4,0.6-4.8,2.2-8,3.7l-3.6,1.7l-1-1.8c-1.7-2.9-3.8-6.2-6.2-9.7l-0.3-0.5l0.4-0.5c5.1-5.7,13-11.9,23.3-18.4
			c0.6-0.4,1.2-0.8,1.8-1.2l1.4-0.8c15.9-9.7,27.5-11.5,32.9-11.7l1.2-0.1l-0.5,1.1c-3.4,8.4-11.1,14.9-16.6,18
			c-6.4,3.6-6.5,7-4.4,12.5c0.5,1.2,1,2.5,1.6,3.8l0.2,0.6l-0.6,0.4c-2.9,2-8.4,5.7-12.1,8c-0.9,0.6-1.7,1-2.7,1.4l-0.4,0.2
			C1001.4,64.3,999.6,65,998.3,65z M997.7,54.8c0.4,0,0.6,0.2,0.8,0.3c1,0.9,0.6,3.2-0.1,6.7c-0.2,0.6-0.2,1.1-0.3,1.5
			c0,0.2,0,0.2,0,0.2c0.6,0.2,3.7-1,5.3-1.7l0.4-0.2c0.9-0.4,1.7-0.8,2.5-1.4c3.4-2.1,8.5-5.5,11.4-7.6c-0.5-1.2-1-2.3-1.4-3.3
			c-2.3-6-2.2-10.3,5.1-14.4c5-2.8,11.9-8.7,15.3-16.1c-5.7,0.4-16.5,2.5-30.9,11.4l-1.4,0.8c-0.6,0.4-1.2,0.8-1.8,1.1
			c-9.9,6.3-17.6,12.2-22.6,17.7c2.3,3.4,4.4,6.5,6,9.3l0.3,0.5l2.2-1c3.3-1.6,7.1-3.4,8.2-3.8C997.3,54.8,997.5,54.8,997.7,54.8z"
			/>
	</g>
	<g>
		<path class="st12" d="M1030.1,104.4c-3.1-0.4-6.1-1-9.1-1.8c-1.8-0.3-11.8-0.2-16.3,0c0-7.2-0.5-18.8,1.3-24.2
			c0.5-1.5,0.8-3,1-4.5c0.4-4.3,0.4-8.6-0.1-12.9c3.7-2.1,9.4-6,12-8c3.7,9.2,6.4,18.8,8.1,28.6
			C1028.3,89.2,1029.4,96.8,1030.1,104.4z"/>
		<path class="st9" d="M1030.9,105.3l-1-0.2c-3.1-0.4-6.2-1-9.3-1.8c-1.5-0.2-10.5-0.2-16.1,0h-0.8v-0.8c0-1.2,0-2.5,0-3.9
			c-0.1-7.2-0.2-16,1.4-20.7c0.4-1.4,0.7-2.9,0.9-4.4c0.4-4.2,0.4-8.4-0.1-12.6l-0.1-0.5l0.5-0.2c3.7-2.1,9.3-6,12-7.9l0.8-0.6
			l0.4,1c3.7,9.3,6.4,18.9,8.1,28.8c1.4,7.6,2.5,15.2,3.3,22.9L1030.9,105.3z M1015.4,101.6c2.6,0,4.8,0.1,5.6,0.2
			c2.7,0.7,5.5,1.3,8.2,1.7c-0.7-7.2-1.7-14.5-3.2-21.7c-1.6-9.4-4.2-18.7-7.7-27.6c-2.8,2-7.5,5.1-10.8,7.1c0.5,4.1,0.5,8.3,0,12.5
			c-0.2,1.6-0.5,3.2-1,4.7c-1.4,4.4-1.4,13.1-1.3,20.1c0,1.1,0,2.1,0,3.1C1008,101.7,1012.1,101.6,1015.4,101.6z"/>
	</g>
	<g>
		<path class="st12" d="M1030.9,122.4c-0.2,4.5-1.3,8.7-3,12.9c-7.5-3.2-19.7-8.4-21.9-8.7c-0.3,0-0.7,0-1,0c0-3.7-0.2-8.7-1-10
			c-0.5-0.8-0.7-1.7-0.9-2.6c-0.3-2.1-0.1-4.5,0.9-5.5c0.5-0.5,0.6-2.7,0.6-5.8c4.6-0.1,14.5-0.2,16.3,0c3,0.8,6,1.4,9.1,1.8
			C1030.8,112.5,1030.9,118.4,1030.9,122.4z"/>
		<path class="st9" d="M1028.3,136.3l-3-1.3c-6.9-2.9-17.5-7.4-19.3-7.6c-0.2,0-0.6,0-0.9,0l-0.9,0.1v-0.9c0-7.7-0.6-9.3-0.8-9.5
			c-0.6-1-0.9-1.9-1-2.9c-0.3-2.1-0.2-4.9,1.1-6.2c0.2-0.3,0.3-2.1,0.3-5.2v-0.8h0.8c3.3-0.1,14.5-0.2,16.5,0
			c3.1,0.8,6.1,1.4,9.1,1.8l0.6,0.1l0.1,0.6c0.6,6.3,0.8,12.2,0.8,18v0.1c-0.2,4.5-1.3,8.9-3.1,13.1L1028.3,136.3z M1005.7,125.8
			c0.1,0,0.2,0,0.3,0c2,0.2,10.2,3.7,19.8,7.7l1.6,0.6c1.5-3.8,2.4-7.8,2.6-11.8c0-5.6-0.2-11.2-0.7-17.3c-2.9-0.4-5.8-1-8.7-1.7
			c-1.4-0.2-8.7-0.1-15.3,0c0,3.7-0.2,5-0.8,5.6c-0.7,0.7-1,2.8-0.6,4.8c0.1,0.9,0.4,1.7,0.8,2.4
			C1005,116.6,1005.7,117.8,1005.7,125.8z"/>
	</g>
	<g>
		<path class="st12" d="M884.7,215.9c-0.1,1.3-0.3,2.8-0.6,4.5l0,0c-9,1.3-21.1,2.9-37.8,4.9c-16.3,2.1-36.4,5.6-57,9.5
			c-0.3-2.5-0.5-4.5-0.6-5.6c-0.9-8.6-1.8-44.4-5.9-68.1l101.5-31.8C885,161.9,885.8,205.1,884.7,215.9z"/>
		<path class="st9" d="M788.5,235.7l-0.1-0.9c-0.3-2.6-0.5-4.5-0.6-5.6c-0.2-2.4-0.5-7-0.8-12.7c-0.9-15.2-2.1-38.2-5-55.3l-0.1-0.7
			L885,128v1c0.7,32,1.5,75.9,0.5,86.7c-0.1,1.2-0.3,2.5-0.6,4.5l-0.1,0.6l-0.6,0.1c-9.7,1.4-22,2.9-37.8,4.9
			c-15,1.9-34.2,5.1-56.9,9.5L788.5,235.7z M783.7,161.6c2.9,17.1,4.1,39.8,4.9,54.8c0.3,5.7,0.6,10.3,0.8,12.6
			c0.1,1,0.2,2.6,0.5,4.8c22.5-4.3,41.3-7.5,56.2-9.4c15.5-2,27.7-3.6,37.2-4.8c0.3-1.6,0.5-2.8,0.6-3.8l0,0
			c1-10.7,0.2-53.6-0.5-85.6L783.7,161.6z"/>
	</g>
	<g>
		<path class="st12" d="M884.2,129.2L782.7,161c-0.8-5.8-2.3-11.4-4.5-16.9c-8.1-16.9-28.5-57.7-28.5-61.9c0-0.3,0-0.6-0.1-0.9
			c9.6-1.2,12.9-3.5,15.1-6c2.7-3.2,6.5-9.2,11.7-9.2c5.2,0,11.2,8.3,15.3,8.3c2.8,0,10.6-0.5,15.3-0.8c1.8,2.4,4.1,4.3,6.6,5.8
			c16.5,8,14.8,6,20.6,1.7c5.8-4.2,11.9-9.2,21.1-3.4c9.2,5.8,8.1,6,9.2,4.7c1.2-1.4,4.3-4.7,9.1,1.4c4.2,5.4,6.8,17.3,9.9,18.1
			C883.6,108.7,883.9,118.4,884.2,129.2z"/>
		<path class="st9" d="M782,162.1l-0.2-1c-0.8-5.7-2.3-11.4-4.5-16.7c-1.8-3.8-4.3-8.9-7-14.5c-12.2-25-21.5-44.5-21.5-47.7
			c0-0.2,0-0.5-0.1-0.7l-0.2-0.9l0.9-0.1c9.9-1.3,12.7-3.7,14.6-5.8c0.4-0.5,0.9-1,1.3-1.6c2.6-3.3,6.3-7.9,11-7.9
			c2.9,0,6,2.4,9,4.7c2.3,1.7,4.6,3.6,6.3,3.6c2.7,0,10.7-0.5,15.3-0.8h0.4l0.2,0.3c1.7,2.3,3.9,4.1,6.4,5.6
			c13.8,6.6,14.3,6.2,17.7,3.4c0.6-0.5,1.3-1,2.1-1.6l0.6-0.5c5.6-4.1,12.1-8.9,21.4-3c3,1.9,4.9,3.2,6.2,4.1c0.8,0.6,1.4,1,1.7,1.1
			l0.1-0.1l0.2-0.2c0.5-0.6,2-2.5,4.4-2.5c1.9,0,3.9,1.3,5.9,3.8c2,2.5,3.7,6.5,5.1,10c1.4,3.5,3.1,7.5,4.4,7.9l0.6,0.2l0.2,5.6
			c0.2,6.3,0.4,14,0.6,22.3v0.6l-0.6,0.2L782,162.1z M750.4,82c0,0.1,0,0.2,0,0.2c0,3.1,12.9,29.5,21.4,47
			c2.7,5.6,5.2,10.7,7.1,14.5c2.1,5.2,3.7,10.7,4.5,16.1l100-31.3c-0.2-8.1-0.4-15.6-0.6-21.7l-0.2-4.6c-1.7-1-3.2-4.4-4.8-8.5
			c-1.4-3.4-3-7.2-4.8-9.6c-1.7-2.1-3.3-3.2-4.6-3.2c-1.1-0.1-2.1,0.6-3.2,1.8l-0.2,0.2c-1,1.3-1.7,0.9-3.9-0.7
			c-1.3-0.9-3.1-2.1-6.2-4.1c-8.4-5.3-14.2-1.1-19.6,2.9l-0.6,0.5c-0.8,0.6-1.4,1.1-2,1.6c-4,3.3-5.1,3.7-19.4-3.2
			c-2.6-1.5-4.8-3.4-6.6-5.6c-5.5,0.3-12.3,0.7-14.9,0.7c-2.1,0-4.6-1.9-7.2-3.9c-2.8-2.1-5.6-4.4-8-4.4c-4,0-7.3,4.2-9.7,7.3
			c-0.5,0.6-1,1.2-1.4,1.7C762.8,78.7,759.3,80.8,750.4,82z"/>
	</g>
	<g>
		<path class="st12" d="M952.5,153.6c0,0-16,27.2-27.9,45.4c-5.8,8.8-10.6,15.6-12.2,16.1c-3.4,1.1-4.8,1.9-28.5,5.2l0,0
			c0.3-1.7,0.6-3.2,0.6-4.5c1-10.8,0.2-54-0.6-86.7c-0.2-10.8-0.5-20.5-0.7-27.4c0.4,0.1,0.8,0,1.2-0.2c3.7-2.2,8.1-6.9,14.8-4.5
			c5.8,2.1,10.7,1.8,16-2.5c4.6,7.4,9.1,14.7,13.4,21.5C942.2,137.3,952.5,153.6,952.5,153.6z"/>
		<path class="st9" d="M883.1,221.3l0.2-1.1c0.3-1.9,0.6-3.3,0.6-4.4c0.8-8.4,0.6-37.5-0.6-86.6c-0.2-10.8-0.5-20.5-0.7-27.4v-1
			l1,0.2c0.2,0.1,0.4,0,0.6-0.1c0.6-0.4,1.4-0.9,2.1-1.4c3.3-2.4,7.6-5.3,13.4-3.2c6,2.1,10.6,1.5,15.2-2.3l0.7-0.6l0.5,0.8
			c4.6,7.4,9.1,14.7,13.4,21.5c13.2,21.1,23.5,37.4,23.7,37.6l0.2,0.4l-0.2,0.4c-0.2,0.2-16.1,27.4-27.9,45.5
			c-9.1,13.9-11.4,16.1-12.6,16.5l-0.7,0.2c-3.1,1-5.8,1.9-27.8,4.9L883.1,221.3z M884.3,102.6c0.2,6.9,0.5,16.2,0.7,26.6
			c1.2,49.1,1.4,78.3,0.6,86.7c-0.1,1-0.2,2.1-0.5,3.4c20.9-2.9,23.6-3.8,26.5-4.8l0.7-0.2c0.6-0.2,2.8-2.1,11.7-15.8
			c11-16.8,25.5-41.5,27.6-45c-1.7-2.6-11.4-18-23.4-37.2c-4.1-6.5-8.5-13.5-13-20.7c-4.8,3.7-9.9,4.3-16.1,2.1
			c-5-1.8-8.7,0.7-11.9,3c-0.7,0.6-1.4,1-2.1,1.4C884.8,102.4,884.6,102.5,884.3,102.6z"/>
	</g>
	<g>
		<path class="st12" d="M915.4,94.6c-5.2,4.3-10.2,4.5-16,2.5c-6.6-2.4-11.1,2.3-14.8,4.5c-0.3,0.2-0.8,0.3-1.2,0.2
			c-3.2-0.9-5.7-12.7-9.9-18.1c-4.8-6-8-2.8-9.1-1.4c-1.1,1.4,0,1.1-9.2-4.7c-9.2-5.8-15.3-0.8-21.1,3.4c-5.8,4.2-4.1,6.1-20.6-1.7
			c-2.5-1.4-4.8-3.4-6.6-5.8C794,58.1,777.2,19.8,769.8,2l1.6-0.3l77-46.7l17.1,31.5l12.2,22.6c-8.3,0-8.8,3.4-8.8,8
			C868.9,19.5,893.1,58.8,915.4,94.6z"/>
		<path class="st9" d="M883.9,102.6c-0.2,0-0.3,0-0.6-0.1c-2.1-0.6-3.6-4.2-5.5-8.8c-1.4-3.4-3-7.2-4.8-9.6
			c-1.7-2.1-3.3-3.2-4.7-3.2l0,0c-1.1,0-2.1,0.6-3.1,1.8L865,83c-1,1.4-1.6,0.9-3.9-0.6c-1.3-0.9-3.2-2.1-6.2-4.1
			c-8.4-5.2-14.2-1.1-19.6,2.9l-0.6,0.5c-0.8,0.6-1.4,1.1-1.9,1.5c-4,3.3-5.1,3.7-19.5-3.2c-2.7-1.6-5-3.6-6.9-6
			C793.2,58.5,776,18.7,769.1,2.3l-0.4-0.9l2.4-0.4L848.8-46l30.3,55.9h-1.4c-7.6,0-8,2.7-8,7.2c0.2,1.6,8.4,16.3,46.4,77.1l0.4,0.6
			l-0.6,0.5c-5.1,4.1-10.3,4.9-16.8,2.6c-5-1.8-8.7,0.7-11.9,3c-0.7,0.6-1.4,1-2.1,1.4C884.6,102.5,884.2,102.6,883.9,102.6z
			 M868.2,79.4C868.2,79.4,868.3,79.4,868.2,79.4c2,0,4,1.3,6,3.8s3.7,6.5,5.1,10c1.4,3.5,3.1,7.5,4.5,7.9c0.2,0,0.4,0,0.6-0.1
			c0.6-0.4,1.4-0.9,2.1-1.4c3.4-2.4,7.6-5.3,13.4-3.3c5.8,2.1,10.3,1.5,14.7-1.9c-41-65.8-46.4-75.9-46.4-77.4
			c0-4.5,0.6-8.3,8.3-8.7l-28.2-52.1L771.7,2.7L771,2.8c7,16.9,23.9,55.3,36.6,70.3c1.7,2.3,3.9,4.2,6.4,5.6
			c13.8,6.6,14.3,6.1,17.7,3.3c0.6-0.5,1.2-1,2-1.6l0.6-0.5c5.6-4.1,12.1-8.9,21.4-3c3.1,1.9,5,3.3,6.3,4.1c0.7,0.5,1.4,1,1.7,1.1
			l0.1-0.1l0.2-0.2C865.2,80.2,866.7,79.4,868.2,79.4z"/>
	</g>
	<g>
		<path class="st12" d="M949.4,9.2c-14.8,0-62.8,0.2-70.6,0h-1l-12.2-22.7c14-3.8,42.6-11.4,70.8-17.6l1-0.2
			C939.3-22.9,944.2-1.9,949.4,9.2z"/>
		<path class="st9" d="M897.3,10c-8.8,0-16,0-18.6-0.1h-1.4L864.4-14l1-0.2c18-4.8,45-11.9,70.9-17.6l1.7-0.4l0.2,0.8
			c1.9,8.4,6.8,29.3,11.9,40.2l0.6,1.1h-1.3c-4.2,0-11.1,0-19.1,0C919.9,10,907.5,10,897.3,10z M878.3,8.4h0.5
			c5.6,0.1,32.1,0.1,51.5,0c7.2,0,13.6,0,17.9,0c-4.8-11-9.4-30.1-11.4-38.6l-0.2,0.1c-25.4,5.6-51.8,12.4-69.9,17.3L878.3,8.4z"/>
	</g>
	<g>
		<path class="st12" d="M979.3,49.8c-1.7,1.7-3,3.7-4.2,5.9c-0.8,1.6-2.2,17.9-3.4,33.8c-0.9,11.4-1.6,22.6-2,28
			c-0.2-0.1-0.4-0.1-0.6-0.1c-2,0-31.6-1-40.2-1.4c-4.2-6.8-8.8-14-13.4-21.5C893,58.8,868.9,19.5,868.9,17c0-4.5,0.6-8,8.8-8h1
			c7.8,0.2,55.8,0,70.6,0c0.8,1.8,1.8,3.6,3,5.2C957.6,20.9,970.4,36.8,979.3,49.8z"/>
		<path class="st9" d="M970.4,118.6l-1-0.3c-0.1-0.1-0.2-0.1-0.3-0.1c-2.1,0-34-1.1-40.2-1.4h-0.4l-0.2-0.3
			c-4.2-6.8-8.8-14-13.4-21.5c-46.7-74.7-46.7-77.2-46.7-78.1c0-4.8,0.7-8.7,9.6-8.7h1c5.6,0.1,32.1,0.1,51.5,0c8,0,14.9,0,19.1,0
			h0.6l0.2,0.5c0.8,1.7,1.7,3.5,2.9,5c5.4,6.8,18,22.6,27,35.6l0.3,0.6l-0.4,0.5c-1.6,1.7-2.9,3.7-4.1,5.7
			c-0.2,0.4-1.1,4.1-3.3,33.5c-0.6,7.4-1,14.7-1.4,20.4c-0.2,3.1-0.4,5.7-0.6,7.6L970.4,118.6z M929.3,115.2
			c10.3,0.4,36.9,1.3,39.7,1.4c0.2-1.8,0.3-4.1,0.5-6.8c0.4-5.7,0.9-13,1.4-20.4c2.4-31.9,3.3-33.6,3.6-34.1c1.1-2,2.4-3.9,3.9-5.6
			c-8.8-12.9-21.1-28.3-26.5-35c-1.2-1.6-2.2-3.3-2.9-5c-4.3,0-11,0-18.6,0c-19.4,0-46,0.1-51.5,0h-1c-7.6,0-8,2.7-8,7.2
			c0.2,1.4,6.4,13.2,46.4,77.2C920.6,101.5,925.1,108.6,929.3,115.2z"/>
	</g>
	<g>
		<path class="st12" d="M1002.4,31.6c-12.4,7.8-19.3,14-23.1,18.3c-8.9-13.1-21.6-29-27-35.5c-1.2-1.6-2.2-3.3-3-5.2
			c-5.2-11.1-10.1-32-12-40.4c38.6-8.7,41.5-19.6,52.7-18.8l0,0l1,0.9c-0.3,9.7-1,32.3,0.2,32.6c0.4,0,3.9,0.5,8.8,1L1002.4,31.6z"
			/>
		<path class="st9" d="M979.2,51.2l-0.6-0.9c-9.5-13.8-23-30.6-26.9-35.5c-1.3-1.7-2.3-3.5-3.1-5.3c-5.2-11.1-10.1-32-12-40.5
			l-0.2-0.8l0.8-0.2c22-4.9,32.4-10.7,39.3-14.5c5.2-2.9,8.7-4.8,13.7-4.5h0.2l1.5,1.3v0.4c-0.7,20.8-0.6,30-0.2,31.8
			c0.4,0,1,0.1,2,0.2c1.6,0.2,3.8,0.5,6.4,0.7l0.6,0.1l2.4,48.3l-0.4,0.2c-10.3,6.4-18,12.6-23,18.2L979.2,51.2z M938.2-30.6
			c2,8.9,6.8,28.8,11.8,39.5c0.8,1.8,1.7,3.5,2.9,5c3.8,4.7,16.9,21,26.4,34.7c5.1-5.5,12.6-11.3,22.3-17.5l-2.3-46
			c-2.4-0.2-4.4-0.5-5.8-0.7c-1.1-0.2-2.1-0.2-2.2-0.2h-0.2c-0.9-0.2-1.9-0.5-0.8-33l-0.6-0.5c-4.4-0.2-7.5,1.5-12.6,4.2
			C970.4-41.2,959.9-35.6,938.2-30.6z"/>
	</g>
	<g>
		<path class="st12" d="M985.5,59.7L985.5,59.7c-0.2,0.5-0.3,1-0.4,1.6c-0.4,2.6-0.9,8.1-1.4,14.9c-0.3,4-0.6,8.3-0.9,12.8
			l-11.4,0.6c1.2-15.8,2.6-32.1,3.4-33.8c1.1-2.1,2.5-4.1,4.2-5.9C981.8,53.4,983.9,56.7,985.5,59.7z"/>
		<path class="st9" d="M970.8,90.2l0.1-0.9c2.4-31.9,3.3-33.6,3.5-34c1.2-2.2,2.6-4.2,4.3-6l0.6-0.7l0.6,0.8
			c2.3,3.3,4.4,6.6,6.3,9.9l0.2,0.3l-0.2,0.3c-0.2,0.5-0.3,0.9-0.3,1.4c-0.3,2.4-0.8,7.1-1.4,14.9c-0.3,4-0.6,8.3-0.9,12.8l-0.1,0.7
			L970.8,90.2z M979.2,51.1c-1.4,1.5-2.5,3.2-3.4,4.9c-0.3,0.6-1.2,4.8-3.3,32.6l9.7-0.5c0.2-4.2,0.6-8.3,0.8-12.1
			c0.6-7.8,1-12.6,1.4-14.9c0.1-0.5,0.2-1,0.3-1.4C983,56.8,981.2,53.9,979.2,51.1z"/>
	</g>
	<g>
		<path class="st12" d="M1006.8,73.7c-1.9,0.4-4.8,1.1-6.7,1.7c-2.5,0.8-12.4,0.8-16.3,0.7c0.5-6.8,1-12.2,1.4-14.9l1-0.5
			c3.6-1.7,9.6-4.6,11.1-5.2c2.1-0.9,0.4,5.3,0,7.5c-0.4,2.1,3.5,0.6,6.8-0.8c0.9-0.4,1.7-0.9,2.6-1.4
			C1007.2,65.1,1007.2,69.4,1006.8,73.7z"/>
		<path class="st9" d="M987.5,77c-1.7,0-3.1,0-3.7,0h-0.9l0.1-0.9c0.6-7.8,1-12.6,1.4-14.9l0.1-0.4l1.4-0.6c6.4-3.1,10-4.8,11.1-5.2
			c0.7-0.3,1.3,0,1.5,0.2c1,0.9,0.6,3.3-0.1,6.8c-0.2,0.6-0.2,1.1-0.3,1.4c0,0.2,0,0.2,0,0.2c0.6,0.2,3.7-1,5.4-1.7l0.4-0.2
			c0.9-0.4,1.7-0.8,2.5-1.4l1-0.7l0.2,1.3c0.5,4.3,0.5,8.7,0.1,13l-0.1,0.6l-0.6,0.2c-1.9,0.4-4.7,1-6.6,1.7
			C998.3,76.8,991.9,77,987.5,77z M984.7,75.4c5.1,0.1,13.1,0,15.2-0.7c1.8-0.6,4.3-1.2,6.2-1.6c0.3-3.7,0.3-7.2,0-10.9
			c-0.6,0.3-1.1,0.6-1.7,0.8l-0.4,0.2c-3.6,1.4-5.9,2.3-7,1.4c-0.3-0.2-0.6-0.7-0.5-1.6c0.1-0.4,0.2-1,0.3-1.5
			c0.2-1.3,0.9-4.1,0.6-5.1c-1.4,0.6-5,2.3-11,5.2l-0.6,0.3C985.5,64.2,985.1,68.5,984.7,75.4z"/>
	</g>
	<g>
		<path class="st12" d="M1004.9,126.6c-4.6-0.1-17.3,1.1-20,0c-1.4-0.6-2.7-1.4-4-2.3c0.2-2.6,0.3-6.2,0.6-10.4h21.6
			c0.1,1,0.4,1.8,0.9,2.6C1004.8,117.8,1004.9,122.9,1004.9,126.6z"/>
		<path class="st9" d="M989.9,127.9c-2.5,0-4.3-0.2-5.2-0.6c-1.4-0.7-2.9-1.5-4.1-2.4l-0.3-0.2v-0.5c0.2-2.6,0.3-6.3,0.6-10.4
			l0.1-0.7h23.1l0.1,0.7c0.1,0.9,0.4,1.7,0.8,2.4c0.2,0.4,1,1.7,1,10.4v0.8h-0.8c-1.5,0-4.1,0.1-6.7,0.2
			C995,127.7,992.1,127.9,989.9,127.9z M981.8,123.9c1.1,0.7,2.3,1.4,3.5,2c1.6,0.6,8.1,0.3,12.9,0.2c2.2-0.1,4.4-0.2,6-0.2
			c-0.1-7.1-0.6-8.5-0.8-8.8c-0.4-0.7-0.7-1.5-0.9-2.3h-20.2C982,118.3,981.9,121.4,981.8,123.9z"/>
	</g>
	<g>
		<path class="st12" d="M983,88.9c-0.6,8.6-1,17.7-1.4,25c-0.2,4.1-0.4,7.8-0.6,10.4c-3.9-2.5-9.1-6.1-11.4-6.8
			c0.3-5.4,1.1-16.6,2-28L983,88.9z"/>
		<path class="st9" d="M981.7,125.7l-1.1-0.7c-0.9-0.6-1.8-1.2-2.8-1.8c-3.2-2.1-6.8-4.5-8.3-4.9l-0.6-0.2v-0.6
			c0.3-5.2,1.1-16.1,2-28l0.1-0.7l13-0.6l-0.1,0.9c-0.5,7-0.9,15.2-1.4,25c-0.2,4.1-0.4,7.8-0.6,10.4L981.7,125.7z M970.4,116.9
			c1.9,0.8,5.1,2.9,8.2,4.9c0.6,0.3,1.1,0.7,1.6,1c0.2-2.5,0.3-5.6,0.5-9.1c0.5-9.4,1-17.3,1.4-24.1l-9.8,0.5
			C971.5,101.4,970.8,111.7,970.4,116.9z"/>
	</g>
	<g>
		<path class="st12" d="M1005.8,78.3c-1.7,5.4-1.3,17.2-1.3,24.2c0,3.2-0.1,5.4-0.6,5.8c-1,1-1.2,3.4-0.9,5.5h-21.6
			c0.4-7.3,0.9-16.4,1.4-25c0.2-4.5,0.6-8.8,0.9-12.8c3.9,0,13.8,0.1,16.3-0.7c1.9-0.6,4.8-1.3,6.7-1.7
			C1006.6,75.2,1006.3,76.8,1005.8,78.3z"/>
		<path class="st9" d="M1004.1,114.7h-23.4l0.1-0.9c0.6-9.8,1-18,1.4-25c0.2-4.5,0.6-8.8,0.9-12.8l0.1-0.7h1.8
			c4.1,0,12.8,0,14.9-0.6c1.8-0.6,4.5-1.2,6.8-1.7l1.1-0.2l-0.1,1.1c-0.2,1.6-0.5,3.2-1,4.7l0,0c-1.4,4.3-1.3,12.8-1.3,19.6
			c0,1.6,0,3,0,4.4c0,4.7-0.2,5.9-0.8,6.4c-0.7,0.7-1,2.8-0.6,4.8L1004.1,114.7z M982.4,113.1h19.9c-0.2-2,0.2-4.2,1.2-5.2
			c0.2-0.2,0.3-1.4,0.3-5.2c0-1.4,0-2.8,0-4.4c-0.1-7-0.2-15.7,1.4-20.2c0.3-1.1,0.6-2.1,0.8-3.3c-2,0.5-4.1,1-5.5,1.4
			c-2.2,0.7-9.1,0.7-15.4,0.8h-0.4c-0.2,3.7-0.6,7.9-0.8,12.1C983.3,95.8,982.8,103.7,982.4,113.1z"/>
	</g>
</g>
</svg>
