<?xml version="1.0" encoding="utf-8"?>
<!-- Generator: Adobe Illustrator 26.0.0, SVG Export Plug-In . SVG Version: 6.00 Build 0)  -->
<svg version="1.1" id="Layer_1" xmlns="http://www.w3.org/2000/svg" xmlns:xlink="http://www.w3.org/1999/xlink" x="0px" y="0px"
	 viewBox="0 0 1116 360" style="enable-background:new 0 0 1116 360;" xml:space="preserve">
<style type="text/css">
	.st0{fill:#ED2F38;}
	.st1{opacity:0.24;}
	.st2{opacity:0.19;fill:#FFFFFF;enable-background:new    ;}
	.st3{font-family:'Poppins-ExtraBold';}
	.st4{font-size:65.16px;}
	.st5{font-size:71.62px;}
	.st6{fill:#FFFFFF;}
	.st7{fill:#46506D;stroke:#1B1E2A;stroke-miterlimit:10;}
	.st8{fill:#1B1E2A;stroke:#1B1E2A;stroke-miterlimit:10;}
	.st9{fill:#1B1E2A;}
	.st10{font-family:'Poppins-Regular';}
	.st11{font-size:69.773px;}
	.st12{fill:#46506D;}
</style>
<rect class="st0" width="1116" height="360"/>
<g>
	<g class="st1">
		<text transform="matrix(1 0 0 1 -142.7365 114.885)" class="st2 st3 st4">DUMAGUETE</text>
		<text transform="matrix(1 0 0 1 286.0935 114.885)" class="st2 st3 st4">DUMAGUETE</text>
	</g>
	<g class="st1">
		<text transform="matrix(1 0 0 1 -396.9865 175.7251)" class="st2 st3 st4">DUMAGUETE</text>
		<text transform="matrix(1 0 0 1 31.8435 175.7251)" class="st2 st3 st4">DUMAGUETE</text>
	</g>
	<g class="st1">
		<text transform="matrix(1 0 0 1 -103.3565 233.265)" class="st2 st3 st4">DUMAGUETE</text>
		<text transform="matrix(1 0 0 1 325.4735 233.265)" class="st2 st3 st4">DUMAGUETE</text>
	</g>
	<g class="st1">
		<text transform="matrix(1 0 0 1 -400.2065 294.2451)" class="st2 st3 st4">DUMAGUETE</text>
		<text transform="matrix(1 0 0 1 28.6235 294.2451)" class="st2 st3 st4">DUMAGUETE</text>
	</g>
	<g class="st1">
		<text transform="matrix(1 0 0 1 -210.7565 354.3751)" class="st2 st3 st4">DUMAGUETE</text>
		<text transform="matrix(1 0 0 1 218.0735 354.3751)" class="st2 st3 st4">DUMAGUETE</text>
	</g>
	<g class="st1">
		<text transform="matrix(1 0 0 1 -51.6165 58.1951)" class="st2 st3 st5">DUMAGUETE</text>
	</g>
	<g class="st1">
		<text transform="matrix(1 0 0 1 714.3794 114.885)" class="st2 st3 st4">DUMAGUETE</text>
	</g>
	<g class="st1">
		<text transform="matrix(1 0 0 1 460.1295 175.725)" class="st2 st3 st4">DUMAGUETE</text>
		<text transform="matrix(1 0 0 1 888.9595 175.725)" class="st2 st3 st4">DUMAGUETE</text>
	</g>
	<g class="st1">
		<text transform="matrix(1 0 0 1 753.7595 233.265)" class="st2 st3 st4">DUMAGUETE</text>
	</g>
	<g class="st1">
		<text transform="matrix(1 0 0 1 456.9094 294.245)" class="st2 st3 st4">DUMAGUETE</text>
		<text transform="matrix(1 0 0 1 885.7395 294.245)" class="st2 st3 st4">DUMAGUETE</text>
	</g>
	<g class="st1">
		<text transform="matrix(1 0 0 1 646.3594 354.375)" class="st2 st3 st4">DUMAGUETE</text>
		<text transform="matrix(1 0 0 1 1075.1895 354.375)" class="st2 st3 st4">DUMAGUETE</text>
	</g>
	<g class="st1">
		<text transform="matrix(1 0 0 1 413.89 58.1955)" class="st2 st3 st5">DUMAGUETE</text>
	</g>
	<g class="st1">
		<text transform="matrix(1 0 0 1 876.7581 58.6968)" class="st2 st3 st5">DUMAGUETE</text>
	</g>
</g>
<g>
	<text transform="matrix(1 0 0 1 184.1554 213.1137)" class="st9 st10 st11">CAMANJAC</text>
	<g>
		<g>
			<path class="st6" d="M171.9,154.9L171.9,154.9L171.9,154.9c0.1-0.4,0.2-0.8,0.4-1.1c0.7-1.2,1-2.6,0.7-4l-0.1-0.7
				c-0.1-0.3-0.1-0.6-0.2-1l0,0c-0.4-2.1-0.7-3.8-1.3-5.2c-0.9-2.5-1.7-5-2.3-7.5c-0.3-1.4-0.5-4.3-0.5-4.3
				c-0.1-0.8-0.7-1.4-1.5-1.3c-0.5,0-0.9,0.3-1.2,0.7c-0.7,1.1-1.7,2.3-2.1,2.5c-0.6,0.2-2.8,0.3-4,0.3c-1.6,0.1-2.2,0.1-2.6,0.3
				c-0.4,0.1-0.8,0.1-1.3,0c-0.8-0.2-5.9-0.6-7.7,0.1c-0.6,0.2-1,0.4-1.4,0.6l0,0l-0.4,0.2c-0.2,0.1-0.5,0.3-0.7,0.4
				c-2.5,0.3-5.1,0.5-7.7,0.6l0,0h-0.7c-4.3,0.1-6.9-0.4-7.2-0.6c-0.1,0-0.1-0.1-0.2-0.1c-0.9-0.4-3.3-1.5-6.2-1l0,0h-0.1l0,0h-0.2
				c-3.1,0.7-4.8,1.5-5.2,1.7c-0.6,0.2-5.1,1.7-7,2.3c-0.5-0.8-1.2-2.2-1.6-3.1c-1.4-2.8-1.7-3.2-2.1-3.5c-0.5-0.3-3.7-1.5-4.6-1.8
				c-4.6-1.6-4.8-1.5-5.4-1.1c-0.4,0.2-0.5,0.4-1.7,2.4c-1,1.7-3.7,6.2-4.6,6.8c-0.5,0.2-2.9,1.1-5.5,2.1c-3.3,1.3-7.5,2.9-10.9,4.2
				c-1.9,0.7-3.2,1.3-4.2,1.7c-0.6,0.2-1,0.4-1.3,0.5c-0.4,0.2-1.5,0.7-1.2,1.8c0.1,0.5,0.2,0.6,1.8,2.4c1.7,1.9,4.8,5.3,5.8,7.2
				c0.5,0.9,1.5,3.2,2.8,6.4l0,0c1,2.5,2.2,5.5,3.2,8.2l0,0c0.9,2.3,1.5,4.2,1.9,5.3c0.7,2.1,3.1,9.8,7,22.2l0,0l1.7,5.5l2,7.1l0,0
				l8.4,29.4c0.2,0.6,0.7,1,1.4,1c0.1,0,0.1,0,0.2,0l17.5-2.1h0.1h0.1l0,0l12.7-2.2l0,0h0.2h0.1l14.6-3.7c0.5-0.1,0.9-0.5,1-1
				c0.5-2,1.9-5.6,3.2-6.6c0.1-0.1,0.2-0.2,0.3-0.2c0,0,0.1-0.1,0.2-0.3l0,0c4-4.8,4-5.8,4-6.3v-0.3c0.1-4.9,0.8-6.5,1.1-7l0.1-0.2
				l0,0c1-1.4,1.7-3,2-4.7c0.4-1.9,0.6-3.2,0.7-3.7l0,0l0,0l0.1-0.4v-0.1c0.3-2.8,1.1-5.5,2.2-8.1c0.8-1.6,1.7-3.1,2.9-4.5
				c0.7-0.9,1.4-1.7,1.7-2.7c0.1-0.4,0.3-0.9,0.5-1.3c0.1-0.3,0.2-0.5,0.3-0.8l0,0c0.4-1,0.7-2.1,0.7-3.2c0-0.9,0-2.2-0.2-3.9l0,0
				c-0.2-1.7-0.4-3.3-0.7-5c-0.4-2.2-0.9-4.3-1.7-6.3l0,0l0,0c-0.1-0.3-0.2-0.5-0.3-0.8c-0.1-0.2-0.2-0.4-0.2-0.7
				c0,0,0.1-0.1,0.5-0.4c1.4-0.8,3.2-2.4,4.1-4.4l0,0c0.2-0.5,0.3-0.9,0.4-1.4c0.2-1.2,0.1-2.4-0.3-3.5
				C171.9,155.8,171.8,155.4,171.9,154.9z"/>
		</g>
		<g>
			<path class="st12" d="M121.8,172.7c-1,0.1-2.7,0.2-3.2,0.2c-0.9,0-2.1-1.7-3.2-1.7s-1.9,1.3-2.5,2c-0.5,0.5-1.2,1-3.2,1.3
				c-0.4,0.1-0.9,0.1-1.5,0.1c-3.2,0.2-4.3-1.3-6.2-1.6c-1.8-0.4-1.9,0.3-3.2,0.6c-1.2,0.3-2.1-1.4-5.4-3.1c-3.3-1.6-3-0.5-4.4-0.2
				c-1.5,0.4-3.8-1.8-4.1-1.7c-0.2,0.1-1.2,1.7-2,3c-1-2.6-2.1-5.6-3.2-8.2c2-0.3,6.4-0.9,14.2-2.2c9.9-1.6,18.3-3.1,20.1-3.4
				C115.5,161.4,119,169.5,121.8,172.7z"/>
			<path class="st9" d="M107.6,174.7c-1.8,0-2.9-0.5-3.8-1c-0.6-0.3-1.1-0.5-1.8-0.7c-1.2-0.2-1.6,0-2.1,0.2c-0.3,0.1-0.6,0.3-1,0.4
				c-0.7,0.2-1.3-0.3-2.3-1c-0.7-0.6-1.8-1.3-3.3-2.1c-2.4-1.2-2.8-0.9-3.4-0.6c-0.2,0.1-0.5,0.3-0.9,0.4c-1.1,0.3-2.5-0.7-3.4-1.3
				c-0.3-0.2-0.6-0.4-0.7-0.4c-0.1,0.1-0.5,0.6-1.9,2.9l-0.2,0.3l-0.1-0.3c-1-2.7-2.2-5.7-3.2-8.2l-0.1-0.2h0.2
				c2-0.3,6.4-0.9,14.2-2.2c10.4-1.7,19.1-3.2,20.1-3.4h0.1l0.1,0.1c1.4,3.4,5.1,11.8,7.8,15.1l0.2,0.3h-0.3
				c-1.1,0.1-2.7,0.2-3.2,0.2s-1-0.4-1.5-0.8c-0.6-0.5-1.2-0.9-1.7-0.9c-0.8,0-1.5,0.9-2,1.5c-0.1,0.1-0.2,0.3-0.3,0.4
				c-0.5,0.6-1.3,1.1-3.3,1.3c-0.4,0.1-0.9,0.1-1.5,0.1C108,174.7,107.8,174.7,107.6,174.7z M101,172.6c0.3,0,0.6,0,1,0.1
				c0.7,0.1,1.2,0.4,1.8,0.7c1,0.5,2.2,1.1,4.3,0.9c0.6,0,1.1-0.1,1.5-0.1c2.1-0.3,2.7-0.8,3.1-1.2c0.1-0.1,0.2-0.2,0.3-0.4
				c0.6-0.7,1.3-1.6,2.3-1.6c0.6,0,1.3,0.5,1.9,1c0.5,0.4,1,0.8,1.3,0.8c0.5,0,2.1-0.1,2.9-0.1c-2.7-3.4-6.2-11.3-7.6-14.8
				c-1.5,0.3-9.9,1.7-20,3.4c-7.6,1.2-12,1.9-14,2.2c1,2.4,2.1,5.2,3,7.7c1.6-2.7,1.8-2.7,1.9-2.8c0.2,0,0.4,0.1,1,0.5
				c0.8,0.6,2.2,1.5,3.1,1.3c0.4-0.1,0.6-0.2,0.8-0.4c0.8-0.4,1.3-0.6,3.7,0.6c1.6,0.8,2.6,1.5,3.4,2.1c0.9,0.7,1.4,1.1,2,0.9
				c0.4-0.1,0.7-0.2,0.9-0.3C100.1,172.7,100.4,172.6,101,172.6z"/>
		</g>
		<g>
			<path class="st9" d="M130.6,147.7l-16.3,9.9l-0.3,0.1c-1.8,0.3-10.2,1.8-20.1,3.4c-7.8,1.3-12.3,1.9-14.2,2.2
				c-1.2-2.9-2.3-5.5-2.9-6.6c-1.6-2.9-7.4-8.8-7.5-9.1s20.7-8.1,22.3-8.8s6.1-9.1,6.5-9.3c0.3-0.2,8.1,2.6,8.6,2.9
				c0.5,0.3,3.5,7.1,4,7.1s7.8-2.4,8.2-2.6c0.4-0.2,1.9-0.9,4.9-1.6c0.1,0,0.1,0,0.2,0L130.6,147.7z"/>
			<path class="st9" d="M79.5,163.4v-0.1c-0.9-2.3-2.2-5.3-2.9-6.5c-1.1-1.9-4.1-5.3-6-7.4c-1.3-1.5-1.5-1.7-1.5-1.8
				c0-0.2-0.1-0.3,16.8-6.8c2.9-1.1,5.1-2,5.6-2.2c1.1-0.5,3.7-4.9,5.2-7.3c0.9-1.5,1.1-1.9,1.3-2c0.5-0.3,8.7,2.9,8.7,2.9
				c0.2,0.1,0.7,1,1.7,3c0.8,1.6,2,3.9,2.3,4.1c0.5,0,7.7-2.4,8.1-2.6c0.2-0.1,1.8-0.9,4.9-1.6c0.1,0,0.2,0,0.2,0h0.1l6.8,12.6
				l-16.5,10l-0.3,0.1c-0.4,0.1-9.3,1.6-20.1,3.4c-7.8,1.3-12.3,1.9-14.2,2.2L79.5,163.4z M69.5,147.6c0.2,0.2,0.8,0.9,1.4,1.6
				c1.8,2,4.9,5.5,6,7.4c0.7,1.2,1.9,4.2,2.8,6.5c2-0.3,6.4-0.9,14.1-2.2c10.8-1.8,19.7-3.3,20.1-3.4l0.3-0.1l16.1-9.8l-6.5-12.1
				h-0.1c-3.1,0.7-4.7,1.5-4.9,1.5c-0.3,0.2-7.7,2.6-8.3,2.6c-0.4,0-0.9-1-2.5-4.2c-0.7-1.3-1.4-2.7-1.6-2.9
				c-0.5-0.3-7.7-2.9-8.4-2.9c-0.1,0.1-0.6,1-1.1,1.8c-2.1,3.5-4.2,7-5.3,7.4c-0.5,0.2-2.7,1.1-5.6,2.2
				C80.2,143.3,70.6,147,69.5,147.6z"/>
		</g>
		<g>
			<path class="st12" d="M116.6,191.2L91.7,199c-2.2-7.2-6-19.3-7-22.2c-0.4-1.2-1.1-3.2-2-5.4c0.8-1.3,1.8-2.9,2-3
				c0.3-0.1,2.6,2.1,4.1,1.7s1.1-1.4,4.4,0.2c3.3,1.6,4.2,3.3,5.4,3.1c1.2-0.3,1.3-0.9,3.2-0.6c1.8,0.4,2.9,1.8,6.2,1.6
				c0.6,0,1.1-0.1,1.5-0.1c0,0.1,0,0.1,0,0.2c0,0.9,4.3,9.5,6,13.1C116.2,188.8,116.5,190,116.6,191.2z"/>
			<path class="st9" d="M91.6,199.2V199c-1.4-4.4-5.9-19-7-22.2c-0.4-1.2-1.1-3.2-2-5.4v-0.1v-0.1c1.8-3,2-3,2.1-3.1
				c0.2,0,0.4,0.1,1,0.5c0.8,0.5,2.2,1.5,3.1,1.2c0.4-0.1,0.6-0.2,0.8-0.4c0.8-0.4,1.3-0.6,3.7,0.6c1.6,0.8,2.6,1.5,3.4,2.1
				c0.9,0.7,1.4,1.1,2,0.9c0.4-0.1,0.7-0.2,0.9-0.3c0.6-0.3,1-0.5,2.3-0.2c0.7,0.1,1.2,0.4,1.8,0.7c1,0.5,2.2,1.1,4.3,0.9
				c0.6,0,1.1-0.1,1.5-0.1h0.1v0.1c0,0.1,0,0.2,0,0.2c0,0.7,2.8,6.5,4.7,10.4c0.5,1,0.9,1.9,1.3,2.6c0.5,1.2,0.8,2.4,1,3.6v0.1h-0.1
				L91.6,199.2z M83,171.4c0.8,2.2,1.5,4.1,1.9,5.3c1.1,3.2,5.5,17.5,6.9,22.1l24.6-7.7c-0.2-1.2-0.5-2.3-0.9-3.4
				c-0.3-0.7-0.8-1.6-1.3-2.6c-2.6-5.3-4.8-9.8-4.8-10.5l0,0c-0.4,0-0.8,0.1-1.3,0.1c-2.1,0.1-3.4-0.5-4.4-1
				c-0.6-0.3-1.1-0.5-1.8-0.7c-1.2-0.2-1.6,0-2.1,0.2c-0.3,0.1-0.6,0.3-1,0.4c-0.7,0.2-1.3-0.3-2.3-1c-0.7-0.6-1.8-1.3-3.3-2.1
				c-2.4-1.2-2.8-0.9-3.4-0.6c-0.2,0.1-0.5,0.3-0.9,0.4c-1.1,0.3-2.5-0.7-3.4-1.3c-0.3-0.2-0.6-0.4-0.7-0.4
				C84.8,168.7,84.4,169.2,83,171.4z"/>
		</g>
		<g>
			<path class="st12" d="M118,206.8c-8.8,1.7-18.2,3.8-22.5,4.8l-2-7.1c0,0-0.7-2.3-1.7-5.5l24.9-7.8c0.9,5,1.1,12.6,1.2,14.4
				C117.9,205.8,117.9,206.3,118,206.8z"/>
			<path class="st9" d="M95.4,211.8l-2.1-7.2l0,0c0,0-0.7-2.3-1.7-5.5v-0.2l25.2-7.9v0.2c0.6,3.6,0.9,8.5,1.1,11.7
				c0.1,1.2,0.1,2.2,0.2,2.7c0,0.2,0.1,0.6,0.1,1.2v0.2H118C108.9,208.8,99.2,211,95.4,211.8L95.4,211.8z M91.9,199.1
				c1,3.2,1.7,5.4,1.7,5.4l2,6.9c3.8-0.9,13.2-3,22.2-4.8c-0.1-0.5-0.1-0.8-0.1-1c-0.1-0.5-0.1-1.5-0.2-2.7c-0.2-3.2-0.4-7.9-1-11.5
				L91.9,199.1z"/>
		</g>
		<g>
			<path class="st12" d="M121.5,238.9L121.5,238.9l-17.6,2.1l-8.4-29.4c4.3-1,13.7-3.1,22.5-4.8c0.5,4.9,2.3,21.2,2.5,25.2
				C120.6,234.3,121,236.6,121.5,238.9z"/>
			<path class="st9" d="M103.8,241.2l-8.5-29.7h0.2c2.9-0.7,12.9-3,22.5-4.8h0.2l0.2,1.8c0.6,6,2.2,20,2.3,23.6
				c0.1,2.3,0.5,4.6,1.1,6.9v0.2l-0.3,0.1L103.8,241.2z M95.7,211.7l8.4,29.1l17.3-2.1c-0.6-2.2-0.9-4.5-1-6.7
				c-0.1-3.6-1.7-17.6-2.3-23.5l-0.2-1.4C108.5,208.8,98.7,211,95.7,211.7z"/>
		</g>
		<g>
			<path class="st12" d="M133.4,219c-0.2,0.6,0.6,13.3,0.9,17.6l-12.7,2.2c-0.6-2.3-0.9-4.6-1.1-6.9c-0.2-4-1.9-20.2-2.5-25.2
				c4.4-0.8,8.6-1.6,12.1-2s6.1-0.8,8-1c-0.5,2.3-1.1,4.5-1.8,6.7C135,214.5,133.5,218.6,133.4,219z"/>
			<path class="st9" d="M121.4,239v-0.1c-0.6-2.3-0.9-4.6-1.1-6.9c-0.1-3.6-1.7-17.6-2.3-23.5l-0.2-1.8h0.2c4.9-0.9,9-1.6,12.1-2
				c3.3-0.4,6-0.8,8-1h0.2v0.2c-0.5,2.3-1.1,4.5-1.8,6.7c-0.9,2.8-1.8,5.6-2.4,7.3c-0.2,0.7-0.4,1.2-0.4,1.3
				c-0.1,0.5,0.4,9.4,0.9,17.5v0.1L121.4,239z M118.2,206.9l0.2,1.5c0.6,6,2.2,19.9,2.3,23.5c0.1,2.3,0.5,4.5,1,6.7l12.4-2.2
				c-0.3-5.2-1-16.9-0.8-17.5l0,0c0-0.1,0.2-0.6,0.4-1.3c0.6-1.7,1.5-4.4,2.4-7.3c0.7-2.1,1.3-4.3,1.7-6.4c-2,0.3-4.6,0.6-7.8,1
				C127,205.3,123,206,118.2,206.9z"/>
		</g>
		<g>
			<path class="st12" d="M153.1,225.3l-0.2,0.3c-2.3,1.6-3.8,7.4-3.8,7.4l-14.6,3.7h-0.2c-0.3-4.3-1-17-0.9-17.6
				c0.1-0.4,1.6-4.5,2.9-8.6c1,2.5,3.1,7,3.7,7.6C140.7,218.7,149.6,223.4,153.1,225.3z"/>
			<path class="st9" d="M134.1,236.8v-0.2c-0.1-1.7-1-16.9-0.8-17.7c0-0.1,0.2-0.7,0.5-1.4c0.6-1.6,1.5-4.4,2.4-7.2l0.1-0.4l0.2,0.4
				c1.4,3.4,3.1,7.1,3.7,7.6c0.8,0.7,10.2,5.7,13.1,7.2l0.2,0.1l-0.4,0.5c-2.2,1.6-3.7,7.2-3.7,7.3v0.1L134.1,236.8z M136.3,210.9
				c-0.8,2.6-1.7,5.2-2.2,6.8c-0.3,0.7-0.4,1.3-0.5,1.4c-0.1,0.5,0.4,10.6,0.8,17.4l14.5-3.7c0.2-0.8,1.7-5.8,3.8-7.4l0.1-0.1
				c-3.8-2-12.2-6.4-13-7.1C139.1,217.5,137,212.6,136.3,210.9z"/>
		</g>
		<g>
			<path class="st12" d="M158.4,211.6c-0.1,0.1-0.1,0.1-0.1,0.1c-1.4,1.8-1.4,7-1.5,8.1c0,0.9-2.9,4.4-3.7,5.4
				c-3.5-1.9-12.4-6.5-13.1-7.2c-0.7-0.6-2.7-5.2-3.7-7.6c0.7-2.2,1.3-4.4,1.8-6.7l0,0c2.4,0.3,6.9,2.8,8.4,3.4
				C147.6,207.6,154.7,210.2,158.4,211.6z"/>
			<path class="st9" d="M153.2,225.5l-0.1-0.1c-3.7-1.9-12.4-6.5-13.1-7.2c-0.7-0.7-2.9-5.6-3.8-7.7v-0.1v-0.1
				c0.7-2.2,1.3-4.4,1.8-6.7v-0.2h0.2c1.7,0.2,4.5,1.6,6.6,2.6c0.8,0.4,1.4,0.7,1.9,0.9c1.1,0.4,7.9,2.9,11.5,4.3l0.6,0.2l-0.1,0.2
				c-0.1,0.1-0.1,0.1-0.1,0.1c-1.2,1.7-1.4,6.2-1.4,7.7v0.3c0,0.9-2.3,3.8-3.7,5.5L153.2,225.5z M136.5,210.4
				c1.8,4.3,3.2,7.1,3.7,7.5c0.7,0.7,9.9,5.5,13,7.1c2.2-2.6,3.5-4.6,3.6-5.2v-0.3c0-1.5,0.2-6.1,1.5-7.9l-0.2-0.1
				c-3.9-1.5-10.4-3.9-11.5-4.3c-0.4-0.2-1.1-0.5-1.9-0.9c-1.9-1-4.6-2.2-6.3-2.5C137.7,206.1,137.1,208.3,136.5,210.4z"/>
		</g>
		<g>
			<path class="st12" d="M160.8,203.8c-0.1,0.6-0.3,1.9-0.7,3.7c-0.3,1.5-0.9,2.9-1.7,4.1c-3.7-1.4-10.8-4-11.9-4.4
				c-1.5-0.6-6-3.1-8.4-3.4c5-0.7,5.3-0.9,6-1.1c0.3-0.1,1.3-1.5,2.6-3.4c1.2,0.6,3.5,1.7,4.6,2
				C152.5,201.7,158.6,203.3,160.8,203.8z"/>
			<path class="st9" d="M158.4,211.8h-0.1c-3.7-1.4-10.8-4-11.9-4.4c-0.4-0.2-1.1-0.5-1.9-0.9c-2-1-4.7-2.3-6.4-2.5l-1.3-0.2
				l1.3-0.2c4.6-0.6,5.2-0.8,5.8-1h0.2c0.2-0.1,0.7-0.7,2.5-3.3l0.1-0.1l0.1,0.1c1,0.5,3.4,1.7,4.6,2c0.9,0.3,4.2,1.1,9.5,2.5h0.1
				v0.2c-0.1,0.7-0.4,2.2-0.7,3.7s-0.9,2.9-1.8,4.2L158.4,211.8z M139.1,203.8c1.7,0.5,3.9,1.5,5.6,2.3c0.8,0.4,1.5,0.7,1.9,0.9
				c1.1,0.4,8,3,11.8,4.4c0.8-1.2,1.4-2.5,1.6-3.9c0.3-1.4,0.5-2.8,0.6-3.5c-5.3-1.4-8.5-2.2-9.4-2.5c-1.1-0.4-3.4-1.5-4.5-2
				c-1.8,2.8-2.3,3.3-2.6,3.3H144C143.4,203.1,142.9,203.2,139.1,203.8z"/>
		</g>
		<g>
			<path class="st12" d="M168.5,185.8c-0.3,0.7-0.5,1.4-0.8,2.1c-0.6,1.7-2.6,3-4.5,7c-1.2,2.7-2,5.6-2.4,8.5c0,0,0,0.1-0.1,0.4
				c-2.2-0.6-8.2-2.1-9.5-2.5c-1.1-0.4-3.4-1.5-4.6-2c2.5-3.9,5.9-9.6,5.9-9.6s-2.2-3.4-5-8c1.8,0.1,8.1,0.3,8.5,0.3h0.1
				c0.5,0.1,1.6,0.9,2.4,1.4c0.3,0.2,0.6,0.3,0.9,0.5c0.6,0.2,3.3,0,4.2,0c0.1,0,0.1,0,0.2,0C164.3,184,166.9,185.1,168.5,185.8z"/>
			<path class="st9" d="M160.9,204h-0.2c-5.3-1.4-8.6-2.3-9.5-2.5c-1.2-0.4-3.6-1.6-4.6-2.1l-0.2-0.1l0.1-0.2
				c2.3-3.6,5.4-8.8,5.8-9.5c-0.4-0.6-2.4-3.8-5-7.9l-0.2-0.3h0.3c3,0.1,8.1,0.3,8.5,0.3c0.1,0,0.1,0,0.2,0c0.4,0.1,1.1,0.6,1.8,1.1
				c0.2,0.1,0.4,0.3,0.6,0.4c0.3,0.2,0.5,0.3,0.8,0.5c0.3,0.1,1.6,0.1,2.6,0c0.6,0,1.2-0.1,1.5,0c0.1,0,0.1,0,0.2,0
				c0.4,0,1.9,0.6,4.7,1.8l0.1,0.1l-0.1,0.1c-0.1,0.3-0.2,0.5-0.3,0.8c-0.2,0.4-0.3,0.9-0.5,1.4c-0.3,0.8-0.8,1.4-1.5,2.3
				c-0.9,1.1-2,2.5-3,4.8c-1.2,2.7-2,5.6-2.3,8.5c0,0,0,0.1-0.1,0.4L160.9,204z M146.9,199.2c1.1,0.5,3.3,1.6,4.4,2
				c0.9,0.3,4.1,1.1,9.3,2.5c0-0.1,0-0.2,0-0.2c0.4-3,1.2-5.8,2.4-8.6c1.1-2.3,2.2-3.7,3.1-4.8c0.7-0.8,1.2-1.5,1.4-2.2
				c0.2-0.5,0.3-0.9,0.5-1.4c0.1-0.2,0.2-0.4,0.2-0.6c-3.3-1.4-4.2-1.7-4.4-1.8c-0.1,0-0.1,0-0.2,0c-0.4,0-0.9,0-1.5,0
				c-1.4,0.1-2.4,0.1-2.8-0.1c-0.3-0.1-0.6-0.3-0.9-0.5c-0.2-0.1-0.4-0.2-0.6-0.4c-0.7-0.4-1.4-0.9-1.8-1h-0.1
				c-0.4,0-6.7-0.2-8.2-0.3c2.8,4.4,4.9,7.7,4.9,7.7l0.1,0.1l-0.1,0.1C152.7,189.8,149.4,195.4,146.9,199.2z"/>
		</g>
		<g>
			<path class="st12" d="M160.5,146.6c-2.4-0.2-3,2.2-11.1,4h-0.2c-6,1.3-12,2.9-15,3.7l-3.6-6.6l-6.7-12.3c2.8-0.5,5.3,0.8,5.7,1
				c0.5,0.2,3.2,0.7,7.7,0.6h0.7c1.4,2.3,4.6,7.4,4.7,7.4c0.1,0,7.8-2.2,11.3-3.2L160.5,146.6z"/>
			<path class="st9" d="M134.1,154.5l-10.4-19.3h0.2c2.5-0.5,4.6,0.5,5.5,0.9c0.1,0.1,0.2,0.1,0.3,0.1c0.5,0.2,3.1,0.7,7.7,0.6h0.8
				v0.1c2,3.3,4.2,6.9,4.6,7.3c0.5-0.1,4.6-1.3,7.9-2.2c1.3-0.4,2.4-0.7,3.4-0.9h0.1l6.9,5.7h-0.5c-1-0.1-1.6,0.3-2.7,0.9
				c-1.5,0.8-3.7,2-8.4,3.1h-0.2c-5.5,1.2-11.2,2.7-15,3.7L134.1,154.5z M124.2,135.5l10.1,18.6c3.8-1,9.4-2.5,14.9-3.7h0.2
				c4.6-1,6.8-2.2,8.3-3c0.9-0.5,1.6-0.9,2.4-0.9l-6-5c-0.9,0.3-2.1,0.6-3.3,0.9c-6.3,1.8-7.9,2.2-8,2.2s-0.3,0-4.8-7.4h-0.6
				c-4.6,0.1-7.3-0.5-7.8-0.6c-0.1,0-0.2-0.1-0.3-0.1C128.4,136,126.5,135.1,124.2,135.5z"/>
		</g>
		<g>
			<path class="st12" d="M154.1,141.2c-3.5,1-11.2,3.1-11.3,3.2s-3.3-5.1-4.7-7.4c2.7,0,5.3-0.3,7.9-0.6c0.5-0.2,1-0.4,1.4-0.6
				L154.1,141.2z"/>
			<path class="st9" d="M142.8,144.6c-0.2,0-0.5-0.5-4.9-7.5l-0.2-0.2h0.3c2.6,0,5.3-0.3,7.9-0.6c0.5-0.2,0.9-0.4,1.4-0.6l0.1-0.1
				l7,5.8l-0.3,0.1C150.5,142.4,142.9,144.5,142.8,144.6L142.8,144.6z M138.3,137.1c3.3,5.4,4.2,6.8,4.5,7.1
				c0.8-0.2,7.5-2.1,10.9-3.1l-6.3-5.3c-0.4,0.2-0.9,0.4-1.4,0.6C143.5,136.9,140.9,137.1,138.3,137.1z"/>
		</g>
		<g>
			<path class="st12" d="M171.3,148.4c-2.3-0.4-8.4-1.6-10.6-1.8h-0.2l0,0l-6.4-5.3l-6.7-5.6c0.4-0.2,0.8-0.4,1.3-0.6
				c1.3-0.5,6.1-0.3,6.8-0.1c0.6,0.2,2.2,0,2.4-0.2s5-0.1,6.4-0.6s2.9-3.1,2.9-3.1s0.2,3,0.6,4.5c0.6,2.6,1.4,5.2,2.3,7.8
				C170.6,145.1,171,146.7,171.3,148.4z"/>
			<path class="st9" d="M171.5,148.6h-0.2c-2.5-0.5-8.4-1.6-10.6-1.8h-0.3l0,0l-13.3-11.1l0.2-0.1c0.4-0.2,0.8-0.4,1.3-0.6
				c1.4-0.6,6.2-0.3,6.9-0.1c0.6,0.2,2,0,2.2-0.1c0.1-0.1,0.3-0.1,2-0.2c1.5-0.1,3.7-0.1,4.5-0.4c1.3-0.4,2.8-3,2.8-3l0.3-0.5v0.5
				c0,0,0.2,3,0.6,4.5c0.6,2.6,1.4,5.2,2.3,7.7c0.6,1.6,1,3.3,1.2,4.9L171.5,148.6z M160.6,146.4h0.2c2.1,0.2,7.8,1.3,10.4,1.8
				c-0.3-1.6-0.7-3.1-1.2-4.6c-0.9-2.5-1.7-5.2-2.3-7.8c-0.2-1.2-0.4-3.1-0.5-4c-0.5,0.8-1.7,2.4-2.7,2.7c-0.8,0.3-3,0.4-4.6,0.4
				c-0.8,0-1.6,0.1-1.8,0.1c-0.3,0.2-1.9,0.4-2.5,0.2c-0.7-0.2-5.4-0.4-6.7,0.1c-0.4,0.2-0.8,0.3-1.1,0.5L160.6,146.4z"/>
		</g>
		<g>
			<path class="st12" d="M171,159.9c-0.1,0.4-0.2,0.7-0.3,1.1c-1.2,0-3.6,0.4-6.9,2.4c-0.2,0.1-0.5,0.3-0.7,0.4l-0.5-10
				c2.2,0.2,5.9,0.6,7.9,0.8C170.2,156.4,171.4,157.6,171,159.9z"/>
			<path class="st9" d="M163,164.1l-0.5-10.5h0.2c2.2,0.2,5.9,0.6,7.9,0.8h0.2v0.2c-0.1,0.8,0,1.4,0.2,2.2s0.5,1.8,0.3,3l0,0
				c-0.1,0.4-0.2,0.8-0.3,1.1v0.1h-0.1c-1.1,0-3.5,0.4-6.8,2.4l-0.1,0.1c-0.2,0.1-0.4,0.2-0.5,0.3L163,164.1z M162.8,154l0.5,9.5
				c0.1-0.1,0.2-0.1,0.3-0.2l0.1-0.1c3.3-2,5.7-2.4,6.9-2.5c0.1-0.3,0.2-0.6,0.3-1c0.2-1.2,0-2-0.3-2.9c-0.2-0.7-0.4-1.4-0.3-2.1
				C168.4,154.6,165,154.3,162.8,154z"/>
		</g>
		<g>
			<path class="st12" d="M170.7,161c-0.7,1.7-2.3,3.1-3.4,3.7c-1.4,0.8-1.5,1.5-1,2.8c0.1,0.3,0.2,0.5,0.3,0.8
				c-0.6,0.4-1.8,1.2-2.5,1.7c-0.2,0.1-0.4,0.2-0.6,0.3c-0.7,0.3-1.5,0.6-1.4,0.2c0.1-0.5,0.4-1.8,0-1.6c-0.3,0.1-1.6,0.7-2.3,1.1
				l-0.1-0.2l0,0c-0.4-0.6-0.8-1.3-1.3-2.1c0.8-0.9,2.3-2.2,4.9-3.9c0.2-0.1,0.4-0.3,0.7-0.4C167.1,161.4,169.5,161,170.7,161z"/>
			<path class="st9" d="M162.2,170.9c-0.1,0-0.2,0-0.3-0.1s-0.1-0.2-0.1-0.3s0-0.2,0.1-0.3c0.1-0.3,0.2-0.9,0.1-1.1
				c-0.3,0.1-1,0.5-1.7,0.8l-0.8,0.4l-0.2-0.4c-0.3-0.6-0.8-1.3-1.3-2.1l-0.1-0.1l0.1-0.1c1.1-1.2,2.7-2.5,4.9-3.9
				c0.1-0.1,0.3-0.2,0.4-0.2l0.3-0.2c3.4-2.1,5.8-2.4,7-2.5h0.3l-0.1,0.2c-0.7,1.8-2.3,3.2-3.5,3.8c-1.4,0.8-1.4,1.5-0.9,2.6
				c0.1,0.2,0.2,0.5,0.3,0.8l0.1,0.1l-0.1,0.1c-0.6,0.4-1.8,1.2-2.6,1.7c-0.2,0.1-0.4,0.2-0.6,0.3h-0.1
				C162.9,170.7,162.5,170.9,162.2,170.9z M162.1,168.7c0.1,0,0.1,0,0.2,0.1c0.2,0.2,0.1,0.7,0,1.4c0,0.1,0,0.2-0.1,0.3l0,0
				c0.1,0.1,0.8-0.2,1.1-0.4h0.1c0.2-0.1,0.4-0.2,0.5-0.3c0.7-0.4,1.8-1.2,2.4-1.6c-0.1-0.3-0.2-0.5-0.3-0.7
				c-0.5-1.3-0.5-2.2,1.1-3.1c1.1-0.6,2.5-1.8,3.3-3.4c-1.2,0.1-3.5,0.5-6.5,2.4l-0.3,0.2c-0.1,0.1-0.3,0.2-0.4,0.2
				c-2.1,1.3-3.7,2.6-4.8,3.7c0.5,0.7,0.9,1.4,1.3,2l0.1,0.1l0.5-0.2c0.7-0.3,1.5-0.7,1.7-0.8C162,168.7,162.1,168.7,162.1,168.7z"
				/>
		</g>
		<g>
			<path class="st12" d="M169,179.2c-0.7-0.1-1.3-0.2-1.9-0.4c-0.4-0.1-2.5,0-3.5,0c0-1.5-0.1-4,0.3-5.1c0.1-0.3,0.2-0.6,0.2-1
				c0.1-0.9,0.1-1.8,0-2.7c0.8-0.5,2-1.3,2.5-1.7c0.8,2,1.4,4,1.7,6.1C168.6,176,168.8,177.6,169,179.2z"/>
			<path class="st9" d="M169.1,179.4h-0.2c-0.7-0.1-1.3-0.2-2-0.4c-0.3-0.1-2.2,0-3.4,0h-0.2v-0.2c0-0.3,0-0.5,0-0.8
				c0-1.5,0-3.4,0.3-4.4c0.1-0.3,0.2-0.6,0.2-0.9c0.1-0.9,0.1-1.8,0-2.7v-0.1l0.1-0.1c0.8-0.5,2-1.3,2.5-1.7l0.2-0.1l0.1,0.2
				c0.8,2,1.4,4,1.7,6.1c0.3,1.6,0.5,3.2,0.7,4.8L169.1,179.4z M165.9,178.6c0.6,0,1,0,1.2,0c0.6,0.2,1.2,0.3,1.7,0.4
				c-0.1-1.5-0.4-3.1-0.7-4.6c-0.3-2-0.9-4-1.6-5.8c-0.6,0.4-1.6,1.1-2.3,1.5c0.1,0.9,0.1,1.8,0,2.6c0,0.3-0.1,0.7-0.2,1
				c-0.3,0.9-0.3,2.8-0.3,4.3c0,0.2,0,0.4,0,0.7C164.3,178.7,165.2,178.6,165.9,178.6z"/>
		</g>
		<g>
			<path class="st12" d="M169.1,183c-0.1,0.9-0.3,1.9-0.6,2.7c-1.6-0.7-4.2-1.8-4.6-1.8c-0.1,0-0.1,0-0.2,0c0-0.8,0-1.8-0.2-2.1
				c-0.1-0.2-0.2-0.4-0.2-0.6c-0.1-0.4,0-1,0.2-1.2c0.1-0.1,0.1-0.6,0.1-1.2c1,0,3.1-0.1,3.5,0c0.6,0.2,1.3,0.3,1.9,0.4
				C169.1,180.9,169.1,182.2,169.1,183z"/>
			<path class="st9" d="M168.6,186l-0.6-0.3c-1.5-0.6-3.7-1.6-4.1-1.6c-0.1,0-0.1,0-0.2,0h-0.2v-0.2c0-1.6-0.1-2-0.2-2
				c-0.1-0.2-0.2-0.4-0.2-0.6c-0.1-0.5,0-1,0.2-1.3c0-0.1,0.1-0.4,0.1-1.1v-0.2h0.2c0.7,0,3.1-0.1,3.5,0c0.6,0.2,1.3,0.3,1.9,0.4
				h0.1v0.1c0.1,1.3,0.2,2.6,0.2,3.8l0,0c-0.1,1-0.3,1.9-0.6,2.8L168.6,186z M163.8,183.7C163.8,183.7,163.9,183.7,163.8,183.7
				c0.5,0.1,2.2,0.8,4.3,1.6l0.3,0.1c0.3-0.8,0.5-1.6,0.6-2.5c0-1.2-0.1-2.4-0.2-3.6c-0.6-0.1-1.2-0.2-1.8-0.4c-0.3,0-1.8,0-3.2,0
				c0,0.8,0,1.1-0.2,1.2c-0.1,0.1-0.2,0.6-0.1,1c0,0.2,0.1,0.4,0.2,0.5C163.7,181.8,163.8,182.1,163.8,183.7z"/>
		</g>
		<g>
			<path class="st12" d="M138.2,202.8c0,0.3-0.1,0.6-0.1,0.9l0,0c-1.9,0.3-4.5,0.6-8,1c-3.4,0.4-7.7,1.2-12.1,2
				c-0.1-0.5-0.1-1-0.1-1.2c-0.2-1.8-0.4-9.4-1.2-14.4l21.5-6.7C138.3,191.4,138.4,200.5,138.2,202.8z"/>
			<path class="st9" d="M117.9,207v-0.2c-0.1-0.5-0.1-1-0.1-1.2c-0.1-0.5-0.1-1.5-0.2-2.7c-0.2-3.2-0.4-8.1-1.1-11.7v-0.1l21.8-6.8
				v0.2c0.1,6.8,0.3,16.1,0.1,18.4c0,0.2-0.1,0.5-0.1,1v0.1h-0.1c-2,0.3-4.7,0.6-8,1c-3.2,0.4-7.2,1.1-12,2H117.9z M116.8,191.3
				c0.6,3.6,0.9,8.4,1,11.6c0.1,1.2,0.1,2.2,0.2,2.7c0,0.2,0.1,0.6,0.1,1c4.8-0.9,8.8-1.6,11.9-2c3.3-0.4,5.8-0.7,7.9-1
				c0.1-0.3,0.1-0.6,0.1-0.8l0,0c0.2-2.3,0.1-11.3-0.1-18.1L116.8,191.3z"/>
		</g>
		<g>
			<path class="st12" d="M138.1,184.5l-21.5,6.7c-0.2-1.2-0.5-2.4-1-3.6c-1.7-3.6-6-12.2-6-13.1c0-0.1,0-0.1,0-0.2
				c2-0.3,2.7-0.7,3.2-1.3c0.6-0.7,1.4-2,2.5-2s2.4,1.7,3.2,1.7c0.6,0,2.2-0.1,3.2-0.2c0.4,0.5,0.9,0.9,1.4,1.2
				c3.5,1.7,3.1,1.3,4.4,0.4s2.5-2,4.5-0.7c1.9,1.2,1.7,1.3,2,1c0.2-0.3,0.9-1,1.9,0.3c0.9,1.1,1.4,3.6,2.1,3.8
				C138,180.1,138,182.2,138.1,184.5z"/>
			<path class="st9" d="M116.5,191.4v-0.2c-0.2-1.2-0.5-2.4-1-3.5c-0.4-0.8-0.9-1.9-1.5-3.1c-2.6-5.3-4.6-9.4-4.6-10.1v-0.1v-0.2
				h0.2c2.1-0.3,2.7-0.8,3.1-1.2c0.1-0.1,0.2-0.2,0.3-0.3c0.6-0.7,1.3-1.7,2.3-1.7c0.6,0,1.3,0.5,1.9,1c0.5,0.4,1,0.8,1.3,0.8
				c0.6,0,2.3-0.1,3.2-0.2h0.1l0.1,0.1c0.4,0.5,0.8,0.9,1.3,1.2c2.9,1.4,3,1.3,3.7,0.7c0.1-0.1,0.3-0.2,0.4-0.3l0.1-0.1
				c1.2-0.9,2.6-1.9,4.5-0.6c0.6,0.4,1,0.7,1.3,0.9c0.2,0.1,0.3,0.2,0.4,0.2l0,0v-0.1c0.1-0.1,0.4-0.5,0.9-0.5
				c0.4,0,0.8,0.3,1.2,0.8s0.8,1.4,1.1,2.1c0.3,0.7,0.7,1.6,0.9,1.7h0.1v1.2c0,1.3,0.1,3,0.1,4.7v0.1h-0.1L116.5,191.4z
				 M109.8,174.5L109.8,174.5c0,0.7,2.7,6.3,4.5,10c0.6,1.2,1.1,2.3,1.5,3.1c0.5,1.1,0.8,2.3,0.9,3.4l21.2-6.6
				c0-1.7-0.1-3.3-0.1-4.6v-1c-0.4-0.2-0.7-0.9-1-1.8c-0.3-0.7-0.6-1.5-1-2c-0.4-0.4-0.7-0.7-1-0.7c-0.2,0-0.4,0.1-0.7,0.4l0,0
				c-0.2,0.3-0.3,0.2-0.8-0.1c-0.3-0.2-0.7-0.5-1.3-0.9c-1.8-1.1-3-0.2-4.2,0.6l-0.1,0.1c-0.2,0.1-0.3,0.2-0.4,0.3
				c-0.8,0.7-1.1,0.8-4.1-0.7c-0.5-0.3-1-0.7-1.4-1.2c-1.2,0.1-2.6,0.2-3.2,0.2c-0.5,0-1-0.4-1.5-0.8c-0.6-0.5-1.2-0.9-1.7-0.9
				c-0.8,0-1.5,0.9-2.1,1.5c-0.1,0.1-0.2,0.2-0.3,0.4C112.4,173.8,111.7,174.2,109.8,174.5z"/>
		</g>
		<g>
			<path class="st12" d="M152.6,189.6c0,0-3.4,5.7-5.9,9.6c-1.2,1.9-2.2,3.3-2.6,3.4c-0.7,0.2-1,0.4-6,1.1l0,0
				c0.1-0.4,0.1-0.7,0.1-0.9c0.2-2.3,0.1-11.4-0.1-18.3c-0.1-2.3-0.1-4.3-0.2-5.8c0.1,0,0.2,0,0.2,0c0.8-0.5,1.7-1.5,3.1-1
				c1.2,0.4,2.3,0.4,3.4-0.5c1,1.6,1.9,3.1,2.8,4.5C150.4,186.2,152.6,189.6,152.6,189.6z"/>
			<path class="st9" d="M137.9,203.9v-0.2c0.1-0.4,0.1-0.7,0.1-0.9c0.2-1.8,0.1-7.9-0.1-18.3c-0.1-2.3-0.1-4.3-0.2-5.8v-0.2h0.2h0.1
				c0.1-0.1,0.3-0.2,0.4-0.3c0.7-0.5,1.6-1.1,2.8-0.7c1.3,0.5,2.2,0.3,3.2-0.5l0.1-0.1l0.1,0.2c1,1.6,1.9,3.1,2.8,4.5
				c2.8,4.5,5,7.9,5,8l0.1,0.1l-0.1,0.1c0,0.1-3.4,5.8-5.9,9.6c-1.9,2.9-2.4,3.4-2.7,3.5l-0.2,0.1c-0.7,0.2-1.2,0.4-5.9,1
				L137.9,203.9z M138.1,178.8c0,1.5,0.1,3.4,0.1,5.6c0.2,10.4,0.3,16.6,0.1,18.4c0,0.2,0,0.4-0.1,0.7c4.4-0.6,5-0.8,5.6-1l0.2-0.1
				c0.1,0,0.6-0.4,2.5-3.3c2.3-3.6,5.4-8.8,5.8-9.5c-0.4-0.6-2.4-3.8-4.9-7.9c-0.9-1.4-1.8-2.9-2.7-4.4c-1,0.8-2.1,0.9-3.4,0.4
				c-1.1-0.4-1.8,0.2-2.5,0.6c-0.2,0.1-0.3,0.2-0.5,0.3C138.2,178.8,138.2,178.8,138.1,178.8z"/>
		</g>
		<g>
			<path class="st12" d="M144.7,177.1c-1.1,0.9-2.2,1-3.4,0.5c-1.4-0.5-2.3,0.5-3.1,1c-0.1,0-0.2,0.1-0.2,0
				c-0.7-0.2-1.2-2.7-2.1-3.8c-1-1.3-1.7-0.6-1.9-0.3s0,0.2-2-1s-3.3-0.2-4.5,0.7s-0.9,1.3-4.4-0.4c-0.5-0.3-1-0.7-1.4-1.2
				c-2.7-3.2-6.3-11.3-7.8-15.1l0.3-0.1l16.3-9.9l3.6,6.6l2.6,4.8c-1.8,0-1.9,0.7-1.9,1.7C134.9,161.3,140,169.6,144.7,177.1z"/>
			<path class="st9" d="M138,178.8h-0.1c-0.4-0.1-0.8-0.9-1.2-1.9c-0.3-0.7-0.6-1.5-1-2c-0.4-0.4-0.7-0.7-1-0.7l0,0
				c-0.2,0-0.4,0.1-0.7,0.4l0,0c-0.2,0.3-0.3,0.2-0.8-0.1c-0.3-0.2-0.7-0.5-1.3-0.9c-1.8-1.1-3-0.2-4.2,0.6l-0.1,0.1
				c-0.2,0.1-0.3,0.2-0.4,0.3c-0.8,0.7-1.1,0.8-4.1-0.7c-0.6-0.3-1.1-0.8-1.5-1.3c-2.8-3.3-6.4-11.7-7.9-15.1l-0.1-0.2l0.5-0.1
				l16.4-9.9l6.4,11.8h-0.3c-1.6,0-1.7,0.6-1.7,1.5c0,0.3,1.8,3.4,9.8,16.3l0.1,0.1l-0.1,0.1c-1.1,0.9-2.2,1-3.5,0.5
				c-1.1-0.4-1.8,0.2-2.5,0.6c-0.2,0.1-0.3,0.2-0.5,0.3C138.2,178.8,138.1,178.8,138,178.8z M134.7,173.9L134.7,173.9
				c0.4,0,0.8,0.3,1.3,0.8c0.4,0.5,0.8,1.4,1.1,2.1c0.3,0.7,0.7,1.6,0.9,1.7h0.1c0.1-0.1,0.3-0.2,0.4-0.3c0.7-0.5,1.6-1.1,2.8-0.7
				c1.2,0.4,2.2,0.3,3.1-0.4c-8.7-13.9-9.8-16-9.8-16.4c0-1,0.1-1.8,1.8-1.8l-6-11l-16.2,9.8H114c1.5,3.6,5,11.7,7.7,14.9
				c0.4,0.5,0.8,0.9,1.4,1.2c2.9,1.4,3,1.3,3.7,0.7c0.1-0.1,0.3-0.2,0.4-0.3l0.1-0.1c1.2-0.9,2.6-1.9,4.5-0.6
				c0.7,0.4,1.1,0.7,1.3,0.9c0.2,0.1,0.3,0.2,0.4,0.2l0,0v-0.1C134.1,174.1,134.4,173.9,134.7,173.9z"/>
		</g>
		<g>
			<path class="st12" d="M151.9,159.1c-3.1,0-13.3,0-14.9,0h-0.2l-2.6-4.8c3-0.8,9-2.4,15-3.7h0.2
				C149.8,152.3,150.8,156.7,151.9,159.1z"/>
			<path class="st9" d="M140.9,159.3c-1.9,0-3.4,0-3.9,0h-0.3l-2.7-5.1l0.2-0.1c3.8-1,9.5-2.5,15-3.7l0.4-0.1v0.2
				c0.4,1.8,1.4,6.2,2.5,8.5l0.1,0.2h-0.3c-0.9,0-2.4,0-4,0C145.7,159.3,143,159.3,140.9,159.3z M136.9,158.9h0.1
				c1.2,0,6.8,0,10.9,0c1.5,0,2.9,0,3.8,0c-1-2.3-2-6.4-2.4-8.2l0,0c-5.4,1.2-11,2.6-14.8,3.7L136.9,158.9z"/>
		</g>
		<g>
			<path class="st12" d="M170.5,154.6L170.5,154.6c-2-0.2-5.7-0.6-7.9-0.8c-1.1-0.1-1.8-0.2-1.9-0.2c-0.3-0.1-0.1-4.9,0-6.9
				c0-0.1,0-0.1,0-0.2c2.2,0.2,8.3,1.4,10.6,1.8c0.1,0.5,0.2,1.1,0.3,1.7C172,152.6,170.8,152.9,170.5,154.6z"/>
			<path class="st9" d="M170.7,154.9h-0.2c-2-0.2-5.6-0.6-7.9-0.8c-0.8-0.1-1.8-0.2-1.9-0.2c-0.2,0-0.4-0.1-0.2-7.1v-0.3h0.2
				c2.2,0.2,8.1,1.3,10.6,1.8h0.1v0.1c0.1,0.3,0.1,0.6,0.2,0.9c0,0.3,0.1,0.5,0.1,0.8c0.3,1.7-0.1,2.4-0.5,3.2
				c-0.2,0.4-0.5,0.8-0.6,1.4L170.7,154.9L170.7,154.9z M160.8,153.5c0.2,0,0.7,0.1,1.8,0.2c2.2,0.2,5.7,0.6,7.7,0.8
				c0.1-0.6,0.4-1,0.6-1.4c0.4-0.7,0.8-1.4,0.5-3c0-0.3-0.1-0.5-0.1-0.8s-0.1-0.5-0.1-0.8c-2.5-0.5-8-1.5-10.3-1.8
				C160.7,151.2,160.8,153.1,160.8,153.5z"/>
		</g>
		<g>
			<path class="st12" d="M158.2,167.7c-0.3,0.4-0.6,0.8-0.9,1.2c-0.2,0.3-0.5,3.8-0.7,7.1c-0.2,2.4-0.3,4.8-0.4,5.9h-0.1
				c-0.4,0-6.7-0.2-8.5-0.3c-0.9-1.4-1.9-3-2.8-4.5c-4.7-7.6-9.8-15.9-9.8-16.4c0-0.9,0.1-1.7,1.9-1.7h0.2c1.6,0,11.8,0,14.9,0
				c0.2,0.4,0.4,0.8,0.6,1.1C153.6,161.6,156.3,164.9,158.2,167.7z"/>
			<path class="st9" d="M156.3,182.2l-0.2-0.1c0,0,0,0-0.1,0c-0.4,0-7.2-0.2-8.5-0.3h-0.1v-0.1c-0.9-1.4-1.9-3-2.8-4.5
				c-9.9-15.8-9.9-16.3-9.9-16.5c0-1,0.2-1.8,2-1.8h0.2c1.2,0,6.8,0,10.9,0c1.7,0,3.1,0,4,0h0.1v0.1c0.2,0.4,0.4,0.7,0.6,1.1
				c1.2,1.4,3.8,4.8,5.7,7.5l0.1,0.1l-0.1,0.1c-0.3,0.4-0.6,0.8-0.9,1.2c0,0.1-0.2,0.9-0.7,7.1c-0.1,1.6-0.2,3.1-0.3,4.3
				c0,0.7-0.1,1.2-0.1,1.6L156.3,182.2z M147.6,181.5c2.2,0.1,7.8,0.3,8.4,0.3c0-0.4,0.1-0.9,0.1-1.4c0.1-1.2,0.2-2.7,0.3-4.3
				c0.5-6.7,0.7-7.1,0.7-7.2c0.2-0.4,0.5-0.8,0.8-1.2c-1.9-2.7-4.5-6-5.6-7.4c-0.3-0.3-0.5-0.7-0.6-1.1c-0.9,0-2.3,0-3.9,0
				c-4.1,0-9.7,0-10.9,0h-0.2c-1.6,0-1.7,0.6-1.7,1.5c0,0.3,1.4,2.8,9.8,16.3C145.8,178.6,146.8,180.1,147.6,181.5z"/>
		</g>
		<g>
			<path class="st12" d="M163.1,163.8c-2.6,1.7-4.1,3-4.9,3.9c-1.9-2.8-4.6-6.1-5.7-7.5c-0.3-0.3-0.5-0.7-0.6-1.1
				c-1.1-2.3-2.1-6.8-2.5-8.5c8.2-1.8,8.8-4.1,11.2-4l0,0l0.2,0.2c-0.1,2-0.2,6.8,0,6.9c0.1,0,0.8,0.1,1.9,0.2L163.1,163.8z"/>
			<path class="st9" d="M158.2,168l-0.1-0.2c-2-2.9-4.9-6.5-5.7-7.5c-0.3-0.4-0.5-0.7-0.7-1.1c-1.1-2.4-2.1-6.8-2.5-8.6v-0.2h0.2
				c4.7-1,6.9-2.3,8.3-3.1c1.1-0.6,1.8-1,2.9-0.9h0.1l0.3,0.3v0.1c-0.2,4.4-0.1,6.3,0,6.7c0.1,0,0.2,0,0.4,0c0.3,0,0.8,0.1,1.4,0.2
				h0.1l0.5,10.2l-0.1,0.1c-2.2,1.4-3.8,2.7-4.9,3.8L158.2,168z M149.5,150.7c0.4,1.9,1.4,6.1,2.5,8.4c0.2,0.4,0.4,0.7,0.6,1.1
				c0.8,1,3.6,4.4,5.6,7.3c1.1-1.2,2.7-2.4,4.7-3.7l-0.5-9.7c-0.5-0.1-0.9-0.1-1.2-0.1c-0.2,0-0.4-0.1-0.5-0.1l0,0
				c-0.2,0-0.4-0.1-0.2-7l-0.1-0.1c-0.9,0-1.6,0.3-2.7,0.9C156.3,148.4,154.1,149.6,149.5,150.7z"/>
		</g>
		<g>
			<path class="st12" d="M159.5,169.8L159.5,169.8c0,0.1-0.1,0.2-0.1,0.3c-0.1,0.6-0.2,1.7-0.3,3.1c-0.1,0.8-0.1,1.8-0.2,2.7
				l-2.4,0.1c0.3-3.3,0.6-6.8,0.7-7.1c0.2-0.4,0.5-0.9,0.9-1.2C158.7,168.4,159.2,169.1,159.5,169.8z"/>
			<path class="st9" d="M156.4,176.2V176c0.5-6.7,0.7-7.1,0.7-7.2c0.2-0.5,0.6-0.9,0.9-1.3l0.1-0.2l0.1,0.2c0.5,0.7,0.9,1.4,1.3,2.1
				v0.1v0.1c0,0.1-0.1,0.2-0.1,0.3c-0.1,0.5-0.2,1.5-0.3,3.1c-0.1,0.8-0.1,1.8-0.2,2.7v0.2L156.4,176.2z M158.2,167.9
				c-0.3,0.3-0.5,0.7-0.7,1c-0.1,0.1-0.2,1-0.7,6.9l2.1-0.1c0.1-0.9,0.1-1.8,0.2-2.6c0.1-1.7,0.2-2.7,0.3-3.2c0-0.1,0-0.2,0.1-0.3
				C159,169.2,158.6,168.5,158.2,167.9z"/>
		</g>
		<g>
			<path class="st12" d="M164,172.7c-0.4,0.1-1,0.2-1.4,0.4c-0.5,0.2-2.6,0.2-3.4,0.2c0.1-1.4,0.2-2.6,0.3-3.1l0.2-0.1
				c0.8-0.4,2-1,2.3-1.1c0.4-0.2,0.1,1.1,0,1.6s0.7,0.1,1.4-0.2c0.2-0.1,0.4-0.2,0.6-0.3C164.1,170.9,164.1,171.8,164,172.7z"/>
			<path class="st9" d="M160,173.4c-0.4,0-0.7,0-0.8,0H159v-0.2c0.1-1.7,0.2-2.7,0.3-3.2v-0.1l0.3-0.1c1.3-0.6,2.1-1,2.4-1.1
				c0.2-0.1,0.3,0,0.3,0c0.2,0.2,0.1,0.7,0,1.4c0,0.1,0,0.2-0.1,0.3l0,0c0.1,0.1,0.8-0.2,1.1-0.4h0.1c0.2-0.1,0.4-0.2,0.5-0.3
				l0.2-0.1v0.3c0.1,0.9,0.1,1.8,0,2.8v0.1H164c-0.4,0.1-1,0.2-1.4,0.4C162.2,173.4,160.9,173.4,160,173.4z M159.4,173.1
				c1.1,0,2.8,0,3.2-0.1s0.9-0.2,1.3-0.3c0.1-0.8,0.1-1.5,0-2.3c-0.1,0.1-0.2,0.1-0.3,0.2h-0.1c-0.8,0.3-1.2,0.5-1.5,0.3
				c-0.1-0.1-0.1-0.2-0.1-0.3s0-0.2,0.1-0.3c0.1-0.3,0.2-0.9,0.1-1.1c-0.3,0.1-1.1,0.5-2.3,1.1l-0.1,0.1
				C159.5,170.7,159.5,171.6,159.4,173.1z"/>
		</g>
		<g>
			<path class="st12" d="M163.6,183.9c-1,0-3.7,0.2-4.2,0c-0.3-0.1-0.6-0.3-0.8-0.5c0-0.6,0.1-1.3,0.1-2.2h4.6
				c0,0.2,0.1,0.4,0.2,0.6C163.6,182.1,163.6,183.1,163.6,183.9z"/>
			<path class="st9" d="M160.5,184.2c-0.5,0-0.9,0-1.1-0.1c-0.3-0.1-0.6-0.3-0.9-0.5l-0.1-0.1v-0.1c0-0.6,0.1-1.3,0.1-2.2V181h4.9
				v0.1c0,0.2,0.1,0.3,0.2,0.5c0.1,0.1,0.2,0.3,0.2,2.2v0.2h-0.2c-0.3,0-0.9,0-1.4,0C161.5,184.2,160.9,184.2,160.5,184.2z
				 M158.7,183.3c0.2,0.2,0.5,0.3,0.7,0.4c0.3,0.1,1.7,0.1,2.7,0c0.5,0,0.9,0,1.3,0c0-1.5-0.1-1.8-0.2-1.9c-0.1-0.2-0.1-0.3-0.2-0.5
				h-4.3C158.8,182.2,158.8,182.8,158.7,183.3z"/>
		</g>
		<g>
			<path class="st12" d="M159,176c-0.1,1.8-0.2,3.7-0.3,5.3c0,0.9-0.1,1.6-0.1,2.2c-0.8-0.5-1.9-1.3-2.4-1.4
				c0.1-1.1,0.2-3.5,0.4-5.9L159,176z"/>
			<path class="st9" d="M158.7,183.7l-0.2-0.2c-0.2-0.1-0.4-0.2-0.6-0.4c-0.7-0.4-1.4-0.9-1.8-1H156V182c0.1-1.1,0.2-3.4,0.4-5.9
				V176l2.7-0.1v0.2c-0.1,1.5-0.2,3.2-0.3,5.3c0,0.9-0.1,1.6-0.1,2.2L158.7,183.7z M156.4,181.9c0.4,0.2,1.1,0.6,1.7,1
				c0.1,0.1,0.2,0.1,0.3,0.2c0-0.5,0.1-1.2,0.1-1.9c0.1-2,0.2-3.7,0.3-5.1l-2.1,0.1C156.6,178.6,156.4,180.8,156.4,181.9z"/>
		</g>
		<g>
			<path class="st12" d="M163.8,173.7c-0.4,1.1-0.3,3.6-0.3,5.1c0,0.7,0,1.1-0.1,1.2c-0.2,0.2-0.3,0.7-0.2,1.2h-4.6
				c0.1-1.5,0.2-3.5,0.3-5.3c0.1-1,0.1-1.9,0.2-2.7c0.8,0,2.9,0,3.4-0.2c0.4-0.1,1-0.3,1.4-0.4C164,173.1,163.9,173.4,163.8,173.7z"
				/>
			<path class="st9" d="M163.5,181.4h-4.9v-0.2c0.1-2.1,0.2-3.8,0.3-5.3c0.1-1,0.1-1.9,0.2-2.7V173h0.4c0.9,0,2.7,0,3.2-0.1
				c0.4-0.1,0.9-0.3,1.4-0.4l0.2-0.1v0.2c0,0.3-0.1,0.7-0.2,1l0,0c-0.3,0.9-0.3,2.7-0.3,4.2c0,0.3,0,0.6,0,0.9c0,1-0.1,1.2-0.2,1.3
				c-0.1,0.1-0.2,0.6-0.1,1L163.5,181.4z M158.9,181.1h4.2c0-0.4,0-0.9,0.3-1.1c0,0,0.1-0.3,0.1-1.1c0-0.3,0-0.6,0-0.9
				c0-1.5,0-3.3,0.3-4.3c0.1-0.2,0.1-0.5,0.2-0.7c-0.4,0.1-0.9,0.2-1.2,0.3c-0.5,0.2-1.9,0.2-3.3,0.2h-0.1c-0.1,0.8-0.1,1.7-0.2,2.5
				C159.1,177.4,159,179.1,158.9,181.1z"/>
		</g>
	</g>
</g>
<g>
	<g>
		<path class="st6" d="M1044.4,200.7L1044.4,200.7v-0.1c0.4-1.6,1-3.3,1.9-4.7c3.3-5.3,4.3-11.7,3-17.8l-0.6-3.2
			c-0.2-1.5-0.5-2.8-0.7-4.3l0,0c-1.7-9.5-3.2-16.6-5.7-23c-4-11-7.4-22.2-10.2-33.4c-1.3-6.3-2.4-19.1-2.4-19.3
			c-0.2-3.5-3.3-6.2-6.8-5.9c-2.2,0.1-4.1,1.3-5.2,3.2c-3,5.1-7.5,10.2-9.5,10.9c-2.7,1-12.6,1.3-17.9,1.5
			c-7.2,0.3-9.9,0.4-11.6,1.5c-1.9,0.3-3.7,0.4-5.6,0.2c-3.5-1-26.2-2.5-34,0.6c-2.5,1-4.6,1.9-6.3,2.8l0,0l-1.6,0.8
			c-1,0.6-2.1,1.1-3.2,1.6c-11.3,1.6-22.6,2.4-34,2.6l0,0l-3,0.1c-19,0.4-30.5-1.9-32.2-2.5c-0.2-0.1-0.5-0.2-1-0.4
			c-4-1.8-14.9-6.6-27.4-4.3h-0.1h-0.3h-0.1l-1,0.2c-13.8,3-21.3,6.5-23.1,7.5c-2.7,1.1-22.8,7.8-31.1,10.2c-2-3.5-5.2-9.9-7.3-14
			c-6.2-12.2-7.3-14.3-9.5-15.7c-2.2-1.4-16.3-6.5-20.6-8c-20.5-7.2-21.4-6.7-24.1-5.1c-1.9,1-2.4,1.9-7.6,10.7
			c-4.5,7.5-16.3,27.4-20.5,30.2c-2.4,1-12.7,4.9-24.5,9.4c-14.9,5.7-33.4,12.8-48.2,18.5c-8.2,3.2-14.3,5.7-18.7,7.5
			c-2.5,1-4.3,1.8-5.7,2.4c-1.9,0.9-6.5,3-5.5,8c0.4,2.2,0.8,2.7,8,10.6c7.5,8.3,21.3,23.7,25.8,31.7c2.2,4.2,6.7,14.3,12.5,28.4
			l0,0c4.6,11.2,9.7,24.3,14.2,36.2l0,0c3.8,10.1,6.9,18.5,8.6,23.6c3.1,9.5,13.8,43.6,30.8,98.4l0,0l7.5,24.5l9,31.4l0,0
			l37.5,130.1c0.7,2.8,3.3,4.6,6.1,4.6c0.2,0,0.5,0,0.7,0l77.7-9.4h0.3l0.5-0.1h0.1l56.5-9.9l0,0l0.8-0.1l0.4-0.1l65-16.3
			c2.2-0.6,4-2.3,4.6-4.6c2.4-9,8.4-24.9,14.4-29.2c0.4-0.3,0.8-0.7,1.2-1.1c0,0,0.4-0.4,1-1.3l0,0c17.5-21.2,17.8-25.9,17.8-27.8
			v-1.3c0.6-21.8,3.5-28.7,5.1-30.9l0.6-0.7l0,0c4.4-6.2,7.4-13.4,8.8-20.8c1.6-8.2,2.5-14,3-16.5l0,0l0,0l0.3-1.6
			c0-0.1,0-0.3,0-0.4c1.5-12.4,4.9-24.5,9.9-35.8c3.4-7.2,7.7-13.9,12.8-20c3.2-4,6-7.5,7.5-11.9c0.7-1.9,1.5-4,2.2-5.9
			c0.4-1.1,0.9-2.2,1.3-3.4l0,0c1.9-4.6,3-9.3,3.2-14.3c0-4.2-0.1-9.9-0.7-17.5l0,0c-0.7-7.4-1.7-14.7-3.1-22
			c-1.6-9.6-4.2-19-7.8-28.1l0,0l0,0c-0.5-1.3-1-2.4-1.3-3.4c-0.4-0.9-0.7-1.9-0.7-3c0,0,0.4-0.7,2.4-1.8c6.3-3.5,14.3-10.5,18-19.7
			l0,0c0.8-2,1.4-4.1,1.8-6.3c0.7-5.2,0.3-10.6-1.3-15.7C1044.5,204.7,1044,202.7,1044.4,200.7z"/>
	</g>
	<g>
		<path class="st12" d="M821.8,279.5c-4.5,0.3-11.8,0.7-14.3,0.7c-3.8,0-9.5-7.8-14.3-7.8c-4.9,0-8.4,5.7-11,8.7
			c-2.1,2.4-5.2,4.5-14.2,5.7c-1.9,0.2-4.1,0.4-6.6,0.6c-14.3,0.9-19.1-5.7-27.3-7.2c-8.2-1.6-8.6,1.3-14.1,2.5
			c-5.5,1.2-9.4-6.3-24.2-13.6c-14.8-7.2-13.2-2.4-19.8-0.8s-16.7-8.1-18.1-7.7c-0.9,0.2-5.4,7.5-9,13.2
			c-4.3-11.5-9.5-24.7-14.3-36.3c8.7-1.2,28.4-4.1,63.1-9.9c44-7.2,81.3-13.7,89.2-15.2C793.9,229.1,809.8,265.2,821.8,279.5z"/>
		<path class="st9" d="M758.8,288.2c-7.8,0-12.8-2.3-17.1-4.4c-2.6-1.2-5-2.4-7.8-2.9c-5.2-1-7-0.1-9.3,0.9
			c-1.2,0.5-2.5,1.2-4.5,1.6c-3.3,0.7-6-1.3-10-4.4c-3.3-2.5-7.8-6-14.6-9.3c-10.5-5.1-12.4-4-15.1-2.5c-1,0.6-2.3,1.3-4.2,1.7
			c-4.8,1.1-11-3.1-15.1-5.8c-1.2-0.8-2.5-1.7-3.1-1.9c-0.4,0.4-2.2,2.6-8.4,12.8l-0.8,1.3l-0.5-1.4c-4.5-11.9-9.7-25.1-14.3-36.3
			l-0.4-0.9l1-0.1c8.7-1.2,28.4-4.1,63.1-9.9c46.2-7.6,84.9-14.4,89.2-15.2l0.6-0.1l0.2,0.5c6.3,15.3,22.5,52.5,34.7,66.9l1,1.1
			l-1.5,0.1c-5,0.3-11.9,0.7-14.4,0.7c-2,0-4.3-1.8-6.8-3.7c-2.6-2-5.2-4.1-7.5-4.1c-3.7,0-6.7,3.9-9,6.7c-0.5,0.6-1,1.2-1.4,1.7
			c-2.4,2.7-5.7,4.7-14.6,5.9c-1.9,0.2-4.2,0.4-6.7,0.6C760.5,288.2,759.6,288.2,758.8,288.2z M729.9,279c1.2,0,2.6,0.1,4.3,0.4
			c3,0.6,5.5,1.8,8.2,3.1c4.6,2.2,9.9,4.7,19,4.2c2.5-0.1,4.7-0.4,6.6-0.6c9.4-1.3,12-3.4,13.7-5.4c0.4-0.4,0.9-1,1.3-1.6
			c2.5-3.1,5.8-7.2,10.2-7.2c2.8,0,5.7,2.2,8.4,4.4c2.2,1.6,4.3,3.4,5.9,3.4c2.4,0,9.3-0.4,12.8-0.7c-12-15.1-27.4-50.3-33.7-65.5
			c-6.4,1.1-44.1,7.7-88.6,15c-33.5,5.5-53.1,8.4-62.2,9.7c4.3,10.6,9.2,22.8,13.4,34c7.3-11.9,8.1-12.2,8.6-12.2
			c0.7-0.1,1.7,0.4,4.3,2.2c3.7,2.5,9.8,6.6,13.9,5.6c1.6-0.4,2.8-1,3.8-1.6c3.4-1.9,5.8-2.7,16.5,2.5c6.9,3.4,11.6,6.9,14.9,9.4
			c3.9,2.9,6.2,4.7,8.8,4.1c1.8-0.4,3-1,4.2-1.5C725.6,279.7,727.2,279,729.9,279z"/>
	</g>
	<g>
		<path class="st9" d="M860.9,168.4l-72.3,43.8l-1.5,0.3c-7.9,1.4-45.2,7.9-89.2,15.2c-34.7,5.7-54.5,8.7-63.1,9.9
			c-5.3-13.1-10.2-24.3-12.8-29.1c-7.1-12.8-33-39.2-33.2-40.5s91.9-35.8,99-38.9c7.1-3.1,27.2-40.3,28.7-41.2
			c1.4-0.9,36,11.6,38.1,13c2,1.3,15.5,31.5,17.8,31.5s34.6-10.7,36.3-11.6c1.6-0.9,8.7-4.1,21.7-6.9c0.3-0.1,0.7-0.1,1-0.1
			L860.9,168.4z"/>
		<path class="st9" d="M634.2,238.3l-0.2-0.5c-4.2-10.2-9.7-23.5-12.8-29c-4.7-8.7-18.3-23.7-26.4-32.7c-5.8-6.4-6.6-7.4-6.7-8
			c-0.1-1-0.2-1.5,74.6-30.1c12.7-4.9,22.7-8.7,24.9-9.6c4.8-2,16.6-21.8,23-32.4c4.1-6.8,5.1-8.4,5.6-8.7
			c2.3-1.3,38.5,12.8,38.8,13c1,0.6,2.9,4.3,7.5,13.4c3.5,6.9,8.7,17.3,10.1,18c2,0,34.1-10.6,35.8-11.5c0.7-0.4,7.8-4,21.9-7
			c0.4-0.1,0.7-0.1,1-0.1l0.5-0.1l30.2,55.7l-73.2,44.3l-1.5,0.3c-1.6,0.3-41.2,7.2-89.2,15.2c-34.8,5.7-54.5,8.7-63.1,9.9
			L634.2,238.3z M589.7,168.1c0.8,1,3.4,3.9,6.1,6.9c8.2,9,21.9,24.2,26.7,33c3,5.5,8.4,18.5,12.6,28.7c9-1.3,28.6-4.2,62.5-9.8
			c48-7.9,87.6-14.9,89.2-15.2l1.3-0.2l71.7-43.4l-29-53.6c-0.1,0-0.3,0.1-0.4,0.1c-13.9,3-20.8,6.5-21.6,6.9
			c-1.5,0.7-34,11.6-36.6,11.6c-1.6,0-4-4.5-11.3-18.8c-2.9-5.7-6.2-12.2-6.9-12.8c-2.2-1.4-34.2-12.8-37.3-12.9
			c-0.5,0.6-2.7,4.3-5.1,8.1c-9.3,15.6-18.8,31-23.7,33c-2.2,0.9-12.2,4.7-24.9,9.6C637.3,149.2,594.8,165.4,589.7,168.1z"/>
	</g>
	<g>
		<path class="st12" d="M799.1,361.6l-110.5,34.6c-9.9-32.1-26.6-85.7-30.9-98.6c-1.8-5.4-4.9-14-8.7-23.8c3.4-5.7,8.1-13,9-13.2
			c1.5-0.4,11.7,9.3,18.1,7.7c6.4-1.6,4.9-6.3,19.8,0.8c14.9,7.2,18.7,14.8,24.2,13.6c5.5-1.2,6-4.1,14.1-2.5
			c8.1,1.6,13,8.1,27.3,7.2c2.5-0.1,4.7-0.4,6.6-0.6c0.1,0.3,0.1,0.5,0.1,0.8c0,4,19.1,42.2,26.8,58.1
			C796.9,350.9,798.3,356.2,799.1,361.6z"/>
		<path class="st9" d="M688,397.2l-0.2-0.7c-6-19.5-26-84.1-30.9-98.6c-1.8-5.4-4.9-14-8.7-23.7l-0.1-0.4l0.2-0.3
			c8-13.2,8.9-13.4,9.3-13.6c0.7-0.1,1.7,0.4,4.3,2.2c3.7,2.5,9.8,6.5,13.8,5.5c1.6-0.4,2.7-1,3.7-1.6c3.4-1.9,5.8-2.7,16.5,2.5
			c6.9,3.4,11.5,6.9,14.9,9.4c3.9,2.9,6.2,4.7,8.8,4.1c1.8-0.4,3-1,4.2-1.5c2.5-1.1,4.6-2.1,10.2-1c3,0.6,5.5,1.8,8.1,3.1
			c4.6,2.2,9.9,4.7,19,4.2c2.5-0.1,4.7-0.4,6.6-0.6l0.7-0.1l0.1,0.7c0.1,0.3,0.1,0.7,0.1,1c0,3,12.6,29,21,46.1
			c2.2,4.5,4.2,8.6,5.7,11.7c2.1,5.1,3.5,10.5,4.3,16l0.1,0.6l-0.6,0.2L688,397.2z M649.7,273.9c3.7,9.6,6.8,18.1,8.6,23.5
			c4.8,14.3,24.4,77.6,30.7,97.9l109.3-34.3c-0.7-5.2-2.1-10.2-4-15c-1.5-3.1-3.5-7.2-5.7-11.7c-11.6-23.7-21.1-43.7-21.1-46.7l0,0
			c-1.7,0.2-3.7,0.4-6,0.5c-9.5,0.6-14.9-2-19.7-4.3c-2.5-1.2-5-2.4-7.8-2.9c-5.2-1-7-0.1-9.3,0.9c-1.2,0.5-2.5,1.2-4.5,1.6
			c-3.3,0.7-6-1.3-10-4.4c-3.3-2.5-7.8-6-14.6-9.3c-10.5-5.2-12.4-4-15.1-2.5c-1,0.6-2.3,1.3-4.1,1.7c-4.7,1.1-10.9-3-15-5.7
			c-1.2-0.8-2.6-1.7-3.1-1.9C657.6,261.8,655.9,263.8,649.7,273.9z"/>
	</g>
	<g>
		<path class="st12" d="M1029.2,337.4c-1.1,3.1-2.4,6.2-3.5,9.4c-2.5,7.6-11.6,13.1-20,31.2c-5.4,12-8.9,24.9-10.4,37.9
			c0,0-0.1,0.6-0.3,1.7c-9.6-2.5-36.5-9.5-42.2-11.3c-5.1-1.6-15.2-6.5-20.4-9.1c11.2-17.1,26.2-42.6,26.2-42.6s-9.7-15.3-22.3-35.3
			c8.1,0.3,35.9,1.3,37.8,1.3c0.2,0,0.4,0.1,0.6,0.1c2.1,0.7,6.9,4,10.7,6.4c1.2,0.8,2.5,1.6,3.8,2.2c2.5,1,14.5-0.1,18.7,0
			c0.3,0,0.7,0,1,0C1010.7,329.5,1022.2,334.4,1029.2,337.4z"/>
		<path class="st9" d="M995.5,418.7l-0.8-0.2c-23.7-6.2-38.3-10.1-42.2-11.3c-5.3-1.6-16.1-6.9-20.5-9.1l-0.7-0.4l0.4-0.7
			c10.3-15.7,24-39,25.9-42.2c-1.6-2.5-10.6-16.7-22.1-34.9l-0.7-1.2l1.4,0.1c13.2,0.4,36.1,1.3,37.8,1.3c0.3,0,0.6,0.1,0.8,0.1
			c1.6,0.5,5,2.7,8.2,4.8c0.9,0.6,1.8,1.2,2.6,1.7c1.2,0.8,2.4,1.5,3.7,2.1c1.4,0.6,7.2,0.3,11.7,0.1c2.7-0.1,5.2-0.2,6.8-0.1
			c0.3,0,0.6,0,1,0c1.6,0.2,8.4,2.8,20.7,8.2l0.7,0.3l-0.2,0.7c-0.4,1.1-0.8,2.2-1.3,3.4c-0.7,1.9-1.6,4-2.2,6
			c-1.1,3.4-3.5,6.4-6.5,10.2c-3.9,4.9-8.8,11-13.5,21.1c-5.3,11.9-8.8,24.6-10.4,37.7c0,0.1-0.1,0.6-0.3,1.7L995.5,418.7z
			 M933.4,397c4.8,2.4,14.6,7.2,19.6,8.7c3.9,1.2,18.1,5,41.3,11c0.1-0.6,0.1-0.9,0.1-0.9c1.6-13.1,5.2-26,10.5-38.1
			c4.9-10.3,9.8-16.5,13.7-21.4c2.9-3.7,5.2-6.6,6.3-9.7c0.7-2.1,1.5-4.1,2.2-6.1c0.4-0.9,0.7-1.8,1-2.7
			c-14.5-6.2-18.7-7.7-19.6-7.8c-0.2,0-0.5,0-0.8,0c-1.6-0.1-4.1,0.1-6.7,0.1c-6.2,0.3-10.7,0.4-12.3-0.2c-1.4-0.7-2.7-1.4-4-2.2
			c-0.8-0.5-1.7-1.1-2.6-1.6c-3-1.9-6.3-4.2-7.8-4.6c-0.1-0.1-0.2-0.1-0.4-0.1c-1.9,0-29.6-1-36.3-1.2
			c12.2,19.4,21.6,34.1,21.6,34.1l0.2,0.4l-0.2,0.4C959,355.3,944.4,380.1,933.4,397z"/>
	</g>
	<g>
		<path class="st12" d="M993.7,163.5c-10.5-0.7-13.3,9.6-49.4,17.6l-0.9,0.2c-26.6,5.8-53.5,13-66.6,16.5l-16-29.5l-29.6-54.6
			c12.6-2.3,23.3,3.7,25.5,4.5c2.2,0.7,14.2,3.3,34.4,2.8h3c6.3,10.4,20.3,33,20.9,33s34.6-9.6,50.3-14L993.7,163.5z"/>
		<path class="st9" d="M876.5,198.7l-46.3-85.5l1-0.1c11-2,20.5,2.2,24.4,3.9c0.6,0.3,1,0.4,1.3,0.6c2.1,0.7,14,3.2,34.1,2.8h3.4
			l0.2,0.4c8.9,14.5,18.8,30.5,20.5,32.5c2.5-0.6,20.4-5.7,34.9-9.8c5.6-1.6,10.8-3.1,14.9-4.2l0.4-0.1l30.5,25.3l-2.3-0.1
			c-4.3-0.3-7.2,1.3-12,4c-6.5,3.6-16.3,9-37.2,13.7l-0.9,0.2c-24.3,5.3-49.6,11.9-66.6,16.4L876.5,198.7z M832.5,114.3l44.7,82.7
			c16.9-4.6,41.9-11.1,66-16.3l0.9-0.2c20.6-4.6,30.4-10,36.8-13.5c4.1-2.2,7.1-3.9,10.7-4.2l-26.5-22c-4,1.1-9.1,2.5-14.6,4.1
			c-28.1,7.9-35.2,9.9-35.6,9.9c-0.5,0-1.2,0-21.3-33h-2.5c-20.5,0.4-32.5-2.1-34.6-2.8c-0.3-0.1-0.8-0.3-1.5-0.6
			C851.3,116.6,842.7,112.8,832.5,114.3z"/>
	</g>
	<g>
		<path class="st12" d="M965.3,139.8c-15.7,4.5-49.7,13.9-50.3,14c-0.5,0.1-14.6-22.6-20.9-33c11.8-0.2,23.5-1.1,35.2-2.8
			c2.2-0.7,4.4-1.7,6.4-2.9L965.3,139.8z"/>
		<path class="st9" d="M915,154.7c-0.7,0-2.5-2.2-21.6-33.4l-0.7-1.1h1.3c11.7-0.2,23.5-1.1,35.1-2.8c2.1-0.7,4.2-1.6,6.1-2.8
			l0.4-0.2l31,25.9l-1.3,0.4c-16,4.4-49.7,13.8-50.2,13.9C915.1,154.7,915.1,154.7,915,154.7z M895.4,121.6
			c14.9,24.2,18.8,30.2,19.8,31.5c3.7-1,33.1-9.2,48.5-13.6l-28.1-23.4c-1.9,1.1-4,2-6.1,2.7C918.2,120.4,906.8,121.4,895.4,121.6z"
			/>
	</g>
	<g>
		<path class="st12" d="M1041.7,171.5c-10.2-1.9-37.3-7.1-47-8h-1l0,0l-28.4-23.7l-29.6-24.6c1.6-0.8,3.6-1.7,5.8-2.6
			c6-2.3,27.2-1.1,30-0.4s9.7,0,10.5-0.8s22.4-0.4,28.4-2.5c6-2,12.9-13.7,12.9-13.7s1,13.2,2.5,20.1c2.8,11.6,6.3,23.1,10.4,34.5
			C1038.7,156.8,1040.5,164.1,1041.7,171.5z"/>
		<path class="st9" d="M1042.6,172.5l-1-0.2c-11-2.1-37.4-7.1-46.9-8h-1.2l-0.2-0.1L934.3,115l1-0.5c1.6-0.7,3.5-1.7,5.8-2.6
			c6.3-2.5,27.6-1.2,30.5-0.4c2.6,0.7,9,0,9.9-0.6c0.4-0.4,1.5-0.5,8.8-0.8c6.9-0.3,16.3-0.7,19.9-1.9c5.7-1.9,12.4-13.3,12.5-13.4
			l1.2-2l0.2,2.3c0,0.1,1.1,13.2,2.5,19.9c2.8,11.6,6.3,23.1,10.4,34.4c2.5,7.1,4.3,14.5,5.4,21.9L1042.6,172.5z M994,162.8h0.7
			c9.3,0.9,34.6,5.6,46.1,7.8c-1.1-7-2.9-14-5.2-20.7c-4-11.3-7.5-22.9-10.4-34.6c-1.1-5.2-1.9-13.9-2.4-17.9
			c-2.2,3.4-7.4,10.5-12.1,12.2c-3.7,1.3-13.3,1.6-20.2,1.9c-3.6,0.1-7.2,0.3-8,0.5c-1.4,1-8.4,1.6-11.1,0.9
			c-2.9-0.8-24-1.9-29.6,0.3c-1.8,0.7-3.4,1.4-4.7,2.1L994,162.8z"/>
	</g>
	<g>
		<path class="st12" d="M1040.3,222.5c-0.3,1.6-0.7,3.3-1.4,4.9c-5.3,0.2-15.9,1.9-30.6,10.8c-1,0.7-2,1.3-3,1.9l-2.2-44.2
			c9.9,1.1,26.3,2.8,35,3.7C1036.7,207,1041.9,212.4,1040.3,222.5z"/>
		<path class="st9" d="M1004.7,241.4l-2.3-46.4l0.9,0.1c10,1.1,26.2,2.8,35,3.7l0.8,0.1l-0.1,0.8c-0.7,3.4,0.1,6.4,1,9.6
			c1,3.7,2,7.9,1.2,13.4l0,0c-0.3,1.7-0.7,3.4-1.4,5.1l-0.1,0.4h-0.4c-5,0.1-15.5,1.8-30.2,10.7l-0.6,0.4c-0.8,0.5-1.6,1-2.3,1.5
			L1004.7,241.4z M1003.9,196.7l2.1,42.1c0.4-0.3,0.8-0.5,1.3-0.8l0.6-0.4c14.6-8.8,25.2-10.6,30.5-10.9c0.5-1.4,0.9-2.8,1.2-4.3
			c0.8-5.2-0.1-9-1.1-12.8c-0.8-3.1-1.6-6.1-1.1-9.5C1028.6,199.3,1013.7,197.7,1003.9,196.7z"/>
	</g>
	<g>
		<path class="st12" d="M1038.9,227.4c-3.1,7.8-10.2,13.7-15.2,16.6c-6.1,3.4-6.6,6.9-4.5,12.6c0.4,1.2,0.9,2.3,1.5,3.7
			c-2.5,1.7-7.8,5.4-11.3,7.5c-0.7,0.5-1.6,1-2.5,1.3c-3.1,1.3-6.7,2.8-6.4,0.7c0.3-2,1.9-7.8,0-7c-1.3,0.6-7,3.3-10.4,4.9l-0.6-1.1
			l0,0c-1.6-2.7-3.6-5.8-5.9-9.2c3.6-4,10.1-9.9,21.7-17.2c1-0.6,1.9-1.2,3-1.9C1023,229.3,1033.7,227.6,1038.9,227.4z"/>
		<path class="st9" d="M1001.5,271.5c-0.4,0-0.9-0.1-1.2-0.4c-0.3-0.2-0.6-0.7-0.4-1.5c0.1-0.4,0.1-0.9,0.3-1.5
			c0.2-1.2,0.8-3.8,0.6-4.7c-1.3,0.5-4.6,2.1-7.5,3.5l-3.4,1.6l-1-1.7c-1.6-2.7-3.6-5.8-5.8-9.1l-0.3-0.4l0.4-0.4
			c4.8-5.4,12.2-11.2,21.9-17.3c0.6-0.4,1.1-0.7,1.7-1.1l1.3-0.7c14.9-9.1,25.8-10.8,30.9-11l1.1-0.1l-0.4,1
			c-3.2,7.9-10.4,14-15.6,16.9c-6,3.4-6.1,6.6-4.1,11.7c0.4,1.1,0.9,2.3,1.5,3.6l0.2,0.6l-0.5,0.4c-2.7,1.9-7.9,5.4-11.3,7.5
			c-0.8,0.5-1.6,1-2.5,1.3l-0.4,0.1C1004.4,270.8,1002.7,271.5,1001.5,271.5z M1000.9,261.9c0.4,0,0.6,0.1,0.7,0.3
			c1,0.8,0.6,3-0.1,6.3c-0.1,0.6-0.2,1-0.3,1.4c0,0.1,0,0.1,0,0.1c0.5,0.2,3.4-1,5-1.6l0.4-0.1c0.8-0.4,1.6-0.7,2.3-1.3
			c3.2-1.9,8-5.1,10.7-7.1c-0.4-1.1-0.9-2.2-1.3-3.1c-2.2-5.7-2.1-9.7,4.8-13.5c4.7-2.6,11.2-8.1,14.4-15.2
			c-5.4,0.4-15.5,2.4-29,10.7l-1.3,0.7c-0.6,0.4-1.1,0.7-1.7,1c-9.3,5.9-16.5,11.5-21.2,16.6c2.2,3.2,4.1,6.1,5.6,8.7l0.3,0.4l2.1-1
			c3.1-1.5,6.6-3.2,7.7-3.6C1000.5,261.9,1000.7,261.9,1000.9,261.9z"/>
	</g>
	<g>
		<path class="st12" d="M1031.3,308.5c-2.9-0.4-5.7-1-8.6-1.7c-1.7-0.3-11-0.1-15.3,0c0-6.7-0.4-17.7,1.2-22.8
			c0.4-1.4,0.7-2.8,0.9-4.3c0.4-4,0.4-8.1-0.1-12.1c3.4-2,8.8-5.7,11.3-7.5c3.5,8.7,6,17.7,7.6,26.9
			C1029.6,294.2,1030.6,301.3,1031.3,308.5z"/>
		<path class="st9" d="M1032.1,309.3l-0.9-0.1c-2.9-0.4-5.8-1-8.7-1.7c-1.4-0.2-9.9-0.1-15.2,0h-0.7v-0.7c0-1.1,0-2.3,0-3.7
			c-0.1-6.7-0.1-15,1.3-19.4c0.4-1.3,0.7-2.8,0.8-4.1c0.4-4,0.4-7.9-0.1-11.9l-0.1-0.4l0.4-0.2c3.4-2,8.7-5.6,11.3-7.4l0.7-0.5
			l0.4,0.9c3.5,8.7,6,17.8,7.6,27c1.3,7.1,2.4,14.3,3.1,21.5L1032.1,309.3z M1017.5,305.9c2.5,0,4.6,0.1,5.3,0.1
			c2.5,0.7,5.1,1.2,7.7,1.6c-0.7-6.8-1.6-13.7-3-20.4c-1.5-8.8-4-17.5-7.2-25.9c-2.6,1.9-7,4.8-10.2,6.6c0.4,3.9,0.4,7.8,0,11.7
			c-0.1,1.5-0.4,3-0.9,4.4c-1.3,4.1-1.3,12.3-1.2,18.9c0,1,0,2,0,2.9C1010.6,306,1014.4,305.9,1017.5,305.9z"/>
	</g>
	<g>
		<path class="st12" d="M1032,325.4c-0.2,4.2-1.2,8.2-2.8,12.1c-7-3-18.5-7.9-20.5-8.1c-0.3,0-0.7,0-1,0c0-3.4-0.1-8.2-0.9-9.4
			c-0.4-0.7-0.7-1.6-0.8-2.5c-0.3-1.9-0.1-4.3,0.8-5.1c0.4-0.4,0.5-2.5,0.5-5.4c4.3-0.1,13.7-0.2,15.3,0c2.8,0.7,5.7,1.3,8.6,1.7
			C1032,316,1032,321.6,1032,325.4z"/>
		<path class="st9" d="M1029.6,338.4l-2.8-1.2c-6.5-2.8-16.4-6.9-18.1-7.2c-0.2,0-0.5,0-0.8,0l-0.8,0.1v-0.8c0-7.2-0.6-8.7-0.7-9
			c-0.5-0.9-0.8-1.8-0.9-2.8c-0.3-2-0.1-4.6,1-5.8c0.1-0.3,0.3-2,0.3-4.9v-0.7h0.7c3.1-0.1,13.6-0.2,15.5,0c2.9,0.7,5.7,1.3,8.6,1.7
			l0.6,0.1l0.1,0.6c0.5,5.9,0.7,11.4,0.7,16.9v0.1c-0.2,4.3-1.2,8.4-2.9,12.3L1029.6,338.4z M1008.4,328.6c0.1,0,0.1,0,0.3,0
			c1.9,0.2,9.6,3.4,18.6,7.2l1.5,0.6c1.4-3.6,2.2-7.3,2.5-11.1c0-5.2-0.2-10.5-0.7-16.2c-2.8-0.4-5.4-1-8.1-1.6
			c-1.3-0.1-8.1-0.1-14.4,0c0,3.5-0.2,4.7-0.7,5.2c-0.7,0.7-0.9,2.6-0.6,4.6c0.1,0.8,0.4,1.6,0.7,2.2
			C1007.8,319.9,1008.4,321,1008.4,328.6z"/>
	</g>
	<g>
		<path class="st12" d="M894.8,413.1c-0.1,1.2-0.3,2.6-0.6,4.2l0,0c-8.4,1.2-19.9,2.7-35.5,4.6c-15.3,1.9-34.2,5.2-53.5,9
			c-0.3-2.4-0.4-4.3-0.6-5.3c-0.8-8.1-1.7-41.6-5.5-64l95.2-29.9C895.1,362.5,895.8,403,894.8,413.1z"/>
		<path class="st9" d="M804.5,431.7l-0.1-0.8c-0.3-2.5-0.4-4.3-0.6-5.3c-0.2-2.2-0.4-6.6-0.7-11.9c-0.8-14.3-2-35.9-4.7-51.9
			l-0.1-0.7l96.8-30.4v1c0.7,30.1,1.4,71.3,0.4,81.4c-0.1,1.1-0.3,2.4-0.6,4.3l-0.1,0.5l-0.5,0.1c-9.1,1.3-20.7,2.8-35.5,4.6
			c-14.1,1.8-32.1,4.8-53.4,8.9L804.5,431.7z M800,362.2c2.7,16,3.9,37.3,4.6,51.4c0.3,5.4,0.5,9.6,0.7,11.9c0.1,1,0.2,2.5,0.4,4.5
			c21.1-4,38.8-7,52.8-8.8c14.6-1.9,26-3.4,34.9-4.6c0.3-1.5,0.4-2.6,0.5-3.6l0,0c1-10,0.2-50.3-0.4-80.3L800,362.2z"/>
	</g>
	<g>
		<path class="st12" d="M894.3,331.8l-95.2,29.9c-0.7-5.4-2.2-10.7-4.3-15.8c-7.6-15.9-26.8-54.2-26.8-58.1c0-0.3,0-0.6-0.1-0.8
			c9-1.1,12.1-3.3,14.2-5.7c2.5-3,6.1-8.7,11-8.7c4.9,0,10.5,7.8,14.3,7.8c2.6,0,9.9-0.4,14.3-0.7c1.7,2.2,3.8,4,6.2,5.4
			c15.5,7.5,13.9,5.6,19.3,1.6c5.4-4,11.2-8.7,19.9-3.2c8.7,5.4,7.6,5.7,8.7,4.4c1.1-1.3,4-4.4,8.5,1.3c4,5.1,6.3,16.2,9.3,17
			C893.8,312.5,894.1,321.6,894.3,331.8z"/>
		<path class="st9" d="M798.4,362.6l-0.1-0.9c-0.7-5.4-2.2-10.7-4.3-15.7c-1.7-3.6-4-8.4-6.6-13.7c-11.5-23.5-20.2-41.8-20.2-44.8
			c0-0.2,0-0.4-0.1-0.7l-0.2-0.8l0.8-0.1c9.3-1.2,11.9-3.4,13.7-5.4c0.4-0.4,0.8-1,1.2-1.5c2.5-3.1,5.9-7.4,10.3-7.4
			c2.8,0,5.7,2.2,8.4,4.4c2.2,1.6,4.3,3.4,5.9,3.4c2.5,0,10.1-0.4,14.3-0.7h0.4l0.2,0.3c1.6,2.2,3.7,3.9,6,5.2
			c13,6.2,13.4,5.8,16.6,3.2c0.5-0.4,1.2-1,1.9-1.5l0.6-0.4c5.3-3.9,11.3-8.4,20.1-2.8c2.8,1.8,4.6,3,5.8,3.8c0.7,0.5,1.3,0.9,1.6,1
			l0.1-0.1l0.2-0.2c0.4-0.6,1.9-2.4,4.1-2.3c1.8,0,3.7,1.2,5.5,3.6c1.9,2.4,3.4,6.1,4.8,9.4c1.3,3.3,2.9,7,4.1,7.4l0.5,0.1l0.1,5.3
			c0.1,5.9,0.4,13.1,0.6,21v0.5l-0.5,0.1L798.4,362.6z M768.8,287.4c0,0.1,0,0.1,0,0.2c0,2.9,12.1,27.7,20.1,44.1
			c2.5,5.3,4.9,10.1,6.6,13.7c2,4.9,3.4,10,4.2,15.2l93.9-29.4c-0.1-7.6-0.4-14.6-0.6-20.4l-0.1-4.3c-1.6-1-3-4.1-4.6-8
			c-1.3-3.2-2.8-6.8-4.6-9c-1.6-1.9-3.1-3-4.3-3c-1-0.1-2,0.6-3,1.7l-0.1,0.2c-1,1.2-1.6,0.8-3.7-0.7c-1.2-0.8-2.9-2-5.8-3.8
			c-7.9-5-13.3-1-18.4,2.8l-0.6,0.4c-0.7,0.5-1.3,1-1.9,1.5c-3.7,3.1-4.8,3.4-18.2-3c-2.5-1.4-4.5-3.2-6.2-5.3
			c-5.2,0.3-11.6,0.7-14,0.7c-2,0-4.3-1.8-6.8-3.7c-2.6-2-5.2-4.1-7.5-4.1c-3.7,0-6.9,4-9.1,6.9c-0.4,0.6-0.9,1.1-1.3,1.6
			C780.3,284.3,777.1,286.3,768.8,287.4z"/>
	</g>
	<g>
		<path class="st12" d="M958.5,354.7c0,0-15,25.5-26.2,42.6c-5.4,8.3-9.9,14.6-11.4,15.2c-3.2,1-4.5,1.8-26.7,4.9l0,0
			c0.3-1.6,0.5-3,0.6-4.2c1-10.2,0.2-50.7-0.5-81.4c-0.2-10.2-0.4-19.3-0.7-25.8c0.4,0.1,0.7,0,1.1-0.1c3.5-2.1,7.6-6.5,13.9-4.3
			c5.4,1.9,10.1,1.7,15-2.3c4.3,6.9,8.6,13.8,12.6,20.2C948.8,339.4,958.5,354.7,958.5,354.7z"/>
		<path class="st9" d="M893.4,418.2l0.1-1c0.3-1.8,0.5-3.1,0.6-4.1c0.7-7.9,0.6-35.2-0.5-81.3c-0.2-10.2-0.4-19.3-0.7-25.8v-1l1,0.2
			c0.2,0.1,0.4,0,0.5-0.1c0.6-0.4,1.3-0.8,1.9-1.3c3.1-2.2,7.1-5,12.5-3c5.7,2,9.9,1.4,14.3-2.2l0.7-0.5l0.4,0.7
			c4.3,6.9,8.6,13.8,12.6,20.2c12.4,19.8,22.1,35.2,22.2,35.3l0.2,0.4l-0.2,0.4c-0.1,0.2-15.2,25.8-26.2,42.7
			c-8.5,13.1-10.7,15.1-11.8,15.5l-0.7,0.2c-2.9,1-5.4,1.8-26.1,4.6L893.4,418.2z M894.5,306.8c0.2,6.5,0.4,15.2,0.7,25
			c1.1,46.1,1.3,73.5,0.5,81.4c-0.1,0.9-0.2,1.9-0.4,3.2c19.6-2.7,22.2-3.6,24.9-4.5l0.7-0.2c0.5-0.1,2.6-1.9,11-14.9
			c10.3-15.7,24-39,25.9-42.2c-1.6-2.5-10.7-16.9-21.9-34.9c-3.9-6.1-8-12.7-12.2-19.4c-4.6,3.4-9.3,4-15.1,1.9
			c-4.7-1.7-8.1,0.7-11.2,2.8c-0.7,0.5-1.3,1-2,1.3C894.9,306.6,894.7,306.7,894.5,306.8z"/>
	</g>
	<g>
		<path class="st12" d="M923.7,299.2c-4.9,4-9.6,4.3-15,2.3c-6.2-2.2-10.4,2.2-13.9,4.3c-0.3,0.2-0.7,0.3-1.1,0.1
			c-3-0.8-5.4-11.9-9.3-17c-4.5-5.7-7.5-2.6-8.5-1.3c-1,1.3,0,1-8.7-4.4c-8.7-5.4-14.4-0.7-19.9,3.2c-5.4,4-3.8,5.7-19.3-1.6
			c-2.4-1.3-4.5-3.2-6.2-5.4c-12.1-14.3-27.8-50.3-34.8-67l1.5-0.3l72.3-43.8l16,29.6l11.5,21.2c-7.8,0-8.3,3.2-8.3,7.5
			C880,228.8,902.7,265.6,923.7,299.2z"/>
		<path class="st9" d="M894,306.8c-0.1,0-0.3,0-0.5-0.1c-2-0.5-3.4-4-5.2-8.3c-1.3-3.2-2.8-6.8-4.6-9c-1.6-2-3.1-3-4.4-3l0,0
			c-1,0-2,0.6-2.9,1.7l-0.1,0.2c-1,1.3-1.5,0.8-3.7-0.6c-1.2-0.8-3-2-5.8-3.8c-7.9-4.9-13.3-1-18.4,2.8l-0.6,0.4
			c-0.7,0.5-1.3,1-1.8,1.4c-3.7,3.1-4.8,3.4-18.3-3c-2.5-1.5-4.7-3.4-6.5-5.7c-12.3-14.6-28.5-51.9-34.9-67.2l-0.4-0.8l2.2-0.4
			l72.9-44.2l28.4,52.5h-1.3c-7.1,0-7.5,2.5-7.5,6.7c0.2,1.5,7.9,15.3,43.5,72.4l0.4,0.5l-0.5,0.4c-4.8,3.9-9.6,4.6-15.7,2.5
			c-4.7-1.7-8.2,0.7-11.2,2.8c-0.7,0.5-1.3,1-2,1.3C894.8,306.7,894.4,306.8,894,306.8z M879.3,285C879.3,285,879.4,285,879.3,285
			c1.9,0,3.7,1.2,5.6,3.6c1.9,2.4,3.4,6.1,4.8,9.4c1.3,3.3,2.9,7,4.2,7.4c0.1,0,0.4,0,0.5-0.1c0.6-0.4,1.3-0.8,1.9-1.3
			c3.2-2.2,7.1-5,12.6-3.1c5.4,1.9,9.6,1.4,13.8-1.8c-38.5-61.8-43.5-71.3-43.5-72.7c0-4.3,0.6-7.8,7.8-8.1l-26.5-48.9L788.8,213
			l-0.7,0.1c6.6,15.8,22.4,51.9,34.3,66c1.6,2.2,3.7,4,6,5.2c13,6.2,13.4,5.7,16.6,3.1c0.5-0.4,1.1-1,1.9-1.5l0.6-0.4
			c5.3-3.9,11.3-8.4,20.1-2.8c2.9,1.8,4.7,3.1,5.9,3.9c0.7,0.4,1.3,0.9,1.6,1l0.1-0.1l0.1-0.2C876.5,285.7,877.9,285,879.3,285z"/>
	</g>
	<g>
		<path class="st12" d="M955.5,219.1c-13.9,0-59,0.1-66.3,0h-0.9l-11.5-21.3c13.1-3.6,40-10.7,66.5-16.5l0.9-0.2
			C946,189,950.7,208.7,955.5,219.1z"/>
		<path class="st9" d="M906.6,219.9c-8.3,0-15,0-17.5-0.1h-1.3l-12.1-22.5l0.9-0.2c16.9-4.6,42.2-11.2,66.6-16.5l1.6-0.4l0.1,0.7
			c1.8,7.9,6.4,27.5,11.2,37.8l0.5,1h-1.2c-4,0-10.4,0-17.9,0C927.8,219.8,916.2,219.9,906.6,219.9z M888.8,218.3h0.4
			c5.2,0.1,30.2,0.1,48.4,0c6.8,0,12.8,0,16.8,0c-4.6-10.3-8.8-28.2-10.7-36.3l-0.1,0.1c-23.9,5.2-48.7,11.6-65.6,16.3L888.8,218.3z
			"/>
	</g>
	<g>
		<path class="st12" d="M1038.1,199.4C1038.1,199.4,1038.1,199.4,1038.1,199.4c-8.7-0.8-25.1-2.5-35-3.6c-4.7-0.5-7.9-0.9-8.3-1
			c-1.1-0.3-0.4-21.5-0.1-30.6c0-0.3,0-0.5,0-0.7c9.6,0.9,36.9,6,47,8c0.4,2.4,0.9,4.9,1.3,7.5
			C1045,190.2,1039.6,191.8,1038.1,199.4z"/>
		<path class="st9" d="M1038.9,200.3l-0.8-0.1c-8.8-0.9-25.1-2.5-35-3.7c-3.6-0.4-7.9-0.9-8.4-1c-0.8-0.2-1.9-0.4-0.7-31.3v-1.5
			l0.8,0.1c9.6,0.9,36.1,5.9,47.1,8l0.5,0.1l0.1,0.5c0.2,1.3,0.4,2.7,0.7,4c0.2,1.1,0.4,2.2,0.6,3.4c1.3,7.4-0.5,10.9-2.3,14.3
			c-1,1.9-2,3.7-2.5,6.3L1038.9,200.3L1038.9,200.3z M995.3,194.2c0.8,0.1,3.1,0.4,7.9,0.9c9.7,1,25.4,2.7,34.3,3.6
			c0.6-2.5,1.6-4.5,2.5-6.3c1.8-3.3,3.4-6.4,2.2-13.3c-0.2-1.1-0.4-2.3-0.6-3.4c-0.2-1.2-0.4-2.4-0.6-3.5
			c-10.9-2.1-35.7-6.7-45.6-7.8C994.7,184,994.9,192.6,995.3,194.2z"/>
	</g>
	<g>
		<path class="st12" d="M983.6,257.2c-1.6,1.6-2.8,3.5-4,5.5c-0.7,1.5-2.1,16.8-3.2,31.7c-0.8,10.7-1.5,21.2-1.9,26.3
			c-0.1-0.1-0.4-0.1-0.6-0.1c-1.9,0-29.7-1-37.8-1.3c-4-6.3-8.3-13.1-12.6-20.2c-21-33.6-43.6-70.5-43.6-72.8c0-4.2,0.5-7.5,8.3-7.5
			h0.9c7.3,0.1,52.4,0,66.3,0c0.7,1.7,1.7,3.4,2.8,4.9C963.3,230,975.2,245,983.6,257.2z"/>
		<path class="st9" d="M975.2,321.8l-0.9-0.3c-0.1-0.1-0.2-0.1-0.3-0.1c-1.9,0-31.9-1-37.8-1.3h-0.4l-0.2-0.3
			c-4-6.3-8.3-13.1-12.6-20.2c-43.8-70.2-43.8-72.5-43.8-73.3c0-4.5,0.7-8.2,9-8.2h0.9c5.2,0.1,30.2,0.1,48.4,0c7.5,0,14,0,17.9,0
			h0.5l0.2,0.4c0.7,1.6,1.6,3.3,2.8,4.7c5.1,6.4,16.9,21.2,25.3,33.4l0.3,0.5l-0.4,0.4c-1.5,1.6-2.8,3.4-3.8,5.4
			c-0.2,0.4-1,3.9-3.1,31.4c-0.5,6.9-1,13.8-1.3,19.1c-0.2,2.9-0.4,5.4-0.5,7.2L975.2,321.8z M936.6,318.6
			c9.6,0.4,34.6,1.2,37.2,1.3c0.1-1.7,0.3-3.9,0.4-6.3c0.4-5.4,0.8-12.2,1.3-19.1c2.2-29.9,3.1-31.5,3.4-32c1-1.9,2.2-3.7,3.7-5.2
			c-8.3-12.1-19.9-26.6-24.9-32.8c-1.1-1.5-2.1-3.1-2.8-4.7c-4,0-10.3,0-17.5,0c-18.2,0-43.1,0.1-48.4,0h-0.9
			c-7.1,0-7.5,2.5-7.5,6.7c0.1,1.3,6,12.4,43.5,72.5C928.5,305.7,932.8,312.4,936.6,318.6z"/>
	</g>
	<g>
		<path class="st12" d="M1005.3,240.1c-11.6,7.3-18.1,13.1-21.7,17.2c-8.4-12.3-20.3-27.2-25.3-33.3c-1.1-1.5-2.1-3.1-2.8-4.9
			c-4.9-10.4-9.5-30.1-11.3-37.9c36.2-8.1,39-18.4,49.5-17.7l0,0l1,0.8c-0.3,9.1-1,30.3,0.1,30.6c0.4,0,3.7,0.4,8.3,1L1005.3,240.1z
			"/>
		<path class="st9" d="M983.5,258.5l-0.5-0.8c-8.9-13-21.6-28.7-25.2-33.3c-1.2-1.6-2.2-3.3-2.9-5c-4.9-10.4-9.5-30.1-11.3-38.1
			l-0.1-0.7l0.7-0.1c20.7-4.6,30.5-10,36.9-13.6c4.9-2.7,8.1-4.5,12.8-4.2h0.2l1.4,1.2v0.4c-0.7,19.6-0.5,28.1-0.1,29.9
			c0.4,0,0.9,0.1,1.9,0.2c1.5,0.1,3.6,0.4,6,0.7l0.6,0.1l2.2,45.3l-0.4,0.2c-9.6,6-16.9,11.8-21.6,17.1L983.5,258.5z M945.1,181.8
			c1.9,8.4,6.3,27,11,37.1c0.7,1.7,1.6,3.3,2.8,4.7c3.6,4.4,15.9,19.7,24.8,32.5c4.8-5.2,11.8-10.6,20.9-16.4l-2.2-43.1
			c-2.2-0.2-4.1-0.4-5.4-0.7c-1-0.1-1.9-0.2-2.1-0.2h-0.1c-0.8-0.2-1.8-0.4-0.7-31l-0.5-0.4c-4.1-0.2-7,1.4-11.8,4
			C975.2,171.8,965.5,177.1,945.1,181.8z"/>
	</g>
	<g>
		<path class="st12" d="M989.5,266.5L989.5,266.5c-0.1,0.4-0.3,1-0.4,1.5c-0.4,2.5-0.8,7.6-1.3,14c-0.3,3.7-0.5,7.8-0.8,12
			l-10.7,0.5c1.1-14.9,2.5-30.2,3.2-31.7c1-2,2.4-3.9,4-5.5C986,260.6,987.9,263.7,989.5,266.5z"/>
		<path class="st9" d="M975.6,295.1l0.1-0.8c2.2-29.9,3.1-31.5,3.3-31.9c1.1-2.1,2.5-4,4-5.7l0.6-0.7l0.5,0.7
			c2.2,3.1,4.1,6.2,5.9,9.3l0.1,0.3l-0.1,0.3c-0.1,0.4-0.3,0.8-0.3,1.3c-0.3,2.2-0.7,6.6-1.3,14c-0.3,3.7-0.5,7.8-0.8,12l-0.1,0.7
			L975.6,295.1z M983.5,258.4c-1.3,1.4-2.3,3-3.2,4.6c-0.3,0.5-1.1,4.6-3.1,30.6l9.1-0.4c0.2-4,0.5-7.8,0.7-11.3
			c0.5-7.3,1-11.8,1.3-14c0.1-0.4,0.1-0.9,0.3-1.3C987.1,263.8,985.4,261.1,983.5,258.4z"/>
	</g>
	<g>
		<path class="st12" d="M1009.4,279.7c-1.8,0.4-4.5,1-6.3,1.6c-2.3,0.7-11.6,0.7-15.3,0.7c0.4-6.3,0.9-11.5,1.3-14l1-0.4
			c3.4-1.6,9-4.3,10.4-4.9c1.9-0.8,0.4,5,0,7s3.3,0.5,6.4-0.7c0.8-0.4,1.6-0.8,2.5-1.3C1009.8,271.6,1009.9,275.6,1009.4,279.7z"/>
		<path class="st9" d="M991.4,282.7c-1.6,0-2.9,0-3.5,0H987l0.1-0.8c0.5-7.3,1-11.8,1.3-14l0.1-0.4l1.3-0.6c6-2.9,9.4-4.5,10.4-4.9
			c0.7-0.3,1.2,0,1.4,0.1c1,0.8,0.6,3.1-0.1,6.3c-0.1,0.5-0.2,1-0.3,1.3c0,0.1,0,0.1,0,0.1c0.5,0.2,3.4-1,5.1-1.6l0.4-0.1
			c0.8-0.4,1.6-0.7,2.3-1.3l1-0.7l0.1,1.2c0.4,4,0.4,8.1,0.1,12.2l-0.1,0.5l-0.5,0.1c-1.8,0.4-4.4,1-6.2,1.6
			C1001.4,282.6,995.5,282.7,991.4,282.7z M988.7,281.2c4.8,0.1,12.3,0,14.3-0.7c1.7-0.5,4-1.1,5.8-1.5c0.3-3.4,0.3-6.8,0-10.2
			c-0.5,0.3-1,0.5-1.6,0.7l-0.4,0.1c-3.4,1.3-5.5,2.2-6.6,1.3c-0.3-0.2-0.6-0.7-0.4-1.5c0.1-0.4,0.1-0.9,0.3-1.4
			c0.2-1.2,0.8-3.9,0.6-4.8c-1.3,0.5-4.7,2.2-10.3,4.9l-0.6,0.3C989.5,270.7,989.1,274.8,988.7,281.2z"/>
	</g>
	<g>
		<path class="st12" d="M1007.7,329.3c-4.3-0.1-16.2,1-18.7,0c-1.3-0.6-2.5-1.3-3.7-2.2c0.1-2.5,0.3-5.8,0.5-9.8h20.3
			c0.1,0.9,0.4,1.7,0.8,2.5C1007.5,321,1007.7,325.8,1007.7,329.3z"/>
		<path class="st9" d="M993.6,330.5c-2.3,0-4-0.1-4.9-0.5c-1.3-0.7-2.7-1.4-3.9-2.2l-0.3-0.2v-0.4c0.1-2.5,0.3-5.9,0.5-9.8l0.1-0.7
			h21.6l0.1,0.7c0.1,0.8,0.4,1.6,0.7,2.2c0.2,0.4,1,1.6,1,9.8v0.7h-0.7c-1.4,0-3.8,0.1-6.3,0.2C998.4,330.4,995.7,330.5,993.6,330.5
			z M986,326.8c1,0.7,2.2,1.3,3.3,1.9c1.5,0.6,7.6,0.3,12.1,0.1c2.1-0.1,4.1-0.2,5.6-0.2c-0.1-6.6-0.6-8-0.7-8.3
			c-0.4-0.7-0.7-1.4-0.8-2.2h-19C986.2,321.6,986.1,324.5,986,326.8z"/>
	</g>
	<g>
		<path class="st12" d="M987.1,293.9c-0.5,8.1-1,16.6-1.3,23.4c-0.2,3.9-0.4,7.3-0.5,9.8c-3.7-2.3-8.6-5.7-10.7-6.4
			c0.3-5.1,1-15.6,1.9-26.3L987.1,293.9z"/>
		<path class="st9" d="M985.9,328.5l-1-0.7c-0.8-0.5-1.7-1.1-2.6-1.7c-3-1.9-6.3-4.2-7.8-4.6l-0.5-0.1v-0.6c0.3-4.9,1-15.2,1.9-26.3
			l0.1-0.7l12.2-0.5l-0.1,0.8c-0.4,6.6-0.8,14.3-1.3,23.4c-0.2,3.9-0.4,7.3-0.5,9.8L985.9,328.5z M975.3,320.2
			c1.8,0.7,4.8,2.7,7.7,4.6c0.5,0.3,1,0.7,1.5,1c0.1-2.3,0.3-5.2,0.4-8.5c0.4-8.8,0.9-16.2,1.3-22.6l-9.2,0.4
			C976.3,305.7,975.7,315.3,975.3,320.2z"/>
	</g>
	<g>
		<path class="st12" d="M1008.5,283.9c-1.6,5.1-1.2,16.1-1.2,22.8c0,3-0.1,5.1-0.5,5.4c-0.9,0.9-1.1,3.2-0.8,5.1h-20.3
			c0.4-6.9,0.8-15.4,1.3-23.4c0.2-4.3,0.5-8.3,0.8-12c3.7,0,13,0.1,15.3-0.7c1.8-0.6,4.5-1.2,6.3-1.6
			C1009.3,281.1,1009,282.6,1008.5,283.9z"/>
		<path class="st9" d="M1006.9,318.1h-21.9l0.1-0.8c0.5-9.2,1-16.9,1.3-23.4c0.2-4.3,0.5-8.3,0.8-12l0.1-0.7h1.7c3.9,0,12,0,14-0.6
			c1.7-0.6,4.2-1.1,6.3-1.6l1-0.2l-0.1,1c-0.1,1.5-0.4,3-0.9,4.4l0,0c-1.3,4-1.2,12-1.2,18.4c0,1.5,0,2.8,0,4.1c0,4.4-0.2,5.5-0.7,6
			c-0.7,0.7-0.9,2.6-0.6,4.6L1006.9,318.1z M986.5,316.6h18.7c-0.1-1.9,0.1-4,1.1-4.9c0.1-0.2,0.3-1.3,0.3-4.9c0-1.3,0-2.6,0-4.1
			c-0.1-6.6-0.1-14.7,1.3-19c0.3-1,0.5-2,0.7-3.1c-1.9,0.4-3.8,0.9-5.2,1.3c-2.1,0.7-8.5,0.7-14.5,0.7h-0.4
			c-0.2,3.5-0.5,7.4-0.7,11.3C987.4,300.4,986.9,307.8,986.5,316.6z"/>
	</g>
</g>
</svg>
