<?xml version="1.0" encoding="utf-8"?>
<!-- Generator: Adobe Illustrator 26.0.0, SVG Export Plug-In . SVG Version: 6.00 Build 0)  -->
<svg version="1.1" id="Layer_1" xmlns="http://www.w3.org/2000/svg" xmlns:xlink="http://www.w3.org/1999/xlink" x="0px" y="0px"
	 viewBox="0 0 1116 360" style="enable-background:new 0 0 1116 360;" xml:space="preserve">
<style type="text/css">
	.st0{fill:#ED2F38;}
	.st1{opacity:0.24;}
	.st2{opacity:0.19;fill:#FFFFFF;enable-background:new    ;}
	.st3{font-family:'Poppins-ExtraBold';}
	.st4{font-size:65.16px;}
	.st5{font-size:71.62px;}
	.st6{fill:#FFFFFF;}
	.st7{fill:#46506D;stroke:#1B1E2A;stroke-miterlimit:10;}
	.st8{fill:#1B1E2A;stroke:#1B1E2A;stroke-miterlimit:10;}
	.st9{fill:#1B1E2A;}
	.st10{font-family:'Poppins-Regular';}
	.st11{font-size:69.773px;}
	.st12{fill:#46506D;}
</style>
<rect class="st0" width="1116" height="360"/>
<g>
	<g class="st1">
		<text transform="matrix(1 0 0 1 -142.7365 114.885)" class="st2 st3 st4">DUMAGUETE</text>
		<text transform="matrix(1 0 0 1 286.0935 114.885)" class="st2 st3 st4">DUMAGUETE</text>
	</g>
	<g class="st1">
		<text transform="matrix(1 0 0 1 -396.9865 175.7251)" class="st2 st3 st4">DUMAGUETE</text>
		<text transform="matrix(1 0 0 1 31.8435 175.7251)" class="st2 st3 st4">DUMAGUETE</text>
	</g>
	<g class="st1">
		<text transform="matrix(1 0 0 1 -103.3565 233.265)" class="st2 st3 st4">DUMAGUETE</text>
		<text transform="matrix(1 0 0 1 325.4735 233.265)" class="st2 st3 st4">DUMAGUETE</text>
	</g>
	<g class="st1">
		<text transform="matrix(1 0 0 1 -400.2065 294.2451)" class="st2 st3 st4">DUMAGUETE</text>
		<text transform="matrix(1 0 0 1 28.6235 294.2451)" class="st2 st3 st4">DUMAGUETE</text>
	</g>
	<g class="st1">
		<text transform="matrix(1 0 0 1 -210.7565 354.3751)" class="st2 st3 st4">DUMAGUETE</text>
		<text transform="matrix(1 0 0 1 218.0735 354.3751)" class="st2 st3 st4">DUMAGUETE</text>
	</g>
	<g class="st1">
		<text transform="matrix(1 0 0 1 -51.6165 58.1951)" class="st2 st3 st5">DUMAGUETE</text>
	</g>
	<g class="st1">
		<text transform="matrix(1 0 0 1 714.3794 114.885)" class="st2 st3 st4">DUMAGUETE</text>
	</g>
	<g class="st1">
		<text transform="matrix(1 0 0 1 460.1295 175.725)" class="st2 st3 st4">DUMAGUETE</text>
		<text transform="matrix(1 0 0 1 888.9595 175.725)" class="st2 st3 st4">DUMAGUETE</text>
	</g>
	<g class="st1">
		<text transform="matrix(1 0 0 1 753.7595 233.265)" class="st2 st3 st4">DUMAGUETE</text>
	</g>
	<g class="st1">
		<text transform="matrix(1 0 0 1 456.9094 294.245)" class="st2 st3 st4">DUMAGUETE</text>
		<text transform="matrix(1 0 0 1 885.7395 294.245)" class="st2 st3 st4">DUMAGUETE</text>
	</g>
	<g class="st1">
		<text transform="matrix(1 0 0 1 646.3594 354.375)" class="st2 st3 st4">DUMAGUETE</text>
		<text transform="matrix(1 0 0 1 1075.1895 354.375)" class="st2 st3 st4">DUMAGUETE</text>
	</g>
	<g class="st1">
		<text transform="matrix(1 0 0 1 413.89 58.1955)" class="st2 st3 st5">DUMAGUETE</text>
	</g>
	<g class="st1">
		<text transform="matrix(1 0 0 1 876.7581 58.6968)" class="st2 st3 st5">DUMAGUETE</text>
	</g>
</g>
<g>
	<text transform="matrix(1 0 0 1 184.1554 213.1137)" class="st9 st10 st11">CANDAU-AY</text>
	<g>
		<g>
			<path class="st6" d="M171.9,154.9L171.9,154.9L171.9,154.9c0.1-0.4,0.2-0.8,0.4-1.1c0.7-1.2,1-2.6,0.7-4l-0.1-0.7
				c-0.1-0.3-0.1-0.6-0.2-1l0,0c-0.4-2.1-0.7-3.8-1.3-5.2c-0.9-2.5-1.7-5-2.3-7.5c-0.3-1.4-0.5-4.3-0.5-4.3
				c-0.1-0.8-0.7-1.4-1.5-1.3c-0.5,0-0.9,0.3-1.2,0.7c-0.7,1.1-1.7,2.3-2.1,2.5c-0.6,0.2-2.8,0.3-4,0.3c-1.6,0.1-2.2,0.1-2.6,0.3
				c-0.4,0.1-0.8,0.1-1.3,0c-0.8-0.2-5.9-0.6-7.7,0.1c-0.6,0.2-1,0.4-1.4,0.6l0,0l-0.4,0.2c-0.2,0.1-0.5,0.3-0.7,0.4
				c-2.5,0.3-5.1,0.5-7.7,0.6l0,0h-0.7c-4.3,0.1-6.9-0.4-7.2-0.6c-0.1,0-0.1-0.1-0.2-0.1c-0.9-0.4-3.3-1.5-6.2-1l0,0h-0.1l0,0h-0.2
				c-3.1,0.7-4.8,1.5-5.2,1.7c-0.6,0.2-5.1,1.7-7,2.3c-0.5-0.8-1.2-2.2-1.6-3.1c-1.4-2.8-1.7-3.2-2.1-3.5c-0.5-0.3-3.7-1.5-4.6-1.8
				c-4.6-1.6-4.8-1.5-5.4-1.1c-0.4,0.2-0.5,0.4-1.7,2.4c-1,1.7-3.7,6.2-4.6,6.8c-0.5,0.2-2.9,1.1-5.5,2.1c-3.3,1.3-7.5,2.9-10.9,4.2
				c-1.9,0.7-3.2,1.3-4.2,1.7c-0.6,0.2-1,0.4-1.3,0.5c-0.4,0.2-1.5,0.7-1.2,1.8c0.1,0.5,0.2,0.6,1.8,2.4c1.7,1.9,4.8,5.3,5.8,7.2
				c0.5,0.9,1.5,3.2,2.8,6.4l0,0c1,2.5,2.2,5.5,3.2,8.2l0,0c0.9,2.3,1.5,4.2,1.9,5.3c0.7,2.1,3.1,9.8,7,22.2l0,0l1.7,5.5l2,7.1l0,0
				l8.4,29.4c0.2,0.6,0.7,1,1.4,1c0.1,0,0.1,0,0.2,0l17.5-2.1h0.1h0.1l0,0l12.7-2.2l0,0h0.2h0.1l14.6-3.7c0.5-0.1,0.9-0.5,1-1
				c0.5-2,1.9-5.6,3.2-6.6c0.1-0.1,0.2-0.2,0.3-0.2c0,0,0.1-0.1,0.2-0.3l0,0c4-4.8,4-5.8,4-6.3v-0.3c0.1-4.9,0.8-6.5,1.1-7l0.1-0.2
				l0,0c1-1.4,1.7-3,2-4.7c0.4-1.9,0.6-3.2,0.7-3.7l0,0l0,0l0.1-0.4v-0.1c0.3-2.8,1.1-5.5,2.2-8.1c0.8-1.6,1.7-3.1,2.9-4.5
				c0.7-0.9,1.4-1.7,1.7-2.7c0.1-0.4,0.3-0.9,0.5-1.3c0.1-0.3,0.2-0.5,0.3-0.8l0,0c0.4-1,0.7-2.1,0.7-3.2c0-0.9,0-2.2-0.2-3.9l0,0
				c-0.2-1.7-0.4-3.3-0.7-5c-0.4-2.2-0.9-4.3-1.7-6.3l0,0l0,0c-0.1-0.3-0.2-0.5-0.3-0.8c-0.1-0.2-0.2-0.4-0.2-0.7
				c0,0,0.1-0.1,0.5-0.4c1.4-0.8,3.2-2.4,4.1-4.4l0,0c0.2-0.5,0.3-0.9,0.4-1.4c0.2-1.2,0.1-2.4-0.3-3.5
				C171.9,155.8,171.8,155.4,171.9,154.9z"/>
		</g>
		<g>
			<path class="st9" d="M121.8,172.7c-1,0.1-2.7,0.2-3.2,0.2c-0.9,0-2.1-1.7-3.2-1.7s-1.9,1.3-2.5,2c-0.5,0.5-1.2,1-3.2,1.3
				c-0.4,0.1-0.9,0.1-1.5,0.1c-3.2,0.2-4.3-1.3-6.2-1.6c-1.8-0.4-1.9,0.3-3.2,0.6c-1.2,0.3-2.1-1.4-5.4-3.1c-3.3-1.6-3-0.5-4.4-0.2
				c-1.5,0.4-3.8-1.8-4.1-1.7c-0.2,0.1-1.2,1.7-2,3c-1-2.6-2.1-5.6-3.2-8.2c2-0.3,6.4-0.9,14.2-2.2c9.9-1.6,18.3-3.1,20.1-3.4
				C115.5,161.4,119,169.5,121.8,172.7z"/>
			<path class="st9" d="M107.6,174.7c-1.8,0-2.9-0.5-3.8-1c-0.6-0.3-1.1-0.5-1.8-0.7c-1.2-0.2-1.6,0-2.1,0.2c-0.3,0.1-0.6,0.3-1,0.4
				c-0.7,0.2-1.3-0.3-2.3-1c-0.7-0.6-1.8-1.3-3.3-2.1c-2.4-1.2-2.8-0.9-3.4-0.6c-0.2,0.1-0.5,0.3-0.9,0.4c-1.1,0.3-2.5-0.7-3.4-1.3
				c-0.3-0.2-0.6-0.4-0.7-0.4c-0.1,0.1-0.5,0.6-1.9,2.9l-0.2,0.3l-0.1-0.3c-1-2.7-2.2-5.7-3.2-8.2l-0.1-0.2h0.2
				c2-0.3,6.4-0.9,14.2-2.2c10.4-1.7,19.1-3.2,20.1-3.4h0.1l0.1,0.1c1.4,3.4,5.1,11.8,7.8,15.1l0.2,0.3h-0.3
				c-1.1,0.1-2.7,0.2-3.2,0.2s-1-0.4-1.5-0.8c-0.6-0.5-1.2-0.9-1.7-0.9c-0.8,0-1.5,0.9-2,1.5c-0.1,0.1-0.2,0.3-0.3,0.4
				c-0.5,0.6-1.3,1.1-3.3,1.3c-0.4,0.1-0.9,0.1-1.5,0.1C108,174.7,107.8,174.7,107.6,174.7z M101,172.6c0.3,0,0.6,0,1,0.1
				c0.7,0.1,1.2,0.4,1.8,0.7c1,0.5,2.2,1.1,4.3,0.9c0.6,0,1.1-0.1,1.5-0.1c2.1-0.3,2.7-0.8,3.1-1.2c0.1-0.1,0.2-0.2,0.3-0.4
				c0.6-0.7,1.3-1.6,2.3-1.6c0.6,0,1.3,0.5,1.9,1c0.5,0.4,1,0.8,1.3,0.8c0.5,0,2.1-0.1,2.9-0.1c-2.7-3.4-6.2-11.3-7.6-14.8
				c-1.5,0.3-9.9,1.7-20,3.4c-7.6,1.2-12,1.9-14,2.2c1,2.4,2.1,5.2,3,7.7c1.6-2.7,1.8-2.7,1.9-2.8c0.2,0,0.4,0.1,1,0.5
				c0.8,0.6,2.2,1.5,3.1,1.3c0.4-0.1,0.6-0.2,0.8-0.4c0.8-0.4,1.3-0.6,3.7,0.6c1.6,0.8,2.6,1.5,3.4,2.1c0.9,0.7,1.4,1.1,2,0.9
				c0.4-0.1,0.7-0.2,0.9-0.3C100.1,172.7,100.4,172.6,101,172.6z"/>
		</g>
		<g>
			<path class="st12" d="M130.6,147.7l-16.3,9.9l-0.3,0.1c-1.8,0.3-10.2,1.8-20.1,3.4c-7.8,1.3-12.3,1.9-14.2,2.2
				c-1.2-2.9-2.3-5.5-2.9-6.6c-1.6-2.9-7.4-8.8-7.5-9.1s20.7-8.1,22.3-8.8s6.1-9.1,6.5-9.3c0.3-0.2,8.1,2.6,8.6,2.9
				c0.5,0.3,3.5,7.1,4,7.1s7.8-2.4,8.2-2.6c0.4-0.2,1.9-0.9,4.9-1.6c0.1,0,0.1,0,0.2,0L130.6,147.7z"/>
			<path class="st9" d="M79.5,163.4v-0.1c-0.9-2.3-2.2-5.3-2.9-6.5c-1.1-1.9-4.1-5.3-6-7.4c-1.3-1.5-1.5-1.7-1.5-1.8
				c0-0.2-0.1-0.3,16.8-6.8c2.9-1.1,5.1-2,5.6-2.2c1.1-0.5,3.7-4.9,5.2-7.3c0.9-1.5,1.1-1.9,1.3-2c0.5-0.3,8.7,2.9,8.7,2.9
				c0.2,0.1,0.7,1,1.7,3c0.8,1.6,2,3.9,2.3,4.1c0.5,0,7.7-2.4,8.1-2.6c0.2-0.1,1.8-0.9,4.9-1.6c0.1,0,0.2,0,0.2,0h0.1l6.8,12.6
				l-16.5,10l-0.3,0.1c-0.4,0.1-9.3,1.6-20.1,3.4c-7.8,1.3-12.3,1.9-14.2,2.2L79.5,163.4z M69.5,147.6c0.2,0.2,0.8,0.9,1.4,1.6
				c1.8,2,4.9,5.5,6,7.4c0.7,1.2,1.9,4.2,2.8,6.5c2-0.3,6.4-0.9,14.1-2.2c10.8-1.8,19.7-3.3,20.1-3.4l0.3-0.1l16.1-9.8l-6.5-12.1
				h-0.1c-3.1,0.7-4.7,1.5-4.9,1.5c-0.3,0.2-7.7,2.6-8.3,2.6c-0.4,0-0.9-1-2.5-4.2c-0.7-1.3-1.4-2.7-1.6-2.9
				c-0.5-0.3-7.7-2.9-8.4-2.9c-0.1,0.1-0.6,1-1.1,1.8c-2.1,3.5-4.2,7-5.3,7.4c-0.5,0.2-2.7,1.1-5.6,2.2
				C80.2,143.3,70.6,147,69.5,147.6z"/>
		</g>
		<g>
			<path class="st12" d="M116.6,191.2L91.7,199c-2.2-7.2-6-19.3-7-22.2c-0.4-1.2-1.1-3.2-2-5.4c0.8-1.3,1.8-2.9,2-3
				c0.3-0.1,2.6,2.1,4.1,1.7s1.1-1.4,4.4,0.2c3.3,1.6,4.2,3.3,5.4,3.1c1.2-0.3,1.3-0.9,3.2-0.6c1.8,0.4,2.9,1.8,6.2,1.6
				c0.6,0,1.1-0.1,1.5-0.1c0,0.1,0,0.1,0,0.2c0,0.9,4.3,9.5,6,13.1C116.2,188.8,116.5,190,116.6,191.2z"/>
			<path class="st9" d="M91.6,199.2V199c-1.4-4.4-5.9-19-7-22.2c-0.4-1.2-1.1-3.2-2-5.4v-0.1v-0.1c1.8-3,2-3,2.1-3.1
				c0.2,0,0.4,0.1,1,0.5c0.8,0.5,2.2,1.5,3.1,1.2c0.4-0.1,0.6-0.2,0.8-0.4c0.8-0.4,1.3-0.6,3.7,0.6c1.6,0.8,2.6,1.5,3.4,2.1
				c0.9,0.7,1.4,1.1,2,0.9c0.4-0.1,0.7-0.2,0.9-0.3c0.6-0.3,1-0.5,2.3-0.2c0.7,0.1,1.2,0.4,1.8,0.7c1,0.5,2.2,1.1,4.3,0.9
				c0.6,0,1.1-0.1,1.5-0.1h0.1v0.1c0,0.1,0,0.2,0,0.2c0,0.7,2.8,6.5,4.7,10.4c0.5,1,0.9,1.9,1.3,2.6c0.5,1.2,0.8,2.4,1,3.6v0.1h-0.1
				L91.6,199.2z M83,171.4c0.8,2.2,1.5,4.1,1.9,5.3c1.1,3.2,5.5,17.5,6.9,22.1l24.6-7.7c-0.2-1.2-0.5-2.3-0.9-3.4
				c-0.3-0.7-0.8-1.6-1.3-2.6c-2.6-5.3-4.8-9.8-4.8-10.5l0,0c-0.4,0-0.8,0.1-1.3,0.1c-2.1,0.1-3.4-0.5-4.4-1
				c-0.6-0.3-1.1-0.5-1.8-0.7c-1.2-0.2-1.6,0-2.1,0.2c-0.3,0.1-0.6,0.3-1,0.4c-0.7,0.2-1.3-0.3-2.3-1c-0.7-0.6-1.8-1.3-3.3-2.1
				c-2.4-1.2-2.8-0.9-3.4-0.6c-0.2,0.1-0.5,0.3-0.9,0.4c-1.1,0.3-2.5-0.7-3.4-1.3c-0.3-0.2-0.6-0.4-0.7-0.4
				C84.8,168.7,84.4,169.2,83,171.4z"/>
		</g>
		<g>
			<path class="st12" d="M118,206.8c-8.8,1.7-18.2,3.8-22.5,4.8l-2-7.1c0,0-0.7-2.3-1.7-5.5l24.9-7.8c0.9,5,1.1,12.6,1.2,14.4
				C117.9,205.8,117.9,206.3,118,206.8z"/>
			<path class="st9" d="M95.4,211.8l-2.1-7.2l0,0c0,0-0.7-2.3-1.7-5.5v-0.2l25.2-7.9v0.2c0.6,3.6,0.9,8.5,1.1,11.7
				c0.1,1.2,0.1,2.2,0.2,2.7c0,0.2,0.1,0.6,0.1,1.2v0.2H118C108.9,208.8,99.2,211,95.4,211.8L95.4,211.8z M91.9,199.1
				c1,3.2,1.7,5.4,1.7,5.4l2,6.9c3.8-0.9,13.2-3,22.2-4.8c-0.1-0.5-0.1-0.8-0.1-1c-0.1-0.5-0.1-1.5-0.2-2.7c-0.2-3.2-0.4-7.9-1-11.5
				L91.9,199.1z"/>
		</g>
		<g>
			<path class="st12" d="M121.5,238.9L121.5,238.9l-17.6,2.1l-8.4-29.4c4.3-1,13.7-3.1,22.5-4.8c0.5,4.9,2.3,21.2,2.5,25.2
				C120.6,234.3,121,236.6,121.5,238.9z"/>
			<path class="st9" d="M103.8,241.2l-8.5-29.7h0.2c2.9-0.7,12.9-3,22.5-4.8h0.2l0.2,1.8c0.6,6,2.2,20,2.3,23.6
				c0.1,2.3,0.5,4.6,1.1,6.9v0.2l-0.3,0.1L103.8,241.2z M95.7,211.7l8.4,29.1l17.3-2.1c-0.6-2.2-0.9-4.5-1-6.7
				c-0.1-3.6-1.7-17.6-2.3-23.5l-0.2-1.4C108.5,208.8,98.7,211,95.7,211.7z"/>
		</g>
		<g>
			<path class="st12" d="M133.4,219c-0.2,0.6,0.6,13.3,0.9,17.6l-12.7,2.2c-0.6-2.3-0.9-4.6-1.1-6.9c-0.2-4-1.9-20.2-2.5-25.2
				c4.4-0.8,8.6-1.6,12.1-2s6.1-0.8,8-1c-0.5,2.3-1.1,4.5-1.8,6.7C135,214.5,133.5,218.6,133.4,219z"/>
			<path class="st9" d="M121.4,239v-0.1c-0.6-2.3-0.9-4.6-1.1-6.9c-0.1-3.6-1.7-17.6-2.3-23.5l-0.2-1.8h0.2c4.9-0.9,9-1.6,12.1-2
				c3.3-0.4,6-0.8,8-1h0.2v0.2c-0.5,2.3-1.1,4.5-1.8,6.7c-0.9,2.8-1.8,5.6-2.4,7.3c-0.2,0.7-0.4,1.2-0.4,1.3
				c-0.1,0.5,0.4,9.4,0.9,17.5v0.1L121.4,239z M118.2,206.9l0.2,1.5c0.6,6,2.2,19.9,2.3,23.5c0.1,2.3,0.5,4.5,1,6.7l12.4-2.2
				c-0.3-5.2-1-16.9-0.8-17.5l0,0c0-0.1,0.2-0.6,0.4-1.3c0.6-1.7,1.5-4.4,2.4-7.3c0.7-2.1,1.3-4.3,1.7-6.4c-2,0.3-4.6,0.6-7.8,1
				C127,205.3,123,206,118.2,206.9z"/>
		</g>
		<g>
			<path class="st12" d="M153.1,225.3l-0.2,0.3c-2.3,1.6-3.8,7.4-3.8,7.4l-14.6,3.7h-0.2c-0.3-4.3-1-17-0.9-17.6
				c0.1-0.4,1.6-4.5,2.9-8.6c1,2.5,3.1,7,3.7,7.6C140.7,218.7,149.6,223.4,153.1,225.3z"/>
			<path class="st9" d="M134.1,236.8v-0.2c-0.1-1.7-1-16.9-0.8-17.7c0-0.1,0.2-0.7,0.5-1.4c0.6-1.6,1.5-4.4,2.4-7.2l0.1-0.4l0.2,0.4
				c1.4,3.4,3.1,7.1,3.7,7.6c0.8,0.7,10.2,5.7,13.1,7.2l0.2,0.1l-0.4,0.5c-2.2,1.6-3.7,7.2-3.7,7.3v0.1L134.1,236.8z M136.3,210.9
				c-0.8,2.6-1.7,5.2-2.2,6.8c-0.3,0.7-0.4,1.3-0.5,1.4c-0.1,0.5,0.4,10.6,0.8,17.4l14.5-3.7c0.2-0.8,1.7-5.8,3.8-7.4l0.1-0.1
				c-3.8-2-12.2-6.4-13-7.1C139.1,217.5,137,212.6,136.3,210.9z"/>
		</g>
		<g>
			<path class="st12" d="M158.4,211.6c-0.1,0.1-0.1,0.1-0.1,0.1c-1.4,1.8-1.4,7-1.5,8.1c0,0.9-2.9,4.4-3.7,5.4
				c-3.5-1.9-12.4-6.5-13.1-7.2c-0.7-0.6-2.7-5.2-3.7-7.6c0.7-2.2,1.3-4.4,1.8-6.7l0,0c2.4,0.3,6.9,2.8,8.4,3.4
				C147.6,207.6,154.7,210.2,158.4,211.6z"/>
			<path class="st9" d="M153.2,225.5l-0.1-0.1c-3.7-1.9-12.4-6.5-13.1-7.2c-0.7-0.7-2.9-5.6-3.8-7.7v-0.1v-0.1
				c0.7-2.2,1.3-4.4,1.8-6.7v-0.2h0.2c1.7,0.2,4.5,1.6,6.6,2.6c0.8,0.4,1.4,0.7,1.9,0.9c1.1,0.4,7.9,2.9,11.5,4.3l0.6,0.2l-0.1,0.2
				c-0.1,0.1-0.1,0.1-0.1,0.1c-1.2,1.7-1.4,6.2-1.4,7.7v0.3c0,0.9-2.3,3.8-3.7,5.5L153.2,225.5z M136.5,210.4
				c1.8,4.3,3.2,7.1,3.7,7.5c0.7,0.7,9.9,5.5,13,7.1c2.2-2.6,3.5-4.6,3.6-5.2v-0.3c0-1.5,0.2-6.1,1.5-7.9l-0.2-0.1
				c-3.9-1.5-10.4-3.9-11.5-4.3c-0.4-0.2-1.1-0.5-1.9-0.9c-1.9-1-4.6-2.2-6.3-2.5C137.7,206.1,137.1,208.3,136.5,210.4z"/>
		</g>
		<g>
			<path class="st12" d="M160.8,203.8c-0.1,0.6-0.3,1.9-0.7,3.7c-0.3,1.5-0.9,2.9-1.7,4.1c-3.7-1.4-10.8-4-11.9-4.4
				c-1.5-0.6-6-3.1-8.4-3.4c5-0.7,5.3-0.9,6-1.1c0.3-0.1,1.3-1.5,2.6-3.4c1.2,0.6,3.5,1.7,4.6,2
				C152.5,201.7,158.6,203.3,160.8,203.8z"/>
			<path class="st9" d="M158.4,211.8h-0.1c-3.7-1.4-10.8-4-11.9-4.4c-0.4-0.2-1.1-0.5-1.9-0.9c-2-1-4.7-2.3-6.4-2.5l-1.3-0.2
				l1.3-0.2c4.6-0.6,5.2-0.8,5.8-1h0.2c0.2-0.1,0.7-0.7,2.5-3.3l0.1-0.1l0.1,0.1c1,0.5,3.4,1.7,4.6,2c0.9,0.3,4.2,1.1,9.5,2.5h0.1
				v0.2c-0.1,0.7-0.4,2.2-0.7,3.7s-0.9,2.9-1.8,4.2L158.4,211.8z M139.1,203.8c1.7,0.5,3.9,1.5,5.6,2.3c0.8,0.4,1.5,0.7,1.9,0.9
				c1.1,0.4,8,3,11.8,4.4c0.8-1.2,1.4-2.5,1.6-3.9c0.3-1.4,0.5-2.8,0.6-3.5c-5.3-1.4-8.5-2.2-9.4-2.5c-1.1-0.4-3.4-1.5-4.5-2
				c-1.8,2.8-2.3,3.3-2.6,3.3H144C143.4,203.1,142.9,203.2,139.1,203.8z"/>
		</g>
		<g>
			<path class="st12" d="M168.5,185.8c-0.3,0.7-0.5,1.4-0.8,2.1c-0.6,1.7-2.6,3-4.5,7c-1.2,2.7-2,5.6-2.4,8.5c0,0,0,0.1-0.1,0.4
				c-2.2-0.6-8.2-2.1-9.5-2.5c-1.1-0.4-3.4-1.5-4.6-2c2.5-3.9,5.9-9.6,5.9-9.6s-2.2-3.4-5-8c1.8,0.1,8.1,0.3,8.5,0.3h0.1
				c0.5,0.1,1.6,0.9,2.4,1.4c0.3,0.2,0.6,0.3,0.9,0.5c0.6,0.2,3.3,0,4.2,0c0.1,0,0.1,0,0.2,0C164.3,184,166.9,185.1,168.5,185.8z"/>
			<path class="st9" d="M160.9,204h-0.2c-5.3-1.4-8.6-2.3-9.5-2.5c-1.2-0.4-3.6-1.6-4.6-2.1l-0.2-0.1l0.1-0.2
				c2.3-3.6,5.4-8.8,5.8-9.5c-0.4-0.6-2.4-3.8-5-7.9l-0.2-0.3h0.3c3,0.1,8.1,0.3,8.5,0.3c0.1,0,0.1,0,0.2,0c0.4,0.1,1.1,0.6,1.8,1.1
				c0.2,0.1,0.4,0.3,0.6,0.4c0.3,0.2,0.5,0.3,0.8,0.5c0.3,0.1,1.6,0.1,2.6,0c0.6,0,1.2-0.1,1.5,0c0.1,0,0.1,0,0.2,0
				c0.4,0,1.9,0.6,4.7,1.8l0.1,0.1l-0.1,0.1c-0.1,0.3-0.2,0.5-0.3,0.8c-0.2,0.4-0.3,0.9-0.5,1.4c-0.3,0.8-0.8,1.4-1.5,2.3
				c-0.9,1.1-2,2.5-3,4.8c-1.2,2.7-2,5.6-2.3,8.5c0,0,0,0.1-0.1,0.4L160.9,204z M146.9,199.2c1.1,0.5,3.3,1.6,4.4,2
				c0.9,0.3,4.1,1.1,9.3,2.5c0-0.1,0-0.2,0-0.2c0.4-3,1.2-5.8,2.4-8.6c1.1-2.3,2.2-3.7,3.1-4.8c0.7-0.8,1.2-1.5,1.4-2.2
				c0.2-0.5,0.3-0.9,0.5-1.4c0.1-0.2,0.2-0.4,0.2-0.6c-3.3-1.4-4.2-1.7-4.4-1.8c-0.1,0-0.1,0-0.2,0c-0.4,0-0.9,0-1.5,0
				c-1.4,0.1-2.4,0.1-2.8-0.1c-0.3-0.1-0.6-0.3-0.9-0.5c-0.2-0.1-0.4-0.2-0.6-0.4c-0.7-0.4-1.4-0.9-1.8-1h-0.1
				c-0.4,0-6.7-0.2-8.2-0.3c2.8,4.4,4.9,7.7,4.9,7.7l0.1,0.1l-0.1,0.1C152.7,189.8,149.4,195.4,146.9,199.2z"/>
		</g>
		<g>
			<path class="st12" d="M160.5,146.6c-2.4-0.2-3,2.2-11.1,4h-0.2c-6,1.3-12,2.9-15,3.7l-3.6-6.6l-6.7-12.3c2.8-0.5,5.3,0.8,5.7,1
				c0.5,0.2,3.2,0.7,7.7,0.6h0.7c1.4,2.3,4.6,7.4,4.7,7.4c0.1,0,7.8-2.2,11.3-3.2L160.5,146.6z"/>
			<path class="st9" d="M134.1,154.5l-10.4-19.3h0.2c2.5-0.5,4.6,0.5,5.5,0.9c0.1,0.1,0.2,0.1,0.3,0.1c0.5,0.2,3.1,0.7,7.7,0.6h0.8
				v0.1c2,3.3,4.2,6.9,4.6,7.3c0.5-0.1,4.6-1.3,7.9-2.2c1.3-0.4,2.4-0.7,3.4-0.9h0.1l6.9,5.7h-0.5c-1-0.1-1.6,0.3-2.7,0.9
				c-1.5,0.8-3.7,2-8.4,3.1h-0.2c-5.5,1.2-11.2,2.7-15,3.7L134.1,154.5z M124.2,135.5l10.1,18.6c3.8-1,9.4-2.5,14.9-3.7h0.2
				c4.6-1,6.8-2.2,8.3-3c0.9-0.5,1.6-0.9,2.4-0.9l-6-5c-0.9,0.3-2.1,0.6-3.3,0.9c-6.3,1.8-7.9,2.2-8,2.2s-0.3,0-4.8-7.4h-0.6
				c-4.6,0.1-7.3-0.5-7.8-0.6c-0.1,0-0.2-0.1-0.3-0.1C128.4,136,126.5,135.1,124.2,135.5z"/>
		</g>
		<g>
			<path class="st12" d="M154.1,141.2c-3.5,1-11.2,3.1-11.3,3.2s-3.3-5.1-4.7-7.4c2.7,0,5.3-0.3,7.9-0.6c0.5-0.2,1-0.4,1.4-0.6
				L154.1,141.2z"/>
			<path class="st9" d="M142.8,144.6c-0.2,0-0.5-0.5-4.9-7.5l-0.2-0.2h0.3c2.6,0,5.3-0.3,7.9-0.6c0.5-0.2,0.9-0.4,1.4-0.6l0.1-0.1
				l7,5.8l-0.3,0.1C150.5,142.4,142.9,144.5,142.8,144.6L142.8,144.6z M138.3,137.1c3.3,5.4,4.2,6.8,4.5,7.1
				c0.8-0.2,7.5-2.1,10.9-3.1l-6.3-5.3c-0.4,0.2-0.9,0.4-1.4,0.6C143.5,136.9,140.9,137.1,138.3,137.1z"/>
		</g>
		<g>
			<path class="st12" d="M171.3,148.4c-2.3-0.4-8.4-1.6-10.6-1.8h-0.2l0,0l-6.4-5.3l-6.7-5.6c0.4-0.2,0.8-0.4,1.3-0.6
				c1.3-0.5,6.1-0.3,6.8-0.1c0.6,0.2,2.2,0,2.4-0.2s5-0.1,6.4-0.6s2.9-3.1,2.9-3.1s0.2,3,0.6,4.5c0.6,2.6,1.4,5.2,2.3,7.8
				C170.6,145.1,171,146.7,171.3,148.4z"/>
			<path class="st9" d="M171.5,148.6h-0.2c-2.5-0.5-8.4-1.6-10.6-1.8h-0.3l0,0l-13.3-11.1l0.2-0.1c0.4-0.2,0.8-0.4,1.3-0.6
				c1.4-0.6,6.2-0.3,6.9-0.1c0.6,0.2,2,0,2.2-0.1c0.1-0.1,0.3-0.1,2-0.2c1.5-0.1,3.7-0.1,4.5-0.4c1.3-0.4,2.8-3,2.8-3l0.3-0.5v0.5
				c0,0,0.2,3,0.6,4.5c0.6,2.6,1.4,5.2,2.3,7.7c0.6,1.6,1,3.3,1.2,4.9L171.5,148.6z M160.6,146.4h0.2c2.1,0.2,7.8,1.3,10.4,1.8
				c-0.3-1.6-0.7-3.1-1.2-4.6c-0.9-2.5-1.7-5.2-2.3-7.8c-0.2-1.2-0.4-3.1-0.5-4c-0.5,0.8-1.7,2.4-2.7,2.7c-0.8,0.3-3,0.4-4.6,0.4
				c-0.8,0-1.6,0.1-1.8,0.1c-0.3,0.2-1.9,0.4-2.5,0.2c-0.7-0.2-5.4-0.4-6.7,0.1c-0.4,0.2-0.8,0.3-1.1,0.5L160.6,146.4z"/>
		</g>
		<g>
			<path class="st12" d="M171,159.9c-0.1,0.4-0.2,0.7-0.3,1.1c-1.2,0-3.6,0.4-6.9,2.4c-0.2,0.1-0.5,0.3-0.7,0.4l-0.5-10
				c2.2,0.2,5.9,0.6,7.9,0.8C170.2,156.4,171.4,157.6,171,159.9z"/>
			<path class="st9" d="M163,164.1l-0.5-10.5h0.2c2.2,0.2,5.9,0.6,7.9,0.8h0.2v0.2c-0.1,0.8,0,1.4,0.2,2.2s0.5,1.8,0.3,3l0,0
				c-0.1,0.4-0.2,0.8-0.3,1.1v0.1h-0.1c-1.1,0-3.5,0.4-6.8,2.4l-0.1,0.1c-0.2,0.1-0.4,0.2-0.5,0.3L163,164.1z M162.8,154l0.5,9.5
				c0.1-0.1,0.2-0.1,0.3-0.2l0.1-0.1c3.3-2,5.7-2.4,6.9-2.5c0.1-0.3,0.2-0.6,0.3-1c0.2-1.2,0-2-0.3-2.9c-0.2-0.7-0.4-1.4-0.3-2.1
				C168.4,154.6,165,154.3,162.8,154z"/>
		</g>
		<g>
			<path class="st12" d="M170.7,161c-0.7,1.7-2.3,3.1-3.4,3.7c-1.4,0.8-1.5,1.5-1,2.8c0.1,0.3,0.2,0.5,0.3,0.8
				c-0.6,0.4-1.8,1.2-2.5,1.7c-0.2,0.1-0.4,0.2-0.6,0.3c-0.7,0.3-1.5,0.6-1.4,0.2c0.1-0.5,0.4-1.8,0-1.6c-0.3,0.1-1.6,0.7-2.3,1.1
				l-0.1-0.2l0,0c-0.4-0.6-0.8-1.3-1.3-2.1c0.8-0.9,2.3-2.2,4.9-3.9c0.2-0.1,0.4-0.3,0.7-0.4C167.1,161.4,169.5,161,170.7,161z"/>
			<path class="st9" d="M162.2,170.9c-0.1,0-0.2,0-0.3-0.1s-0.1-0.2-0.1-0.3s0-0.2,0.1-0.3c0.1-0.3,0.2-0.9,0.1-1.1
				c-0.3,0.1-1,0.5-1.7,0.8l-0.8,0.4l-0.2-0.4c-0.3-0.6-0.8-1.3-1.3-2.1l-0.1-0.1l0.1-0.1c1.1-1.2,2.7-2.5,4.9-3.9
				c0.1-0.1,0.3-0.2,0.4-0.2l0.3-0.2c3.4-2.1,5.8-2.4,7-2.5h0.3l-0.1,0.2c-0.7,1.8-2.3,3.2-3.5,3.8c-1.4,0.8-1.4,1.5-0.9,2.6
				c0.1,0.2,0.2,0.5,0.3,0.8l0.1,0.1l-0.1,0.1c-0.6,0.4-1.8,1.2-2.6,1.7c-0.2,0.1-0.4,0.2-0.6,0.3h-0.1
				C162.9,170.7,162.5,170.9,162.2,170.9z M162.1,168.7c0.1,0,0.1,0,0.2,0.1c0.2,0.2,0.1,0.7,0,1.4c0,0.1,0,0.2-0.1,0.3l0,0
				c0.1,0.1,0.8-0.2,1.1-0.4h0.1c0.2-0.1,0.4-0.2,0.5-0.3c0.7-0.4,1.8-1.2,2.4-1.6c-0.1-0.3-0.2-0.5-0.3-0.7
				c-0.5-1.3-0.5-2.2,1.1-3.1c1.1-0.6,2.5-1.8,3.3-3.4c-1.2,0.1-3.5,0.5-6.5,2.4l-0.3,0.2c-0.1,0.1-0.3,0.2-0.4,0.2
				c-2.1,1.3-3.7,2.6-4.8,3.7c0.5,0.7,0.9,1.4,1.3,2l0.1,0.1l0.5-0.2c0.7-0.3,1.5-0.7,1.7-0.8C162,168.7,162.1,168.7,162.1,168.7z"
				/>
		</g>
		<g>
			<path class="st12" d="M169,179.2c-0.7-0.1-1.3-0.2-1.9-0.4c-0.4-0.1-2.5,0-3.5,0c0-1.5-0.1-4,0.3-5.1c0.1-0.3,0.2-0.6,0.2-1
				c0.1-0.9,0.1-1.8,0-2.7c0.8-0.5,2-1.3,2.5-1.7c0.8,2,1.4,4,1.7,6.1C168.6,176,168.8,177.6,169,179.2z"/>
			<path class="st9" d="M169.1,179.4h-0.2c-0.7-0.1-1.3-0.2-2-0.4c-0.3-0.1-2.2,0-3.4,0h-0.2v-0.2c0-0.3,0-0.5,0-0.8
				c0-1.5,0-3.4,0.3-4.4c0.1-0.3,0.2-0.6,0.2-0.9c0.1-0.9,0.1-1.8,0-2.7v-0.1l0.1-0.1c0.8-0.5,2-1.3,2.5-1.7l0.2-0.1l0.1,0.2
				c0.8,2,1.4,4,1.7,6.1c0.3,1.6,0.5,3.2,0.7,4.8L169.1,179.4z M165.9,178.6c0.6,0,1,0,1.2,0c0.6,0.2,1.2,0.3,1.7,0.4
				c-0.1-1.5-0.4-3.1-0.7-4.6c-0.3-2-0.9-4-1.6-5.8c-0.6,0.4-1.6,1.1-2.3,1.5c0.1,0.9,0.1,1.8,0,2.6c0,0.3-0.1,0.7-0.2,1
				c-0.3,0.9-0.3,2.8-0.3,4.3c0,0.2,0,0.4,0,0.7C164.3,178.7,165.2,178.6,165.9,178.6z"/>
		</g>
		<g>
			<path class="st12" d="M169.1,183c-0.1,0.9-0.3,1.9-0.6,2.7c-1.6-0.7-4.2-1.8-4.6-1.8c-0.1,0-0.1,0-0.2,0c0-0.8,0-1.8-0.2-2.1
				c-0.1-0.2-0.2-0.4-0.2-0.6c-0.1-0.4,0-1,0.2-1.2c0.1-0.1,0.1-0.6,0.1-1.2c1,0,3.1-0.1,3.5,0c0.6,0.2,1.3,0.3,1.9,0.4
				C169.1,180.9,169.1,182.2,169.1,183z"/>
			<path class="st9" d="M168.6,186l-0.6-0.3c-1.5-0.6-3.7-1.6-4.1-1.6c-0.1,0-0.1,0-0.2,0h-0.2v-0.2c0-1.6-0.1-2-0.2-2
				c-0.1-0.2-0.2-0.4-0.2-0.6c-0.1-0.5,0-1,0.2-1.3c0-0.1,0.1-0.4,0.1-1.1v-0.2h0.2c0.7,0,3.1-0.1,3.5,0c0.6,0.2,1.3,0.3,1.9,0.4
				h0.1v0.1c0.1,1.3,0.2,2.6,0.2,3.8l0,0c-0.1,1-0.3,1.9-0.6,2.8L168.6,186z M163.8,183.7C163.8,183.7,163.9,183.7,163.8,183.7
				c0.5,0.1,2.2,0.8,4.3,1.6l0.3,0.1c0.3-0.8,0.5-1.6,0.6-2.5c0-1.2-0.1-2.4-0.2-3.6c-0.6-0.1-1.2-0.2-1.8-0.4c-0.3,0-1.8,0-3.2,0
				c0,0.8,0,1.1-0.2,1.2c-0.1,0.1-0.2,0.6-0.1,1c0,0.2,0.1,0.4,0.2,0.5C163.7,181.8,163.8,182.1,163.8,183.7z"/>
		</g>
		<g>
			<path class="st12" d="M138.2,202.8c0,0.3-0.1,0.6-0.1,0.9l0,0c-1.9,0.3-4.5,0.6-8,1c-3.4,0.4-7.7,1.2-12.1,2
				c-0.1-0.5-0.1-1-0.1-1.2c-0.2-1.8-0.4-9.4-1.2-14.4l21.5-6.7C138.3,191.4,138.4,200.5,138.2,202.8z"/>
			<path class="st9" d="M117.9,207v-0.2c-0.1-0.5-0.1-1-0.1-1.2c-0.1-0.5-0.1-1.5-0.2-2.7c-0.2-3.2-0.4-8.1-1.1-11.7v-0.1l21.8-6.8
				v0.2c0.1,6.8,0.3,16.1,0.1,18.4c0,0.2-0.1,0.5-0.1,1v0.1h-0.1c-2,0.3-4.7,0.6-8,1c-3.2,0.4-7.2,1.1-12,2H117.9z M116.8,191.3
				c0.6,3.6,0.9,8.4,1,11.6c0.1,1.2,0.1,2.2,0.2,2.7c0,0.2,0.1,0.6,0.1,1c4.8-0.9,8.8-1.6,11.9-2c3.3-0.4,5.8-0.7,7.9-1
				c0.1-0.3,0.1-0.6,0.1-0.8l0,0c0.2-2.3,0.1-11.3-0.1-18.1L116.8,191.3z"/>
		</g>
		<g>
			<path class="st12" d="M138.1,184.5l-21.5,6.7c-0.2-1.2-0.5-2.4-1-3.6c-1.7-3.6-6-12.2-6-13.1c0-0.1,0-0.1,0-0.2
				c2-0.3,2.7-0.7,3.2-1.3c0.6-0.7,1.4-2,2.5-2s2.4,1.7,3.2,1.7c0.6,0,2.2-0.1,3.2-0.2c0.4,0.5,0.9,0.9,1.4,1.2
				c3.5,1.7,3.1,1.3,4.4,0.4s2.5-2,4.5-0.7c1.9,1.2,1.7,1.3,2,1c0.2-0.3,0.9-1,1.9,0.3c0.9,1.1,1.4,3.6,2.1,3.8
				C138,180.1,138,182.2,138.1,184.5z"/>
			<path class="st9" d="M116.5,191.4v-0.2c-0.2-1.2-0.5-2.4-1-3.5c-0.4-0.8-0.9-1.9-1.5-3.1c-2.6-5.3-4.6-9.4-4.6-10.1v-0.1v-0.2
				h0.2c2.1-0.3,2.7-0.8,3.1-1.2c0.1-0.1,0.2-0.2,0.3-0.3c0.6-0.7,1.3-1.7,2.3-1.7c0.6,0,1.3,0.5,1.9,1c0.5,0.4,1,0.8,1.3,0.8
				c0.6,0,2.3-0.1,3.2-0.2h0.1l0.1,0.1c0.4,0.5,0.8,0.9,1.3,1.2c2.9,1.4,3,1.3,3.7,0.7c0.1-0.1,0.3-0.2,0.4-0.3l0.1-0.1
				c1.2-0.9,2.6-1.9,4.5-0.6c0.6,0.4,1,0.7,1.3,0.9c0.2,0.1,0.3,0.2,0.4,0.2l0,0v-0.1c0.1-0.1,0.4-0.5,0.9-0.5
				c0.4,0,0.8,0.3,1.2,0.8s0.8,1.4,1.1,2.1c0.3,0.7,0.7,1.6,0.9,1.7h0.1v1.2c0,1.3,0.1,3,0.1,4.7v0.1h-0.1L116.5,191.4z
				 M109.8,174.5L109.8,174.5c0,0.7,2.7,6.3,4.5,10c0.6,1.2,1.1,2.3,1.5,3.1c0.5,1.1,0.8,2.3,0.9,3.4l21.2-6.6
				c0-1.7-0.1-3.3-0.1-4.6v-1c-0.4-0.2-0.7-0.9-1-1.8c-0.3-0.7-0.6-1.5-1-2c-0.4-0.4-0.7-0.7-1-0.7c-0.2,0-0.4,0.1-0.7,0.4l0,0
				c-0.2,0.3-0.3,0.2-0.8-0.1c-0.3-0.2-0.7-0.5-1.3-0.9c-1.8-1.1-3-0.2-4.2,0.6l-0.1,0.1c-0.2,0.1-0.3,0.2-0.4,0.3
				c-0.8,0.7-1.1,0.8-4.1-0.7c-0.5-0.3-1-0.7-1.4-1.2c-1.2,0.1-2.6,0.2-3.2,0.2c-0.5,0-1-0.4-1.5-0.8c-0.6-0.5-1.2-0.9-1.7-0.9
				c-0.8,0-1.5,0.9-2.1,1.5c-0.1,0.1-0.2,0.2-0.3,0.4C112.4,173.8,111.7,174.2,109.8,174.5z"/>
		</g>
		<g>
			<path class="st12" d="M152.6,189.6c0,0-3.4,5.7-5.9,9.6c-1.2,1.9-2.2,3.3-2.6,3.4c-0.7,0.2-1,0.4-6,1.1l0,0
				c0.1-0.4,0.1-0.7,0.1-0.9c0.2-2.3,0.1-11.4-0.1-18.3c-0.1-2.3-0.1-4.3-0.2-5.8c0.1,0,0.2,0,0.2,0c0.8-0.5,1.7-1.5,3.1-1
				c1.2,0.4,2.3,0.4,3.4-0.5c1,1.6,1.9,3.1,2.8,4.5C150.4,186.2,152.6,189.6,152.6,189.6z"/>
			<path class="st9" d="M137.9,203.9v-0.2c0.1-0.4,0.1-0.7,0.1-0.9c0.2-1.8,0.1-7.9-0.1-18.3c-0.1-2.3-0.1-4.3-0.2-5.8v-0.2h0.2h0.1
				c0.1-0.1,0.3-0.2,0.4-0.3c0.7-0.5,1.6-1.1,2.8-0.7c1.3,0.5,2.2,0.3,3.2-0.5l0.1-0.1l0.1,0.2c1,1.6,1.9,3.1,2.8,4.5
				c2.8,4.5,5,7.9,5,8l0.1,0.1l-0.1,0.1c0,0.1-3.4,5.8-5.9,9.6c-1.9,2.9-2.4,3.4-2.7,3.5l-0.2,0.1c-0.7,0.2-1.2,0.4-5.9,1
				L137.9,203.9z M138.1,178.8c0,1.5,0.1,3.4,0.1,5.6c0.2,10.4,0.3,16.6,0.1,18.4c0,0.2,0,0.4-0.1,0.7c4.4-0.6,5-0.8,5.6-1l0.2-0.1
				c0.1,0,0.6-0.4,2.5-3.3c2.3-3.6,5.4-8.8,5.8-9.5c-0.4-0.6-2.4-3.8-4.9-7.9c-0.9-1.4-1.8-2.9-2.7-4.4c-1,0.8-2.1,0.9-3.4,0.4
				c-1.1-0.4-1.8,0.2-2.5,0.6c-0.2,0.1-0.3,0.2-0.5,0.3C138.2,178.8,138.2,178.8,138.1,178.8z"/>
		</g>
		<g>
			<path class="st12" d="M144.7,177.1c-1.1,0.9-2.2,1-3.4,0.5c-1.4-0.5-2.3,0.5-3.1,1c-0.1,0-0.2,0.1-0.2,0
				c-0.7-0.2-1.2-2.7-2.1-3.8c-1-1.3-1.7-0.6-1.9-0.3s0,0.2-2-1s-3.3-0.2-4.5,0.7s-0.9,1.3-4.4-0.4c-0.5-0.3-1-0.7-1.4-1.2
				c-2.7-3.2-6.3-11.3-7.8-15.1l0.3-0.1l16.3-9.9l3.6,6.6l2.6,4.8c-1.8,0-1.9,0.7-1.9,1.7C134.9,161.3,140,169.6,144.7,177.1z"/>
			<path class="st9" d="M138,178.8h-0.1c-0.4-0.1-0.8-0.9-1.2-1.9c-0.3-0.7-0.6-1.5-1-2c-0.4-0.4-0.7-0.7-1-0.7l0,0
				c-0.2,0-0.4,0.1-0.7,0.4l0,0c-0.2,0.3-0.3,0.2-0.8-0.1c-0.3-0.2-0.7-0.5-1.3-0.9c-1.8-1.1-3-0.2-4.2,0.6l-0.1,0.1
				c-0.2,0.1-0.3,0.2-0.4,0.3c-0.8,0.7-1.1,0.8-4.1-0.7c-0.6-0.3-1.1-0.8-1.5-1.3c-2.8-3.3-6.4-11.7-7.9-15.1l-0.1-0.2l0.5-0.1
				l16.4-9.9l6.4,11.8h-0.3c-1.6,0-1.7,0.6-1.7,1.5c0,0.3,1.8,3.4,9.8,16.3l0.1,0.1l-0.1,0.1c-1.1,0.9-2.2,1-3.5,0.5
				c-1.1-0.4-1.8,0.2-2.5,0.6c-0.2,0.1-0.3,0.2-0.5,0.3C138.2,178.8,138.1,178.8,138,178.8z M134.7,173.9L134.7,173.9
				c0.4,0,0.8,0.3,1.3,0.8c0.4,0.5,0.8,1.4,1.1,2.1c0.3,0.7,0.7,1.6,0.9,1.7h0.1c0.1-0.1,0.3-0.2,0.4-0.3c0.7-0.5,1.6-1.1,2.8-0.7
				c1.2,0.4,2.2,0.3,3.1-0.4c-8.7-13.9-9.8-16-9.8-16.4c0-1,0.1-1.8,1.8-1.8l-6-11l-16.2,9.8H114c1.5,3.6,5,11.7,7.7,14.9
				c0.4,0.5,0.8,0.9,1.4,1.2c2.9,1.4,3,1.3,3.7,0.7c0.1-0.1,0.3-0.2,0.4-0.3l0.1-0.1c1.2-0.9,2.6-1.9,4.5-0.6
				c0.7,0.4,1.1,0.7,1.3,0.9c0.2,0.1,0.3,0.2,0.4,0.2l0,0v-0.1C134.1,174.1,134.4,173.9,134.7,173.9z"/>
		</g>
		<g>
			<path class="st12" d="M151.9,159.1c-3.1,0-13.3,0-14.9,0h-0.2l-2.6-4.8c3-0.8,9-2.4,15-3.7h0.2
				C149.8,152.3,150.8,156.7,151.9,159.1z"/>
			<path class="st9" d="M140.9,159.3c-1.9,0-3.4,0-3.9,0h-0.3l-2.7-5.1l0.2-0.1c3.8-1,9.5-2.5,15-3.7l0.4-0.1v0.2
				c0.4,1.8,1.4,6.2,2.5,8.5l0.1,0.2h-0.3c-0.9,0-2.4,0-4,0C145.7,159.3,143,159.3,140.9,159.3z M136.9,158.9h0.1
				c1.2,0,6.8,0,10.9,0c1.5,0,2.9,0,3.8,0c-1-2.3-2-6.4-2.4-8.2l0,0c-5.4,1.2-11,2.6-14.8,3.7L136.9,158.9z"/>
		</g>
		<g>
			<path class="st12" d="M170.5,154.6L170.5,154.6c-2-0.2-5.7-0.6-7.9-0.8c-1.1-0.1-1.8-0.2-1.9-0.2c-0.3-0.1-0.1-4.9,0-6.9
				c0-0.1,0-0.1,0-0.2c2.2,0.2,8.3,1.4,10.6,1.8c0.1,0.5,0.2,1.1,0.3,1.7C172,152.6,170.8,152.9,170.5,154.6z"/>
			<path class="st9" d="M170.7,154.9h-0.2c-2-0.2-5.6-0.6-7.9-0.8c-0.8-0.1-1.8-0.2-1.9-0.2c-0.2,0-0.4-0.1-0.2-7.1v-0.3h0.2
				c2.2,0.2,8.1,1.3,10.6,1.8h0.1v0.1c0.1,0.3,0.1,0.6,0.2,0.9c0,0.3,0.1,0.5,0.1,0.8c0.3,1.7-0.1,2.4-0.5,3.2
				c-0.2,0.4-0.5,0.8-0.6,1.4L170.7,154.9L170.7,154.9z M160.8,153.5c0.2,0,0.7,0.1,1.8,0.2c2.2,0.2,5.7,0.6,7.7,0.8
				c0.1-0.6,0.4-1,0.6-1.4c0.4-0.7,0.8-1.4,0.5-3c0-0.3-0.1-0.5-0.1-0.8s-0.1-0.5-0.1-0.8c-2.5-0.5-8-1.5-10.3-1.8
				C160.7,151.2,160.8,153.1,160.8,153.5z"/>
		</g>
		<g>
			<path class="st12" d="M158.2,167.7c-0.3,0.4-0.6,0.8-0.9,1.2c-0.2,0.3-0.5,3.8-0.7,7.1c-0.2,2.4-0.3,4.8-0.4,5.9h-0.1
				c-0.4,0-6.7-0.2-8.5-0.3c-0.9-1.4-1.9-3-2.8-4.5c-4.7-7.6-9.8-15.9-9.8-16.4c0-0.9,0.1-1.7,1.9-1.7h0.2c1.6,0,11.8,0,14.9,0
				c0.2,0.4,0.4,0.8,0.6,1.1C153.6,161.6,156.3,164.9,158.2,167.7z"/>
			<path class="st9" d="M156.3,182.2l-0.2-0.1c0,0,0,0-0.1,0c-0.4,0-7.2-0.2-8.5-0.3h-0.1v-0.1c-0.9-1.4-1.9-3-2.8-4.5
				c-9.9-15.8-9.9-16.3-9.9-16.5c0-1,0.2-1.8,2-1.8h0.2c1.2,0,6.8,0,10.9,0c1.7,0,3.1,0,4,0h0.1v0.1c0.2,0.4,0.4,0.7,0.6,1.1
				c1.2,1.4,3.8,4.8,5.7,7.5l0.1,0.1l-0.1,0.1c-0.3,0.4-0.6,0.8-0.9,1.2c0,0.1-0.2,0.9-0.7,7.1c-0.1,1.6-0.2,3.1-0.3,4.3
				c0,0.7-0.1,1.2-0.1,1.6L156.3,182.2z M147.6,181.5c2.2,0.1,7.8,0.3,8.4,0.3c0-0.4,0.1-0.9,0.1-1.4c0.1-1.2,0.2-2.7,0.3-4.3
				c0.5-6.7,0.7-7.1,0.7-7.2c0.2-0.4,0.5-0.8,0.8-1.2c-1.9-2.7-4.5-6-5.6-7.4c-0.3-0.3-0.5-0.7-0.6-1.1c-0.9,0-2.3,0-3.9,0
				c-4.1,0-9.7,0-10.9,0h-0.2c-1.6,0-1.7,0.6-1.7,1.5c0,0.3,1.4,2.8,9.8,16.3C145.8,178.6,146.8,180.1,147.6,181.5z"/>
		</g>
		<g>
			<path class="st12" d="M163.1,163.8c-2.6,1.7-4.1,3-4.9,3.9c-1.9-2.8-4.6-6.1-5.7-7.5c-0.3-0.3-0.5-0.7-0.6-1.1
				c-1.1-2.3-2.1-6.8-2.5-8.5c8.2-1.8,8.8-4.1,11.2-4l0,0l0.2,0.2c-0.1,2-0.2,6.8,0,6.9c0.1,0,0.8,0.1,1.9,0.2L163.1,163.8z"/>
			<path class="st9" d="M158.2,168l-0.1-0.2c-2-2.9-4.9-6.5-5.7-7.5c-0.3-0.4-0.5-0.7-0.7-1.1c-1.1-2.4-2.1-6.8-2.5-8.6v-0.2h0.2
				c4.7-1,6.9-2.3,8.3-3.1c1.1-0.6,1.8-1,2.9-0.9h0.1l0.3,0.3v0.1c-0.2,4.4-0.1,6.3,0,6.7c0.1,0,0.2,0,0.4,0c0.3,0,0.8,0.1,1.4,0.2
				h0.1l0.5,10.2l-0.1,0.1c-2.2,1.4-3.8,2.7-4.9,3.8L158.2,168z M149.5,150.7c0.4,1.9,1.4,6.1,2.5,8.4c0.2,0.4,0.4,0.7,0.6,1.1
				c0.8,1,3.6,4.4,5.6,7.3c1.1-1.2,2.7-2.4,4.7-3.7l-0.5-9.7c-0.5-0.1-0.9-0.1-1.2-0.1c-0.2,0-0.4-0.1-0.5-0.1l0,0
				c-0.2,0-0.4-0.1-0.2-7l-0.1-0.1c-0.9,0-1.6,0.3-2.7,0.9C156.3,148.4,154.1,149.6,149.5,150.7z"/>
		</g>
		<g>
			<path class="st12" d="M159.5,169.8L159.5,169.8c0,0.1-0.1,0.2-0.1,0.3c-0.1,0.6-0.2,1.7-0.3,3.1c-0.1,0.8-0.1,1.8-0.2,2.7
				l-2.4,0.1c0.3-3.3,0.6-6.8,0.7-7.1c0.2-0.4,0.5-0.9,0.9-1.2C158.7,168.4,159.2,169.1,159.5,169.8z"/>
			<path class="st9" d="M156.4,176.2V176c0.5-6.7,0.7-7.1,0.7-7.2c0.2-0.5,0.6-0.9,0.9-1.3l0.1-0.2l0.1,0.2c0.5,0.7,0.9,1.4,1.3,2.1
				v0.1v0.1c0,0.1-0.1,0.2-0.1,0.3c-0.1,0.5-0.2,1.5-0.3,3.1c-0.1,0.8-0.1,1.8-0.2,2.7v0.2L156.4,176.2z M158.2,167.9
				c-0.3,0.3-0.5,0.7-0.7,1c-0.1,0.1-0.2,1-0.7,6.9l2.1-0.1c0.1-0.9,0.1-1.8,0.2-2.6c0.1-1.7,0.2-2.7,0.3-3.2c0-0.1,0-0.2,0.1-0.3
				C159,169.2,158.6,168.5,158.2,167.9z"/>
		</g>
		<g>
			<path class="st12" d="M164,172.7c-0.4,0.1-1,0.2-1.4,0.4c-0.5,0.2-2.6,0.2-3.4,0.2c0.1-1.4,0.2-2.6,0.3-3.1l0.2-0.1
				c0.8-0.4,2-1,2.3-1.1c0.4-0.2,0.1,1.1,0,1.6s0.7,0.1,1.4-0.2c0.2-0.1,0.4-0.2,0.6-0.3C164.1,170.9,164.1,171.8,164,172.7z"/>
			<path class="st9" d="M160,173.4c-0.4,0-0.7,0-0.8,0H159v-0.2c0.1-1.7,0.2-2.7,0.3-3.2v-0.1l0.3-0.1c1.3-0.6,2.1-1,2.4-1.1
				c0.2-0.1,0.3,0,0.3,0c0.2,0.2,0.1,0.7,0,1.4c0,0.1,0,0.2-0.1,0.3l0,0c0.1,0.1,0.8-0.2,1.1-0.4h0.1c0.2-0.1,0.4-0.2,0.5-0.3
				l0.2-0.1v0.3c0.1,0.9,0.1,1.8,0,2.8v0.1H164c-0.4,0.1-1,0.2-1.4,0.4C162.2,173.4,160.9,173.4,160,173.4z M159.4,173.1
				c1.1,0,2.8,0,3.2-0.1s0.9-0.2,1.3-0.3c0.1-0.8,0.1-1.5,0-2.3c-0.1,0.1-0.2,0.1-0.3,0.2h-0.1c-0.8,0.3-1.2,0.5-1.5,0.3
				c-0.1-0.1-0.1-0.2-0.1-0.3s0-0.2,0.1-0.3c0.1-0.3,0.2-0.9,0.1-1.1c-0.3,0.1-1.1,0.5-2.3,1.1l-0.1,0.1
				C159.5,170.7,159.5,171.6,159.4,173.1z"/>
		</g>
		<g>
			<path class="st12" d="M163.6,183.9c-1,0-3.7,0.2-4.2,0c-0.3-0.1-0.6-0.3-0.8-0.5c0-0.6,0.1-1.3,0.1-2.2h4.6
				c0,0.2,0.1,0.4,0.2,0.6C163.6,182.1,163.6,183.1,163.6,183.9z"/>
			<path class="st9" d="M160.5,184.2c-0.5,0-0.9,0-1.1-0.1c-0.3-0.1-0.6-0.3-0.9-0.5l-0.1-0.1v-0.1c0-0.6,0.1-1.3,0.1-2.2V181h4.9
				v0.1c0,0.2,0.1,0.3,0.2,0.5c0.1,0.1,0.2,0.3,0.2,2.2v0.2h-0.2c-0.3,0-0.9,0-1.4,0C161.5,184.2,160.9,184.2,160.5,184.2z
				 M158.7,183.3c0.2,0.2,0.5,0.3,0.7,0.4c0.3,0.1,1.7,0.1,2.7,0c0.5,0,0.9,0,1.3,0c0-1.5-0.1-1.8-0.2-1.9c-0.1-0.2-0.1-0.3-0.2-0.5
				h-4.3C158.8,182.2,158.8,182.8,158.7,183.3z"/>
		</g>
		<g>
			<path class="st12" d="M159,176c-0.1,1.8-0.2,3.7-0.3,5.3c0,0.9-0.1,1.6-0.1,2.2c-0.8-0.5-1.9-1.3-2.4-1.4
				c0.1-1.1,0.2-3.5,0.4-5.9L159,176z"/>
			<path class="st9" d="M158.7,183.7l-0.2-0.2c-0.2-0.1-0.4-0.2-0.6-0.4c-0.7-0.4-1.4-0.9-1.8-1H156V182c0.1-1.1,0.2-3.4,0.4-5.9
				V176l2.7-0.1v0.2c-0.1,1.5-0.2,3.2-0.3,5.3c0,0.9-0.1,1.6-0.1,2.2L158.7,183.7z M156.4,181.9c0.4,0.2,1.1,0.6,1.7,1
				c0.1,0.1,0.2,0.1,0.3,0.2c0-0.5,0.1-1.2,0.1-1.9c0.1-2,0.2-3.7,0.3-5.1l-2.1,0.1C156.6,178.6,156.4,180.8,156.4,181.9z"/>
		</g>
		<g>
			<path class="st12" d="M163.8,173.7c-0.4,1.1-0.3,3.6-0.3,5.1c0,0.7,0,1.1-0.1,1.2c-0.2,0.2-0.3,0.7-0.2,1.2h-4.6
				c0.1-1.5,0.2-3.5,0.3-5.3c0.1-1,0.1-1.9,0.2-2.7c0.8,0,2.9,0,3.4-0.2c0.4-0.1,1-0.3,1.4-0.4C164,173.1,163.9,173.4,163.8,173.7z"
				/>
			<path class="st9" d="M163.5,181.4h-4.9v-0.2c0.1-2.1,0.2-3.8,0.3-5.3c0.1-1,0.1-1.9,0.2-2.7V173h0.4c0.9,0,2.7,0,3.2-0.1
				c0.4-0.1,0.9-0.3,1.4-0.4l0.2-0.1v0.2c0,0.3-0.1,0.7-0.2,1l0,0c-0.3,0.9-0.3,2.7-0.3,4.2c0,0.3,0,0.6,0,0.9c0,1-0.1,1.2-0.2,1.3
				c-0.1,0.1-0.2,0.6-0.1,1L163.5,181.4z M158.9,181.1h4.2c0-0.4,0-0.9,0.3-1.1c0,0,0.1-0.3,0.1-1.1c0-0.3,0-0.6,0-0.9
				c0-1.5,0-3.3,0.3-4.3c0.1-0.2,0.1-0.5,0.2-0.7c-0.4,0.1-0.9,0.2-1.2,0.3c-0.5,0.2-1.9,0.2-3.3,0.2h-0.1c-0.1,0.8-0.1,1.7-0.2,2.5
				C159.1,177.4,159,179.1,158.9,181.1z"/>
		</g>
	</g>
</g>
<g>
	<g>
		<path class="st6" d="M1024,125.5L1024,125.5v-0.1c0.4-1.6,1-3.2,1.9-4.6c3.2-5.2,4.3-11.6,2.9-17.6l-0.6-3.2
			c-0.2-1.5-0.5-2.8-0.7-4.2l0,0c-1.7-9.4-3.2-16.4-5.6-22.7c-3.9-10.8-7.3-21.9-10.1-33c-1.3-6.3-2.4-18.8-2.4-19
			c-0.2-3.5-3.2-6.1-6.7-5.8c-2.1,0.1-4,1.3-5.1,3.2c-2.9,5-7.4,10.1-9.4,10.8c-2.7,1-12.4,1.3-17.7,1.5c-7.1,0.3-9.7,0.4-11.5,1.5
			c-1.8,0.3-3.7,0.4-5.5,0.2c-3.5-1-25.8-2.4-33.6,0.6c-2.4,1-4.5,1.9-6.2,2.7l0,0l-1.5,0.8c-1,0.6-2.1,1.1-3.2,1.6
			c-11.1,1.5-22.3,2.4-33.5,2.6l0,0l-2.9,0.1c-18.7,0.4-30-1.8-31.7-2.4c-0.2-0.1-0.5-0.2-1-0.4c-4-1.8-14.7-6.5-27-4.3H813h-0.3
			h-0.1l-1,0.2c-13.6,2.9-21,6.4-22.8,7.4c-2.7,1.1-22.5,7.7-30.7,10c-2-3.5-5.2-9.7-7.2-13.8c-6.1-12.1-7.2-14.1-9.4-15.5
			c-2.1-1.4-16.1-6.4-20.3-7.9c-20.2-7.1-21.1-6.6-23.8-5c-1.8,1-2.4,1.9-7.5,10.6c-4.4,7.4-16.1,27-20.2,29.7
			c-2.4,1-12.5,4.9-24.2,9.3c-14.7,5.6-32.9,12.6-47.6,18.3c-8.1,3.2-14.1,5.6-18.4,7.4c-2.4,1-4.3,1.8-5.6,2.4
			c-1.9,0.9-6.4,2.9-5.4,7.9c0.4,2.1,0.8,2.7,7.9,10.5c7.4,8.2,21.1,23.3,25.4,31.3c2.2,4.1,6.6,14.1,12.3,28.1l0,0
			c4.5,11,9.6,24,14,35.7l0,0c3.8,9.9,6.8,18.3,8.5,23.3c3.1,9.4,13.6,43,30.4,97.1l0,0l7.4,24.2l8.9,31l0,0l37,128.3
			c0.7,2.7,3.2,4.6,6,4.6c0.2,0,0.5,0,0.7,0l76.7-9.3h0.3l0.5-0.1h0.1l55.7-9.7l0,0l0.8-0.1l0.4-0.1l64.1-16.1
			c2.2-0.6,4-2.3,4.6-4.5c2.4-8.9,8.3-24.6,14.2-28.8c0.4-0.3,0.8-0.7,1.2-1.1c0,0,0.4-0.4,1-1.3l0,0c17.3-20.9,17.5-25.6,17.6-27.5
			v-1.3c0.6-21.5,3.5-28.3,5-30.5l0.6-0.7l0,0c4.3-6.1,7.3-13.2,8.7-20.5c1.5-8.1,2.5-13.8,2.9-16.3l0,0l0,0l0.3-1.6
			c0-0.1,0-0.3,0-0.4c1.5-12.2,4.8-24.2,9.8-35.3c3.4-7.1,7.6-13.7,12.7-19.7c3.2-4,6-7.4,7.4-11.7c0.7-1.9,1.5-3.9,2.1-5.8
			c0.4-1.1,0.9-2.2,1.3-3.3l0,0c1.8-4.5,2.9-9.2,3.2-14.1c0-4.1-0.1-9.8-0.7-17.2l0,0c-0.7-7.3-1.7-14.5-3.1-21.7
			c-1.5-9.5-4.1-18.8-7.7-27.8l0,0l0,0c-0.5-1.3-1-2.4-1.3-3.4c-0.4-0.9-0.7-1.9-0.7-2.9c0,0,0.4-0.7,2.4-1.8
			c6.2-3.5,14.1-10.4,17.7-19.4l0,0c0.8-2,1.4-4,1.8-6.2c0.7-5.2,0.3-10.5-1.3-15.5C1024.1,129.4,1023.7,127.5,1024,125.5z"/>
	</g>
	<g>
		<path class="st9" d="M804.5,203.2c-4.4,0.3-11.6,0.7-14.1,0.7c-3.8,0-9.4-7.7-14.1-7.7c-4.8,0-8.3,5.7-10.8,8.5
			c-2.1,2.4-5.1,4.4-14,5.6c-1.9,0.2-4,0.4-6.6,0.6c-14.1,0.9-18.8-5.6-26.9-7.1s-8.5,1.3-13.9,2.5s-9.3-6.3-23.9-13.4
			c-14.6-7.1-13-2.4-19.5-0.8c-6.5,1.5-16.5-8-17.9-7.6c-0.9,0.2-5.4,7.4-8.8,13c-4.3-11.3-9.4-24.4-14.1-35.9
			c8.6-1.2,28.1-4,62.3-9.7c43.4-7.1,80.2-13.5,88-14.9C776.9,153.5,792.5,189.1,804.5,203.2z"/>
		<path class="st9" d="M742.2,211.8c-7.7,0-12.6-2.3-16.9-4.3c-2.6-1.2-4.9-2.4-7.7-2.9c-5.2-1-6.9-0.1-9.2,0.9
			c-1.2,0.5-2.5,1.2-4.4,1.5c-3.2,0.7-5.9-1.3-9.9-4.3c-3.2-2.5-7.7-5.9-14.4-9.1c-10.4-5-12.2-4-14.9-2.5c-1,0.6-2.3,1.3-4.1,1.7
			c-4.7,1.1-10.8-3-14.9-5.7c-1.2-0.8-2.5-1.7-3-1.8c-0.4,0.4-2.2,2.6-8.3,12.7l-0.8,1.3l-0.5-1.4c-4.4-11.7-9.6-24.7-14.1-35.9
			l-0.4-0.9l1-0.1c8.5-1.2,28-4,62.3-9.7c45.6-7.5,83.8-14.2,88-14.9l0.6-0.1l0.2,0.5c6.3,15.1,22.2,51.8,34.2,66l1,1.1l-1.5,0.1
			c-4.9,0.3-11.7,0.7-14.2,0.7c-2,0-4.3-1.8-6.7-3.6c-2.6-2-5.2-4-7.4-4c-3.6,0-6.6,3.8-8.8,6.6c-0.5,0.6-1,1.2-1.4,1.7
			c-2.4,2.7-5.7,4.6-14.4,5.8c-1.9,0.2-4.1,0.4-6.6,0.6C743.9,211.8,743.1,211.8,742.2,211.8z M713.7,202.7c1.2,0,2.6,0.1,4.3,0.4
			c2.9,0.6,5.4,1.8,8.1,3c4.6,2.2,9.8,4.6,18.7,4.1c2.4-0.1,4.6-0.4,6.5-0.6c9.3-1.3,11.9-3.4,13.5-5.4c0.4-0.4,0.9-1,1.3-1.6
			c2.4-3,5.7-7.1,10-7.1c2.8,0,5.6,2.2,8.3,4.3c2.1,1.6,4.3,3.3,5.8,3.3c2.4,0,9.1-0.4,12.7-0.7c-11.9-14.9-27-49.6-33.3-64.6
			c-6.3,1.1-43.5,7.6-87.4,14.8c-33.1,5.4-52.4,8.3-61.4,9.6c4.3,10.5,9.1,22.5,13.2,33.6c7.2-11.8,8-12,8.5-12.1
			c0.7-0.1,1.7,0.4,4.2,2.1c3.6,2.4,9.6,6.5,13.7,5.5c1.6-0.4,2.7-1,3.8-1.5c3.3-1.8,5.7-2.7,16.3,2.4c6.8,3.3,11.4,6.8,14.7,9.3
			c3.8,2.9,6.1,4.6,8.7,4c1.8-0.4,2.9-1,4.1-1.5C709.6,203.4,711.1,202.7,713.7,202.7z"/>
	</g>
	<g>
		<path class="st12" d="M843,93.6l-71.3,43.2l-1.5,0.3c-7.8,1.4-44.6,7.8-88,14.9c-34.2,5.7-53.8,8.5-62.3,9.7
			c-5.2-12.9-10-23.9-12.6-28.7c-7-12.7-32.5-38.7-32.8-39.9s90.6-35.3,97.6-38.4c7-3,26.9-39.8,28.3-40.6s35.5,11.5,37.6,12.8
			c2,1.3,15.2,31.1,17.6,31.1s34.2-10.5,35.8-11.4c1.6-0.9,8.5-4,21.4-6.8c0.3-0.1,0.7-0.1,1-0.1L843,93.6z"/>
		<path class="st9" d="M619.4,162.5l-0.2-0.5c-4.1-10.1-9.6-23.2-12.6-28.6c-4.6-8.5-18-23.3-26.1-32.3c-5.7-6.3-6.6-7.3-6.6-7.9
			c-0.1-1-0.2-1.5,73.6-29.7c12.5-4.8,22.4-8.5,24.5-9.4c4.7-2,16.4-21.5,22.7-32c4-6.7,5-8.3,5.5-8.6c2.3-1.3,38,12.7,38.3,12.8
			c1,0.6,2.9,4.3,7.4,13.2c3.5,6.8,8.6,17.1,9.9,17.7c2,0,33.6-10.5,35.3-11.3c0.7-0.4,7.7-3.9,21.6-6.9c0.4-0.1,0.7-0.1,1-0.1
			l0.5-0.1l29.7,54.9l-72.2,43.7l-1.5,0.3c-1.6,0.3-40.6,7.1-88,14.9c-34.3,5.7-53.8,8.5-62.3,9.7L619.4,162.5z M575.5,93.3
			c0.8,1,3.4,3.8,6,6.8c8.1,8.9,21.6,23.9,26.4,32.5c2.9,5.4,8.3,18.3,12.4,28.3c8.8-1.3,28.2-4.1,61.7-9.6
			c47.3-7.8,86.4-14.7,88-14.9l1.3-0.2L842,93.3l-28.6-52.9c-0.1,0-0.3,0.1-0.4,0.1c-13.7,2.9-20.5,6.4-21.3,6.8
			c-1.5,0.7-33.6,11.5-36.2,11.5c-1.5,0-4-4.4-11.1-18.6c-2.9-5.7-6.1-12-6.8-12.7c-2.1-1.4-33.7-12.7-36.8-12.7
			c-0.5,0.6-2.7,4.2-5,8c-9.2,15.4-18.6,30.6-23.3,32.5c-2.1,0.9-12,4.6-24.5,9.4C622.4,74.7,580.5,90.6,575.5,93.3z"/>
	</g>
	<g>
		<path class="st12" d="M782,284.2l-109,34.2c-9.8-31.7-26.2-84.5-30.5-97.3c-1.8-5.3-4.9-13.8-8.5-23.5c3.4-5.6,8-12.8,8.8-13
			c1.5-0.4,11.6,9.1,17.9,7.6c6.3-1.5,4.9-6.3,19.5,0.8s18.4,14.6,23.9,13.4c5.4-1.2,5.9-4,13.9-2.5s12.8,8,26.9,7.1
			c2.5-0.1,4.6-0.4,6.6-0.6c0.1,0.3,0.1,0.5,0.1,0.8c0,3.9,18.8,41.7,26.4,57.4C779.9,273.6,781.3,278.8,782,284.2z"/>
		<path class="st9" d="M672.4,319.3l-0.2-0.7c-6-19.2-25.7-83-30.5-97.3c-1.8-5.3-4.9-13.8-8.5-23.4l-0.1-0.4l0.2-0.3
			c7.9-13,8.8-13.3,9.2-13.4c0.7-0.1,1.7,0.4,4.3,2.1c3.6,2.4,9.6,6.4,13.6,5.4c1.6-0.4,2.7-1,3.7-1.5c3.3-1.8,5.7-2.7,16.3,2.4
			c6.8,3.3,11.3,6.8,14.7,9.3c3.8,2.9,6.1,4.6,8.7,4c1.8-0.4,2.9-1,4.1-1.5c2.4-1.1,4.5-2.1,10.1-1c2.9,0.6,5.4,1.8,8,3
			c4.6,2.2,9.8,4.6,18.7,4.1c2.4-0.1,4.6-0.4,6.5-0.6l0.7-0.1l0.1,0.7c0.1,0.3,0.1,0.7,0.1,1c0,2.9,12.4,28.6,20.7,45.4
			c2.1,4.4,4.1,8.5,5.6,11.6c2.1,5.1,3.5,10.4,4.2,15.8l0.1,0.6l-0.6,0.2L672.4,319.3z M634.7,197.7c3.6,9.5,6.7,17.9,8.5,23.2
			c4.7,14.1,24.1,76.6,30.3,96.6l107.8-33.8c-0.7-5.1-2.1-10-4-14.8c-1.5-3.1-3.5-7.1-5.6-11.6c-11.4-23.4-20.8-43.1-20.8-46.1l0,0
			c-1.7,0.2-3.7,0.4-5.9,0.5c-9.4,0.6-14.7-2-19.4-4.3c-2.5-1.2-4.9-2.4-7.7-2.9c-5.1-1-6.9-0.1-9.2,0.9c-1.2,0.5-2.5,1.2-4.4,1.5
			c-3.2,0.7-5.9-1.3-9.9-4.3c-3.2-2.5-7.7-5.9-14.4-9.1c-10.4-5.1-12.2-4-14.9-2.5c-1,0.6-2.3,1.3-4,1.7c-4.6,1.1-10.8-2.9-14.8-5.7
			c-1.2-0.8-2.6-1.7-3.1-1.9C642.5,185.7,640.8,187.7,634.7,197.7z"/>
	</g>
	<g>
		<path class="st12" d="M788,352.6c-38.7,7.4-79.8,16.7-98.6,21.1l-8.9-31c0,0-3.1-9.9-7.5-24.3l109-34.2c3.8,22,4.6,55.1,5.4,63.1
			C787.5,348.4,787.7,350.1,788,352.6z"/>
		<path class="st9" d="M688.9,374.6l-9.1-31.7l0,0c0,0-3.1-9.9-7.5-24.2L672,318l110.6-34.7l0.1,0.8c2.7,15.9,3.9,37.3,4.7,51.4
			c0.3,5.3,0.5,9.5,0.7,11.7c0.1,1,0.3,2.9,0.6,5.2l0.1,0.7l-0.7,0.1c-40.1,7.7-82.3,17.4-98.6,21.1L688.9,374.6z M673.8,318.9
			c4.3,13.9,7.3,23.6,7.3,23.6l8.8,30.3c16.7-3.9,57.9-13.3,97.3-20.8c-0.2-2.1-0.4-3.6-0.5-4.6c-0.2-2.2-0.4-6.5-0.7-11.8
			c-0.7-13.8-1.9-34.7-4.5-50.4L673.8,318.9z"/>
	</g>
	<g>
		<path class="st12" d="M803.4,492.9l-0.5,0.1l-76.6,9.3l-37-128.6c18.8-4.4,59.9-13.7,98.6-21.1c2.4,21.6,10.2,92.9,10.8,110.2
			C799.4,472.9,800.9,483,803.4,492.9z"/>
		<path class="st9" d="M725.7,503.1l-37.3-130l0.7-0.1c12.5-2.9,56.5-13,98.7-21.1l0.8-0.1l0.9,7.9c2.8,26.1,9.5,87.4,10.1,103.2
			c0.5,10.1,2.1,20.2,4.6,30l0.2,0.7l-1.3,0.2L725.7,503.1z M690.3,374.2l36.6,127.2l75.7-9.2c-2.4-9.6-4-19.6-4.5-29.5
			c-0.6-15.8-7.2-76.9-10.1-103.1l-0.7-6.3C746.3,361.2,703.6,371.1,690.3,374.2z"/>
	</g>
	<g>
		<path class="st12" d="M855.4,406.1c-0.7,2.7,2.6,58.3,3.8,77.1l-55.7,9.7c-2.6-9.9-4.1-20-4.6-30.2c-0.7-17.3-8.5-88.6-10.8-110.2
			c19.1-3.7,37.8-6.8,52.8-8.8c15.5-1.9,26.7-3.5,35-4.6c-2.1,9.9-4.7,19.7-7.9,29.2C862.3,386.3,855.9,404.2,855.4,406.1z"/>
		<path class="st9" d="M802.8,493.7l-0.1-0.7c-2.6-9.9-4.1-20.1-4.6-30.3c-0.6-15.7-7.2-76.9-10.1-103l-0.8-7.8l0.7-0.1
			c21.4-4.1,39.2-7.1,52.9-8.8c14.6-1.8,26.1-3.3,35-4.6l1-0.1l-0.2,1c-2.1,9.9-4.8,19.7-7.9,29.3c-3.8,12.4-8,24.7-10.5,32
			c-1,2.9-1.8,5.2-1.9,5.7c-0.6,2.2,1.5,41.1,3.8,76.9l0.1,0.7L802.8,493.7z M788.7,353.1l0.7,6.5c2.8,26.1,9.5,87.3,10.1,103.1
			c0.5,9.9,2.1,19.7,4.5,29.4l54.4-9.5c-1.4-22.7-4.4-73.9-3.7-76.7l0,0c0.1-0.6,0.9-2.7,1.9-5.7c2.5-7.3,6.6-19.4,10.5-32
			c3-9.2,5.6-18.7,7.7-28.1c-8.8,1.2-20,2.7-34,4.4C827.4,346.1,809.8,349.1,788.7,353.1z"/>
	</g>
	<g>
		<path class="st12" d="M964.7,373.6c-0.3,0.4-0.4,0.6-0.4,0.6c-6,8-6.3,30.6-6.4,35.4c-0.1,4-12.5,19.3-16.1,23.7
			c-15.5-8.1-54.1-28.6-57.4-31.6c-2.9-2.7-11.7-22.6-16.3-33.4c3.2-9.6,5.8-19.4,7.9-29.2l0,0c10.5,1.3,30.2,12.4,36.7,15
			C917.4,356.1,948.5,367.6,964.7,373.6z"/>
		<path class="st9" d="M941.9,434.3l-0.5-0.3c-16.2-8.5-54.2-28.6-57.6-31.7c-3.2-2.9-12.6-24.5-16.5-33.6l-0.1-0.2l0.1-0.3
			c3.2-9.5,5.8-19.4,7.9-29.2l0.1-0.7l0.7,0.1c7.7,1,19.8,6.9,28.7,11.3c3.4,1.7,6.3,3.1,8.2,3.8c4.7,1.8,34.5,12.9,50.4,18.8l2.6,1
			l-0.5,0.8c-0.3,0.4-0.4,0.7-0.4,0.7c-5.4,7.3-6,27.2-6.2,33.8v1.3c-0.1,4-10.3,16.9-16.3,24.2L941.9,434.3z M868.7,368.4
			c8,18.7,14,31,16.1,32.9c3.2,3,43.5,24.2,56.7,31.1c9.5-11.6,15.5-20.3,15.6-22.8v-1.2c0.1-6.6,0.7-26.7,6.3-34.5l-0.7-0.3
			c-17.1-6.3-45.7-17-50.4-18.8c-1.9-0.7-4.9-2.2-8.2-3.8c-8.5-4.2-20.1-9.8-27.5-11C874.3,349.5,871.8,359.1,868.7,368.4z"/>
	</g>
	<g>
		<path class="st12" d="M975.1,339.5c-0.4,2.6-1.5,8.2-2.9,16.1c-1.3,6.5-3.8,12.6-7.6,18c-16.1-6-47.2-17.6-52.1-19.4
			c-6.6-2.6-26.2-13.7-36.7-15c21.9-3,23.1-3.8,26.4-4.8c1.5-0.4,5.9-6.7,11.3-14.9c5.1,2.6,15.1,7.4,20.1,9
			C939.2,330.2,965.7,337.1,975.1,339.5z"/>
		<path class="st9" d="M964.9,374.5l-0.5-0.2c-16.3-6-47.3-17.6-52.1-19.4c-1.9-0.7-4.9-2.2-8.5-4c-8.8-4.3-20.7-10.1-28.1-11
			l-5.5-0.7l5.5-0.7c20.2-2.8,22.8-3.6,25.6-4.6l0.7-0.2c0.7-0.2,3.2-2.9,10.8-14.7l0.4-0.5l0.6,0.3c4.3,2.1,14.9,7.4,20,8.9
			c3.8,1.2,18.2,5,41.5,11.1l0.7,0.1l-0.1,0.7c-0.5,2.9-1.7,9.4-2.9,16.1c-1.3,6.6-3.8,12.7-7.7,18.3L964.9,374.5z M880.2,339.3
			c7.4,2,16.9,6.7,24.3,10.3c3.5,1.7,6.5,3.2,8.4,3.9c4.7,1.8,35.1,13.2,51.5,19.2c3.5-5.2,6-11,7.1-17.2c1.2-6.2,2.3-12.3,2.8-15.5
			c-23-6-37.2-9.8-40.9-11c-5-1.5-15-6.4-19.7-8.8c-8.1,12.3-10.2,14.4-11.3,14.7l-0.7,0.2C899.2,336.2,896.8,336.9,880.2,339.3z"/>
	</g>
	<g>
		<path class="st12" d="M1009,260.4c-1.1,3-2.4,6.1-3.5,9.3c-2.5,7.5-11.4,13-19.7,30.8c-5.3,11.9-8.8,24.5-10.3,37.4
			c0,0-0.1,0.6-0.3,1.7c-9.5-2.4-36-9.4-41.6-11.1c-5-1.5-15-6.4-20.1-9c11-16.9,25.8-42,25.8-42s-9.6-15.1-22-34.8
			c8,0.3,35.4,1.3,37.3,1.3c0.2,0,0.4,0.1,0.6,0.1c2.1,0.7,6.8,4,10.5,6.3c1.2,0.8,2.4,1.5,3.8,2.1c2.5,1,14.3-0.1,18.5,0
			c0.3,0,0.7,0,1,0C990.8,252.6,1002.1,257.3,1009,260.4z"/>
		<path class="st9" d="M975.7,340.5l-0.8-0.2c-23.4-6.1-37.8-9.9-41.7-11.1c-5.2-1.6-15.9-6.8-20.2-9l-0.7-0.4l0.4-0.7
			c10.2-15.5,23.6-38.4,25.6-41.7c-1.5-2.4-10.5-16.5-21.8-34.5l-0.7-1.2l1.4,0.1c13,0.4,35.6,1.3,37.3,1.3c0.3,0,0.6,0.1,0.8,0.1
			c1.6,0.5,4.9,2.7,8.1,4.7c0.9,0.6,1.8,1.2,2.6,1.7c1.2,0.8,2.4,1.5,3.7,2.1c1.4,0.6,7.1,0.3,11.6,0.1c2.7-0.1,5.2-0.2,6.7-0.1
			c0.3,0,0.6,0,1,0c1.6,0.2,8.3,2.8,20.5,8.1l0.7,0.3l-0.2,0.7c-0.4,1.1-0.8,2.2-1.3,3.4c-0.7,1.9-1.5,3.9-2.2,6
			c-1.1,3.4-3.5,6.3-6.4,10c-3.8,4.9-8.7,10.8-13.3,20.8c-5.2,11.8-8.7,24.3-10.3,37.2c0,0.1-0.1,0.6-0.3,1.7L975.7,340.5z
			 M914.5,319.1c4.7,2.4,14.4,7.1,19.3,8.5c3.8,1.2,17.9,4.9,40.8,10.9c0.1-0.6,0.1-0.9,0.1-0.9c1.5-13,5.1-25.6,10.4-37.6
			c4.8-10.2,9.6-16.3,13.5-21.1c2.9-3.6,5.2-6.5,6.2-9.6c0.7-2.1,1.5-4,2.2-6c0.4-0.9,0.7-1.8,1-2.7c-14.3-6.1-18.4-7.6-19.4-7.7
			c-0.2,0-0.5,0-0.8,0c-1.5-0.1-4,0.1-6.6,0.1c-6.1,0.3-10.5,0.4-12.1-0.2c-1.4-0.7-2.7-1.4-3.9-2.2c-0.8-0.5-1.7-1.1-2.6-1.6
			c-2.9-1.9-6.3-4.1-7.7-4.6c-0.1-0.1-0.2-0.1-0.4-0.1c-1.8,0-29.2-1-35.9-1.2c12.1,19.1,21.3,33.6,21.3,33.6l0.2,0.4l-0.2,0.4
			C939.7,278,925.4,302.4,914.5,319.1z"/>
	</g>
	<g>
		<path class="st12" d="M974,88.7c-10.4-0.7-13.1,9.4-48.7,17.4l-0.9,0.2c-26.2,5.7-52.8,12.8-65.7,16.3L843,93.5l-29.2-53.9
			c12.4-2.3,23,3.7,25.1,4.4s14,3.2,33.9,2.7h2.9c6.3,10.2,20,32.5,20.6,32.5s34.1-9.5,49.6-13.8L974,88.7z"/>
		<path class="st9" d="M858.4,123.5l-45.7-84.4l1-0.1c10.9-2,20.2,2.1,24.1,3.8c0.6,0.3,1,0.4,1.3,0.6c2.1,0.7,13.8,3.2,33.6,2.7
			h3.4l0.2,0.4c8.8,14.3,18.6,30,20.2,32.1c2.4-0.6,20.1-5.6,34.5-9.6c5.5-1.5,10.7-3,14.7-4.1l0.4-0.1l30,25l-2.3-0.1
			c-4.2-0.3-7.1,1.3-11.9,3.9c-6.4,3.5-16.1,8.9-36.7,13.5l-0.9,0.2c-24,5.2-49,11.7-65.7,16.2L858.4,123.5z M815,40.2l44.1,81.6
			c16.7-4.6,41.4-11,65.1-16.1l0.9-0.2c20.3-4.6,30-9.9,36.3-13.3c4-2.2,7-3.8,10.6-4.1l-26.1-21.7c-4,1.1-9,2.5-14.4,4
			c-27.8,7.8-34.7,9.7-35.1,9.7c-0.5,0-1.2,0-21.1-32.5h-2.4c-20.2,0.4-32.1-2.1-34.2-2.8c-0.3-0.1-0.8-0.3-1.5-0.6
			C833.5,42.5,825,38.7,815,40.2z"/>
	</g>
	<g>
		<path class="st12" d="M946,65.4c-15.5,4.4-49,13.7-49.6,13.8c-0.5,0.1-14.4-22.3-20.6-32.5c11.6-0.2,23.2-1.1,34.7-2.7
			c2.2-0.7,4.3-1.7,6.3-2.9L946,65.4z"/>
		<path class="st9" d="M896.4,80c-0.7,0-2.4-2.1-21.3-32.9l-0.7-1.1h1.3c11.6-0.2,23.2-1.1,34.6-2.7c2.1-0.7,4.1-1.6,6-2.7l0.4-0.2
			l30.6,25.6l-1.3,0.4c-15.8,4.3-49,13.6-49.5,13.7C896.5,80,896.4,80,896.4,80z M877.1,47.4c14.7,23.9,18.6,29.8,19.5,31.1
			c3.7-1,32.7-9.1,47.9-13.4L916.7,42c-1.9,1.1-4,2-6,2.7C899.5,46.2,888.3,47.2,877.1,47.4z"/>
	</g>
	<g>
		<path class="st12" d="M1021.3,96.7c-10-1.9-36.8-7-46.4-7.9h-1l0,0l-28.1-23.4l-29.2-24.3c1.6-0.8,3.5-1.7,5.7-2.6
			c5.9-2.3,26.8-1.1,29.6-0.4c2.8,0.7,9.6,0,10.4-0.8c0.8-0.8,22.1-0.4,28-2.5c5.9-2,12.7-13.5,12.7-13.5s1,13,2.5,19.8
			c2.8,11.5,6.3,22.8,10.2,34C1018.4,82.2,1020.2,89.4,1021.3,96.7z"/>
		<path class="st9" d="M1022.2,97.6l-1-0.2c-10.8-2.1-36.9-7-46.3-7.9h-1.2l-0.2-0.1l-58.1-48.5l1-0.5c1.5-0.7,3.5-1.7,5.7-2.6
			c6.2-2.4,27.2-1.2,30-0.4c2.6,0.7,8.9,0,9.7-0.6c0.4-0.4,1.5-0.5,8.7-0.8c6.8-0.3,16.1-0.7,19.6-1.8c5.6-1.9,12.2-13.1,12.3-13.2
			l1.2-2l0.2,2.3c0,0.1,1.1,13,2.5,19.7c2.8,11.4,6.3,22.8,10.2,33.9c2.4,7,4.3,14.3,5.4,21.6L1022.2,97.6z M974.3,88.1h0.7
			c9.2,0.9,34.1,5.5,45.5,7.7c-1.1-6.9-2.9-13.8-5.2-20.4c-4-11.1-7.4-22.6-10.3-34.1c-1.1-5.1-1.9-13.7-2.4-17.7
			c-2.2,3.4-7.3,10.4-11.9,12c-3.7,1.3-13.1,1.6-20,1.9c-3.5,0.1-7.1,0.3-7.9,0.5c-1.4,1-8.3,1.6-11,0.9c-2.9-0.8-23.6-1.8-29.2,0.3
			c-1.8,0.7-3.3,1.4-4.6,2.1L974.3,88.1z"/>
	</g>
	<g>
		<path class="st12" d="M1020,147c-0.3,1.6-0.7,3.2-1.4,4.9c-5.2,0.2-15.7,1.9-30.2,10.7c-1,0.7-2,1.3-2.9,1.8l-2.2-43.6
			c9.8,1.1,25.9,2.7,34.5,3.6C1016.4,131.7,1021.5,137,1020,147z"/>
		<path class="st9" d="M984.9,165.6l-2.3-45.8l0.9,0.1c9.9,1.1,25.8,2.7,34.5,3.6l0.8,0.1l-0.1,0.8c-0.7,3.3,0.1,6.3,1,9.5
			c1,3.7,2,7.8,1.2,13.2l0,0c-0.3,1.7-0.7,3.4-1.4,5l-0.1,0.4h-0.4c-4.9,0.1-15.3,1.8-29.8,10.5l-0.6,0.4c-0.8,0.5-1.5,1-2.3,1.5
			L984.9,165.6z M984.1,121.5l2.1,41.5c0.4-0.3,0.8-0.5,1.3-0.8l0.6-0.4c14.4-8.7,24.8-10.5,30-10.8c0.5-1.4,0.9-2.8,1.2-4.2
			c0.8-5.1-0.1-8.9-1.1-12.6c-0.8-3.1-1.5-6-1.1-9.4C1008.4,124.1,993.7,122.5,984.1,121.5z"/>
	</g>
	<g>
		<path class="st12" d="M1018.6,151.8c-3.1,7.7-10,13.5-15,16.3c-6,3.4-6.6,6.8-4.4,12.4c0.4,1.2,0.9,2.3,1.5,3.6
			c-2.4,1.7-7.7,5.3-11.1,7.4c-0.7,0.5-1.5,1-2.4,1.3c-3.1,1.3-6.6,2.8-6.3,0.7c0.3-2,1.9-7.7,0-6.9c-1.3,0.6-6.9,3.2-10.2,4.9
			l-0.6-1.1l0,0c-1.5-2.7-3.5-5.7-5.8-9.1c3.5-4,9.9-9.7,21.4-16.9c1-0.6,1.9-1.2,2.9-1.8C1002.9,153.7,1013.4,152,1018.6,151.8z"/>
		<path class="st9" d="M981.7,195.3c-0.4,0-0.9-0.1-1.2-0.4c-0.3-0.2-0.6-0.7-0.4-1.5c0.1-0.4,0.1-0.9,0.3-1.5
			c0.2-1.2,0.8-3.8,0.6-4.6c-1.3,0.5-4.5,2.1-7.4,3.5l-3.3,1.5l-1-1.7c-1.5-2.7-3.5-5.7-5.7-9l-0.3-0.4l0.4-0.4
			c4.7-5.3,12-11,21.6-17.1c0.6-0.4,1.1-0.7,1.7-1.1l1.3-0.7c14.7-9,25.5-10.7,30.5-10.8l1.1-0.1l-0.4,1
			c-3.2,7.8-10.2,13.8-15.4,16.7c-5.9,3.3-6,6.5-4,11.6c0.4,1.1,0.9,2.3,1.5,3.5l0.2,0.6l-0.5,0.4c-2.7,1.8-7.8,5.3-11.2,7.4
			c-0.8,0.5-1.6,1-2.5,1.3l-0.4,0.1C984.6,194.6,982.9,195.3,981.7,195.3z M981.1,185.8c0.4,0,0.6,0.1,0.7,0.3
			c1,0.8,0.6,2.9-0.1,6.2c-0.1,0.6-0.2,1-0.3,1.4c0,0.1,0,0.1,0,0.1c0.5,0.2,3.4-1,4.9-1.5l0.4-0.1c0.8-0.4,1.5-0.7,2.3-1.3
			c3.2-1.9,7.9-5.1,10.6-7c-0.4-1.1-0.9-2.1-1.3-3.1c-2.1-5.6-2.1-9.6,4.7-13.3c4.6-2.6,11-8,14.2-14.9c-5.3,0.4-15.2,2.4-28.6,10.5
			l-1.3,0.7c-0.6,0.4-1.1,0.7-1.7,1c-9.2,5.8-16.3,11.3-20.9,16.4c2.1,3.2,4,6,5.5,8.6l0.3,0.4l2.1-1c3.1-1.5,6.6-3.2,7.6-3.5
			C980.7,185.8,980.9,185.8,981.1,185.8z"/>
	</g>
	<g>
		<path class="st12" d="M1011.1,231.8c-2.9-0.4-5.7-1-8.5-1.7c-1.7-0.3-10.9-0.1-15.1,0c0-6.6-0.4-17.5,1.2-22.5
			c0.4-1.4,0.7-2.8,0.9-4.2c0.4-4,0.4-8-0.1-11.9c3.4-2,8.7-5.6,11.1-7.4c3.5,8.5,6,17.5,7.5,26.5
			C1009.5,217.7,1010.4,224.7,1011.1,231.8z"/>
		<path class="st9" d="M1011.9,232.6l-0.9-0.1c-2.9-0.4-5.7-1-8.6-1.7c-1.4-0.2-9.7-0.1-14.9,0h-0.7V230c0-1.1,0-2.3,0-3.6
			c-0.1-6.6-0.1-14.8,1.3-19.1c0.4-1.3,0.7-2.7,0.8-4c0.4-3.9,0.4-7.8-0.1-11.7l-0.1-0.4l0.4-0.2c3.4-2,8.6-5.5,11.1-7.3l0.7-0.5
			l0.4,0.9c3.5,8.6,6,17.5,7.5,26.7c1.3,7,2.4,14.1,3,21.2L1011.9,232.6z M997.5,229.2c2.4,0,4.5,0.1,5.2,0.1
			c2.5,0.7,5.1,1.2,7.6,1.5c-0.7-6.7-1.6-13.5-2.9-20.1c-1.5-8.7-3.9-17.3-7.1-25.6c-2.6,1.8-6.9,4.7-10,6.6c0.4,3.8,0.4,7.7,0,11.6
			c-0.1,1.5-0.4,2.9-0.9,4.3c-1.3,4-1.3,12.1-1.2,18.6c0,1,0,2,0,2.9C990.7,229.3,994.4,229.2,997.5,229.2z"/>
	</g>
	<g>
		<path class="st12" d="M1011.8,248.4c-0.2,4.1-1.2,8.1-2.8,11.9c-6.9-2.9-18.3-7.8-20.2-8c-0.3,0-0.7,0-1,0c0-3.4-0.1-8.1-0.9-9.3
			c-0.4-0.7-0.7-1.6-0.8-2.4c-0.3-1.9-0.1-4.2,0.8-5.1c0.4-0.4,0.5-2.5,0.5-5.4c4.3-0.1,13.5-0.2,15.1,0c2.8,0.7,5.6,1.3,8.5,1.7
			C1011.7,239.2,1011.8,244.8,1011.8,248.4z"/>
		<path class="st9" d="M1009.5,261.3l-2.8-1.2c-6.4-2.7-16.2-6.8-17.9-7.1c-0.2,0-0.5,0-0.8,0l-0.8,0.1v-0.8c0-7.1-0.6-8.6-0.7-8.8
			c-0.5-0.9-0.8-1.8-0.9-2.7c-0.3-2-0.1-4.6,1-5.7c0.1-0.3,0.3-2,0.3-4.9v-0.7h0.7c3.1-0.1,13.4-0.2,15.2,0c2.9,0.7,5.7,1.3,8.5,1.7
			l0.6,0.1l0.1,0.6c0.5,5.8,0.7,11.3,0.7,16.7v0.1c-0.2,4.2-1.2,8.2-2.9,12.1L1009.5,261.3z M988.5,251.6c0.1,0,0.1,0,0.3,0
			c1.8,0.2,9.4,3.4,18.3,7.1l1.5,0.6c1.4-3.5,2.2-7.2,2.4-11c0-5.2-0.2-10.4-0.7-16c-2.7-0.4-5.4-1-8-1.6c-1.3-0.1-8-0.1-14.2,0
			c0,3.5-0.2,4.6-0.7,5.2c-0.7,0.7-0.9,2.6-0.6,4.5c0.1,0.8,0.4,1.5,0.7,2.2C987.9,243.1,988.5,244.2,988.5,251.6z"/>
	</g>
	<g>
		<path class="st12" d="M876.5,335c-0.1,1.2-0.3,2.6-0.6,4.1l0,0c-8.3,1.2-19.6,2.7-35,4.6c-15.1,1.9-33.7,5.2-52.8,8.8
			c-0.3-2.4-0.4-4.2-0.6-5.2c-0.8-8-1.7-41.1-5.4-63.1l94-29.5C876.7,285,877.4,325,876.5,335z"/>
		<path class="st9" d="M787.4,353.4l-0.1-0.8c-0.3-2.4-0.4-4.2-0.6-5.2c-0.2-2.2-0.4-6.5-0.7-11.8c-0.8-14.1-2-35.4-4.6-51.2
			l-0.1-0.7l95.5-30v1c0.7,29.7,1.4,70.3,0.4,80.3c-0.1,1.1-0.3,2.4-0.6,4.2l-0.1,0.5l-0.5,0.1c-9,1.3-20.4,2.7-35,4.6
			c-13.9,1.8-31.7,4.7-52.7,8.8L787.4,353.4z M782.9,284.7c2.7,15.8,3.8,36.8,4.6,50.7c0.3,5.3,0.5,9.5,0.7,11.7
			c0.1,1,0.2,2.4,0.4,4.4c20.8-4,38.3-6.9,52.1-8.7c14.4-1.8,25.6-3.3,34.5-4.5c0.3-1.5,0.4-2.6,0.5-3.5l0,0
			c1-9.9,0.2-49.6-0.4-79.2L782.9,284.7z"/>
	</g>
	<g>
		<path class="st12" d="M876,254.8l-94,29.5c-0.7-5.4-2.1-10.6-4.2-15.6c-7.5-15.7-26.4-53.5-26.4-57.4c0-0.3,0-0.6-0.1-0.8
			c8.9-1.1,11.9-3.2,14-5.6c2.5-2.9,6-8.5,10.8-8.5c4.8,0,10.4,7.7,14.1,7.7c2.6,0,9.8-0.4,14.1-0.7c1.7,2.2,3.8,4,6.1,5.4
			c15.3,7.4,13.7,5.5,19.1,1.6s11-8.5,19.6-3.2c8.5,5.4,7.5,5.6,8.5,4.3c1.1-1.3,4-4.3,8.4,1.3c3.9,5,6.3,16,9.2,16.8
			C875.4,235.8,875.7,244.8,876,254.8z"/>
		<path class="st9" d="M781.3,285.2l-0.1-0.9c-0.7-5.3-2.1-10.5-4.2-15.5c-1.7-3.5-4-8.2-6.5-13.5c-11.3-23.2-20-41.2-20-44.2
			c0-0.2,0-0.4-0.1-0.7l-0.2-0.8l0.8-0.1c9.2-1.2,11.8-3.4,13.5-5.4c0.4-0.4,0.8-1,1.2-1.5c2.4-3.1,5.8-7.3,10.2-7.3
			c2.7,0,5.6,2.2,8.3,4.3c2.1,1.6,4.3,3.3,5.8,3.3c2.5,0,9.9-0.4,14.1-0.7h0.4l0.2,0.3c1.6,2.1,3.6,3.8,5.9,5.2
			c12.8,6.1,13.3,5.7,16.4,3.2c0.5-0.4,1.2-1,1.9-1.5l0.6-0.4c5.2-3.8,11.2-8.2,19.8-2.8c2.8,1.8,4.6,2.9,5.7,3.8
			c0.7,0.5,1.3,0.9,1.5,1l0.1-0.1l0.2-0.2c0.4-0.6,1.8-2.4,4-2.3c1.8,0,3.6,1.2,5.4,3.5c1.8,2.4,3.4,6,4.7,9.3
			c1.3,3.2,2.9,6.9,4,7.3l0.5,0.1l0.1,5.2c0.1,5.8,0.4,13,0.6,20.7v0.5l-0.5,0.1L781.3,285.2z M752.1,211c0,0.1,0,0.1,0,0.2
			c0,2.9,11.9,27.3,19.8,43.5c2.5,5.2,4.9,9.9,6.6,13.5c2,4.9,3.4,9.9,4.1,14.9l92.6-29c-0.1-7.5-0.4-14.4-0.6-20.1l-0.1-4.3
			c-1.6-1-2.9-4-4.5-7.9c-1.3-3.2-2.8-6.7-4.5-8.9c-1.5-1.9-3-2.9-4.3-2.9c-1-0.1-2,0.6-2.9,1.7l-0.1,0.2c-1,1.2-1.5,0.8-3.6-0.7
			c-1.2-0.8-2.9-2-5.7-3.8c-7.8-4.9-13.1-1-18.2,2.7l-0.6,0.4c-0.7,0.5-1.3,1-1.8,1.5c-3.7,3.1-4.7,3.4-18-2.9
			c-2.4-1.4-4.4-3.2-6.1-5.2c-5.1,0.3-11.4,0.7-13.8,0.7c-2,0-4.3-1.8-6.7-3.6c-2.6-2-5.2-4-7.4-4c-3.7,0-6.8,3.9-9,6.8
			c-0.4,0.6-0.9,1.1-1.3,1.5C763.5,207.9,760.3,209.9,752.1,211z"/>
	</g>
	<g>
		<path class="st12" d="M939.3,277.4c0,0-14.8,25.2-25.8,42c-5.4,8.2-9.8,14.4-11.3,14.9c-3.2,1-4.4,1.8-26.4,4.8l0,0
			c0.3-1.5,0.5-2.9,0.6-4.1c1-10,0.2-50-0.5-80.3c-0.2-10-0.4-19-0.7-25.4c0.4,0.1,0.7,0,1.1-0.1c3.5-2.1,7.5-6.4,13.7-4.2
			c5.4,1.9,9.9,1.7,14.8-2.3c4.3,6.8,8.5,13.6,12.4,19.9C929.7,262.3,939.3,277.4,939.3,277.4z"/>
		<path class="st9" d="M875,340l0.1-1c0.3-1.8,0.5-3,0.6-4c0.7-7.8,0.6-34.8-0.5-80.2c-0.2-10-0.4-19-0.7-25.4v-1l1,0.2
			c0.2,0.1,0.4,0,0.5-0.1c0.6-0.4,1.3-0.8,1.9-1.3c3.1-2.2,7-4.9,12.4-2.9c5.6,2,9.8,1.4,14.1-2.1l0.7-0.5l0.4,0.7
			c4.3,6.8,8.5,13.6,12.4,19.9c12.2,19.5,21.8,34.7,21.9,34.8l0.2,0.4l-0.2,0.4c-0.1,0.2-14.9,25.4-25.8,42.1
			c-8.4,12.9-10.6,14.9-11.6,15.2l-0.7,0.2c-2.9,1-5.4,1.8-25.8,4.6L875,340z M876.1,230.1c0.2,6.4,0.4,15,0.7,24.7
			c1.1,45.5,1.3,72.5,0.5,80.3c-0.1,0.9-0.2,1.9-0.4,3.2c19.4-2.7,21.9-3.5,24.5-4.4l0.7-0.2c0.5-0.1,2.6-1.9,10.8-14.7
			c10.2-15.5,23.6-38.4,25.6-41.7c-1.5-2.4-10.5-16.6-21.6-34.5c-3.8-6-7.9-12.5-12-19.1c-4.5,3.4-9.1,4-14.9,1.9
			c-4.6-1.7-8,0.7-11,2.8c-0.7,0.5-1.3,1-2,1.3C876.5,230,876.3,230,876.1,230.1z"/>
	</g>
	<g>
		<path class="st12" d="M904.9,222.7c-4.9,4-9.4,4.2-14.8,2.3c-6.1-2.2-10.2,2.1-13.7,4.2c-0.3,0.2-0.7,0.3-1.1,0.1
			c-2.9-0.8-5.3-11.8-9.2-16.8c-4.4-5.6-7.4-2.6-8.4-1.3c-1,1.3,0,1-8.5-4.3c-8.5-5.4-14.2-0.7-19.6,3.2c-5.4,3.9-3.8,5.7-19.1-1.6
			c-2.4-1.3-4.4-3.2-6.1-5.4c-11.9-14.1-27.5-49.6-34.3-66.1l1.5-0.3l71.3-43.2l15.8,29.2l11.3,20.9c-7.7,0-8.2,3.2-8.2,7.4
			C861.8,153.2,884.2,189.5,904.9,222.7z"/>
		<path class="st9" d="M875.7,230.1c-0.1,0-0.3,0-0.5-0.1c-2-0.5-3.3-3.9-5.1-8.2c-1.3-3.2-2.8-6.7-4.5-8.9c-1.5-2-3-2.9-4.3-2.9
			l0,0c-1,0-2,0.6-2.9,1.7l-0.1,0.2c-1,1.3-1.5,0.8-3.6-0.6c-1.2-0.8-2.9-2-5.7-3.8c-7.8-4.9-13.1-1-18.2,2.7l-0.6,0.4
			c-0.7,0.5-1.3,1-1.8,1.4c-3.7,3-4.7,3.4-18-2.9c-2.5-1.5-4.6-3.3-6.4-5.6c-12.1-14.4-28.1-51.2-34.5-66.3l-0.4-0.8l2.2-0.4
			l71.9-43.6l28.1,51.8H870c-7,0-7.4,2.5-7.4,6.6c0.2,1.5,7.8,15.1,42.9,71.4l0.4,0.5l-0.5,0.4c-4.7,3.8-9.5,4.6-15.5,2.4
			c-4.6-1.7-8.1,0.7-11,2.8c-0.7,0.5-1.3,1-2,1.3C876.4,230,876,230.1,875.7,230.1z M861.2,208.6
			C861.2,208.6,861.2,208.6,861.2,208.6c1.8,0,3.7,1.2,5.5,3.5c1.8,2.4,3.4,6,4.7,9.3c1.3,3.2,2.9,6.9,4.1,7.3c0.1,0,0.4,0,0.5-0.1
			c0.6-0.4,1.3-0.8,1.9-1.3c3.2-2.2,7-4.9,12.4-3c5.4,1.9,9.5,1.4,13.6-1.8c-38-61-42.9-70.3-42.9-71.7c0-4.2,0.6-7.7,7.7-8
			l-26.1-48.2l-70.8,42.9l-0.7,0.1c6.5,15.6,22.1,51.2,33.9,65.1c1.6,2.1,3.6,3.9,5.9,5.2c12.8,6.1,13.3,5.7,16.4,3.1
			c0.5-0.4,1.1-1,1.8-1.5l0.6-0.4c5.2-3.8,11.2-8.2,19.8-2.8c2.9,1.8,4.6,3,5.8,3.8c0.7,0.4,1.3,0.9,1.5,1l0.1-0.1l0.1-0.2
			C858.4,209.3,859.8,208.6,861.2,208.6z"/>
	</g>
	<g>
		<path class="st12" d="M936.3,143.6c-13.7,0-58.2,0.1-65.4,0h-0.9l-11.3-21c13-3.5,39.5-10.5,65.6-16.3l0.9-0.2
			C927,113.9,931.6,133.3,936.3,143.6z"/>
		<path class="st9" d="M888.1,144.4c-8.2,0-14.8,0-17.2-0.1h-1.3l-11.9-22.2l0.9-0.2c16.7-4.5,41.7-11,65.7-16.3l1.6-0.4l0.1,0.7
			c1.8,7.8,6.3,27.2,11,37.3l0.5,1h-1.2c-3.9,0-10.3,0-17.7,0C909,144.3,897.5,144.4,888.1,144.4z M870.5,142.8h0.4
			c5.2,0.1,29.7,0.1,47.7,0c6.7,0,12.6,0,16.6,0c-4.5-10.2-8.7-27.8-10.5-35.8l-0.1,0.1c-23.6,5.2-48,11.5-64.7,16.1L870.5,142.8z"
			/>
	</g>
	<g>
		<path class="st12" d="M1017.8,124.1C1017.8,124.1,1017.8,124.1,1017.8,124.1c-8.6-0.8-24.7-2.4-34.5-3.5c-4.6-0.5-7.8-0.9-8.2-1
			c-1.1-0.3-0.4-21.2-0.1-30.2c0-0.3,0-0.5,0-0.7c9.5,0.9,36.4,6,46.4,7.9c0.4,2.4,0.9,4.9,1.3,7.4
			C1024.6,115.1,1019.2,116.7,1017.8,124.1z"/>
		<path class="st9" d="M1018.6,125.1l-0.8-0.1c-8.7-0.9-24.7-2.5-34.5-3.6c-3.5-0.4-7.8-0.9-8.2-1c-0.8-0.2-1.8-0.4-0.7-30.9v-1.5
			l0.8,0.1c9.4,0.9,35.6,5.8,46.5,7.9l0.5,0.1l0.1,0.5c0.2,1.3,0.4,2.7,0.7,4c0.2,1.1,0.4,2.2,0.6,3.4c1.3,7.3-0.5,10.8-2.3,14.1
			c-1,1.8-2,3.7-2.5,6.3L1018.6,125.1L1018.6,125.1z M975.6,119.1c0.8,0.1,3.1,0.4,7.8,0.9c9.6,1,25,2.7,33.9,3.5
			c0.6-2.5,1.5-4.4,2.5-6.2c1.8-3.2,3.4-6.3,2.1-13.1c-0.2-1.1-0.4-2.3-0.6-3.4c-0.2-1.2-0.4-2.4-0.6-3.5c-10.8-2.1-35.2-6.6-45-7.7
			C975,109,975.1,117.4,975.6,119.1z"/>
	</g>
	<g>
		<path class="st12" d="M964,181.2c-1.5,1.6-2.8,3.5-3.9,5.4c-0.7,1.5-2.1,16.6-3.2,31.3c-0.8,10.5-1.5,20.9-1.8,25.9
			c-0.1-0.1-0.4-0.1-0.6-0.1c-1.8,0-29.3-1-37.3-1.3c-3.9-6.3-8.2-13-12.4-19.9c-20.7-33.1-43-69.5-43-71.9c0-4.1,0.5-7.4,8.2-7.4
			h0.9c7.2,0.1,51.7,0,65.4,0c0.7,1.7,1.7,3.3,2.8,4.8C944,154.4,955.8,169.1,964,181.2z"/>
		<path class="st9" d="M955.8,244.9l-0.9-0.3c-0.1-0.1-0.2-0.1-0.3-0.1c-1.9,0-31.5-1-37.3-1.3H917l-0.2-0.3
			c-3.9-6.3-8.2-13-12.4-19.9c-43.2-69.2-43.2-71.5-43.2-72.3c0-4.4,0.7-8.1,8.9-8.1h0.9c5.2,0.1,29.7,0.1,47.7,0
			c7.4,0,13.8,0,17.7,0h0.5l0.2,0.4c0.7,1.6,1.6,3.2,2.7,4.6c5,6.3,16.7,20.9,25,33l0.3,0.5l-0.4,0.4c-1.5,1.5-2.7,3.4-3.8,5.3
			c-0.2,0.4-1,3.8-3.1,31c-0.5,6.8-1,13.6-1.3,18.8c-0.2,2.9-0.4,5.3-0.5,7.1L955.8,244.9z M917.7,241.8c9.5,0.4,34.2,1.2,36.7,1.3
			c0.1-1.7,0.3-3.8,0.4-6.3c0.4-5.3,0.8-12,1.3-18.8c2.2-29.5,3-31.1,3.3-31.6c1-1.8,2.2-3.6,3.6-5.2c-8.2-11.9-19.6-26.2-24.5-32.4
			c-1.1-1.5-2.1-3-2.7-4.6c-4,0-10.2,0-17.2,0c-18,0-42.6,0.1-47.7,0h-0.9c-7,0-7.4,2.5-7.4,6.6c0.1,1.3,6,12.2,42.9,71.5
			C909.7,229.1,913.9,235.6,917.7,241.8z"/>
	</g>
	<g>
		<path class="st12" d="M985.5,164.3c-11.5,7.2-17.9,13-21.4,16.9c-8.2-12.1-20-26.9-25-32.8c-1.1-1.5-2.1-3.1-2.8-4.8
			c-4.8-10.2-9.4-29.7-11.1-37.4c35.7-8,38.4-18.1,48.8-17.5l0,0l1,0.8c-0.3,9-1,29.9,0.1,30.2c0.4,0,3.6,0.4,8.2,1L985.5,164.3z"/>
		<path class="st9" d="M963.9,182.5l-0.5-0.8c-8.8-12.8-21.3-28.3-24.9-32.8c-1.2-1.5-2.1-3.2-2.9-4.9c-4.8-10.3-9.4-29.7-11.1-37.6
			l-0.1-0.7l0.7-0.1c20.4-4.6,30-9.9,36.4-13.4c4.9-2.7,8-4.4,12.7-4.1h0.2l1.4,1.2v0.4c-0.7,19.3-0.5,27.8-0.1,29.5
			c0.4,0,0.9,0.1,1.8,0.2c1.5,0.1,3.5,0.4,6,0.7l0.6,0.1l2.2,44.7l-0.4,0.2c-9.5,6-16.6,11.6-21.3,16.9L963.9,182.5z M926,106.8
			c1.8,8.2,6.3,26.7,10.9,36.6c0.7,1.7,1.6,3.2,2.7,4.6c3.5,4.3,15.7,19.4,24.4,32.1c4.7-5.1,11.6-10.5,20.6-16.2l-2.1-42.6
			c-2.2-0.2-4-0.4-5.4-0.7c-1-0.1-1.9-0.2-2.1-0.2H975c-0.8-0.2-1.8-0.4-0.7-30.6l-0.5-0.4c-4-0.2-6.9,1.4-11.6,3.9
			C955.8,96.9,946.1,102.1,926,106.8z"/>
	</g>
	<g>
		<path class="st12" d="M969.8,190.3L969.8,190.3c-0.1,0.4-0.3,1-0.4,1.5c-0.4,2.4-0.8,7.5-1.3,13.8c-0.3,3.7-0.5,7.7-0.8,11.9
			l-10.5,0.5c1.1-14.7,2.4-29.7,3.2-31.3c1-2,2.4-3.8,3.9-5.4C966.4,184.5,968.3,187.6,969.8,190.3z"/>
		<path class="st9" d="M956.1,218.6l0.1-0.8c2.2-29.5,3-31.1,3.2-31.5c1.1-2.1,2.4-3.9,4-5.6l0.6-0.7l0.5,0.7c2.1,3,4,6.1,5.8,9.2
			l0.1,0.3l-0.1,0.3c-0.1,0.4-0.3,0.8-0.3,1.3c-0.3,2.2-0.7,6.6-1.3,13.8c-0.3,3.7-0.5,7.7-0.8,11.9l-0.1,0.7L956.1,218.6z
			 M963.9,182.4c-1.3,1.4-2.3,2.9-3.2,4.6c-0.3,0.5-1.1,4.5-3,30.2l9-0.4c0.2-3.9,0.5-7.7,0.7-11.2c0.5-7.2,1-11.6,1.3-13.8
			c0.1-0.4,0.1-0.9,0.3-1.3C967.5,187.7,965.8,185,963.9,182.4z"/>
	</g>
	<g>
		<path class="st12" d="M989.5,203.4c-1.8,0.4-4.4,1-6.2,1.6c-2.3,0.7-11.5,0.7-15.1,0.7c0.4-6.3,0.9-11.3,1.3-13.8l1-0.4
			c3.3-1.6,8.9-4.3,10.2-4.9c1.9-0.8,0.4,4.9,0,6.9s3.2,0.5,6.3-0.7c0.8-0.4,1.6-0.8,2.4-1.3C989.9,195.4,989.9,199.4,989.5,203.4z"
			/>
		<path class="st9" d="M971.7,206.4c-1.6,0-2.9,0-3.5,0h-0.8l0.1-0.8c0.5-7.2,1-11.6,1.3-13.8l0.1-0.4l1.3-0.6
			c5.9-2.9,9.3-4.4,10.3-4.9c0.7-0.3,1.2,0,1.4,0.1c1,0.8,0.6,3-0.1,6.3c-0.1,0.5-0.2,1-0.3,1.3c0,0.1,0,0.1,0,0.1
			c0.5,0.2,3.4-1,5-1.6l0.4-0.1c0.8-0.4,1.5-0.7,2.3-1.3l1-0.7l0.1,1.2c0.4,4,0.4,8,0.1,12.1l-0.1,0.5l-0.5,0.1
			c-1.8,0.4-4.3,1-6.1,1.5C981.6,206.2,975.7,206.4,971.7,206.4z M969,204.9c4.7,0.1,12.1,0,14.1-0.7c1.7-0.5,4-1.1,5.7-1.5
			c0.3-3.4,0.3-6.7,0-10.1c-0.5,0.3-1,0.5-1.5,0.7l-0.4,0.1c-3.3,1.3-5.4,2.1-6.5,1.3c-0.3-0.2-0.6-0.7-0.4-1.5
			c0.1-0.4,0.1-0.9,0.3-1.4c0.2-1.2,0.8-3.8,0.6-4.7c-1.3,0.5-4.6,2.1-10.2,4.8l-0.6,0.3C969.8,194.5,969.5,198.5,969,204.9z"/>
	</g>
	<g>
		<path class="st12" d="M987.8,252.3c-4.3-0.1-16,1-18.5,0c-1.3-0.6-2.5-1.3-3.7-2.1c0.1-2.4,0.3-5.7,0.5-9.6h20
			c0.1,0.9,0.4,1.7,0.8,2.4C987.7,244.2,987.8,248.9,987.8,252.3z"/>
		<path class="st9" d="M973.9,253.5c-2.3,0-4-0.1-4.9-0.5c-1.3-0.7-2.7-1.4-3.8-2.2l-0.3-0.2v-0.4c0.1-2.4,0.3-5.8,0.5-9.6l0.1-0.7
			h21.4l0.1,0.7c0.1,0.8,0.4,1.5,0.7,2.2c0.2,0.4,1,1.5,1,9.6v0.7h-0.7c-1.4,0-3.8,0.1-6.2,0.2C978.6,253.4,976,253.5,973.9,253.5z
			 M966.4,249.8c1,0.7,2.1,1.3,3.2,1.8c1.5,0.6,7.5,0.3,11.9,0.1c2.1-0.1,4-0.2,5.5-0.2c-0.1-6.6-0.6-7.9-0.7-8.2
			c-0.4-0.7-0.7-1.4-0.8-2.1h-18.7C966.6,244.7,966.5,247.6,966.4,249.8z"/>
	</g>
	<g>
		<path class="st12" d="M967.5,217.4c-0.5,8-1,16.3-1.3,23.1c-0.2,3.8-0.4,7.2-0.5,9.6c-3.6-2.3-8.5-5.7-10.5-6.3
			c0.3-5,1-15.4,1.8-25.9L967.5,217.4z"/>
		<path class="st9" d="M966.3,251.5l-1-0.7c-0.8-0.5-1.7-1.1-2.6-1.7c-2.9-1.9-6.3-4.1-7.7-4.6l-0.5-0.1v-0.6
			c0.3-4.8,1-14.9,1.8-25.9l0.1-0.7l12-0.5l-0.1,0.8c-0.4,6.5-0.8,14.1-1.3,23.1c-0.2,3.8-0.4,7.2-0.5,9.6L966.3,251.5z
			 M955.9,243.4c1.8,0.7,4.7,2.7,7.6,4.6c0.5,0.3,1,0.7,1.5,1c0.1-2.3,0.3-5.2,0.4-8.4c0.4-8.7,0.9-16,1.3-22.3l-9.1,0.4
			C956.9,229,956.2,238.5,955.9,243.4z"/>
	</g>
	<g>
		<path class="st12" d="M988.6,207.6c-1.6,5-1.2,15.9-1.2,22.5c0,2.9-0.1,5-0.5,5.4c-0.9,0.9-1.1,3.2-0.8,5.1h-20
			c0.4-6.8,0.8-15.2,1.3-23.1c0.2-4.2,0.5-8.2,0.8-11.9c3.6,0,12.8,0.1,15.1-0.7c1.8-0.6,4.4-1.2,6.2-1.6
			C989.4,204.8,989.1,206.2,988.6,207.6z"/>
		<path class="st9" d="M987,241.3h-21.6l0.1-0.8c0.5-9.1,1-16.6,1.3-23.1c0.2-4.2,0.5-8.2,0.8-11.9l0.1-0.7h1.7
			c3.8,0,11.9,0,13.8-0.6c1.7-0.6,4.1-1.1,6.3-1.6l1-0.2l-0.1,1c-0.1,1.5-0.4,2.9-0.9,4.3l0,0c-1.3,4-1.2,11.9-1.2,18.2
			c0,1.5,0,2.8,0,4c0,4.3-0.2,5.4-0.7,5.9c-0.7,0.7-0.9,2.6-0.6,4.5L987,241.3z M966.9,239.8h18.4c-0.1-1.8,0.1-3.9,1.1-4.9
			c0.1-0.2,0.3-1.3,0.3-4.9c0-1.3,0-2.6,0-4c-0.1-6.5-0.1-14.5,1.3-18.7c0.3-1,0.5-2,0.7-3.1c-1.8,0.4-3.8,0.9-5.1,1.3
			c-2.1,0.7-8.4,0.7-14.3,0.7H969c-0.2,3.5-0.5,7.3-0.7,11.2C967.8,223.8,967.3,231.1,966.9,239.8z"/>
	</g>
</g>
</svg>
