<?xml version="1.0" encoding="utf-8"?>
<!-- Generator: Adobe Illustrator 26.0.0, SVG Export Plug-In . SVG Version: 6.00 Build 0)  -->
<svg version="1.1" id="Layer_1" xmlns="http://www.w3.org/2000/svg" xmlns:xlink="http://www.w3.org/1999/xlink" x="0px" y="0px"
	 viewBox="0 0 1116 360" style="enable-background:new 0 0 1116 360;" xml:space="preserve">
<style type="text/css">
	.st0{fill:#ED2F38;}
	.st1{opacity:0.24;}
	.st2{opacity:0.19;fill:#FFFFFF;enable-background:new    ;}
	.st3{font-family:'Poppins-ExtraBold';}
	.st4{font-size:65.16px;}
	.st5{font-size:71.62px;}
	.st6{fill:#FFFFFF;}
	.st7{fill:#46506D;stroke:#1B1E2A;stroke-miterlimit:10;}
	.st8{fill:#1B1E2A;stroke:#1B1E2A;stroke-miterlimit:10;}
	.st9{fill:#1B1E2A;}
	.st10{font-family:'Poppins-Regular';}
	.st11{font-size:69.773px;}
	.st12{fill:#46506D;}
</style>
<rect class="st0" width="1116" height="360"/>
<g>
	<g class="st1">
		<text transform="matrix(1 0 0 1 -142.7365 114.885)" class="st2 st3 st4">DUMAGUETE</text>
		<text transform="matrix(1 0 0 1 286.0935 114.885)" class="st2 st3 st4">DUMAGUETE</text>
	</g>
	<g class="st1">
		<text transform="matrix(1 0 0 1 -396.9865 175.7251)" class="st2 st3 st4">DUMAGUETE</text>
		<text transform="matrix(1 0 0 1 31.8435 175.7251)" class="st2 st3 st4">DUMAGUETE</text>
	</g>
	<g class="st1">
		<text transform="matrix(1 0 0 1 -103.3565 233.265)" class="st2 st3 st4">DUMAGUETE</text>
		<text transform="matrix(1 0 0 1 325.4735 233.265)" class="st2 st3 st4">DUMAGUETE</text>
	</g>
	<g class="st1">
		<text transform="matrix(1 0 0 1 -400.2065 294.2451)" class="st2 st3 st4">DUMAGUETE</text>
		<text transform="matrix(1 0 0 1 28.6235 294.2451)" class="st2 st3 st4">DUMAGUETE</text>
	</g>
	<g class="st1">
		<text transform="matrix(1 0 0 1 -210.7565 354.3751)" class="st2 st3 st4">DUMAGUETE</text>
		<text transform="matrix(1 0 0 1 218.0735 354.3751)" class="st2 st3 st4">DUMAGUETE</text>
	</g>
	<g class="st1">
		<text transform="matrix(1 0 0 1 -51.6165 58.1951)" class="st2 st3 st5">DUMAGUETE</text>
	</g>
	<g class="st1">
		<text transform="matrix(1 0 0 1 714.3794 114.885)" class="st2 st3 st4">DUMAGUETE</text>
	</g>
	<g class="st1">
		<text transform="matrix(1 0 0 1 460.1295 175.725)" class="st2 st3 st4">DUMAGUETE</text>
		<text transform="matrix(1 0 0 1 888.9595 175.725)" class="st2 st3 st4">DUMAGUETE</text>
	</g>
	<g class="st1">
		<text transform="matrix(1 0 0 1 753.7595 233.265)" class="st2 st3 st4">DUMAGUETE</text>
	</g>
	<g class="st1">
		<text transform="matrix(1 0 0 1 456.9094 294.245)" class="st2 st3 st4">DUMAGUETE</text>
		<text transform="matrix(1 0 0 1 885.7395 294.245)" class="st2 st3 st4">DUMAGUETE</text>
	</g>
	<g class="st1">
		<text transform="matrix(1 0 0 1 646.3594 354.375)" class="st2 st3 st4">DUMAGUETE</text>
		<text transform="matrix(1 0 0 1 1075.1895 354.375)" class="st2 st3 st4">DUMAGUETE</text>
	</g>
	<g class="st1">
		<text transform="matrix(1 0 0 1 413.89 58.1955)" class="st2 st3 st5">DUMAGUETE</text>
	</g>
	<g class="st1">
		<text transform="matrix(1 0 0 1 876.7581 58.6968)" class="st2 st3 st5">DUMAGUETE</text>
	</g>
</g>
<g>
	<text transform="matrix(1 0 0 1 184.1554 213.1137)" class="st9 st10 st11">CANTIL-E</text>
	<g>
		<g>
			<path class="st6" d="M171.9,154.9L171.9,154.9L171.9,154.9c0.1-0.4,0.2-0.8,0.4-1.1c0.7-1.2,1-2.6,0.7-4l-0.1-0.7
				c-0.1-0.3-0.1-0.6-0.2-1l0,0c-0.4-2.1-0.7-3.8-1.3-5.2c-0.9-2.5-1.7-5-2.3-7.5c-0.3-1.4-0.5-4.3-0.5-4.3
				c-0.1-0.8-0.7-1.4-1.5-1.3c-0.5,0-0.9,0.3-1.2,0.7c-0.7,1.1-1.7,2.3-2.1,2.5c-0.6,0.2-2.8,0.3-4,0.3c-1.6,0.1-2.2,0.1-2.6,0.3
				c-0.4,0.1-0.8,0.1-1.3,0c-0.8-0.2-5.9-0.6-7.7,0.1c-0.6,0.2-1,0.4-1.4,0.6l0,0l-0.4,0.2c-0.2,0.1-0.5,0.3-0.7,0.4
				c-2.5,0.3-5.1,0.5-7.7,0.6l0,0h-0.7c-4.3,0.1-6.9-0.4-7.2-0.6c-0.1,0-0.1-0.1-0.2-0.1c-0.9-0.4-3.3-1.5-6.2-1l0,0h-0.1l0,0h-0.2
				c-3.1,0.7-4.8,1.5-5.2,1.7c-0.6,0.2-5.1,1.7-7,2.3c-0.5-0.8-1.2-2.2-1.6-3.1c-1.4-2.8-1.7-3.2-2.1-3.5c-0.5-0.3-3.7-1.5-4.6-1.8
				c-4.6-1.6-4.8-1.5-5.4-1.1c-0.4,0.2-0.5,0.4-1.7,2.4c-1,1.7-3.7,6.2-4.6,6.8c-0.5,0.2-2.9,1.1-5.5,2.1c-3.3,1.3-7.5,2.9-10.9,4.2
				c-1.9,0.7-3.2,1.3-4.2,1.7c-0.6,0.2-1,0.4-1.3,0.5c-0.4,0.2-1.5,0.7-1.2,1.8c0.1,0.5,0.2,0.6,1.8,2.4c1.7,1.9,4.8,5.3,5.8,7.2
				c0.5,0.9,1.5,3.2,2.8,6.4l0,0c1,2.5,2.2,5.5,3.2,8.2l0,0c0.9,2.3,1.5,4.2,1.9,5.3c0.7,2.1,3.1,9.8,7,22.2l0,0l1.7,5.5l2,7.1l0,0
				l8.4,29.4c0.2,0.6,0.7,1,1.4,1c0.1,0,0.1,0,0.2,0l17.5-2.1h0.1h0.1l0,0l12.7-2.2l0,0h0.2h0.1l14.6-3.7c0.5-0.1,0.9-0.5,1-1
				c0.5-2,1.9-5.6,3.2-6.6c0.1-0.1,0.2-0.2,0.3-0.2c0,0,0.1-0.1,0.2-0.3l0,0c4-4.8,4-5.8,4-6.3v-0.3c0.1-4.9,0.8-6.5,1.1-7l0.1-0.2
				l0,0c1-1.4,1.7-3,2-4.7c0.4-1.9,0.6-3.2,0.7-3.7l0,0l0,0l0.1-0.4v-0.1c0.3-2.8,1.1-5.5,2.2-8.1c0.8-1.6,1.7-3.1,2.9-4.5
				c0.7-0.9,1.4-1.7,1.7-2.7c0.1-0.4,0.3-0.9,0.5-1.3c0.1-0.3,0.2-0.5,0.3-0.8l0,0c0.4-1,0.7-2.1,0.7-3.2c0-0.9,0-2.2-0.2-3.9l0,0
				c-0.2-1.7-0.4-3.3-0.7-5c-0.4-2.2-0.9-4.3-1.7-6.3l0,0l0,0c-0.1-0.3-0.2-0.5-0.3-0.8c-0.1-0.2-0.2-0.4-0.2-0.7
				c0,0,0.1-0.1,0.5-0.4c1.4-0.8,3.2-2.4,4.1-4.4l0,0c0.2-0.5,0.3-0.9,0.4-1.4c0.2-1.2,0.1-2.4-0.3-3.5
				C171.9,155.8,171.8,155.4,171.9,154.9z"/>
		</g>
		<g>
			<path class="st12" d="M121.8,172.7c-1,0.1-2.7,0.2-3.2,0.2c-0.9,0-2.1-1.7-3.2-1.7s-1.9,1.3-2.5,2c-0.5,0.5-1.2,1-3.2,1.3
				c-0.4,0.1-0.9,0.1-1.5,0.1c-3.2,0.2-4.3-1.3-6.2-1.6c-1.8-0.4-1.9,0.3-3.2,0.6c-1.2,0.3-2.1-1.4-5.4-3.1c-3.3-1.6-3-0.5-4.4-0.2
				c-1.5,0.4-3.8-1.8-4.1-1.7c-0.2,0.1-1.2,1.7-2,3c-1-2.6-2.1-5.6-3.2-8.2c2-0.3,6.4-0.9,14.2-2.2c9.9-1.6,18.3-3.1,20.1-3.4
				C115.5,161.4,119,169.5,121.8,172.7z"/>
			<path class="st9" d="M107.6,174.7c-1.8,0-2.9-0.5-3.8-1c-0.6-0.3-1.1-0.5-1.8-0.7c-1.2-0.2-1.6,0-2.1,0.2c-0.3,0.1-0.6,0.3-1,0.4
				c-0.7,0.2-1.3-0.3-2.3-1c-0.7-0.6-1.8-1.3-3.3-2.1c-2.4-1.2-2.8-0.9-3.4-0.6c-0.2,0.1-0.5,0.3-0.9,0.4c-1.1,0.3-2.5-0.7-3.4-1.3
				c-0.3-0.2-0.6-0.4-0.7-0.4c-0.1,0.1-0.5,0.6-1.9,2.9l-0.2,0.3l-0.1-0.3c-1-2.7-2.2-5.7-3.2-8.2l-0.1-0.2h0.2
				c2-0.3,6.4-0.9,14.2-2.2c10.4-1.7,19.1-3.2,20.1-3.4h0.1l0.1,0.1c1.4,3.4,5.1,11.8,7.8,15.1l0.2,0.3h-0.3
				c-1.1,0.1-2.7,0.2-3.2,0.2s-1-0.4-1.5-0.8c-0.6-0.5-1.2-0.9-1.7-0.9c-0.8,0-1.5,0.9-2,1.5c-0.1,0.1-0.2,0.3-0.3,0.4
				c-0.5,0.6-1.3,1.1-3.3,1.3c-0.4,0.1-0.9,0.1-1.5,0.1C108,174.7,107.8,174.7,107.6,174.7z M101,172.6c0.3,0,0.6,0,1,0.1
				c0.7,0.1,1.2,0.4,1.8,0.7c1,0.5,2.2,1.1,4.3,0.9c0.6,0,1.1-0.1,1.5-0.1c2.1-0.3,2.7-0.8,3.1-1.2c0.1-0.1,0.2-0.2,0.3-0.4
				c0.6-0.7,1.3-1.6,2.3-1.6c0.6,0,1.3,0.5,1.9,1c0.5,0.4,1,0.8,1.3,0.8c0.5,0,2.1-0.1,2.9-0.1c-2.7-3.4-6.2-11.3-7.6-14.8
				c-1.5,0.3-9.9,1.7-20,3.4c-7.6,1.2-12,1.9-14,2.2c1,2.4,2.1,5.2,3,7.7c1.6-2.7,1.8-2.7,1.9-2.8c0.2,0,0.4,0.1,1,0.5
				c0.8,0.6,2.2,1.5,3.1,1.3c0.4-0.1,0.6-0.2,0.8-0.4c0.8-0.4,1.3-0.6,3.7,0.6c1.6,0.8,2.6,1.5,3.4,2.1c0.9,0.7,1.4,1.1,2,0.9
				c0.4-0.1,0.7-0.2,0.9-0.3C100.1,172.7,100.4,172.6,101,172.6z"/>
		</g>
		<g>
			<path class="st12" d="M130.6,147.7l-16.3,9.9l-0.3,0.1c-1.8,0.3-10.2,1.8-20.1,3.4c-7.8,1.3-12.3,1.9-14.2,2.2
				c-1.2-2.9-2.3-5.5-2.9-6.6c-1.6-2.9-7.4-8.8-7.5-9.1s20.7-8.1,22.3-8.8s6.1-9.1,6.5-9.3c0.3-0.2,8.1,2.6,8.6,2.9
				c0.5,0.3,3.5,7.1,4,7.1s7.8-2.4,8.2-2.6c0.4-0.2,1.9-0.9,4.9-1.6c0.1,0,0.1,0,0.2,0L130.6,147.7z"/>
			<path class="st9" d="M79.5,163.4v-0.1c-0.9-2.3-2.2-5.3-2.9-6.5c-1.1-1.9-4.1-5.3-6-7.4c-1.3-1.5-1.5-1.7-1.5-1.8
				c0-0.2-0.1-0.3,16.8-6.8c2.9-1.1,5.1-2,5.6-2.2c1.1-0.5,3.7-4.9,5.2-7.3c0.9-1.5,1.1-1.9,1.3-2c0.5-0.3,8.7,2.9,8.7,2.9
				c0.2,0.1,0.7,1,1.7,3c0.8,1.6,2,3.9,2.3,4.1c0.5,0,7.7-2.4,8.1-2.6c0.2-0.1,1.8-0.9,4.9-1.6c0.1,0,0.2,0,0.2,0h0.1l6.8,12.6
				l-16.5,10l-0.3,0.1c-0.4,0.1-9.3,1.6-20.1,3.4c-7.8,1.3-12.3,1.9-14.2,2.2L79.5,163.4z M69.5,147.6c0.2,0.2,0.8,0.9,1.4,1.6
				c1.8,2,4.9,5.5,6,7.4c0.7,1.2,1.9,4.2,2.8,6.5c2-0.3,6.4-0.9,14.1-2.2c10.8-1.8,19.7-3.3,20.1-3.4l0.3-0.1l16.1-9.8l-6.5-12.1
				h-0.1c-3.1,0.7-4.7,1.5-4.9,1.5c-0.3,0.2-7.7,2.6-8.3,2.6c-0.4,0-0.9-1-2.5-4.2c-0.7-1.3-1.4-2.7-1.6-2.9
				c-0.5-0.3-7.7-2.9-8.4-2.9c-0.1,0.1-0.6,1-1.1,1.8c-2.1,3.5-4.2,7-5.3,7.4c-0.5,0.2-2.7,1.1-5.6,2.2
				C80.2,143.3,70.6,147,69.5,147.6z"/>
		</g>
		<g>
			<path class="st12" d="M116.6,191.2L91.7,199c-2.2-7.2-6-19.3-7-22.2c-0.4-1.2-1.1-3.2-2-5.4c0.8-1.3,1.8-2.9,2-3
				c0.3-0.1,2.6,2.1,4.1,1.7s1.1-1.4,4.4,0.2c3.3,1.6,4.2,3.3,5.4,3.1c1.2-0.3,1.3-0.9,3.2-0.6c1.8,0.4,2.9,1.8,6.2,1.6
				c0.6,0,1.1-0.1,1.5-0.1c0,0.1,0,0.1,0,0.2c0,0.9,4.3,9.5,6,13.1C116.2,188.8,116.5,190,116.6,191.2z"/>
			<path class="st9" d="M91.6,199.2V199c-1.4-4.4-5.9-19-7-22.2c-0.4-1.2-1.1-3.2-2-5.4v-0.1v-0.1c1.8-3,2-3,2.1-3.1
				c0.2,0,0.4,0.1,1,0.5c0.8,0.5,2.2,1.5,3.1,1.2c0.4-0.1,0.6-0.2,0.8-0.4c0.8-0.4,1.3-0.6,3.7,0.6c1.6,0.8,2.6,1.5,3.4,2.1
				c0.9,0.7,1.4,1.1,2,0.9c0.4-0.1,0.7-0.2,0.9-0.3c0.6-0.3,1-0.5,2.3-0.2c0.7,0.1,1.2,0.4,1.8,0.7c1,0.5,2.2,1.1,4.3,0.9
				c0.6,0,1.1-0.1,1.5-0.1h0.1v0.1c0,0.1,0,0.2,0,0.2c0,0.7,2.8,6.5,4.7,10.4c0.5,1,0.9,1.9,1.3,2.6c0.5,1.2,0.8,2.4,1,3.6v0.1h-0.1
				L91.6,199.2z M83,171.4c0.8,2.2,1.5,4.1,1.9,5.3c1.1,3.2,5.5,17.5,6.9,22.1l24.6-7.7c-0.2-1.2-0.5-2.3-0.9-3.4
				c-0.3-0.7-0.8-1.6-1.3-2.6c-2.6-5.3-4.8-9.8-4.8-10.5l0,0c-0.4,0-0.8,0.1-1.3,0.1c-2.1,0.1-3.4-0.5-4.4-1
				c-0.6-0.3-1.1-0.5-1.8-0.7c-1.2-0.2-1.6,0-2.1,0.2c-0.3,0.1-0.6,0.3-1,0.4c-0.7,0.2-1.3-0.3-2.3-1c-0.7-0.6-1.8-1.3-3.3-2.1
				c-2.4-1.2-2.8-0.9-3.4-0.6c-0.2,0.1-0.5,0.3-0.9,0.4c-1.1,0.3-2.5-0.7-3.4-1.3c-0.3-0.2-0.6-0.4-0.7-0.4
				C84.8,168.7,84.4,169.2,83,171.4z"/>
		</g>
		<g>
			<path class="st12" d="M118,206.8c-8.8,1.7-18.2,3.8-22.5,4.8l-2-7.1c0,0-0.7-2.3-1.7-5.5l24.9-7.8c0.9,5,1.1,12.6,1.2,14.4
				C117.9,205.8,117.9,206.3,118,206.8z"/>
			<path class="st9" d="M95.4,211.8l-2.1-7.2l0,0c0,0-0.7-2.3-1.7-5.5v-0.2l25.2-7.9v0.2c0.6,3.6,0.9,8.5,1.1,11.7
				c0.1,1.2,0.1,2.2,0.2,2.7c0,0.2,0.1,0.6,0.1,1.2v0.2H118C108.9,208.8,99.2,211,95.4,211.8L95.4,211.8z M91.9,199.1
				c1,3.2,1.7,5.4,1.7,5.4l2,6.9c3.8-0.9,13.2-3,22.2-4.8c-0.1-0.5-0.1-0.8-0.1-1c-0.1-0.5-0.1-1.5-0.2-2.7c-0.2-3.2-0.4-7.9-1-11.5
				L91.9,199.1z"/>
		</g>
		<g>
			<path class="st9" d="M121.5,238.9L121.5,238.9l-17.6,2.1l-8.4-29.4c4.3-1,13.7-3.1,22.5-4.8c0.5,4.9,2.3,21.2,2.5,25.2
				C120.6,234.3,121,236.6,121.5,238.9z"/>
			<path class="st9" d="M103.8,241.2l-8.5-29.7h0.2c2.9-0.7,12.9-3,22.5-4.8h0.2l0.2,1.8c0.6,6,2.2,20,2.3,23.6
				c0.1,2.3,0.5,4.6,1.1,6.9v0.2l-0.3,0.1L103.8,241.2z M95.7,211.7l8.4,29.1l17.3-2.1c-0.6-2.2-0.9-4.5-1-6.7
				c-0.1-3.6-1.7-17.6-2.3-23.5l-0.2-1.4C108.5,208.8,98.7,211,95.7,211.7z"/>
		</g>
		<g>
			<path class="st12" d="M133.4,219c-0.2,0.6,0.6,13.3,0.9,17.6l-12.7,2.2c-0.6-2.3-0.9-4.6-1.1-6.9c-0.2-4-1.9-20.2-2.5-25.2
				c4.4-0.8,8.6-1.6,12.1-2s6.1-0.8,8-1c-0.5,2.3-1.1,4.5-1.8,6.7C135,214.5,133.5,218.6,133.4,219z"/>
			<path class="st9" d="M121.4,239v-0.1c-0.6-2.3-0.9-4.6-1.1-6.9c-0.1-3.6-1.7-17.6-2.3-23.5l-0.2-1.8h0.2c4.9-0.9,9-1.6,12.1-2
				c3.3-0.4,6-0.8,8-1h0.2v0.2c-0.5,2.3-1.1,4.5-1.8,6.7c-0.9,2.8-1.8,5.6-2.4,7.3c-0.2,0.7-0.4,1.2-0.4,1.3
				c-0.1,0.5,0.4,9.4,0.9,17.5v0.1L121.4,239z M118.2,206.9l0.2,1.5c0.6,6,2.2,19.9,2.3,23.5c0.1,2.3,0.5,4.5,1,6.7l12.4-2.2
				c-0.3-5.2-1-16.9-0.8-17.5l0,0c0-0.1,0.2-0.6,0.4-1.3c0.6-1.7,1.5-4.4,2.4-7.3c0.7-2.1,1.3-4.3,1.7-6.4c-2,0.3-4.6,0.6-7.8,1
				C127,205.3,123,206,118.2,206.9z"/>
		</g>
		<g>
			<path class="st12" d="M153.1,225.3l-0.2,0.3c-2.3,1.6-3.8,7.4-3.8,7.4l-14.6,3.7h-0.2c-0.3-4.3-1-17-0.9-17.6
				c0.1-0.4,1.6-4.5,2.9-8.6c1,2.5,3.1,7,3.7,7.6C140.7,218.7,149.6,223.4,153.1,225.3z"/>
			<path class="st9" d="M134.1,236.8v-0.2c-0.1-1.7-1-16.9-0.8-17.7c0-0.1,0.2-0.7,0.5-1.4c0.6-1.6,1.5-4.4,2.4-7.2l0.1-0.4l0.2,0.4
				c1.4,3.4,3.1,7.1,3.7,7.6c0.8,0.7,10.2,5.7,13.1,7.2l0.2,0.1l-0.4,0.5c-2.2,1.6-3.7,7.2-3.7,7.3v0.1L134.1,236.8z M136.3,210.9
				c-0.8,2.6-1.7,5.2-2.2,6.8c-0.3,0.7-0.4,1.3-0.5,1.4c-0.1,0.5,0.4,10.6,0.8,17.4l14.5-3.7c0.2-0.8,1.7-5.8,3.8-7.4l0.1-0.1
				c-3.8-2-12.2-6.4-13-7.1C139.1,217.5,137,212.6,136.3,210.9z"/>
		</g>
		<g>
			<path class="st12" d="M158.4,211.6c-0.1,0.1-0.1,0.1-0.1,0.1c-1.4,1.8-1.4,7-1.5,8.1c0,0.9-2.9,4.4-3.7,5.4
				c-3.5-1.9-12.4-6.5-13.1-7.2c-0.7-0.6-2.7-5.2-3.7-7.6c0.7-2.2,1.3-4.4,1.8-6.7l0,0c2.4,0.3,6.9,2.8,8.4,3.4
				C147.6,207.6,154.7,210.2,158.4,211.6z"/>
			<path class="st9" d="M153.2,225.5l-0.1-0.1c-3.7-1.9-12.4-6.5-13.1-7.2c-0.7-0.7-2.9-5.6-3.8-7.7v-0.1v-0.1
				c0.7-2.2,1.3-4.4,1.8-6.7v-0.2h0.2c1.7,0.2,4.5,1.6,6.6,2.6c0.8,0.4,1.4,0.7,1.9,0.9c1.1,0.4,7.9,2.9,11.5,4.3l0.6,0.2l-0.1,0.2
				c-0.1,0.1-0.1,0.1-0.1,0.1c-1.2,1.7-1.4,6.2-1.4,7.7v0.3c0,0.9-2.3,3.8-3.7,5.5L153.2,225.5z M136.5,210.4
				c1.8,4.3,3.2,7.1,3.7,7.5c0.7,0.7,9.9,5.5,13,7.1c2.2-2.6,3.5-4.6,3.6-5.2v-0.3c0-1.5,0.2-6.1,1.5-7.9l-0.2-0.1
				c-3.9-1.5-10.4-3.9-11.5-4.3c-0.4-0.2-1.1-0.5-1.9-0.9c-1.9-1-4.6-2.2-6.3-2.5C137.7,206.1,137.1,208.3,136.5,210.4z"/>
		</g>
		<g>
			<path class="st12" d="M160.8,203.8c-0.1,0.6-0.3,1.9-0.7,3.7c-0.3,1.5-0.9,2.9-1.7,4.1c-3.7-1.4-10.8-4-11.9-4.4
				c-1.5-0.6-6-3.1-8.4-3.4c5-0.7,5.3-0.9,6-1.1c0.3-0.1,1.3-1.5,2.6-3.4c1.2,0.6,3.5,1.7,4.6,2
				C152.5,201.7,158.6,203.3,160.8,203.8z"/>
			<path class="st9" d="M158.4,211.8h-0.1c-3.7-1.4-10.8-4-11.9-4.4c-0.4-0.2-1.1-0.5-1.9-0.9c-2-1-4.7-2.3-6.4-2.5l-1.3-0.2
				l1.3-0.2c4.6-0.6,5.2-0.8,5.8-1h0.2c0.2-0.1,0.7-0.7,2.5-3.3l0.1-0.1l0.1,0.1c1,0.5,3.4,1.7,4.6,2c0.9,0.3,4.2,1.1,9.5,2.5h0.1
				v0.2c-0.1,0.7-0.4,2.2-0.7,3.7s-0.9,2.9-1.8,4.2L158.4,211.8z M139.1,203.8c1.7,0.5,3.9,1.5,5.6,2.3c0.8,0.4,1.5,0.7,1.9,0.9
				c1.1,0.4,8,3,11.8,4.4c0.8-1.2,1.4-2.5,1.6-3.9c0.3-1.4,0.5-2.8,0.6-3.5c-5.3-1.4-8.5-2.2-9.4-2.5c-1.1-0.4-3.4-1.5-4.5-2
				c-1.8,2.8-2.3,3.3-2.6,3.3H144C143.4,203.1,142.9,203.2,139.1,203.8z"/>
		</g>
		<g>
			<path class="st12" d="M168.5,185.8c-0.3,0.7-0.5,1.4-0.8,2.1c-0.6,1.7-2.6,3-4.5,7c-1.2,2.7-2,5.6-2.4,8.5c0,0,0,0.1-0.1,0.4
				c-2.2-0.6-8.2-2.1-9.5-2.5c-1.1-0.4-3.4-1.5-4.6-2c2.5-3.9,5.9-9.6,5.9-9.6s-2.2-3.4-5-8c1.8,0.1,8.1,0.3,8.5,0.3h0.1
				c0.5,0.1,1.6,0.9,2.4,1.4c0.3,0.2,0.6,0.3,0.9,0.5c0.6,0.2,3.3,0,4.2,0c0.1,0,0.1,0,0.2,0C164.3,184,166.9,185.1,168.5,185.8z"/>
			<path class="st9" d="M160.9,204h-0.2c-5.3-1.4-8.6-2.3-9.5-2.5c-1.2-0.4-3.6-1.6-4.6-2.1l-0.2-0.1l0.1-0.2
				c2.3-3.6,5.4-8.8,5.8-9.5c-0.4-0.6-2.4-3.8-5-7.9l-0.2-0.3h0.3c3,0.1,8.1,0.3,8.5,0.3c0.1,0,0.1,0,0.2,0c0.4,0.1,1.1,0.6,1.8,1.1
				c0.2,0.1,0.4,0.3,0.6,0.4c0.3,0.2,0.5,0.3,0.8,0.5c0.3,0.1,1.6,0.1,2.6,0c0.6,0,1.2-0.1,1.5,0c0.1,0,0.1,0,0.2,0
				c0.4,0,1.9,0.6,4.7,1.8l0.1,0.1l-0.1,0.1c-0.1,0.3-0.2,0.5-0.3,0.8c-0.2,0.4-0.3,0.9-0.5,1.4c-0.3,0.8-0.8,1.4-1.5,2.3
				c-0.9,1.1-2,2.5-3,4.8c-1.2,2.7-2,5.6-2.3,8.5c0,0,0,0.1-0.1,0.4L160.9,204z M146.9,199.2c1.1,0.5,3.3,1.6,4.4,2
				c0.9,0.3,4.1,1.1,9.3,2.5c0-0.1,0-0.2,0-0.2c0.4-3,1.2-5.8,2.4-8.6c1.1-2.3,2.2-3.7,3.1-4.8c0.7-0.8,1.2-1.5,1.4-2.2
				c0.2-0.5,0.3-0.9,0.5-1.4c0.1-0.2,0.2-0.4,0.2-0.6c-3.3-1.4-4.2-1.7-4.4-1.8c-0.1,0-0.1,0-0.2,0c-0.4,0-0.9,0-1.5,0
				c-1.4,0.1-2.4,0.1-2.8-0.1c-0.3-0.1-0.6-0.3-0.9-0.5c-0.2-0.1-0.4-0.2-0.6-0.4c-0.7-0.4-1.4-0.9-1.8-1h-0.1
				c-0.4,0-6.7-0.2-8.2-0.3c2.8,4.4,4.9,7.7,4.9,7.7l0.1,0.1l-0.1,0.1C152.7,189.8,149.4,195.4,146.9,199.2z"/>
		</g>
		<g>
			<path class="st12" d="M160.5,146.6c-2.4-0.2-3,2.2-11.1,4h-0.2c-6,1.3-12,2.9-15,3.7l-3.6-6.6l-6.7-12.3c2.8-0.5,5.3,0.8,5.7,1
				c0.5,0.2,3.2,0.7,7.7,0.6h0.7c1.4,2.3,4.6,7.4,4.7,7.4c0.1,0,7.8-2.2,11.3-3.2L160.5,146.6z"/>
			<path class="st9" d="M134.1,154.5l-10.4-19.3h0.2c2.5-0.5,4.6,0.5,5.5,0.9c0.1,0.1,0.2,0.1,0.3,0.1c0.5,0.2,3.1,0.7,7.7,0.6h0.8
				v0.1c2,3.3,4.2,6.9,4.6,7.3c0.5-0.1,4.6-1.3,7.9-2.2c1.3-0.4,2.4-0.7,3.4-0.9h0.1l6.9,5.7h-0.5c-1-0.1-1.6,0.3-2.7,0.9
				c-1.5,0.8-3.7,2-8.4,3.1h-0.2c-5.5,1.2-11.2,2.7-15,3.7L134.1,154.5z M124.2,135.5l10.1,18.6c3.8-1,9.4-2.5,14.9-3.7h0.2
				c4.6-1,6.8-2.2,8.3-3c0.9-0.5,1.6-0.9,2.4-0.9l-6-5c-0.9,0.3-2.1,0.6-3.3,0.9c-6.3,1.8-7.9,2.2-8,2.2s-0.3,0-4.8-7.4h-0.6
				c-4.6,0.1-7.3-0.5-7.8-0.6c-0.1,0-0.2-0.1-0.3-0.1C128.4,136,126.5,135.1,124.2,135.5z"/>
		</g>
		<g>
			<path class="st12" d="M154.1,141.2c-3.5,1-11.2,3.1-11.3,3.2s-3.3-5.1-4.7-7.4c2.7,0,5.3-0.3,7.9-0.6c0.5-0.2,1-0.4,1.4-0.6
				L154.1,141.2z"/>
			<path class="st9" d="M142.8,144.6c-0.2,0-0.5-0.5-4.9-7.5l-0.2-0.2h0.3c2.6,0,5.3-0.3,7.9-0.6c0.5-0.2,0.9-0.4,1.4-0.6l0.1-0.1
				l7,5.8l-0.3,0.1C150.5,142.4,142.9,144.5,142.8,144.6L142.8,144.6z M138.3,137.1c3.3,5.4,4.2,6.8,4.5,7.1
				c0.8-0.2,7.5-2.1,10.9-3.1l-6.3-5.3c-0.4,0.2-0.9,0.4-1.4,0.6C143.5,136.9,140.9,137.1,138.3,137.1z"/>
		</g>
		<g>
			<path class="st12" d="M171.3,148.4c-2.3-0.4-8.4-1.6-10.6-1.8h-0.2l0,0l-6.4-5.3l-6.7-5.6c0.4-0.2,0.8-0.4,1.3-0.6
				c1.3-0.5,6.1-0.3,6.8-0.1c0.6,0.2,2.2,0,2.4-0.2s5-0.1,6.4-0.6s2.9-3.1,2.9-3.1s0.2,3,0.6,4.5c0.6,2.6,1.4,5.2,2.3,7.8
				C170.6,145.1,171,146.7,171.3,148.4z"/>
			<path class="st9" d="M171.5,148.6h-0.2c-2.5-0.5-8.4-1.6-10.6-1.8h-0.3l0,0l-13.3-11.1l0.2-0.1c0.4-0.2,0.8-0.4,1.3-0.6
				c1.4-0.6,6.2-0.3,6.9-0.1c0.6,0.2,2,0,2.2-0.1c0.1-0.1,0.3-0.1,2-0.2c1.5-0.1,3.7-0.1,4.5-0.4c1.3-0.4,2.8-3,2.8-3l0.3-0.5v0.5
				c0,0,0.2,3,0.6,4.5c0.6,2.6,1.4,5.2,2.3,7.7c0.6,1.6,1,3.3,1.2,4.9L171.5,148.6z M160.6,146.4h0.2c2.1,0.2,7.8,1.3,10.4,1.8
				c-0.3-1.6-0.7-3.1-1.2-4.6c-0.9-2.5-1.7-5.2-2.3-7.8c-0.2-1.2-0.4-3.1-0.5-4c-0.5,0.8-1.7,2.4-2.7,2.7c-0.8,0.3-3,0.4-4.6,0.4
				c-0.8,0-1.6,0.1-1.8,0.1c-0.3,0.2-1.9,0.4-2.5,0.2c-0.7-0.2-5.4-0.4-6.7,0.1c-0.4,0.2-0.8,0.3-1.1,0.5L160.6,146.4z"/>
		</g>
		<g>
			<path class="st12" d="M171,159.9c-0.1,0.4-0.2,0.7-0.3,1.1c-1.2,0-3.6,0.4-6.9,2.4c-0.2,0.1-0.5,0.3-0.7,0.4l-0.5-10
				c2.2,0.2,5.9,0.6,7.9,0.8C170.2,156.4,171.4,157.6,171,159.9z"/>
			<path class="st9" d="M163,164.1l-0.5-10.5h0.2c2.2,0.2,5.9,0.6,7.9,0.8h0.2v0.2c-0.1,0.8,0,1.4,0.2,2.2s0.5,1.8,0.3,3l0,0
				c-0.1,0.4-0.2,0.8-0.3,1.1v0.1h-0.1c-1.1,0-3.5,0.4-6.8,2.4l-0.1,0.1c-0.2,0.1-0.4,0.2-0.5,0.3L163,164.1z M162.8,154l0.5,9.5
				c0.1-0.1,0.2-0.1,0.3-0.2l0.1-0.1c3.3-2,5.7-2.4,6.9-2.5c0.1-0.3,0.2-0.6,0.3-1c0.2-1.2,0-2-0.3-2.9c-0.2-0.7-0.4-1.4-0.3-2.1
				C168.4,154.6,165,154.3,162.8,154z"/>
		</g>
		<g>
			<path class="st12" d="M170.7,161c-0.7,1.7-2.3,3.1-3.4,3.7c-1.4,0.8-1.5,1.5-1,2.8c0.1,0.3,0.2,0.5,0.3,0.8
				c-0.6,0.4-1.8,1.2-2.5,1.7c-0.2,0.1-0.4,0.2-0.6,0.3c-0.7,0.3-1.5,0.6-1.4,0.2c0.1-0.5,0.4-1.8,0-1.6c-0.3,0.1-1.6,0.7-2.3,1.1
				l-0.1-0.2l0,0c-0.4-0.6-0.8-1.3-1.3-2.1c0.8-0.9,2.3-2.2,4.9-3.9c0.2-0.1,0.4-0.3,0.7-0.4C167.1,161.4,169.5,161,170.7,161z"/>
			<path class="st9" d="M162.2,170.9c-0.1,0-0.2,0-0.3-0.1s-0.1-0.2-0.1-0.3s0-0.2,0.1-0.3c0.1-0.3,0.2-0.9,0.1-1.1
				c-0.3,0.1-1,0.5-1.7,0.8l-0.8,0.4l-0.2-0.4c-0.3-0.6-0.8-1.3-1.3-2.1l-0.1-0.1l0.1-0.1c1.1-1.2,2.7-2.5,4.9-3.9
				c0.1-0.1,0.3-0.2,0.4-0.2l0.3-0.2c3.4-2.1,5.8-2.4,7-2.5h0.3l-0.1,0.2c-0.7,1.8-2.3,3.2-3.5,3.8c-1.4,0.8-1.4,1.5-0.9,2.6
				c0.1,0.2,0.2,0.5,0.3,0.8l0.1,0.1l-0.1,0.1c-0.6,0.4-1.8,1.2-2.6,1.7c-0.2,0.1-0.4,0.2-0.6,0.3h-0.1
				C162.9,170.7,162.5,170.9,162.2,170.9z M162.1,168.7c0.1,0,0.1,0,0.2,0.1c0.2,0.2,0.1,0.7,0,1.4c0,0.1,0,0.2-0.1,0.3l0,0
				c0.1,0.1,0.8-0.2,1.1-0.4h0.1c0.2-0.1,0.4-0.2,0.5-0.3c0.7-0.4,1.8-1.2,2.4-1.6c-0.1-0.3-0.2-0.5-0.3-0.7
				c-0.5-1.3-0.5-2.2,1.1-3.1c1.1-0.6,2.5-1.8,3.3-3.4c-1.2,0.1-3.5,0.5-6.5,2.4l-0.3,0.2c-0.1,0.1-0.3,0.2-0.4,0.2
				c-2.1,1.3-3.7,2.6-4.8,3.7c0.5,0.7,0.9,1.4,1.3,2l0.1,0.1l0.5-0.2c0.7-0.3,1.5-0.7,1.7-0.8C162,168.7,162.1,168.7,162.1,168.7z"
				/>
		</g>
		<g>
			<path class="st12" d="M169,179.2c-0.7-0.1-1.3-0.2-1.9-0.4c-0.4-0.1-2.5,0-3.5,0c0-1.5-0.1-4,0.3-5.1c0.1-0.3,0.2-0.6,0.2-1
				c0.1-0.9,0.1-1.8,0-2.7c0.8-0.5,2-1.3,2.5-1.7c0.8,2,1.4,4,1.7,6.1C168.6,176,168.8,177.6,169,179.2z"/>
			<path class="st9" d="M169.1,179.4h-0.2c-0.7-0.1-1.3-0.2-2-0.4c-0.3-0.1-2.2,0-3.4,0h-0.2v-0.2c0-0.3,0-0.5,0-0.8
				c0-1.5,0-3.4,0.3-4.4c0.1-0.3,0.2-0.6,0.2-0.9c0.1-0.9,0.1-1.8,0-2.7v-0.1l0.1-0.1c0.8-0.5,2-1.3,2.5-1.7l0.2-0.1l0.1,0.2
				c0.8,2,1.4,4,1.7,6.1c0.3,1.6,0.5,3.2,0.7,4.8L169.1,179.4z M165.9,178.6c0.6,0,1,0,1.2,0c0.6,0.2,1.2,0.3,1.7,0.4
				c-0.1-1.5-0.4-3.1-0.7-4.6c-0.3-2-0.9-4-1.6-5.8c-0.6,0.4-1.6,1.1-2.3,1.5c0.1,0.9,0.1,1.8,0,2.6c0,0.3-0.1,0.7-0.2,1
				c-0.3,0.9-0.3,2.8-0.3,4.3c0,0.2,0,0.4,0,0.7C164.3,178.7,165.2,178.6,165.9,178.6z"/>
		</g>
		<g>
			<path class="st12" d="M169.1,183c-0.1,0.9-0.3,1.9-0.6,2.7c-1.6-0.7-4.2-1.8-4.6-1.8c-0.1,0-0.1,0-0.2,0c0-0.8,0-1.8-0.2-2.1
				c-0.1-0.2-0.2-0.4-0.2-0.6c-0.1-0.4,0-1,0.2-1.2c0.1-0.1,0.1-0.6,0.1-1.2c1,0,3.1-0.1,3.5,0c0.6,0.2,1.3,0.3,1.9,0.4
				C169.1,180.9,169.1,182.2,169.1,183z"/>
			<path class="st9" d="M168.6,186l-0.6-0.3c-1.5-0.6-3.7-1.6-4.1-1.6c-0.1,0-0.1,0-0.2,0h-0.2v-0.2c0-1.6-0.1-2-0.2-2
				c-0.1-0.2-0.2-0.4-0.2-0.6c-0.1-0.5,0-1,0.2-1.3c0-0.1,0.1-0.4,0.1-1.1v-0.2h0.2c0.7,0,3.1-0.1,3.5,0c0.6,0.2,1.3,0.3,1.9,0.4
				h0.1v0.1c0.1,1.3,0.2,2.6,0.2,3.8l0,0c-0.1,1-0.3,1.9-0.6,2.8L168.6,186z M163.8,183.7C163.8,183.7,163.9,183.7,163.8,183.7
				c0.5,0.1,2.2,0.8,4.3,1.6l0.3,0.1c0.3-0.8,0.5-1.6,0.6-2.5c0-1.2-0.1-2.4-0.2-3.6c-0.6-0.1-1.2-0.2-1.8-0.4c-0.3,0-1.8,0-3.2,0
				c0,0.8,0,1.1-0.2,1.2c-0.1,0.1-0.2,0.6-0.1,1c0,0.2,0.1,0.4,0.2,0.5C163.7,181.8,163.8,182.1,163.8,183.7z"/>
		</g>
		<g>
			<path class="st12" d="M138.2,202.8c0,0.3-0.1,0.6-0.1,0.9l0,0c-1.9,0.3-4.5,0.6-8,1c-3.4,0.4-7.7,1.2-12.1,2
				c-0.1-0.5-0.1-1-0.1-1.2c-0.2-1.8-0.4-9.4-1.2-14.4l21.5-6.7C138.3,191.4,138.4,200.5,138.2,202.8z"/>
			<path class="st9" d="M117.9,207v-0.2c-0.1-0.5-0.1-1-0.1-1.2c-0.1-0.5-0.1-1.5-0.2-2.7c-0.2-3.2-0.4-8.1-1.1-11.7v-0.1l21.8-6.8
				v0.2c0.1,6.8,0.3,16.1,0.1,18.4c0,0.2-0.1,0.5-0.1,1v0.1h-0.1c-2,0.3-4.7,0.6-8,1c-3.2,0.4-7.2,1.1-12,2H117.9z M116.8,191.3
				c0.6,3.6,0.9,8.4,1,11.6c0.1,1.2,0.1,2.2,0.2,2.7c0,0.2,0.1,0.6,0.1,1c4.8-0.9,8.8-1.6,11.9-2c3.3-0.4,5.8-0.7,7.9-1
				c0.1-0.3,0.1-0.6,0.1-0.8l0,0c0.2-2.3,0.1-11.3-0.1-18.1L116.8,191.3z"/>
		</g>
		<g>
			<path class="st12" d="M138.1,184.5l-21.5,6.7c-0.2-1.2-0.5-2.4-1-3.6c-1.7-3.6-6-12.2-6-13.1c0-0.1,0-0.1,0-0.2
				c2-0.3,2.7-0.7,3.2-1.3c0.6-0.7,1.4-2,2.5-2s2.4,1.7,3.2,1.7c0.6,0,2.2-0.1,3.2-0.2c0.4,0.5,0.9,0.9,1.4,1.2
				c3.5,1.7,3.1,1.3,4.4,0.4s2.5-2,4.5-0.7c1.9,1.2,1.7,1.3,2,1c0.2-0.3,0.9-1,1.9,0.3c0.9,1.1,1.4,3.6,2.1,3.8
				C138,180.1,138,182.2,138.1,184.5z"/>
			<path class="st9" d="M116.5,191.4v-0.2c-0.2-1.2-0.5-2.4-1-3.5c-0.4-0.8-0.9-1.9-1.5-3.1c-2.6-5.3-4.6-9.4-4.6-10.1v-0.1v-0.2
				h0.2c2.1-0.3,2.7-0.8,3.1-1.2c0.1-0.1,0.2-0.2,0.3-0.3c0.6-0.7,1.3-1.7,2.3-1.7c0.6,0,1.3,0.5,1.9,1c0.5,0.4,1,0.8,1.3,0.8
				c0.6,0,2.3-0.1,3.2-0.2h0.1l0.1,0.1c0.4,0.5,0.8,0.9,1.3,1.2c2.9,1.4,3,1.3,3.7,0.7c0.1-0.1,0.3-0.2,0.4-0.3l0.1-0.1
				c1.2-0.9,2.6-1.9,4.5-0.6c0.6,0.4,1,0.7,1.3,0.9c0.2,0.1,0.3,0.2,0.4,0.2l0,0v-0.1c0.1-0.1,0.4-0.5,0.9-0.5
				c0.4,0,0.8,0.3,1.2,0.8s0.8,1.4,1.1,2.1c0.3,0.7,0.7,1.6,0.9,1.7h0.1v1.2c0,1.3,0.1,3,0.1,4.7v0.1h-0.1L116.5,191.4z
				 M109.8,174.5L109.8,174.5c0,0.7,2.7,6.3,4.5,10c0.6,1.2,1.1,2.3,1.5,3.1c0.5,1.1,0.8,2.3,0.9,3.4l21.2-6.6
				c0-1.7-0.1-3.3-0.1-4.6v-1c-0.4-0.2-0.7-0.9-1-1.8c-0.3-0.7-0.6-1.5-1-2c-0.4-0.4-0.7-0.7-1-0.7c-0.2,0-0.4,0.1-0.7,0.4l0,0
				c-0.2,0.3-0.3,0.2-0.8-0.1c-0.3-0.2-0.7-0.5-1.3-0.9c-1.8-1.1-3-0.2-4.2,0.6l-0.1,0.1c-0.2,0.1-0.3,0.2-0.4,0.3
				c-0.8,0.7-1.1,0.8-4.1-0.7c-0.5-0.3-1-0.7-1.4-1.2c-1.2,0.1-2.6,0.2-3.2,0.2c-0.5,0-1-0.4-1.5-0.8c-0.6-0.5-1.2-0.9-1.7-0.9
				c-0.8,0-1.5,0.9-2.1,1.5c-0.1,0.1-0.2,0.2-0.3,0.4C112.4,173.8,111.7,174.2,109.8,174.5z"/>
		</g>
		<g>
			<path class="st12" d="M152.6,189.6c0,0-3.4,5.7-5.9,9.6c-1.2,1.9-2.2,3.3-2.6,3.4c-0.7,0.2-1,0.4-6,1.1l0,0
				c0.1-0.4,0.1-0.7,0.1-0.9c0.2-2.3,0.1-11.4-0.1-18.3c-0.1-2.3-0.1-4.3-0.2-5.8c0.1,0,0.2,0,0.2,0c0.8-0.5,1.7-1.5,3.1-1
				c1.2,0.4,2.3,0.4,3.4-0.5c1,1.6,1.9,3.1,2.8,4.5C150.4,186.2,152.6,189.6,152.6,189.6z"/>
			<path class="st9" d="M137.9,203.9v-0.2c0.1-0.4,0.1-0.7,0.1-0.9c0.2-1.8,0.1-7.9-0.1-18.3c-0.1-2.3-0.1-4.3-0.2-5.8v-0.2h0.2h0.1
				c0.1-0.1,0.3-0.2,0.4-0.3c0.7-0.5,1.6-1.1,2.8-0.7c1.3,0.5,2.2,0.3,3.2-0.5l0.1-0.1l0.1,0.2c1,1.6,1.9,3.1,2.8,4.5
				c2.8,4.5,5,7.9,5,8l0.1,0.1l-0.1,0.1c0,0.1-3.4,5.8-5.9,9.6c-1.9,2.9-2.4,3.4-2.7,3.5l-0.2,0.1c-0.7,0.2-1.2,0.4-5.9,1
				L137.9,203.9z M138.1,178.8c0,1.5,0.1,3.4,0.1,5.6c0.2,10.4,0.3,16.6,0.1,18.4c0,0.2,0,0.4-0.1,0.7c4.4-0.6,5-0.8,5.6-1l0.2-0.1
				c0.1,0,0.6-0.4,2.5-3.3c2.3-3.6,5.4-8.8,5.8-9.5c-0.4-0.6-2.4-3.8-4.9-7.9c-0.9-1.4-1.8-2.9-2.7-4.4c-1,0.8-2.1,0.9-3.4,0.4
				c-1.1-0.4-1.8,0.2-2.5,0.6c-0.2,0.1-0.3,0.2-0.5,0.3C138.2,178.8,138.2,178.8,138.1,178.8z"/>
		</g>
		<g>
			<path class="st12" d="M144.7,177.1c-1.1,0.9-2.2,1-3.4,0.5c-1.4-0.5-2.3,0.5-3.1,1c-0.1,0-0.2,0.1-0.2,0
				c-0.7-0.2-1.2-2.7-2.1-3.8c-1-1.3-1.7-0.6-1.9-0.3s0,0.2-2-1s-3.3-0.2-4.5,0.7s-0.9,1.3-4.4-0.4c-0.5-0.3-1-0.7-1.4-1.2
				c-2.7-3.2-6.3-11.3-7.8-15.1l0.3-0.1l16.3-9.9l3.6,6.6l2.6,4.8c-1.8,0-1.9,0.7-1.9,1.7C134.9,161.3,140,169.6,144.7,177.1z"/>
			<path class="st9" d="M138,178.8h-0.1c-0.4-0.1-0.8-0.9-1.2-1.9c-0.3-0.7-0.6-1.5-1-2c-0.4-0.4-0.7-0.7-1-0.7l0,0
				c-0.2,0-0.4,0.1-0.7,0.4l0,0c-0.2,0.3-0.3,0.2-0.8-0.1c-0.3-0.2-0.7-0.5-1.3-0.9c-1.8-1.1-3-0.2-4.2,0.6l-0.1,0.1
				c-0.2,0.1-0.3,0.2-0.4,0.3c-0.8,0.7-1.1,0.8-4.1-0.7c-0.6-0.3-1.1-0.8-1.5-1.3c-2.8-3.3-6.4-11.7-7.9-15.1l-0.1-0.2l0.5-0.1
				l16.4-9.9l6.4,11.8h-0.3c-1.6,0-1.7,0.6-1.7,1.5c0,0.3,1.8,3.4,9.8,16.3l0.1,0.1l-0.1,0.1c-1.1,0.9-2.2,1-3.5,0.5
				c-1.1-0.4-1.8,0.2-2.5,0.6c-0.2,0.1-0.3,0.2-0.5,0.3C138.2,178.8,138.1,178.8,138,178.8z M134.7,173.9L134.7,173.9
				c0.4,0,0.8,0.3,1.3,0.8c0.4,0.5,0.8,1.4,1.1,2.1c0.3,0.7,0.7,1.6,0.9,1.7h0.1c0.1-0.1,0.3-0.2,0.4-0.3c0.7-0.5,1.6-1.1,2.8-0.7
				c1.2,0.4,2.2,0.3,3.1-0.4c-8.7-13.9-9.8-16-9.8-16.4c0-1,0.1-1.8,1.8-1.8l-6-11l-16.2,9.8H114c1.5,3.6,5,11.7,7.7,14.9
				c0.4,0.5,0.8,0.9,1.4,1.2c2.9,1.4,3,1.3,3.7,0.7c0.1-0.1,0.3-0.2,0.4-0.3l0.1-0.1c1.2-0.9,2.6-1.9,4.5-0.6
				c0.7,0.4,1.1,0.7,1.3,0.9c0.2,0.1,0.3,0.2,0.4,0.2l0,0v-0.1C134.1,174.1,134.4,173.9,134.7,173.9z"/>
		</g>
		<g>
			<path class="st12" d="M151.9,159.1c-3.1,0-13.3,0-14.9,0h-0.2l-2.6-4.8c3-0.8,9-2.4,15-3.7h0.2
				C149.8,152.3,150.8,156.7,151.9,159.1z"/>
			<path class="st9" d="M140.9,159.3c-1.9,0-3.4,0-3.9,0h-0.3l-2.7-5.1l0.2-0.1c3.8-1,9.5-2.5,15-3.7l0.4-0.1v0.2
				c0.4,1.8,1.4,6.2,2.5,8.5l0.1,0.2h-0.3c-0.9,0-2.4,0-4,0C145.7,159.3,143,159.3,140.9,159.3z M136.9,158.9h0.1
				c1.2,0,6.8,0,10.9,0c1.5,0,2.9,0,3.8,0c-1-2.3-2-6.4-2.4-8.2l0,0c-5.4,1.2-11,2.6-14.8,3.7L136.9,158.9z"/>
		</g>
		<g>
			<path class="st12" d="M170.5,154.6L170.5,154.6c-2-0.2-5.7-0.6-7.9-0.8c-1.1-0.1-1.8-0.2-1.9-0.2c-0.3-0.1-0.1-4.9,0-6.9
				c0-0.1,0-0.1,0-0.2c2.2,0.2,8.3,1.4,10.6,1.8c0.1,0.5,0.2,1.1,0.3,1.7C172,152.6,170.8,152.9,170.5,154.6z"/>
			<path class="st9" d="M170.7,154.9h-0.2c-2-0.2-5.6-0.6-7.9-0.8c-0.8-0.1-1.8-0.2-1.9-0.2c-0.2,0-0.4-0.1-0.2-7.1v-0.3h0.2
				c2.2,0.2,8.1,1.3,10.6,1.8h0.1v0.1c0.1,0.3,0.1,0.6,0.2,0.9c0,0.3,0.1,0.5,0.1,0.8c0.3,1.7-0.1,2.4-0.5,3.2
				c-0.2,0.4-0.5,0.8-0.6,1.4L170.7,154.9L170.7,154.9z M160.8,153.5c0.2,0,0.7,0.1,1.8,0.2c2.2,0.2,5.7,0.6,7.7,0.8
				c0.1-0.6,0.4-1,0.6-1.4c0.4-0.7,0.8-1.4,0.5-3c0-0.3-0.1-0.5-0.1-0.8s-0.1-0.5-0.1-0.8c-2.5-0.5-8-1.5-10.3-1.8
				C160.7,151.2,160.8,153.1,160.8,153.5z"/>
		</g>
		<g>
			<path class="st12" d="M158.2,167.7c-0.3,0.4-0.6,0.8-0.9,1.2c-0.2,0.3-0.5,3.8-0.7,7.1c-0.2,2.4-0.3,4.8-0.4,5.9h-0.1
				c-0.4,0-6.7-0.2-8.5-0.3c-0.9-1.4-1.9-3-2.8-4.5c-4.7-7.6-9.8-15.9-9.8-16.4c0-0.9,0.1-1.7,1.9-1.7h0.2c1.6,0,11.8,0,14.9,0
				c0.2,0.4,0.4,0.8,0.6,1.1C153.6,161.6,156.3,164.9,158.2,167.7z"/>
			<path class="st9" d="M156.3,182.2l-0.2-0.1c0,0,0,0-0.1,0c-0.4,0-7.2-0.2-8.5-0.3h-0.1v-0.1c-0.9-1.4-1.9-3-2.8-4.5
				c-9.9-15.8-9.9-16.3-9.9-16.5c0-1,0.2-1.8,2-1.8h0.2c1.2,0,6.8,0,10.9,0c1.7,0,3.1,0,4,0h0.1v0.1c0.2,0.4,0.4,0.7,0.6,1.1
				c1.2,1.4,3.8,4.8,5.7,7.5l0.1,0.1l-0.1,0.1c-0.3,0.4-0.6,0.8-0.9,1.2c0,0.1-0.2,0.9-0.7,7.1c-0.1,1.6-0.2,3.1-0.3,4.3
				c0,0.7-0.1,1.2-0.1,1.6L156.3,182.2z M147.6,181.5c2.2,0.1,7.8,0.3,8.4,0.3c0-0.4,0.1-0.9,0.1-1.4c0.1-1.2,0.2-2.7,0.3-4.3
				c0.5-6.7,0.7-7.1,0.7-7.2c0.2-0.4,0.5-0.8,0.8-1.2c-1.9-2.7-4.5-6-5.6-7.4c-0.3-0.3-0.5-0.7-0.6-1.1c-0.9,0-2.3,0-3.9,0
				c-4.1,0-9.7,0-10.9,0h-0.2c-1.6,0-1.7,0.6-1.7,1.5c0,0.3,1.4,2.8,9.8,16.3C145.8,178.6,146.8,180.1,147.6,181.5z"/>
		</g>
		<g>
			<path class="st12" d="M163.1,163.8c-2.6,1.7-4.1,3-4.9,3.9c-1.9-2.8-4.6-6.1-5.7-7.5c-0.3-0.3-0.5-0.7-0.6-1.1
				c-1.1-2.3-2.1-6.8-2.5-8.5c8.2-1.8,8.8-4.1,11.2-4l0,0l0.2,0.2c-0.1,2-0.2,6.8,0,6.9c0.1,0,0.8,0.1,1.9,0.2L163.1,163.8z"/>
			<path class="st9" d="M158.2,168l-0.1-0.2c-2-2.9-4.9-6.5-5.7-7.5c-0.3-0.4-0.5-0.7-0.7-1.1c-1.1-2.4-2.1-6.8-2.5-8.6v-0.2h0.2
				c4.7-1,6.9-2.3,8.3-3.1c1.1-0.6,1.8-1,2.9-0.9h0.1l0.3,0.3v0.1c-0.2,4.4-0.1,6.3,0,6.7c0.1,0,0.2,0,0.4,0c0.3,0,0.8,0.1,1.4,0.2
				h0.1l0.5,10.2l-0.1,0.1c-2.2,1.4-3.8,2.7-4.9,3.8L158.2,168z M149.5,150.7c0.4,1.9,1.4,6.1,2.5,8.4c0.2,0.4,0.4,0.7,0.6,1.1
				c0.8,1,3.6,4.4,5.6,7.3c1.1-1.2,2.7-2.4,4.7-3.7l-0.5-9.7c-0.5-0.1-0.9-0.1-1.2-0.1c-0.2,0-0.4-0.1-0.5-0.1l0,0
				c-0.2,0-0.4-0.1-0.2-7l-0.1-0.1c-0.9,0-1.6,0.3-2.7,0.9C156.3,148.4,154.1,149.6,149.5,150.7z"/>
		</g>
		<g>
			<path class="st12" d="M159.5,169.8L159.5,169.8c0,0.1-0.1,0.2-0.1,0.3c-0.1,0.6-0.2,1.7-0.3,3.1c-0.1,0.8-0.1,1.8-0.2,2.7
				l-2.4,0.1c0.3-3.3,0.6-6.8,0.7-7.1c0.2-0.4,0.5-0.9,0.9-1.2C158.7,168.4,159.2,169.1,159.5,169.8z"/>
			<path class="st9" d="M156.4,176.2V176c0.5-6.7,0.7-7.1,0.7-7.2c0.2-0.5,0.6-0.9,0.9-1.3l0.1-0.2l0.1,0.2c0.5,0.7,0.9,1.4,1.3,2.1
				v0.1v0.1c0,0.1-0.1,0.2-0.1,0.3c-0.1,0.5-0.2,1.5-0.3,3.1c-0.1,0.8-0.1,1.8-0.2,2.7v0.2L156.4,176.2z M158.2,167.9
				c-0.3,0.3-0.5,0.7-0.7,1c-0.1,0.1-0.2,1-0.7,6.9l2.1-0.1c0.1-0.9,0.1-1.8,0.2-2.6c0.1-1.7,0.2-2.7,0.3-3.2c0-0.1,0-0.2,0.1-0.3
				C159,169.2,158.6,168.5,158.2,167.9z"/>
		</g>
		<g>
			<path class="st12" d="M164,172.7c-0.4,0.1-1,0.2-1.4,0.4c-0.5,0.2-2.6,0.2-3.4,0.2c0.1-1.4,0.2-2.6,0.3-3.1l0.2-0.1
				c0.8-0.4,2-1,2.3-1.1c0.4-0.2,0.1,1.1,0,1.6s0.7,0.1,1.4-0.2c0.2-0.1,0.4-0.2,0.6-0.3C164.1,170.9,164.1,171.8,164,172.7z"/>
			<path class="st9" d="M160,173.4c-0.4,0-0.7,0-0.8,0H159v-0.2c0.1-1.7,0.2-2.7,0.3-3.2v-0.1l0.3-0.1c1.3-0.6,2.1-1,2.4-1.1
				c0.2-0.1,0.3,0,0.3,0c0.2,0.2,0.1,0.7,0,1.4c0,0.1,0,0.2-0.1,0.3l0,0c0.1,0.1,0.8-0.2,1.1-0.4h0.1c0.2-0.1,0.4-0.2,0.5-0.3
				l0.2-0.1v0.3c0.1,0.9,0.1,1.8,0,2.8v0.1H164c-0.4,0.1-1,0.2-1.4,0.4C162.2,173.4,160.9,173.4,160,173.4z M159.4,173.1
				c1.1,0,2.8,0,3.2-0.1s0.9-0.2,1.3-0.3c0.1-0.8,0.1-1.5,0-2.3c-0.1,0.1-0.2,0.1-0.3,0.2h-0.1c-0.8,0.3-1.2,0.5-1.5,0.3
				c-0.1-0.1-0.1-0.2-0.1-0.3s0-0.2,0.1-0.3c0.1-0.3,0.2-0.9,0.1-1.1c-0.3,0.1-1.1,0.5-2.3,1.1l-0.1,0.1
				C159.5,170.7,159.5,171.6,159.4,173.1z"/>
		</g>
		<g>
			<path class="st12" d="M163.6,183.9c-1,0-3.7,0.2-4.2,0c-0.3-0.1-0.6-0.3-0.8-0.5c0-0.6,0.1-1.3,0.1-2.2h4.6
				c0,0.2,0.1,0.4,0.2,0.6C163.6,182.1,163.6,183.1,163.6,183.9z"/>
			<path class="st9" d="M160.5,184.2c-0.5,0-0.9,0-1.1-0.1c-0.3-0.1-0.6-0.3-0.9-0.5l-0.1-0.1v-0.1c0-0.6,0.1-1.3,0.1-2.2V181h4.9
				v0.1c0,0.2,0.1,0.3,0.2,0.5c0.1,0.1,0.2,0.3,0.2,2.2v0.2h-0.2c-0.3,0-0.9,0-1.4,0C161.5,184.2,160.9,184.2,160.5,184.2z
				 M158.7,183.3c0.2,0.2,0.5,0.3,0.7,0.4c0.3,0.1,1.7,0.1,2.7,0c0.5,0,0.9,0,1.3,0c0-1.5-0.1-1.8-0.2-1.9c-0.1-0.2-0.1-0.3-0.2-0.5
				h-4.3C158.8,182.2,158.8,182.8,158.7,183.3z"/>
		</g>
		<g>
			<path class="st12" d="M159,176c-0.1,1.8-0.2,3.7-0.3,5.3c0,0.9-0.1,1.6-0.1,2.2c-0.8-0.5-1.9-1.3-2.4-1.4
				c0.1-1.1,0.2-3.5,0.4-5.9L159,176z"/>
			<path class="st9" d="M158.7,183.7l-0.2-0.2c-0.2-0.1-0.4-0.2-0.6-0.4c-0.7-0.4-1.4-0.9-1.8-1H156V182c0.1-1.1,0.2-3.4,0.4-5.9
				V176l2.7-0.1v0.2c-0.1,1.5-0.2,3.2-0.3,5.3c0,0.9-0.1,1.6-0.1,2.2L158.7,183.7z M156.4,181.9c0.4,0.2,1.1,0.6,1.7,1
				c0.1,0.1,0.2,0.1,0.3,0.2c0-0.5,0.1-1.2,0.1-1.9c0.1-2,0.2-3.7,0.3-5.1l-2.1,0.1C156.6,178.6,156.4,180.8,156.4,181.9z"/>
		</g>
		<g>
			<path class="st12" d="M163.8,173.7c-0.4,1.1-0.3,3.6-0.3,5.1c0,0.7,0,1.1-0.1,1.2c-0.2,0.2-0.3,0.7-0.2,1.2h-4.6
				c0.1-1.5,0.2-3.5,0.3-5.3c0.1-1,0.1-1.9,0.2-2.7c0.8,0,2.9,0,3.4-0.2c0.4-0.1,1-0.3,1.4-0.4C164,173.1,163.9,173.4,163.8,173.7z"
				/>
			<path class="st9" d="M163.5,181.4h-4.9v-0.2c0.1-2.1,0.2-3.8,0.3-5.3c0.1-1,0.1-1.9,0.2-2.7V173h0.4c0.9,0,2.7,0,3.2-0.1
				c0.4-0.1,0.9-0.3,1.4-0.4l0.2-0.1v0.2c0,0.3-0.1,0.7-0.2,1l0,0c-0.3,0.9-0.3,2.7-0.3,4.2c0,0.3,0,0.6,0,0.9c0,1-0.1,1.2-0.2,1.3
				c-0.1,0.1-0.2,0.6-0.1,1L163.5,181.4z M158.9,181.1h4.2c0-0.4,0-0.9,0.3-1.1c0,0,0.1-0.3,0.1-1.1c0-0.3,0-0.6,0-0.9
				c0-1.5,0-3.3,0.3-4.3c0.1-0.2,0.1-0.5,0.2-0.7c-0.4,0.1-0.9,0.2-1.2,0.3c-0.5,0.2-1.9,0.2-3.3,0.2h-0.1c-0.1,0.8-0.1,1.7-0.2,2.5
				C159.1,177.4,159,179.1,158.9,181.1z"/>
		</g>
	</g>
</g>
<g>
	<g>
		<path class="st6" d="M1005.3-108.2L1005.3-108.2v-0.2c0.4-1.8,1.2-3.7,2.2-5.2c3.7-5.9,4.8-13.1,3.3-19.9l-0.7-3.6
			c-0.2-1.7-0.6-3.2-0.8-4.7l0,0c-1.9-10.6-3.6-18.6-6.3-25.7c-4.4-12.2-8.2-24.7-11.4-37.3c-1.5-7.1-2.7-21.3-2.7-21.5
			c-0.2-3.9-3.7-6.9-7.6-6.6c-2.4,0.2-4.6,1.5-5.7,3.6c-3.3,5.7-8.3,11.4-10.6,12.2c-3,1.1-14.1,1.5-20,1.7c-8.1,0.3-11,0.4-13,1.7
			c-2.1,0.3-4.2,0.4-6.2,0.2c-3.9-1.1-29.2-2.7-38,0.7c-2.7,1.1-5.1,2.2-7,3.1l0,0l-1.7,0.9c-1.2,0.7-2.3,1.2-3.6,1.8
			c-12.6,1.7-25.2,2.7-37.9,2.9l0,0l-3.3,0.1c-21.2,0.5-34-2.1-35.9-2.7c-0.2-0.1-0.6-0.2-1.1-0.4c-4.5-2-16.6-7.3-30.6-4.8h-0.1
			h-0.3H766l-1.2,0.2c-15.4,3.3-23.7,7.2-25.8,8.3c-3,1.2-25.5,8.7-34.7,11.3c-2.2-3.9-5.8-11-8.2-15.6
			c-6.9-13.7-8.2-15.9-10.6-17.5s-18.2-7.2-23-8.9c-22.9-8-23.9-7.5-26.9-5.7c-2.1,1.2-2.7,2.2-8.5,12c-5,8.4-18.2,30.6-22.9,33.7
			c-2.7,1.1-14.2,5.5-27.3,10.5c-16.6,6.3-37.2,14.2-53.8,20.7c-9.2,3.6-16,6.3-20.8,8.3c-2.7,1.2-4.8,2-6.3,2.7
			c-2.2,1-7.2,3.3-6.2,8.9c0.4,2.4,0.9,3,8.9,11.8c8.3,9.2,23.8,26.4,28.7,35.4c2.5,4.7,7.5,15.9,13.9,31.7l0,0
			c5.1,12.5,10.8,27.2,15.8,40.4l0,0c4.2,11.2,7.7,20.7,9.6,26.3c3.5,10.6,15.4,48.6,34.4,109.9l0,0l8.4,27.3l10.1,35.1l0,0
			l41.9,145.2c0.8,3.1,3.7,5.2,6.8,5.2c0.2,0,0.6,0,0.8,0l86.7-10.5h0.3l0.6-0.1h0.1l63.1-11l0,0l0.9-0.2l0.5-0.1l72.6-18.2
			c2.5-0.7,4.5-2.6,5.2-5.1c2.7-10.1,9.4-27.8,16.1-32.6c0.5-0.3,0.9-0.7,1.3-1.2c0,0,0.4-0.5,1.2-1.4l0,0
			c19.6-23.7,19.8-28.9,19.9-31.1v-1.5c0.7-24.3,3.9-32.1,5.7-34.5l0.7-0.8l0,0c4.9-6.9,8.2-14.9,9.8-23.2
			c1.7-9.2,2.8-15.7,3.3-18.4l0,0l0,0l0.3-1.8c0-0.2,0-0.3,0-0.5c1.7-13.8,5.4-27.3,11.1-40c3.8-8,8.6-15.5,14.3-22.3
			c3.6-4.5,6.7-8.4,8.3-13.2c0.7-2.2,1.7-4.4,2.4-6.6c0.5-1.2,1-2.5,1.4-3.7l0,0c2.1-5.1,3.3-10.4,3.6-15.9c0-4.7-0.1-11.1-0.8-19.5
			l0,0c-0.7-8.2-1.9-16.4-3.5-24.6c-1.7-10.7-4.7-21.2-8.7-31.4l0,0l0,0c-0.6-1.4-1.1-2.7-1.5-3.8c-0.5-1-0.8-2.2-0.8-3.3
			c0,0,0.4-0.7,2.7-2c7-3.9,15.9-11.7,20.1-22l0,0c0.9-2.2,1.6-4.6,2-7c0.8-5.8,0.3-11.8-1.4-17.5
			C1005.3-103.8,1004.8-105.9,1005.3-108.2z"/>
	</g>
	<g>
		<path class="st12" d="M731.4,71.4l-123.4,38.7C597,74.2,578.4,14.4,573.6,0c-2-6-5.5-15.7-9.7-26.6c3.8-6.3,9-14.5,10-14.7
			c1.7-0.4,13.1,10.3,20.2,8.6c7.2-1.7,5.5-7.1,22.1,0.9c16.6,8,20.8,16.5,27,15.2c6.2-1.3,6.7-4.6,15.7-2.8
			c9.1,1.7,14.5,9,30.5,8.1c2.8-0.2,5.2-0.4,7.4-0.7c0.1,0.3,0.1,0.6,0.1,0.9c0,4.4,21.3,47.1,29.9,64.9
			C729,59.4,730.6,65.3,731.4,71.4z"/>
		<path class="st9" d="M607.5,111.2l-0.2-0.8c-6.7-21.7-29.1-93.9-34.5-110c-2-6-5.5-15.7-9.7-26.5l-0.2-0.4l0.2-0.3
			c8.9-14.7,9.9-15,10.4-15.2c0.8-0.2,1.9,0.5,4.8,2.4c4.1,2.7,10.9,7.2,15.4,6.2c1.8-0.4,3-1.1,4.2-1.7c3.7-2.1,6.5-3,18.4,2.7
			c7.7,3.7,12.8,7.7,16.7,10.5c4.3,3.2,6.9,5.2,9.8,4.6c2-0.4,3.3-1.1,4.7-1.7c2.7-1.2,5.1-2.3,11.4-1.2c3.3,0.7,6.2,2,9.1,3.4
			c5.2,2.5,11.1,5.2,21.2,4.7c2.7-0.2,5.2-0.4,7.3-0.7l0.7-0.1l0.2,0.7c0.1,0.3,0.2,0.7,0.2,1.2c0,3.3,14.1,32.3,23.4,51.4
			c2.4,5,4.7,9.6,6.3,13.1c2.3,5.7,3.9,11.7,4.7,17.8l0.1,0.7l-0.7,0.2L607.5,111.2z M564.7-26.5c4.1,10.7,7.6,20.2,9.6,26.2
			c5.3,16,27.2,86.6,34.2,109.3l122-38.2c-0.8-5.7-2.3-11.3-4.5-16.7c-1.7-3.5-3.9-8-6.3-13.1c-12.9-26.5-23.6-48.7-23.6-52.1l0,0
			c-1.9,0.2-4.2,0.4-6.7,0.6c-10.6,0.7-16.7-2.2-22-4.8c-2.8-1.3-5.6-2.7-8.7-3.2c-5.7-1.1-7.8-0.2-10.4,1c-1.3,0.6-2.8,1.3-5,1.7
			c-3.7,0.8-6.7-1.4-11.2-4.9c-3.7-2.8-8.7-6.7-16.3-10.3c-11.7-5.7-13.8-4.5-16.8-2.8c-1.2,0.7-2.6,1.4-4.6,1.9
			c-5.2,1.2-12.2-3.3-16.7-6.4c-1.3-0.9-2.9-1.9-3.5-2.2C573.6-40,571.7-37.8,564.7-26.5z"/>
	</g>
	<g>
		<path class="st12" d="M738.2,148.7c-43.8,8.4-90.3,18.9-111.5,23.9l-10.1-35.1c0,0-3.5-11.2-8.5-27.5l123.4-38.7
			c4.2,24.9,5.2,62.3,6.2,71.4C737.7,144,737.8,146,738.2,148.7z"/>
		<path class="st9" d="M626.1,173.6l-10.3-35.8l0,0c0,0-3.5-11.2-8.5-27.4l-0.2-0.7l125.1-39.2l0.2,0.9c3.1,18,4.4,42.2,5.3,58.1
			c0.3,6,0.6,10.7,0.8,13.2c0.1,1.2,0.3,3.2,0.7,5.9l0.1,0.7l-0.7,0.2c-45.3,8.7-93.1,19.7-111.5,23.9L626.1,173.6z M609.1,110.7
			c4.9,15.7,8.2,26.7,8.2,26.7l9.9,34.3c18.9-4.4,65.6-15.1,110.1-23.6c-0.2-2.3-0.4-4.1-0.6-5.2c-0.2-2.5-0.5-7.3-0.8-13.3
			c-0.8-15.7-2.2-39.2-5.1-57L609.1,110.7z"/>
	</g>
	<g>
		<path class="st9" d="M755.7,307.5l-0.6,0.1l-86.6,10.5l-41.8-145.4c21.3-5,67.7-15.5,111.5-23.9c2.7,24.5,11.5,105,12.2,124.6
			C751.1,284.8,752.8,296.3,755.7,307.5z"/>
		<path class="st9" d="M667.8,319l-42.2-147l0.8-0.2c14.2-3.3,64-14.7,111.6-23.9l0.9-0.2l1,8.9c3.2,29.6,10.7,98.9,11.4,116.7
			c0.6,11.4,2.3,22.9,5.2,34l0.2,0.8l-1.5,0.2L667.8,319z M627.6,173.2L669,317.2l85.6-10.4c-2.7-10.9-4.5-22.2-5.1-33.4
			c-0.7-17.8-8.2-87.1-11.4-116.6l-0.7-7.1C691,158.6,642.7,169.7,627.6,173.2z"/>
	</g>
	<g>
		<path class="st12" d="M814.5,209.3c-0.8,3,2.9,66,4.2,87.2l-63.1,11c-2.9-11.2-4.7-22.7-5.2-34.2c-0.7-19.6-9.7-100.2-12.2-124.6
			c21.7-4.2,42.7-7.7,59.7-10c17.5-2.2,30.2-3.9,39.6-5.2c-2.3,11.2-5.3,22.2-8.9,33.1C822.3,187,815.1,207.1,814.5,209.3z"/>
		<path class="st9" d="M755,308.4l-0.2-0.7c-2.9-11.2-4.7-22.7-5.2-34.3c-0.7-17.7-8.2-87-11.4-116.5l-0.9-8.8l0.7-0.2
			c24.2-4.7,44.4-8,59.8-10c16.5-2.1,29.5-3.7,39.6-5.2l1.2-0.2l-0.2,1.2c-2.3,11.2-5.4,22.3-8.9,33.2c-4.3,14.1-9.1,27.9-11.9,36.2
			c-1.2,3.3-2,5.8-2.2,6.4c-0.7,2.5,1.7,46.5,4.2,87l0.1,0.7L755,308.4z M739,149.4l0.7,7.3c3.2,29.6,10.7,98.8,11.4,116.6
			c0.6,11.2,2.3,22.3,5.1,33.2l61.6-10.7c-1.6-25.7-5-83.6-4.2-86.7l0,0c0.2-0.7,1-3,2.2-6.5c2.8-8.2,7.5-22,11.9-36.2
			c3.4-10.4,6.3-21.2,8.7-31.8c-9.9,1.3-22.6,3-38.5,5C782.7,141.5,762.9,144.8,739,149.4z"/>
	</g>
	<g>
		<path class="st12" d="M912.1,240.1l-1.2,1.3c-11.2,8.1-18.8,36.5-18.8,36.5l-72.5,18.2l-0.9,0.2c-1.3-21.2-5-84.2-4.2-87.2
			c0.6-2.1,7.8-22.3,14.2-42.6c5.2,12.2,15.1,34.7,18.4,37.8C850.8,207.8,894.5,230.9,912.1,240.1z"/>
		<path class="st9" d="M817.9,297.4l-0.1-0.9c-0.5-8.6-5.1-83.9-4.2-87.5c0.2-0.7,1.1-3.2,2.4-7.1c2.8-8.2,7.5-21.7,11.7-35.6
			l0.7-2.2l0.9,2.1c7.1,16.9,15.5,35,18.2,37.5c3.8,3.4,50.6,28.1,64.8,35.6l0.9,0.5l-2,2.3c-10.9,7.7-18.4,35.7-18.5,36.1l-0.1,0.5
			L817.9,297.4z M828.7,169c-4.2,13.1-8.5,25.7-11.2,33.5c-1.2,3.7-2.2,6.3-2.3,7c-0.6,2.5,2.2,52.5,4.2,86l72-18.1
			c1.1-3.9,8.2-28.7,18.9-36.4l0.4-0.5c-18.8-9.9-60.5-31.9-64.2-35.3C842.9,201.7,832.5,177.6,828.7,169z"/>
	</g>
	<g>
		<path class="st12" d="M938.1,172.5c-0.3,0.4-0.5,0.7-0.5,0.7c-6.8,9.1-7.1,34.7-7.2,40.1c-0.2,4.6-14.2,21.8-18.2,26.8
			c-17.5-9.2-61.2-32.3-65-35.7c-3.3-3.1-13.2-25.6-18.5-37.7c3.6-10.8,6.6-21.9,8.9-33.1l0,0c11.9,1.5,34.2,14.1,41.5,17
			C884.6,152.7,919.8,165.7,938.1,172.5z"/>
		<path class="st9" d="M912.3,241.2l-0.6-0.3c-18.3-9.6-61.3-32.4-65.1-35.8c-3.6-3.3-14.2-27.7-18.7-38.1l-0.1-0.2l0.1-0.3
			c3.6-10.7,6.6-21.9,8.9-33l0.2-0.7l0.7,0.1c8.7,1.1,22.4,7.8,32.5,12.7c3.8,1.9,7.2,3.5,9.2,4.3c5.3,2.1,39,14.6,57.1,21.2
			l2.9,1.1l-0.6,0.9c-0.3,0.5-0.5,0.7-0.5,0.7c-6.2,8.2-6.8,30.8-7,38.2v1.4c-0.2,4.5-11.7,19.1-18.4,27.3L912.3,241.2z
			 M829.6,166.6c9.1,21.2,15.8,35.1,18.2,37.2c3.7,3.4,49.2,27.4,64.1,35.2c10.7-13.2,17.5-23,17.7-25.8v-1.3
			c0.2-7.5,0.8-30.2,7.2-39l-0.8-0.3c-19.3-7.2-51.7-19.2-57.1-21.2c-2.2-0.8-5.5-2.5-9.3-4.3c-9.7-4.7-22.7-11.1-31.2-12.4
			C835.9,145.3,833,156.1,829.6,166.6z"/>
	</g>
	<g>
		<path class="st12" d="M949.9,134c-0.5,2.9-1.7,9.3-3.3,18.2c-1.4,7.3-4.3,14.2-8.6,20.3c-18.2-6.7-53.4-19.9-58.9-22
			c-7.4-2.9-29.7-15.5-41.5-17c24.7-3.4,26.2-4.2,29.8-5.4c1.7-0.5,6.7-7.6,12.7-16.9c5.7,2.9,17.1,8.4,22.7,10.2
			C909.3,123.4,939.3,131.2,949.9,134z"/>
		<path class="st9" d="M938.4,173.5l-0.6-0.2c-18.4-6.8-53.6-19.9-58.9-22c-2.2-0.8-5.6-2.5-9.6-4.5c-9.9-4.8-23.4-11.4-31.7-12.5
			l-6.2-0.7l6.2-0.8c22.9-3.2,25.8-4.1,28.9-5.2l0.7-0.2c0.8-0.2,3.7-3.3,12.2-16.6l0.4-0.6l0.7,0.3c4.8,2.4,16.8,8.3,22.7,10.1
			c4.3,1.3,20.6,5.7,47,12.6l0.7,0.2l-0.2,0.7c-0.6,3.2-1.9,10.7-3.3,18.2c-1.4,7.5-4.3,14.4-8.7,20.7L938.4,173.5z M842.5,133.7
			c8.3,2.2,19.2,7.6,27.5,11.7c3.9,1.9,7.3,3.6,9.5,4.4c5.3,2,39.7,14.9,58.3,21.7c4-5.9,6.7-12.4,8.1-19.4c1.3-7,2.6-13.9,3.2-17.5
			c-26-6.7-42.1-11.1-46.3-12.4c-5.7-1.7-17-7.2-22.2-9.9c-9.2,13.9-11.5,16.2-12.7,16.6l-0.7,0.2
			C864,130.2,861.3,131.1,842.5,133.7z"/>
	</g>
	<g>
		<path class="st12" d="M988.3,44.4c-1.2,3.4-2.7,6.9-3.9,10.5c-2.8,8.5-12.9,14.7-22.3,34.8c-6,13.4-9.9,27.7-11.7,42.3
			c0,0-0.1,0.7-0.3,1.9c-10.7-2.7-40.7-10.6-47.1-12.6c-5.7-1.7-17-7.2-22.7-10.2c12.5-19.1,29.2-47.6,29.2-47.6
			s-10.8-17.1-24.9-39.4c9,0.3,40.1,1.4,42.2,1.4c0.2,0,0.4,0.1,0.7,0.1c2.3,0.7,7.7,4.5,11.9,7.2c1.3,0.9,2.7,1.7,4.2,2.4
			c2.8,1.1,16.2-0.2,20.9,0c0.3,0,0.7,0,1.1,0C967.6,35.6,980.4,41,988.3,44.4z"/>
		<path class="st9" d="M950.6,135.1l-0.9-0.2c-26.5-6.9-42.7-11.2-47.1-12.6c-5.9-1.8-18-7.7-22.9-10.2l-0.8-0.4l0.5-0.7
			c11.5-17.6,26.7-43.5,28.9-47.1c-1.7-2.7-11.8-18.7-24.7-39l-0.8-1.3l1.6,0.1c14.7,0.5,40.3,1.4,42.2,1.4c0.3,0,0.7,0.1,0.9,0.2
			c1.8,0.6,5.6,3,9.2,5.3c1,0.7,2,1.3,2.9,1.9c1.3,0.9,2.7,1.7,4.2,2.3c1.6,0.7,8,0.3,13.1,0.1c3-0.2,5.8-0.2,7.6-0.2
			c0.3,0,0.7,0,1.1,0c1.8,0.2,9.4,3.2,23.2,9.2l0.7,0.3l-0.2,0.7c-0.5,1.2-0.9,2.5-1.4,3.8c-0.8,2.2-1.7,4.4-2.5,6.7
			c-1.2,3.8-3.9,7.2-7.2,11.3c-4.3,5.5-9.8,12.2-15.1,23.6c-5.9,13.3-9.8,27.5-11.7,42.1c0,0.1-0.1,0.7-0.3,1.9L950.6,135.1z
			 M881.3,110.9c5.3,2.7,16.3,8,21.8,9.7c4.3,1.3,20.2,5.6,46.2,12.3c0.1-0.7,0.2-1,0.2-1c1.7-14.7,5.7-29,11.7-42.5
			c5.4-11.5,10.9-18.4,15.3-23.9c3.2-4.1,5.8-7.3,7-10.8c0.7-2.3,1.7-4.6,2.5-6.8c0.4-1,0.7-2,1.2-3c-16.2-6.9-20.8-8.6-21.9-8.7
			c-0.2,0-0.6,0-0.9,0c-1.7-0.1-4.6,0.1-7.5,0.2c-6.9,0.3-11.9,0.5-13.7-0.2c-1.6-0.7-3-1.6-4.4-2.5c-0.9-0.6-1.9-1.2-2.9-1.8
			c-3.3-2.2-7.1-4.7-8.7-5.2c-0.2-0.1-0.2-0.1-0.4-0.1c-2.1,0-33.1-1.1-40.6-1.3c13.7,21.7,24.1,38.1,24.1,38.1l0.2,0.4l-0.2,0.4
			C909.9,64.3,893.6,92,881.3,110.9z"/>
	</g>
	<g>
		<path class="st12" d="M990.6,12.1c-3.2-0.4-6.4-1.1-9.6-1.9c-1.9-0.3-12.3-0.2-17.1,0c0-7.5-0.5-19.7,1.3-25.4
			c0.5-1.6,0.8-3.2,1-4.7c0.4-4.5,0.4-9-0.1-13.5c3.8-2.2,9.8-6.3,12.6-8.3c3.9,9.7,6.7,19.7,8.5,30C988.8-3.9,989.8,4.1,990.6,12.1
			z"/>
		<path class="st9" d="M991.5,13l-1-0.2c-3.2-0.4-6.5-1.1-9.7-1.9c-1.6-0.2-11-0.2-16.9,0H963v-0.8c0-1.2,0-2.6,0-4.1
			c-0.1-7.5-0.2-16.7,1.4-21.7c0.4-1.5,0.7-3.1,0.9-4.6c0.4-4.4,0.4-8.8-0.1-13.2l-0.1-0.5l0.5-0.2c3.8-2.2,9.7-6.2,12.6-8.2
			l0.8-0.6l0.4,1c3.9,9.7,6.7,19.8,8.5,30.2c1.5,7.9,2.7,15.9,3.4,24L991.5,13z M975.2,9.2c2.7,0,5.1,0.1,5.9,0.2
			c2.8,0.7,5.7,1.3,8.6,1.7c-0.7-7.6-1.8-15.2-3.3-22.7c-1.7-9.8-4.4-19.6-8.1-28.9c-2.9,2.1-7.8,5.3-11.3,7.4
			c0.5,4.3,0.5,8.7,0,13.1c-0.2,1.7-0.5,3.3-1,4.9c-1.5,4.6-1.4,13.7-1.3,21.1c0,1.2,0,2.2,0,3.2C967.5,9.3,971.8,9.2,975.2,9.2z"/>
	</g>
	<g>
		<path class="st12" d="M991.4,30.9c-0.2,4.7-1.3,9.2-3.2,13.5c-7.8-3.3-20.7-8.8-22.9-9.1c-0.3,0-0.7,0-1.1,0c0-3.8-0.2-9.2-1-10.5
			c-0.5-0.8-0.7-1.8-0.9-2.7c-0.3-2.2-0.1-4.7,0.9-5.7c0.5-0.5,0.6-2.8,0.6-6.1c4.8-0.1,15.2-0.2,17.1,0c3.2,0.8,6.3,1.5,9.6,1.9
			C991.3,20.5,991.4,26.8,991.4,30.9z"/>
		<path class="st9" d="M988.8,45.5l-3.2-1.3c-7.2-3.1-18.3-7.7-20.2-8c-0.2,0-0.6,0-0.9,0l-0.9,0.1v-0.9c0-8.1-0.7-9.7-0.8-10
			c-0.6-1-0.9-2-1-3.1c-0.3-2.2-0.2-5.2,1.2-6.5c0.2-0.3,0.3-2.2,0.3-5.5V9.4h0.8c3.5-0.1,15.2-0.2,17.2,0c3.2,0.8,6.4,1.5,9.6,1.9
			l0.7,0.1l0.1,0.7c0.6,6.6,0.8,12.7,0.8,18.9v0.1c-0.2,4.7-1.3,9.3-3.2,13.7L988.8,45.5z M965.1,34.5c0.1,0,0.2,0,0.3,0
			c2.1,0.2,10.7,3.8,20.7,8.1l1.7,0.7c1.6-4,2.5-8.2,2.7-12.4c0-5.8-0.2-11.7-0.7-18.1c-3.1-0.4-6.1-1.1-9.1-1.8
			c-1.4-0.2-9.1-0.1-16.1,0c0,3.9-0.2,5.2-0.8,5.8c-0.7,0.7-1,2.9-0.7,5.1c0.1,0.9,0.4,1.7,0.8,2.5
			C964.3,24.8,965.1,26.1,965.1,34.5z"/>
	</g>
	<g>
		<path class="st12" d="M838.3,128.9c-0.1,1.3-0.3,2.9-0.7,4.7l0,0c-9.4,1.3-22.2,3-39.6,5.2c-17.1,2.2-38.2,5.8-59.7,10
			c-0.3-2.7-0.5-4.7-0.7-5.9c-0.9-9-1.9-46.5-6.2-71.4l106.3-33.3C838.6,72.3,839.4,117.6,838.3,128.9z"/>
		<path class="st9" d="M737.5,149.6l-0.1-0.9c-0.3-2.7-0.5-4.7-0.7-5.9c-0.2-2.5-0.5-7.3-0.8-13.3c-0.9-15.9-2.2-40.1-5.2-58
			l-0.1-0.7l108-33.9v1.1c0.7,33.6,1.6,79.6,0.5,90.9c-0.1,1.2-0.3,2.7-0.7,4.7l-0.1,0.6l-0.6,0.1c-10.2,1.4-23.1,3.1-39.7,5.2
			c-15.7,2-35.8,5.3-59.6,9.9L737.5,149.6z M732.4,72c3,17.9,4.3,41.7,5.2,57.4c0.3,6,0.6,10.7,0.8,13.2c0.1,1.1,0.2,2.7,0.5,5
			c23.6-4.5,43.3-7.8,58.9-9.8c16.2-2.1,29-3.7,39-5.1c0.3-1.7,0.5-2.9,0.6-4l0,0c1.1-11.2,0.2-56.1-0.5-89.6L732.4,72z"/>
	</g>
	<g>
		<path class="st12" d="M837.7,38.1L731.4,71.4c-0.8-6.1-2.4-12-4.7-17.7c-8.5-17.7-29.9-60.5-29.9-64.9c0-0.3,0-0.7-0.1-0.9
			c10.1-1.2,13.5-3.7,15.8-6.3c2.8-3.3,6.8-9.7,12.2-9.7s11.7,8.7,16,8.7c2.9,0,11.1-0.5,16-0.8c1.9,2.5,4.2,4.5,6.9,6.1
			c17.3,8.3,15.5,6.2,21.6,1.8s12.5-9.7,22.2-3.6c9.7,6.1,8.5,6.3,9.7,4.9c1.2-1.5,4.5-4.9,9.5,1.4c4.4,5.7,7.1,18.1,10.4,19
			C837.1,16.6,837.5,26.8,837.7,38.1z"/>
		<path class="st9" d="M730.7,72.5l-0.2-1c-0.8-6-2.4-11.9-4.7-17.5c-1.9-4-4.5-9.3-7.3-15.2c-12.8-26.2-22.6-46.6-22.6-50
			c0-0.2,0-0.5-0.1-0.7l-0.2-0.9l0.9-0.1c10.4-1.3,13.3-3.8,15.3-6.1c0.4-0.5,0.9-1.1,1.3-1.7c2.7-3.5,6.6-8.2,11.5-8.2
			c3.1,0,6.3,2.5,9.4,4.9c2.4,1.8,4.8,3.7,6.6,3.7c2.8,0,11.2-0.5,16-0.8h0.4l0.2,0.3c1.8,2.4,4.1,4.3,6.7,5.8
			c14.5,6.9,15,6.5,18.6,3.6c0.6-0.5,1.3-1.1,2.2-1.7l0.7-0.5c5.9-4.3,12.7-9.3,22.4-3.2c3.2,2,5.2,3.3,6.5,4.2
			c0.8,0.6,1.4,1,1.7,1.2l0.1-0.1l0.2-0.2c0.5-0.7,2.1-2.7,4.6-2.6c2,0,4.1,1.3,6.2,4c2.1,2.7,3.8,6.8,5.3,10.5
			c1.5,3.7,3.2,7.8,4.6,8.2l0.6,0.2l0.2,5.9c0.2,6.6,0.4,14.7,0.7,23.4v0.6l-0.6,0.2L730.7,72.5z M697.6-11.4c0,0.1,0,0.2,0,0.2
			c0,3.2,13.5,30.9,22.4,49.2c2.8,5.9,5.5,11.2,7.4,15.2c2.2,5.5,3.8,11.2,4.7,16.9l104.8-32.8c-0.2-8.5-0.4-16.3-0.7-22.7l-0.2-4.8
			c-1.8-1.1-3.3-4.6-5.1-8.9c-1.5-3.6-3.2-7.6-5.1-10.1c-1.7-2.2-3.4-3.3-4.8-3.3c-1.2-0.1-2.2,0.7-3.3,1.9l-0.2,0.2
			c-1.1,1.3-1.7,0.9-4.1-0.7c-1.3-0.9-3.2-2.2-6.5-4.2c-8.8-5.6-14.8-1.2-20.6,3.1l-0.7,0.5c-0.8,0.6-1.5,1.2-2.1,1.7
			c-4.2,3.5-5.3,3.8-20.3-3.3c-2.7-1.6-5-3.6-6.9-5.9c-5.7,0.3-12.9,0.7-15.7,0.7c-2.2,0-4.8-2-7.6-4.1c-2.9-2.2-5.8-4.6-8.4-4.6
			c-4.2,0-7.7,4.4-10.2,7.7c-0.5,0.7-1,1.2-1.4,1.7C710.5-14.9,706.9-12.6,697.6-11.4z"/>
	</g>
	<g>
		<path class="st12" d="M909.4,63.7c0,0-16.7,28.5-29.2,47.6c-6.1,9.2-11.1,16.3-12.7,16.9c-3.6,1.2-5,2-29.8,5.4l0,0
			c0.3-1.7,0.6-3.3,0.7-4.7c1.1-11.3,0.2-56.6-0.6-90.8c-0.2-11.3-0.5-21.5-0.7-28.7c0.4,0.1,0.8,0,1.2-0.2
			c3.9-2.3,8.5-7.2,15.5-4.7c6.1,2.2,11.2,1.9,16.7-2.6c4.8,7.7,9.6,15.4,14.1,22.5C898.5,46.6,909.4,63.7,909.4,63.7z"/>
		<path class="st9" d="M836.6,134.6l0.2-1.2c0.3-2,0.6-3.4,0.7-4.6c0.8-8.8,0.7-39.3-0.6-90.7c-0.2-11.3-0.5-21.5-0.7-28.7V8.3
			l1.1,0.2c0.2,0.1,0.4,0,0.6-0.1c0.7-0.4,1.4-0.9,2.2-1.5c3.5-2.5,7.9-5.6,14-3.3c6.3,2.2,11.1,1.6,15.9-2.4l0.7-0.6l0.5,0.8
			c4.8,7.7,9.6,15.4,14.1,22.5C899,46,909.9,63.2,910,63.3l0.2,0.4l-0.2,0.4c-0.2,0.2-16.9,28.7-29.2,47.6
			c-9.5,14.6-12,16.8-13.2,17.2l-0.7,0.2c-3.2,1.1-6.1,2-29.2,5.2L836.6,134.6z M837.9,10.2c0.2,7.2,0.5,17,0.7,27.9
			c1.2,51.5,1.4,82.1,0.6,90.9c-0.1,1-0.2,2.2-0.5,3.6c21.9-3,24.7-4,27.7-5l0.7-0.2c0.6-0.2,2.9-2.2,12.2-16.6
			c11.5-17.6,26.7-43.5,28.9-47.1c-1.7-2.7-11.9-18.8-24.5-39c-4.3-6.8-8.9-14.2-13.6-21.7c-5.1,3.8-10.3,4.5-16.8,2.2
			c-5.2-1.9-9.1,0.7-12.5,3.2c-0.7,0.6-1.5,1.1-2.2,1.5C838.4,10,838.1,10.1,837.9,10.2z"/>
	</g>
	<g>
		<path class="st12" d="M870.5,1.8c-5.5,4.5-10.7,4.7-16.7,2.6c-6.9-2.5-11.6,2.4-15.5,4.7c-0.3,0.2-0.8,0.3-1.2,0.2
			c-3.3-0.9-6-13.3-10.4-19c-5-6.3-8.3-2.9-9.5-1.4s0,1.2-9.7-4.9c-9.7-6.1-16.1-0.8-22.2,3.6s-4.2,6.4-21.6-1.8
			c-2.7-1.5-5-3.6-6.9-6.1c-13.5-16-31.1-56.1-38.8-74.8l1.7-0.3l80.7-48.9l17.9,33l12.8,23.7c-8.7,0-9.2,3.6-9.2,8.3
			C821.7-76.9,847.1-35.7,870.5,1.8z"/>
		<path class="st9" d="M837.4,10.2c-0.2,0-0.3,0-0.6-0.1c-2.2-0.6-3.7-4.4-5.7-9.2c-1.5-3.6-3.2-7.6-5.1-10.1
			c-1.7-2.2-3.4-3.3-4.9-3.3l0,0c-1.2,0-2.2,0.7-3.2,1.9l-0.2,0.2c-1.1,1.4-1.7,0.9-4.1-0.7c-1.3-0.9-3.3-2.2-6.5-4.2
			c-8.8-5.5-14.8-1.2-20.6,3.1l-0.7,0.5c-0.8,0.6-1.4,1.2-2,1.6c-4.2,3.4-5.3,3.8-20.4-3.3c-2.8-1.7-5.2-3.7-7.2-6.3
			c-13.7-16.2-31.8-57.9-39-75.1l-0.4-0.9l2.5-0.4l81.4-49.3l31.7,58.6H831c-7.9,0-8.4,2.8-8.4,7.5c0.2,1.7,8.8,17.1,48.6,80.8
			l0.4,0.6L871,2.4c-5.3,4.3-10.7,5.2-17.6,2.7c-5.2-1.9-9.2,0.7-12.5,3.2c-0.7,0.6-1.5,1.1-2.2,1.5
			C838.2,10.1,837.8,10.2,837.4,10.2z M821-14.1C821-14.1,821.1-14.1,821-14.1c2.1,0,4.2,1.3,6.2,4c2.1,2.7,3.8,6.8,5.3,10.5
			c1.5,3.7,3.2,7.8,4.7,8.2c0.2,0,0.4,0,0.6-0.1c0.7-0.4,1.4-0.9,2.2-1.4c3.6-2.5,7.9-5.6,14.1-3.4c6.1,2.2,10.7,1.6,15.4-2
			c-43-69-48.6-79.6-48.6-81.1c0-4.7,0.7-8.7,8.7-9.1l-29.6-54.6l-80.1,48.6l-0.8,0.2c7.3,17.7,25,57.9,38.3,73.6
			c1.8,2.4,4.1,4.4,6.7,5.8c14.5,6.9,15,6.4,18.6,3.5c0.6-0.5,1.2-1.1,2.1-1.7l0.7-0.5c5.9-4.3,12.7-9.3,22.4-3.2
			c3.2,2,5.2,3.4,6.6,4.3c0.7,0.5,1.4,1,1.7,1.2l0.1-0.1l0.2-0.2C817.8-13.3,819.4-14.1,821-14.1z"/>
	</g>
	<g>
		<path class="st12" d="M937.4-45.1c-1.7,1.8-3.2,3.9-4.4,6.2c-0.8,1.7-2.3,18.7-3.6,35.4c-0.9,11.9-1.7,23.7-2.1,29.3
			c-0.2-0.1-0.4-0.1-0.7-0.1c-2.1,0-33.2-1.1-42.2-1.4c-4.4-7.1-9.2-14.7-14.1-22.5c-23.4-37.5-48.6-78.6-48.6-81.3
			c0-4.7,0.6-8.3,9.2-8.3h1c8.2,0.2,58.5,0,74,0c0.8,1.9,1.9,3.7,3.2,5.4C914.7-75.4,928-58.8,937.4-45.1z"/>
		<path class="st9" d="M928,26.9l-1-0.3c-0.1-0.1-0.2-0.1-0.3-0.1c-2.2,0-35.7-1.2-42.2-1.4h-0.4l-0.2-0.3
			c-4.4-7.1-9.2-14.7-14.1-22.5c-48.9-78.3-48.9-80.9-48.9-81.8c0-5,0.7-9.2,10.1-9.2h1c5.8,0.1,33.7,0.1,54,0c8.3,0,15.6,0,20,0
			h0.6l0.2,0.5c0.8,1.8,1.8,3.7,3.1,5.2c5.7,7.2,18.9,23.7,28.2,37.3l0.3,0.6l-0.4,0.5c-1.7,1.7-3.1,3.8-4.2,6
			c-0.2,0.4-1.2,4.3-3.5,35.1c-0.6,7.7-1.1,15.4-1.5,21.3c-0.2,3.2-0.4,6-0.6,8L928,26.9z M885,23.4c10.7,0.4,38.7,1.3,41.6,1.4
			c0.2-1.9,0.3-4.3,0.5-7.1c0.4-6,0.9-13.6,1.5-21.3c2.5-33.4,3.4-35.2,3.7-35.7c1.2-2.1,2.5-4.1,4.1-5.8
			c-9.2-13.5-22.2-29.7-27.7-36.7c-1.2-1.7-2.3-3.4-3.1-5.2c-4.5,0-11.5,0-19.5,0c-20.3,0-48.1,0.1-54,0h-1c-7.9,0-8.4,2.8-8.4,7.5
			c0.2,1.4,6.7,13.8,48.6,80.9C875.9,9,880.6,16.4,885,23.4z"/>
	</g>
	<g>
		<path class="st12" d="M964.3,35.3c-4.8-0.1-18.1,1.2-20.9,0c-1.4-0.7-2.8-1.5-4.2-2.4c0.2-2.7,0.3-6.5,0.6-10.9h22.7
			c0.1,1,0.4,1.9,0.9,2.7C964.1,26.1,964.3,31.4,964.3,35.3z"/>
		<path class="st9" d="M948.5,36.7c-2.6,0-4.5-0.2-5.5-0.6c-1.5-0.7-3-1.6-4.3-2.5l-0.3-0.2v-0.5c0.2-2.7,0.3-6.6,0.6-10.9l0.1-0.7
			h24.2l0.1,0.7c0.1,0.9,0.4,1.7,0.8,2.5c0.2,0.4,1.1,1.7,1.1,10.9v0.8h-0.8c-1.6,0-4.2,0.1-7,0.2C953.9,36.5,950.9,36.7,948.5,36.7
			z M940,32.5c1.2,0.7,2.4,1.5,3.7,2.1c1.7,0.7,8.5,0.3,13.5,0.2c2.3-0.1,4.6-0.2,6.2-0.2c-0.1-7.4-0.7-8.9-0.8-9.2
			c-0.4-0.7-0.7-1.6-0.9-2.4h-21.2C940.3,26.7,940.1,29.9,940,32.5z"/>
	</g>
	<g>
		<path class="st12" d="M941.3-4.1c-0.6,9-1.1,18.5-1.5,26.2c-0.2,4.3-0.4,8.2-0.6,10.9c-4.1-2.6-9.6-6.4-11.9-7.2
			c0.3-5.7,1.2-17.4,2.1-29.3L941.3-4.1z"/>
		<path class="st9" d="M939.9,34.4l-1.2-0.7c-0.9-0.6-1.9-1.2-2.9-1.9c-3.3-2.2-7.1-4.7-8.7-5.2l-0.6-0.2v-0.7
			c0.3-5.4,1.2-16.9,2.1-29.3l0.1-0.7l13.6-0.6L942.2-4c-0.5,7.3-0.9,15.9-1.5,26.2c-0.2,4.3-0.4,8.2-0.6,10.9L939.9,34.4z
			 M928.1,25.2c2,0.8,5.3,3,8.6,5.2c0.6,0.3,1.2,0.7,1.7,1.1c0.2-2.6,0.3-5.8,0.5-9.5c0.5-9.8,1-18.1,1.4-25.2L930-2.8
			C929.3,8.9,928.5,19.7,928.1,25.2z"/>
	</g>
	<g>
		<path class="st12" d="M965.2-15.3c-1.8,5.7-1.3,18-1.3,25.4c0,3.3-0.1,5.7-0.6,6.1c-1,1-1.2,3.6-0.9,5.7h-22.7
			c0.4-7.7,0.9-17.2,1.5-26.2c0.2-4.7,0.6-9.2,0.9-13.4c4.1,0,14.5,0.1,17.1-0.7c2-0.7,5-1.3,7-1.8C966-18.5,965.7-16.8,965.2-15.3z
			"/>
		<path class="st9" d="M963.3,22.8h-24.5l0.1-0.9c0.6-10.2,1.1-18.8,1.5-26.2c0.2-4.7,0.6-9.2,0.9-13.4l0.1-0.7h1.9
			c4.3,0,13.4,0,15.6-0.7c1.9-0.7,4.7-1.2,7.1-1.8l1.2-0.2l-0.1,1.2c-0.2,1.7-0.5,3.3-1,4.9l0,0c-1.4,4.5-1.3,13.4-1.3,20.6
			c0,1.7,0,3.2,0,4.6c0,4.9-0.2,6.2-0.8,6.7c-0.7,0.7-1,2.9-0.7,5.1L963.3,22.8z M940.6,21.2h20.8c-0.2-2.1,0.2-4.4,1.2-5.5
			c0.2-0.2,0.3-1.4,0.3-5.5c0-1.4,0-2.9,0-4.6c-0.1-7.3-0.2-16.4,1.4-21.2c0.3-1.2,0.6-2.2,0.8-3.5c-2.1,0.5-4.2,1-5.7,1.5
			c-2.3,0.7-9.5,0.7-16.2,0.8h-0.4c-0.2,3.9-0.6,8.2-0.8,12.7C941.6,3,941.1,11.4,940.6,21.2z"/>
	</g>
</g>
</svg>
