<?xml version="1.0" encoding="utf-8"?>
<!-- Generator: Adobe Illustrator 26.0.0, SVG Export Plug-In . SVG Version: 6.00 Build 0)  -->
<svg version="1.1" id="Layer_1" xmlns="http://www.w3.org/2000/svg" xmlns:xlink="http://www.w3.org/1999/xlink" x="0px" y="0px"
	 viewBox="0 0 1116 360" style="enable-background:new 0 0 1116 360;" xml:space="preserve">
<style type="text/css">
	.st0{fill:#ED2F38;}
	.st1{opacity:0.24;}
	.st2{opacity:0.19;fill:#FFFFFF;enable-background:new    ;}
	.st3{font-family:'Poppins-ExtraBold';}
	.st4{font-size:65.16px;}
	.st5{font-size:71.62px;}
	.st6{fill:#FFFFFF;}
	.st7{fill:#46506D;stroke:#1B1E2A;stroke-miterlimit:10;}
	.st8{fill:#1B1E2A;stroke:#1B1E2A;stroke-miterlimit:10;}
	.st9{fill:#1B1E2A;}
	.st10{font-family:'Poppins-Regular';}
	.st11{font-size:69.773px;}
	.st12{fill:#46506D;}
	.st13{fill:#1B1D29;}
</style>
<rect class="st0" width="1116" height="360"/>
<g>
	<g class="st1">
		<text transform="matrix(1 0 0 1 -142.7365 114.885)" class="st2 st3 st4">DUMAGUETE</text>
		<text transform="matrix(1 0 0 1 286.0935 114.885)" class="st2 st3 st4">DUMAGUETE</text>
	</g>
	<g class="st1">
		<text transform="matrix(1 0 0 1 -396.9865 175.7251)" class="st2 st3 st4">DUMAGUETE</text>
		<text transform="matrix(1 0 0 1 31.8435 175.7251)" class="st2 st3 st4">DUMAGUETE</text>
	</g>
	<g class="st1">
		<text transform="matrix(1 0 0 1 -103.3565 233.265)" class="st2 st3 st4">DUMAGUETE</text>
		<text transform="matrix(1 0 0 1 325.4735 233.265)" class="st2 st3 st4">DUMAGUETE</text>
	</g>
	<g class="st1">
		<text transform="matrix(1 0 0 1 -400.2065 294.2451)" class="st2 st3 st4">DUMAGUETE</text>
		<text transform="matrix(1 0 0 1 28.6235 294.2451)" class="st2 st3 st4">DUMAGUETE</text>
	</g>
	<g class="st1">
		<text transform="matrix(1 0 0 1 -210.7565 354.3751)" class="st2 st3 st4">DUMAGUETE</text>
		<text transform="matrix(1 0 0 1 218.0735 354.3751)" class="st2 st3 st4">DUMAGUETE</text>
	</g>
	<g class="st1">
		<text transform="matrix(1 0 0 1 -51.6165 58.1951)" class="st2 st3 st5">DUMAGUETE</text>
	</g>
	<g class="st1">
		<text transform="matrix(1 0 0 1 714.3794 114.885)" class="st2 st3 st4">DUMAGUETE</text>
	</g>
	<g class="st1">
		<text transform="matrix(1 0 0 1 460.1295 175.725)" class="st2 st3 st4">DUMAGUETE</text>
		<text transform="matrix(1 0 0 1 888.9595 175.725)" class="st2 st3 st4">DUMAGUETE</text>
	</g>
	<g class="st1">
		<text transform="matrix(1 0 0 1 753.7595 233.265)" class="st2 st3 st4">DUMAGUETE</text>
	</g>
	<g class="st1">
		<text transform="matrix(1 0 0 1 456.9094 294.245)" class="st2 st3 st4">DUMAGUETE</text>
		<text transform="matrix(1 0 0 1 885.7395 294.245)" class="st2 st3 st4">DUMAGUETE</text>
	</g>
	<g class="st1">
		<text transform="matrix(1 0 0 1 646.3594 354.375)" class="st2 st3 st4">DUMAGUETE</text>
		<text transform="matrix(1 0 0 1 1075.1895 354.375)" class="st2 st3 st4">DUMAGUETE</text>
	</g>
	<g class="st1">
		<text transform="matrix(1 0 0 1 413.89 58.1955)" class="st2 st3 st5">DUMAGUETE</text>
	</g>
	<g class="st1">
		<text transform="matrix(1 0 0 1 876.7581 58.6968)" class="st2 st3 st5">DUMAGUETE</text>
	</g>
</g>
<g>
	<text transform="matrix(1 0 0 1 184.1554 213.1137)" class="st9 st10 st11">DARO</text>
	<g>
		<g>
			<path class="st6" d="M171.9,154.9L171.9,154.9L171.9,154.9c0.1-0.4,0.2-0.8,0.4-1.1c0.7-1.2,1-2.6,0.7-4l-0.1-0.7
				c-0.1-0.3-0.1-0.6-0.2-1l0,0c-0.4-2.1-0.7-3.8-1.3-5.2c-0.9-2.5-1.7-5-2.3-7.5c-0.3-1.4-0.5-4.3-0.5-4.3
				c-0.1-0.8-0.7-1.4-1.5-1.3c-0.5,0-0.9,0.3-1.2,0.7c-0.7,1.1-1.7,2.3-2.1,2.5c-0.6,0.2-2.8,0.3-4,0.3c-1.6,0.1-2.2,0.1-2.6,0.3
				c-0.4,0.1-0.8,0.1-1.3,0c-0.8-0.2-5.9-0.6-7.7,0.1c-0.6,0.2-1,0.4-1.4,0.6l0,0l-0.4,0.2c-0.2,0.1-0.5,0.3-0.7,0.4
				c-2.5,0.3-5.1,0.5-7.7,0.6l0,0h-0.7c-4.3,0.1-6.9-0.4-7.2-0.6c-0.1,0-0.1-0.1-0.2-0.1c-0.9-0.4-3.3-1.5-6.2-1l0,0h-0.1l0,0h-0.2
				c-3.1,0.7-4.8,1.5-5.2,1.7c-0.6,0.2-5.1,1.7-7,2.3c-0.5-0.8-1.2-2.2-1.6-3.1c-1.4-2.8-1.7-3.2-2.1-3.5c-0.5-0.3-3.7-1.5-4.6-1.8
				c-4.6-1.6-4.8-1.5-5.4-1.1c-0.4,0.2-0.5,0.4-1.7,2.4c-1,1.7-3.7,6.2-4.6,6.8c-0.5,0.2-2.9,1.1-5.5,2.1c-3.3,1.3-7.5,2.9-10.9,4.2
				c-1.9,0.7-3.2,1.3-4.2,1.7c-0.6,0.2-1,0.4-1.3,0.5c-0.4,0.2-1.5,0.7-1.2,1.8c0.1,0.5,0.2,0.6,1.8,2.4c1.7,1.9,4.8,5.3,5.8,7.2
				c0.5,0.9,1.5,3.2,2.8,6.4l0,0c1,2.5,2.2,5.5,3.2,8.2l0,0c0.9,2.3,1.5,4.2,1.9,5.3c0.7,2.1,3.1,9.8,7,22.2l0,0l1.7,5.5l2,7.1l0,0
				l8.4,29.4c0.2,0.6,0.7,1,1.4,1c0.1,0,0.1,0,0.2,0l17.5-2.1h0.1h0.1l0,0l12.7-2.2l0,0h0.2h0.1l14.6-3.7c0.5-0.1,0.9-0.5,1-1
				c0.5-2,1.9-5.6,3.2-6.6c0.1-0.1,0.2-0.2,0.3-0.2c0,0,0.1-0.1,0.2-0.3l0,0c4-4.8,4-5.8,4-6.3v-0.3c0.1-4.9,0.8-6.5,1.1-7l0.1-0.2
				l0,0c1-1.4,1.7-3,2-4.7c0.4-1.9,0.6-3.2,0.7-3.7l0,0l0,0l0.1-0.4v-0.1c0.3-2.8,1.1-5.5,2.2-8.1c0.8-1.6,1.7-3.1,2.9-4.5
				c0.7-0.9,1.4-1.7,1.7-2.7c0.1-0.4,0.3-0.9,0.5-1.3c0.1-0.3,0.2-0.5,0.3-0.8l0,0c0.4-1,0.7-2.1,0.7-3.2c0-0.9,0-2.2-0.2-3.9l0,0
				c-0.2-1.7-0.4-3.3-0.7-5c-0.4-2.2-0.9-4.3-1.7-6.3l0,0l0,0c-0.1-0.3-0.2-0.5-0.3-0.8c-0.1-0.2-0.2-0.4-0.2-0.7
				c0,0,0.1-0.1,0.5-0.4c1.4-0.8,3.2-2.4,4.1-4.4l0,0c0.2-0.5,0.3-0.9,0.4-1.4c0.2-1.2,0.1-2.4-0.3-3.5
				C171.9,155.8,171.8,155.4,171.9,154.9z"/>
		</g>
		<g>
			<path class="st12" d="M121.8,172.7c-1,0.1-2.7,0.2-3.2,0.2c-0.9,0-2.1-1.7-3.2-1.7s-1.9,1.3-2.5,2c-0.5,0.5-1.2,1-3.2,1.3
				c-0.4,0.1-0.9,0.1-1.5,0.1c-3.2,0.2-4.3-1.3-6.2-1.6c-1.8-0.4-1.9,0.3-3.2,0.6c-1.2,0.3-2.1-1.4-5.4-3.1c-3.3-1.6-3-0.5-4.4-0.2
				c-1.5,0.4-3.8-1.8-4.1-1.7c-0.2,0.1-1.2,1.7-2,3c-1-2.6-2.1-5.6-3.2-8.2c2-0.3,6.4-0.9,14.2-2.2c9.9-1.6,18.3-3.1,20.1-3.4
				C115.5,161.4,119,169.5,121.8,172.7z"/>
			<path class="st9" d="M107.6,174.7c-1.8,0-2.9-0.5-3.8-1c-0.6-0.3-1.1-0.5-1.8-0.7c-1.2-0.2-1.6,0-2.1,0.2c-0.3,0.1-0.6,0.3-1,0.4
				c-0.7,0.2-1.3-0.3-2.3-1c-0.7-0.6-1.8-1.3-3.3-2.1c-2.4-1.2-2.8-0.9-3.4-0.6c-0.2,0.1-0.5,0.3-0.9,0.4c-1.1,0.3-2.5-0.7-3.4-1.3
				c-0.3-0.2-0.6-0.4-0.7-0.4c-0.1,0.1-0.5,0.6-1.9,2.9l-0.2,0.3l-0.1-0.3c-1-2.7-2.2-5.7-3.2-8.2l-0.1-0.2h0.2
				c2-0.3,6.4-0.9,14.2-2.2c10.4-1.7,19.1-3.2,20.1-3.4h0.1l0.1,0.1c1.4,3.4,5.1,11.8,7.8,15.1l0.2,0.3h-0.3
				c-1.1,0.1-2.7,0.2-3.2,0.2s-1-0.4-1.5-0.8c-0.6-0.5-1.2-0.9-1.7-0.9c-0.8,0-1.5,0.9-2,1.5c-0.1,0.1-0.2,0.3-0.3,0.4
				c-0.5,0.6-1.3,1.1-3.3,1.3c-0.4,0.1-0.9,0.1-1.5,0.1C108,174.7,107.8,174.7,107.6,174.7z M101,172.6c0.3,0,0.6,0,1,0.1
				c0.7,0.1,1.2,0.4,1.8,0.7c1,0.5,2.2,1.1,4.3,0.9c0.6,0,1.1-0.1,1.5-0.1c2.1-0.3,2.7-0.8,3.1-1.2c0.1-0.1,0.2-0.2,0.3-0.4
				c0.6-0.7,1.3-1.6,2.3-1.6c0.6,0,1.3,0.5,1.9,1c0.5,0.4,1,0.8,1.3,0.8c0.5,0,2.1-0.1,2.9-0.1c-2.7-3.4-6.2-11.3-7.6-14.8
				c-1.5,0.3-9.9,1.7-20,3.4c-7.6,1.2-12,1.9-14,2.2c1,2.4,2.1,5.2,3,7.7c1.6-2.7,1.8-2.7,1.9-2.8c0.2,0,0.4,0.1,1,0.5
				c0.8,0.6,2.2,1.5,3.1,1.3c0.4-0.1,0.6-0.2,0.8-0.4c0.8-0.4,1.3-0.6,3.7,0.6c1.6,0.8,2.6,1.5,3.4,2.1c0.9,0.7,1.4,1.1,2,0.9
				c0.4-0.1,0.7-0.2,0.9-0.3C100.1,172.7,100.4,172.6,101,172.6z"/>
		</g>
		<g>
			<path class="st12" d="M130.6,147.7l-16.3,9.9l-0.3,0.1c-1.8,0.3-10.2,1.8-20.1,3.4c-7.8,1.3-12.3,1.9-14.2,2.2
				c-1.2-2.9-2.3-5.5-2.9-6.6c-1.6-2.9-7.4-8.8-7.5-9.1s20.7-8.1,22.3-8.8s6.1-9.1,6.5-9.3c0.3-0.2,8.1,2.6,8.6,2.9
				c0.5,0.3,3.5,7.1,4,7.1s7.8-2.4,8.2-2.6c0.4-0.2,1.9-0.9,4.9-1.6c0.1,0,0.1,0,0.2,0L130.6,147.7z"/>
			<path class="st9" d="M79.5,163.4v-0.1c-0.9-2.3-2.2-5.3-2.9-6.5c-1.1-1.9-4.1-5.3-6-7.4c-1.3-1.5-1.5-1.7-1.5-1.8
				c0-0.2-0.1-0.3,16.8-6.8c2.9-1.1,5.1-2,5.6-2.2c1.1-0.5,3.7-4.9,5.2-7.3c0.9-1.5,1.1-1.9,1.3-2c0.5-0.3,8.7,2.9,8.7,2.9
				c0.2,0.1,0.7,1,1.7,3c0.8,1.6,2,3.9,2.3,4.1c0.5,0,7.7-2.4,8.1-2.6c0.2-0.1,1.8-0.9,4.9-1.6c0.1,0,0.2,0,0.2,0h0.1l6.8,12.6
				l-16.5,10l-0.3,0.1c-0.4,0.1-9.3,1.6-20.1,3.4c-7.8,1.3-12.3,1.9-14.2,2.2L79.5,163.4z M69.5,147.6c0.2,0.2,0.8,0.9,1.4,1.6
				c1.8,2,4.9,5.5,6,7.4c0.7,1.2,1.9,4.2,2.8,6.5c2-0.3,6.4-0.9,14.1-2.2c10.8-1.8,19.7-3.3,20.1-3.4l0.3-0.1l16.1-9.8l-6.5-12.1
				h-0.1c-3.1,0.7-4.7,1.5-4.9,1.5c-0.3,0.2-7.7,2.6-8.3,2.6c-0.4,0-0.9-1-2.5-4.2c-0.7-1.3-1.4-2.7-1.6-2.9
				c-0.5-0.3-7.7-2.9-8.4-2.9c-0.1,0.1-0.6,1-1.1,1.8c-2.1,3.5-4.2,7-5.3,7.4c-0.5,0.2-2.7,1.1-5.6,2.2
				C80.2,143.3,70.6,147,69.5,147.6z"/>
		</g>
		<g>
			<path class="st12" d="M116.6,191.2L91.7,199c-2.2-7.2-6-19.3-7-22.2c-0.4-1.2-1.1-3.2-2-5.4c0.8-1.3,1.8-2.9,2-3
				c0.3-0.1,2.6,2.1,4.1,1.7s1.1-1.4,4.4,0.2c3.3,1.6,4.2,3.3,5.4,3.1c1.2-0.3,1.3-0.9,3.2-0.6c1.8,0.4,2.9,1.8,6.2,1.6
				c0.6,0,1.1-0.1,1.5-0.1c0,0.1,0,0.1,0,0.2c0,0.9,4.3,9.5,6,13.1C116.2,188.8,116.5,190,116.6,191.2z"/>
			<path class="st9" d="M91.6,199.2V199c-1.4-4.4-5.9-19-7-22.2c-0.4-1.2-1.1-3.2-2-5.4v-0.1v-0.1c1.8-3,2-3,2.1-3.1
				c0.2,0,0.4,0.1,1,0.5c0.8,0.5,2.2,1.5,3.1,1.2c0.4-0.1,0.6-0.2,0.8-0.4c0.8-0.4,1.3-0.6,3.7,0.6c1.6,0.8,2.6,1.5,3.4,2.1
				c0.9,0.7,1.4,1.1,2,0.9c0.4-0.1,0.7-0.2,0.9-0.3c0.6-0.3,1-0.5,2.3-0.2c0.7,0.1,1.2,0.4,1.8,0.7c1,0.5,2.2,1.1,4.3,0.9
				c0.6,0,1.1-0.1,1.5-0.1h0.1v0.1c0,0.1,0,0.2,0,0.2c0,0.7,2.8,6.5,4.7,10.4c0.5,1,0.9,1.9,1.3,2.6c0.5,1.2,0.8,2.4,1,3.6v0.1h-0.1
				L91.6,199.2z M83,171.4c0.8,2.2,1.5,4.1,1.9,5.3c1.1,3.2,5.5,17.5,6.9,22.1l24.6-7.7c-0.2-1.2-0.5-2.3-0.9-3.4
				c-0.3-0.7-0.8-1.6-1.3-2.6c-2.6-5.3-4.8-9.8-4.8-10.5l0,0c-0.4,0-0.8,0.1-1.3,0.1c-2.1,0.1-3.4-0.5-4.4-1
				c-0.6-0.3-1.1-0.5-1.8-0.7c-1.2-0.2-1.6,0-2.1,0.2c-0.3,0.1-0.6,0.3-1,0.4c-0.7,0.2-1.3-0.3-2.3-1c-0.7-0.6-1.8-1.3-3.3-2.1
				c-2.4-1.2-2.8-0.9-3.4-0.6c-0.2,0.1-0.5,0.3-0.9,0.4c-1.1,0.3-2.5-0.7-3.4-1.3c-0.3-0.2-0.6-0.4-0.7-0.4
				C84.8,168.7,84.4,169.2,83,171.4z"/>
		</g>
		<g>
			<path class="st12" d="M118,206.8c-8.8,1.7-18.2,3.8-22.5,4.8l-2-7.1c0,0-0.7-2.3-1.7-5.5l24.9-7.8c0.9,5,1.1,12.6,1.2,14.4
				C117.9,205.8,117.9,206.3,118,206.8z"/>
			<path class="st9" d="M95.4,211.8l-2.1-7.2l0,0c0,0-0.7-2.3-1.7-5.5v-0.2l25.2-7.9v0.2c0.6,3.6,0.9,8.5,1.1,11.7
				c0.1,1.2,0.1,2.2,0.2,2.7c0,0.2,0.1,0.6,0.1,1.2v0.2H118C108.9,208.8,99.2,211,95.4,211.8L95.4,211.8z M91.9,199.1
				c1,3.2,1.7,5.4,1.7,5.4l2,6.9c3.8-0.9,13.2-3,22.2-4.8c-0.1-0.5-0.1-0.8-0.1-1c-0.1-0.5-0.1-1.5-0.2-2.7c-0.2-3.2-0.4-7.9-1-11.5
				L91.9,199.1z"/>
		</g>
		<g>
			<path class="st12" d="M121.5,238.9L121.5,238.9l-17.6,2.1l-8.4-29.4c4.3-1,13.7-3.1,22.5-4.8c0.5,4.9,2.3,21.2,2.5,25.2
				C120.6,234.3,121,236.6,121.5,238.9z"/>
			<path class="st9" d="M103.8,241.2l-8.5-29.7h0.2c2.9-0.7,12.9-3,22.5-4.8h0.2l0.2,1.8c0.6,6,2.2,20,2.3,23.6
				c0.1,2.3,0.5,4.6,1.1,6.9v0.2l-0.3,0.1L103.8,241.2z M95.7,211.7l8.4,29.1l17.3-2.1c-0.6-2.2-0.9-4.5-1-6.7
				c-0.1-3.6-1.7-17.6-2.3-23.5l-0.2-1.4C108.5,208.8,98.7,211,95.7,211.7z"/>
		</g>
		<g>
			<path class="st12" d="M133.4,219c-0.2,0.6,0.6,13.3,0.9,17.6l-12.7,2.2c-0.6-2.3-0.9-4.6-1.1-6.9c-0.2-4-1.9-20.2-2.5-25.2
				c4.4-0.8,8.6-1.6,12.1-2s6.1-0.8,8-1c-0.5,2.3-1.1,4.5-1.8,6.7C135,214.5,133.5,218.6,133.4,219z"/>
			<path class="st9" d="M121.4,239v-0.1c-0.6-2.3-0.9-4.6-1.1-6.9c-0.1-3.6-1.7-17.6-2.3-23.5l-0.2-1.8h0.2c4.9-0.9,9-1.6,12.1-2
				c3.3-0.4,6-0.8,8-1h0.2v0.2c-0.5,2.3-1.1,4.5-1.8,6.7c-0.9,2.8-1.8,5.6-2.4,7.3c-0.2,0.7-0.4,1.2-0.4,1.3
				c-0.1,0.5,0.4,9.4,0.9,17.5v0.1L121.4,239z M118.2,206.9l0.2,1.5c0.6,6,2.2,19.9,2.3,23.5c0.1,2.3,0.5,4.5,1,6.7l12.4-2.2
				c-0.3-5.2-1-16.9-0.8-17.5l0,0c0-0.1,0.2-0.6,0.4-1.3c0.6-1.7,1.5-4.4,2.4-7.3c0.7-2.1,1.3-4.3,1.7-6.4c-2,0.3-4.6,0.6-7.8,1
				C127,205.3,123,206,118.2,206.9z"/>
		</g>
		<g>
			<path class="st12" d="M153.1,225.3l-0.2,0.3c-2.3,1.6-3.8,7.4-3.8,7.4l-14.6,3.7h-0.2c-0.3-4.3-1-17-0.9-17.6
				c0.1-0.4,1.6-4.5,2.9-8.6c1,2.5,3.1,7,3.7,7.6C140.7,218.7,149.6,223.4,153.1,225.3z"/>
			<path class="st9" d="M134.1,236.8v-0.2c-0.1-1.7-1-16.9-0.8-17.7c0-0.1,0.2-0.7,0.5-1.4c0.6-1.6,1.5-4.4,2.4-7.2l0.1-0.4l0.2,0.4
				c1.4,3.4,3.1,7.1,3.7,7.6c0.8,0.7,10.2,5.7,13.1,7.2l0.2,0.1l-0.4,0.5c-2.2,1.6-3.7,7.2-3.7,7.3v0.1L134.1,236.8z M136.3,210.9
				c-0.8,2.6-1.7,5.2-2.2,6.8c-0.3,0.7-0.4,1.3-0.5,1.4c-0.1,0.5,0.4,10.6,0.8,17.4l14.5-3.7c0.2-0.8,1.7-5.8,3.8-7.4l0.1-0.1
				c-3.8-2-12.2-6.4-13-7.1C139.1,217.5,137,212.6,136.3,210.9z"/>
		</g>
		<g>
			<path class="st12" d="M158.4,211.6c-0.1,0.1-0.1,0.1-0.1,0.1c-1.4,1.8-1.4,7-1.5,8.1c0,0.9-2.9,4.4-3.7,5.4
				c-3.5-1.9-12.4-6.5-13.1-7.2c-0.7-0.6-2.7-5.2-3.7-7.6c0.7-2.2,1.3-4.4,1.8-6.7l0,0c2.4,0.3,6.9,2.8,8.4,3.4
				C147.6,207.6,154.7,210.2,158.4,211.6z"/>
			<path class="st9" d="M153.2,225.5l-0.1-0.1c-3.7-1.9-12.4-6.5-13.1-7.2c-0.7-0.7-2.9-5.6-3.8-7.7v-0.1v-0.1
				c0.7-2.2,1.3-4.4,1.8-6.7v-0.2h0.2c1.7,0.2,4.5,1.6,6.6,2.6c0.8,0.4,1.4,0.7,1.9,0.9c1.1,0.4,7.9,2.9,11.5,4.3l0.6,0.2l-0.1,0.2
				c-0.1,0.1-0.1,0.1-0.1,0.1c-1.2,1.7-1.4,6.2-1.4,7.7v0.3c0,0.9-2.3,3.8-3.7,5.5L153.2,225.5z M136.5,210.4
				c1.8,4.3,3.2,7.1,3.7,7.5c0.7,0.7,9.9,5.5,13,7.1c2.2-2.6,3.5-4.6,3.6-5.2v-0.3c0-1.5,0.2-6.1,1.5-7.9l-0.2-0.1
				c-3.9-1.5-10.4-3.9-11.5-4.3c-0.4-0.2-1.1-0.5-1.9-0.9c-1.9-1-4.6-2.2-6.3-2.5C137.7,206.1,137.1,208.3,136.5,210.4z"/>
		</g>
		<g>
			<path class="st12" d="M160.8,203.8c-0.1,0.6-0.3,1.9-0.7,3.7c-0.3,1.5-0.9,2.9-1.7,4.1c-3.7-1.4-10.8-4-11.9-4.4
				c-1.5-0.6-6-3.1-8.4-3.4c5-0.7,5.3-0.9,6-1.1c0.3-0.1,1.3-1.5,2.6-3.4c1.2,0.6,3.5,1.7,4.6,2
				C152.5,201.7,158.6,203.3,160.8,203.8z"/>
			<path class="st9" d="M158.4,211.8h-0.1c-3.7-1.4-10.8-4-11.9-4.4c-0.4-0.2-1.1-0.5-1.9-0.9c-2-1-4.7-2.3-6.4-2.5l-1.3-0.2
				l1.3-0.2c4.6-0.6,5.2-0.8,5.8-1h0.2c0.2-0.1,0.7-0.7,2.5-3.3l0.1-0.1l0.1,0.1c1,0.5,3.4,1.7,4.6,2c0.9,0.3,4.2,1.1,9.5,2.5h0.1
				v0.2c-0.1,0.7-0.4,2.2-0.7,3.7s-0.9,2.9-1.8,4.2L158.4,211.8z M139.1,203.8c1.7,0.5,3.9,1.5,5.6,2.3c0.8,0.4,1.5,0.7,1.9,0.9
				c1.1,0.4,8,3,11.8,4.4c0.8-1.2,1.4-2.5,1.6-3.9c0.3-1.4,0.5-2.8,0.6-3.5c-5.3-1.4-8.5-2.2-9.4-2.5c-1.1-0.4-3.4-1.5-4.5-2
				c-1.8,2.8-2.3,3.3-2.6,3.3H144C143.4,203.1,142.9,203.2,139.1,203.8z"/>
		</g>
		<g>
			<path class="st12" d="M168.5,185.8c-0.3,0.7-0.5,1.4-0.8,2.1c-0.6,1.7-2.6,3-4.5,7c-1.2,2.7-2,5.6-2.4,8.5c0,0,0,0.1-0.1,0.4
				c-2.2-0.6-8.2-2.1-9.5-2.5c-1.1-0.4-3.4-1.5-4.6-2c2.5-3.9,5.9-9.6,5.9-9.6s-2.2-3.4-5-8c1.8,0.1,8.1,0.3,8.5,0.3h0.1
				c0.5,0.1,1.6,0.9,2.4,1.4c0.3,0.2,0.6,0.3,0.9,0.5c0.6,0.2,3.3,0,4.2,0c0.1,0,0.1,0,0.2,0C164.3,184,166.9,185.1,168.5,185.8z"/>
			<path class="st9" d="M160.9,204h-0.2c-5.3-1.4-8.6-2.3-9.5-2.5c-1.2-0.4-3.6-1.6-4.6-2.1l-0.2-0.1l0.1-0.2
				c2.3-3.6,5.4-8.8,5.8-9.5c-0.4-0.6-2.4-3.8-5-7.9l-0.2-0.3h0.3c3,0.1,8.1,0.3,8.5,0.3c0.1,0,0.1,0,0.2,0c0.4,0.1,1.1,0.6,1.8,1.1
				c0.2,0.1,0.4,0.3,0.6,0.4c0.3,0.2,0.5,0.3,0.8,0.5c0.3,0.1,1.6,0.1,2.6,0c0.6,0,1.2-0.1,1.5,0c0.1,0,0.1,0,0.2,0
				c0.4,0,1.9,0.6,4.7,1.8l0.1,0.1l-0.1,0.1c-0.1,0.3-0.2,0.5-0.3,0.8c-0.2,0.4-0.3,0.9-0.5,1.4c-0.3,0.8-0.8,1.4-1.5,2.3
				c-0.9,1.1-2,2.5-3,4.8c-1.2,2.7-2,5.6-2.3,8.5c0,0,0,0.1-0.1,0.4L160.9,204z M146.9,199.2c1.1,0.5,3.3,1.6,4.4,2
				c0.9,0.3,4.1,1.1,9.3,2.5c0-0.1,0-0.2,0-0.2c0.4-3,1.2-5.8,2.4-8.6c1.1-2.3,2.2-3.7,3.1-4.8c0.7-0.8,1.2-1.5,1.4-2.2
				c0.2-0.5,0.3-0.9,0.5-1.4c0.1-0.2,0.2-0.4,0.2-0.6c-3.3-1.4-4.2-1.7-4.4-1.8c-0.1,0-0.1,0-0.2,0c-0.4,0-0.9,0-1.5,0
				c-1.4,0.1-2.4,0.1-2.8-0.1c-0.3-0.1-0.6-0.3-0.9-0.5c-0.2-0.1-0.4-0.2-0.6-0.4c-0.7-0.4-1.4-0.9-1.8-1h-0.1
				c-0.4,0-6.7-0.2-8.2-0.3c2.8,4.4,4.9,7.7,4.9,7.7l0.1,0.1l-0.1,0.1C152.7,189.8,149.4,195.4,146.9,199.2z"/>
		</g>
		<g>
			<path class="st12" d="M160.5,146.6c-2.4-0.2-3,2.2-11.1,4h-0.2c-6,1.3-12,2.9-15,3.7l-3.6-6.6l-6.7-12.3c2.8-0.5,5.3,0.8,5.7,1
				c0.5,0.2,3.2,0.7,7.7,0.6h0.7c1.4,2.3,4.6,7.4,4.7,7.4c0.1,0,7.8-2.2,11.3-3.2L160.5,146.6z"/>
			<path class="st9" d="M134.1,154.5l-10.4-19.3h0.2c2.5-0.5,4.6,0.5,5.5,0.9c0.1,0.1,0.2,0.1,0.3,0.1c0.5,0.2,3.1,0.7,7.7,0.6h0.8
				v0.1c2,3.3,4.2,6.9,4.6,7.3c0.5-0.1,4.6-1.3,7.9-2.2c1.3-0.4,2.4-0.7,3.4-0.9h0.1l6.9,5.7h-0.5c-1-0.1-1.6,0.3-2.7,0.9
				c-1.5,0.8-3.7,2-8.4,3.1h-0.2c-5.5,1.2-11.2,2.7-15,3.7L134.1,154.5z M124.2,135.5l10.1,18.6c3.8-1,9.4-2.5,14.9-3.7h0.2
				c4.6-1,6.8-2.2,8.3-3c0.9-0.5,1.6-0.9,2.4-0.9l-6-5c-0.9,0.3-2.1,0.6-3.3,0.9c-6.3,1.8-7.9,2.2-8,2.2s-0.3,0-4.8-7.4h-0.6
				c-4.6,0.1-7.3-0.5-7.8-0.6c-0.1,0-0.2-0.1-0.3-0.1C128.4,136,126.5,135.1,124.2,135.5z"/>
		</g>
		<g>
			<path class="st12" d="M154.1,141.2c-3.5,1-11.2,3.1-11.3,3.2s-3.3-5.1-4.7-7.4c2.7,0,5.3-0.3,7.9-0.6c0.5-0.2,1-0.4,1.4-0.6
				L154.1,141.2z"/>
			<path class="st9" d="M142.8,144.6c-0.2,0-0.5-0.5-4.9-7.5l-0.2-0.2h0.3c2.6,0,5.3-0.3,7.9-0.6c0.5-0.2,0.9-0.4,1.4-0.6l0.1-0.1
				l7,5.8l-0.3,0.1C150.5,142.4,142.9,144.5,142.8,144.6L142.8,144.6z M138.3,137.1c3.3,5.4,4.2,6.8,4.5,7.1
				c0.8-0.2,7.5-2.1,10.9-3.1l-6.3-5.3c-0.4,0.2-0.9,0.4-1.4,0.6C143.5,136.9,140.9,137.1,138.3,137.1z"/>
		</g>
		<g>
			<path class="st12" d="M171.3,148.4c-2.3-0.4-8.4-1.6-10.6-1.8h-0.2l0,0l-6.4-5.3l-6.7-5.6c0.4-0.2,0.8-0.4,1.3-0.6
				c1.3-0.5,6.1-0.3,6.8-0.1c0.6,0.2,2.2,0,2.4-0.2s5-0.1,6.4-0.6s2.9-3.1,2.9-3.1s0.2,3,0.6,4.5c0.6,2.6,1.4,5.2,2.3,7.8
				C170.6,145.1,171,146.7,171.3,148.4z"/>
			<path class="st9" d="M171.5,148.6h-0.2c-2.5-0.5-8.4-1.6-10.6-1.8h-0.3l0,0l-13.3-11.1l0.2-0.1c0.4-0.2,0.8-0.4,1.3-0.6
				c1.4-0.6,6.2-0.3,6.9-0.1c0.6,0.2,2,0,2.2-0.1c0.1-0.1,0.3-0.1,2-0.2c1.5-0.1,3.7-0.1,4.5-0.4c1.3-0.4,2.8-3,2.8-3l0.3-0.5v0.5
				c0,0,0.2,3,0.6,4.5c0.6,2.6,1.4,5.2,2.3,7.7c0.6,1.6,1,3.3,1.2,4.9L171.5,148.6z M160.6,146.4h0.2c2.1,0.2,7.8,1.3,10.4,1.8
				c-0.3-1.6-0.7-3.1-1.2-4.6c-0.9-2.5-1.7-5.2-2.3-7.8c-0.2-1.2-0.4-3.1-0.5-4c-0.5,0.8-1.7,2.4-2.7,2.7c-0.8,0.3-3,0.4-4.6,0.4
				c-0.8,0-1.6,0.1-1.8,0.1c-0.3,0.2-1.9,0.4-2.5,0.2c-0.7-0.2-5.4-0.4-6.7,0.1c-0.4,0.2-0.8,0.3-1.1,0.5L160.6,146.4z"/>
		</g>
		<g>
			<path class="st12" d="M171,159.9c-0.1,0.4-0.2,0.7-0.3,1.1c-1.2,0-3.6,0.4-6.9,2.4c-0.2,0.1-0.5,0.3-0.7,0.4l-0.5-10
				c2.2,0.2,5.9,0.6,7.9,0.8C170.2,156.4,171.4,157.6,171,159.9z"/>
			<path class="st9" d="M163,164.1l-0.5-10.5h0.2c2.2,0.2,5.9,0.6,7.9,0.8h0.2v0.2c-0.1,0.8,0,1.4,0.2,2.2s0.5,1.8,0.3,3l0,0
				c-0.1,0.4-0.2,0.8-0.3,1.1v0.1h-0.1c-1.1,0-3.5,0.4-6.8,2.4l-0.1,0.1c-0.2,0.1-0.4,0.2-0.5,0.3L163,164.1z M162.8,154l0.5,9.5
				c0.1-0.1,0.2-0.1,0.3-0.2l0.1-0.1c3.3-2,5.7-2.4,6.9-2.5c0.1-0.3,0.2-0.6,0.3-1c0.2-1.2,0-2-0.3-2.9c-0.2-0.7-0.4-1.4-0.3-2.1
				C168.4,154.6,165,154.3,162.8,154z"/>
		</g>
		<g>
			<path class="st12" d="M170.7,161c-0.7,1.7-2.3,3.1-3.4,3.7c-1.4,0.8-1.5,1.5-1,2.8c0.1,0.3,0.2,0.5,0.3,0.8
				c-0.6,0.4-1.8,1.2-2.5,1.7c-0.2,0.1-0.4,0.2-0.6,0.3c-0.7,0.3-1.5,0.6-1.4,0.2c0.1-0.5,0.4-1.8,0-1.6c-0.3,0.1-1.6,0.7-2.3,1.1
				l-0.1-0.2l0,0c-0.4-0.6-0.8-1.3-1.3-2.1c0.8-0.9,2.3-2.2,4.9-3.9c0.2-0.1,0.4-0.3,0.7-0.4C167.1,161.4,169.5,161,170.7,161z"/>
			<path class="st9" d="M162.2,170.9c-0.1,0-0.2,0-0.3-0.1s-0.1-0.2-0.1-0.3s0-0.2,0.1-0.3c0.1-0.3,0.2-0.9,0.1-1.1
				c-0.3,0.1-1,0.5-1.7,0.8l-0.8,0.4l-0.2-0.4c-0.3-0.6-0.8-1.3-1.3-2.1l-0.1-0.1l0.1-0.1c1.1-1.2,2.7-2.5,4.9-3.9
				c0.1-0.1,0.3-0.2,0.4-0.2l0.3-0.2c3.4-2.1,5.8-2.4,7-2.5h0.3l-0.1,0.2c-0.7,1.8-2.3,3.2-3.5,3.8c-1.4,0.8-1.4,1.5-0.9,2.6
				c0.1,0.2,0.2,0.5,0.3,0.8l0.1,0.1l-0.1,0.1c-0.6,0.4-1.8,1.2-2.6,1.7c-0.2,0.1-0.4,0.2-0.6,0.3h-0.1
				C162.9,170.7,162.5,170.9,162.2,170.9z M162.1,168.7c0.1,0,0.1,0,0.2,0.1c0.2,0.2,0.1,0.7,0,1.4c0,0.1,0,0.2-0.1,0.3l0,0
				c0.1,0.1,0.8-0.2,1.1-0.4h0.1c0.2-0.1,0.4-0.2,0.5-0.3c0.7-0.4,1.8-1.2,2.4-1.6c-0.1-0.3-0.2-0.5-0.3-0.7
				c-0.5-1.3-0.5-2.2,1.1-3.1c1.1-0.6,2.5-1.8,3.3-3.4c-1.2,0.1-3.5,0.5-6.5,2.4l-0.3,0.2c-0.1,0.1-0.3,0.2-0.4,0.2
				c-2.1,1.3-3.7,2.6-4.8,3.7c0.5,0.7,0.9,1.4,1.3,2l0.1,0.1l0.5-0.2c0.7-0.3,1.5-0.7,1.7-0.8C162,168.7,162.1,168.7,162.1,168.7z"
				/>
		</g>
		<g>
			<path class="st12" d="M169,179.2c-0.7-0.1-1.3-0.2-1.9-0.4c-0.4-0.1-2.5,0-3.5,0c0-1.5-0.1-4,0.3-5.1c0.1-0.3,0.2-0.6,0.2-1
				c0.1-0.9,0.1-1.8,0-2.7c0.8-0.5,2-1.3,2.5-1.7c0.8,2,1.4,4,1.7,6.1C168.6,176,168.8,177.6,169,179.2z"/>
			<path class="st9" d="M169.1,179.4h-0.2c-0.7-0.1-1.3-0.2-2-0.4c-0.3-0.1-2.2,0-3.4,0h-0.2v-0.2c0-0.3,0-0.5,0-0.8
				c0-1.5,0-3.4,0.3-4.4c0.1-0.3,0.2-0.6,0.2-0.9c0.1-0.9,0.1-1.8,0-2.7v-0.1l0.1-0.1c0.8-0.5,2-1.3,2.5-1.7l0.2-0.1l0.1,0.2
				c0.8,2,1.4,4,1.7,6.1c0.3,1.6,0.5,3.2,0.7,4.8L169.1,179.4z M165.9,178.6c0.6,0,1,0,1.2,0c0.6,0.2,1.2,0.3,1.7,0.4
				c-0.1-1.5-0.4-3.1-0.7-4.6c-0.3-2-0.9-4-1.6-5.8c-0.6,0.4-1.6,1.1-2.3,1.5c0.1,0.9,0.1,1.8,0,2.6c0,0.3-0.1,0.7-0.2,1
				c-0.3,0.9-0.3,2.8-0.3,4.3c0,0.2,0,0.4,0,0.7C164.3,178.7,165.2,178.6,165.9,178.6z"/>
		</g>
		<g>
			<path class="st12" d="M169.1,183c-0.1,0.9-0.3,1.9-0.6,2.7c-1.6-0.7-4.2-1.8-4.6-1.8c-0.1,0-0.1,0-0.2,0c0-0.8,0-1.8-0.2-2.1
				c-0.1-0.2-0.2-0.4-0.2-0.6c-0.1-0.4,0-1,0.2-1.2c0.1-0.1,0.1-0.6,0.1-1.2c1,0,3.1-0.1,3.5,0c0.6,0.2,1.3,0.3,1.9,0.4
				C169.1,180.9,169.1,182.2,169.1,183z"/>
			<path class="st9" d="M168.6,186l-0.6-0.3c-1.5-0.6-3.7-1.6-4.1-1.6c-0.1,0-0.1,0-0.2,0h-0.2v-0.2c0-1.6-0.1-2-0.2-2
				c-0.1-0.2-0.2-0.4-0.2-0.6c-0.1-0.5,0-1,0.2-1.3c0-0.1,0.1-0.4,0.1-1.1v-0.2h0.2c0.7,0,3.1-0.1,3.5,0c0.6,0.2,1.3,0.3,1.9,0.4
				h0.1v0.1c0.1,1.3,0.2,2.6,0.2,3.8l0,0c-0.1,1-0.3,1.9-0.6,2.8L168.6,186z M163.8,183.7C163.8,183.7,163.9,183.7,163.8,183.7
				c0.5,0.1,2.2,0.8,4.3,1.6l0.3,0.1c0.3-0.8,0.5-1.6,0.6-2.5c0-1.2-0.1-2.4-0.2-3.6c-0.6-0.1-1.2-0.2-1.8-0.4c-0.3,0-1.8,0-3.2,0
				c0,0.8,0,1.1-0.2,1.2c-0.1,0.1-0.2,0.6-0.1,1c0,0.2,0.1,0.4,0.2,0.5C163.7,181.8,163.8,182.1,163.8,183.7z"/>
		</g>
		<g>
			<path class="st12" d="M138.2,202.8c0,0.3-0.1,0.6-0.1,0.9l0,0c-1.9,0.3-4.5,0.6-8,1c-3.4,0.4-7.7,1.2-12.1,2
				c-0.1-0.5-0.1-1-0.1-1.2c-0.2-1.8-0.4-9.4-1.2-14.4l21.5-6.7C138.3,191.4,138.4,200.5,138.2,202.8z"/>
			<path class="st9" d="M117.9,207v-0.2c-0.1-0.5-0.1-1-0.1-1.2c-0.1-0.5-0.1-1.5-0.2-2.7c-0.2-3.2-0.4-8.1-1.1-11.7v-0.1l21.8-6.8
				v0.2c0.1,6.8,0.3,16.1,0.1,18.4c0,0.2-0.1,0.5-0.1,1v0.1h-0.1c-2,0.3-4.7,0.6-8,1c-3.2,0.4-7.2,1.1-12,2H117.9z M116.8,191.3
				c0.6,3.6,0.9,8.4,1,11.6c0.1,1.2,0.1,2.2,0.2,2.7c0,0.2,0.1,0.6,0.1,1c4.8-0.9,8.8-1.6,11.9-2c3.3-0.4,5.8-0.7,7.9-1
				c0.1-0.3,0.1-0.6,0.1-0.8l0,0c0.2-2.3,0.1-11.3-0.1-18.1L116.8,191.3z"/>
		</g>
		<g>
			<path class="st12" d="M138.1,184.5l-21.5,6.7c-0.2-1.2-0.5-2.4-1-3.6c-1.7-3.6-6-12.2-6-13.1c0-0.1,0-0.1,0-0.2
				c2-0.3,2.7-0.7,3.2-1.3c0.6-0.7,1.4-2,2.5-2s2.4,1.7,3.2,1.7c0.6,0,2.2-0.1,3.2-0.2c0.4,0.5,0.9,0.9,1.4,1.2
				c3.5,1.7,3.1,1.3,4.4,0.4s2.5-2,4.5-0.7c1.9,1.2,1.7,1.3,2,1c0.2-0.3,0.9-1,1.9,0.3c0.9,1.1,1.4,3.6,2.1,3.8
				C138,180.1,138,182.2,138.1,184.5z"/>
			<path class="st9" d="M116.5,191.4v-0.2c-0.2-1.2-0.5-2.4-1-3.5c-0.4-0.8-0.9-1.9-1.5-3.1c-2.6-5.3-4.6-9.4-4.6-10.1v-0.1v-0.2
				h0.2c2.1-0.3,2.7-0.8,3.1-1.2c0.1-0.1,0.2-0.2,0.3-0.3c0.6-0.7,1.3-1.7,2.3-1.7c0.6,0,1.3,0.5,1.9,1c0.5,0.4,1,0.8,1.3,0.8
				c0.6,0,2.3-0.1,3.2-0.2h0.1l0.1,0.1c0.4,0.5,0.8,0.9,1.3,1.2c2.9,1.4,3,1.3,3.7,0.7c0.1-0.1,0.3-0.2,0.4-0.3l0.1-0.1
				c1.2-0.9,2.6-1.9,4.5-0.6c0.6,0.4,1,0.7,1.3,0.9c0.2,0.1,0.3,0.2,0.4,0.2l0,0v-0.1c0.1-0.1,0.4-0.5,0.9-0.5
				c0.4,0,0.8,0.3,1.2,0.8s0.8,1.4,1.1,2.1c0.3,0.7,0.7,1.6,0.9,1.7h0.1v1.2c0,1.3,0.1,3,0.1,4.7v0.1h-0.1L116.5,191.4z
				 M109.8,174.5L109.8,174.5c0,0.7,2.7,6.3,4.5,10c0.6,1.2,1.1,2.3,1.5,3.1c0.5,1.1,0.8,2.3,0.9,3.4l21.2-6.6
				c0-1.7-0.1-3.3-0.1-4.6v-1c-0.4-0.2-0.7-0.9-1-1.8c-0.3-0.7-0.6-1.5-1-2c-0.4-0.4-0.7-0.7-1-0.7c-0.2,0-0.4,0.1-0.7,0.4l0,0
				c-0.2,0.3-0.3,0.2-0.8-0.1c-0.3-0.2-0.7-0.5-1.3-0.9c-1.8-1.1-3-0.2-4.2,0.6l-0.1,0.1c-0.2,0.1-0.3,0.2-0.4,0.3
				c-0.8,0.7-1.1,0.8-4.1-0.7c-0.5-0.3-1-0.7-1.4-1.2c-1.2,0.1-2.6,0.2-3.2,0.2c-0.5,0-1-0.4-1.5-0.8c-0.6-0.5-1.2-0.9-1.7-0.9
				c-0.8,0-1.5,0.9-2.1,1.5c-0.1,0.1-0.2,0.2-0.3,0.4C112.4,173.8,111.7,174.2,109.8,174.5z"/>
		</g>
		<g>
			<path class="st12" d="M152.6,189.6c0,0-3.4,5.7-5.9,9.6c-1.2,1.9-2.2,3.3-2.6,3.4c-0.7,0.2-1,0.4-6,1.1l0,0
				c0.1-0.4,0.1-0.7,0.1-0.9c0.2-2.3,0.1-11.4-0.1-18.3c-0.1-2.3-0.1-4.3-0.2-5.8c0.1,0,0.2,0,0.2,0c0.8-0.5,1.7-1.5,3.1-1
				c1.2,0.4,2.3,0.4,3.4-0.5c1,1.6,1.9,3.1,2.8,4.5C150.4,186.2,152.6,189.6,152.6,189.6z"/>
			<path class="st9" d="M137.9,203.9v-0.2c0.1-0.4,0.1-0.7,0.1-0.9c0.2-1.8,0.1-7.9-0.1-18.3c-0.1-2.3-0.1-4.3-0.2-5.8v-0.2h0.2h0.1
				c0.1-0.1,0.3-0.2,0.4-0.3c0.7-0.5,1.6-1.1,2.8-0.7c1.3,0.5,2.2,0.3,3.2-0.5l0.1-0.1l0.1,0.2c1,1.6,1.9,3.1,2.8,4.5
				c2.8,4.5,5,7.9,5,8l0.1,0.1l-0.1,0.1c0,0.1-3.4,5.8-5.9,9.6c-1.9,2.9-2.4,3.4-2.7,3.5l-0.2,0.1c-0.7,0.2-1.2,0.4-5.9,1
				L137.9,203.9z M138.1,178.8c0,1.5,0.1,3.4,0.1,5.6c0.2,10.4,0.3,16.6,0.1,18.4c0,0.2,0,0.4-0.1,0.7c4.4-0.6,5-0.8,5.6-1l0.2-0.1
				c0.1,0,0.6-0.4,2.5-3.3c2.3-3.6,5.4-8.8,5.8-9.5c-0.4-0.6-2.4-3.8-4.9-7.9c-0.9-1.4-1.8-2.9-2.7-4.4c-1,0.8-2.1,0.9-3.4,0.4
				c-1.1-0.4-1.8,0.2-2.5,0.6c-0.2,0.1-0.3,0.2-0.5,0.3C138.2,178.8,138.2,178.8,138.1,178.8z"/>
		</g>
		<g>
			<path class="st12" d="M144.7,177.1c-1.1,0.9-2.2,1-3.4,0.5c-1.4-0.5-2.3,0.5-3.1,1c-0.1,0-0.2,0.1-0.2,0
				c-0.7-0.2-1.2-2.7-2.1-3.8c-1-1.3-1.7-0.6-1.9-0.3s0,0.2-2-1s-3.3-0.2-4.5,0.7s-0.9,1.3-4.4-0.4c-0.5-0.3-1-0.7-1.4-1.2
				c-2.7-3.2-6.3-11.3-7.8-15.1l0.3-0.1l16.3-9.9l3.6,6.6l2.6,4.8c-1.8,0-1.9,0.7-1.9,1.7C134.9,161.3,140,169.6,144.7,177.1z"/>
			<path class="st9" d="M138,178.8h-0.1c-0.4-0.1-0.8-0.9-1.2-1.9c-0.3-0.7-0.6-1.5-1-2c-0.4-0.4-0.7-0.7-1-0.7l0,0
				c-0.2,0-0.4,0.1-0.7,0.4l0,0c-0.2,0.3-0.3,0.2-0.8-0.1c-0.3-0.2-0.7-0.5-1.3-0.9c-1.8-1.1-3-0.2-4.2,0.6l-0.1,0.1
				c-0.2,0.1-0.3,0.2-0.4,0.3c-0.8,0.7-1.1,0.8-4.1-0.7c-0.6-0.3-1.1-0.8-1.5-1.3c-2.8-3.3-6.4-11.7-7.9-15.1l-0.1-0.2l0.5-0.1
				l16.4-9.9l6.4,11.8h-0.3c-1.6,0-1.7,0.6-1.7,1.5c0,0.3,1.8,3.4,9.8,16.3l0.1,0.1l-0.1,0.1c-1.1,0.9-2.2,1-3.5,0.5
				c-1.1-0.4-1.8,0.2-2.5,0.6c-0.2,0.1-0.3,0.2-0.5,0.3C138.2,178.8,138.1,178.8,138,178.8z M134.7,173.9L134.7,173.9
				c0.4,0,0.8,0.3,1.3,0.8c0.4,0.5,0.8,1.4,1.1,2.1c0.3,0.7,0.7,1.6,0.9,1.7h0.1c0.1-0.1,0.3-0.2,0.4-0.3c0.7-0.5,1.6-1.1,2.8-0.7
				c1.2,0.4,2.2,0.3,3.1-0.4c-8.7-13.9-9.8-16-9.8-16.4c0-1,0.1-1.8,1.8-1.8l-6-11l-16.2,9.8H114c1.5,3.6,5,11.7,7.7,14.9
				c0.4,0.5,0.8,0.9,1.4,1.2c2.9,1.4,3,1.3,3.7,0.7c0.1-0.1,0.3-0.2,0.4-0.3l0.1-0.1c1.2-0.9,2.6-1.9,4.5-0.6
				c0.7,0.4,1.1,0.7,1.3,0.9c0.2,0.1,0.3,0.2,0.4,0.2l0,0v-0.1C134.1,174.1,134.4,173.9,134.7,173.9z"/>
		</g>
		<g>
			<path class="st12" d="M151.9,159.1c-3.1,0-13.3,0-14.9,0h-0.2l-2.6-4.8c3-0.8,9-2.4,15-3.7h0.2
				C149.8,152.3,150.8,156.7,151.9,159.1z"/>
			<path class="st9" d="M140.9,159.3c-1.9,0-3.4,0-3.9,0h-0.3l-2.7-5.1l0.2-0.1c3.8-1,9.5-2.5,15-3.7l0.4-0.1v0.2
				c0.4,1.8,1.4,6.2,2.5,8.5l0.1,0.2h-0.3c-0.9,0-2.4,0-4,0C145.7,159.3,143,159.3,140.9,159.3z M136.9,158.9h0.1
				c1.2,0,6.8,0,10.9,0c1.5,0,2.9,0,3.8,0c-1-2.3-2-6.4-2.4-8.2l0,0c-5.4,1.2-11,2.6-14.8,3.7L136.9,158.9z"/>
		</g>
		<g>
			<path class="st12" d="M170.5,154.6L170.5,154.6c-2-0.2-5.7-0.6-7.9-0.8c-1.1-0.1-1.8-0.2-1.9-0.2c-0.3-0.1-0.1-4.9,0-6.9
				c0-0.1,0-0.1,0-0.2c2.2,0.2,8.3,1.4,10.6,1.8c0.1,0.5,0.2,1.1,0.3,1.7C172,152.6,170.8,152.9,170.5,154.6z"/>
			<path class="st9" d="M170.7,154.9h-0.2c-2-0.2-5.6-0.6-7.9-0.8c-0.8-0.1-1.8-0.2-1.9-0.2c-0.2,0-0.4-0.1-0.2-7.1v-0.3h0.2
				c2.2,0.2,8.1,1.3,10.6,1.8h0.1v0.1c0.1,0.3,0.1,0.6,0.2,0.9c0,0.3,0.1,0.5,0.1,0.8c0.3,1.7-0.1,2.4-0.5,3.2
				c-0.2,0.4-0.5,0.8-0.6,1.4L170.7,154.9L170.7,154.9z M160.8,153.5c0.2,0,0.7,0.1,1.8,0.2c2.2,0.2,5.7,0.6,7.7,0.8
				c0.1-0.6,0.4-1,0.6-1.4c0.4-0.7,0.8-1.4,0.5-3c0-0.3-0.1-0.5-0.1-0.8s-0.1-0.5-0.1-0.8c-2.5-0.5-8-1.5-10.3-1.8
				C160.7,151.2,160.8,153.1,160.8,153.5z"/>
		</g>
		<g>
			<path class="st12" d="M158.2,167.7c-0.3,0.4-0.6,0.8-0.9,1.2c-0.2,0.3-0.5,3.8-0.7,7.1c-0.2,2.4-0.3,4.8-0.4,5.9h-0.1
				c-0.4,0-6.7-0.2-8.5-0.3c-0.9-1.4-1.9-3-2.8-4.5c-4.7-7.6-9.8-15.9-9.8-16.4c0-0.9,0.1-1.7,1.9-1.7h0.2c1.6,0,11.8,0,14.9,0
				c0.2,0.4,0.4,0.8,0.6,1.1C153.6,161.6,156.3,164.9,158.2,167.7z"/>
			<path class="st9" d="M156.3,182.2l-0.2-0.1c0,0,0,0-0.1,0c-0.4,0-7.2-0.2-8.5-0.3h-0.1v-0.1c-0.9-1.4-1.9-3-2.8-4.5
				c-9.9-15.8-9.9-16.3-9.9-16.5c0-1,0.2-1.8,2-1.8h0.2c1.2,0,6.8,0,10.9,0c1.7,0,3.1,0,4,0h0.1v0.1c0.2,0.4,0.4,0.7,0.6,1.1
				c1.2,1.4,3.8,4.8,5.7,7.5l0.1,0.1l-0.1,0.1c-0.3,0.4-0.6,0.8-0.9,1.2c0,0.1-0.2,0.9-0.7,7.1c-0.1,1.6-0.2,3.1-0.3,4.3
				c0,0.7-0.1,1.2-0.1,1.6L156.3,182.2z M147.6,181.5c2.2,0.1,7.8,0.3,8.4,0.3c0-0.4,0.1-0.9,0.1-1.4c0.1-1.2,0.2-2.7,0.3-4.3
				c0.5-6.7,0.7-7.1,0.7-7.2c0.2-0.4,0.5-0.8,0.8-1.2c-1.9-2.7-4.5-6-5.6-7.4c-0.3-0.3-0.5-0.7-0.6-1.1c-0.9,0-2.3,0-3.9,0
				c-4.1,0-9.7,0-10.9,0h-0.2c-1.6,0-1.7,0.6-1.7,1.5c0,0.3,1.4,2.8,9.8,16.3C145.8,178.6,146.8,180.1,147.6,181.5z"/>
		</g>
		<g>
			<path class="st13" d="M163.1,163.8c-2.6,1.7-4.1,3-4.9,3.9c-1.9-2.8-4.6-6.1-5.7-7.5c-0.3-0.3-0.5-0.7-0.6-1.1
				c-1.1-2.3-2.1-6.8-2.5-8.5c8.2-1.8,8.8-4.1,11.2-4l0,0l0.2,0.2c-0.1,2-0.2,6.8,0,6.9c0.1,0,0.8,0.1,1.9,0.2L163.1,163.8z"/>
			<path class="st9" d="M158.2,168l-0.1-0.2c-2-2.9-4.9-6.5-5.7-7.5c-0.3-0.4-0.5-0.7-0.7-1.1c-1.1-2.4-2.1-6.8-2.5-8.6v-0.2h0.2
				c4.7-1,6.9-2.3,8.3-3.1c1.1-0.6,1.8-1,2.9-0.9h0.1l0.3,0.3v0.1c-0.2,4.4-0.1,6.3,0,6.7c0.1,0,0.2,0,0.4,0c0.3,0,0.8,0.1,1.4,0.2
				h0.1l0.5,10.2l-0.1,0.1c-2.2,1.4-3.8,2.7-4.9,3.8L158.2,168z M149.5,150.7c0.4,1.9,1.4,6.1,2.5,8.4c0.2,0.4,0.4,0.7,0.6,1.1
				c0.8,1,3.6,4.4,5.6,7.3c1.1-1.2,2.7-2.4,4.7-3.7l-0.5-9.7c-0.5-0.1-0.9-0.1-1.2-0.1c-0.2,0-0.4-0.1-0.5-0.1l0,0
				c-0.2,0-0.4-0.1-0.2-7l-0.1-0.1c-0.9,0-1.6,0.3-2.7,0.9C156.3,148.4,154.1,149.6,149.5,150.7z"/>
		</g>
		<g>
			<path class="st12" d="M159.5,169.8L159.5,169.8c0,0.1-0.1,0.2-0.1,0.3c-0.1,0.6-0.2,1.7-0.3,3.1c-0.1,0.8-0.1,1.8-0.2,2.7
				l-2.4,0.1c0.3-3.3,0.6-6.8,0.7-7.1c0.2-0.4,0.5-0.9,0.9-1.2C158.7,168.4,159.2,169.1,159.5,169.8z"/>
			<path class="st9" d="M156.4,176.2V176c0.5-6.7,0.7-7.1,0.7-7.2c0.2-0.5,0.6-0.9,0.9-1.3l0.1-0.2l0.1,0.2c0.5,0.7,0.9,1.4,1.3,2.1
				v0.1v0.1c0,0.1-0.1,0.2-0.1,0.3c-0.1,0.5-0.2,1.5-0.3,3.1c-0.1,0.8-0.1,1.8-0.2,2.7v0.2L156.4,176.2z M158.2,167.9
				c-0.3,0.3-0.5,0.7-0.7,1c-0.1,0.1-0.2,1-0.7,6.9l2.1-0.1c0.1-0.9,0.1-1.8,0.2-2.6c0.1-1.7,0.2-2.7,0.3-3.2c0-0.1,0-0.2,0.1-0.3
				C159,169.2,158.6,168.5,158.2,167.9z"/>
		</g>
		<g>
			<path class="st12" d="M164,172.7c-0.4,0.1-1,0.2-1.4,0.4c-0.5,0.2-2.6,0.2-3.4,0.2c0.1-1.4,0.2-2.6,0.3-3.1l0.2-0.1
				c0.8-0.4,2-1,2.3-1.1c0.4-0.2,0.1,1.1,0,1.6s0.7,0.1,1.4-0.2c0.2-0.1,0.4-0.2,0.6-0.3C164.1,170.9,164.1,171.8,164,172.7z"/>
			<path class="st9" d="M160,173.4c-0.4,0-0.7,0-0.8,0H159v-0.2c0.1-1.7,0.2-2.7,0.3-3.2v-0.1l0.3-0.1c1.3-0.6,2.1-1,2.4-1.1
				c0.2-0.1,0.3,0,0.3,0c0.2,0.2,0.1,0.7,0,1.4c0,0.1,0,0.2-0.1,0.3l0,0c0.1,0.1,0.8-0.2,1.1-0.4h0.1c0.2-0.1,0.4-0.2,0.5-0.3
				l0.2-0.1v0.3c0.1,0.9,0.1,1.8,0,2.8v0.1H164c-0.4,0.1-1,0.2-1.4,0.4C162.2,173.4,160.9,173.4,160,173.4z M159.4,173.1
				c1.1,0,2.8,0,3.2-0.1s0.9-0.2,1.3-0.3c0.1-0.8,0.1-1.5,0-2.3c-0.1,0.1-0.2,0.1-0.3,0.2h-0.1c-0.8,0.3-1.2,0.5-1.5,0.3
				c-0.1-0.1-0.1-0.2-0.1-0.3s0-0.2,0.1-0.3c0.1-0.3,0.2-0.9,0.1-1.1c-0.3,0.1-1.1,0.5-2.3,1.1l-0.1,0.1
				C159.5,170.7,159.5,171.6,159.4,173.1z"/>
		</g>
		<g>
			<path class="st12" d="M163.6,183.9c-1,0-3.7,0.2-4.2,0c-0.3-0.1-0.6-0.3-0.8-0.5c0-0.6,0.1-1.3,0.1-2.2h4.6
				c0,0.2,0.1,0.4,0.2,0.6C163.6,182.1,163.6,183.1,163.6,183.9z"/>
			<path class="st9" d="M160.5,184.2c-0.5,0-0.9,0-1.1-0.1c-0.3-0.1-0.6-0.3-0.9-0.5l-0.1-0.1v-0.1c0-0.6,0.1-1.3,0.1-2.2V181h4.9
				v0.1c0,0.2,0.1,0.3,0.2,0.5c0.1,0.1,0.2,0.3,0.2,2.2v0.2h-0.2c-0.3,0-0.9,0-1.4,0C161.5,184.2,160.9,184.2,160.5,184.2z
				 M158.7,183.3c0.2,0.2,0.5,0.3,0.7,0.4c0.3,0.1,1.7,0.1,2.7,0c0.5,0,0.9,0,1.3,0c0-1.5-0.1-1.8-0.2-1.9c-0.1-0.2-0.1-0.3-0.2-0.5
				h-4.3C158.8,182.2,158.8,182.8,158.7,183.3z"/>
		</g>
		<g>
			<path class="st12" d="M159,176c-0.1,1.8-0.2,3.7-0.3,5.3c0,0.9-0.1,1.6-0.1,2.2c-0.8-0.5-1.9-1.3-2.4-1.4
				c0.1-1.1,0.2-3.5,0.4-5.9L159,176z"/>
			<path class="st9" d="M158.7,183.7l-0.2-0.2c-0.2-0.1-0.4-0.2-0.6-0.4c-0.7-0.4-1.4-0.9-1.8-1H156V182c0.1-1.1,0.2-3.4,0.4-5.9
				V176l2.7-0.1v0.2c-0.1,1.5-0.2,3.2-0.3,5.3c0,0.9-0.1,1.6-0.1,2.2L158.7,183.7z M156.4,181.9c0.4,0.2,1.1,0.6,1.7,1
				c0.1,0.1,0.2,0.1,0.3,0.2c0-0.5,0.1-1.2,0.1-1.9c0.1-2,0.2-3.7,0.3-5.1l-2.1,0.1C156.6,178.6,156.4,180.8,156.4,181.9z"/>
		</g>
		<g>
			<path class="st12" d="M163.8,173.7c-0.4,1.1-0.3,3.6-0.3,5.1c0,0.7,0,1.1-0.1,1.2c-0.2,0.2-0.3,0.7-0.2,1.2h-4.6
				c0.1-1.5,0.2-3.5,0.3-5.3c0.1-1,0.1-1.9,0.2-2.7c0.8,0,2.9,0,3.4-0.2c0.4-0.1,1-0.3,1.4-0.4C164,173.1,163.9,173.4,163.8,173.7z"
				/>
			<path class="st9" d="M163.5,181.4h-4.9v-0.2c0.1-2.1,0.2-3.8,0.3-5.3c0.1-1,0.1-1.9,0.2-2.7V173h0.4c0.9,0,2.7,0,3.2-0.1
				c0.4-0.1,0.9-0.3,1.4-0.4l0.2-0.1v0.2c0,0.3-0.1,0.7-0.2,1l0,0c-0.3,0.9-0.3,2.7-0.3,4.2c0,0.3,0,0.6,0,0.9c0,1-0.1,1.2-0.2,1.3
				c-0.1,0.1-0.2,0.6-0.1,1L163.5,181.4z M158.9,181.1h4.2c0-0.4,0-0.9,0.3-1.1c0,0,0.1-0.3,0.1-1.1c0-0.3,0-0.6,0-0.9
				c0-1.5,0-3.3,0.3-4.3c0.1-0.2,0.1-0.5,0.2-0.7c-0.4,0.1-0.9,0.2-1.2,0.3c-0.5,0.2-1.9,0.2-3.3,0.2h-0.1c-0.1,0.8-0.1,1.7-0.2,2.5
				C159.1,177.4,159,179.1,158.9,181.1z"/>
		</g>
	</g>
</g>
<g>
	<g>
		<path class="st6" d="M1004,160.4v-0.1v-0.1c0.5-2.2,1.4-4.4,2.6-6.3c4.4-7.1,5.8-15.8,4-24.1l-0.8-4.3c-0.3-2-0.7-3.8-1-5.7l0,0
			c-2.3-12.8-4.3-22.4-7.6-31c-5.3-14.8-10-29.9-13.8-45.1c-1.8-8.6-3.2-25.8-3.2-26c-0.3-4.7-4.4-8.4-9.2-8
			c-2.9,0.2-5.5,1.8-6.9,4.3c-4,6.8-10.1,13.8-12.8,14.7c-3.6,1.3-17,1.8-24.2,2c-9.8,0.4-13.3,0.5-15.7,2c-2.5,0.4-5,0.5-7.5,0.3
			c-4.7-1.3-35.3-3.3-45.9,0.8c-3.3,1.3-6.1,2.6-8.5,3.7l0,0l-2.1,1.1c-1.4,0.8-2.8,1.5-4.3,2.2c-15.2,2.1-30.5,3.2-45.8,3.5l0,0
			l-4,0.1c-25.6,0.6-41.1-2.5-43.4-3.3c-0.3-0.1-0.7-0.3-1.3-0.5c-5.4-2.4-20-8.9-36.9-5.8h-0.1h-0.4h-0.2l-1.4,0.3
			c-18.6,4-28.7,8.8-31.2,10.1c-3.6,1.5-30.8,10.5-42,13.7c-2.7-4.7-7-13.3-9.9-18.8c-8.4-16.5-9.9-19.2-12.8-21.1
			s-22-8.8-27.8-10.8c-27.7-9.7-28.9-9.1-32.5-6.8c-2.5,1.4-3.2,2.6-10.3,14.5c-6,10.2-22,36.9-27.7,40.7c-3.2,1.3-17.1,6.6-33,12.7
			c-20,7.6-45,17.2-65,25c-11.1,4.3-19.3,7.6-25.2,10.1c-3.3,1.4-5.8,2.4-7.6,3.2c-2.6,1.2-8.8,4-7.4,10.8
			c0.5,2.9,1.1,3.6,10.8,14.3c10.1,11.2,28.8,31.9,34.7,42.8c3,5.6,9.1,19.2,16.8,38.3l0,0c6.1,15.1,13.1,32.8,19.1,48.8l0,0
			c5.1,13.6,9.3,25,11.6,31.8c4.2,12.8,18.6,58.8,41.6,132.8l0,0l10.2,33l12.2,42.4l0,0l50.6,175.4c1,3.7,4.4,6.2,8.3,6.2
			c0.3,0,0.7,0,1,0l104.8-12.7h0.4l0.7-0.1h0.1l76.2-13.3l0,0l1.1-0.2l0.6-0.1l87.7-22c3-0.8,5.4-3.1,6.2-6.1
			c3.2-12.2,11.4-33.6,19.4-39.4c0.6-0.4,1.1-0.9,1.6-1.5c0,0,0.5-0.6,1.4-1.7l0,0c23.7-28.6,24-34.9,24.1-37.5v-1.8
			c0.8-29.4,4.7-38.7,6.8-41.7l0.8-1l0,0c5.9-8.4,10-18,11.9-28.1c2.1-11.1,3.4-18.9,4-22.2l0,0l0,0l0.4-2.2c0-0.2,0-0.4,0-0.6
			c2-16.7,6.5-33,13.4-48.3c4.6-9.7,10.4-18.7,17.3-27c4.3-5.4,8.2-10.2,10.1-16c0.9-2.6,2-5.3,2.9-8c0.6-1.5,1.2-3,1.7-4.5l0,0
			c2.5-6.1,4-12.6,4.3-19.2c0-5.6-0.1-13.4-1-23.6l0,0c-0.9-10-2.3-19.8-4.2-29.7c-2.1-13-5.6-25.7-10.5-37.9l0,0l0,0
			c-0.7-1.7-1.3-3.2-1.8-4.6c-0.6-1.2-1-2.6-1-4c0,0,0.5-0.9,3.2-2.4c8.5-4.7,19.2-14.2,24.3-26.6l0,0c1.1-2.7,1.9-5.5,2.4-8.5
			c1-7,0.4-14.3-1.7-21.1C1004.1,165.7,1003.5,163.1,1004,160.4z"/>
	</g>
	<g>
		<path class="st12" d="M703.8,266.7c-6,0.4-15.9,1-19.3,1c-5.1,0-12.8-10.5-19.3-10.5s-11.4,7.7-14.8,11.7c-2.8,3.2-6.9,6-19.1,7.6
			c-2.6,0.3-5.5,0.6-9,0.8c-19.3,1.2-25.8-7.6-36.8-9.8c-11.1-2.1-11.6,1.8-19,3.4c-7.4,1.6-12.7-8.6-32.6-18.3
			c-19.9-9.8-17.8-3.2-26.7-1.1s-22.5-10.9-24.5-10.4c-1.2,0.3-7.3,10.2-12.1,17.8c-5.8-15.5-12.8-33.3-19.2-49
			c11.8-1.6,38.3-5.5,85.1-13.3c59.3-9.8,109.6-18.5,120.3-20.4C666.2,198.7,687.5,247.3,703.8,266.7z"/>
		<path class="st9" d="M618.8,278.3c-10.6,0-17.2-3.1-23-5.9c-3.5-1.6-6.7-3.2-10.6-3.9c-7-1.3-9.5-0.2-12.6,1.2
			c-1.6,0.7-3.4,1.6-6,2.1c-4.4,1-8.1-1.7-13.5-5.9c-4.4-3.4-10.6-8.1-19.7-12.5c-14.2-6.8-16.7-5.4-20.3-3.4
			c-1.4,0.8-3.1,1.7-5.6,2.3c-6.4,1.5-14.8-4.1-20.3-7.9c-1.6-1.1-3.4-2.3-4.1-2.5c-0.6,0.6-3,3.5-11.4,17.3l-1.1,1.7l-0.7-1.9
			c-6-16-13.1-33.8-19.2-49l-0.5-1.2l1.3-0.2c11.7-1.6,38.2-5.5,85.1-13.3c62.3-10.3,114.5-19.4,120.3-20.4l0.8-0.1l0.3,0.7
			c8.6,20.6,30.4,70.8,46.8,90.2l1.3,1.5l-2,0.1c-6.7,0.4-16,1-19.4,1c-2.7,0-5.8-2.4-9.2-4.9c-3.5-2.7-7-5.5-10.2-5.5
			c-4.9,0-9.1,5.2-12.1,9.1c-0.7,0.8-1.3,1.6-1.9,2.3c-3.2,3.6-7.8,6.3-19.7,8c-2.6,0.3-5.6,0.6-9.1,0.8
			C621.1,278.3,619.9,278.3,618.8,278.3z M579.8,266c1.6,0,3.5,0.2,5.8,0.6c4,0.8,7.4,2.4,11.1,4.1c6.2,3,13.4,6.3,25.6,5.6
			c3.3-0.2,6.3-0.5,8.9-0.8c12.7-1.7,16.2-4.6,18.5-7.3c0.6-0.6,1.2-1.4,1.8-2.2c3.3-4.1,7.9-9.8,13.7-9.8c3.8,0,7.6,3,11.4,5.9
			c2.9,2.2,5.8,4.5,8,4.5c3.2,0,12.5-0.5,17.3-0.9c-16.2-20.3-36.9-67.8-45.5-88.4c-8.7,1.5-59.5,10.4-119.5,20.2
			c-45.2,7.4-71.7,11.4-83.9,13.1c5.8,14.3,12.4,30.8,18,45.9c9.9-16.1,10.9-16.4,11.6-16.5c1-0.2,2.3,0.5,5.7,2.9
			c4.9,3.3,13.2,8.9,18.7,7.5c2.2-0.5,3.7-1.3,5.1-2.1c4.5-2.5,7.9-3.6,22.2,3.3c9.4,4.5,15.6,9.3,20.1,12.7
			c5.2,3.9,8.4,6.3,11.9,5.5c2.4-0.5,4-1.3,5.6-2C574.1,266.9,576.2,266,579.8,266z"/>
	</g>
	<g>
		<path class="st12" d="M756.5,116.8l-97.5,59.1l-2,0.4c-10.7,1.9-61,10.7-120.3,20.4c-46.8,7.7-73.5,11.7-85.1,13.3
			c-7.1-17.6-13.7-32.7-17.2-39.3c-9.6-17.3-44.5-52.8-44.8-54.6S513.4,67.9,523,63.8c9.6-4.1,36.7-54.4,38.6-55.6
			s48.5,15.7,51.3,17.5c2.7,1.8,20.8,42.5,24.1,42.5s46.7-14.4,48.9-15.6s11.7-5.5,29.3-9.4c0.4-0.1,0.9-0.2,1.3-0.2L756.5,116.8z"
			/>
		<path class="st9" d="M450.8,211l-0.3-0.7c-5.6-13.8-13.1-31.7-17.2-39.2c-6.3-11.7-24.7-31.9-35.6-44.1c-7.9-8.7-9-10-9.1-10.8
			c-0.2-1.4-0.3-2,100.6-40.6c17.1-6.5,30.6-11.7,33.5-12.9c6.4-2.7,22.4-29.4,31-43.7c5.5-9.2,6.8-11.4,7.5-11.8
			c3.1-1.8,51.9,17.3,52.3,17.5c1.3,0.8,3.9,5.8,10.1,18c4.7,9.3,11.8,23.4,13.6,24.3c2.7,0,46-14.3,48.3-15.5
			c1-0.5,10.6-5.3,29.6-9.5c0.5-0.1,1-0.2,1.4-0.2l0.7-0.1L758,117l-98.7,59.7l-2,0.4c-2.2,0.4-55.6,9.8-120.3,20.4
			c-46.9,7.7-73.5,11.7-85.1,13.3L450.8,211z M390.8,116.4c1.1,1.3,4.6,5.2,8.3,9.3c11.1,12.2,29.5,32.6,36,44.5
			c4,7.4,11.4,25,17,38.6c12.1-1.7,38.5-5.6,84.3-13.2c64.7-10.7,118.1-20,120.3-20.4l1.8-0.3l96.6-58.5l-39.1-72.3
			c-0.2,0-0.4,0.1-0.6,0.1c-18.7,4-28.1,8.8-29.1,9.3c-2,1-45.9,15.7-49.4,15.7c-2.1,0-5.4-6-15.2-25.4c-3.9-7.7-8.4-16.4-9.4-17.3
			c-2.9-1.9-46.1-17.3-50.3-17.4c-0.7,0.8-3.6,5.7-6.8,11c-12.6,21-25.4,41.8-31.9,44.5c-2.9,1.2-16.4,6.3-33.5,12.9
			C455,90.9,397.7,112.8,390.8,116.4z"/>
	</g>
	<g>
		<path class="st12" d="M673.1,377.4l-149.1,46.7c-13.4-43.3-35.8-115.5-41.7-133c-2.4-7.2-6.6-18.9-11.7-32.1
			c4.6-7.6,10.9-17.5,12.1-17.8c2-0.5,15.8,12.5,24.5,10.4c8.7-2.1,6.6-8.6,26.7,1.1c20,9.7,25.2,19.9,32.6,18.3
			c7.4-1.6,8.1-5.5,19-3.4c11,2.1,17.5,10.9,36.8,9.8c3.4-0.2,6.3-0.5,9-0.8c0.1,0.4,0.1,0.7,0.1,1.1c0,5.3,25.8,57,36.1,78.4
			C670.2,362.9,672.1,370,673.1,377.4z"/>
		<path class="st9" d="M523.4,425.4l-0.3-1c-8.2-26.3-35.1-113.4-41.7-133c-2.4-7.2-6.6-18.9-11.7-32l-0.2-0.5l0.3-0.4
			c10.8-17.8,12-18.1,12.6-18.3c1-0.2,2.3,0.6,5.8,2.9c4.9,3.3,13.2,8.8,18.6,7.4c2.2-0.5,3.6-1.3,5-2.1c4.5-2.5,7.9-3.6,22.2,3.3
			c9.4,4.5,15.5,9.3,20.1,12.7c5.2,3.9,8.4,6.3,11.9,5.5c2.4-0.5,4-1.3,5.6-2c3.3-1.5,6.1-2.8,13.8-1.4c4,0.8,7.4,2.4,11,4.1
			c6.2,3,13.4,6.3,25.6,5.6c3.3-0.2,6.3-0.5,8.9-0.8l0.9-0.1l0.2,0.9c0.1,0.4,0.2,0.9,0.2,1.4c0,4,17,39.1,28.3,62.1
			c2.9,6,5.6,11.6,7.6,15.8c2.8,6.9,4.7,14.2,5.7,21.5l0.1,0.8l-0.8,0.3L523.4,425.4z M471.7,259.1c4.9,13,9.2,24.5,11.6,31.7
			c6.4,19.3,32.9,104.7,41.4,132.1L672,376.7c-1-6.9-2.8-13.7-5.4-20.2c-2-4.2-4.7-9.7-7.6-15.8c-15.6-32-28.5-58.9-28.5-63l0,0
			c-2.3,0.3-5,0.5-8.1,0.7c-12.8,0.8-20.1-2.7-26.6-5.8c-3.4-1.6-6.7-3.2-10.5-3.9c-6.9-1.3-9.5-0.2-12.6,1.2
			c-1.6,0.7-3.4,1.6-6,2.1c-4.4,1-8.1-1.7-13.5-5.9c-4.4-3.4-10.6-8.1-19.7-12.5c-14.2-6.9-16.7-5.4-20.3-3.4
			c-1.4,0.8-3.1,1.7-5.5,2.3c-6.3,1.5-14.7-4-20.2-7.7c-1.6-1.1-3.5-2.3-4.2-2.6C482.4,242.7,480.1,245.4,471.7,259.1z"/>
	</g>
	<g>
		<path class="st12" d="M983.4,344.8c-1.5,4.1-3.2,8.4-4.7,12.7c-3.4,10.3-15.6,17.7-27,42.1c-7.2,16.2-12,33.5-14.1,51.1
			c0,0-0.1,0.8-0.4,2.3c-13-3.3-49.2-12.8-56.9-15.2c-6.8-2.1-20.5-8.8-27.5-12.3c15.1-23,35.3-57.5,35.3-57.5s-13.1-20.6-30.1-47.6
			c10.9,0.4,48.4,1.7,50.9,1.7c0.3,0,0.5,0.1,0.8,0.1c2.8,0.9,9.4,5.4,14.4,8.7c1.6,1.1,3.3,2.1,5.1,2.9c3.4,1.3,19.5-0.2,25.3,0
			c0.4,0,0.9,0,1.3,0C958.5,334.1,974,340.6,983.4,344.8z"/>
		<path class="st9" d="M937.9,454.3l-1.1-0.3c-32-8.4-51.6-13.6-57-15.2c-7.1-2.2-21.7-9.4-27.7-12.3l-1-0.5l0.6-0.9
			c13.9-21.2,32.3-52.5,34.9-57c-2.1-3.3-14.3-22.5-29.8-47.1l-1-1.6l1.9,0.1c17.8,0.6,48.7,1.7,50.9,1.7c0.4,0,0.8,0.1,1.1,0.2
			c2.2,0.7,6.7,3.6,11.1,6.4c1.2,0.8,2.4,1.6,3.5,2.3c1.6,1.1,3.2,2,5,2.8c1.9,0.8,9.7,0.4,15.8,0.1c3.6-0.2,7-0.3,9.2-0.2
			c0.4,0,0.8,0,1.3,0c2.2,0.3,11.4,3.8,28,11.1l0.9,0.4l-0.3,0.9c-0.6,1.5-1.1,3-1.7,4.6c-1,2.6-2.1,5.3-3,8.2
			c-1.5,4.6-4.7,8.7-8.8,13.7c-5.2,6.6-11.9,14.8-18.2,28.5c-7.1,16.1-11.9,33.2-14.1,50.8c0,0.1-0.1,0.8-0.4,2.3L937.9,454.3z
			 M854.2,425.1c6.4,3.2,19.7,9.7,26.4,11.7c5.2,1.6,24.5,6.7,55.8,14.9c0.1-0.8,0.2-1.2,0.2-1.2c2.1-17.7,6.9-35,14.2-51.3
			c6.5-13.9,13.2-22.2,18.5-28.9c3.9-4.9,7-8.9,8.5-13.1c0.9-2.8,2-5.5,3-8.3c0.5-1.2,0.9-2.4,1.4-3.6
			c-19.5-8.4-25.2-10.4-26.5-10.5c-0.3,0-0.7,0-1.1,0c-2.1-0.1-5.5,0.1-9.1,0.2c-8.4,0.4-14.4,0.6-16.6-0.3c-1.9-0.9-3.6-1.9-5.3-3
			c-1.1-0.7-2.3-1.5-3.5-2.2c-4-2.6-8.6-5.6-10.6-6.2c-0.2-0.1-0.3-0.1-0.5-0.1c-2.5,0-40-1.3-49-1.6c16.5,26.2,29.1,46,29.1,46
			l0.3,0.5l-0.3,0.5C888.7,368.8,869.1,402.2,854.2,425.1z"/>
	</g>
	<g>
		<path class="st12" d="M935.6,110.2c-14.2-1-17.9,12.9-66.6,23.8l-1.2,0.3c-35.8,7.9-72.2,17.5-89.8,22.2l-21.5-39.8L716.6,43
			c17-3.1,31.4,5,34.3,6s19.1,4.4,46.4,3.7h4c8.6,14,27.4,44.5,28.2,44.5s46.6-13,67.8-18.9L935.6,110.2z"/>
		<path class="st9" d="M777.5,157.7L715.1,42.3l1.4-0.2c14.9-2.7,27.6,2.9,32.9,5.2c0.8,0.4,1.4,0.6,1.8,0.8
			c2.8,0.9,18.8,4.3,46,3.7h4.6l0.3,0.5c12,19.5,25.4,41.1,27.7,43.9c3.3-0.8,27.5-7.6,47.1-13.2c7.5-2.1,14.6-4.1,20.1-5.6l0.5-0.1
			l41.1,34.1l-3.1-0.2c-5.7-0.4-9.7,1.7-16.2,5.3c-8.8,4.8-22,12.2-50.1,18.4l-1.2,0.3c-32.8,7.1-66.9,16-89.8,22.1L777.5,157.7z
			 M718.2,43.8l60.3,111.5c22.8-6.2,56.6-15,89-22l1.2-0.3c27.8-6.2,41-13.5,49.6-18.2c5.5-3,9.6-5.2,14.5-5.6l-35.7-29.7
			c-5.4,1.5-12.3,3.4-19.6,5.5c-37.9,10.7-47.4,13.3-48,13.3c-0.7,0-1.6,0-28.8-44.5h-3.3c-27.6,0.6-43.9-2.8-46.7-3.8
			c-0.4-0.1-1.1-0.4-2-0.8C743.5,47,731.9,41.8,718.2,43.8z"/>
	</g>
	<g>
		<path class="st12" d="M897.3,78.3c-21.2,6-67,18.7-67.8,18.9c-0.7,0.2-19.6-30.5-28.2-44.5c15.9-0.3,31.7-1.5,47.4-3.7
			c3-1,5.9-2.3,8.7-3.9L897.3,78.3z"/>
		<path class="st9" d="M829.4,98.3c-1,0-3.3-2.9-29.1-45l-0.9-1.5h1.7c15.8-0.3,31.7-1.5,47.3-3.7c2.8-0.9,5.6-2.2,8.3-3.7l0.6-0.3
			L899.2,79l-1.8,0.5c-21.5,5.9-67,18.6-67.6,18.7C829.7,98.3,829.5,98.3,829.4,98.3z M803.1,53.7c20,32.6,25.4,40.8,26.7,42.5
			c5-1.4,44.7-12.4,65.4-18.3l-37.9-31.6c-2.6,1.5-5.4,2.7-8.3,3.6C833.8,52.1,818.4,53.4,803.1,53.7z"/>
	</g>
	<g>
		<path class="st12" d="M1000.2,121c-13.7-2.6-50.3-9.6-63.4-10.8h-1.3l0,0l-38.3-32L857.3,45c2.2-1.1,4.8-2.3,7.9-3.5
			c8.1-3.1,36.6-1.5,40.5-0.5c3.8,1,13.1,0,14.2-1.1s30.2-0.6,38.2-3.4c8.1-2.7,17.4-18.5,17.4-18.5s1.4,17.8,3.4,27.1
			c3.8,15.7,8.6,31.2,14,46.5C996.3,101.2,998.7,111.1,1000.2,121z"/>
		<path class="st9" d="M1001.5,122.3l-1.4-0.3c-14.8-2.8-50.4-9.6-63.3-10.8h-1.6l-0.3-0.2l-79.4-66.2l1.4-0.7
			c2.1-1,4.7-2.3,7.9-3.5c8.5-3.3,37.2-1.6,41.1-0.5c3.5,1,12.2,0,13.3-0.8c0.6-0.6,2-0.7,11.9-1.1c9.3-0.4,21.9-0.9,26.8-2.5
			c7.6-2.6,16.7-17.9,16.8-18l1.6-2.7l0.3,3.1c0,0.2,1.5,17.8,3.4,26.9c3.8,15.6,8.6,31.2,14,46.4c3.3,9.6,5.8,19.5,7.3,29.6
			L1001.5,122.3z M935.9,109.3h0.9c12.6,1.2,46.6,7.5,62.2,10.6c-1.5-9.5-3.9-18.8-7-27.9c-5.4-15.2-10.2-30.9-14.1-46.6
			c-1.5-6.9-2.6-18.7-3.2-24.2c-3,4.6-10,14.2-16.3,16.4c-5,1.7-17.9,2.2-27.3,2.6c-4.8,0.2-9.8,0.4-10.8,0.7
			c-1.9,1.4-11.4,2.2-15,1.2c-3.9-1.1-32.3-2.5-39.9,0.4c-2.4,0.9-4.5,1.9-6.3,2.8L935.9,109.3z"/>
	</g>
	<g>
		<path class="st12" d="M998.4,189.8c-0.4,2.2-1,4.4-1.9,6.6c-7.1,0.3-21.4,2.6-41.3,14.6c-1.4,0.9-2.7,1.7-4,2.5l-3-59.6
			c13.4,1.5,35.4,3.7,47.2,4.9C993.6,168.8,1000.6,176.2,998.4,189.8z"/>
		<path class="st9" d="M950.4,215.2l-3.1-62.6l1.2,0.1c13.5,1.5,35.3,3.7,47.2,4.9l1.1,0.1l-0.2,1.1c-0.9,4.5,0.2,8.7,1.3,13
			c1.3,5,2.7,10.7,1.6,18l0,0c-0.4,2.3-1,4.6-1.9,6.8l-0.2,0.6h-0.6c-6.7,0.2-20.9,2.4-40.8,14.4l-0.8,0.5c-1.1,0.7-2.1,1.3-3.1,2
			L950.4,215.2z M949.3,155l2.8,56.8c0.6-0.4,1.1-0.7,1.7-1.1l0.8-0.5c19.6-11.9,33.9-14.3,41.1-14.7c0.7-1.9,1.2-3.8,1.6-5.7
			c1.1-6.9-0.2-12.2-1.5-17.2c-1.1-4.2-2.1-8.3-1.5-12.8C982.6,158.5,962.5,156.4,949.3,155z"/>
	</g>
	<g>
		<path class="st12" d="M996.5,196.3c-4.2,10.5-13.7,18.5-20.5,22.3c-8.3,4.6-9,9.3-6,17c0.6,1.6,1.2,3.1,2,4.9
			c-3.3,2.3-10.6,7.2-15.2,10.1c-1,0.7-2.1,1.3-3.3,1.8c-4.2,1.7-9.1,3.8-8.7,1c0.4-2.7,2.6-10.6,0-9.5c-1.8,0.8-9.5,4.4-14,6.6
			l-0.8-1.5l0,0c-2.1-3.6-4.8-7.9-8-12.4c4.8-5.4,13.6-13.3,29.3-23.1c1.3-0.8,2.6-1.6,4-2.5C975.1,198.9,989.5,196.6,996.5,196.3z"
			/>
		<path class="st9" d="M946.1,255.8c-0.6,0-1.2-0.1-1.6-0.5c-0.4-0.3-0.8-0.9-0.6-2c0.1-0.5,0.2-1.2,0.4-2c0.3-1.6,1.1-5.1,0.8-6.3
			c-1.7,0.7-6.1,2.8-10.2,4.7l-4.5,2.1l-1.3-2.3c-2.1-3.6-4.8-7.9-7.9-12.3l-0.4-0.6l0.5-0.6c6.4-7.2,16.4-15.1,29.5-23.4
			c0.8-0.5,1.5-1,2.3-1.5l1.7-1c20.1-12.3,34.8-14.6,41.7-14.8l1.5-0.1l-0.6,1.4c-4.3,10.7-14,18.9-21,22.8
			c-8.1,4.5-8.3,8.9-5.5,15.8c0.6,1.5,1.2,3.1,2,4.8l0.3,0.8l-0.7,0.5c-3.6,2.5-10.7,7.2-15.3,10.1c-1.1,0.7-2.2,1.3-3.4,1.8
			l-0.5,0.2C950,254.9,947.7,255.8,946.1,255.8z M945.3,242.9c0.5,0,0.8,0.2,1,0.4c1.3,1.1,0.8,4-0.1,8.5c-0.2,0.8-0.3,1.4-0.4,1.9
			c0,0.2,0,0.2,0,0.2c0.7,0.3,4.6-1.3,6.7-2.1l0.5-0.2c1.1-0.5,2.1-1,3.1-1.7c4.3-2.6,10.8-6.9,14.5-9.6c-0.6-1.5-1.2-2.9-1.7-4.2
			c-2.9-7.6-2.8-13.1,6.4-18.2c6.3-3.5,15.1-11,19.4-20.4c-7.2,0.5-20.8,3.2-39.2,14.4l-1.7,1c-0.8,0.5-1.5,1-2.3,1.4
			c-12.6,8-22.2,15.5-28.6,22.4c2.9,4.3,5.5,8.3,7.5,11.8l0.4,0.6l2.8-1.3c4.2-2,9-4.3,10.4-4.8C944.8,242.9,945,242.9,945.3,242.9z
			"/>
	</g>
	<g>
		<path class="st12" d="M986.3,305.7c-3.9-0.5-7.7-1.3-11.6-2.3c-2.3-0.4-14.9-0.2-20.6,0c0-9.1-0.6-23.9,1.6-30.7
			c0.6-1.9,1-3.8,1.2-5.7c0.5-5.4,0.5-10.9-0.1-16.3c4.6-2.7,11.9-7.6,15.2-10.1c4.7,11.7,8.2,23.9,10.3,36.2
			C984,286.4,985.4,296.1,986.3,305.7z"/>
		<path class="st9" d="M987.4,306.8l-1.2-0.2c-3.9-0.5-7.9-1.3-11.8-2.3c-1.9-0.3-13.3-0.2-20.4,0h-1v-1c0-1.5,0-3.1,0-4.9
			c-0.1-9.1-0.2-20.2,1.7-26.2c0.5-1.8,0.9-3.7,1.1-5.5c0.5-5.3,0.5-10.7-0.1-16l-0.1-0.6l0.6-0.3c4.6-2.7,11.8-7.5,15.2-10l1-0.7
			l0.5,1.2c4.7,11.8,8.2,24,10.3,36.4c1.8,9.6,3.2,19.2,4.1,29L987.4,306.8z M967.6,302.2c3.3,0,6.1,0.1,7.1,0.2
			c3.4,0.9,6.9,1.6,10.4,2.1c-0.9-9.2-2.2-18.4-4-27.5c-2-11.9-5.3-23.7-9.8-34.9c-3.5,2.5-9.5,6.4-13.7,9c0.6,5.2,0.6,10.6,0,15.8
			c-0.2,2-0.6,4-1.2,5.9c-1.8,5.5-1.7,16.6-1.6,25.5c0,1.4,0,2.7,0,3.9C958.4,302.3,963.5,302.2,967.6,302.2z"/>
	</g>
	<g>
		<path class="st12" d="M987.3,328.5c-0.3,5.6-1.6,11.1-3.8,16.3c-9.5-4-25-10.7-27.7-11c-0.4,0-0.9,0-1.3,0
			c0-4.6-0.2-11.1-1.2-12.7c-0.6-1-0.9-2.2-1.1-3.3c-0.4-2.6-0.1-5.7,1.1-6.9c0.6-0.6,0.7-3.4,0.7-7.3c5.8-0.1,18.4-0.3,20.6,0
			c3.8,1,7.6,1.8,11.6,2.3C987.2,315.9,987.3,323.4,987.3,328.5z"/>
		<path class="st9" d="M984,346.1l-3.8-1.6c-8.8-3.7-22.1-9.4-24.5-9.7c-0.3,0-0.7,0-1.1,0l-1.1,0.1v-1.1c0-9.8-0.8-11.8-1-12.1
			c-0.7-1.2-1.1-2.4-1.2-3.7c-0.4-2.7-0.2-6.2,1.4-7.9c0.2-0.4,0.4-2.7,0.4-6.6v-1h1c4.2-0.1,18.3-0.3,20.8,0
			c3.9,1,7.8,1.8,11.6,2.3l0.8,0.1l0.1,0.8c0.7,8,1,15.4,1,22.8v0.1c-0.3,5.7-1.6,11.3-3.9,16.6L984,346.1z M955.5,332.8
			c0.1,0,0.2,0,0.4,0c2.5,0.3,12.9,4.6,25.1,9.8l2,0.8c1.9-4.8,3-9.9,3.3-15c0-7-0.3-14.2-0.9-21.8c-3.7-0.5-7.3-1.3-11-2.2
			c-1.7-0.2-11-0.1-19.4,0c0,4.7-0.3,6.3-1,7c-0.9,0.9-1.2,3.5-0.8,6.1c0.1,1.1,0.5,2.1,1,3C954.6,321.1,955.5,322.6,955.5,332.8z"
			/>
	</g>
	<g>
		<path class="st12" d="M802.3,446.8c-0.1,1.6-0.4,3.5-0.8,5.6l0,0c-11.4,1.6-26.8,3.6-47.8,6.2c-20.6,2.6-46.1,7-72.2,12.1
			c-0.4-3.2-0.6-5.7-0.8-7.1c-1.1-10.9-2.3-56.2-7.4-86.3l128.4-40.3C802.6,378.5,803.6,433.1,802.3,446.8z"/>
		<path class="st9" d="M680.5,471.9l-0.1-1.1c-0.4-3.3-0.6-5.7-0.8-7.1c-0.3-3-0.6-8.9-1-16.1c-1.1-19.2-2.7-48.4-6.3-70.1l-0.1-0.9
			l130.5-41v1.3c0.9,40.6,1.9,96.1,0.6,109.8c-0.1,1.5-0.4,3.2-0.8,5.7l-0.1,0.7l-0.7,0.1c-12.3,1.7-27.9,3.7-47.9,6.2
			c-19,2.4-43.3,6.4-72.1,12L680.5,471.9z M674.3,378.1c3.6,21.6,5.2,50.3,6.2,69.3c0.4,7.2,0.7,13,1,16c0.1,1.3,0.3,3.3,0.6,6
			c28.5-5.4,52.3-9.5,71.2-11.9c19.6-2.5,35-4.5,47.1-6.1c0.4-2,0.6-3.5,0.7-4.8l0,0c1.3-13.5,0.3-67.8-0.6-108.3L674.3,378.1z"/>
	</g>
	<g>
		<path class="st12" d="M801.6,337.1l-128.4,40.3c-1-7.3-2.9-14.5-5.7-21.3c-10.3-21.4-36.1-73.1-36.1-78.4c0-0.4,0-0.8-0.1-1.1
			c12.2-1.5,16.3-4.4,19.1-7.6c3.4-4,8.3-11.7,14.8-11.7c6.5,0,14.2,10.5,19.3,10.5c3.5,0,13.4-0.6,19.3-1c2.3,3,5.1,5.4,8.4,7.3
			c20.9,10.1,18.7,7.5,26.1,2.2c7.3-5.3,15.1-11.7,26.8-4.3c11.7,7.3,10.3,7.6,11.7,5.9c1.5-1.8,5.4-5.9,11.5,1.7
			c5.3,6.8,8.6,21.8,12.6,22.9C800.9,311.2,801.3,323.4,801.6,337.1z"/>
		<path class="st9" d="M672.2,378.7l-0.2-1.2c-1-7.2-2.9-14.4-5.7-21.1c-2.3-4.8-5.4-11.3-8.9-18.4c-15.5-31.7-27.3-56.4-27.3-60.4
			c0-0.3,0-0.6-0.1-0.9l-0.3-1.1l1.1-0.1c12.6-1.6,16.1-4.6,18.5-7.3c0.5-0.6,1.1-1.3,1.6-2c3.3-4.2,8-10,13.9-10
			c3.7,0,7.6,3,11.4,5.9c2.9,2.2,5.8,4.5,8,4.5c3.4,0,13.6-0.6,19.3-1h0.5l0.3,0.4c2.2,2.9,4.9,5.2,8.1,7
			c17.5,8.4,18.1,7.9,22.4,4.3c0.7-0.6,1.6-1.3,2.6-2l0.8-0.6c7.1-5.2,15.3-11.3,27.1-3.8c3.8,2.4,6.2,4,7.9,5.1
			c1,0.7,1.7,1.2,2.1,1.4l0.1-0.1l0.3-0.3c0.6-0.8,2.5-3.2,5.5-3.1c2.4,0,4.9,1.6,7.4,4.8s4.6,8.3,6.4,12.7c1.8,4.4,3.9,9.5,5.5,10
			l0.7,0.2l0.2,7.1c0.2,8,0.5,17.7,0.8,28.3v0.7l-0.7,0.2L672.2,378.7z M632.3,277.3c0,0.1,0,0.2,0,0.3c0,3.9,16.3,37.3,27.1,59.5
			c3.4,7.1,6.6,13.6,9,18.4c2.7,6.6,4.6,13.5,5.6,20.4l126.6-39.7c-0.2-10.3-0.5-19.7-0.8-27.5l-0.2-5.8c-2.2-1.3-4-5.5-6.1-10.8
			c-1.8-4.3-3.8-9.2-6.1-12.2c-2.1-2.6-4.1-4-5.8-4c-1.4-0.1-2.7,0.8-4,2.3l-0.2,0.3c-1.3,1.6-2.1,1.1-4.9-0.9
			c-1.6-1.1-3.9-2.7-7.9-5.1c-10.7-6.7-17.9-1.4-24.9,3.7l-0.8,0.6c-1,0.7-1.8,1.4-2.5,2c-5,4.2-6.4,4.6-24.6-4
			c-3.3-1.9-6-4.3-8.4-7.1c-6.9,0.4-15.6,0.9-18.9,0.9c-2.7,0-5.8-2.4-9.2-4.9c-3.5-2.7-7-5.5-10.2-5.5c-5,0-9.3,5.3-12.3,9.3
			c-0.6,0.8-1.2,1.5-1.7,2.1C647.9,273.1,643.4,275.8,632.3,277.3z"/>
	</g>
	<g>
		<path class="st12" d="M888.1,368c0,0-20.2,34.4-35.3,57.5c-7.3,11.2-13.4,19.7-15.4,20.4c-4.3,1.4-6,2.4-36,6.5l0,0
			c0.4-2.1,0.7-4,0.8-5.6c1.3-13.7,0.3-68.3-0.7-109.7c-0.3-13.7-0.6-26-0.9-34.7c0.5,0.1,1,0,1.5-0.2c4.7-2.8,10.3-8.8,18.7-5.7
			c7.3,2.6,13.6,2.3,20.2-3.1c5.8,9.4,11.6,18.6,17,27.2C875,347.4,888.1,368,888.1,368z"/>
		<path class="st9" d="M800.3,453.7l0.2-1.4c0.4-2.4,0.7-4.1,0.8-5.5c1-10.7,0.8-47.5-0.7-109.6c-0.3-13.7-0.6-26-0.9-34.7v-1.3
			l1.3,0.3c0.3,0.1,0.5,0,0.7-0.1c0.8-0.5,1.7-1.1,2.6-1.8c4.2-3,9.6-6.7,16.9-4c7.6,2.7,13.4,1.9,19.2-2.9l0.9-0.7l0.6,1
			c5.8,9.4,11.6,18.6,17,27.2c16.7,26.7,29.8,47.4,30,47.6l0.3,0.5l-0.3,0.5c-0.2,0.3-20.4,34.7-35.3,57.6
			c-11.5,17.6-14.5,20.3-15.9,20.8l-0.9,0.3c-3.9,1.3-7.3,2.4-35.2,6.2L800.3,453.7z M801.8,303.4c0.3,8.8,0.6,20.5,0.9,33.7
			c1.5,62.2,1.7,99.1,0.7,109.8c-0.1,1.2-0.3,2.6-0.6,4.3c26.5-3.6,29.9-4.8,33.5-6l0.9-0.3c0.7-0.2,3.5-2.6,14.8-20
			c13.9-21.2,32.3-52.5,34.9-57c-2.1-3.3-14.4-22.7-29.6-47.1c-5.2-8.3-10.8-17.1-16.4-26.2c-6.1,4.6-12.5,5.4-20.3,2.6
			c-6.3-2.3-11,0.9-15.1,3.8c-0.9,0.7-1.8,1.3-2.7,1.8C802.4,303.2,802.1,303.3,801.8,303.4z"/>
	</g>
	<g>
		<path class="st12" d="M841.1,293.2c-6.6,5.4-12.9,5.7-20.2,3.1c-8.4-3-14,2.9-18.7,5.7c-0.4,0.3-1,0.4-1.5,0.2
			c-4-1.1-7.2-16.1-12.6-22.9c-6-7.6-10.1-3.5-11.5-1.7c-1.4,1.8,0,1.4-11.7-5.9c-11.7-7.3-19.4-1-26.8,4.3s-5.1,7.7-26.1-2.2
			c-3.2-1.8-6-4.3-8.4-7.3c-16.3-19.3-37.5-67.8-46.9-90.4l2-0.4l97.5-59.1l21.6,39.9l15.5,28.6c-10.6,0-11.2,4.3-11.2,10.1
			C782.2,198.2,812.8,248,841.1,293.2z"/>
		<path class="st9" d="M801.2,303.4c-0.2,0-0.4,0-0.7-0.1c-2.7-0.7-4.5-5.3-6.9-11.2c-1.8-4.3-3.8-9.2-6.1-12.2
			c-2.1-2.7-4.1-4-5.9-4l0,0c-1.4,0-2.7,0.8-3.9,2.3l-0.2,0.3c-1.3,1.7-2,1.1-4.9-0.8c-1.6-1.1-4-2.7-7.9-5.1
			c-10.7-6.6-17.9-1.4-24.9,3.7l-0.8,0.6c-1,0.7-1.7,1.4-2.4,1.9c-5,4.1-6.4,4.6-24.7-4c-3.4-2-6.3-4.5-8.8-7.6
			c-16.6-19.6-38.4-70-47.1-90.7l-0.5-1.1l3-0.5l98.3-59.6l38.3,70.8h-1.7c-9.6,0-10.2,3.4-10.2,9.1c0.3,2,10.7,20.6,58.7,97.6
			l0.5,0.7l-0.7,0.6c-6.4,5.2-13,6.2-21.2,3.3c-6.3-2.3-11.1,0.9-15.1,3.8c-0.9,0.7-1.8,1.3-2.7,1.8
			C802.2,303.3,801.7,303.4,801.2,303.4z M781.3,274C781.3,274,781.4,274,781.3,274c2.5,0,5,1.6,7.5,4.8s4.6,8.3,6.4,12.7
			c1.8,4.4,3.9,9.5,5.6,10c0.2,0,0.5,0,0.7-0.1c0.8-0.5,1.7-1.1,2.6-1.7c4.3-3,9.6-6.7,17-4.1c7.3,2.6,13,1.9,18.6-2.4
			c-51.9-83.3-58.7-96.1-58.7-98c0-5.7,0.8-10.5,10.6-11l-35.7-65.9l-96.8,58.7l-1,0.2c8.9,21.3,30.2,70,46.3,89
			c2.2,2.9,4.9,5.3,8.1,7c17.5,8.4,18.1,7.7,22.4,4.2c0.7-0.6,1.5-1.3,2.5-2l0.8-0.6c7.1-5.2,15.3-11.3,27.1-3.8
			c3.9,2.4,6.3,4.1,8,5.2c0.9,0.6,1.7,1.2,2.1,1.4l0.1-0.1l0.2-0.3C777.5,275,779.4,274,781.3,274z"/>
	</g>
	<g>
		<path class="st12" d="M884.1,185.1c-18.7,0-79.5,0.2-89.4,0h-1.2L778,156.5c17.7-4.8,53.9-14.4,89.7-22.2l1.2-0.3
			C871.3,144.6,877.6,171.2,884.1,185.1z"/>
		<path class="st9" d="M818.2,186.3c-11.2,0-20.2,0-23.6-0.1h-1.8l-16.3-30.3l1.2-0.3c22.8-6.1,57-15.1,89.8-22.2l2.2-0.5l0.2,1
			c2.4,10.7,8.7,37.1,15.1,50.9l0.7,1.4h-1.6c-5.3,0-14.1,0-24.2,0C846.8,186.2,831.1,186.3,818.2,186.3z M794.1,184.1h0.6
			c7,0.1,40.7,0.1,65.2,0c9.2,0,17.2,0,22.6,0c-6.1-13.9-11.9-38-14.4-48.9l-0.2,0.1c-32.2,7-65.6,15.7-88.5,21.9L794.1,184.1z"/>
	</g>
	<g>
		<path class="st12" d="M995.5,158.6c0,0,0,0,0,0.1c-11.8-1.2-33.8-3.4-47.2-4.9c-6.3-0.7-10.7-1.2-11.2-1.3
			c-1.5-0.4-0.6-29-0.2-41.3c0-0.4,0-0.7,0-1c13,1.2,49.7,8.2,63.4,10.8c0.6,3.2,1.2,6.6,1.8,10.1
			C1004.8,146.2,997.4,148.4,995.5,158.6z"/>
		<path class="st9" d="M996.5,159.9l-1.1-0.1c-11.9-1.2-33.8-3.4-47.2-4.9c-4.8-0.5-10.7-1.2-11.3-1.3c-1.1-0.3-2.5-0.6-1-42.3v-2
			l1.1,0.1c12.9,1.2,48.7,8,63.5,10.8l0.7,0.1l0.1,0.7c0.3,1.8,0.6,3.6,1,5.4c0.3,1.5,0.5,3,0.8,4.6c1.8,10-0.7,14.7-3.1,19.2
			c-1.3,2.5-2.7,5-3.4,8.6v1.1H996.5z M937.7,151.6c1.1,0.1,4.2,0.5,10.7,1.2c13.1,1.4,34.2,3.6,46.3,4.8c0.8-3.4,2.1-6,3.4-8.5
			c2.4-4.4,4.6-8.7,2.9-17.9c-0.3-1.5-0.5-3.1-0.8-4.6c-0.3-1.6-0.6-3.2-0.8-4.7c-14.7-2.8-48.1-9.1-61.5-10.6
			C936.9,137.8,937.1,149.4,937.7,151.6z"/>
	</g>
	<g>
		<path class="st12" d="M921.9,236.6c-2.1,2.2-3.8,4.7-5.3,7.4c-1,2-2.8,22.6-4.3,42.8c-1.1,14.4-2,28.6-2.5,35.4
			c-0.2-0.1-0.5-0.1-0.8-0.1c-2.5,0-40.1-1.3-50.9-1.7c-5.3-8.6-11.2-17.7-17-27.2c-28.3-45.3-58.8-95-58.8-98.2
			c0-5.6,0.7-10.1,11.2-10.1h1.2c9.9,0.2,70.7,0,89.4,0c1,2.3,2.3,4.5,3.8,6.5C894.6,199.9,910.7,220.1,921.9,236.6z"/>
		<path class="st9" d="M910.7,323.6l-1.2-0.4c-0.1-0.1-0.3-0.1-0.4-0.1c-2.6,0-43.1-1.4-50.9-1.7h-0.5l-0.3-0.4
			c-5.3-8.6-11.2-17.7-17-27.2c-59.1-94.6-59.1-97.7-59.1-98.8c0-6,0.9-11.1,12.2-11.1h1.2c7,0.1,40.7,0.1,65.2,0
			c10.1,0,18.8,0,24.2,0h0.7l0.3,0.6c1,2.2,2.2,4.4,3.7,6.3c6.8,8.7,22.8,28.6,34.1,45.1l0.4,0.7l-0.5,0.6c-2,2.1-3.7,4.6-5.1,7.2
			c-0.3,0.5-1.4,5.2-4.2,42.4c-0.7,9.4-1.3,18.6-1.8,25.8c-0.3,3.9-0.5,7.2-0.7,9.7L910.7,323.6z M858.6,319.4
			c13,0.5,46.7,1.6,50.2,1.7c0.2-2.3,0.4-5.2,0.6-8.6c0.5-7.2,1.1-16.4,1.8-25.8c3-40.4,4.1-42.5,4.5-43.2c1.4-2.5,3-4.9,4.9-7
			c-11.2-16.3-26.8-35.8-33.5-44.3c-1.5-2-2.8-4.1-3.7-6.3c-5.4,0-13.9,0-23.6,0c-24.6,0-58.2,0.1-65.2,0h-1.2
			c-9.6,0-10.2,3.4-10.2,9.1c0.2,1.7,8.2,16.7,58.7,97.7C847.7,302,853.4,311,858.6,319.4z"/>
	</g>
	<g>
		<path class="st13" d="M951.2,213.5c-15.7,9.9-24.5,17.7-29.3,23.1c-11.3-16.6-27.4-36.7-34.1-44.9c-1.5-2-2.8-4.2-3.8-6.5
			c-6.5-14-12.8-40.6-15.2-51.1c48.8-11,52.5-24.8,66.7-23.9l0,0l1.3,1.1c-0.4,12.3-1.3,40.9,0.2,41.3c0.5,0,4.9,0.6,11.2,1.3
			L951.2,213.5z"/>
		<path class="st9" d="M921.8,238.3l-0.7-1.1c-12-17.5-29.1-38.7-34-44.9c-1.6-2.1-2.9-4.4-3.9-6.7c-6.5-14.1-12.8-40.6-15.2-51.3
			l-0.2-1l1-0.2c27.9-6.2,41.1-13.5,49.7-18.3c6.6-3.6,11-6,17.3-5.6h0.3l1.9,1.6v0.5c-0.9,26.4-0.7,37.9-0.2,40.3
			c0.5,0,1.2,0.1,2.5,0.3c2,0.2,4.8,0.6,8.2,0.9l0.8,0.1l3,61.1l-0.5,0.3c-13,8.2-22.7,15.9-29.1,23L921.8,238.3z M870,134.8
			c2.5,11.3,8.6,36.4,14.9,50c1,2.3,2.2,4.4,3.7,6.3c4.8,5.9,21.4,26.6,33.4,43.9c6.4-6.9,15.9-14.3,28.2-22.1l-2.9-58.2
			c-3-0.3-5.5-0.6-7.3-0.9c-1.4-0.2-2.6-0.3-2.8-0.3h-0.2c-1.1-0.3-2.4-0.6-1-41.8l-0.7-0.6c-5.5-0.3-9.5,1.9-15.9,5.3
			C910.7,121.3,897.5,128.5,870,134.8z"/>
	</g>
	<g>
		<path class="st12" d="M929.9,249.1L929.9,249.1c-0.2,0.6-0.4,1.3-0.5,2c-0.5,3.3-1.1,10.3-1.7,18.8c-0.4,5-0.7,10.5-1.1,16.2
			l-14.4,0.7c1.5-20,3.3-40.7,4.3-42.8c1.4-2.7,3.2-5.2,5.3-7.4C925.2,241.1,927.8,245.3,929.9,249.1z"/>
		<path class="st9" d="M911.2,287.7l0.1-1.1c3-40.4,4.1-42.5,4.4-43.1c1.5-2.8,3.3-5.3,5.4-7.6l0.8-0.9l0.7,1
			c2.9,4.1,5.5,8.4,8,12.6l0.2,0.4l-0.2,0.4c-0.2,0.6-0.4,1.1-0.4,1.7c-0.4,3-1,9-1.7,18.8c-0.4,5-0.7,10.5-1.1,16.2l-0.1,0.9
			L911.2,287.7z M921.8,238.2c-1.7,1.9-3.1,4-4.3,6.2c-0.4,0.7-1.5,6.1-4.1,41.3l12.3-0.6c0.3-5.3,0.7-10.6,1-15.3
			c0.7-9.9,1.3-15.9,1.7-18.9c0.1-0.6,0.2-1.2,0.4-1.7C926.7,245.4,924.4,241.8,921.8,238.2z"/>
	</g>
	<g>
		<path class="st12" d="M956.8,266.9c-2.4,0.5-6,1.4-8.5,2.2c-3.1,1-15.7,1-20.6,0.9c0.6-8.6,1.2-15.5,1.7-18.8l1.3-0.6
			c4.5-2.2,12.2-5.8,14-6.6c2.6-1.1,0.5,6.7,0,9.5c-0.5,2.7,4.4,0.7,8.7-1c1.1-0.5,2.2-1.1,3.3-1.8
			C957.3,256,957.4,261.4,956.8,266.9z"/>
		<path class="st9" d="M932.4,271c-2.2,0-3.9,0-4.7,0h-1.1l0.1-1.1c0.7-9.9,1.3-15.9,1.7-18.9l0.1-0.5l1.8-0.8
			c8.1-3.9,12.7-6,14.1-6.6c0.9-0.4,1.6,0,1.9,0.2c1.3,1.1,0.8,4.1-0.1,8.6c-0.2,0.7-0.3,1.4-0.4,1.8c0,0.2,0,0.2,0,0.2
			c0.7,0.3,4.6-1.3,6.8-2.2l0.5-0.2c1.1-0.5,2.1-1,3.1-1.7l1.3-0.9l0.2,1.6c0.6,5.4,0.6,11,0.1,16.5l-0.1,0.7l-0.7,0.2
			c-2.4,0.5-5.9,1.3-8.4,2.1C946,270.8,937.9,271,932.4,271z M928.8,269c6.4,0.1,16.6,0,19.2-0.9c2.3-0.7,5.4-1.5,7.9-2
			c0.4-4.6,0.4-9.2,0-13.8c-0.7,0.4-1.4,0.7-2.1,1l-0.5,0.2c-4.5,1.8-7.4,2.9-8.9,1.8c-0.4-0.3-0.8-0.9-0.6-2
			c0.1-0.5,0.2-1.2,0.4-1.9c0.3-1.6,1.1-5.2,0.8-6.4c-1.7,0.7-6.3,2.9-13.9,6.5l-0.8,0.4C929.9,254.8,929.4,260.2,928.8,269z"/>
	</g>
	<g>
		<path class="st12" d="M954.5,333.8c-5.8-0.1-21.8,1.4-25.3,0c-1.7-0.8-3.4-1.8-5-2.9c0.2-3.3,0.4-7.9,0.7-13.2h27.4
			c0.1,1.2,0.5,2.3,1.1,3.3C954.3,322.6,954.5,329.1,954.5,333.8z"/>
		<path class="st9" d="M935.4,335.4c-3.1,0-5.4-0.2-6.6-0.7c-1.8-0.9-3.6-1.9-5.2-3l-0.4-0.3v-0.6c0.2-3.3,0.4-8,0.7-13.2l0.1-0.9
			h29.2l0.1,0.9c0.1,1.1,0.5,2.1,1,3c0.3,0.5,1.3,2.1,1.3,13.2v1h-1c-1.9,0-5.1,0.1-8.5,0.3C941.9,335.2,938.3,335.4,935.4,335.4z
			 M925.2,330.4c1.4,0.9,2.9,1.8,4.4,2.5c2,0.8,10.3,0.4,16.3,0.2c2.8-0.1,5.5-0.3,7.5-0.3c-0.1-9-0.8-10.8-1-11.2
			c-0.5-0.9-0.9-1.9-1.1-2.9h-25.6C925.5,323.3,925.3,327.3,925.2,330.4z"/>
	</g>
	<g>
		<path class="st12" d="M926.7,286.1c-0.7,10.9-1.3,22.3-1.8,31.6c-0.3,5.2-0.5,9.9-0.7,13.2c-4.9-3.1-11.6-7.7-14.4-8.7
			c0.4-6.8,1.4-21,2.5-35.4L926.7,286.1z"/>
		<path class="st9" d="M925.1,332.7l-1.4-0.9c-1.1-0.7-2.3-1.5-3.5-2.3c-4-2.6-8.6-5.6-10.6-6.2l-0.7-0.2v-0.8
			c0.4-6.5,1.4-20.4,2.5-35.4l0.1-0.9l16.4-0.7l-0.1,1.1c-0.6,8.9-1.1,19.2-1.8,31.6c-0.3,5.2-0.5,9.9-0.7,13.2L925.1,332.7z
			 M910.8,321.5c2.4,1,6.4,3.6,10.4,6.2c0.7,0.4,1.4,0.9,2,1.3c0.2-3.1,0.4-7,0.6-11.5c0.6-11.9,1.2-21.8,1.7-30.5l-12.4,0.6
			C912.2,301.9,911.3,314.9,910.8,321.5z"/>
	</g>
	<g>
		<path class="st12" d="M955.6,272.6c-2.2,6.8-1.6,21.7-1.6,30.7c0,4-0.1,6.8-0.7,7.3c-1.2,1.2-1.5,4.3-1.1,6.9h-27.4
			c0.5-9.3,1.1-20.7,1.8-31.6c0.3-5.7,0.7-11.2,1.1-16.2c4.9,0,17.5,0.1,20.6-0.9c2.4-0.8,6-1.6,8.5-2.2
			C956.6,268.8,956.2,270.8,955.6,272.6z"/>
		<path class="st9" d="M953.3,318.7h-29.6l0.1-1.1c0.7-12.4,1.3-22.7,1.8-31.6c0.3-5.7,0.7-11.2,1.1-16.2l0.1-0.9h2.3
			c5.2,0,16.2,0,18.8-0.8c2.3-0.8,5.6-1.5,8.6-2.2l1.4-0.3l-0.1,1.4c-0.2,2-0.6,4-1.2,5.9l0,0c-1.7,5.4-1.6,16.2-1.6,24.9
			c0,2,0,3.8,0,5.5c0,5.9-0.3,7.4-1,8.1c-0.9,0.9-1.2,3.5-0.8,6.1L953.3,318.7z M925.9,316.7H951c-0.2-2.5,0.2-5.3,1.5-6.6
			c0.2-0.3,0.4-1.7,0.4-6.6c0-1.7,0-3.5,0-5.5c-0.1-8.9-0.2-19.8,1.7-25.6c0.4-1.4,0.7-2.7,1-4.2c-2.5,0.6-5.1,1.2-6.9,1.8
			c-2.8,0.9-11.5,0.9-19.5,1h-0.5c-0.3,4.7-0.7,10-1,15.3C927.1,294.8,926.5,304.8,925.9,316.7z"/>
	</g>
</g>
</svg>
