<?xml version="1.0" encoding="utf-8"?>
<!-- Generator: Adobe Illustrator 26.0.0, SVG Export Plug-In . SVG Version: 6.00 Build 0)  -->
<svg version="1.1" id="Layer_1" xmlns="http://www.w3.org/2000/svg" xmlns:xlink="http://www.w3.org/1999/xlink" x="0px" y="0px"
	 viewBox="0 0 1116 360" style="enable-background:new 0 0 1116 360;" xml:space="preserve">
<style type="text/css">
	.st0{fill:#ED2F38;}
	.st1{opacity:0.24;}
	.st2{opacity:0.19;fill:#FFFFFF;enable-background:new    ;}
	.st3{font-family:'Poppins-ExtraBold';}
	.st4{font-size:65.16px;}
	.st5{font-size:71.62px;}
	.st6{fill:#FFFFFF;}
	.st7{fill:#46506D;stroke:#1B1E2A;stroke-miterlimit:10;}
	.st8{fill:#1B1E2A;stroke:#1B1E2A;stroke-miterlimit:10;}
	.st9{fill:#1B1E2A;}
	.st10{font-family:'Poppins-Regular';}
	.st11{font-size:69.773px;}
	.st12{fill:#46506D;}
	.st13{fill:#1B1D29;}
</style>
<rect class="st0" width="1116" height="360"/>
<g>
	<g class="st1">
		<text transform="matrix(1 0 0 1 -143.1066 115.6999)" class="st2 st3 st4">DUMAGUETE</text>
		<text transform="matrix(1 0 0 1 285.7234 115.6999)" class="st2 st3 st4">DUMAGUETE</text>
	</g>
	<g class="st1">
		<text transform="matrix(1 0 0 1 -397.3566 176.5399)" class="st2 st3 st4">DUMAGUETE</text>
		<text transform="matrix(1 0 0 1 31.4734 176.5399)" class="st2 st3 st4">DUMAGUETE</text>
	</g>
	<g class="st1">
		<text transform="matrix(1 0 0 1 -103.7266 234.0798)" class="st2 st3 st4">DUMAGUETE</text>
		<text transform="matrix(1 0 0 1 325.1034 234.0798)" class="st2 st3 st4">DUMAGUETE</text>
	</g>
	<g class="st1">
		<text transform="matrix(1 0 0 1 -400.5767 295.0599)" class="st2 st3 st4">DUMAGUETE</text>
		<text transform="matrix(1 0 0 1 28.2534 295.0599)" class="st2 st3 st4">DUMAGUETE</text>
	</g>
	<g class="st1">
		<text transform="matrix(1 0 0 1 -211.1266 355.1899)" class="st2 st3 st4">DUMAGUETE</text>
		<text transform="matrix(1 0 0 1 217.7034 355.1899)" class="st2 st3 st4">DUMAGUETE</text>
	</g>
	<g class="st1">
		<text transform="matrix(1 0 0 1 -51.9866 59.0099)" class="st2 st3 st5">DUMAGUETE</text>
	</g>
	<g class="st1">
		<text transform="matrix(1 0 0 1 714.0093 115.6999)" class="st2 st3 st4">DUMAGUETE</text>
	</g>
	<g class="st1">
		<text transform="matrix(1 0 0 1 459.7594 176.5399)" class="st2 st3 st4">DUMAGUETE</text>
		<text transform="matrix(1 0 0 1 888.5894 176.5399)" class="st2 st3 st4">DUMAGUETE</text>
	</g>
	<g class="st1">
		<text transform="matrix(1 0 0 1 753.3894 234.0798)" class="st2 st3 st4">DUMAGUETE</text>
	</g>
	<g class="st1">
		<text transform="matrix(1 0 0 1 456.5393 295.0598)" class="st2 st3 st4">DUMAGUETE</text>
		<text transform="matrix(1 0 0 1 885.3694 295.0598)" class="st2 st3 st4">DUMAGUETE</text>
	</g>
	<g class="st1">
		<text transform="matrix(1 0 0 1 645.9893 355.1898)" class="st2 st3 st4">DUMAGUETE</text>
		<text transform="matrix(1 0 0 1 1074.8193 355.1898)" class="st2 st3 st4">DUMAGUETE</text>
	</g>
	<g class="st1">
		<text transform="matrix(1 0 0 1 413.5199 59.0103)" class="st2 st3 st5">DUMAGUETE</text>
	</g>
	<g class="st1">
		<text transform="matrix(1 0 0 1 876.388 59.5117)" class="st2 st3 st5">DUMAGUETE</text>
	</g>
</g>
<g>
	<text transform="matrix(1 0 0 1 184.1554 213.1137)" class="st9 st10 st11">MANGNAO</text>
	<g>
		<g>
			<path class="st6" d="M171.9,154.9L171.9,154.9L171.9,154.9c0.1-0.4,0.2-0.8,0.4-1.1c0.7-1.2,1-2.6,0.7-4l-0.1-0.7
				c-0.1-0.3-0.1-0.6-0.2-1l0,0c-0.4-2.1-0.7-3.8-1.3-5.2c-0.9-2.5-1.7-5-2.3-7.5c-0.3-1.4-0.5-4.3-0.5-4.3
				c-0.1-0.8-0.7-1.4-1.5-1.3c-0.5,0-0.9,0.3-1.2,0.7c-0.7,1.1-1.7,2.3-2.1,2.5c-0.6,0.2-2.8,0.3-4,0.3c-1.6,0.1-2.2,0.1-2.6,0.3
				c-0.4,0.1-0.8,0.1-1.3,0c-0.8-0.2-5.9-0.6-7.7,0.1c-0.6,0.2-1,0.4-1.4,0.6l0,0l-0.4,0.2c-0.2,0.1-0.5,0.3-0.7,0.4
				c-2.5,0.3-5.1,0.5-7.7,0.6l0,0h-0.7c-4.3,0.1-6.9-0.4-7.2-0.6c-0.1,0-0.1-0.1-0.2-0.1c-0.9-0.4-3.3-1.5-6.2-1l0,0h-0.1l0,0h-0.2
				c-3.1,0.7-4.8,1.5-5.2,1.7c-0.6,0.2-5.1,1.7-7,2.3c-0.5-0.8-1.2-2.2-1.6-3.1c-1.4-2.8-1.7-3.2-2.1-3.5c-0.5-0.3-3.7-1.5-4.6-1.8
				c-4.6-1.6-4.8-1.5-5.4-1.1c-0.4,0.2-0.5,0.4-1.7,2.4c-1,1.7-3.7,6.2-4.6,6.8c-0.5,0.2-2.9,1.1-5.5,2.1c-3.3,1.3-7.5,2.9-10.9,4.2
				c-1.9,0.7-3.2,1.3-4.2,1.7c-0.6,0.2-1,0.4-1.3,0.5c-0.4,0.2-1.5,0.7-1.2,1.8c0.1,0.5,0.2,0.6,1.8,2.4c1.7,1.9,4.8,5.3,5.8,7.2
				c0.5,0.9,1.5,3.2,2.8,6.4l0,0c1,2.5,2.2,5.5,3.2,8.2l0,0c0.9,2.3,1.5,4.2,1.9,5.3c0.7,2.1,3.1,9.8,7,22.2l0,0l1.7,5.5l2,7.1l0,0
				l8.4,29.4c0.2,0.6,0.7,1,1.4,1c0.1,0,0.1,0,0.2,0l17.5-2.1h0.1h0.1l0,0l12.7-2.2l0,0h0.2h0.1l14.6-3.7c0.5-0.1,0.9-0.5,1-1
				c0.5-2,1.9-5.6,3.2-6.6c0.1-0.1,0.2-0.2,0.3-0.2c0,0,0.1-0.1,0.2-0.3l0,0c4-4.8,4-5.8,4-6.3v-0.3c0.1-4.9,0.8-6.5,1.1-7l0.1-0.2
				l0,0c1-1.4,1.7-3,2-4.7c0.4-1.9,0.6-3.2,0.7-3.7l0,0l0,0l0.1-0.4v-0.1c0.3-2.8,1.1-5.5,2.2-8.1c0.8-1.6,1.7-3.1,2.9-4.5
				c0.7-0.9,1.4-1.7,1.7-2.7c0.1-0.4,0.3-0.9,0.5-1.3c0.1-0.3,0.2-0.5,0.3-0.8l0,0c0.4-1,0.7-2.1,0.7-3.2c0-0.9,0-2.2-0.2-3.9l0,0
				c-0.2-1.7-0.4-3.3-0.7-5c-0.4-2.2-0.9-4.3-1.7-6.3l0,0l0,0c-0.1-0.3-0.2-0.5-0.3-0.8c-0.1-0.2-0.2-0.4-0.2-0.7
				c0,0,0.1-0.1,0.5-0.4c1.4-0.8,3.2-2.4,4.1-4.4l0,0c0.2-0.5,0.3-0.9,0.4-1.4c0.2-1.2,0.1-2.4-0.3-3.5
				C171.9,155.8,171.8,155.4,171.9,154.9z"/>
		</g>
		<g>
			<path class="st12" d="M121.8,172.7c-1,0.1-2.7,0.2-3.2,0.2c-0.9,0-2.1-1.7-3.2-1.7s-1.9,1.3-2.5,2c-0.5,0.5-1.2,1-3.2,1.3
				c-0.4,0.1-0.9,0.1-1.5,0.1c-3.2,0.2-4.3-1.3-6.2-1.6c-1.8-0.4-1.9,0.3-3.2,0.6c-1.2,0.3-2.1-1.4-5.4-3.1c-3.3-1.6-3-0.5-4.4-0.2
				c-1.5,0.4-3.8-1.8-4.1-1.7c-0.2,0.1-1.2,1.7-2,3c-1-2.6-2.1-5.6-3.2-8.2c2-0.3,6.4-0.9,14.2-2.2c9.9-1.6,18.3-3.1,20.1-3.4
				C115.5,161.4,119,169.5,121.8,172.7z"/>
			<path class="st9" d="M107.6,174.7c-1.8,0-2.9-0.5-3.8-1c-0.6-0.3-1.1-0.5-1.8-0.7c-1.2-0.2-1.6,0-2.1,0.2c-0.3,0.1-0.6,0.3-1,0.4
				c-0.7,0.2-1.3-0.3-2.3-1c-0.7-0.6-1.8-1.3-3.3-2.1c-2.4-1.2-2.8-0.9-3.4-0.6c-0.2,0.1-0.5,0.3-0.9,0.4c-1.1,0.3-2.5-0.7-3.4-1.3
				c-0.3-0.2-0.6-0.4-0.7-0.4c-0.1,0.1-0.5,0.6-1.9,2.9l-0.2,0.3l-0.1-0.3c-1-2.7-2.2-5.7-3.2-8.2l-0.1-0.2h0.2
				c2-0.3,6.4-0.9,14.2-2.2c10.4-1.7,19.1-3.2,20.1-3.4h0.1l0.1,0.1c1.4,3.4,5.1,11.8,7.8,15.1l0.2,0.3h-0.3
				c-1.1,0.1-2.7,0.2-3.2,0.2s-1-0.4-1.5-0.8c-0.6-0.5-1.2-0.9-1.7-0.9c-0.8,0-1.5,0.9-2,1.5c-0.1,0.1-0.2,0.3-0.3,0.4
				c-0.5,0.6-1.3,1.1-3.3,1.3c-0.4,0.1-0.9,0.1-1.5,0.1C108,174.7,107.8,174.7,107.6,174.7z M101,172.6c0.3,0,0.6,0,1,0.1
				c0.7,0.1,1.2,0.4,1.8,0.7c1,0.5,2.2,1.1,4.3,0.9c0.6,0,1.1-0.1,1.5-0.1c2.1-0.3,2.7-0.8,3.1-1.2c0.1-0.1,0.2-0.2,0.3-0.4
				c0.6-0.7,1.3-1.6,2.3-1.6c0.6,0,1.3,0.5,1.9,1c0.5,0.4,1,0.8,1.3,0.8c0.5,0,2.1-0.1,2.9-0.1c-2.7-3.4-6.2-11.3-7.6-14.8
				c-1.5,0.3-9.9,1.7-20,3.4c-7.6,1.2-12,1.9-14,2.2c1,2.4,2.1,5.2,3,7.7c1.6-2.7,1.8-2.7,1.9-2.8c0.2,0,0.4,0.1,1,0.5
				c0.8,0.6,2.2,1.5,3.1,1.3c0.4-0.1,0.6-0.2,0.8-0.4c0.8-0.4,1.3-0.6,3.7,0.6c1.6,0.8,2.6,1.5,3.4,2.1c0.9,0.7,1.4,1.1,2,0.9
				c0.4-0.1,0.7-0.2,0.9-0.3C100.1,172.7,100.4,172.6,101,172.6z"/>
		</g>
		<g>
			<path class="st12" d="M130.6,147.7l-16.3,9.9l-0.3,0.1c-1.8,0.3-10.2,1.8-20.1,3.4c-7.8,1.3-12.3,1.9-14.2,2.2
				c-1.2-2.9-2.3-5.5-2.9-6.6c-1.6-2.9-7.4-8.8-7.5-9.1s20.7-8.1,22.3-8.8s6.1-9.1,6.5-9.3c0.3-0.2,8.1,2.6,8.6,2.9
				c0.5,0.3,3.5,7.1,4,7.1s7.8-2.4,8.2-2.6c0.4-0.2,1.9-0.9,4.9-1.6c0.1,0,0.1,0,0.2,0L130.6,147.7z"/>
			<path class="st9" d="M79.5,163.4v-0.1c-0.9-2.3-2.2-5.3-2.9-6.5c-1.1-1.9-4.1-5.3-6-7.4c-1.3-1.5-1.5-1.7-1.5-1.8
				c0-0.2-0.1-0.3,16.8-6.8c2.9-1.1,5.1-2,5.6-2.2c1.1-0.5,3.7-4.9,5.2-7.3c0.9-1.5,1.1-1.9,1.3-2c0.5-0.3,8.7,2.9,8.7,2.9
				c0.2,0.1,0.7,1,1.7,3c0.8,1.6,2,3.9,2.3,4.1c0.5,0,7.7-2.4,8.1-2.6c0.2-0.1,1.8-0.9,4.9-1.6c0.1,0,0.2,0,0.2,0h0.1l6.8,12.6
				l-16.5,10l-0.3,0.1c-0.4,0.1-9.3,1.6-20.1,3.4c-7.8,1.3-12.3,1.9-14.2,2.2L79.5,163.4z M69.5,147.6c0.2,0.2,0.8,0.9,1.4,1.6
				c1.8,2,4.9,5.5,6,7.4c0.7,1.2,1.9,4.2,2.8,6.5c2-0.3,6.4-0.9,14.1-2.2c10.8-1.8,19.7-3.3,20.1-3.4l0.3-0.1l16.1-9.8l-6.5-12.1
				h-0.1c-3.1,0.7-4.7,1.5-4.9,1.5c-0.3,0.2-7.7,2.6-8.3,2.6c-0.4,0-0.9-1-2.5-4.2c-0.7-1.3-1.4-2.7-1.6-2.9
				c-0.5-0.3-7.7-2.9-8.4-2.9c-0.1,0.1-0.6,1-1.1,1.8c-2.1,3.5-4.2,7-5.3,7.4c-0.5,0.2-2.7,1.1-5.6,2.2
				C80.2,143.3,70.6,147,69.5,147.6z"/>
		</g>
		<g>
			<path class="st12" d="M116.6,191.2L91.7,199c-2.2-7.2-6-19.3-7-22.2c-0.4-1.2-1.1-3.2-2-5.4c0.8-1.3,1.8-2.9,2-3
				c0.3-0.1,2.6,2.1,4.1,1.7s1.1-1.4,4.4,0.2c3.3,1.6,4.2,3.3,5.4,3.1c1.2-0.3,1.3-0.9,3.2-0.6c1.8,0.4,2.9,1.8,6.2,1.6
				c0.6,0,1.1-0.1,1.5-0.1c0,0.1,0,0.1,0,0.2c0,0.9,4.3,9.5,6,13.1C116.2,188.8,116.5,190,116.6,191.2z"/>
			<path class="st9" d="M91.6,199.2V199c-1.4-4.4-5.9-19-7-22.2c-0.4-1.2-1.1-3.2-2-5.4v-0.1v-0.1c1.8-3,2-3,2.1-3.1
				c0.2,0,0.4,0.1,1,0.5c0.8,0.5,2.2,1.5,3.1,1.2c0.4-0.1,0.6-0.2,0.8-0.4c0.8-0.4,1.3-0.6,3.7,0.6c1.6,0.8,2.6,1.5,3.4,2.1
				c0.9,0.7,1.4,1.1,2,0.9c0.4-0.1,0.7-0.2,0.9-0.3c0.6-0.3,1-0.5,2.3-0.2c0.7,0.1,1.2,0.4,1.8,0.7c1,0.5,2.2,1.1,4.3,0.9
				c0.6,0,1.1-0.1,1.5-0.1h0.1v0.1c0,0.1,0,0.2,0,0.2c0,0.7,2.8,6.5,4.7,10.4c0.5,1,0.9,1.9,1.3,2.6c0.5,1.2,0.8,2.4,1,3.6v0.1h-0.1
				L91.6,199.2z M83,171.4c0.8,2.2,1.5,4.1,1.9,5.3c1.1,3.2,5.5,17.5,6.9,22.1l24.6-7.7c-0.2-1.2-0.5-2.3-0.9-3.4
				c-0.3-0.7-0.8-1.6-1.3-2.6c-2.6-5.3-4.8-9.8-4.8-10.5l0,0c-0.4,0-0.8,0.1-1.3,0.1c-2.1,0.1-3.4-0.5-4.4-1
				c-0.6-0.3-1.1-0.5-1.8-0.7c-1.2-0.2-1.6,0-2.1,0.2c-0.3,0.1-0.6,0.3-1,0.4c-0.7,0.2-1.3-0.3-2.3-1c-0.7-0.6-1.8-1.3-3.3-2.1
				c-2.4-1.2-2.8-0.9-3.4-0.6c-0.2,0.1-0.5,0.3-0.9,0.4c-1.1,0.3-2.5-0.7-3.4-1.3c-0.3-0.2-0.6-0.4-0.7-0.4
				C84.8,168.7,84.4,169.2,83,171.4z"/>
		</g>
		<g>
			<path class="st12" d="M118,206.8c-8.8,1.7-18.2,3.8-22.5,4.8l-2-7.1c0,0-0.7-2.3-1.7-5.5l24.9-7.8c0.9,5,1.1,12.6,1.2,14.4
				C117.9,205.8,117.9,206.3,118,206.8z"/>
			<path class="st9" d="M95.4,211.8l-2.1-7.2l0,0c0,0-0.7-2.3-1.7-5.5v-0.2l25.2-7.9v0.2c0.6,3.6,0.9,8.5,1.1,11.7
				c0.1,1.2,0.1,2.2,0.2,2.7c0,0.2,0.1,0.6,0.1,1.2v0.2H118C108.9,208.8,99.2,211,95.4,211.8L95.4,211.8z M91.9,199.1
				c1,3.2,1.7,5.4,1.7,5.4l2,6.9c3.8-0.9,13.2-3,22.2-4.8c-0.1-0.5-0.1-0.8-0.1-1c-0.1-0.5-0.1-1.5-0.2-2.7c-0.2-3.2-0.4-7.9-1-11.5
				L91.9,199.1z"/>
		</g>
		<g>
			<path class="st12" d="M121.5,238.9L121.5,238.9l-17.6,2.1l-8.4-29.4c4.3-1,13.7-3.1,22.5-4.8c0.5,4.9,2.3,21.2,2.5,25.2
				C120.6,234.3,121,236.6,121.5,238.9z"/>
			<path class="st9" d="M103.8,241.2l-8.5-29.7h0.2c2.9-0.7,12.9-3,22.5-4.8h0.2l0.2,1.8c0.6,6,2.2,20,2.3,23.6
				c0.1,2.3,0.5,4.6,1.1,6.9v0.2l-0.3,0.1L103.8,241.2z M95.7,211.7l8.4,29.1l17.3-2.1c-0.6-2.2-0.9-4.5-1-6.7
				c-0.1-3.6-1.7-17.6-2.3-23.5l-0.2-1.4C108.5,208.8,98.7,211,95.7,211.7z"/>
		</g>
		<g>
			<path class="st12" d="M133.4,219c-0.2,0.6,0.6,13.3,0.9,17.6l-12.7,2.2c-0.6-2.3-0.9-4.6-1.1-6.9c-0.2-4-1.9-20.2-2.5-25.2
				c4.4-0.8,8.6-1.6,12.1-2s6.1-0.8,8-1c-0.5,2.3-1.1,4.5-1.8,6.7C135,214.5,133.5,218.6,133.4,219z"/>
			<path class="st9" d="M121.4,239v-0.1c-0.6-2.3-0.9-4.6-1.1-6.9c-0.1-3.6-1.7-17.6-2.3-23.5l-0.2-1.8h0.2c4.9-0.9,9-1.6,12.1-2
				c3.3-0.4,6-0.8,8-1h0.2v0.2c-0.5,2.3-1.1,4.5-1.8,6.7c-0.9,2.8-1.8,5.6-2.4,7.3c-0.2,0.7-0.4,1.2-0.4,1.3
				c-0.1,0.5,0.4,9.4,0.9,17.5v0.1L121.4,239z M118.2,206.9l0.2,1.5c0.6,6,2.2,19.9,2.3,23.5c0.1,2.3,0.5,4.5,1,6.7l12.4-2.2
				c-0.3-5.2-1-16.9-0.8-17.5l0,0c0-0.1,0.2-0.6,0.4-1.3c0.6-1.7,1.5-4.4,2.4-7.3c0.7-2.1,1.3-4.3,1.7-6.4c-2,0.3-4.6,0.6-7.8,1
				C127,205.3,123,206,118.2,206.9z"/>
		</g>
		<g>
			<path class="st12" d="M153.1,225.3l-0.2,0.3c-2.3,1.6-3.8,7.4-3.8,7.4l-14.6,3.7h-0.2c-0.3-4.3-1-17-0.9-17.6
				c0.1-0.4,1.6-4.5,2.9-8.6c1,2.5,3.1,7,3.7,7.6C140.7,218.7,149.6,223.4,153.1,225.3z"/>
			<path class="st9" d="M134.1,236.8v-0.2c-0.1-1.7-1-16.9-0.8-17.7c0-0.1,0.2-0.7,0.5-1.4c0.6-1.6,1.5-4.4,2.4-7.2l0.1-0.4l0.2,0.4
				c1.4,3.4,3.1,7.1,3.7,7.6c0.8,0.7,10.2,5.7,13.1,7.2l0.2,0.1l-0.4,0.5c-2.2,1.6-3.7,7.2-3.7,7.3v0.1L134.1,236.8z M136.3,210.9
				c-0.8,2.6-1.7,5.2-2.2,6.8c-0.3,0.7-0.4,1.3-0.5,1.4c-0.1,0.5,0.4,10.6,0.8,17.4l14.5-3.7c0.2-0.8,1.7-5.8,3.8-7.4l0.1-0.1
				c-3.8-2-12.2-6.4-13-7.1C139.1,217.5,137,212.6,136.3,210.9z"/>
		</g>
		<g>
			<path class="st13" d="M158.4,211.6c-0.1,0.1-0.1,0.1-0.1,0.1c-1.4,1.8-1.4,7-1.5,8.1c0,0.9-2.9,4.4-3.7,5.4
				c-3.5-1.9-12.4-6.5-13.1-7.2c-0.7-0.6-2.7-5.2-3.7-7.6c0.7-2.2,1.3-4.4,1.8-6.7l0,0c2.4,0.3,6.9,2.8,8.4,3.4
				C147.6,207.6,154.7,210.2,158.4,211.6z"/>
			<path class="st9" d="M153.2,225.5l-0.1-0.1c-3.7-1.9-12.4-6.5-13.1-7.2c-0.7-0.7-2.9-5.6-3.8-7.7v-0.1v-0.1
				c0.7-2.2,1.3-4.4,1.8-6.7v-0.2h0.2c1.7,0.2,4.5,1.6,6.6,2.6c0.8,0.4,1.4,0.7,1.9,0.9c1.1,0.4,7.9,2.9,11.5,4.3l0.6,0.2l-0.1,0.2
				c-0.1,0.1-0.1,0.1-0.1,0.1c-1.2,1.7-1.4,6.2-1.4,7.7v0.3c0,0.9-2.3,3.8-3.7,5.5L153.2,225.5z M136.5,210.4
				c1.8,4.3,3.2,7.1,3.7,7.5c0.7,0.7,9.9,5.5,13,7.1c2.2-2.6,3.5-4.6,3.6-5.2v-0.3c0-1.5,0.2-6.1,1.5-7.9l-0.2-0.1
				c-3.9-1.5-10.4-3.9-11.5-4.3c-0.4-0.2-1.1-0.5-1.9-0.9c-1.9-1-4.6-2.2-6.3-2.5C137.7,206.1,137.1,208.3,136.5,210.4z"/>
		</g>
		<g>
			<path class="st12" d="M160.8,203.8c-0.1,0.6-0.3,1.9-0.7,3.7c-0.3,1.5-0.9,2.9-1.7,4.1c-3.7-1.4-10.8-4-11.9-4.4
				c-1.5-0.6-6-3.1-8.4-3.4c5-0.7,5.3-0.9,6-1.1c0.3-0.1,1.3-1.5,2.6-3.4c1.2,0.6,3.5,1.7,4.6,2
				C152.5,201.7,158.6,203.3,160.8,203.8z"/>
			<path class="st9" d="M158.4,211.8h-0.1c-3.7-1.4-10.8-4-11.9-4.4c-0.4-0.2-1.1-0.5-1.9-0.9c-2-1-4.7-2.3-6.4-2.5l-1.3-0.2
				l1.3-0.2c4.6-0.6,5.2-0.8,5.8-1h0.2c0.2-0.1,0.7-0.7,2.5-3.3l0.1-0.1l0.1,0.1c1,0.5,3.4,1.7,4.6,2c0.9,0.3,4.2,1.1,9.5,2.5h0.1
				v0.2c-0.1,0.7-0.4,2.2-0.7,3.7s-0.9,2.9-1.8,4.2L158.4,211.8z M139.1,203.8c1.7,0.5,3.9,1.5,5.6,2.3c0.8,0.4,1.5,0.7,1.9,0.9
				c1.1,0.4,8,3,11.8,4.4c0.8-1.2,1.4-2.5,1.6-3.9c0.3-1.4,0.5-2.8,0.6-3.5c-5.3-1.4-8.5-2.2-9.4-2.5c-1.1-0.4-3.4-1.5-4.5-2
				c-1.8,2.8-2.3,3.3-2.6,3.3H144C143.4,203.1,142.9,203.2,139.1,203.8z"/>
		</g>
		<g>
			<path class="st12" d="M168.5,185.8c-0.3,0.7-0.5,1.4-0.8,2.1c-0.6,1.7-2.6,3-4.5,7c-1.2,2.7-2,5.6-2.4,8.5c0,0,0,0.1-0.1,0.4
				c-2.2-0.6-8.2-2.1-9.5-2.5c-1.1-0.4-3.4-1.5-4.6-2c2.5-3.9,5.9-9.6,5.9-9.6s-2.2-3.4-5-8c1.8,0.1,8.1,0.3,8.5,0.3h0.1
				c0.5,0.1,1.6,0.9,2.4,1.4c0.3,0.2,0.6,0.3,0.9,0.5c0.6,0.2,3.3,0,4.2,0c0.1,0,0.1,0,0.2,0C164.3,184,166.9,185.1,168.5,185.8z"/>
			<path class="st9" d="M160.9,204h-0.2c-5.3-1.4-8.6-2.3-9.5-2.5c-1.2-0.4-3.6-1.6-4.6-2.1l-0.2-0.1l0.1-0.2
				c2.3-3.6,5.4-8.8,5.8-9.5c-0.4-0.6-2.4-3.8-5-7.9l-0.2-0.3h0.3c3,0.1,8.1,0.3,8.5,0.3c0.1,0,0.1,0,0.2,0c0.4,0.1,1.1,0.6,1.8,1.1
				c0.2,0.1,0.4,0.3,0.6,0.4c0.3,0.2,0.5,0.3,0.8,0.5c0.3,0.1,1.6,0.1,2.6,0c0.6,0,1.2-0.1,1.5,0c0.1,0,0.1,0,0.2,0
				c0.4,0,1.9,0.6,4.7,1.8l0.1,0.1l-0.1,0.1c-0.1,0.3-0.2,0.5-0.3,0.8c-0.2,0.4-0.3,0.9-0.5,1.4c-0.3,0.8-0.8,1.4-1.5,2.3
				c-0.9,1.1-2,2.5-3,4.8c-1.2,2.7-2,5.6-2.3,8.5c0,0,0,0.1-0.1,0.4L160.9,204z M146.9,199.2c1.1,0.5,3.3,1.6,4.4,2
				c0.9,0.3,4.1,1.1,9.3,2.5c0-0.1,0-0.2,0-0.2c0.4-3,1.2-5.8,2.4-8.6c1.1-2.3,2.2-3.7,3.1-4.8c0.7-0.8,1.2-1.5,1.4-2.2
				c0.2-0.5,0.3-0.9,0.5-1.4c0.1-0.2,0.2-0.4,0.2-0.6c-3.3-1.4-4.2-1.7-4.4-1.8c-0.1,0-0.1,0-0.2,0c-0.4,0-0.9,0-1.5,0
				c-1.4,0.1-2.4,0.1-2.8-0.1c-0.3-0.1-0.6-0.3-0.9-0.5c-0.2-0.1-0.4-0.2-0.6-0.4c-0.7-0.4-1.4-0.9-1.8-1h-0.1
				c-0.4,0-6.7-0.2-8.2-0.3c2.8,4.4,4.9,7.7,4.9,7.7l0.1,0.1l-0.1,0.1C152.7,189.8,149.4,195.4,146.9,199.2z"/>
		</g>
		<g>
			<path class="st12" d="M160.5,146.6c-2.4-0.2-3,2.2-11.1,4h-0.2c-6,1.3-12,2.9-15,3.7l-3.6-6.6l-6.7-12.3c2.8-0.5,5.3,0.8,5.7,1
				c0.5,0.2,3.2,0.7,7.7,0.6h0.7c1.4,2.3,4.6,7.4,4.7,7.4c0.1,0,7.8-2.2,11.3-3.2L160.5,146.6z"/>
			<path class="st9" d="M134.1,154.5l-10.4-19.3h0.2c2.5-0.5,4.6,0.5,5.5,0.9c0.1,0.1,0.2,0.1,0.3,0.1c0.5,0.2,3.1,0.7,7.7,0.6h0.8
				v0.1c2,3.3,4.2,6.9,4.6,7.3c0.5-0.1,4.6-1.3,7.9-2.2c1.3-0.4,2.4-0.7,3.4-0.9h0.1l6.9,5.7h-0.5c-1-0.1-1.6,0.3-2.7,0.9
				c-1.5,0.8-3.7,2-8.4,3.1h-0.2c-5.5,1.2-11.2,2.7-15,3.7L134.1,154.5z M124.2,135.5l10.1,18.6c3.8-1,9.4-2.5,14.9-3.7h0.2
				c4.6-1,6.8-2.2,8.3-3c0.9-0.5,1.6-0.9,2.4-0.9l-6-5c-0.9,0.3-2.1,0.6-3.3,0.9c-6.3,1.8-7.9,2.2-8,2.2s-0.3,0-4.8-7.4h-0.6
				c-4.6,0.1-7.3-0.5-7.8-0.6c-0.1,0-0.2-0.1-0.3-0.1C128.4,136,126.5,135.1,124.2,135.5z"/>
		</g>
		<g>
			<path class="st12" d="M154.1,141.2c-3.5,1-11.2,3.1-11.3,3.2s-3.3-5.1-4.7-7.4c2.7,0,5.3-0.3,7.9-0.6c0.5-0.2,1-0.4,1.4-0.6
				L154.1,141.2z"/>
			<path class="st9" d="M142.8,144.6c-0.2,0-0.5-0.5-4.9-7.5l-0.2-0.2h0.3c2.6,0,5.3-0.3,7.9-0.6c0.5-0.2,0.9-0.4,1.4-0.6l0.1-0.1
				l7,5.8l-0.3,0.1C150.5,142.4,142.9,144.5,142.8,144.6L142.8,144.6z M138.3,137.1c3.3,5.4,4.2,6.8,4.5,7.1
				c0.8-0.2,7.5-2.1,10.9-3.1l-6.3-5.3c-0.4,0.2-0.9,0.4-1.4,0.6C143.5,136.9,140.9,137.1,138.3,137.1z"/>
		</g>
		<g>
			<path class="st12" d="M171.3,148.4c-2.3-0.4-8.4-1.6-10.6-1.8h-0.2l0,0l-6.4-5.3l-6.7-5.6c0.4-0.2,0.8-0.4,1.3-0.6
				c1.3-0.5,6.1-0.3,6.8-0.1c0.6,0.2,2.2,0,2.4-0.2s5-0.1,6.4-0.6s2.9-3.1,2.9-3.1s0.2,3,0.6,4.5c0.6,2.6,1.4,5.2,2.3,7.8
				C170.6,145.1,171,146.7,171.3,148.4z"/>
			<path class="st9" d="M171.5,148.6h-0.2c-2.5-0.5-8.4-1.6-10.6-1.8h-0.3l0,0l-13.3-11.1l0.2-0.1c0.4-0.2,0.8-0.4,1.3-0.6
				c1.4-0.6,6.2-0.3,6.9-0.1c0.6,0.2,2,0,2.2-0.1c0.1-0.1,0.3-0.1,2-0.2c1.5-0.1,3.7-0.1,4.5-0.4c1.3-0.4,2.8-3,2.8-3l0.3-0.5v0.5
				c0,0,0.2,3,0.6,4.5c0.6,2.6,1.4,5.2,2.3,7.7c0.6,1.6,1,3.3,1.2,4.9L171.5,148.6z M160.6,146.4h0.2c2.1,0.2,7.8,1.3,10.4,1.8
				c-0.3-1.6-0.7-3.1-1.2-4.6c-0.9-2.5-1.7-5.2-2.3-7.8c-0.2-1.2-0.4-3.1-0.5-4c-0.5,0.8-1.7,2.4-2.7,2.7c-0.8,0.3-3,0.4-4.6,0.4
				c-0.8,0-1.6,0.1-1.8,0.1c-0.3,0.2-1.9,0.4-2.5,0.2c-0.7-0.2-5.4-0.4-6.7,0.1c-0.4,0.2-0.8,0.3-1.1,0.5L160.6,146.4z"/>
		</g>
		<g>
			<path class="st12" d="M171,159.9c-0.1,0.4-0.2,0.7-0.3,1.1c-1.2,0-3.6,0.4-6.9,2.4c-0.2,0.1-0.5,0.3-0.7,0.4l-0.5-10
				c2.2,0.2,5.9,0.6,7.9,0.8C170.2,156.4,171.4,157.6,171,159.9z"/>
			<path class="st9" d="M163,164.1l-0.5-10.5h0.2c2.2,0.2,5.9,0.6,7.9,0.8h0.2v0.2c-0.1,0.8,0,1.4,0.2,2.2s0.5,1.8,0.3,3l0,0
				c-0.1,0.4-0.2,0.8-0.3,1.1v0.1h-0.1c-1.1,0-3.5,0.4-6.8,2.4l-0.1,0.1c-0.2,0.1-0.4,0.2-0.5,0.3L163,164.1z M162.8,154l0.5,9.5
				c0.1-0.1,0.2-0.1,0.3-0.2l0.1-0.1c3.3-2,5.7-2.4,6.9-2.5c0.1-0.3,0.2-0.6,0.3-1c0.2-1.2,0-2-0.3-2.9c-0.2-0.7-0.4-1.4-0.3-2.1
				C168.4,154.6,165,154.3,162.8,154z"/>
		</g>
		<g>
			<path class="st12" d="M170.7,161c-0.7,1.7-2.3,3.1-3.4,3.7c-1.4,0.8-1.5,1.5-1,2.8c0.1,0.3,0.2,0.5,0.3,0.8
				c-0.6,0.4-1.8,1.2-2.5,1.7c-0.2,0.1-0.4,0.2-0.6,0.3c-0.7,0.3-1.5,0.6-1.4,0.2c0.1-0.5,0.4-1.8,0-1.6c-0.3,0.1-1.6,0.7-2.3,1.1
				l-0.1-0.2l0,0c-0.4-0.6-0.8-1.3-1.3-2.1c0.8-0.9,2.3-2.2,4.9-3.9c0.2-0.1,0.4-0.3,0.7-0.4C167.1,161.4,169.5,161,170.7,161z"/>
			<path class="st9" d="M162.2,170.9c-0.1,0-0.2,0-0.3-0.1s-0.1-0.2-0.1-0.3s0-0.2,0.1-0.3c0.1-0.3,0.2-0.9,0.1-1.1
				c-0.3,0.1-1,0.5-1.7,0.8l-0.8,0.4l-0.2-0.4c-0.3-0.6-0.8-1.3-1.3-2.1l-0.1-0.1l0.1-0.1c1.1-1.2,2.7-2.5,4.9-3.9
				c0.1-0.1,0.3-0.2,0.4-0.2l0.3-0.2c3.4-2.1,5.8-2.4,7-2.5h0.3l-0.1,0.2c-0.7,1.8-2.3,3.2-3.5,3.8c-1.4,0.8-1.4,1.5-0.9,2.6
				c0.1,0.2,0.2,0.5,0.3,0.8l0.1,0.1l-0.1,0.1c-0.6,0.4-1.8,1.2-2.6,1.7c-0.2,0.1-0.4,0.2-0.6,0.3h-0.1
				C162.9,170.7,162.5,170.9,162.2,170.9z M162.1,168.7c0.1,0,0.1,0,0.2,0.1c0.2,0.2,0.1,0.7,0,1.4c0,0.1,0,0.2-0.1,0.3l0,0
				c0.1,0.1,0.8-0.2,1.1-0.4h0.1c0.2-0.1,0.4-0.2,0.5-0.3c0.7-0.4,1.8-1.2,2.4-1.6c-0.1-0.3-0.2-0.5-0.3-0.7
				c-0.5-1.3-0.5-2.2,1.1-3.1c1.1-0.6,2.5-1.8,3.3-3.4c-1.2,0.1-3.5,0.5-6.5,2.4l-0.3,0.2c-0.1,0.1-0.3,0.2-0.4,0.2
				c-2.1,1.3-3.7,2.6-4.8,3.7c0.5,0.7,0.9,1.4,1.3,2l0.1,0.1l0.5-0.2c0.7-0.3,1.5-0.7,1.7-0.8C162,168.7,162.1,168.7,162.1,168.7z"
				/>
		</g>
		<g>
			<path class="st12" d="M169,179.2c-0.7-0.1-1.3-0.2-1.9-0.4c-0.4-0.1-2.5,0-3.5,0c0-1.5-0.1-4,0.3-5.1c0.1-0.3,0.2-0.6,0.2-1
				c0.1-0.9,0.1-1.8,0-2.7c0.8-0.5,2-1.3,2.5-1.7c0.8,2,1.4,4,1.7,6.1C168.6,176,168.8,177.6,169,179.2z"/>
			<path class="st9" d="M169.1,179.4h-0.2c-0.7-0.1-1.3-0.2-2-0.4c-0.3-0.1-2.2,0-3.4,0h-0.2v-0.2c0-0.3,0-0.5,0-0.8
				c0-1.5,0-3.4,0.3-4.4c0.1-0.3,0.2-0.6,0.2-0.9c0.1-0.9,0.1-1.8,0-2.7v-0.1l0.1-0.1c0.8-0.5,2-1.3,2.5-1.7l0.2-0.1l0.1,0.2
				c0.8,2,1.4,4,1.7,6.1c0.3,1.6,0.5,3.2,0.7,4.8L169.1,179.4z M165.9,178.6c0.6,0,1,0,1.2,0c0.6,0.2,1.2,0.3,1.7,0.4
				c-0.1-1.5-0.4-3.1-0.7-4.6c-0.3-2-0.9-4-1.6-5.8c-0.6,0.4-1.6,1.1-2.3,1.5c0.1,0.9,0.1,1.8,0,2.6c0,0.3-0.1,0.7-0.2,1
				c-0.3,0.9-0.3,2.8-0.3,4.3c0,0.2,0,0.4,0,0.7C164.3,178.7,165.2,178.6,165.9,178.6z"/>
		</g>
		<g>
			<path class="st12" d="M169.1,183c-0.1,0.9-0.3,1.9-0.6,2.7c-1.6-0.7-4.2-1.8-4.6-1.8c-0.1,0-0.1,0-0.2,0c0-0.8,0-1.8-0.2-2.1
				c-0.1-0.2-0.2-0.4-0.2-0.6c-0.1-0.4,0-1,0.2-1.2c0.1-0.1,0.1-0.6,0.1-1.2c1,0,3.1-0.1,3.5,0c0.6,0.2,1.3,0.3,1.9,0.4
				C169.1,180.9,169.1,182.2,169.1,183z"/>
			<path class="st9" d="M168.6,186l-0.6-0.3c-1.5-0.6-3.7-1.6-4.1-1.6c-0.1,0-0.1,0-0.2,0h-0.2v-0.2c0-1.6-0.1-2-0.2-2
				c-0.1-0.2-0.2-0.4-0.2-0.6c-0.1-0.5,0-1,0.2-1.3c0-0.1,0.1-0.4,0.1-1.1v-0.2h0.2c0.7,0,3.1-0.1,3.5,0c0.6,0.2,1.3,0.3,1.9,0.4
				h0.1v0.1c0.1,1.3,0.2,2.6,0.2,3.8l0,0c-0.1,1-0.3,1.9-0.6,2.8L168.6,186z M163.8,183.7C163.8,183.7,163.9,183.7,163.8,183.7
				c0.5,0.1,2.2,0.8,4.3,1.6l0.3,0.1c0.3-0.8,0.5-1.6,0.6-2.5c0-1.2-0.1-2.4-0.2-3.6c-0.6-0.1-1.2-0.2-1.8-0.4c-0.3,0-1.8,0-3.2,0
				c0,0.8,0,1.1-0.2,1.2c-0.1,0.1-0.2,0.6-0.1,1c0,0.2,0.1,0.4,0.2,0.5C163.7,181.8,163.8,182.1,163.8,183.7z"/>
		</g>
		<g>
			<path class="st12" d="M138.2,202.8c0,0.3-0.1,0.6-0.1,0.9l0,0c-1.9,0.3-4.5,0.6-8,1c-3.4,0.4-7.7,1.2-12.1,2
				c-0.1-0.5-0.1-1-0.1-1.2c-0.2-1.8-0.4-9.4-1.2-14.4l21.5-6.7C138.3,191.4,138.4,200.5,138.2,202.8z"/>
			<path class="st9" d="M117.9,207v-0.2c-0.1-0.5-0.1-1-0.1-1.2c-0.1-0.5-0.1-1.5-0.2-2.7c-0.2-3.2-0.4-8.1-1.1-11.7v-0.1l21.8-6.8
				v0.2c0.1,6.8,0.3,16.1,0.1,18.4c0,0.2-0.1,0.5-0.1,1v0.1h-0.1c-2,0.3-4.7,0.6-8,1c-3.2,0.4-7.2,1.1-12,2H117.9z M116.8,191.3
				c0.6,3.6,0.9,8.4,1,11.6c0.1,1.2,0.1,2.2,0.2,2.7c0,0.2,0.1,0.6,0.1,1c4.8-0.9,8.8-1.6,11.9-2c3.3-0.4,5.8-0.7,7.9-1
				c0.1-0.3,0.1-0.6,0.1-0.8l0,0c0.2-2.3,0.1-11.3-0.1-18.1L116.8,191.3z"/>
		</g>
		<g>
			<path class="st12" d="M138.1,184.5l-21.5,6.7c-0.2-1.2-0.5-2.4-1-3.6c-1.7-3.6-6-12.2-6-13.1c0-0.1,0-0.1,0-0.2
				c2-0.3,2.7-0.7,3.2-1.3c0.6-0.7,1.4-2,2.5-2s2.4,1.7,3.2,1.7c0.6,0,2.2-0.1,3.2-0.2c0.4,0.5,0.9,0.9,1.4,1.2
				c3.5,1.7,3.1,1.3,4.4,0.4s2.5-2,4.5-0.7c1.9,1.2,1.7,1.3,2,1c0.2-0.3,0.9-1,1.9,0.3c0.9,1.1,1.4,3.6,2.1,3.8
				C138,180.1,138,182.2,138.1,184.5z"/>
			<path class="st9" d="M116.5,191.4v-0.2c-0.2-1.2-0.5-2.4-1-3.5c-0.4-0.8-0.9-1.9-1.5-3.1c-2.6-5.3-4.6-9.4-4.6-10.1v-0.1v-0.2
				h0.2c2.1-0.3,2.7-0.8,3.1-1.2c0.1-0.1,0.2-0.2,0.3-0.3c0.6-0.7,1.3-1.7,2.3-1.7c0.6,0,1.3,0.5,1.9,1c0.5,0.4,1,0.8,1.3,0.8
				c0.6,0,2.3-0.1,3.2-0.2h0.1l0.1,0.1c0.4,0.5,0.8,0.9,1.3,1.2c2.9,1.4,3,1.3,3.7,0.7c0.1-0.1,0.3-0.2,0.4-0.3l0.1-0.1
				c1.2-0.9,2.6-1.9,4.5-0.6c0.6,0.4,1,0.7,1.3,0.9c0.2,0.1,0.3,0.2,0.4,0.2l0,0v-0.1c0.1-0.1,0.4-0.5,0.9-0.5
				c0.4,0,0.8,0.3,1.2,0.8s0.8,1.4,1.1,2.1c0.3,0.7,0.7,1.6,0.9,1.7h0.1v1.2c0,1.3,0.1,3,0.1,4.7v0.1h-0.1L116.5,191.4z
				 M109.8,174.5L109.8,174.5c0,0.7,2.7,6.3,4.5,10c0.6,1.2,1.1,2.3,1.5,3.1c0.5,1.1,0.8,2.3,0.9,3.4l21.2-6.6
				c0-1.7-0.1-3.3-0.1-4.6v-1c-0.4-0.2-0.7-0.9-1-1.8c-0.3-0.7-0.6-1.5-1-2c-0.4-0.4-0.7-0.7-1-0.7c-0.2,0-0.4,0.1-0.7,0.4l0,0
				c-0.2,0.3-0.3,0.2-0.8-0.1c-0.3-0.2-0.7-0.5-1.3-0.9c-1.8-1.1-3-0.2-4.2,0.6l-0.1,0.1c-0.2,0.1-0.3,0.2-0.4,0.3
				c-0.8,0.7-1.1,0.8-4.1-0.7c-0.5-0.3-1-0.7-1.4-1.2c-1.2,0.1-2.6,0.2-3.2,0.2c-0.5,0-1-0.4-1.5-0.8c-0.6-0.5-1.2-0.9-1.7-0.9
				c-0.8,0-1.5,0.9-2.1,1.5c-0.1,0.1-0.2,0.2-0.3,0.4C112.4,173.8,111.7,174.2,109.8,174.5z"/>
		</g>
		<g>
			<path class="st12" d="M152.6,189.6c0,0-3.4,5.7-5.9,9.6c-1.2,1.9-2.2,3.3-2.6,3.4c-0.7,0.2-1,0.4-6,1.1l0,0
				c0.1-0.4,0.1-0.7,0.1-0.9c0.2-2.3,0.1-11.4-0.1-18.3c-0.1-2.3-0.1-4.3-0.2-5.8c0.1,0,0.2,0,0.2,0c0.8-0.5,1.7-1.5,3.1-1
				c1.2,0.4,2.3,0.4,3.4-0.5c1,1.6,1.9,3.1,2.8,4.5C150.4,186.2,152.6,189.6,152.6,189.6z"/>
			<path class="st9" d="M137.9,203.9v-0.2c0.1-0.4,0.1-0.7,0.1-0.9c0.2-1.8,0.1-7.9-0.1-18.3c-0.1-2.3-0.1-4.3-0.2-5.8v-0.2h0.2h0.1
				c0.1-0.1,0.3-0.2,0.4-0.3c0.7-0.5,1.6-1.1,2.8-0.7c1.3,0.5,2.2,0.3,3.2-0.5l0.1-0.1l0.1,0.2c1,1.6,1.9,3.1,2.8,4.5
				c2.8,4.5,5,7.9,5,8l0.1,0.1l-0.1,0.1c0,0.1-3.4,5.8-5.9,9.6c-1.9,2.9-2.4,3.4-2.7,3.5l-0.2,0.1c-0.7,0.2-1.2,0.4-5.9,1
				L137.9,203.9z M138.1,178.8c0,1.5,0.1,3.4,0.1,5.6c0.2,10.4,0.3,16.6,0.1,18.4c0,0.2,0,0.4-0.1,0.7c4.4-0.6,5-0.8,5.6-1l0.2-0.1
				c0.1,0,0.6-0.4,2.5-3.3c2.3-3.6,5.4-8.8,5.8-9.5c-0.4-0.6-2.4-3.8-4.9-7.9c-0.9-1.4-1.8-2.9-2.7-4.4c-1,0.8-2.1,0.9-3.4,0.4
				c-1.1-0.4-1.8,0.2-2.5,0.6c-0.2,0.1-0.3,0.2-0.5,0.3C138.2,178.8,138.2,178.8,138.1,178.8z"/>
		</g>
		<g>
			<path class="st12" d="M144.7,177.1c-1.1,0.9-2.2,1-3.4,0.5c-1.4-0.5-2.3,0.5-3.1,1c-0.1,0-0.2,0.1-0.2,0
				c-0.7-0.2-1.2-2.7-2.1-3.8c-1-1.3-1.7-0.6-1.9-0.3s0,0.2-2-1s-3.3-0.2-4.5,0.7s-0.9,1.3-4.4-0.4c-0.5-0.3-1-0.7-1.4-1.2
				c-2.7-3.2-6.3-11.3-7.8-15.1l0.3-0.1l16.3-9.9l3.6,6.6l2.6,4.8c-1.8,0-1.9,0.7-1.9,1.7C134.9,161.3,140,169.6,144.7,177.1z"/>
			<path class="st9" d="M138,178.8h-0.1c-0.4-0.1-0.8-0.9-1.2-1.9c-0.3-0.7-0.6-1.5-1-2c-0.4-0.4-0.7-0.7-1-0.7l0,0
				c-0.2,0-0.4,0.1-0.7,0.4l0,0c-0.2,0.3-0.3,0.2-0.8-0.1c-0.3-0.2-0.7-0.5-1.3-0.9c-1.8-1.1-3-0.2-4.2,0.6l-0.1,0.1
				c-0.2,0.1-0.3,0.2-0.4,0.3c-0.8,0.7-1.1,0.8-4.1-0.7c-0.6-0.3-1.1-0.8-1.5-1.3c-2.8-3.3-6.4-11.7-7.9-15.1l-0.1-0.2l0.5-0.1
				l16.4-9.9l6.4,11.8h-0.3c-1.6,0-1.7,0.6-1.7,1.5c0,0.3,1.8,3.4,9.8,16.3l0.1,0.1l-0.1,0.1c-1.1,0.9-2.2,1-3.5,0.5
				c-1.1-0.4-1.8,0.2-2.5,0.6c-0.2,0.1-0.3,0.2-0.5,0.3C138.2,178.8,138.1,178.8,138,178.8z M134.7,173.9L134.7,173.9
				c0.4,0,0.8,0.3,1.3,0.8c0.4,0.5,0.8,1.4,1.1,2.1c0.3,0.7,0.7,1.6,0.9,1.7h0.1c0.1-0.1,0.3-0.2,0.4-0.3c0.7-0.5,1.6-1.1,2.8-0.7
				c1.2,0.4,2.2,0.3,3.1-0.4c-8.7-13.9-9.8-16-9.8-16.4c0-1,0.1-1.8,1.8-1.8l-6-11l-16.2,9.8H114c1.5,3.6,5,11.7,7.7,14.9
				c0.4,0.5,0.8,0.9,1.4,1.2c2.9,1.4,3,1.3,3.7,0.7c0.1-0.1,0.3-0.2,0.4-0.3l0.1-0.1c1.2-0.9,2.6-1.9,4.5-0.6
				c0.7,0.4,1.1,0.7,1.3,0.9c0.2,0.1,0.3,0.2,0.4,0.2l0,0v-0.1C134.1,174.1,134.4,173.9,134.7,173.9z"/>
		</g>
		<g>
			<path class="st12" d="M151.9,159.1c-3.1,0-13.3,0-14.9,0h-0.2l-2.6-4.8c3-0.8,9-2.4,15-3.7h0.2
				C149.8,152.3,150.8,156.7,151.9,159.1z"/>
			<path class="st9" d="M140.9,159.3c-1.9,0-3.4,0-3.9,0h-0.3l-2.7-5.1l0.2-0.1c3.8-1,9.5-2.5,15-3.7l0.4-0.1v0.2
				c0.4,1.8,1.4,6.2,2.5,8.5l0.1,0.2h-0.3c-0.9,0-2.4,0-4,0C145.7,159.3,143,159.3,140.9,159.3z M136.9,158.9h0.1
				c1.2,0,6.8,0,10.9,0c1.5,0,2.9,0,3.8,0c-1-2.3-2-6.4-2.4-8.2l0,0c-5.4,1.2-11,2.6-14.8,3.7L136.9,158.9z"/>
		</g>
		<g>
			<path class="st12" d="M170.5,154.6L170.5,154.6c-2-0.2-5.7-0.6-7.9-0.8c-1.1-0.1-1.8-0.2-1.9-0.2c-0.3-0.1-0.1-4.9,0-6.9
				c0-0.1,0-0.1,0-0.2c2.2,0.2,8.3,1.4,10.6,1.8c0.1,0.5,0.2,1.1,0.3,1.7C172,152.6,170.8,152.9,170.5,154.6z"/>
			<path class="st9" d="M170.7,154.9h-0.2c-2-0.2-5.6-0.6-7.9-0.8c-0.8-0.1-1.8-0.2-1.9-0.2c-0.2,0-0.4-0.1-0.2-7.1v-0.3h0.2
				c2.2,0.2,8.1,1.3,10.6,1.8h0.1v0.1c0.1,0.3,0.1,0.6,0.2,0.9c0,0.3,0.1,0.5,0.1,0.8c0.3,1.7-0.1,2.4-0.5,3.2
				c-0.2,0.4-0.5,0.8-0.6,1.4L170.7,154.9L170.7,154.9z M160.8,153.5c0.2,0,0.7,0.1,1.8,0.2c2.2,0.2,5.7,0.6,7.7,0.8
				c0.1-0.6,0.4-1,0.6-1.4c0.4-0.7,0.8-1.4,0.5-3c0-0.3-0.1-0.5-0.1-0.8s-0.1-0.5-0.1-0.8c-2.5-0.5-8-1.5-10.3-1.8
				C160.7,151.2,160.8,153.1,160.8,153.5z"/>
		</g>
		<g>
			<path class="st12" d="M158.2,167.7c-0.3,0.4-0.6,0.8-0.9,1.2c-0.2,0.3-0.5,3.8-0.7,7.1c-0.2,2.4-0.3,4.8-0.4,5.9h-0.1
				c-0.4,0-6.7-0.2-8.5-0.3c-0.9-1.4-1.9-3-2.8-4.5c-4.7-7.6-9.8-15.9-9.8-16.4c0-0.9,0.1-1.7,1.9-1.7h0.2c1.6,0,11.8,0,14.9,0
				c0.2,0.4,0.4,0.8,0.6,1.1C153.6,161.6,156.3,164.9,158.2,167.7z"/>
			<path class="st9" d="M156.3,182.2l-0.2-0.1c0,0,0,0-0.1,0c-0.4,0-7.2-0.2-8.5-0.3h-0.1v-0.1c-0.9-1.4-1.9-3-2.8-4.5
				c-9.9-15.8-9.9-16.3-9.9-16.5c0-1,0.2-1.8,2-1.8h0.2c1.2,0,6.8,0,10.9,0c1.7,0,3.1,0,4,0h0.1v0.1c0.2,0.4,0.4,0.7,0.6,1.1
				c1.2,1.4,3.8,4.8,5.7,7.5l0.1,0.1l-0.1,0.1c-0.3,0.4-0.6,0.8-0.9,1.2c0,0.1-0.2,0.9-0.7,7.1c-0.1,1.6-0.2,3.1-0.3,4.3
				c0,0.7-0.1,1.2-0.1,1.6L156.3,182.2z M147.6,181.5c2.2,0.1,7.8,0.3,8.4,0.3c0-0.4,0.1-0.9,0.1-1.4c0.1-1.2,0.2-2.7,0.3-4.3
				c0.5-6.7,0.7-7.1,0.7-7.2c0.2-0.4,0.5-0.8,0.8-1.2c-1.9-2.7-4.5-6-5.6-7.4c-0.3-0.3-0.5-0.7-0.6-1.1c-0.9,0-2.3,0-3.9,0
				c-4.1,0-9.7,0-10.9,0h-0.2c-1.6,0-1.7,0.6-1.7,1.5c0,0.3,1.4,2.8,9.8,16.3C145.8,178.6,146.8,180.1,147.6,181.5z"/>
		</g>
		<g>
			<path class="st12" d="M163.1,163.8c-2.6,1.7-4.1,3-4.9,3.9c-1.9-2.8-4.6-6.1-5.7-7.5c-0.3-0.3-0.5-0.7-0.6-1.1
				c-1.1-2.3-2.1-6.8-2.5-8.5c8.2-1.8,8.8-4.1,11.2-4l0,0l0.2,0.2c-0.1,2-0.2,6.8,0,6.9c0.1,0,0.8,0.1,1.9,0.2L163.1,163.8z"/>
			<path class="st9" d="M158.2,168l-0.1-0.2c-2-2.9-4.9-6.5-5.7-7.5c-0.3-0.4-0.5-0.7-0.7-1.1c-1.1-2.4-2.1-6.8-2.5-8.6v-0.2h0.2
				c4.7-1,6.9-2.3,8.3-3.1c1.1-0.6,1.8-1,2.9-0.9h0.1l0.3,0.3v0.1c-0.2,4.4-0.1,6.3,0,6.7c0.1,0,0.2,0,0.4,0c0.3,0,0.8,0.1,1.4,0.2
				h0.1l0.5,10.2l-0.1,0.1c-2.2,1.4-3.8,2.7-4.9,3.8L158.2,168z M149.5,150.7c0.4,1.9,1.4,6.1,2.5,8.4c0.2,0.4,0.4,0.7,0.6,1.1
				c0.8,1,3.6,4.4,5.6,7.3c1.1-1.2,2.7-2.4,4.7-3.7l-0.5-9.7c-0.5-0.1-0.9-0.1-1.2-0.1c-0.2,0-0.4-0.1-0.5-0.1l0,0
				c-0.2,0-0.4-0.1-0.2-7l-0.1-0.1c-0.9,0-1.6,0.3-2.7,0.9C156.3,148.4,154.1,149.6,149.5,150.7z"/>
		</g>
		<g>
			<path class="st12" d="M159.5,169.8L159.5,169.8c0,0.1-0.1,0.2-0.1,0.3c-0.1,0.6-0.2,1.7-0.3,3.1c-0.1,0.8-0.1,1.8-0.2,2.7
				l-2.4,0.1c0.3-3.3,0.6-6.8,0.7-7.1c0.2-0.4,0.5-0.9,0.9-1.2C158.7,168.4,159.2,169.1,159.5,169.8z"/>
			<path class="st9" d="M156.4,176.2V176c0.5-6.7,0.7-7.1,0.7-7.2c0.2-0.5,0.6-0.9,0.9-1.3l0.1-0.2l0.1,0.2c0.5,0.7,0.9,1.4,1.3,2.1
				v0.1v0.1c0,0.1-0.1,0.2-0.1,0.3c-0.1,0.5-0.2,1.5-0.3,3.1c-0.1,0.8-0.1,1.8-0.2,2.7v0.2L156.4,176.2z M158.2,167.9
				c-0.3,0.3-0.5,0.7-0.7,1c-0.1,0.1-0.2,1-0.7,6.9l2.1-0.1c0.1-0.9,0.1-1.8,0.2-2.6c0.1-1.7,0.2-2.7,0.3-3.2c0-0.1,0-0.2,0.1-0.3
				C159,169.2,158.6,168.5,158.2,167.9z"/>
		</g>
		<g>
			<path class="st12" d="M164,172.7c-0.4,0.1-1,0.2-1.4,0.4c-0.5,0.2-2.6,0.2-3.4,0.2c0.1-1.4,0.2-2.6,0.3-3.1l0.2-0.1
				c0.8-0.4,2-1,2.3-1.1c0.4-0.2,0.1,1.1,0,1.6s0.7,0.1,1.4-0.2c0.2-0.1,0.4-0.2,0.6-0.3C164.1,170.9,164.1,171.8,164,172.7z"/>
			<path class="st9" d="M160,173.4c-0.4,0-0.7,0-0.8,0H159v-0.2c0.1-1.7,0.2-2.7,0.3-3.2v-0.1l0.3-0.1c1.3-0.6,2.1-1,2.4-1.1
				c0.2-0.1,0.3,0,0.3,0c0.2,0.2,0.1,0.7,0,1.4c0,0.1,0,0.2-0.1,0.3l0,0c0.1,0.1,0.8-0.2,1.1-0.4h0.1c0.2-0.1,0.4-0.2,0.5-0.3
				l0.2-0.1v0.3c0.1,0.9,0.1,1.8,0,2.8v0.1H164c-0.4,0.1-1,0.2-1.4,0.4C162.2,173.4,160.9,173.4,160,173.4z M159.4,173.1
				c1.1,0,2.8,0,3.2-0.1s0.9-0.2,1.3-0.3c0.1-0.8,0.1-1.5,0-2.3c-0.1,0.1-0.2,0.1-0.3,0.2h-0.1c-0.8,0.3-1.2,0.5-1.5,0.3
				c-0.1-0.1-0.1-0.2-0.1-0.3s0-0.2,0.1-0.3c0.1-0.3,0.2-0.9,0.1-1.1c-0.3,0.1-1.1,0.5-2.3,1.1l-0.1,0.1
				C159.5,170.7,159.5,171.6,159.4,173.1z"/>
		</g>
		<g>
			<path class="st12" d="M163.6,183.9c-1,0-3.7,0.2-4.2,0c-0.3-0.1-0.6-0.3-0.8-0.5c0-0.6,0.1-1.3,0.1-2.2h4.6
				c0,0.2,0.1,0.4,0.2,0.6C163.6,182.1,163.6,183.1,163.6,183.9z"/>
			<path class="st9" d="M160.5,184.2c-0.5,0-0.9,0-1.1-0.1c-0.3-0.1-0.6-0.3-0.9-0.5l-0.1-0.1v-0.1c0-0.6,0.1-1.3,0.1-2.2V181h4.9
				v0.1c0,0.2,0.1,0.3,0.2,0.5c0.1,0.1,0.2,0.3,0.2,2.2v0.2h-0.2c-0.3,0-0.9,0-1.4,0C161.5,184.2,160.9,184.2,160.5,184.2z
				 M158.7,183.3c0.2,0.2,0.5,0.3,0.7,0.4c0.3,0.1,1.7,0.1,2.7,0c0.5,0,0.9,0,1.3,0c0-1.5-0.1-1.8-0.2-1.9c-0.1-0.2-0.1-0.3-0.2-0.5
				h-4.3C158.8,182.2,158.8,182.8,158.7,183.3z"/>
		</g>
		<g>
			<path class="st12" d="M159,176c-0.1,1.8-0.2,3.7-0.3,5.3c0,0.9-0.1,1.6-0.1,2.2c-0.8-0.5-1.9-1.3-2.4-1.4
				c0.1-1.1,0.2-3.5,0.4-5.9L159,176z"/>
			<path class="st9" d="M158.7,183.7l-0.2-0.2c-0.2-0.1-0.4-0.2-0.6-0.4c-0.7-0.4-1.4-0.9-1.8-1H156V182c0.1-1.1,0.2-3.4,0.4-5.9
				V176l2.7-0.1v0.2c-0.1,1.5-0.2,3.2-0.3,5.3c0,0.9-0.1,1.6-0.1,2.2L158.7,183.7z M156.4,181.9c0.4,0.2,1.1,0.6,1.7,1
				c0.1,0.1,0.2,0.1,0.3,0.2c0-0.5,0.1-1.2,0.1-1.9c0.1-2,0.2-3.7,0.3-5.1l-2.1,0.1C156.6,178.6,156.4,180.8,156.4,181.9z"/>
		</g>
		<g>
			<path class="st12" d="M163.8,173.7c-0.4,1.1-0.3,3.6-0.3,5.1c0,0.7,0,1.1-0.1,1.2c-0.2,0.2-0.3,0.7-0.2,1.2h-4.6
				c0.1-1.5,0.2-3.5,0.3-5.3c0.1-1,0.1-1.9,0.2-2.7c0.8,0,2.9,0,3.4-0.2c0.4-0.1,1-0.3,1.4-0.4C164,173.1,163.9,173.4,163.8,173.7z"
				/>
			<path class="st9" d="M163.5,181.4h-4.9v-0.2c0.1-2.1,0.2-3.8,0.3-5.3c0.1-1,0.1-1.9,0.2-2.7V173h0.4c0.9,0,2.7,0,3.2-0.1
				c0.4-0.1,0.9-0.3,1.4-0.4l0.2-0.1v0.2c0,0.3-0.1,0.7-0.2,1l0,0c-0.3,0.9-0.3,2.7-0.3,4.2c0,0.3,0,0.6,0,0.9c0,1-0.1,1.2-0.2,1.3
				c-0.1,0.1-0.2,0.6-0.1,1L163.5,181.4z M158.9,181.1h4.2c0-0.4,0-0.9,0.3-1.1c0,0,0.1-0.3,0.1-1.1c0-0.3,0-0.6,0-0.9
				c0-1.5,0-3.3,0.3-4.3c0.1-0.2,0.1-0.5,0.2-0.7c-0.4,0.1-0.9,0.2-1.2,0.3c-0.5,0.2-1.9,0.2-3.3,0.2h-0.1c-0.1,0.8-0.1,1.7-0.2,2.5
				C159.1,177.4,159,179.1,158.9,181.1z"/>
		</g>
	</g>
</g>
<g>
	<g>
		<path class="st6" d="M1081.6-196.3v-0.1v-0.1c0.6-2.5,1.6-4.9,2.9-7c4.9-7.9,6.5-17.6,4.5-26.7l-0.9-4.8c-0.3-2.2-0.8-4.2-1.1-6.4
			l0,0c-2.6-14.2-4.8-24.9-8.5-34.4c-5.9-16.4-11.1-33.2-15.3-50.1c-2-9.5-3.6-28.6-3.6-28.9c-0.3-5.3-4.9-9.3-10.2-8.8
			c-3.2,0.2-6.2,2-7.7,4.8c-4.5,7.6-11.2,15.3-14.2,16.3c-4,1.5-18.9,2-26.8,2.2c-10.8,0.4-14.8,0.6-17.4,2.2
			c-2.8,0.4-5.6,0.6-8.4,0.3c-5.3-1.5-39.3-3.7-51,0.9c-3.7,1.5-6.8,2.9-9.4,4.1l0,0l-2.3,1.2c-1.6,0.9-3.1,1.7-4.8,2.5
			c-16.9,2.3-33.9,3.6-50.9,3.9l0,0l-4.5,0.1c-28.4,0.7-45.6-2.8-48.2-3.7c-0.3-0.1-0.8-0.3-1.5-0.6c-6-2.7-22.3-9.8-41-6.5h-0.1
			h-0.4h-0.2l-1.6,0.3c-20.7,4.5-31.9,9.7-34.7,11.2c-4,1.7-34.2,11.6-46.6,15.2c-3-5.3-7.8-14.8-11-20.9
			c-9.3-18.3-11-21.4-14.2-23.5s-24.5-9.7-30.9-12c-30.8-10.7-32.1-10.1-36.1-7.6c-2.8,1.6-3.6,2.9-11.4,16.1
			c-6.7,11.3-24.5,41-30.8,45.2c-3.6,1.5-19,7.4-36.7,14.1c-22.3,8.5-50,19.1-72.2,27.7c-12.3,4.8-21.5,8.5-28,11.2
			c-3.7,1.6-6.5,2.7-8.5,3.6c-2.9,1.3-9.7,4.5-8.3,12c0.6,3.2,1.2,4,12,15.9c11.2,12.4,32,35.5,38.6,47.5
			c3.4,6.3,10.1,21.4,18.7,42.6l0,0c6.8,16.8,14.5,36.5,21.2,54.2l0,0c5.7,15.1,10.3,27.7,12.9,35.3c4.7,14.2,20.7,65.3,46.2,147.5
			l0,0l11.3,36.7l13.5,47.1l0,0l56.3,194.9c1.1,4.1,4.9,6.9,9.2,6.9c0.3,0,0.8,0,1.1,0l116.4-14.1h0.4l0.8-0.1h0.1l84.7-14.8l0,0
			l1.2-0.2l0.7-0.1l97.4-24.5c3.4-0.9,6-3.5,6.9-6.8c3.6-13.5,12.6-37.4,21.6-43.7c0.7-0.4,1.2-1,1.8-1.7c0,0,0.6-0.7,1.6-1.9l0,0
			c26.3-31.8,26.6-38.8,26.7-41.7v-2c0.9-32.7,5.3-43.1,7.6-46.3l0.9-1.1l0,0c6.6-9.3,11.1-20,13.2-31.2c2.3-12.3,3.8-21,4.5-24.7
			l0,0l0,0l0.4-2.5c0-0.2,0-0.4,0-0.7c2.2-18.6,7.3-36.7,14.9-53.7c5.1-10.7,11.5-20.8,19.2-30c4.8-6,9.1-11.3,11.2-17.8
			c1-2.9,2.2-5.9,3.2-8.8c0.7-1.7,1.3-3.4,1.9-5l0,0c2.8-6.8,4.5-14,4.8-21.4c0-6.3-0.1-14.9-1.1-26.2l0,0c-1-11.1-2.6-22-4.7-33
			c-2.3-14.4-6.3-28.5-11.6-42.2l0,0l0,0c-0.8-1.9-1.5-3.6-2-5.1c-0.7-1.3-1.1-2.9-1.1-4.5c0,0,0.6-1,3.6-2.7
			c9.4-5.3,21.4-15.8,27-29.5l0,0c1.2-3,2.1-6.2,2.7-9.4c1.1-7.8,0.4-15.9-1.9-23.5C1081.7-190.4,1081-193.3,1081.6-196.3z"/>
	</g>
	<g>
		<path class="st12" d="M714,44.8L548.4,96.7c-14.9-48.1-39.8-128.4-46.3-147.7c-2.7-8.1-7.4-21-13-35.7
			c5.1-8.5,12.1-19.5,13.4-19.8c2.2-0.6,17.6,13.9,27.2,11.5c9.6-2.3,7.4-9.5,29.6,1.2c22.3,10.7,28,22.1,36.2,20.4
			s8.9-6.2,21.1-3.8c12.2,2.3,19.5,12.1,40.9,10.8c3.8-0.2,7-0.6,10-0.9c0.1,0.4,0.1,0.8,0.1,1.2c0,5.9,28.6,63.3,40.2,87.1
			C710.7,28.7,712.9,36.6,714,44.8z"/>
		<path class="st9" d="M547.6,98.1l-0.3-1.1c-9.1-29.2-39-126-46.3-147.7c-2.7-8.1-7.4-21-13-35.6l-0.2-0.6l0.3-0.4
			c12-19.8,13.3-20.1,14-20.4c1.1-0.2,2.6,0.7,6.5,3.2c5.5,3.7,14.7,9.7,20.7,8.3c2.5-0.6,4-1.5,5.6-2.3c5-2.8,8.7-4,24.7,3.7
			c10.4,5,17.2,10.3,22.4,14.1c5.8,4.4,9.3,7,13.2,6.2c2.7-0.6,4.5-1.5,6.3-2.2c3.7-1.7,6.8-3.1,15.3-1.6c4.5,0.9,8.3,2.7,12.2,4.6
			c6.9,3.4,14.9,7,28.4,6.3c3.7-0.2,7-0.6,9.8-0.9l1-0.1l0.2,1c0.1,0.4,0.2,1,0.2,1.6c0,4.5,18.9,43.4,31.4,69
			c3.2,6.7,6.3,12.9,8.5,17.6c3.1,7.7,5.3,15.8,6.4,23.9l0.1,0.9l-0.9,0.3L547.6,98.1z M490.2-86.6c5.5,14.4,10.2,27.2,12.9,35.2
			c7.2,21.5,36.6,116.3,46,146.7L712.8,44c-1.1-7.7-3.1-15.2-6-22.5c-2.2-4.7-5.3-10.7-8.5-17.6c-17.3-35.6-31.7-65.4-31.7-70l0,0
			c-2.6,0.3-5.6,0.6-8.9,0.8c-14.2,0.9-22.4-3-29.5-6.5c-3.8-1.8-7.5-3.6-11.6-4.4c-7.7-1.5-10.5-0.2-14,1.3
			c-1.8,0.8-3.8,1.8-6.7,2.3c-4.9,1.1-8.9-1.9-15-6.6c-4.9-3.8-11.7-8.9-21.9-13.9c-15.8-7.7-18.6-6-22.6-3.8
			c-1.6,0.9-3.5,1.9-6.2,2.6c-7,1.7-16.3-4.5-22.5-8.6c-1.8-1.2-3.9-2.6-4.7-2.9C502.1-104.9,499.5-101.8,490.2-86.6z"/>
	</g>
	<g>
		<path class="st12" d="M723.1,148.6c-58.8,11.3-121.2,25.4-149.8,32.1l-13.5-47.1c0,0-4.7-15.1-11.4-36.9L714,44.8
			c5.7,33.4,7,83.7,8.3,95.8C722.4,142.2,722.6,144.9,723.1,148.6z"/>
		<path class="st9" d="M572.5,182l-13.9-48.1l0,0c0,0-4.7-15.1-11.4-36.8l-0.3-1l168-52.7l0.2,1.2c4.1,24.2,5.9,56.6,7.2,78.1
			c0.4,8.1,0.8,14.4,1.1,17.8c0.1,1.6,0.4,4.4,0.9,7.9l0.1,1l-1,0.2c-60.8,11.6-125,26.4-149.8,32.1L572.5,182z M549.7,97.5
			c6.6,21.1,11.1,35.8,11.1,35.8l13.3,46.1c25.4-5.9,88-20.2,147.9-31.7c-0.3-3.1-0.6-5.5-0.8-6.9c-0.3-3.4-0.7-9.8-1.1-17.9
			c-1.1-21-2.9-52.7-6.8-76.5L549.7,97.5z"/>
	</g>
	<g>
		<path class="st12" d="M746.5,361.7l-0.8,0.1l-116.3,14.1l-56.1-195.3c28.6-6.7,90.9-20.8,149.8-32.1c3.6,32.9,15.4,141,16.4,167.3
			C740.4,331.3,742.7,346.6,746.5,361.7z"/>
		<path class="st9" d="M628.5,377.2l-56.7-197.4l1.1-0.2c19-4.5,85.9-19.8,149.9-32.1l1.2-0.2l1.3,12
			c4.2,39.7,14.4,132.8,15.3,156.7c0.8,15.3,3.1,30.8,7,45.6l0.3,1.1l-2,0.3L628.5,377.2z M574.6,181.5l55.6,193.3l115-14
			c-3.7-14.7-6-29.7-6.8-44.8c-0.9-23.9-11-116.9-15.3-156.6l-1-9.5C659.8,161.8,594.9,176.8,574.6,181.5z"/>
	</g>
	<g>
		<path class="st12" d="M825.5,229.9c-1.1,4,3.9,88.6,5.7,117.1l-84.7,14.8c-3.9-15-6.3-30.4-7-45.9c-1-26.3-13-134.5-16.4-167.3
			c29.1-5.6,57.4-10.4,80.2-13.4c23.5-2.9,40.6-5.3,53.1-6.9c-3.1,15-7.2,29.9-12,44.4C836,199.9,826.3,227,825.5,229.9z"/>
		<path class="st9" d="M745.6,363l-0.2-1c-3.9-15.1-6.3-30.5-7-46.1c-0.9-23.8-11-116.8-15.3-156.5l-1.2-11.9l1-0.2
			c32.5-6.3,59.6-10.7,80.3-13.4c22.1-2.8,39.6-5,53.1-6.9l1.6-0.2l-0.3,1.6c-3.1,15-7.3,30-12,44.5c-5.8,18.9-12.2,37.5-16,48.5
			c-1.6,4.5-2.7,7.8-2.9,8.6c-0.9,3.4,2.3,62.4,5.7,116.8l0.1,1L745.6,363z M724.2,149.5l1,9.8c4.2,39.7,14.4,132.6,15.3,156.6
			c0.8,15,3.1,30,6.8,44.6l82.6-14.4c-2.1-34.4-6.7-112.3-5.6-116.4l0,0c0.2-0.9,1.3-4,2.9-8.7c3.8-11.1,10.1-29.5,16-48.5
			c4.6-14,8.5-28.4,11.6-42.7c-13.3,1.8-30.3,4-51.7,6.7C782.9,138.8,756.3,143.3,724.2,149.5z"/>
	</g>
	<g>
		<path class="st12" d="M956.6,271.3L955,273c-15.1,10.8-25.3,49-25.3,49l-97.3,24.5l-1.2,0.2c-1.8-28.4-6.7-113.1-5.7-117.1
			c0.8-2.8,10.5-30,19-57.1c6.9,16.4,20.2,46.6,24.7,50.8C874.3,227.9,933,259,956.6,271.3z"/>
		<path class="st9" d="M830.1,348.2L830,347c-0.7-11.5-6.8-112.6-5.6-117.4c0.2-1,1.5-4.4,3.2-9.5c3.8-11,10.1-29.2,15.8-47.8
			l0.9-2.9l1.2,2.8c9.5,22.7,20.8,47,24.5,50.3c5.1,4.6,67.9,37.7,87,47.8l1.2,0.7l-2.7,3.1c-14.7,10.4-24.7,48-24.8,48.4l-0.1,0.7
			L830.1,348.2z M844.6,175.9c-5.6,17.6-11.4,34.6-15,45c-1.7,4.9-2.9,8.5-3.1,9.4c-0.8,3.4,2.9,70.5,5.6,115.4l96.6-24.3
			c1.5-5.3,11.1-38.6,25.4-48.9l0.6-0.7c-25.3-13.3-81.2-42.8-86.2-47.4C863.6,219.7,849.7,187.4,844.6,175.9z"/>
	</g>
	<g>
		<path class="st13" d="M991.5,180.6c-0.4,0.6-0.7,0.9-0.7,0.9c-9.2,12.2-9.5,46.5-9.7,53.8c-0.2,6.2-19,29.3-24.5,36
			c-23.5-12.3-82.2-43.4-87.2-48c-4.5-4.1-17.8-34.3-24.8-50.7c4.8-14.5,8.8-29.4,12-44.4l0,0c16,2,45.9,18.9,55.7,22.8
			C919.7,153.9,966.9,171.4,991.5,180.6z"/>
		<path class="st9" d="M956.8,272.7l-0.8-0.4c-24.6-12.9-82.3-43.5-87.5-48.1c-4.8-4.5-19.1-37.2-25.1-51.1l-0.1-0.3l0.1-0.4
			c4.8-14.4,8.8-29.4,12-44.3l0.2-1l1,0.1c11.6,1.5,30.1,10.5,43.6,17.1c5.1,2.6,9.6,4.7,12.4,5.8c7.2,2.8,52.3,19.6,76.6,28.5
			l3.9,1.5l-0.8,1.2c-0.4,0.7-0.7,1-0.7,1c-8.3,11.1-9.2,41.4-9.4,51.3v1.9c-0.2,6-15.7,25.6-24.7,36.7L956.8,272.7z M845.7,172.6
			c12.2,28.4,21.2,47.1,24.4,50c4.9,4.6,66.1,36.8,86.1,47.3c14.4-17.7,23.5-30.9,23.7-34.7v-1.8c0.2-10.1,1.1-40.5,9.6-52.3
			l-1.1-0.4c-25.9-9.6-69.5-25.8-76.6-28.5c-2.9-1.1-7.4-3.4-12.5-5.8c-13-6.4-30.5-14.9-41.8-16.7
			C854.2,144,850.3,158.5,845.7,172.6z"/>
	</g>
	<g>
		<path class="st12" d="M1007.3,128.8c-0.7,3.9-2.2,12.5-4.5,24.5c-1.9,9.8-5.8,19.1-11.5,27.3c-24.5-9.1-71.7-26.7-79.1-29.5
			c-10-3.9-39.8-20.8-55.7-22.8c33.2-4.6,35.1-5.7,40-7.3c2.2-0.7,8.9-10.2,17.1-22.7c7.7,3.9,22.9,11.3,30.5,13.6
			C952.8,114.6,993,125.1,1007.3,128.8z"/>
		<path class="st9" d="M991.8,181.9l-0.8-0.3c-24.7-9.2-71.9-26.7-79.1-29.5c-2.9-1.1-7.5-3.4-12.9-6c-13.3-6.5-31.4-15.3-42.6-16.8
			l-8.4-1l8.4-1.1c30.8-4.2,34.7-5.5,38.8-6.9l1-0.3c1.1-0.3,4.9-4.5,16.4-22.3l0.6-0.8l0.9,0.4c6.5,3.2,22.6,11.2,30.4,13.5
			c5.8,1.8,27.6,7.6,63.1,16.9l1,0.2l-0.2,1c-0.8,4.4-2.6,14.3-4.5,24.5c-1.9,10.1-5.8,19.3-11.7,27.7L991.8,181.9z M863.1,128.4
			c11.2,3,25.7,10.2,36.9,15.7c5.3,2.6,9.8,4.8,12.7,5.9c7.2,2.7,53.3,20,78.3,29.2c5.4-7.9,9.1-16.7,10.8-26.1
			c1.8-9.4,3.5-18.7,4.2-23.5c-34.9-9.1-56.5-14.9-62.2-16.7c-7.6-2.3-22.8-9.7-29.9-13.3c-12.3,18.7-15.4,21.8-17.1,22.3l-1,0.3
			C891.9,123.7,888.4,124.9,863.1,128.4z"/>
	</g>
	<g>
		<path class="st12" d="M1058.8,8.5c-1.7,4.6-3.6,9.3-5.3,14.1c-3.8,11.4-17.3,19.7-30,46.7c-8.1,18-13.3,37.2-15.7,56.8
			c0,0-0.1,0.9-0.4,2.6c-14.4-3.7-54.7-14.2-63.2-16.9c-7.6-2.3-22.8-9.7-30.5-13.6C930.5,72.6,953,34.4,953,34.4
			s-14.5-22.9-33.4-52.9c12.1,0.4,53.8,1.9,56.6,1.9c0.3,0,0.6,0.1,0.9,0.1c3.1,1,10.4,6,16,9.6c1.8,1.2,3.7,2.3,5.7,3.2
			c3.8,1.5,21.7-0.2,28.1,0c0.4,0,1,0,1.5,0C1031.1-3.3,1048.3,4,1058.8,8.5z"/>
		<path class="st9" d="M1008.2,130.2l-1.2-0.3c-35.6-9.3-57.4-15.1-63.3-16.9c-7.9-2.5-24.2-10.4-30.8-13.6l-1.1-0.6l0.7-1
			c15.4-23.6,35.9-58.4,38.8-63.3c-2.3-3.7-15.9-25.1-33.1-52.3l-1.1-1.8l2.1,0.1c19.8,0.7,54.1,1.9,56.6,1.9c0.4,0,0.9,0.1,1.2,0.2
			c2.5,0.8,7.5,4,12.3,7.2c1.3,0.9,2.7,1.8,3.9,2.6c1.8,1.2,3.6,2.2,5.6,3.1c2.1,0.9,10.7,0.4,17.6,0.1c4-0.2,7.8-0.3,10.2-0.2
			c0.4,0,0.9,0,1.5,0c2.5,0.3,12.6,4.2,31.1,12.3l1,0.4l-0.3,1c-0.7,1.7-1.2,3.4-1.9,5.1c-1.1,2.9-2.3,5.9-3.4,9.1
			c-1.7,5.1-5.3,9.6-9.7,15.2c-5.8,7.4-13.2,16.4-20.2,31.7c-7.9,17.9-13.2,36.9-15.7,56.5c0,0.1-0.1,0.9-0.4,2.6L1008.2,130.2z
			 M915.2,97.8c7.2,3.6,21.9,10.7,29.3,13c5.8,1.8,27.2,7.5,62,16.6c0.1-0.9,0.2-1.3,0.2-1.3c2.3-19.7,7.7-38.9,15.8-57
			c7.3-15.4,14.7-24.7,20.6-32.1c4.4-5.5,7.8-9.8,9.4-14.5c1-3.1,2.2-6.2,3.4-9.2c0.6-1.3,1-2.7,1.6-4c-21.7-9.3-28-11.5-29.4-11.6
			c-0.3,0-0.8,0-1.2,0c-2.3-0.1-6.2,0.1-10.1,0.2c-9.3,0.4-16,0.7-18.5-0.3c-2.1-1-4-2.1-5.9-3.4c-1.2-0.8-2.6-1.7-3.9-2.5
			c-4.5-2.9-9.5-6.3-11.7-6.9c-0.2-0.1-0.3-0.1-0.6-0.1c-2.8,0-44.4-1.5-54.5-1.8c18.3,29.1,32.3,51.1,32.3,51.1l0.3,0.6l-0.3,0.6
			C953.6,35.3,931.7,72.4,915.2,97.8z"/>
	</g>
	<g>
		<path class="st12" d="M1063-9.6c-0.3,6.3-1.8,12.3-4.2,18.1c-10.5-4.5-27.7-11.9-30.8-12.2c-0.4,0-1,0-1.5,0
			c0-5.1-0.2-12.3-1.3-14.1c-0.7-1.1-1-2.5-1.2-3.7c-0.4-2.9-0.1-6.4,1.2-7.7c0.7-0.7,0.8-3.8,0.8-8.2c6.5-0.1,20.5-0.3,22.9,0
			c4.2,1.1,8.5,2,12.9,2.6C1062.9-23.6,1063-15.2,1063-9.6z"/>
		<path class="st9" d="M1059.5,10l-4.2-1.8c-9.7-4.1-24.6-10.4-27.2-10.7c-0.3,0-0.8,0-1.2,0l-1.2,0.1v-1.2
			c0-10.8-0.9-13.1-1.1-13.4c-0.8-1.3-1.2-2.7-1.3-4.1c-0.4-3-0.2-6.9,1.6-8.7c0.2-0.4,0.4-3,0.4-7.4v-1.1h1.1
			c4.7-0.1,20.4-0.3,23.2,0c4.4,1.1,8.6,2,12.9,2.6l0.9,0.1l0.1,0.9c0.8,8.8,1.1,17.1,1.1,25.4v0.1c-0.3,6.4-1.8,12.5-4.4,18.5
			L1059.5,10z M1027.7-4.8c0.1,0,0.2,0,0.4,0c2.8,0.3,14.3,5.1,27.8,10.8l2.2,0.9c2.1-5.4,3.4-11,3.7-16.7c0-7.8-0.3-15.8-1-24.3
			c-4.1-0.6-8.2-1.5-12.2-2.5c-1.9-0.2-12.2-0.1-21.6,0c0,5.3-0.3,7-1.1,7.8c-1,1-1.3,3.9-0.9,6.8c0.1,1.2,0.6,2.3,1.1,3.4
			C1026.7-17.7,1027.7-16.1,1027.7-4.8z"/>
	</g>
	<g>
		<path class="st12" d="M857.5,122c-0.1,1.8-0.4,3.9-0.9,6.3l0,0c-12.6,1.8-29.7,4-53.1,6.9c-22.9,2.9-51.2,7.8-80.2,13.4
			c-0.4-3.6-0.7-6.4-0.9-7.9c-1.2-12.1-2.6-62.4-8.3-95.8L856.8,0C857.8,46,858.9,106.7,857.5,122z"/>
		<path class="st9" d="M722.2,149.8l-0.1-1.2c-0.4-3.7-0.7-6.4-0.9-7.9c-0.3-3.4-0.7-9.8-1.1-17.9c-1.2-21.4-3-53.8-7-77.8l-0.1-1
			L857.9-1.6v1.5c1,45.1,2.1,106.8,0.7,122c-0.1,1.7-0.4,3.6-0.9,6.4l-0.1,0.8l-0.8,0.1c-13.6,1.9-31,4.1-53.2,6.9
			c-21.1,2.7-48.1,7.2-80.1,13.3L722.2,149.8z M715.3,45.6c4,24,5.8,55.9,6.9,77.1c0.4,8.1,0.8,14.4,1.1,17.8
			c0.1,1.5,0.3,3.7,0.7,6.7c31.7-6,58.2-10.5,79.1-13.2c21.8-2.8,38.9-5,52.3-6.8c0.4-2.2,0.7-3.9,0.8-5.4l0,0
			c1.5-15,0.3-75.4-0.7-120.3L715.3,45.6z"/>
	</g>
	<g>
		<path class="st12" d="M856.7,0L714,44.8c-1.1-8.2-3.2-16.1-6.4-23.7C696.2-2.7,667.5-60.1,667.5-66c0-0.4,0-0.9-0.1-1.2
			c13.5-1.7,18.1-4.9,21.2-8.5c3.8-4.5,9.2-13,16.4-13s15.8,11.6,21.5,11.6c3.9,0,14.9-0.7,21.5-1.1c2.6,3.4,5.7,6,9.3,8.2
			c23.3,11.2,20.8,8.4,29,2.5c8.2-5.9,16.8-13,29.7-4.8c13,8.2,11.4,8.5,13,6.6c1.7-2,6-6.6,12.7,1.9c5.9,7.6,9.5,24.3,14,25.5
			C855.9-28.8,856.4-15.2,856.7,0z"/>
		<path class="st9" d="M713,46.2l-0.2-1.3c-1.1-8.1-3.2-16-6.4-23.5c-2.6-5.4-6-12.5-9.8-20.5c-17.2-35.2-30.3-62.6-30.3-67.1
			c0-0.3,0-0.7-0.1-1l-0.3-1.2l1.2-0.1c14-1.8,17.9-5.1,20.6-8.2c0.6-0.7,1.2-1.5,1.8-2.2c3.7-4.7,8.8-11.1,15.4-11.1
			c4.1,0,8.5,3.4,12.6,6.6c3.2,2.5,6.5,5,8.8,5c3.8,0,15.1-0.7,21.5-1.1h0.6l0.3,0.4c2.5,3.2,5.5,5.8,8.9,7.8
			c19.5,9.3,20.1,8.7,24.9,4.8c0.8-0.7,1.8-1.5,2.9-2.2l0.9-0.7c7.9-5.8,17-12.5,30.1-4.2c4.2,2.7,6.9,4.5,8.7,5.7
			c1.1,0.8,1.9,1.3,2.3,1.6l0.1-0.1l0.3-0.3c0.7-0.9,2.8-3.6,6.2-3.5c2.7,0,5.5,1.8,8.3,5.4c2.8,3.6,5.1,9.2,7.2,14.1
			c2,4.9,4.4,10.5,6.2,11.1l0.8,0.2l0.2,7.9c0.2,8.8,0.6,19.7,0.9,31.4v0.8l-0.8,0.2L713,46.2z M668.6-66.4c0,0.1,0,0.2,0,0.3
			c0,4.4,18.1,41.5,30.1,66.1c3.8,7.9,7.4,15.1,10,20.5c3,7.4,5.1,15,6.3,22.7L855.6-0.8c-0.2-11.4-0.6-21.9-0.9-30.5l-0.2-6.5
			c-2.5-1.5-4.5-6.2-6.8-12c-2-4.8-4.2-10.2-6.8-13.5c-2.3-2.9-4.6-4.5-6.5-4.5c-1.6-0.1-3,0.9-4.5,2.6l-0.2,0.3
			c-1.5,1.8-2.3,1.2-5.5-1c-1.8-1.2-4.4-3-8.7-5.7c-11.9-7.5-19.9-1.6-27.6,4.1l-0.9,0.7c-1.1,0.8-2,1.6-2.8,2.2
			c-5.6,4.7-7.2,5.1-27.3-4.5c-3.7-2.1-6.7-4.8-9.3-7.9c-7.7,0.4-17.3,1-21,1c-3,0-6.5-2.7-10.2-5.5c-3.9-3-7.8-6.2-11.3-6.2
			c-5.6,0-10.3,5.9-13.6,10.3c-0.7,0.9-1.3,1.7-1.9,2.3C685.9-71.1,681-68.1,668.6-66.4z"/>
	</g>
	<g>
		<path class="st12" d="M952.9,34.4c0,0-22.5,38.2-39.3,63.9c-8.2,12.4-14.9,21.9-17.1,22.7c-4.8,1.6-6.7,2.7-40,7.3l0,0
			c0.4-2.3,0.8-4.5,0.9-6.3c1.5-15.2,0.3-75.9-0.8-121.9c-0.3-15.2-0.7-28.9-1-38.6c0.6,0.1,1.1,0,1.7-0.2
			c5.3-3.1,11.4-9.7,20.8-6.4c8.2,2.9,15.1,2.6,22.5-3.5c6.5,10.4,12.9,20.7,18.9,30.2C938.3,11.5,952.9,34.4,952.9,34.4z"/>
		<path class="st9" d="M855.2,129.6l0.2-1.6c0.4-2.7,0.8-4.6,0.9-6.2c1.1-11.9,0.9-52.8-0.8-121.8c-0.3-15.2-0.7-28.9-1-38.6V-40
			l1.5,0.3c0.3,0.1,0.6,0,0.8-0.1c0.9-0.6,1.9-1.2,2.9-2c4.7-3.4,10.6-7.5,18.8-4.5c8.5,3,14.9,2.1,21.4-3.2l1-0.8l0.7,1.1
			c6.5,10.4,12.9,20.7,18.9,30.2c18.6,29.6,33.1,52.7,33.3,52.9l0.3,0.6l-0.3,0.6c-0.2,0.3-22.7,38.6-39.3,64
			c-12.7,19.6-16.1,22.6-17.7,23.2l-1,0.3c-4.4,1.5-8.2,2.7-39.1,6.9L855.2,129.6z M856.9-37.4c0.3,9.7,0.7,22.8,1,37.5
			c1.7,69.1,1.9,110.2,0.8,122c-0.1,1.3-0.3,2.9-0.7,4.8c29.4-4,33.2-5.4,37.2-6.7l1-0.3c0.8-0.2,3.9-2.9,16.4-22.3
			c15.4-23.6,35.9-58.4,38.8-63.3c-2.3-3.7-16-25.3-32.9-52.3c-5.8-9.2-12-19-18.2-29.1c-6.8,5.1-13.9,6-22.6,2.9
			c-7-2.6-12.2,1-16.8,4.2c-1,0.8-2,1.5-3,2C857.6-37.6,857.3-37.5,856.9-37.4z"/>
	</g>
</g>
</svg>
