<?xml version="1.0" encoding="utf-8"?>
<!-- Generator: Adobe Illustrator 26.0.0, SVG Export Plug-In . SVG Version: 6.00 Build 0)  -->
<svg version="1.1" id="Layer_1" xmlns="http://www.w3.org/2000/svg" xmlns:xlink="http://www.w3.org/1999/xlink" x="0px" y="0px"
	 viewBox="0 0 1116 360" style="enable-background:new 0 0 1116 360;" xml:space="preserve">
<style type="text/css">
	.st0{fill:#ED2F38;}
	.st1{opacity:0.24;}
	.st2{opacity:0.19;fill:#FFFFFF;enable-background:new    ;}
	.st3{font-family:'Poppins-ExtraBold';}
	.st4{font-size:65.16px;}
	.st5{font-size:71.62px;}
	.st6{fill:#1B1E2A;}
	.st7{font-family:'Poppins-Regular';}
	.st8{font-size:69.773px;}
	.st9{fill:#FFFFFF;}
	.st10{fill:#46506D;}
	.st11{fill:#1B1D29;}
</style>
<rect class="st0" width="1116" height="360"/>
<g>
	<g class="st1">
		<text transform="matrix(1 0 0 1 -143.1066 115.6999)" class="st2 st3 st4">DUMAGUETE</text>
		<text transform="matrix(1 0 0 1 285.7234 115.6999)" class="st2 st3 st4">DUMAGUETE</text>
	</g>
	<g class="st1">
		<text transform="matrix(1 0 0 1 -397.3566 176.5399)" class="st2 st3 st4">DUMAGUETE</text>
		<text transform="matrix(1 0 0 1 31.4734 176.5399)" class="st2 st3 st4">DUMAGUETE</text>
	</g>
	<g class="st1">
		<text transform="matrix(1 0 0 1 -103.7266 234.0798)" class="st2 st3 st4">DUMAGUETE</text>
		<text transform="matrix(1 0 0 1 325.1034 234.0798)" class="st2 st3 st4">DUMAGUETE</text>
	</g>
	<g class="st1">
		<text transform="matrix(1 0 0 1 -400.5767 295.0599)" class="st2 st3 st4">DUMAGUETE</text>
		<text transform="matrix(1 0 0 1 28.2534 295.0599)" class="st2 st3 st4">DUMAGUETE</text>
	</g>
	<g class="st1">
		<text transform="matrix(1 0 0 1 -211.1266 355.1899)" class="st2 st3 st4">DUMAGUETE</text>
		<text transform="matrix(1 0 0 1 217.7034 355.1899)" class="st2 st3 st4">DUMAGUETE</text>
	</g>
	<g class="st1">
		<text transform="matrix(1 0 0 1 -51.9866 59.0099)" class="st2 st3 st5">DUMAGUETE</text>
	</g>
	<g class="st1">
		<text transform="matrix(1 0 0 1 714.0093 115.6999)" class="st2 st3 st4">DUMAGUETE</text>
	</g>
	<g class="st1">
		<text transform="matrix(1 0 0 1 459.7594 176.5399)" class="st2 st3 st4">DUMAGUETE</text>
		<text transform="matrix(1 0 0 1 888.5894 176.5399)" class="st2 st3 st4">DUMAGUETE</text>
	</g>
	<g class="st1">
		<text transform="matrix(1 0 0 1 753.3894 234.0798)" class="st2 st3 st4">DUMAGUETE</text>
	</g>
	<g class="st1">
		<text transform="matrix(1 0 0 1 456.5393 295.0598)" class="st2 st3 st4">DUMAGUETE</text>
		<text transform="matrix(1 0 0 1 885.3694 295.0598)" class="st2 st3 st4">DUMAGUETE</text>
	</g>
	<g class="st1">
		<text transform="matrix(1 0 0 1 645.9893 355.1898)" class="st2 st3 st4">DUMAGUETE</text>
		<text transform="matrix(1 0 0 1 1074.8193 355.1898)" class="st2 st3 st4">DUMAGUETE</text>
	</g>
	<g class="st1">
		<text transform="matrix(1 0 0 1 413.5199 59.0103)" class="st2 st3 st5">DUMAGUETE</text>
	</g>
	<g class="st1">
		<text transform="matrix(1 0 0 1 876.388 59.5117)" class="st2 st3 st5">DUMAGUETE</text>
	</g>
</g>
<g>
	<text transform="matrix(1 0 0 1 184.1554 213.1137)" class="st6 st7 st8">MOTONG</text>
	<g>
		<g>
			<path class="st9" d="M171.9,154.9L171.9,154.9L171.9,154.9c0.1-0.4,0.2-0.8,0.4-1.1c0.7-1.2,1-2.6,0.7-4l-0.1-0.7
				c-0.1-0.3-0.1-0.6-0.2-1l0,0c-0.4-2.1-0.7-3.8-1.3-5.2c-0.9-2.5-1.7-5-2.3-7.5c-0.3-1.4-0.5-4.3-0.5-4.3
				c-0.1-0.8-0.7-1.4-1.5-1.3c-0.5,0-0.9,0.3-1.2,0.7c-0.7,1.1-1.7,2.3-2.1,2.5c-0.6,0.2-2.8,0.3-4,0.3c-1.6,0.1-2.2,0.1-2.6,0.3
				c-0.4,0.1-0.8,0.1-1.3,0c-0.8-0.2-5.9-0.6-7.7,0.1c-0.6,0.2-1,0.4-1.4,0.6l0,0l-0.4,0.2c-0.2,0.1-0.5,0.3-0.7,0.4
				c-2.5,0.3-5.1,0.5-7.7,0.6l0,0h-0.7c-4.3,0.1-6.9-0.4-7.2-0.6c-0.1,0-0.1-0.1-0.2-0.1c-0.9-0.4-3.3-1.5-6.2-1l0,0h-0.1l0,0h-0.2
				c-3.1,0.7-4.8,1.5-5.2,1.7c-0.6,0.2-5.1,1.7-7,2.3c-0.5-0.8-1.2-2.2-1.6-3.1c-1.4-2.8-1.7-3.2-2.1-3.5c-0.5-0.3-3.7-1.5-4.6-1.8
				c-4.6-1.6-4.8-1.5-5.4-1.1c-0.4,0.2-0.5,0.4-1.7,2.4c-1,1.7-3.7,6.2-4.6,6.8c-0.5,0.2-2.9,1.1-5.5,2.1c-3.3,1.3-7.5,2.9-10.9,4.2
				c-1.9,0.7-3.2,1.3-4.2,1.7c-0.6,0.2-1,0.4-1.3,0.5c-0.4,0.2-1.5,0.7-1.2,1.8c0.1,0.5,0.2,0.6,1.8,2.4c1.7,1.9,4.8,5.3,5.8,7.2
				c0.5,0.9,1.5,3.2,2.8,6.4l0,0c1,2.5,2.2,5.5,3.2,8.2l0,0c0.9,2.3,1.5,4.2,1.9,5.3c0.7,2.1,3.1,9.8,7,22.2l0,0l1.7,5.5l2,7.1l0,0
				l8.4,29.4c0.2,0.6,0.7,1,1.4,1c0.1,0,0.1,0,0.2,0l17.5-2.1h0.1h0.1l0,0l12.7-2.2l0,0h0.2h0.1l14.6-3.7c0.5-0.1,0.9-0.5,1-1
				c0.5-2,1.9-5.6,3.2-6.6c0.1-0.1,0.2-0.2,0.3-0.2c0,0,0.1-0.1,0.2-0.3l0,0c4-4.8,4-5.8,4-6.3v-0.3c0.1-4.9,0.8-6.5,1.1-7l0.1-0.2
				l0,0c1-1.4,1.7-3,2-4.7c0.4-1.9,0.6-3.2,0.7-3.7l0,0l0,0l0.1-0.4v-0.1c0.3-2.8,1.1-5.5,2.2-8.1c0.8-1.6,1.7-3.1,2.9-4.5
				c0.7-0.9,1.4-1.7,1.7-2.7c0.1-0.4,0.3-0.9,0.5-1.3c0.1-0.3,0.2-0.5,0.3-0.8l0,0c0.4-1,0.7-2.1,0.7-3.2c0-0.9,0-2.2-0.2-3.9l0,0
				c-0.2-1.7-0.4-3.3-0.7-5c-0.4-2.2-0.9-4.3-1.7-6.3l0,0l0,0c-0.1-0.3-0.2-0.5-0.3-0.8c-0.1-0.2-0.2-0.4-0.2-0.7
				c0,0,0.1-0.1,0.5-0.4c1.4-0.8,3.2-2.4,4.1-4.4l0,0c0.2-0.5,0.3-0.9,0.4-1.4c0.2-1.2,0.1-2.4-0.3-3.5
				C171.9,155.8,171.8,155.4,171.9,154.9z"/>
		</g>
		<g>
			<path class="st10" d="M121.8,172.7c-1,0.1-2.7,0.2-3.2,0.2c-0.9,0-2.1-1.7-3.2-1.7s-1.9,1.3-2.5,2c-0.5,0.5-1.2,1-3.2,1.3
				c-0.4,0.1-0.9,0.1-1.5,0.1c-3.2,0.2-4.3-1.3-6.2-1.6c-1.8-0.4-1.9,0.3-3.2,0.6c-1.2,0.3-2.1-1.4-5.4-3.1c-3.3-1.6-3-0.5-4.4-0.2
				c-1.5,0.4-3.8-1.8-4.1-1.7c-0.2,0.1-1.2,1.7-2,3c-1-2.6-2.1-5.6-3.2-8.2c2-0.3,6.4-0.9,14.2-2.2c9.9-1.6,18.3-3.1,20.1-3.4
				C115.5,161.4,119,169.5,121.8,172.7z"/>
			<path class="st6" d="M107.6,174.7c-1.8,0-2.9-0.5-3.8-1c-0.6-0.3-1.1-0.5-1.8-0.7c-1.2-0.2-1.6,0-2.1,0.2c-0.3,0.1-0.6,0.3-1,0.4
				c-0.7,0.2-1.3-0.3-2.3-1c-0.7-0.6-1.8-1.3-3.3-2.1c-2.4-1.2-2.8-0.9-3.4-0.6c-0.2,0.1-0.5,0.3-0.9,0.4c-1.1,0.3-2.5-0.7-3.4-1.3
				c-0.3-0.2-0.6-0.4-0.7-0.4c-0.1,0.1-0.5,0.6-1.9,2.9l-0.2,0.3l-0.1-0.3c-1-2.7-2.2-5.7-3.2-8.2l-0.1-0.2h0.2
				c2-0.3,6.4-0.9,14.2-2.2c10.4-1.7,19.1-3.2,20.1-3.4h0.1l0.1,0.1c1.4,3.4,5.1,11.8,7.8,15.1l0.2,0.3h-0.3
				c-1.1,0.1-2.7,0.2-3.2,0.2s-1-0.4-1.5-0.8c-0.6-0.5-1.2-0.9-1.7-0.9c-0.8,0-1.5,0.9-2,1.5c-0.1,0.1-0.2,0.3-0.3,0.4
				c-0.5,0.6-1.3,1.1-3.3,1.3c-0.4,0.1-0.9,0.1-1.5,0.1C108,174.7,107.8,174.7,107.6,174.7z M101,172.6c0.3,0,0.6,0,1,0.1
				c0.7,0.1,1.2,0.4,1.8,0.7c1,0.5,2.2,1.1,4.3,0.9c0.6,0,1.1-0.1,1.5-0.1c2.1-0.3,2.7-0.8,3.1-1.2c0.1-0.1,0.2-0.2,0.3-0.4
				c0.6-0.7,1.3-1.6,2.3-1.6c0.6,0,1.3,0.5,1.9,1c0.5,0.4,1,0.8,1.3,0.8c0.5,0,2.1-0.1,2.9-0.1c-2.7-3.4-6.2-11.3-7.6-14.8
				c-1.5,0.3-9.9,1.7-20,3.4c-7.6,1.2-12,1.9-14,2.2c1,2.4,2.1,5.2,3,7.7c1.6-2.7,1.8-2.7,1.9-2.8c0.2,0,0.4,0.1,1,0.5
				c0.8,0.6,2.2,1.5,3.1,1.3c0.4-0.1,0.6-0.2,0.8-0.4c0.8-0.4,1.3-0.6,3.7,0.6c1.6,0.8,2.6,1.5,3.4,2.1c0.9,0.7,1.4,1.1,2,0.9
				c0.4-0.1,0.7-0.2,0.9-0.3C100.1,172.7,100.4,172.6,101,172.6z"/>
		</g>
		<g>
			<path class="st10" d="M130.6,147.7l-16.3,9.9l-0.3,0.1c-1.8,0.3-10.2,1.8-20.1,3.4c-7.8,1.3-12.3,1.9-14.2,2.2
				c-1.2-2.9-2.3-5.5-2.9-6.6c-1.6-2.9-7.4-8.8-7.5-9.1s20.7-8.1,22.3-8.8s6.1-9.1,6.5-9.3c0.3-0.2,8.1,2.6,8.6,2.9
				c0.5,0.3,3.5,7.1,4,7.1s7.8-2.4,8.2-2.6c0.4-0.2,1.9-0.9,4.9-1.6c0.1,0,0.1,0,0.2,0L130.6,147.7z"/>
			<path class="st6" d="M79.5,163.4v-0.1c-0.9-2.3-2.2-5.3-2.9-6.5c-1.1-1.9-4.1-5.3-6-7.4c-1.3-1.5-1.5-1.7-1.5-1.8
				c0-0.2-0.1-0.3,16.8-6.8c2.9-1.1,5.1-2,5.6-2.2c1.1-0.5,3.7-4.9,5.2-7.3c0.9-1.5,1.1-1.9,1.3-2c0.5-0.3,8.7,2.9,8.7,2.9
				c0.2,0.1,0.7,1,1.7,3c0.8,1.6,2,3.9,2.3,4.1c0.5,0,7.7-2.4,8.1-2.6c0.2-0.1,1.8-0.9,4.9-1.6c0.1,0,0.2,0,0.2,0h0.1l6.8,12.6
				l-16.5,10l-0.3,0.1c-0.4,0.1-9.3,1.6-20.1,3.4c-7.8,1.3-12.3,1.9-14.2,2.2L79.5,163.4z M69.5,147.6c0.2,0.2,0.8,0.9,1.4,1.6
				c1.8,2,4.9,5.5,6,7.4c0.7,1.2,1.9,4.2,2.8,6.5c2-0.3,6.4-0.9,14.1-2.2c10.8-1.8,19.7-3.3,20.1-3.4l0.3-0.1l16.1-9.8l-6.5-12.1
				h-0.1c-3.1,0.7-4.7,1.5-4.9,1.5c-0.3,0.2-7.7,2.6-8.3,2.6c-0.4,0-0.9-1-2.5-4.2c-0.7-1.3-1.4-2.7-1.6-2.9
				c-0.5-0.3-7.7-2.9-8.4-2.9c-0.1,0.1-0.6,1-1.1,1.8c-2.1,3.5-4.2,7-5.3,7.4c-0.5,0.2-2.7,1.1-5.6,2.2
				C80.2,143.3,70.6,147,69.5,147.6z"/>
		</g>
		<g>
			<path class="st10" d="M116.6,191.2L91.7,199c-2.2-7.2-6-19.3-7-22.2c-0.4-1.2-1.1-3.2-2-5.4c0.8-1.3,1.8-2.9,2-3
				c0.3-0.1,2.6,2.1,4.1,1.7s1.1-1.4,4.4,0.2c3.3,1.6,4.2,3.3,5.4,3.1c1.2-0.3,1.3-0.9,3.2-0.6c1.8,0.4,2.9,1.8,6.2,1.6
				c0.6,0,1.1-0.1,1.5-0.1c0,0.1,0,0.1,0,0.2c0,0.9,4.3,9.5,6,13.1C116.2,188.8,116.5,190,116.6,191.2z"/>
			<path class="st6" d="M91.6,199.2V199c-1.4-4.4-5.9-19-7-22.2c-0.4-1.2-1.1-3.2-2-5.4v-0.1v-0.1c1.8-3,2-3,2.1-3.1
				c0.2,0,0.4,0.1,1,0.5c0.8,0.5,2.2,1.5,3.1,1.2c0.4-0.1,0.6-0.2,0.8-0.4c0.8-0.4,1.3-0.6,3.7,0.6c1.6,0.8,2.6,1.5,3.4,2.1
				c0.9,0.7,1.4,1.1,2,0.9c0.4-0.1,0.7-0.2,0.9-0.3c0.6-0.3,1-0.5,2.3-0.2c0.7,0.1,1.2,0.4,1.8,0.7c1,0.5,2.2,1.1,4.3,0.9
				c0.6,0,1.1-0.1,1.5-0.1h0.1v0.1c0,0.1,0,0.2,0,0.2c0,0.7,2.8,6.5,4.7,10.4c0.5,1,0.9,1.9,1.3,2.6c0.5,1.2,0.8,2.4,1,3.6v0.1h-0.1
				L91.6,199.2z M83,171.4c0.8,2.2,1.5,4.1,1.9,5.3c1.1,3.2,5.5,17.5,6.9,22.1l24.6-7.7c-0.2-1.2-0.5-2.3-0.9-3.4
				c-0.3-0.7-0.8-1.6-1.3-2.6c-2.6-5.3-4.8-9.8-4.8-10.5l0,0c-0.4,0-0.8,0.1-1.3,0.1c-2.1,0.1-3.4-0.5-4.4-1
				c-0.6-0.3-1.1-0.5-1.8-0.7c-1.2-0.2-1.6,0-2.1,0.2c-0.3,0.1-0.6,0.3-1,0.4c-0.7,0.2-1.3-0.3-2.3-1c-0.7-0.6-1.8-1.3-3.3-2.1
				c-2.4-1.2-2.8-0.9-3.4-0.6c-0.2,0.1-0.5,0.3-0.9,0.4c-1.1,0.3-2.5-0.7-3.4-1.3c-0.3-0.2-0.6-0.4-0.7-0.4
				C84.8,168.7,84.4,169.2,83,171.4z"/>
		</g>
		<g>
			<path class="st10" d="M118,206.8c-8.8,1.7-18.2,3.8-22.5,4.8l-2-7.1c0,0-0.7-2.3-1.7-5.5l24.9-7.8c0.9,5,1.1,12.6,1.2,14.4
				C117.9,205.8,117.9,206.3,118,206.8z"/>
			<path class="st6" d="M95.4,211.8l-2.1-7.2l0,0c0,0-0.7-2.3-1.7-5.5v-0.2l25.2-7.9v0.2c0.6,3.6,0.9,8.5,1.1,11.7
				c0.1,1.2,0.1,2.2,0.2,2.7c0,0.2,0.1,0.6,0.1,1.2v0.2H118C108.9,208.8,99.2,211,95.4,211.8L95.4,211.8z M91.9,199.1
				c1,3.2,1.7,5.4,1.7,5.4l2,6.9c3.8-0.9,13.2-3,22.2-4.8c-0.1-0.5-0.1-0.8-0.1-1c-0.1-0.5-0.1-1.5-0.2-2.7c-0.2-3.2-0.4-7.9-1-11.5
				L91.9,199.1z"/>
		</g>
		<g>
			<path class="st10" d="M121.5,238.9L121.5,238.9l-17.6,2.1l-8.4-29.4c4.3-1,13.7-3.1,22.5-4.8c0.5,4.9,2.3,21.2,2.5,25.2
				C120.6,234.3,121,236.6,121.5,238.9z"/>
			<path class="st6" d="M103.8,241.2l-8.5-29.7h0.2c2.9-0.7,12.9-3,22.5-4.8h0.2l0.2,1.8c0.6,6,2.2,20,2.3,23.6
				c0.1,2.3,0.5,4.6,1.1,6.9v0.2l-0.3,0.1L103.8,241.2z M95.7,211.7l8.4,29.1l17.3-2.1c-0.6-2.2-0.9-4.5-1-6.7
				c-0.1-3.6-1.7-17.6-2.3-23.5l-0.2-1.4C108.5,208.8,98.7,211,95.7,211.7z"/>
		</g>
		<g>
			<path class="st10" d="M133.4,219c-0.2,0.6,0.6,13.3,0.9,17.6l-12.7,2.2c-0.6-2.3-0.9-4.6-1.1-6.9c-0.2-4-1.9-20.2-2.5-25.2
				c4.4-0.8,8.6-1.6,12.1-2s6.1-0.8,8-1c-0.5,2.3-1.1,4.5-1.8,6.7C135,214.5,133.5,218.6,133.4,219z"/>
			<path class="st6" d="M121.4,239v-0.1c-0.6-2.3-0.9-4.6-1.1-6.9c-0.1-3.6-1.7-17.6-2.3-23.5l-0.2-1.8h0.2c4.9-0.9,9-1.6,12.1-2
				c3.3-0.4,6-0.8,8-1h0.2v0.2c-0.5,2.3-1.1,4.5-1.8,6.7c-0.9,2.8-1.8,5.6-2.4,7.3c-0.2,0.7-0.4,1.2-0.4,1.3
				c-0.1,0.5,0.4,9.4,0.9,17.5v0.1L121.4,239z M118.2,206.9l0.2,1.5c0.6,6,2.2,19.9,2.3,23.5c0.1,2.3,0.5,4.5,1,6.7l12.4-2.2
				c-0.3-5.2-1-16.9-0.8-17.5l0,0c0-0.1,0.2-0.6,0.4-1.3c0.6-1.7,1.5-4.4,2.4-7.3c0.7-2.1,1.3-4.3,1.7-6.4c-2,0.3-4.6,0.6-7.8,1
				C127,205.3,123,206,118.2,206.9z"/>
		</g>
		<g>
			<path class="st10" d="M153.1,225.3l-0.2,0.3c-2.3,1.6-3.8,7.4-3.8,7.4l-14.6,3.7h-0.2c-0.3-4.3-1-17-0.9-17.6
				c0.1-0.4,1.6-4.5,2.9-8.6c1,2.5,3.1,7,3.7,7.6C140.7,218.7,149.6,223.4,153.1,225.3z"/>
			<path class="st6" d="M134.1,236.8v-0.2c-0.1-1.7-1-16.9-0.8-17.7c0-0.1,0.2-0.7,0.5-1.4c0.6-1.6,1.5-4.4,2.4-7.2l0.1-0.4l0.2,0.4
				c1.4,3.4,3.1,7.1,3.7,7.6c0.8,0.7,10.2,5.7,13.1,7.2l0.2,0.1l-0.4,0.5c-2.2,1.6-3.7,7.2-3.7,7.3v0.1L134.1,236.8z M136.3,210.9
				c-0.8,2.6-1.7,5.2-2.2,6.8c-0.3,0.7-0.4,1.3-0.5,1.4c-0.1,0.5,0.4,10.6,0.8,17.4l14.5-3.7c0.2-0.8,1.7-5.8,3.8-7.4l0.1-0.1
				c-3.8-2-12.2-6.4-13-7.1C139.1,217.5,137,212.6,136.3,210.9z"/>
		</g>
		<g>
			<path class="st10" d="M158.4,211.6c-0.1,0.1-0.1,0.1-0.1,0.1c-1.4,1.8-1.4,7-1.5,8.1c0,0.9-2.9,4.4-3.7,5.4
				c-3.5-1.9-12.4-6.5-13.1-7.2c-0.7-0.6-2.7-5.2-3.7-7.6c0.7-2.2,1.3-4.4,1.8-6.7l0,0c2.4,0.3,6.9,2.8,8.4,3.4
				C147.6,207.6,154.7,210.2,158.4,211.6z"/>
			<path class="st6" d="M153.2,225.5l-0.1-0.1c-3.7-1.9-12.4-6.5-13.1-7.2c-0.7-0.7-2.9-5.6-3.8-7.7v-0.1v-0.1
				c0.7-2.2,1.3-4.4,1.8-6.7v-0.2h0.2c1.7,0.2,4.5,1.6,6.6,2.6c0.8,0.4,1.4,0.7,1.9,0.9c1.1,0.4,7.9,2.9,11.5,4.3l0.6,0.2l-0.1,0.2
				c-0.1,0.1-0.1,0.1-0.1,0.1c-1.2,1.7-1.4,6.2-1.4,7.7v0.3c0,0.9-2.3,3.8-3.7,5.5L153.2,225.5z M136.5,210.4
				c1.8,4.3,3.2,7.1,3.7,7.5c0.7,0.7,9.9,5.5,13,7.1c2.2-2.6,3.5-4.6,3.6-5.2v-0.3c0-1.5,0.2-6.1,1.5-7.9l-0.2-0.1
				c-3.9-1.5-10.4-3.9-11.5-4.3c-0.4-0.2-1.1-0.5-1.9-0.9c-1.9-1-4.6-2.2-6.3-2.5C137.7,206.1,137.1,208.3,136.5,210.4z"/>
		</g>
		<g>
			<path class="st10" d="M160.8,203.8c-0.1,0.6-0.3,1.9-0.7,3.7c-0.3,1.5-0.9,2.9-1.7,4.1c-3.7-1.4-10.8-4-11.9-4.4
				c-1.5-0.6-6-3.1-8.4-3.4c5-0.7,5.3-0.9,6-1.1c0.3-0.1,1.3-1.5,2.6-3.4c1.2,0.6,3.5,1.7,4.6,2
				C152.5,201.7,158.6,203.3,160.8,203.8z"/>
			<path class="st6" d="M158.4,211.8h-0.1c-3.7-1.4-10.8-4-11.9-4.4c-0.4-0.2-1.1-0.5-1.9-0.9c-2-1-4.7-2.3-6.4-2.5l-1.3-0.2
				l1.3-0.2c4.6-0.6,5.2-0.8,5.8-1h0.2c0.2-0.1,0.7-0.7,2.5-3.3l0.1-0.1l0.1,0.1c1,0.5,3.4,1.7,4.6,2c0.9,0.3,4.2,1.1,9.5,2.5h0.1
				v0.2c-0.1,0.7-0.4,2.2-0.7,3.7s-0.9,2.9-1.8,4.2L158.4,211.8z M139.1,203.8c1.7,0.5,3.9,1.5,5.6,2.3c0.8,0.4,1.5,0.7,1.9,0.9
				c1.1,0.4,8,3,11.8,4.4c0.8-1.2,1.4-2.5,1.6-3.9c0.3-1.4,0.5-2.8,0.6-3.5c-5.3-1.4-8.5-2.2-9.4-2.5c-1.1-0.4-3.4-1.5-4.5-2
				c-1.8,2.8-2.3,3.3-2.6,3.3H144C143.4,203.1,142.9,203.2,139.1,203.8z"/>
		</g>
		<g>
			<path class="st10" d="M168.5,185.8c-0.3,0.7-0.5,1.4-0.8,2.1c-0.6,1.7-2.6,3-4.5,7c-1.2,2.7-2,5.6-2.4,8.5c0,0,0,0.1-0.1,0.4
				c-2.2-0.6-8.2-2.1-9.5-2.5c-1.1-0.4-3.4-1.5-4.6-2c2.5-3.9,5.9-9.6,5.9-9.6s-2.2-3.4-5-8c1.8,0.1,8.1,0.3,8.5,0.3h0.1
				c0.5,0.1,1.6,0.9,2.4,1.4c0.3,0.2,0.6,0.3,0.9,0.5c0.6,0.2,3.3,0,4.2,0c0.1,0,0.1,0,0.2,0C164.3,184,166.9,185.1,168.5,185.8z"/>
			<path class="st6" d="M160.9,204h-0.2c-5.3-1.4-8.6-2.3-9.5-2.5c-1.2-0.4-3.6-1.6-4.6-2.1l-0.2-0.1l0.1-0.2
				c2.3-3.6,5.4-8.8,5.8-9.5c-0.4-0.6-2.4-3.8-5-7.9l-0.2-0.3h0.3c3,0.1,8.1,0.3,8.5,0.3c0.1,0,0.1,0,0.2,0c0.4,0.1,1.1,0.6,1.8,1.1
				c0.2,0.1,0.4,0.3,0.6,0.4c0.3,0.2,0.5,0.3,0.8,0.5c0.3,0.1,1.6,0.1,2.6,0c0.6,0,1.2-0.1,1.5,0c0.1,0,0.1,0,0.2,0
				c0.4,0,1.9,0.6,4.7,1.8l0.1,0.1l-0.1,0.1c-0.1,0.3-0.2,0.5-0.3,0.8c-0.2,0.4-0.3,0.9-0.5,1.4c-0.3,0.8-0.8,1.4-1.5,2.3
				c-0.9,1.1-2,2.5-3,4.8c-1.2,2.7-2,5.6-2.3,8.5c0,0,0,0.1-0.1,0.4L160.9,204z M146.9,199.2c1.1,0.5,3.3,1.6,4.4,2
				c0.9,0.3,4.1,1.1,9.3,2.5c0-0.1,0-0.2,0-0.2c0.4-3,1.2-5.8,2.4-8.6c1.1-2.3,2.2-3.7,3.1-4.8c0.7-0.8,1.2-1.5,1.4-2.2
				c0.2-0.5,0.3-0.9,0.5-1.4c0.1-0.2,0.2-0.4,0.2-0.6c-3.3-1.4-4.2-1.7-4.4-1.8c-0.1,0-0.1,0-0.2,0c-0.4,0-0.9,0-1.5,0
				c-1.4,0.1-2.4,0.1-2.8-0.1c-0.3-0.1-0.6-0.3-0.9-0.5c-0.2-0.1-0.4-0.2-0.6-0.4c-0.7-0.4-1.4-0.9-1.8-1h-0.1
				c-0.4,0-6.7-0.2-8.2-0.3c2.8,4.4,4.9,7.7,4.9,7.7l0.1,0.1l-0.1,0.1C152.7,189.8,149.4,195.4,146.9,199.2z"/>
		</g>
		<g>
			<path class="st10" d="M160.5,146.6c-2.4-0.2-3,2.2-11.1,4h-0.2c-6,1.3-12,2.9-15,3.7l-3.6-6.6l-6.7-12.3c2.8-0.5,5.3,0.8,5.7,1
				c0.5,0.2,3.2,0.7,7.7,0.6h0.7c1.4,2.3,4.6,7.4,4.7,7.4c0.1,0,7.8-2.2,11.3-3.2L160.5,146.6z"/>
			<path class="st6" d="M134.1,154.5l-10.4-19.3h0.2c2.5-0.5,4.6,0.5,5.5,0.9c0.1,0.1,0.2,0.1,0.3,0.1c0.5,0.2,3.1,0.7,7.7,0.6h0.8
				v0.1c2,3.3,4.2,6.9,4.6,7.3c0.5-0.1,4.6-1.3,7.9-2.2c1.3-0.4,2.4-0.7,3.4-0.9h0.1l6.9,5.7h-0.5c-1-0.1-1.6,0.3-2.7,0.9
				c-1.5,0.8-3.7,2-8.4,3.1h-0.2c-5.5,1.2-11.2,2.7-15,3.7L134.1,154.5z M124.2,135.5l10.1,18.6c3.8-1,9.4-2.5,14.9-3.7h0.2
				c4.6-1,6.8-2.2,8.3-3c0.9-0.5,1.6-0.9,2.4-0.9l-6-5c-0.9,0.3-2.1,0.6-3.3,0.9c-6.3,1.8-7.9,2.2-8,2.2s-0.3,0-4.8-7.4h-0.6
				c-4.6,0.1-7.3-0.5-7.8-0.6c-0.1,0-0.2-0.1-0.3-0.1C128.4,136,126.5,135.1,124.2,135.5z"/>
		</g>
		<g>
			<path class="st10" d="M154.1,141.2c-3.5,1-11.2,3.1-11.3,3.2s-3.3-5.1-4.7-7.4c2.7,0,5.3-0.3,7.9-0.6c0.5-0.2,1-0.4,1.4-0.6
				L154.1,141.2z"/>
			<path class="st6" d="M142.8,144.6c-0.2,0-0.5-0.5-4.9-7.5l-0.2-0.2h0.3c2.6,0,5.3-0.3,7.9-0.6c0.5-0.2,0.9-0.4,1.4-0.6l0.1-0.1
				l7,5.8l-0.3,0.1C150.5,142.4,142.9,144.5,142.8,144.6L142.8,144.6z M138.3,137.1c3.3,5.4,4.2,6.8,4.5,7.1
				c0.8-0.2,7.5-2.1,10.9-3.1l-6.3-5.3c-0.4,0.2-0.9,0.4-1.4,0.6C143.5,136.9,140.9,137.1,138.3,137.1z"/>
		</g>
		<g>
			<path class="st10" d="M171.3,148.4c-2.3-0.4-8.4-1.6-10.6-1.8h-0.2l0,0l-6.4-5.3l-6.7-5.6c0.4-0.2,0.8-0.4,1.3-0.6
				c1.3-0.5,6.1-0.3,6.8-0.1c0.6,0.2,2.2,0,2.4-0.2s5-0.1,6.4-0.6s2.9-3.1,2.9-3.1s0.2,3,0.6,4.5c0.6,2.6,1.4,5.2,2.3,7.8
				C170.6,145.1,171,146.7,171.3,148.4z"/>
			<path class="st6" d="M171.5,148.6h-0.2c-2.5-0.5-8.4-1.6-10.6-1.8h-0.3l0,0l-13.3-11.1l0.2-0.1c0.4-0.2,0.8-0.4,1.3-0.6
				c1.4-0.6,6.2-0.3,6.9-0.1c0.6,0.2,2,0,2.2-0.1c0.1-0.1,0.3-0.1,2-0.2c1.5-0.1,3.7-0.1,4.5-0.4c1.3-0.4,2.8-3,2.8-3l0.3-0.5v0.5
				c0,0,0.2,3,0.6,4.5c0.6,2.6,1.4,5.2,2.3,7.7c0.6,1.6,1,3.3,1.2,4.9L171.5,148.6z M160.6,146.4h0.2c2.1,0.2,7.8,1.3,10.4,1.8
				c-0.3-1.6-0.7-3.1-1.2-4.6c-0.9-2.5-1.7-5.2-2.3-7.8c-0.2-1.2-0.4-3.1-0.5-4c-0.5,0.8-1.7,2.4-2.7,2.7c-0.8,0.3-3,0.4-4.6,0.4
				c-0.8,0-1.6,0.1-1.8,0.1c-0.3,0.2-1.9,0.4-2.5,0.2c-0.7-0.2-5.4-0.4-6.7,0.1c-0.4,0.2-0.8,0.3-1.1,0.5L160.6,146.4z"/>
		</g>
		<g>
			<path class="st10" d="M171,159.9c-0.1,0.4-0.2,0.7-0.3,1.1c-1.2,0-3.6,0.4-6.9,2.4c-0.2,0.1-0.5,0.3-0.7,0.4l-0.5-10
				c2.2,0.2,5.9,0.6,7.9,0.8C170.2,156.4,171.4,157.6,171,159.9z"/>
			<path class="st6" d="M163,164.1l-0.5-10.5h0.2c2.2,0.2,5.9,0.6,7.9,0.8h0.2v0.2c-0.1,0.8,0,1.4,0.2,2.2s0.5,1.8,0.3,3l0,0
				c-0.1,0.4-0.2,0.8-0.3,1.1v0.1h-0.1c-1.1,0-3.5,0.4-6.8,2.4l-0.1,0.1c-0.2,0.1-0.4,0.2-0.5,0.3L163,164.1z M162.8,154l0.5,9.5
				c0.1-0.1,0.2-0.1,0.3-0.2l0.1-0.1c3.3-2,5.7-2.4,6.9-2.5c0.1-0.3,0.2-0.6,0.3-1c0.2-1.2,0-2-0.3-2.9c-0.2-0.7-0.4-1.4-0.3-2.1
				C168.4,154.6,165,154.3,162.8,154z"/>
		</g>
		<g>
			<path class="st10" d="M170.7,161c-0.7,1.7-2.3,3.1-3.4,3.7c-1.4,0.8-1.5,1.5-1,2.8c0.1,0.3,0.2,0.5,0.3,0.8
				c-0.6,0.4-1.8,1.2-2.5,1.7c-0.2,0.1-0.4,0.2-0.6,0.3c-0.7,0.3-1.5,0.6-1.4,0.2c0.1-0.5,0.4-1.8,0-1.6c-0.3,0.1-1.6,0.7-2.3,1.1
				l-0.1-0.2l0,0c-0.4-0.6-0.8-1.3-1.3-2.1c0.8-0.9,2.3-2.2,4.9-3.9c0.2-0.1,0.4-0.3,0.7-0.4C167.1,161.4,169.5,161,170.7,161z"/>
			<path class="st6" d="M162.2,170.9c-0.1,0-0.2,0-0.3-0.1s-0.1-0.2-0.1-0.3s0-0.2,0.1-0.3c0.1-0.3,0.2-0.9,0.1-1.1
				c-0.3,0.1-1,0.5-1.7,0.8l-0.8,0.4l-0.2-0.4c-0.3-0.6-0.8-1.3-1.3-2.1l-0.1-0.1l0.1-0.1c1.1-1.2,2.7-2.5,4.9-3.9
				c0.1-0.1,0.3-0.2,0.4-0.2l0.3-0.2c3.4-2.1,5.8-2.4,7-2.5h0.3l-0.1,0.2c-0.7,1.8-2.3,3.2-3.5,3.8c-1.4,0.8-1.4,1.5-0.9,2.6
				c0.1,0.2,0.2,0.5,0.3,0.8l0.1,0.1l-0.1,0.1c-0.6,0.4-1.8,1.2-2.6,1.7c-0.2,0.1-0.4,0.2-0.6,0.3h-0.1
				C162.9,170.7,162.5,170.9,162.2,170.9z M162.1,168.7c0.1,0,0.1,0,0.2,0.1c0.2,0.2,0.1,0.7,0,1.4c0,0.1,0,0.2-0.1,0.3l0,0
				c0.1,0.1,0.8-0.2,1.1-0.4h0.1c0.2-0.1,0.4-0.2,0.5-0.3c0.7-0.4,1.8-1.2,2.4-1.6c-0.1-0.3-0.2-0.5-0.3-0.7
				c-0.5-1.3-0.5-2.2,1.1-3.1c1.1-0.6,2.5-1.8,3.3-3.4c-1.2,0.1-3.5,0.5-6.5,2.4l-0.3,0.2c-0.1,0.1-0.3,0.2-0.4,0.2
				c-2.1,1.3-3.7,2.6-4.8,3.7c0.5,0.7,0.9,1.4,1.3,2l0.1,0.1l0.5-0.2c0.7-0.3,1.5-0.7,1.7-0.8C162,168.7,162.1,168.7,162.1,168.7z"
				/>
		</g>
		<g>
			<path class="st10" d="M169,179.2c-0.7-0.1-1.3-0.2-1.9-0.4c-0.4-0.1-2.5,0-3.5,0c0-1.5-0.1-4,0.3-5.1c0.1-0.3,0.2-0.6,0.2-1
				c0.1-0.9,0.1-1.8,0-2.7c0.8-0.5,2-1.3,2.5-1.7c0.8,2,1.4,4,1.7,6.1C168.6,176,168.8,177.6,169,179.2z"/>
			<path class="st6" d="M169.1,179.4h-0.2c-0.7-0.1-1.3-0.2-2-0.4c-0.3-0.1-2.2,0-3.4,0h-0.2v-0.2c0-0.3,0-0.5,0-0.8
				c0-1.5,0-3.4,0.3-4.4c0.1-0.3,0.2-0.6,0.2-0.9c0.1-0.9,0.1-1.8,0-2.7v-0.1l0.1-0.1c0.8-0.5,2-1.3,2.5-1.7l0.2-0.1l0.1,0.2
				c0.8,2,1.4,4,1.7,6.1c0.3,1.6,0.5,3.2,0.7,4.8L169.1,179.4z M165.9,178.6c0.6,0,1,0,1.2,0c0.6,0.2,1.2,0.3,1.7,0.4
				c-0.1-1.5-0.4-3.1-0.7-4.6c-0.3-2-0.9-4-1.6-5.8c-0.6,0.4-1.6,1.1-2.3,1.5c0.1,0.9,0.1,1.8,0,2.6c0,0.3-0.1,0.7-0.2,1
				c-0.3,0.9-0.3,2.8-0.3,4.3c0,0.2,0,0.4,0,0.7C164.3,178.7,165.2,178.6,165.9,178.6z"/>
		</g>
		<g>
			<path class="st10" d="M169.1,183c-0.1,0.9-0.3,1.9-0.6,2.7c-1.6-0.7-4.2-1.8-4.6-1.8c-0.1,0-0.1,0-0.2,0c0-0.8,0-1.8-0.2-2.1
				c-0.1-0.2-0.2-0.4-0.2-0.6c-0.1-0.4,0-1,0.2-1.2c0.1-0.1,0.1-0.6,0.1-1.2c1,0,3.1-0.1,3.5,0c0.6,0.2,1.3,0.3,1.9,0.4
				C169.1,180.9,169.1,182.2,169.1,183z"/>
			<path class="st6" d="M168.6,186l-0.6-0.3c-1.5-0.6-3.7-1.6-4.1-1.6c-0.1,0-0.1,0-0.2,0h-0.2v-0.2c0-1.6-0.1-2-0.2-2
				c-0.1-0.2-0.2-0.4-0.2-0.6c-0.1-0.5,0-1,0.2-1.3c0-0.1,0.1-0.4,0.1-1.1v-0.2h0.2c0.7,0,3.1-0.1,3.5,0c0.6,0.2,1.3,0.3,1.9,0.4
				h0.1v0.1c0.1,1.3,0.2,2.6,0.2,3.8l0,0c-0.1,1-0.3,1.9-0.6,2.8L168.6,186z M163.8,183.7C163.8,183.7,163.9,183.7,163.8,183.7
				c0.5,0.1,2.2,0.8,4.3,1.6l0.3,0.1c0.3-0.8,0.5-1.6,0.6-2.5c0-1.2-0.1-2.4-0.2-3.6c-0.6-0.1-1.2-0.2-1.8-0.4c-0.3,0-1.8,0-3.2,0
				c0,0.8,0,1.1-0.2,1.2c-0.1,0.1-0.2,0.6-0.1,1c0,0.2,0.1,0.4,0.2,0.5C163.7,181.8,163.8,182.1,163.8,183.7z"/>
		</g>
		<g>
			<path class="st10" d="M138.2,202.8c0,0.3-0.1,0.6-0.1,0.9l0,0c-1.9,0.3-4.5,0.6-8,1c-3.4,0.4-7.7,1.2-12.1,2
				c-0.1-0.5-0.1-1-0.1-1.2c-0.2-1.8-0.4-9.4-1.2-14.4l21.5-6.7C138.3,191.4,138.4,200.5,138.2,202.8z"/>
			<path class="st6" d="M117.9,207v-0.2c-0.1-0.5-0.1-1-0.1-1.2c-0.1-0.5-0.1-1.5-0.2-2.7c-0.2-3.2-0.4-8.1-1.1-11.7v-0.1l21.8-6.8
				v0.2c0.1,6.8,0.3,16.1,0.1,18.4c0,0.2-0.1,0.5-0.1,1v0.1h-0.1c-2,0.3-4.7,0.6-8,1c-3.2,0.4-7.2,1.1-12,2H117.9z M116.8,191.3
				c0.6,3.6,0.9,8.4,1,11.6c0.1,1.2,0.1,2.2,0.2,2.7c0,0.2,0.1,0.6,0.1,1c4.8-0.9,8.8-1.6,11.9-2c3.3-0.4,5.8-0.7,7.9-1
				c0.1-0.3,0.1-0.6,0.1-0.8l0,0c0.2-2.3,0.1-11.3-0.1-18.1L116.8,191.3z"/>
		</g>
		<g>
			<path class="st10" d="M138.1,184.5l-21.5,6.7c-0.2-1.2-0.5-2.4-1-3.6c-1.7-3.6-6-12.2-6-13.1c0-0.1,0-0.1,0-0.2
				c2-0.3,2.7-0.7,3.2-1.3c0.6-0.7,1.4-2,2.5-2s2.4,1.7,3.2,1.7c0.6,0,2.2-0.1,3.2-0.2c0.4,0.5,0.9,0.9,1.4,1.2
				c3.5,1.7,3.1,1.3,4.4,0.4s2.5-2,4.5-0.7c1.9,1.2,1.7,1.3,2,1c0.2-0.3,0.9-1,1.9,0.3c0.9,1.1,1.4,3.6,2.1,3.8
				C138,180.1,138,182.2,138.1,184.5z"/>
			<path class="st6" d="M116.5,191.4v-0.2c-0.2-1.2-0.5-2.4-1-3.5c-0.4-0.8-0.9-1.9-1.5-3.1c-2.6-5.3-4.6-9.4-4.6-10.1v-0.1v-0.2
				h0.2c2.1-0.3,2.7-0.8,3.1-1.2c0.1-0.1,0.2-0.2,0.3-0.3c0.6-0.7,1.3-1.7,2.3-1.7c0.6,0,1.3,0.5,1.9,1c0.5,0.4,1,0.8,1.3,0.8
				c0.6,0,2.3-0.1,3.2-0.2h0.1l0.1,0.1c0.4,0.5,0.8,0.9,1.3,1.2c2.9,1.4,3,1.3,3.7,0.7c0.1-0.1,0.3-0.2,0.4-0.3l0.1-0.1
				c1.2-0.9,2.6-1.9,4.5-0.6c0.6,0.4,1,0.7,1.3,0.9c0.2,0.1,0.3,0.2,0.4,0.2l0,0v-0.1c0.1-0.1,0.4-0.5,0.9-0.5
				c0.4,0,0.8,0.3,1.2,0.8s0.8,1.4,1.1,2.1c0.3,0.7,0.7,1.6,0.9,1.7h0.1v1.2c0,1.3,0.1,3,0.1,4.7v0.1h-0.1L116.5,191.4z
				 M109.8,174.5L109.8,174.5c0,0.7,2.7,6.3,4.5,10c0.6,1.2,1.1,2.3,1.5,3.1c0.5,1.1,0.8,2.3,0.9,3.4l21.2-6.6
				c0-1.7-0.1-3.3-0.1-4.6v-1c-0.4-0.2-0.7-0.9-1-1.8c-0.3-0.7-0.6-1.5-1-2c-0.4-0.4-0.7-0.7-1-0.7c-0.2,0-0.4,0.1-0.7,0.4l0,0
				c-0.2,0.3-0.3,0.2-0.8-0.1c-0.3-0.2-0.7-0.5-1.3-0.9c-1.8-1.1-3-0.2-4.2,0.6l-0.1,0.1c-0.2,0.1-0.3,0.2-0.4,0.3
				c-0.8,0.7-1.1,0.8-4.1-0.7c-0.5-0.3-1-0.7-1.4-1.2c-1.2,0.1-2.6,0.2-3.2,0.2c-0.5,0-1-0.4-1.5-0.8c-0.6-0.5-1.2-0.9-1.7-0.9
				c-0.8,0-1.5,0.9-2.1,1.5c-0.1,0.1-0.2,0.2-0.3,0.4C112.4,173.8,111.7,174.2,109.8,174.5z"/>
		</g>
		<g>
			<path class="st10" d="M152.6,189.6c0,0-3.4,5.7-5.9,9.6c-1.2,1.9-2.2,3.3-2.6,3.4c-0.7,0.2-1,0.4-6,1.1l0,0
				c0.1-0.4,0.1-0.7,0.1-0.9c0.2-2.3,0.1-11.4-0.1-18.3c-0.1-2.3-0.1-4.3-0.2-5.8c0.1,0,0.2,0,0.2,0c0.8-0.5,1.7-1.5,3.1-1
				c1.2,0.4,2.3,0.4,3.4-0.5c1,1.6,1.9,3.1,2.8,4.5C150.4,186.2,152.6,189.6,152.6,189.6z"/>
			<path class="st6" d="M137.9,203.9v-0.2c0.1-0.4,0.1-0.7,0.1-0.9c0.2-1.8,0.1-7.9-0.1-18.3c-0.1-2.3-0.1-4.3-0.2-5.8v-0.2h0.2h0.1
				c0.1-0.1,0.3-0.2,0.4-0.3c0.7-0.5,1.6-1.1,2.8-0.7c1.3,0.5,2.2,0.3,3.2-0.5l0.1-0.1l0.1,0.2c1,1.6,1.9,3.1,2.8,4.5
				c2.8,4.5,5,7.9,5,8l0.1,0.1l-0.1,0.1c0,0.1-3.4,5.8-5.9,9.6c-1.9,2.9-2.4,3.4-2.7,3.5l-0.2,0.1c-0.7,0.2-1.2,0.4-5.9,1
				L137.9,203.9z M138.1,178.8c0,1.5,0.1,3.4,0.1,5.6c0.2,10.4,0.3,16.6,0.1,18.4c0,0.2,0,0.4-0.1,0.7c4.4-0.6,5-0.8,5.6-1l0.2-0.1
				c0.1,0,0.6-0.4,2.5-3.3c2.3-3.6,5.4-8.8,5.8-9.5c-0.4-0.6-2.4-3.8-4.9-7.9c-0.9-1.4-1.8-2.9-2.7-4.4c-1,0.8-2.1,0.9-3.4,0.4
				c-1.1-0.4-1.8,0.2-2.5,0.6c-0.2,0.1-0.3,0.2-0.5,0.3C138.2,178.8,138.2,178.8,138.1,178.8z"/>
		</g>
		<g>
			<path class="st10" d="M144.7,177.1c-1.1,0.9-2.2,1-3.4,0.5c-1.4-0.5-2.3,0.5-3.1,1c-0.1,0-0.2,0.1-0.2,0
				c-0.7-0.2-1.2-2.7-2.1-3.8c-1-1.3-1.7-0.6-1.9-0.3s0,0.2-2-1s-3.3-0.2-4.5,0.7s-0.9,1.3-4.4-0.4c-0.5-0.3-1-0.7-1.4-1.2
				c-2.7-3.2-6.3-11.3-7.8-15.1l0.3-0.1l16.3-9.9l3.6,6.6l2.6,4.8c-1.8,0-1.9,0.7-1.9,1.7C134.9,161.3,140,169.6,144.7,177.1z"/>
			<path class="st6" d="M138,178.8h-0.1c-0.4-0.1-0.8-0.9-1.2-1.9c-0.3-0.7-0.6-1.5-1-2c-0.4-0.4-0.7-0.7-1-0.7l0,0
				c-0.2,0-0.4,0.1-0.7,0.4l0,0c-0.2,0.3-0.3,0.2-0.8-0.1c-0.3-0.2-0.7-0.5-1.3-0.9c-1.8-1.1-3-0.2-4.2,0.6l-0.1,0.1
				c-0.2,0.1-0.3,0.2-0.4,0.3c-0.8,0.7-1.1,0.8-4.1-0.7c-0.6-0.3-1.1-0.8-1.5-1.3c-2.8-3.3-6.4-11.7-7.9-15.1l-0.1-0.2l0.5-0.1
				l16.4-9.9l6.4,11.8h-0.3c-1.6,0-1.7,0.6-1.7,1.5c0,0.3,1.8,3.4,9.8,16.3l0.1,0.1l-0.1,0.1c-1.1,0.9-2.2,1-3.5,0.5
				c-1.1-0.4-1.8,0.2-2.5,0.6c-0.2,0.1-0.3,0.2-0.5,0.3C138.2,178.8,138.1,178.8,138,178.8z M134.7,173.9L134.7,173.9
				c0.4,0,0.8,0.3,1.3,0.8c0.4,0.5,0.8,1.4,1.1,2.1c0.3,0.7,0.7,1.6,0.9,1.7h0.1c0.1-0.1,0.3-0.2,0.4-0.3c0.7-0.5,1.6-1.1,2.8-0.7
				c1.2,0.4,2.2,0.3,3.1-0.4c-8.7-13.9-9.8-16-9.8-16.4c0-1,0.1-1.8,1.8-1.8l-6-11l-16.2,9.8H114c1.5,3.6,5,11.7,7.7,14.9
				c0.4,0.5,0.8,0.9,1.4,1.2c2.9,1.4,3,1.3,3.7,0.7c0.1-0.1,0.3-0.2,0.4-0.3l0.1-0.1c1.2-0.9,2.6-1.9,4.5-0.6
				c0.7,0.4,1.1,0.7,1.3,0.9c0.2,0.1,0.3,0.2,0.4,0.2l0,0v-0.1C134.1,174.1,134.4,173.9,134.7,173.9z"/>
		</g>
		<g>
			<path class="st11" d="M151.9,159.1c-3.1,0-13.3,0-14.9,0h-0.2l-2.6-4.8c3-0.8,9-2.4,15-3.7h0.2
				C149.8,152.3,150.8,156.7,151.9,159.1z"/>
			<path class="st6" d="M140.9,159.3c-1.9,0-3.4,0-3.9,0h-0.3l-2.7-5.1l0.2-0.1c3.8-1,9.5-2.5,15-3.7l0.4-0.1v0.2
				c0.4,1.8,1.4,6.2,2.5,8.5l0.1,0.2h-0.3c-0.9,0-2.4,0-4,0C145.7,159.3,143,159.3,140.9,159.3z M136.9,158.9h0.1
				c1.2,0,6.8,0,10.9,0c1.5,0,2.9,0,3.8,0c-1-2.3-2-6.4-2.4-8.2l0,0c-5.4,1.2-11,2.6-14.8,3.7L136.9,158.9z"/>
		</g>
		<g>
			<path class="st10" d="M170.5,154.6L170.5,154.6c-2-0.2-5.7-0.6-7.9-0.8c-1.1-0.1-1.8-0.2-1.9-0.2c-0.3-0.1-0.1-4.9,0-6.9
				c0-0.1,0-0.1,0-0.2c2.2,0.2,8.3,1.4,10.6,1.8c0.1,0.5,0.2,1.1,0.3,1.7C172,152.6,170.8,152.9,170.5,154.6z"/>
			<path class="st6" d="M170.7,154.9h-0.2c-2-0.2-5.6-0.6-7.9-0.8c-0.8-0.1-1.8-0.2-1.9-0.2c-0.2,0-0.4-0.1-0.2-7.1v-0.3h0.2
				c2.2,0.2,8.1,1.3,10.6,1.8h0.1v0.1c0.1,0.3,0.1,0.6,0.2,0.9c0,0.3,0.1,0.5,0.1,0.8c0.3,1.7-0.1,2.4-0.5,3.2
				c-0.2,0.4-0.5,0.8-0.6,1.4L170.7,154.9L170.7,154.9z M160.8,153.5c0.2,0,0.7,0.1,1.8,0.2c2.2,0.2,5.7,0.6,7.7,0.8
				c0.1-0.6,0.4-1,0.6-1.4c0.4-0.7,0.8-1.4,0.5-3c0-0.3-0.1-0.5-0.1-0.8s-0.1-0.5-0.1-0.8c-2.5-0.5-8-1.5-10.3-1.8
				C160.7,151.2,160.8,153.1,160.8,153.5z"/>
		</g>
		<g>
			<path class="st10" d="M158.2,167.7c-0.3,0.4-0.6,0.8-0.9,1.2c-0.2,0.3-0.5,3.8-0.7,7.1c-0.2,2.4-0.3,4.8-0.4,5.9h-0.1
				c-0.4,0-6.7-0.2-8.5-0.3c-0.9-1.4-1.9-3-2.8-4.5c-4.7-7.6-9.8-15.9-9.8-16.4c0-0.9,0.1-1.7,1.9-1.7h0.2c1.6,0,11.8,0,14.9,0
				c0.2,0.4,0.4,0.8,0.6,1.1C153.6,161.6,156.3,164.9,158.2,167.7z"/>
			<path class="st6" d="M156.3,182.2l-0.2-0.1c0,0,0,0-0.1,0c-0.4,0-7.2-0.2-8.5-0.3h-0.1v-0.1c-0.9-1.4-1.9-3-2.8-4.5
				c-9.9-15.8-9.9-16.3-9.9-16.5c0-1,0.2-1.8,2-1.8h0.2c1.2,0,6.8,0,10.9,0c1.7,0,3.1,0,4,0h0.1v0.1c0.2,0.4,0.4,0.7,0.6,1.1
				c1.2,1.4,3.8,4.8,5.7,7.5l0.1,0.1l-0.1,0.1c-0.3,0.4-0.6,0.8-0.9,1.2c0,0.1-0.2,0.9-0.7,7.1c-0.1,1.6-0.2,3.1-0.3,4.3
				c0,0.7-0.1,1.2-0.1,1.6L156.3,182.2z M147.6,181.5c2.2,0.1,7.8,0.3,8.4,0.3c0-0.4,0.1-0.9,0.1-1.4c0.1-1.2,0.2-2.7,0.3-4.3
				c0.5-6.7,0.7-7.1,0.7-7.2c0.2-0.4,0.5-0.8,0.8-1.2c-1.9-2.7-4.5-6-5.6-7.4c-0.3-0.3-0.5-0.7-0.6-1.1c-0.9,0-2.3,0-3.9,0
				c-4.1,0-9.7,0-10.9,0h-0.2c-1.6,0-1.7,0.6-1.7,1.5c0,0.3,1.4,2.8,9.8,16.3C145.8,178.6,146.8,180.1,147.6,181.5z"/>
		</g>
		<g>
			<path class="st10" d="M163.1,163.8c-2.6,1.7-4.1,3-4.9,3.9c-1.9-2.8-4.6-6.1-5.7-7.5c-0.3-0.3-0.5-0.7-0.6-1.1
				c-1.1-2.3-2.1-6.8-2.5-8.5c8.2-1.8,8.8-4.1,11.2-4l0,0l0.2,0.2c-0.1,2-0.2,6.8,0,6.9c0.1,0,0.8,0.1,1.9,0.2L163.1,163.8z"/>
			<path class="st6" d="M158.2,168l-0.1-0.2c-2-2.9-4.9-6.5-5.7-7.5c-0.3-0.4-0.5-0.7-0.7-1.1c-1.1-2.4-2.1-6.8-2.5-8.6v-0.2h0.2
				c4.7-1,6.9-2.3,8.3-3.1c1.1-0.6,1.8-1,2.9-0.9h0.1l0.3,0.3v0.1c-0.2,4.4-0.1,6.3,0,6.7c0.1,0,0.2,0,0.4,0c0.3,0,0.8,0.1,1.4,0.2
				h0.1l0.5,10.2l-0.1,0.1c-2.2,1.4-3.8,2.7-4.9,3.8L158.2,168z M149.5,150.7c0.4,1.9,1.4,6.1,2.5,8.4c0.2,0.4,0.4,0.7,0.6,1.1
				c0.8,1,3.6,4.4,5.6,7.3c1.1-1.2,2.7-2.4,4.7-3.7l-0.5-9.7c-0.5-0.1-0.9-0.1-1.2-0.1c-0.2,0-0.4-0.1-0.5-0.1l0,0
				c-0.2,0-0.4-0.1-0.2-7l-0.1-0.1c-0.9,0-1.6,0.3-2.7,0.9C156.3,148.4,154.1,149.6,149.5,150.7z"/>
		</g>
		<g>
			<path class="st10" d="M159.5,169.8L159.5,169.8c0,0.1-0.1,0.2-0.1,0.3c-0.1,0.6-0.2,1.7-0.3,3.1c-0.1,0.8-0.1,1.8-0.2,2.7
				l-2.4,0.1c0.3-3.3,0.6-6.8,0.7-7.1c0.2-0.4,0.5-0.9,0.9-1.2C158.7,168.4,159.2,169.1,159.5,169.8z"/>
			<path class="st6" d="M156.4,176.2V176c0.5-6.7,0.7-7.1,0.7-7.2c0.2-0.5,0.6-0.9,0.9-1.3l0.1-0.2l0.1,0.2c0.5,0.7,0.9,1.4,1.3,2.1
				v0.1v0.1c0,0.1-0.1,0.2-0.1,0.3c-0.1,0.5-0.2,1.5-0.3,3.1c-0.1,0.8-0.1,1.8-0.2,2.7v0.2L156.4,176.2z M158.2,167.9
				c-0.3,0.3-0.5,0.7-0.7,1c-0.1,0.1-0.2,1-0.7,6.9l2.1-0.1c0.1-0.9,0.1-1.8,0.2-2.6c0.1-1.7,0.2-2.7,0.3-3.2c0-0.1,0-0.2,0.1-0.3
				C159,169.2,158.6,168.5,158.2,167.9z"/>
		</g>
		<g>
			<path class="st10" d="M164,172.7c-0.4,0.1-1,0.2-1.4,0.4c-0.5,0.2-2.6,0.2-3.4,0.2c0.1-1.4,0.2-2.6,0.3-3.1l0.2-0.1
				c0.8-0.4,2-1,2.3-1.1c0.4-0.2,0.1,1.1,0,1.6s0.7,0.1,1.4-0.2c0.2-0.1,0.4-0.2,0.6-0.3C164.1,170.9,164.1,171.8,164,172.7z"/>
			<path class="st6" d="M160,173.4c-0.4,0-0.7,0-0.8,0H159v-0.2c0.1-1.7,0.2-2.7,0.3-3.2v-0.1l0.3-0.1c1.3-0.6,2.1-1,2.4-1.1
				c0.2-0.1,0.3,0,0.3,0c0.2,0.2,0.1,0.7,0,1.4c0,0.1,0,0.2-0.1,0.3l0,0c0.1,0.1,0.8-0.2,1.1-0.4h0.1c0.2-0.1,0.4-0.2,0.5-0.3
				l0.2-0.1v0.3c0.1,0.9,0.1,1.8,0,2.8v0.1H164c-0.4,0.1-1,0.2-1.4,0.4C162.2,173.4,160.9,173.4,160,173.4z M159.4,173.1
				c1.1,0,2.8,0,3.2-0.1s0.9-0.2,1.3-0.3c0.1-0.8,0.1-1.5,0-2.3c-0.1,0.1-0.2,0.1-0.3,0.2h-0.1c-0.8,0.3-1.2,0.5-1.5,0.3
				c-0.1-0.1-0.1-0.2-0.1-0.3s0-0.2,0.1-0.3c0.1-0.3,0.2-0.9,0.1-1.1c-0.3,0.1-1.1,0.5-2.3,1.1l-0.1,0.1
				C159.5,170.7,159.5,171.6,159.4,173.1z"/>
		</g>
		<g>
			<path class="st10" d="M163.6,183.9c-1,0-3.7,0.2-4.2,0c-0.3-0.1-0.6-0.3-0.8-0.5c0-0.6,0.1-1.3,0.1-2.2h4.6
				c0,0.2,0.1,0.4,0.2,0.6C163.6,182.1,163.6,183.1,163.6,183.9z"/>
			<path class="st6" d="M160.5,184.2c-0.5,0-0.9,0-1.1-0.1c-0.3-0.1-0.6-0.3-0.9-0.5l-0.1-0.1v-0.1c0-0.6,0.1-1.3,0.1-2.2V181h4.9
				v0.1c0,0.2,0.1,0.3,0.2,0.5c0.1,0.1,0.2,0.3,0.2,2.2v0.2h-0.2c-0.3,0-0.9,0-1.4,0C161.5,184.2,160.9,184.2,160.5,184.2z
				 M158.7,183.3c0.2,0.2,0.5,0.3,0.7,0.4c0.3,0.1,1.7,0.1,2.7,0c0.5,0,0.9,0,1.3,0c0-1.5-0.1-1.8-0.2-1.9c-0.1-0.2-0.1-0.3-0.2-0.5
				h-4.3C158.8,182.2,158.8,182.8,158.7,183.3z"/>
		</g>
		<g>
			<path class="st10" d="M159,176c-0.1,1.8-0.2,3.7-0.3,5.3c0,0.9-0.1,1.6-0.1,2.2c-0.8-0.5-1.9-1.3-2.4-1.4
				c0.1-1.1,0.2-3.5,0.4-5.9L159,176z"/>
			<path class="st6" d="M158.7,183.7l-0.2-0.2c-0.2-0.1-0.4-0.2-0.6-0.4c-0.7-0.4-1.4-0.9-1.8-1H156V182c0.1-1.1,0.2-3.4,0.4-5.9
				V176l2.7-0.1v0.2c-0.1,1.5-0.2,3.2-0.3,5.3c0,0.9-0.1,1.6-0.1,2.2L158.7,183.7z M156.4,181.9c0.4,0.2,1.1,0.6,1.7,1
				c0.1,0.1,0.2,0.1,0.3,0.2c0-0.5,0.1-1.2,0.1-1.9c0.1-2,0.2-3.7,0.3-5.1l-2.1,0.1C156.6,178.6,156.4,180.8,156.4,181.9z"/>
		</g>
		<g>
			<path class="st10" d="M163.8,173.7c-0.4,1.1-0.3,3.6-0.3,5.1c0,0.7,0,1.1-0.1,1.2c-0.2,0.2-0.3,0.7-0.2,1.2h-4.6
				c0.1-1.5,0.2-3.5,0.3-5.3c0.1-1,0.1-1.9,0.2-2.7c0.8,0,2.9,0,3.4-0.2c0.4-0.1,1-0.3,1.4-0.4C164,173.1,163.9,173.4,163.8,173.7z"
				/>
			<path class="st6" d="M163.5,181.4h-4.9v-0.2c0.1-2.1,0.2-3.8,0.3-5.3c0.1-1,0.1-1.9,0.2-2.7V173h0.4c0.9,0,2.7,0,3.2-0.1
				c0.4-0.1,0.9-0.3,1.4-0.4l0.2-0.1v0.2c0,0.3-0.1,0.7-0.2,1l0,0c-0.3,0.9-0.3,2.7-0.3,4.2c0,0.3,0,0.6,0,0.9c0,1-0.1,1.2-0.2,1.3
				c-0.1,0.1-0.2,0.6-0.1,1L163.5,181.4z M158.9,181.1h4.2c0-0.4,0-0.9,0.3-1.1c0,0,0.1-0.3,0.1-1.1c0-0.3,0-0.6,0-0.9
				c0-1.5,0-3.3,0.3-4.3c0.1-0.2,0.1-0.5,0.2-0.7c-0.4,0.1-0.9,0.2-1.2,0.3c-0.5,0.2-1.9,0.2-3.3,0.2h-0.1c-0.1,0.8-0.1,1.7-0.2,2.5
				C159.1,177.4,159,179.1,158.9,181.1z"/>
		</g>
	</g>
</g>
<g>
	<g>
		<g>
			<path class="st9" d="M1030.2,147.4L1030.2,147.4L1030.2,147.4c0.5-2.2,1.1-4.4,2.2-6c3.8-6.6,5.5-14.3,3.8-22l-0.5-3.8
				c-0.5-1.6-0.5-3.3-1.1-5.5l0,0c-2.2-11.5-3.8-20.9-7.1-28.5c-4.9-13.7-9.3-27.4-12.6-41.2c-1.6-7.7-2.7-23.6-2.7-23.6
				c-0.5-4.4-3.8-7.7-8.2-7.1c-2.7,0-4.9,1.6-6.6,3.8c-3.8,6-9.3,12.6-11.5,13.7c-3.3,1.1-15.4,1.6-22,1.6
				c-8.8,0.5-12.1,0.5-14.3,1.6c-2.2,0.5-4.4,0.5-7.1,0c-4.4-1.1-32.4-3.3-42.3,0.5c-3.3,1.1-5.5,2.2-7.7,3.3l0,0l-2.2,1.1
				c-1.1,0.5-2.7,1.6-3.8,2.2c-13.7,1.6-28,2.7-42.3,3.3l0,0h-3.8c-23.6,0.5-37.9-2.2-39.5-3.3c-0.5,0-0.5-0.5-1.1-0.5
				c-4.9-2.2-18.1-8.2-34-5.5l0,0h-0.5l0,0H764c-17,3.8-26.3,8.2-28.5,9.3c-3.3,1.1-28,9.3-38.4,12.6c-2.7-4.4-6.6-12.1-8.8-17
				c-7.7-15.4-9.3-17.6-11.5-19.2c-2.7-1.6-20.3-8.2-25.3-9.9c-25.3-8.8-26.3-8.2-29.6-6c-2.2,1.1-2.7,2.2-9.3,13.2
				c-5.5,9.3-20.3,34-25.3,37.3c-2.7,1.1-15.9,6-30.2,11.5c-18.1,7.1-41.2,15.9-59.8,23.1c-10.4,3.8-17.6,7.1-23.1,9.3
				c-3.3,1.1-5.5,2.2-7.1,2.7c-2.2,1.1-8.2,3.8-6.6,9.9c0.5,2.7,1.1,3.3,9.9,13.2c9.3,10.4,26.3,29.1,31.8,39.5
				c2.7,4.9,8.2,17.6,15.4,35.1l0,0c5.5,13.7,12.1,30.2,17.6,45l0,0c4.9,12.6,8.2,23.1,10.4,29.1c3.8,11.5,17,53.8,38.4,121.9l0,0
				l9.3,30.2l11,39l0,0l46.1,161.4c1.1,3.3,3.8,5.5,7.7,5.5c0.5,0,0.5,0,1.1,0l96.1-11.5h0.5h0.5l0,0l69.7-12.1l0,0h1.1h0.5
				l80.1-20.3c2.7-0.5,4.9-2.7,5.5-5.5c2.7-11,10.4-30.7,17.6-36.2c0.5-0.5,1.1-1.1,1.6-1.1c0,0,0.5-0.5,1.1-1.6l0,0
				c22-26.3,22-31.8,22-34.6v-1.6c0.5-26.9,4.4-35.7,6-38.4l0.5-1.1l0,0c5.5-7.7,9.3-16.5,11-25.8c2.2-10.4,3.3-17.6,3.8-20.3l0,0
				l0,0l0.5-2.2v-0.5c1.6-15.4,6-30.2,12.1-44.5c4.4-8.8,9.3-17,15.9-24.7c3.8-4.9,7.7-9.3,9.3-14.8c0.5-2.2,1.6-4.9,2.7-7.1
				c0.5-1.6,1.1-2.7,1.6-4.4l0,0c2.2-5.5,3.8-11.5,3.8-17.6c0-4.9,0-12.1-1.1-21.4l0,0c-1.1-9.3-2.2-18.1-3.8-27.4
				c-2.2-12.1-4.9-23.6-9.3-34.6l0,0l0,0c-0.5-1.6-1.1-2.7-1.6-4.4c-0.5-1.1-1.1-2.2-1.1-3.8c0,0,0.5-0.5,2.7-2.2
				c7.7-4.4,17.6-13.2,22.5-24.2l0,0c1.1-2.7,1.6-4.9,2.2-7.7c1.1-6.6,0.5-13.2-1.6-19.2C1030.2,152.3,1029.7,150.1,1030.2,147.4z"
				/>
		</g>
		<g>
			<path class="st10" d="M755.2,245.1c-5.5,0.5-14.8,1.1-17.6,1.1c-4.9,0-11.5-9.3-17.6-9.3s-10.4,7.1-13.7,11
				c-2.7,2.7-6.6,5.5-17.6,7.1c-2.2,0.5-4.9,0.5-8.2,0.5c-17.6,1.1-23.6-7.1-34-8.8c-9.9-2.2-10.4,1.6-17.6,3.3
				c-6.6,1.6-11.5-7.7-29.6-17c-18.1-8.8-16.5-2.7-24.2-1.1c-8.2,2.2-20.9-9.9-22.5-9.3c-1.1,0.5-6.6,9.3-11,16.5
				c-5.5-14.3-11.5-30.7-17.6-45c11-1.6,35.1-4.9,77.9-12.1c54.3-8.8,100.5-17,110.3-18.7C720.7,183,739.9,227.5,755.2,245.1z"/>
			<path class="st6" d="M677.3,256c-9.9,0-15.9-2.7-20.9-5.5c-3.3-1.6-6-2.7-9.9-3.8c-6.6-1.1-8.8,0-11.5,1.1
				c-1.6,0.5-3.3,1.6-5.5,2.2c-3.8,1.1-7.1-1.6-12.6-5.5c-3.8-3.3-9.9-7.1-18.1-11.5c-13.2-6.6-15.4-4.9-18.7-3.3
				c-1.1,0.5-2.7,1.6-4.9,2.2c-6,1.6-13.7-3.8-18.7-7.1c-1.6-1.1-3.3-2.2-3.8-2.2c-0.5,0.5-2.7,3.3-10.4,15.9l-1.1,1.6l-0.5-1.6
				c-5.5-14.8-12.1-31.3-17.6-45l-0.5-1.1h1.1c11-1.6,35.1-4.9,77.9-12.1c57.1-9.3,104.8-17.6,110.3-18.7h0.5l0.5,0.5
				c7.7,18.7,28,64.8,42.8,82.9l1.1,1.6h-1.6c-6,0.5-14.8,1.1-17.6,1.1c-2.7,0-5.5-2.2-8.2-4.4c-3.3-2.7-6.6-4.9-9.3-4.9
				c-4.4,0-8.2,4.9-11,8.2c-0.5,0.5-1.1,1.6-1.6,2.2c-2.7,3.3-7.1,6-18.1,7.1c-2.2,0.5-4.9,0.5-8.2,0.5
				C679.5,256,678.4,256,677.3,256z M641.1,244.5c1.6,0,3.3,0,5.5,0.5c3.8,0.5,6.6,2.2,9.9,3.8c5.5,2.7,12.1,6,23.6,4.9
				c3.3,0,6-0.5,8.2-0.5c11.5-1.6,14.8-4.4,17-6.6c0.5-0.5,1.1-1.1,1.6-2.2c3.3-3.8,7.1-8.8,12.6-8.8c3.3,0,7.1,2.7,10.4,5.5
				c2.7,2.2,5.5,4.4,7.1,4.4c2.7,0,11.5-0.5,15.9-0.5c-14.8-18.7-34-62-41.7-81.2c-8.2,1.6-54.3,9.3-109.8,18.7
				c-41.7,6.6-65.9,10.4-76.8,12.1c5.5,13.2,11.5,28.5,16.5,42.3c8.8-14.8,9.9-14.8,10.4-15.4c1.1,0,2.2,0.5,5.5,2.7
				c4.4,3.3,12.1,8.2,17,7.1c2.2-0.5,3.3-1.1,4.4-2.2c4.4-2.2,7.1-3.3,20.3,3.3c8.8,4.4,14.3,8.2,18.7,11.5c4.9,3.8,7.7,6,11,4.9
				c2.2-0.5,3.8-1.1,4.9-1.6C636.1,245.1,637.8,244.5,641.1,244.5z"/>
		</g>
		<g>
			<path class="st10" d="M803.5,107.8l-89.5,54.3l-1.6,0.5c-9.9,1.6-56,9.9-110.3,18.7c-42.8,7.1-67.5,10.4-77.9,12.1
				c-6.6-15.9-12.6-30.2-15.9-36.2c-8.8-15.9-40.6-48.3-41.2-50c-0.5-1.6,113.6-44.5,122.4-48.3s33.5-50,35.7-51
				c1.6-1.1,44.5,14.3,47.2,15.9c2.7,1.6,19.2,39,22,39s42.8-13.2,45-14.3c2.2-1.1,10.4-4.9,26.9-8.8c0.5,0,0.5,0,1.1,0L803.5,107.8
				z"/>
			<path class="st6" d="M523,194v-0.5c-4.9-12.6-12.1-29.1-15.9-35.7c-6-10.4-22.5-29.1-32.9-40.6c-7.1-8.2-8.2-9.3-8.2-9.9
				c0-1.1-0.5-1.6,92.2-37.3c15.9-6,28-11,30.7-12.1c6-2.7,20.3-26.9,28.5-40.1c4.9-8.2,6-10.4,7.1-11c2.7-1.6,47.8,15.9,47.8,15.9
				c1.1,0.5,3.8,5.5,9.3,16.5c4.4,8.8,11,21.4,12.6,22.5c2.7,0,42.3-13.2,44.5-14.3c1.1-0.5,9.9-4.9,26.9-8.8c0.5,0,1.1,0,1.1,0h0.5
				l37.3,69.2l-90.6,54.9l-1.6,0.5c-2.2,0.5-51,8.8-110.3,18.7c-42.8,7.1-67.5,10.4-77.9,12.1L523,194z M468.2,107.3
				c1.1,1.1,4.4,4.9,7.7,8.8c9.9,11,26.9,30.2,32.9,40.6c3.8,6.6,10.4,23.1,15.4,35.7c11-1.6,35.1-4.9,77.4-12.1
				c59.3-9.9,108.1-18.1,110.3-18.7l1.6-0.5l88.4-53.8l-35.7-66.4h-0.5c-17,3.8-25.8,8.2-26.9,8.2c-1.6,1.1-42.3,14.3-45.6,14.3
				c-2.2,0-4.9-5.5-13.7-23.1c-3.8-7.1-7.7-14.8-8.8-15.9c-2.7-1.6-42.3-15.9-46.1-15.9c-0.5,0.5-3.3,5.5-6,9.9
				C607,37.6,595.5,56.8,589.5,59c-2.7,1.1-14.8,6-30.7,12.1C526.9,83.7,474.2,104,468.2,107.3z"/>
		</g>
		<g>
			<path class="st10" d="M726.7,346.6L590,389.4c-12.1-39.5-32.9-105.9-38.4-121.9c-2.2-6.6-6-17.6-11-29.6
				c4.4-7.1,9.9-15.9,11-16.5c1.6-0.5,14.3,11.5,22.5,9.3c8.2-2.2,6-7.7,24.2,1.1c18.1,8.8,23.1,18.1,29.6,17
				c6.6-1.6,7.1-4.9,17.6-3.3c9.9,2.2,15.9,9.9,34,8.8c3.3,0,6-0.5,8.2-0.5c0,0.5,0,0.5,0,1.1c0,4.9,23.6,52.1,32.9,71.9
				C724.5,333.4,726.1,340,726.7,346.6z"/>
			<path class="st6" d="M589.5,390.5v-1.1c-7.7-24.2-32.4-104.3-38.4-121.9c-2.2-6.6-6-17.6-11-29.6v-0.5v-0.5
				c9.9-16.5,11-16.5,11.5-17c1.1,0,2.2,0.5,5.5,2.7c4.4,2.7,12.1,8.2,17,6.6c2.2-0.5,3.3-1.1,4.4-2.2c4.4-2.2,7.1-3.3,20.3,3.3
				c8.8,4.4,14.3,8.2,18.7,11.5c4.9,3.8,7.7,6,11,4.9c2.2-0.5,3.8-1.1,4.9-1.6c3.3-1.6,5.5-2.7,12.6-1.1c3.8,0.5,6.6,2.2,9.9,3.8
				c5.5,2.7,12.1,6,23.6,4.9c3.3,0,6-0.5,8.2-0.5h0.5v0.5c0,0.5,0,1.1,0,1.1c0,3.8,15.4,35.7,25.8,57.1c2.7,5.5,4.9,10.4,7.1,14.3
				c2.7,6.6,4.4,13.2,5.5,19.8v0.5h-0.5L589.5,390.5z M542.3,237.9c4.4,12.1,8.2,22.5,10.4,29.1c6,17.6,30.2,96.1,37.9,121.3
				l135-42.3c-1.1-6.6-2.7-12.6-4.9-18.7c-1.6-3.8-4.4-8.8-7.1-14.3c-14.3-29.1-26.3-53.8-26.3-57.6l0,0c-2.2,0-4.4,0.5-7.1,0.5
				c-11.5,0.5-18.7-2.7-24.2-5.5c-3.3-1.6-6-2.7-9.9-3.8c-6.6-1.1-8.8,0-11.5,1.1c-1.6,0.5-3.3,1.6-5.5,2.2
				c-3.8,1.1-7.1-1.6-12.6-5.5c-3.8-3.3-9.9-7.1-18.1-11.5c-13.2-6.6-15.4-4.9-18.7-3.3c-1.1,0.5-2.7,1.6-4.9,2.2
				c-6,1.6-13.7-3.8-18.7-7.1c-1.6-1.1-3.3-2.2-3.8-2.2C552.1,223.1,549.9,225.9,542.3,237.9z"/>
		</g>
		<g>
			<path class="st10" d="M734.4,432.2c-48.3,9.3-99.9,20.9-123.5,26.3l-11-39c0,0-3.8-12.6-9.3-30.2l136.7-42.8
				c4.9,27.4,6,69.2,6.6,79C733.8,426.8,733.8,429.5,734.4,432.2z"/>
			<path class="st6" d="M610.3,459.7l-11.5-39.5l0,0c0,0-3.8-12.6-9.3-30.2v-1.1l138.3-43.4v1.1c3.3,19.8,4.9,46.7,6,64.2
				c0.5,6.6,0.5,12.1,1.1,14.8c0,1.1,0.5,3.3,0.5,6.6v1.1h-1.1C684.4,443.2,631.2,455.3,610.3,459.7L610.3,459.7z M591.1,390
				c5.5,17.6,9.3,29.6,9.3,29.6l11,37.9c20.9-4.9,72.5-16.5,121.9-26.3c-0.5-2.7-0.5-4.4-0.5-5.5c-0.5-2.7-0.5-8.2-1.1-14.8
				c-1.1-17.6-2.2-43.4-5.5-63.1L591.1,390z"/>
		</g>
		<g>
			<path class="st10" d="M1011.6,317c-1.6,3.8-2.7,7.7-4.4,11.5c-3.3,9.3-14.3,16.5-24.7,38.4c-6.6,14.8-11,30.7-13.2,46.7
				c0,0,0,0.5-0.5,2.2c-12.1-3.3-45-11.5-52.1-13.7c-6-2.2-18.7-8.2-25.3-11c13.7-21.4,32.4-52.7,32.4-52.7s-12.1-18.7-27.4-43.9
				c9.9,0.5,44.5,1.6,46.7,1.6h0.5c2.7,0.5,8.8,4.9,13.2,7.7c1.6,1.1,3.3,1.6,4.9,2.7c3.3,1.1,18.1,0,23.1,0c0.5,0,0.5,0,1.1,0
				C988.5,307.1,1002.8,313.1,1011.6,317z"/>
			<path class="st6" d="M969.9,416.9h-1.1c-29.1-7.7-47.2-12.6-52.1-13.7c-6.6-2.2-19.8-8.8-25.3-11.5l-1.1-0.5l0.5-1.1
				c12.6-19.8,29.6-48.3,31.8-52.1c-2.2-3.3-13.2-20.9-27.4-43.4l-1.1-1.6h1.6c16.5,0.5,44.5,1.6,46.7,1.6c0.5,0,0.5,0,1.1,0
				c2.2,0.5,6,3.3,9.9,6c1.1,0.5,2.2,1.6,3.3,2.2c1.6,1.1,2.7,1.6,4.4,2.7c1.6,0.5,8.8,0.5,14.3,0c3.3,0,6.6-0.5,8.2,0
				c0.5,0,0.5,0,1.1,0c2.2,0,10.4,3.3,25.8,9.9l0.5,0.5l-0.5,0.5c-0.5,1.6-1.1,2.7-1.6,4.4c-1.1,2.2-1.6,4.9-2.7,7.7
				c-1.6,4.4-4.4,7.7-8.2,12.6c-4.9,6-11,13.7-16.5,26.3c-6.6,14.8-11,30.7-12.6,46.7c0,0,0,0.5-0.5,2.2L969.9,416.9z M893,390.5
				c6,2.7,18.1,8.8,24.2,11c4.9,1.6,22.5,6,51,13.7c0-0.5,0-1.1,0-1.1c2.2-16.5,6.6-31.8,13.2-47.2c6-12.6,12.1-20.3,17-26.3
				c3.8-4.4,6.6-8.2,7.7-12.1c1.1-2.7,1.6-4.9,2.7-7.7c0.5-1.1,1.1-2.2,1.1-3.3c-18.1-7.7-23.1-9.3-24.2-9.9c-0.5,0-0.5,0-1.1,0
				c-2.2,0-4.9,0-8.2,0c-7.7,0.5-13.2,0.5-15.4-0.5c-1.6-0.5-3.3-1.6-4.9-2.7c-1.1-0.5-2.2-1.1-3.3-2.2c-3.8-2.2-7.7-4.9-9.9-5.5
				h-0.5c-2.2,0-36.8-1.1-45-1.6c15.4,24.2,26.9,42.3,26.9,42.3l0.5,0.5l-0.5,0.5C924.9,338.9,906.7,369.7,893,390.5z"/>
		</g>
		<g>
			<path class="st10" d="M967.7,101.8c-13.2-1.1-16.5,12.1-60.9,22h-1.1c-32.9,7.1-65.9,15.9-82.3,20.3l-19.8-36.2l-36.8-67.5
				c15.4-2.7,29.1,4.4,31.3,5.5c2.7,1.1,17.6,3.8,42.3,3.3h3.8c7.7,12.6,25.3,40.6,25.8,40.6c0.5,0,42.8-12.1,62-17.6L967.7,101.8z"
				/>
			<path class="st6" d="M822.8,145.2L765.7,39.2h1.1c13.7-2.7,25.3,2.7,30.2,4.9c0.5,0.5,1.1,0.5,1.6,0.5c2.7,1.1,17,3.8,42.3,3.3
				h4.4v0.5c11,18.1,23.1,37.9,25.3,40.1c2.7-0.5,25.3-7.1,43.4-12.1c7.1-2.2,13.2-3.8,18.7-4.9h0.5l37.9,31.3h-2.7
				c-5.5-0.5-8.8,1.6-14.8,4.9c-8.2,4.4-20.3,11-46.1,17h-1.1c-30.2,6.6-61.5,14.8-82.3,20.3L822.8,145.2z M768.4,40.9L823.9,143
				c20.9-5.5,51.6-13.7,81.8-20.3h1.1c25.3-5.5,37.3-12.1,45.6-16.5c4.9-2.7,8.8-4.9,13.2-4.9l-32.9-27.4
				c-4.9,1.6-11.5,3.3-18.1,4.9c-34.6,9.9-43.4,12.1-43.9,12.1s-1.6,0-26.3-40.6h-3.3c-25.3,0.5-40.1-2.7-42.8-3.3
				c-0.5,0-1.1-0.5-1.6-0.5C791.5,43.6,781,38.7,768.4,40.9z"/>
		</g>
		<g>
			<path class="st10" d="M932.5,72.2c-19.2,5.5-61.5,17-62,17.6s-18.1-28-25.8-40.6c14.8,0,29.1-1.6,43.4-3.3
				c2.7-1.1,5.5-2.2,7.7-3.3L932.5,72.2z"/>
			<path class="st6" d="M870.5,90.8c-1.1,0-2.7-2.7-26.9-41.2l-1.1-1.1h1.6c14.3,0,29.1-1.6,43.4-3.3c2.7-1.1,4.9-2.2,7.7-3.3
				l0.5-0.5l38.4,31.8l-1.6,0.5C912.8,78.7,871.1,90.3,870.5,90.8L870.5,90.8z M845.8,49.7c18.1,29.6,23.1,37.3,24.7,39
				c4.4-1.1,41.2-11.5,59.8-17l-34.6-29.1c-2.2,1.1-4.9,2.2-7.7,3.3C874.4,48.6,860.1,49.7,845.8,49.7z"/>
		</g>
		<g>
			<path class="st10" d="M1027,111.7c-12.6-2.2-46.1-8.8-58.2-9.9h-1.1l0,0l-35.1-29.1L895.8,42c2.2-1.1,4.4-2.2,7.1-3.3
				c7.1-2.7,33.5-1.6,37.3-0.5c3.3,1.1,12.1,0,13.2-1.1c1.1-1.1,27.4-0.5,35.1-3.3s15.9-17,15.9-17s1.1,16.5,3.3,24.7
				c3.3,14.3,7.7,28.5,12.6,42.8C1023.1,93.6,1025.3,102.3,1027,111.7z"/>
			<path class="st6" d="M1028,112.8h-1.1c-13.7-2.7-46.1-8.8-58.2-9.9h-1.6l0,0l-73-60.9l1.1-0.5c2.2-1.1,4.4-2.2,7.1-3.3
				c7.7-3.3,34-1.6,37.9-0.5c3.3,1.1,11,0,12.1-0.5c0.5-0.5,1.6-0.5,11-1.1c8.2-0.5,20.3-0.5,24.7-2.2c7.1-2.2,15.4-16.5,15.4-16.5
				l1.6-2.7v2.7c0,0,1.1,16.5,3.3,24.7c3.3,14.3,7.7,28.5,12.6,42.3c3.3,8.8,5.5,18.1,6.6,26.9L1028,112.8z M968.2,100.7h1.1
				c11.5,1.1,42.8,7.1,57.1,9.9c-1.6-8.8-3.8-17-6.6-25.3c-4.9-13.7-9.3-28.5-12.6-42.8c-1.1-6.6-2.2-17-2.7-22
				c-2.7,4.4-9.3,13.2-14.8,14.8c-4.4,1.6-16.5,2.2-25.3,2.2c-4.4,0-8.8,0.5-9.9,0.5c-1.6,1.1-10.4,2.2-13.7,1.1
				c-3.8-1.1-29.6-2.2-36.8,0.5c-2.2,1.1-4.4,1.6-6,2.7L968.2,100.7z"/>
		</g>
		<g>
			<path class="st10" d="M1025.3,174.8c-0.5,2.2-1.1,3.8-1.6,6c-6.6,0-19.8,2.2-37.9,13.2c-1.1,0.5-2.7,1.6-3.8,2.2l-2.7-54.9
				c12.1,1.1,32.4,3.3,43.4,4.4C1020.9,155.6,1027.5,162.2,1025.3,174.8z"/>
			<path class="st6" d="M981.4,197.9l-2.7-57.6h1.1c12.1,1.1,32.4,3.3,43.4,4.4h1.1v1.1c-0.5,4.4,0,7.7,1.1,12.1
				c1.1,4.4,2.7,9.9,1.6,16.5l0,0c-0.5,2.2-1.1,4.4-1.6,6v0.5h-0.5c-6,0-19.2,2.2-37.3,13.2l-0.5,0.5c-1.1,0.5-2.2,1.1-2.7,1.6
				L981.4,197.9z M980.3,142.4l2.7,52.1c0.5-0.5,1.1-0.5,1.6-1.1l0.5-0.5c18.1-11,31.3-13.2,37.9-13.7c0.5-1.6,1.1-3.3,1.6-5.5
				c1.1-6.6,0-11-1.6-15.9c-1.1-3.8-2.2-7.7-1.6-11.5C1011,145.7,992.4,144.1,980.3,142.4z"/>
		</g>
		<g>
			<path class="st10" d="M1023.7,180.8c-3.8,9.3-12.6,17-18.7,20.3c-7.7,4.4-8.2,8.2-5.5,15.4c0.5,1.6,1.1,2.7,1.6,4.4
				c-3.3,2.2-9.9,6.6-13.7,9.3c-1.1,0.5-2.2,1.1-3.3,1.6c-3.8,1.6-8.2,3.3-7.7,1.1c0.5-2.7,2.2-9.9,0-8.8c-1.6,0.5-8.8,3.8-12.6,6
				l-0.5-1.1l0,0c-2.2-3.3-4.4-7.1-7.1-11.5c4.4-4.9,12.6-12.1,26.9-21.4c1.1-0.5,2.2-1.6,3.8-2.2
				C1003.9,183,1017.1,180.8,1023.7,180.8z"/>
			<path class="st6" d="M977,235.2c-0.5,0-1.1,0-1.6-0.5s-0.5-1.1-0.5-1.6s0-1.1,0.5-1.6c0.5-1.6,1.1-4.9,0.5-6
				c-1.6,0.5-5.5,2.7-9.3,4.4l-4.4,2.2l-1.1-2.2c-1.6-3.3-4.4-7.1-7.1-11.5l-0.5-0.5l0.5-0.5c6-6.6,14.8-13.7,26.9-21.4
				c0.5-0.5,1.6-1.1,2.2-1.1l1.6-1.1c18.7-11.5,31.8-13.2,38.4-13.7h1.6l-0.5,1.1c-3.8,9.9-12.6,17.6-19.2,20.9
				c-7.7,4.4-7.7,8.2-4.9,14.3c0.5,1.1,1.1,2.7,1.6,4.4l0.5,0.5l-0.5,0.5c-3.3,2.2-9.9,6.6-14.3,9.3c-1.1,0.5-2.2,1.1-3.3,1.6h-0.5
				C980.8,234.1,978.6,235.2,977,235.2z M976.5,223.1c0.5,0,0.5,0,1.1,0.5c1.1,1.1,0.5,3.8,0,7.7c0,0.5,0,1.1-0.5,1.6l0,0
				c0.5,0.5,4.4-1.1,6-2.2h0.5c1.1-0.5,2.2-1.1,2.7-1.6c3.8-2.2,9.9-6.6,13.2-8.8c-0.5-1.6-1.1-2.7-1.6-3.8c-2.7-7.1-2.7-12.1,6-17
				c6-3.3,13.7-9.9,18.1-18.7c-6.6,0.5-19.2,2.7-35.7,13.2l-1.6,1.1c-0.5,0.5-1.6,1.1-2.2,1.1c-11.5,7.1-20.3,14.3-26.3,20.3
				c2.7,3.8,4.9,7.7,7.1,11l0.5,0.5l2.7-1.1c3.8-1.6,8.2-3.8,9.3-4.4C975.9,223.1,976.5,223.1,976.5,223.1z"/>
		</g>
		<g>
			<path class="st10" d="M1014.3,280.7c-3.8-0.5-7.1-1.1-10.4-2.2c-2.2-0.5-13.7,0-19.2,0c0-8.2-0.5-22,1.6-28
				c0.5-1.6,1.1-3.3,1.1-5.5c0.5-4.9,0.5-9.9,0-14.8c4.4-2.7,11-7.1,13.7-9.3c4.4,11,7.7,22,9.3,33.5
				C1012.1,263.2,1013.2,272,1014.3,280.7z"/>
			<path class="st6" d="M1014.9,281.8h-1.1c-3.8-0.5-7.1-1.1-11-2.2c-1.6-0.5-12.1,0-18.7,0H983v-1.1c0-1.6,0-2.7,0-4.4
				c0-8.2,0-18.7,1.6-24.2c0.5-1.6,1.1-3.3,1.1-4.9c0.5-4.9,0.5-9.9,0-14.8v-0.5l0.5-0.5c4.4-2.7,11-7.1,13.7-9.3l1.1-0.5l0.5,1.1
				c4.4,11,7.7,22,9.3,33.5c1.6,8.8,2.7,17.6,3.8,26.3L1014.9,281.8z M997.3,277.5c3.3,0,5.5,0,6.6,0c3.3,1.1,6.6,1.6,9.3,2.2
				c-0.5-8.2-2.2-17-3.8-25.3c-1.6-11-4.9-22-8.8-31.8c-3.3,2.2-8.8,6-12.6,8.2c0.5,4.9,0.5,9.9,0,14.3c0,1.6-0.5,3.8-1.1,5.5
				c-1.6,4.9-1.6,15.4-1.6,23.6c0,1.1,0,2.2,0,3.8C988.5,278,993.5,277.5,997.3,277.5z"/>
		</g>
		<g>
			<path class="st10" d="M1014.9,301.6c-0.5,4.9-1.6,10.4-3.3,14.8c-8.8-3.8-23.1-9.9-25.3-9.9c-0.5,0-0.5,0-1.1,0
				c0-4.4,0-9.9-1.1-11.5c-0.5-1.1-1.1-2.2-1.1-3.3c-0.5-2.2,0-5.5,1.1-6.6c0.5-0.5,0.5-3.3,0.5-6.6c5.5,0,17-0.5,19.2,0
				c3.3,1.1,7.1,1.6,10.4,2.2C1014.9,290.1,1014.9,297.2,1014.9,301.6z"/>
			<path class="st6" d="M1012.1,318.1l-3.3-1.6c-8.2-3.3-20.3-8.8-22.5-8.8c-0.5,0-0.5,0-1.1,0h-1.1v-1.1c0-8.8-0.5-11-1.1-11
				c-0.5-1.1-1.1-2.2-1.1-3.3c-0.5-2.7,0-5.5,1.1-7.1c0-0.5,0.5-2.2,0.5-6V278h1.1c3.8,0,17-0.5,19.2,0c3.3,1.1,7.1,1.6,10.4,2.2
				h0.5v0.5c0.5,7.1,1.1,14.3,1.1,20.9l0,0c-0.5,5.5-1.6,10.4-3.3,15.4L1012.1,318.1z M985.8,305.4
				C985.8,305.4,986.3,305.4,985.8,305.4c2.7,0.5,12.1,4.4,23.6,8.8l1.6,0.5c1.6-4.4,2.7-8.8,3.3-13.7c0-6.6-0.5-13.2-1.1-19.8
				c-3.3-0.5-6.6-1.1-9.9-2.2c-1.6,0-9.9,0-17.6,0c0,4.4,0,6-1.1,6.6c-0.5,0.5-1.1,3.3-0.5,5.5c0,1.1,0.5,2.2,1.1,2.7
				C985.2,295,985.8,296.7,985.8,305.4z"/>
		</g>
		<g>
			<path class="st10" d="M845.3,410.3c0,1.6-0.5,3.3-0.5,4.9l0,0c-10.4,1.6-24.7,3.3-43.9,5.5c-18.7,2.2-42.3,6.6-66.4,11
				c-0.5-2.7-0.5-5.5-0.5-6.6c-1.1-9.9-2.2-51.6-6.6-79l118-36.8C845.8,347.7,846.4,397.7,845.3,410.3z"/>
			<path class="st6" d="M733.8,433.3v-1.1c-0.5-2.7-0.5-5.5-0.5-6.6c-0.5-2.7-0.5-8.2-1.1-14.8c-1.1-17.6-2.2-44.5-6-64.2v-0.5
				l119.7-37.3v1.1c0.5,37.3,1.6,88.4,0.5,101c0,1.1-0.5,2.7-0.5,5.5v0.5h-0.5c-11,1.6-25.8,3.3-43.9,5.5c-17.6,2.2-39.5,6-65.9,11
				H733.8z M727.8,347.2c3.3,19.8,4.9,46.1,5.5,63.7c0.5,6.6,0.5,12.1,1.1,14.8c0,1.1,0.5,3.3,0.5,5.5c26.3-4.9,48.3-8.8,65.3-11
				c18.1-2.2,31.8-3.8,43.4-5.5c0.5-1.6,0.5-3.3,0.5-4.4l0,0c1.1-12.6,0.5-62-0.5-99.4L727.8,347.2z"/>
		</g>
		<g>
			<path class="st10" d="M844.7,309.8l-118,36.8c-1.1-6.6-2.7-13.2-5.5-19.8c-9.3-19.8-32.9-67-32.9-71.9c0-0.5,0-0.5,0-1.1
				c11-1.6,14.8-3.8,17.6-7.1c3.3-3.8,7.7-11,13.7-11s13.2,9.3,17.6,9.3c3.3,0,12.1-0.5,17.6-1.1c2.2,2.7,4.9,4.9,7.7,6.6
				c19.2,9.3,17,7.1,24.2,2.2c7.1-4.9,13.7-11,24.7-3.8c10.4,6.6,9.3,7.1,11,5.5c1.1-1.6,4.9-5.5,10.4,1.6c4.9,6,7.7,19.8,11.5,20.9
				C844.2,285.7,844.2,297.2,844.7,309.8z"/>
			<path class="st6" d="M726.1,347.7v-1.1c-1.1-6.6-2.7-13.2-5.5-19.2c-2.2-4.4-4.9-10.4-8.2-17c-14.3-29.1-25.3-51.6-25.3-55.4
				v-0.5v-1.1h1.1c11.5-1.6,14.8-4.4,17-6.6c0.5-0.5,1.1-1.1,1.6-1.6c3.3-3.8,7.1-9.3,12.6-9.3c3.3,0,7.1,2.7,10.4,5.5
				c2.7,2.2,5.5,4.4,7.1,4.4c3.3,0,12.6-0.5,17.6-1.1h0.5l0.5,0.5c2.2,2.7,4.4,4.9,7.1,6.6c15.9,7.7,16.5,7.1,20.3,3.8
				c0.5-0.5,1.6-1.1,2.2-1.6l0.5-0.5c6.6-4.9,14.3-10.4,24.7-3.3c3.3,2.2,5.5,3.8,7.1,4.9c1.1,0.5,1.6,1.1,2.2,1.1l0,0v-0.5
				c0.5-0.5,2.2-2.7,4.9-2.7c2.2,0,4.4,1.6,6.6,4.4c2.2,2.7,4.4,7.7,6,11.5c1.6,3.8,3.8,8.8,4.9,9.3h0.5v6.6
				c0,7.1,0.5,16.5,0.5,25.8v0.5h-0.5L726.1,347.7z M689.4,254.9L689.4,254.9c0,3.8,14.8,34.6,24.7,54.9c3.3,6.6,6,12.6,8.2,17
				c2.7,6,4.4,12.6,4.9,18.7l116.4-36.2c0-9.3-0.5-18.1-0.5-25.3v-5.5c-2.2-1.1-3.8-4.9-5.5-9.9c-1.6-3.8-3.3-8.2-5.5-11
				c-2.2-2.2-3.8-3.8-5.5-3.8c-1.1,0-2.2,0.5-3.8,2.2l0,0c-1.1,1.6-1.6,1.1-4.4-0.5c-1.6-1.1-3.8-2.7-7.1-4.9
				c-9.9-6-16.5-1.1-23.1,3.3l-0.5,0.5c-1.1,0.5-1.6,1.1-2.2,1.6c-4.4,3.8-6,4.4-22.5-3.8c-2.7-1.6-5.5-3.8-7.7-6.6
				c-6.6,0.5-14.3,1.1-17.6,1.1c-2.7,0-5.5-2.2-8.2-4.4c-3.3-2.7-6.6-4.9-9.3-4.9c-4.4,0-8.2,4.9-11.5,8.2c-0.5,0.5-1.1,1.1-1.6,2.2
				C703.6,251.1,699.8,253.3,689.4,254.9z"/>
		</g>
		<g>
			<path class="st10" d="M924.3,337.8c0,0-18.7,31.3-32.4,52.7c-6.6,10.4-12.1,18.1-14.3,18.7c-3.8,1.1-5.5,2.2-32.9,6l0,0
				c0.5-2.2,0.5-3.8,0.5-4.9c1.1-12.6,0.5-62.6-0.5-100.5c-0.5-12.6-0.5-23.6-1.1-31.8c0.5,0,1.1,0,1.1,0c4.4-2.7,9.3-8.2,17-5.5
				c6.6,2.2,12.6,2.2,18.7-2.7c5.5,8.8,10.4,17,15.4,24.7C912.2,319.2,924.3,337.8,924.3,337.8z"/>
			<path class="st6" d="M843.6,416.3v-1.1c0.5-2.2,0.5-3.8,0.5-4.9c1.1-9.9,0.5-43.4-0.5-100.5c-0.5-12.6-0.5-23.6-1.1-31.8v-1.1
				h1.1h0.5c0.5-0.5,1.6-1.1,2.2-1.6c3.8-2.7,8.8-6,15.4-3.8c7.1,2.7,12.1,1.6,17.6-2.7l0.5-0.5l0.5,1.1c5.5,8.8,10.4,17,15.4,24.7
				c15.4,24.7,27.4,43.4,27.4,43.9l0.5,0.5l-0.5,0.5c0,0.5-18.7,31.8-32.4,52.7c-10.4,15.9-13.2,18.7-14.8,19.2l-1.1,0.5
				c-3.8,1.1-6.6,2.2-32.4,5.5L843.6,416.3z M844.7,278.5c0,8.2,0.5,18.7,0.5,30.7c1.1,57.1,1.6,91.1,0.5,101c0,1.1,0,2.2-0.5,3.8
				c24.2-3.3,27.4-4.4,30.7-5.5l1.1-0.5c0.5,0,3.3-2.2,13.7-18.1c12.6-19.8,29.6-48.3,31.8-52.1c-2.2-3.3-13.2-20.9-26.9-43.4
				c-4.9-7.7-9.9-15.9-14.8-24.2c-5.5,4.4-11.5,4.9-18.7,2.2c-6-2.2-9.9,1.1-13.7,3.3c-1.1,0.5-1.6,1.1-2.7,1.6
				C845.3,278.5,845.3,278.5,844.7,278.5z"/>
		</g>
		<g>
			<path class="st10" d="M880.9,269.2c-6,4.9-12.1,5.5-18.7,2.7c-7.7-2.7-12.6,2.7-17,5.5c-0.5,0-1.1,0.5-1.1,0
				c-3.8-1.1-6.6-14.8-11.5-20.9c-5.5-7.1-9.3-3.3-10.4-1.6c-1.1,1.6,0,1.1-11-5.5s-18.1-1.1-24.7,3.8c-6.6,4.9-4.9,7.1-24.2-2.2
				c-2.7-1.6-5.5-3.8-7.7-6.6c-14.8-17.6-34.6-62-42.8-82.9l1.6-0.5l89.5-54.3l19.8,36.2l14.3,26.3c-9.9,0-10.4,3.8-10.4,9.3
				C827.1,182.5,855.1,228,880.9,269.2z"/>
			<path class="st6" d="M844.2,278.5h-0.5c-2.2-0.5-4.4-4.9-6.6-10.4c-1.6-3.8-3.3-8.2-5.5-11c-2.2-2.2-3.8-3.8-5.5-3.8l0,0
				c-1.1,0-2.2,0.5-3.8,2.2l0,0c-1.1,1.6-1.6,1.1-4.4-0.5c-1.6-1.1-3.8-2.7-7.1-4.9c-9.9-6-16.5-1.1-23.1,3.3l-0.5,0.5
				c-1.1,0.5-1.6,1.1-2.2,1.6c-4.4,3.8-6,4.4-22.5-3.8c-3.3-1.6-6-4.4-8.2-7.1c-15.4-18.1-35.1-64.2-43.4-82.9l-0.5-1.1l2.7-0.5
				l90-54.3l35.1,64.8h-1.6c-8.8,0-9.3,3.3-9.3,8.2c0,1.6,9.9,18.7,53.8,89.5l0.5,0.5l-0.5,0.5c-6,4.9-12.1,5.5-19.2,2.7
				c-6-2.2-9.9,1.1-13.7,3.3c-1.1,0.5-1.6,1.1-2.7,1.6C845.3,278.5,844.7,278.5,844.2,278.5z M826,251.7L826,251.7
				c2.2,0,4.4,1.6,7.1,4.4c2.2,2.7,4.4,7.7,6,11.5c1.6,3.8,3.8,8.8,4.9,9.3h0.5c0.5-0.5,1.6-1.1,2.2-1.6c3.8-2.7,8.8-6,15.4-3.8
				c6.6,2.2,12.1,1.6,17-2.2c-47.8-76.3-53.8-87.8-53.8-90c0-5.5,0.5-9.9,9.9-9.9l-32.9-60.4l-88.9,53.8h-1.1
				c8.2,19.8,27.4,64.2,42.3,81.8c2.2,2.7,4.4,4.9,7.7,6.6c15.9,7.7,16.5,7.1,20.3,3.8c0.5-0.5,1.6-1.1,2.2-1.6l0.5-0.5
				c6.6-4.9,14.3-10.4,24.7-3.3c3.8,2.2,6,3.8,7.1,4.9c1.1,0.5,1.6,1.1,2.2,1.1l0,0v-0.5C822.8,252.8,824.4,251.7,826,251.7z"/>
		</g>
		<g>
			<path class="st11" d="M920.5,170.4c-17,0-73,0-81.8,0h-1.1l-14.3-26.3c16.5-4.4,49.4-13.2,82.3-20.3h1.1
				C908.9,133.1,914.4,157.2,920.5,170.4z"/>
			<path class="st6" d="M860.1,171.5c-10.4,0-18.7,0-21.4,0H837l-14.8-28l1.1-0.5c20.9-5.5,52.1-13.7,82.3-20.3l2.2-0.5v1.1
				c2.2,9.9,7.7,34,13.7,46.7l0.5,1.1h-1.6c-4.9,0-13.2,0-22,0C886.4,171.5,871.6,171.5,860.1,171.5z M838.1,169.3h0.5
				c6.6,0,37.3,0,59.8,0c8.2,0,15.9,0,20.9,0c-5.5-12.6-11-35.1-13.2-45l0,0c-29.6,6.6-60.4,14.3-81.2,20.3L838.1,169.3z"/>
		</g>
		<g>
			<path class="st10" d="M1022.6,145.7L1022.6,145.7c-11-1.1-31.3-3.3-43.4-4.4c-6-0.5-9.9-1.1-10.4-1.1c-1.6-0.5-0.5-26.9,0-37.9
				c0-0.5,0-0.5,0-1.1c12.1,1.1,45.6,7.7,58.2,9.9c0.5,2.7,1.1,6,1.6,9.3C1030.8,134.7,1024.2,136.4,1022.6,145.7z"/>
			<path class="st6" d="M1023.7,147.4h-1.1c-11-1.1-30.7-3.3-43.4-4.4c-4.4-0.5-9.9-1.1-10.4-1.1c-1.1,0-2.2-0.5-1.1-39v-1.6h1.1
				c12.1,1.1,44.5,7.1,58.2,9.9h0.5v0.5c0.5,1.6,0.5,3.3,1.1,4.9c0,1.6,0.5,2.7,0.5,4.4c1.6,9.3-0.5,13.2-2.7,17.6
				c-1.1,2.2-2.7,4.4-3.3,7.7L1023.7,147.4L1023.7,147.4z M969.3,139.7c1.1,0,3.8,0.5,9.9,1.1c12.1,1.1,31.3,3.3,42.3,4.4
				c0.5-3.3,2.2-5.5,3.3-7.7c2.2-3.8,4.4-7.7,2.7-16.5c0-1.6-0.5-2.7-0.5-4.4s-0.5-2.7-0.5-4.4c-13.7-2.7-43.9-8.2-56.5-9.9
				C968.8,127,969.3,137.5,969.3,139.7z"/>
		</g>
		<g>
			<path class="st10" d="M955,217.6c-1.6,2.2-3.3,4.4-4.9,6.6c-1.1,1.6-2.7,20.9-3.8,39c-1.1,13.2-1.6,26.3-2.2,32.4h-0.5
				c-2.2,0-36.8-1.1-46.7-1.6c-4.9-7.7-10.4-16.5-15.4-24.7c-25.8-41.7-53.8-87.3-53.8-90c0-4.9,0.5-9.3,10.4-9.3h1.1
				c8.8,0,64.8,0,81.8,0c1.1,2.2,2.2,4.4,3.3,6C929.8,184.1,944.6,202.3,955,217.6z"/>
			<path class="st6" d="M944.6,297.2l-1.1-0.5c0,0,0,0-0.5,0c-2.2,0-39.5-1.1-46.7-1.6h-0.5v-0.5c-4.9-7.7-10.4-16.5-15.4-24.7
				C826,183,826,180.3,826,179.2c0-5.5,1.1-9.9,11-9.9h1.1c6.6,0,37.3,0,59.8,0c9.3,0,17,0,22,0h0.5v0.5c1.1,2.2,2.2,3.8,3.3,6
				c6.6,7.7,20.9,26.3,31.3,41.2l0.5,0.5l-0.5,0.5c-1.6,2.2-3.3,4.4-4.9,6.6c0,0.5-1.1,4.9-3.8,39c-0.5,8.8-1.1,17-1.6,23.6
				c0,3.8-0.5,6.6-0.5,8.8L944.6,297.2z M896.9,293.4c12.1,0.5,42.8,1.6,46.1,1.6c0-2.2,0.5-4.9,0.5-7.7c0.5-6.6,1.1-14.8,1.6-23.6
				c2.7-36.8,3.8-39,3.8-39.5c1.1-2.2,2.7-4.4,4.4-6.6c-10.4-14.8-24.7-32.9-30.7-40.6c-1.6-1.6-2.7-3.8-3.3-6c-4.9,0-12.6,0-21.4,0
				c-22.5,0-53.2,0-59.8,0H837c-8.8,0-9.3,3.3-9.3,8.2c0,1.6,7.7,15.4,53.8,89.5C887,277.5,892.5,285.7,896.9,293.4z"/>
		</g>
		<g>
			<path class="st10" d="M981.9,196.2c-14.3,9.3-22.5,16.5-26.9,21.4c-10.4-15.4-25.3-33.5-31.3-41.2c-1.6-1.6-2.7-3.8-3.3-6
				c-6-12.6-11.5-37.3-13.7-46.7c45-9.9,48.3-22.5,61.5-22l0,0l1.1,1.1c-0.5,11-1.1,37.3,0,37.9c0.5,0,4.4,0.5,10.4,1.1L981.9,196.2
				z"/>
			<path class="st6" d="M955,219.3l-0.5-1.1c-11-15.9-26.9-35.7-31.3-41.2c-1.6-2.2-2.7-3.8-3.8-6c-6-13.2-11.5-37.3-13.7-47.2v-1.1
				h1.1c25.8-5.5,37.9-12.6,45.6-17c6-3.3,9.9-5.5,15.9-4.9h0.5l1.6,1.6v0.5c-1.1,24.2-0.5,34.6,0,36.8c0.5,0,1.1,0,2.2,0
				c1.6,0,4.4,0.5,7.7,1.1h0.5l2.7,56l-0.5,0.5c-12.1,7.7-20.9,14.8-26.9,20.9L955,219.3z M907.3,124.3c2.2,10.4,7.7,33.5,13.7,46.1
				c1.1,2.2,2.2,3.8,3.3,6c4.4,5.5,19.8,24.2,30.7,40.1c6-6.6,14.8-13.2,25.8-20.3l-2.7-53.2c-2.7-0.5-4.9-0.5-6.6-0.5
				c-1.1,0-2.2-0.5-2.7-0.5l0,0c-1.1,0-2.2-0.5-1.1-38.4l-0.5-0.5c-4.9,0-8.8,1.6-14.8,4.9C944.6,111.7,932.5,118.3,907.3,124.3z"/>
		</g>
		<g>
			<path class="st10" d="M962.2,229.1L962.2,229.1c0,0.5-0.5,1.1-0.5,1.6c-0.5,3.3-1.1,9.3-1.6,17c-0.5,4.4-0.5,9.9-1.1,14.8
				l-13.2,0.5c1.6-18.1,3.3-37.3,3.8-39c1.1-2.2,2.7-4.9,4.9-6.6C957.8,221.5,960.5,225.3,962.2,229.1z"/>
			<path class="st6" d="M945.2,264.3v-1.1c2.7-36.8,3.8-39,3.8-39.5c1.1-2.7,3.3-4.9,4.9-7.1l0.5-1.1l0.5,1.1
				c2.7,3.8,4.9,7.7,7.1,11.5v0.5v0.5c0,0.5-0.5,1.1-0.5,1.6c-0.5,2.7-1.1,8.2-1.6,17c-0.5,4.4-0.5,9.9-1.1,14.8v1.1L945.2,264.3z
				 M955,218.7c-1.6,1.6-2.7,3.8-3.8,5.5c-0.5,0.5-1.1,5.5-3.8,37.9l11.5-0.5c0.5-4.9,0.5-9.9,1.1-14.3c0.5-9.3,1.1-14.8,1.6-17.6
				c0-0.5,0-1.1,0.5-1.6C959.4,225.9,957.2,222,955,218.7z"/>
		</g>
		<g>
			<path class="st10" d="M986.9,245.1c-2.2,0.5-5.5,1.1-7.7,2.2c-2.7,1.1-14.3,1.1-18.7,1.1c0.5-7.7,1.1-14.3,1.6-17l1.1-0.5
				c4.4-2.2,11-5.5,12.6-6c2.2-1.1,0.5,6,0,8.8s3.8,0.5,7.7-1.1c1.1-0.5,2.2-1.1,3.3-1.6C987.4,235.2,987.4,240.1,986.9,245.1z"/>
			<path class="st6" d="M964.9,248.9c-2.2,0-3.8,0-4.4,0h-1.1v-1.1c0.5-9.3,1.1-14.8,1.6-17.6v-0.5l1.6-0.5c7.1-3.3,11.5-5.5,13.2-6
				c1.1-0.5,1.6,0,1.6,0c1.1,1.1,0.5,3.8,0,7.7c0,0.5,0,1.1-0.5,1.6l0,0c0.5,0.5,4.4-1.1,6-2.2h0.5c1.1-0.5,2.2-1.1,2.7-1.6l1.1-0.5
				v1.6c0.5,4.9,0.5,9.9,0,15.4v0.5h-0.5c-2.2,0.5-5.5,1.1-7.7,2.2C977,248.9,969.9,248.9,964.9,248.9z M961.6,247.3
				c6,0,15.4,0,17.6-0.5s4.9-1.1,7.1-1.6c0.5-4.4,0.5-8.2,0-12.6c-0.5,0.5-1.1,0.5-1.6,1.1h-0.5c-4.4,1.6-6.6,2.7-8.2,1.6
				c-0.5-0.5-0.5-1.1-0.5-1.6c0-0.5,0-1.1,0.5-1.6c0.5-1.6,1.1-4.9,0.5-6c-1.6,0.5-6,2.7-12.6,6l-0.5,0.5
				C962.2,234.1,962.2,239,961.6,247.3z"/>
		</g>
		<g>
			<path class="st10" d="M984.7,306.5c-5.5,0-20.3,1.1-23.1,0c-1.6-0.5-3.3-1.6-4.4-2.7c0-3.3,0.5-7.1,0.5-12.1H983
				c0,1.1,0.5,2.2,1.1,3.3C984.7,296.7,984.7,302.2,984.7,306.5z"/>
			<path class="st6" d="M967.7,308.2c-2.7,0-4.9,0-6-0.5c-1.6-0.5-3.3-1.6-4.9-2.7l-0.5-0.5v-0.5c0-3.3,0.5-7.1,0.5-12.1v-1.1h26.9
				v0.5c0,1.1,0.5,1.6,1.1,2.7c0.5,0.5,1.1,1.6,1.1,12.1v1.1h-1.1c-1.6,0-4.9,0-7.7,0C973.2,308.2,969.9,308.2,967.7,308.2z
				 M957.8,303.3c1.1,1.1,2.7,1.6,3.8,2.2c1.6,0.5,9.3,0.5,14.8,0c2.7,0,4.9,0,7.1,0c0-8.2-0.5-9.9-1.1-10.4
				c-0.5-1.1-0.5-1.6-1.1-2.7h-23.6C958.3,297.2,958.3,300.5,957.8,303.3z"/>
		</g>
		<g>
			<path class="st10" d="M959.4,263.2c-0.5,9.9-1.1,20.3-1.6,29.1c0,4.9-0.5,8.8-0.5,12.1c-4.4-2.7-10.4-7.1-13.2-7.7
				c0.5-6,1.1-19.2,2.2-32.4L959.4,263.2z"/>
			<path class="st6" d="M957.8,305.4l-1.1-1.1c-1.1-0.5-2.2-1.1-3.3-2.2c-3.8-2.2-7.7-4.9-9.9-5.5H943v-0.5c0.5-6,1.1-18.7,2.2-32.4
				v-0.5l14.8-0.5v1.1c-0.5,8.2-1.1,17.6-1.6,29.1c0,4.9-0.5,8.8-0.5,12.1L957.8,305.4z M945.2,295.6c2.2,1.1,6,3.3,9.3,5.5
				c0.5,0.5,1.1,0.5,1.6,1.1c0-2.7,0.5-6.6,0.5-10.4c0.5-11,1.1-20.3,1.6-28l-11.5,0.5C946.3,277.5,945.2,289.5,945.2,295.6z"/>
		</g>
		<g>
			<path class="st10" d="M985.8,250.6c-2.2,6-1.6,19.8-1.6,28c0,3.8,0,6-0.5,6.6c-1.1,1.1-1.6,3.8-1.1,6.6h-25.3
				c0.5-8.2,1.1-19.2,1.6-29.1c0.5-5.5,0.5-10.4,1.1-14.8c4.4,0,15.9,0,18.7-1.1c2.2-0.5,5.5-1.6,7.7-2.2
				C986.9,247.3,986.3,248.9,985.8,250.6z"/>
			<path class="st6" d="M984.1,292.8h-26.9v-1.1c0.5-11.5,1.1-20.9,1.6-29.1c0.5-5.5,0.5-10.4,1.1-14.8v-1.1h2.2
				c4.9,0,14.8,0,17.6-0.5c2.2-0.5,4.9-1.6,7.7-2.2l1.1-0.5v1.1c0,1.6-0.5,3.8-1.1,5.5l0,0c-1.6,4.9-1.6,14.8-1.6,23.1
				c0,1.6,0,3.3,0,4.9c0,5.5-0.5,6.6-1.1,7.1c-0.5,0.5-1.1,3.3-0.5,5.5L984.1,292.8z M958.9,291.2h23.1c0-2.2,0-4.9,1.6-6
				c0,0,0.5-1.6,0.5-6c0-1.6,0-3.3,0-4.9c0-8.2,0-18.1,1.6-23.6c0.5-1.1,0.5-2.7,1.1-3.8c-2.2,0.5-4.9,1.1-6.6,1.6
				c-2.7,1.1-10.4,1.1-18.1,1.1h-0.5c-0.5,4.4-0.5,9.3-1.1,13.7C960,270.9,959.4,280.2,958.9,291.2z"/>
		</g>
	</g>
</g>
</svg>
