<?xml version="1.0" encoding="utf-8"?>
<!-- Generator: Adobe Illustrator 26.0.0, SVG Export Plug-In . SVG Version: 6.00 Build 0)  -->
<svg version="1.1" id="Layer_1" xmlns="http://www.w3.org/2000/svg" xmlns:xlink="http://www.w3.org/1999/xlink" x="0px" y="0px"
	 viewBox="0 0 1116 360" style="enable-background:new 0 0 1116 360;" xml:space="preserve">
<style type="text/css">
	.st0{fill:#ED2F38;}
	.st1{opacity:0.24;}
	.st2{opacity:0.19;fill:#FFFFFF;enable-background:new    ;}
	.st3{font-family:'Poppins-ExtraBold';}
	.st4{font-size:65.16px;}
	.st5{font-size:71.62px;}
	.st6{fill:#1B1E2A;}
	.st7{font-family:'Poppins-Regular';}
	.st8{font-size:69.773px;}
	.st9{fill:#FFFFFF;}
	.st10{fill:#46506D;}
	.st11{fill:#1B1D29;}
</style>
<rect class="st0" width="1116" height="360"/>
<g>
	<g class="st1">
		<text transform="matrix(1 0 0 1 -143.1066 115.6999)" class="st2 st3 st4">DUMAGUETE</text>
		<text transform="matrix(1 0 0 1 285.7234 115.6999)" class="st2 st3 st4">DUMAGUETE</text>
	</g>
	<g class="st1">
		<text transform="matrix(1 0 0 1 -397.3566 176.5399)" class="st2 st3 st4">DUMAGUETE</text>
		<text transform="matrix(1 0 0 1 31.4734 176.5399)" class="st2 st3 st4">DUMAGUETE</text>
	</g>
	<g class="st1">
		<text transform="matrix(1 0 0 1 -103.7266 234.0798)" class="st2 st3 st4">DUMAGUETE</text>
		<text transform="matrix(1 0 0 1 325.1034 234.0798)" class="st2 st3 st4">DUMAGUETE</text>
	</g>
	<g class="st1">
		<text transform="matrix(1 0 0 1 -400.5767 295.0599)" class="st2 st3 st4">DUMAGUETE</text>
		<text transform="matrix(1 0 0 1 28.2534 295.0599)" class="st2 st3 st4">DUMAGUETE</text>
	</g>
	<g class="st1">
		<text transform="matrix(1 0 0 1 -211.1266 355.1899)" class="st2 st3 st4">DUMAGUETE</text>
		<text transform="matrix(1 0 0 1 217.7034 355.1899)" class="st2 st3 st4">DUMAGUETE</text>
	</g>
	<g class="st1">
		<text transform="matrix(1 0 0 1 -51.9866 59.0099)" class="st2 st3 st5">DUMAGUETE</text>
	</g>
	<g class="st1">
		<text transform="matrix(1 0 0 1 714.0093 115.6999)" class="st2 st3 st4">DUMAGUETE</text>
	</g>
	<g class="st1">
		<text transform="matrix(1 0 0 1 459.7594 176.5399)" class="st2 st3 st4">DUMAGUETE</text>
		<text transform="matrix(1 0 0 1 888.5894 176.5399)" class="st2 st3 st4">DUMAGUETE</text>
	</g>
	<g class="st1">
		<text transform="matrix(1 0 0 1 753.3894 234.0798)" class="st2 st3 st4">DUMAGUETE</text>
	</g>
	<g class="st1">
		<text transform="matrix(1 0 0 1 456.5393 295.0598)" class="st2 st3 st4">DUMAGUETE</text>
		<text transform="matrix(1 0 0 1 885.3694 295.0598)" class="st2 st3 st4">DUMAGUETE</text>
	</g>
	<g class="st1">
		<text transform="matrix(1 0 0 1 645.9893 355.1898)" class="st2 st3 st4">DUMAGUETE</text>
		<text transform="matrix(1 0 0 1 1074.8193 355.1898)" class="st2 st3 st4">DUMAGUETE</text>
	</g>
	<g class="st1">
		<text transform="matrix(1 0 0 1 413.5199 59.0103)" class="st2 st3 st5">DUMAGUETE</text>
	</g>
	<g class="st1">
		<text transform="matrix(1 0 0 1 876.388 59.5117)" class="st2 st3 st5">DUMAGUETE</text>
	</g>
</g>
<g>
	<text transform="matrix(1 0 0 1 184.1554 213.1137)" class="st6 st7 st8">PIAPI</text>
	<g>
		<g>
			<path class="st9" d="M171.9,154.9L171.9,154.9L171.9,154.9c0.1-0.4,0.2-0.8,0.4-1.1c0.7-1.2,1-2.6,0.7-4l-0.1-0.7
				c-0.1-0.3-0.1-0.6-0.2-1l0,0c-0.4-2.1-0.7-3.8-1.3-5.2c-0.9-2.5-1.7-5-2.3-7.5c-0.3-1.4-0.5-4.3-0.5-4.3
				c-0.1-0.8-0.7-1.4-1.5-1.3c-0.5,0-0.9,0.3-1.2,0.7c-0.7,1.1-1.7,2.3-2.1,2.5c-0.6,0.2-2.8,0.3-4,0.3c-1.6,0.1-2.2,0.1-2.6,0.3
				c-0.4,0.1-0.8,0.1-1.3,0c-0.8-0.2-5.9-0.6-7.7,0.1c-0.6,0.2-1,0.4-1.4,0.6l0,0l-0.4,0.2c-0.2,0.1-0.5,0.3-0.7,0.4
				c-2.5,0.3-5.1,0.5-7.7,0.6l0,0h-0.7c-4.3,0.1-6.9-0.4-7.2-0.6c-0.1,0-0.1-0.1-0.2-0.1c-0.9-0.4-3.3-1.5-6.2-1l0,0h-0.1l0,0h-0.2
				c-3.1,0.7-4.8,1.5-5.2,1.7c-0.6,0.2-5.1,1.7-7,2.3c-0.5-0.8-1.2-2.2-1.6-3.1c-1.4-2.8-1.7-3.2-2.1-3.5c-0.5-0.3-3.7-1.5-4.6-1.8
				c-4.6-1.6-4.8-1.5-5.4-1.1c-0.4,0.2-0.5,0.4-1.7,2.4c-1,1.7-3.7,6.2-4.6,6.8c-0.5,0.2-2.9,1.1-5.5,2.1c-3.3,1.3-7.5,2.9-10.9,4.2
				c-1.9,0.7-3.2,1.3-4.2,1.7c-0.6,0.2-1,0.4-1.3,0.5c-0.4,0.2-1.5,0.7-1.2,1.8c0.1,0.5,0.2,0.6,1.8,2.4c1.7,1.9,4.8,5.3,5.8,7.2
				c0.5,0.9,1.5,3.2,2.8,6.4l0,0c1,2.5,2.2,5.5,3.2,8.2l0,0c0.9,2.3,1.5,4.2,1.9,5.3c0.7,2.1,3.1,9.8,7,22.2l0,0l1.7,5.5l2,7.1l0,0
				l8.4,29.4c0.2,0.6,0.7,1,1.4,1c0.1,0,0.1,0,0.2,0l17.5-2.1h0.1h0.1l0,0l12.7-2.2l0,0h0.2h0.1l14.6-3.7c0.5-0.1,0.9-0.5,1-1
				c0.5-2,1.9-5.6,3.2-6.6c0.1-0.1,0.2-0.2,0.3-0.2c0,0,0.1-0.1,0.2-0.3l0,0c4-4.8,4-5.8,4-6.3v-0.3c0.1-4.9,0.8-6.5,1.1-7l0.1-0.2
				l0,0c1-1.4,1.7-3,2-4.7c0.4-1.9,0.6-3.2,0.7-3.7l0,0l0,0l0.1-0.4v-0.1c0.3-2.8,1.1-5.5,2.2-8.1c0.8-1.6,1.7-3.1,2.9-4.5
				c0.7-0.9,1.4-1.7,1.7-2.7c0.1-0.4,0.3-0.9,0.5-1.3c0.1-0.3,0.2-0.5,0.3-0.8l0,0c0.4-1,0.7-2.1,0.7-3.2c0-0.9,0-2.2-0.2-3.9l0,0
				c-0.2-1.7-0.4-3.3-0.7-5c-0.4-2.2-0.9-4.3-1.7-6.3l0,0l0,0c-0.1-0.3-0.2-0.5-0.3-0.8c-0.1-0.2-0.2-0.4-0.2-0.7
				c0,0,0.1-0.1,0.5-0.4c1.4-0.8,3.2-2.4,4.1-4.4l0,0c0.2-0.5,0.3-0.9,0.4-1.4c0.2-1.2,0.1-2.4-0.3-3.5
				C171.9,155.8,171.8,155.4,171.9,154.9z"/>
		</g>
		<g>
			<path class="st10" d="M121.8,172.7c-1,0.1-2.7,0.2-3.2,0.2c-0.9,0-2.1-1.7-3.2-1.7s-1.9,1.3-2.5,2c-0.5,0.5-1.2,1-3.2,1.3
				c-0.4,0.1-0.9,0.1-1.5,0.1c-3.2,0.2-4.3-1.3-6.2-1.6c-1.8-0.4-1.9,0.3-3.2,0.6c-1.2,0.3-2.1-1.4-5.4-3.1c-3.3-1.6-3-0.5-4.4-0.2
				c-1.5,0.4-3.8-1.8-4.1-1.7c-0.2,0.1-1.2,1.7-2,3c-1-2.6-2.1-5.6-3.2-8.2c2-0.3,6.4-0.9,14.2-2.2c9.9-1.6,18.3-3.1,20.1-3.4
				C115.5,161.4,119,169.5,121.8,172.7z"/>
			<path class="st6" d="M107.6,174.7c-1.8,0-2.9-0.5-3.8-1c-0.6-0.3-1.1-0.5-1.8-0.7c-1.2-0.2-1.6,0-2.1,0.2c-0.3,0.1-0.6,0.3-1,0.4
				c-0.7,0.2-1.3-0.3-2.3-1c-0.7-0.6-1.8-1.3-3.3-2.1c-2.4-1.2-2.8-0.9-3.4-0.6c-0.2,0.1-0.5,0.3-0.9,0.4c-1.1,0.3-2.5-0.7-3.4-1.3
				c-0.3-0.2-0.6-0.4-0.7-0.4c-0.1,0.1-0.5,0.6-1.9,2.9l-0.2,0.3l-0.1-0.3c-1-2.7-2.2-5.7-3.2-8.2l-0.1-0.2h0.2
				c2-0.3,6.4-0.9,14.2-2.2c10.4-1.7,19.1-3.2,20.1-3.4h0.1l0.1,0.1c1.4,3.4,5.1,11.8,7.8,15.1l0.2,0.3h-0.3
				c-1.1,0.1-2.7,0.2-3.2,0.2s-1-0.4-1.5-0.8c-0.6-0.5-1.2-0.9-1.7-0.9c-0.8,0-1.5,0.9-2,1.5c-0.1,0.1-0.2,0.3-0.3,0.4
				c-0.5,0.6-1.3,1.1-3.3,1.3c-0.4,0.1-0.9,0.1-1.5,0.1C108,174.7,107.8,174.7,107.6,174.7z M101,172.6c0.3,0,0.6,0,1,0.1
				c0.7,0.1,1.2,0.4,1.8,0.7c1,0.5,2.2,1.1,4.3,0.9c0.6,0,1.1-0.1,1.5-0.1c2.1-0.3,2.7-0.8,3.1-1.2c0.1-0.1,0.2-0.2,0.3-0.4
				c0.6-0.7,1.3-1.6,2.3-1.6c0.6,0,1.3,0.5,1.9,1c0.5,0.4,1,0.8,1.3,0.8c0.5,0,2.1-0.1,2.9-0.1c-2.7-3.4-6.2-11.3-7.6-14.8
				c-1.5,0.3-9.9,1.7-20,3.4c-7.6,1.2-12,1.9-14,2.2c1,2.4,2.1,5.2,3,7.7c1.6-2.7,1.8-2.7,1.9-2.8c0.2,0,0.4,0.1,1,0.5
				c0.8,0.6,2.2,1.5,3.1,1.3c0.4-0.1,0.6-0.2,0.8-0.4c0.8-0.4,1.3-0.6,3.7,0.6c1.6,0.8,2.6,1.5,3.4,2.1c0.9,0.7,1.4,1.1,2,0.9
				c0.4-0.1,0.7-0.2,0.9-0.3C100.1,172.7,100.4,172.6,101,172.6z"/>
		</g>
		<g>
			<path class="st10" d="M130.6,147.7l-16.3,9.9l-0.3,0.1c-1.8,0.3-10.2,1.8-20.1,3.4c-7.8,1.3-12.3,1.9-14.2,2.2
				c-1.2-2.9-2.3-5.5-2.9-6.6c-1.6-2.9-7.4-8.8-7.5-9.1s20.7-8.1,22.3-8.8s6.1-9.1,6.5-9.3c0.3-0.2,8.1,2.6,8.6,2.9
				c0.5,0.3,3.5,7.1,4,7.1s7.8-2.4,8.2-2.6c0.4-0.2,1.9-0.9,4.9-1.6c0.1,0,0.1,0,0.2,0L130.6,147.7z"/>
			<path class="st6" d="M79.5,163.4v-0.1c-0.9-2.3-2.2-5.3-2.9-6.5c-1.1-1.9-4.1-5.3-6-7.4c-1.3-1.5-1.5-1.7-1.5-1.8
				c0-0.2-0.1-0.3,16.8-6.8c2.9-1.1,5.1-2,5.6-2.2c1.1-0.5,3.7-4.9,5.2-7.3c0.9-1.5,1.1-1.9,1.3-2c0.5-0.3,8.7,2.9,8.7,2.9
				c0.2,0.1,0.7,1,1.7,3c0.8,1.6,2,3.9,2.3,4.1c0.5,0,7.7-2.4,8.1-2.6c0.2-0.1,1.8-0.9,4.9-1.6c0.1,0,0.2,0,0.2,0h0.1l6.8,12.6
				l-16.5,10l-0.3,0.1c-0.4,0.1-9.3,1.6-20.1,3.4c-7.8,1.3-12.3,1.9-14.2,2.2L79.5,163.4z M69.5,147.6c0.2,0.2,0.8,0.9,1.4,1.6
				c1.8,2,4.9,5.5,6,7.4c0.7,1.2,1.9,4.2,2.8,6.5c2-0.3,6.4-0.9,14.1-2.2c10.8-1.8,19.7-3.3,20.1-3.4l0.3-0.1l16.1-9.8l-6.5-12.1
				h-0.1c-3.1,0.7-4.7,1.5-4.9,1.5c-0.3,0.2-7.7,2.6-8.3,2.6c-0.4,0-0.9-1-2.5-4.2c-0.7-1.3-1.4-2.7-1.6-2.9
				c-0.5-0.3-7.7-2.9-8.4-2.9c-0.1,0.1-0.6,1-1.1,1.8c-2.1,3.5-4.2,7-5.3,7.4c-0.5,0.2-2.7,1.1-5.6,2.2
				C80.2,143.3,70.6,147,69.5,147.6z"/>
		</g>
		<g>
			<path class="st10" d="M116.6,191.2L91.7,199c-2.2-7.2-6-19.3-7-22.2c-0.4-1.2-1.1-3.2-2-5.4c0.8-1.3,1.8-2.9,2-3
				c0.3-0.1,2.6,2.1,4.1,1.7s1.1-1.4,4.4,0.2c3.3,1.6,4.2,3.3,5.4,3.1c1.2-0.3,1.3-0.9,3.2-0.6c1.8,0.4,2.9,1.8,6.2,1.6
				c0.6,0,1.1-0.1,1.5-0.1c0,0.1,0,0.1,0,0.2c0,0.9,4.3,9.5,6,13.1C116.2,188.8,116.5,190,116.6,191.2z"/>
			<path class="st6" d="M91.6,199.2V199c-1.4-4.4-5.9-19-7-22.2c-0.4-1.2-1.1-3.2-2-5.4v-0.1v-0.1c1.8-3,2-3,2.1-3.1
				c0.2,0,0.4,0.1,1,0.5c0.8,0.5,2.2,1.5,3.1,1.2c0.4-0.1,0.6-0.2,0.8-0.4c0.8-0.4,1.3-0.6,3.7,0.6c1.6,0.8,2.6,1.5,3.4,2.1
				c0.9,0.7,1.4,1.1,2,0.9c0.4-0.1,0.7-0.2,0.9-0.3c0.6-0.3,1-0.5,2.3-0.2c0.7,0.1,1.2,0.4,1.8,0.7c1,0.5,2.2,1.1,4.3,0.9
				c0.6,0,1.1-0.1,1.5-0.1h0.1v0.1c0,0.1,0,0.2,0,0.2c0,0.7,2.8,6.5,4.7,10.4c0.5,1,0.9,1.9,1.3,2.6c0.5,1.2,0.8,2.4,1,3.6v0.1h-0.1
				L91.6,199.2z M83,171.4c0.8,2.2,1.5,4.1,1.9,5.3c1.1,3.2,5.5,17.5,6.9,22.1l24.6-7.7c-0.2-1.2-0.5-2.3-0.9-3.4
				c-0.3-0.7-0.8-1.6-1.3-2.6c-2.6-5.3-4.8-9.8-4.8-10.5l0,0c-0.4,0-0.8,0.1-1.3,0.1c-2.1,0.1-3.4-0.5-4.4-1
				c-0.6-0.3-1.1-0.5-1.8-0.7c-1.2-0.2-1.6,0-2.1,0.2c-0.3,0.1-0.6,0.3-1,0.4c-0.7,0.2-1.3-0.3-2.3-1c-0.7-0.6-1.8-1.3-3.3-2.1
				c-2.4-1.2-2.8-0.9-3.4-0.6c-0.2,0.1-0.5,0.3-0.9,0.4c-1.1,0.3-2.5-0.7-3.4-1.3c-0.3-0.2-0.6-0.4-0.7-0.4
				C84.8,168.7,84.4,169.2,83,171.4z"/>
		</g>
		<g>
			<path class="st10" d="M118,206.8c-8.8,1.7-18.2,3.8-22.5,4.8l-2-7.1c0,0-0.7-2.3-1.7-5.5l24.9-7.8c0.9,5,1.1,12.6,1.2,14.4
				C117.9,205.8,117.9,206.3,118,206.8z"/>
			<path class="st6" d="M95.4,211.8l-2.1-7.2l0,0c0,0-0.7-2.3-1.7-5.5v-0.2l25.2-7.9v0.2c0.6,3.6,0.9,8.5,1.1,11.7
				c0.1,1.2,0.1,2.2,0.2,2.7c0,0.2,0.1,0.6,0.1,1.2v0.2H118C108.9,208.8,99.2,211,95.4,211.8L95.4,211.8z M91.9,199.1
				c1,3.2,1.7,5.4,1.7,5.4l2,6.9c3.8-0.9,13.2-3,22.2-4.8c-0.1-0.5-0.1-0.8-0.1-1c-0.1-0.5-0.1-1.5-0.2-2.7c-0.2-3.2-0.4-7.9-1-11.5
				L91.9,199.1z"/>
		</g>
		<g>
			<path class="st10" d="M121.5,238.9L121.5,238.9l-17.6,2.1l-8.4-29.4c4.3-1,13.7-3.1,22.5-4.8c0.5,4.9,2.3,21.2,2.5,25.2
				C120.6,234.3,121,236.6,121.5,238.9z"/>
			<path class="st6" d="M103.8,241.2l-8.5-29.7h0.2c2.9-0.7,12.9-3,22.5-4.8h0.2l0.2,1.8c0.6,6,2.2,20,2.3,23.6
				c0.1,2.3,0.5,4.6,1.1,6.9v0.2l-0.3,0.1L103.8,241.2z M95.7,211.7l8.4,29.1l17.3-2.1c-0.6-2.2-0.9-4.5-1-6.7
				c-0.1-3.6-1.7-17.6-2.3-23.5l-0.2-1.4C108.5,208.8,98.7,211,95.7,211.7z"/>
		</g>
		<g>
			<path class="st10" d="M133.4,219c-0.2,0.6,0.6,13.3,0.9,17.6l-12.7,2.2c-0.6-2.3-0.9-4.6-1.1-6.9c-0.2-4-1.9-20.2-2.5-25.2
				c4.4-0.8,8.6-1.6,12.1-2s6.1-0.8,8-1c-0.5,2.3-1.1,4.5-1.8,6.7C135,214.5,133.5,218.6,133.4,219z"/>
			<path class="st6" d="M121.4,239v-0.1c-0.6-2.3-0.9-4.6-1.1-6.9c-0.1-3.6-1.7-17.6-2.3-23.5l-0.2-1.8h0.2c4.9-0.9,9-1.6,12.1-2
				c3.3-0.4,6-0.8,8-1h0.2v0.2c-0.5,2.3-1.1,4.5-1.8,6.7c-0.9,2.8-1.8,5.6-2.4,7.3c-0.2,0.7-0.4,1.2-0.4,1.3
				c-0.1,0.5,0.4,9.4,0.9,17.5v0.1L121.4,239z M118.2,206.9l0.2,1.5c0.6,6,2.2,19.9,2.3,23.5c0.1,2.3,0.5,4.5,1,6.7l12.4-2.2
				c-0.3-5.2-1-16.9-0.8-17.5l0,0c0-0.1,0.2-0.6,0.4-1.3c0.6-1.7,1.5-4.4,2.4-7.3c0.7-2.1,1.3-4.3,1.7-6.4c-2,0.3-4.6,0.6-7.8,1
				C127,205.3,123,206,118.2,206.9z"/>
		</g>
		<g>
			<path class="st10" d="M153.1,225.3l-0.2,0.3c-2.3,1.6-3.8,7.4-3.8,7.4l-14.6,3.7h-0.2c-0.3-4.3-1-17-0.9-17.6
				c0.1-0.4,1.6-4.5,2.9-8.6c1,2.5,3.1,7,3.7,7.6C140.7,218.7,149.6,223.4,153.1,225.3z"/>
			<path class="st6" d="M134.1,236.8v-0.2c-0.1-1.7-1-16.9-0.8-17.7c0-0.1,0.2-0.7,0.5-1.4c0.6-1.6,1.5-4.4,2.4-7.2l0.1-0.4l0.2,0.4
				c1.4,3.4,3.1,7.1,3.7,7.6c0.8,0.7,10.2,5.7,13.1,7.2l0.2,0.1l-0.4,0.5c-2.2,1.6-3.7,7.2-3.7,7.3v0.1L134.1,236.8z M136.3,210.9
				c-0.8,2.6-1.7,5.2-2.2,6.8c-0.3,0.7-0.4,1.3-0.5,1.4c-0.1,0.5,0.4,10.6,0.8,17.4l14.5-3.7c0.2-0.8,1.7-5.8,3.8-7.4l0.1-0.1
				c-3.8-2-12.2-6.4-13-7.1C139.1,217.5,137,212.6,136.3,210.9z"/>
		</g>
		<g>
			<path class="st10" d="M158.4,211.6c-0.1,0.1-0.1,0.1-0.1,0.1c-1.4,1.8-1.4,7-1.5,8.1c0,0.9-2.9,4.4-3.7,5.4
				c-3.5-1.9-12.4-6.5-13.1-7.2c-0.7-0.6-2.7-5.2-3.7-7.6c0.7-2.2,1.3-4.4,1.8-6.7l0,0c2.4,0.3,6.9,2.8,8.4,3.4
				C147.6,207.6,154.7,210.2,158.4,211.6z"/>
			<path class="st6" d="M153.2,225.5l-0.1-0.1c-3.7-1.9-12.4-6.5-13.1-7.2c-0.7-0.7-2.9-5.6-3.8-7.7v-0.1v-0.1
				c0.7-2.2,1.3-4.4,1.8-6.7v-0.2h0.2c1.7,0.2,4.5,1.6,6.6,2.6c0.8,0.4,1.4,0.7,1.9,0.9c1.1,0.4,7.9,2.9,11.5,4.3l0.6,0.2l-0.1,0.2
				c-0.1,0.1-0.1,0.1-0.1,0.1c-1.2,1.7-1.4,6.2-1.4,7.7v0.3c0,0.9-2.3,3.8-3.7,5.5L153.2,225.5z M136.5,210.4
				c1.8,4.3,3.2,7.1,3.7,7.5c0.7,0.7,9.9,5.5,13,7.1c2.2-2.6,3.5-4.6,3.6-5.2v-0.3c0-1.5,0.2-6.1,1.5-7.9l-0.2-0.1
				c-3.9-1.5-10.4-3.9-11.5-4.3c-0.4-0.2-1.1-0.5-1.9-0.9c-1.9-1-4.6-2.2-6.3-2.5C137.7,206.1,137.1,208.3,136.5,210.4z"/>
		</g>
		<g>
			<path class="st10" d="M160.8,203.8c-0.1,0.6-0.3,1.9-0.7,3.7c-0.3,1.5-0.9,2.9-1.7,4.1c-3.7-1.4-10.8-4-11.9-4.4
				c-1.5-0.6-6-3.1-8.4-3.4c5-0.7,5.3-0.9,6-1.1c0.3-0.1,1.3-1.5,2.6-3.4c1.2,0.6,3.5,1.7,4.6,2
				C152.5,201.7,158.6,203.3,160.8,203.8z"/>
			<path class="st6" d="M158.4,211.8h-0.1c-3.7-1.4-10.8-4-11.9-4.4c-0.4-0.2-1.1-0.5-1.9-0.9c-2-1-4.7-2.3-6.4-2.5l-1.3-0.2
				l1.3-0.2c4.6-0.6,5.2-0.8,5.8-1h0.2c0.2-0.1,0.7-0.7,2.5-3.3l0.1-0.1l0.1,0.1c1,0.5,3.4,1.7,4.6,2c0.9,0.3,4.2,1.1,9.5,2.5h0.1
				v0.2c-0.1,0.7-0.4,2.2-0.7,3.7s-0.9,2.9-1.8,4.2L158.4,211.8z M139.1,203.8c1.7,0.5,3.9,1.5,5.6,2.3c0.8,0.4,1.5,0.7,1.9,0.9
				c1.1,0.4,8,3,11.8,4.4c0.8-1.2,1.4-2.5,1.6-3.9c0.3-1.4,0.5-2.8,0.6-3.5c-5.3-1.4-8.5-2.2-9.4-2.5c-1.1-0.4-3.4-1.5-4.5-2
				c-1.8,2.8-2.3,3.3-2.6,3.3H144C143.4,203.1,142.9,203.2,139.1,203.8z"/>
		</g>
		<g>
			<path class="st10" d="M168.5,185.8c-0.3,0.7-0.5,1.4-0.8,2.1c-0.6,1.7-2.6,3-4.5,7c-1.2,2.7-2,5.6-2.4,8.5c0,0,0,0.1-0.1,0.4
				c-2.2-0.6-8.2-2.1-9.5-2.5c-1.1-0.4-3.4-1.5-4.6-2c2.5-3.9,5.9-9.6,5.9-9.6s-2.2-3.4-5-8c1.8,0.1,8.1,0.3,8.5,0.3h0.1
				c0.5,0.1,1.6,0.9,2.4,1.4c0.3,0.2,0.6,0.3,0.9,0.5c0.6,0.2,3.3,0,4.2,0c0.1,0,0.1,0,0.2,0C164.3,184,166.9,185.1,168.5,185.8z"/>
			<path class="st6" d="M160.9,204h-0.2c-5.3-1.4-8.6-2.3-9.5-2.5c-1.2-0.4-3.6-1.6-4.6-2.1l-0.2-0.1l0.1-0.2
				c2.3-3.6,5.4-8.8,5.8-9.5c-0.4-0.6-2.4-3.8-5-7.9l-0.2-0.3h0.3c3,0.1,8.1,0.3,8.5,0.3c0.1,0,0.1,0,0.2,0c0.4,0.1,1.1,0.6,1.8,1.1
				c0.2,0.1,0.4,0.3,0.6,0.4c0.3,0.2,0.5,0.3,0.8,0.5c0.3,0.1,1.6,0.1,2.6,0c0.6,0,1.2-0.1,1.5,0c0.1,0,0.1,0,0.2,0
				c0.4,0,1.9,0.6,4.7,1.8l0.1,0.1l-0.1,0.1c-0.1,0.3-0.2,0.5-0.3,0.8c-0.2,0.4-0.3,0.9-0.5,1.4c-0.3,0.8-0.8,1.4-1.5,2.3
				c-0.9,1.1-2,2.5-3,4.8c-1.2,2.7-2,5.6-2.3,8.5c0,0,0,0.1-0.1,0.4L160.9,204z M146.9,199.2c1.1,0.5,3.3,1.6,4.4,2
				c0.9,0.3,4.1,1.1,9.3,2.5c0-0.1,0-0.2,0-0.2c0.4-3,1.2-5.8,2.4-8.6c1.1-2.3,2.2-3.7,3.1-4.8c0.7-0.8,1.2-1.5,1.4-2.2
				c0.2-0.5,0.3-0.9,0.5-1.4c0.1-0.2,0.2-0.4,0.2-0.6c-3.3-1.4-4.2-1.7-4.4-1.8c-0.1,0-0.1,0-0.2,0c-0.4,0-0.9,0-1.5,0
				c-1.4,0.1-2.4,0.1-2.8-0.1c-0.3-0.1-0.6-0.3-0.9-0.5c-0.2-0.1-0.4-0.2-0.6-0.4c-0.7-0.4-1.4-0.9-1.8-1h-0.1
				c-0.4,0-6.7-0.2-8.2-0.3c2.8,4.4,4.9,7.7,4.9,7.7l0.1,0.1l-0.1,0.1C152.7,189.8,149.4,195.4,146.9,199.2z"/>
		</g>
		<g>
			<path class="st10" d="M160.5,146.6c-2.4-0.2-3,2.2-11.1,4h-0.2c-6,1.3-12,2.9-15,3.7l-3.6-6.6l-6.7-12.3c2.8-0.5,5.3,0.8,5.7,1
				c0.5,0.2,3.2,0.7,7.7,0.6h0.7c1.4,2.3,4.6,7.4,4.7,7.4c0.1,0,7.8-2.2,11.3-3.2L160.5,146.6z"/>
			<path class="st6" d="M134.1,154.5l-10.4-19.3h0.2c2.5-0.5,4.6,0.5,5.5,0.9c0.1,0.1,0.2,0.1,0.3,0.1c0.5,0.2,3.1,0.7,7.7,0.6h0.8
				v0.1c2,3.3,4.2,6.9,4.6,7.3c0.5-0.1,4.6-1.3,7.9-2.2c1.3-0.4,2.4-0.7,3.4-0.9h0.1l6.9,5.7h-0.5c-1-0.1-1.6,0.3-2.7,0.9
				c-1.5,0.8-3.7,2-8.4,3.1h-0.2c-5.5,1.2-11.2,2.7-15,3.7L134.1,154.5z M124.2,135.5l10.1,18.6c3.8-1,9.4-2.5,14.9-3.7h0.2
				c4.6-1,6.8-2.2,8.3-3c0.9-0.5,1.6-0.9,2.4-0.9l-6-5c-0.9,0.3-2.1,0.6-3.3,0.9c-6.3,1.8-7.9,2.2-8,2.2s-0.3,0-4.8-7.4h-0.6
				c-4.6,0.1-7.3-0.5-7.8-0.6c-0.1,0-0.2-0.1-0.3-0.1C128.4,136,126.5,135.1,124.2,135.5z"/>
		</g>
		<g>
			<path class="st10" d="M154.1,141.2c-3.5,1-11.2,3.1-11.3,3.2s-3.3-5.1-4.7-7.4c2.7,0,5.3-0.3,7.9-0.6c0.5-0.2,1-0.4,1.4-0.6
				L154.1,141.2z"/>
			<path class="st6" d="M142.8,144.6c-0.2,0-0.5-0.5-4.9-7.5l-0.2-0.2h0.3c2.6,0,5.3-0.3,7.9-0.6c0.5-0.2,0.9-0.4,1.4-0.6l0.1-0.1
				l7,5.8l-0.3,0.1C150.5,142.4,142.9,144.5,142.8,144.6L142.8,144.6z M138.3,137.1c3.3,5.4,4.2,6.8,4.5,7.1
				c0.8-0.2,7.5-2.1,10.9-3.1l-6.3-5.3c-0.4,0.2-0.9,0.4-1.4,0.6C143.5,136.9,140.9,137.1,138.3,137.1z"/>
		</g>
		<g>
			<path class="st10" d="M171.3,148.4c-2.3-0.4-8.4-1.6-10.6-1.8h-0.2l0,0l-6.4-5.3l-6.7-5.6c0.4-0.2,0.8-0.4,1.3-0.6
				c1.3-0.5,6.1-0.3,6.8-0.1c0.6,0.2,2.2,0,2.4-0.2s5-0.1,6.4-0.6s2.9-3.1,2.9-3.1s0.2,3,0.6,4.5c0.6,2.6,1.4,5.2,2.3,7.8
				C170.6,145.1,171,146.7,171.3,148.4z"/>
			<path class="st6" d="M171.5,148.6h-0.2c-2.5-0.5-8.4-1.6-10.6-1.8h-0.3l0,0l-13.3-11.1l0.2-0.1c0.4-0.2,0.8-0.4,1.3-0.6
				c1.4-0.6,6.2-0.3,6.9-0.1c0.6,0.2,2,0,2.2-0.1c0.1-0.1,0.3-0.1,2-0.2c1.5-0.1,3.7-0.1,4.5-0.4c1.3-0.4,2.8-3,2.8-3l0.3-0.5v0.5
				c0,0,0.2,3,0.6,4.5c0.6,2.6,1.4,5.2,2.3,7.7c0.6,1.6,1,3.3,1.2,4.9L171.5,148.6z M160.6,146.4h0.2c2.1,0.2,7.8,1.3,10.4,1.8
				c-0.3-1.6-0.7-3.1-1.2-4.6c-0.9-2.5-1.7-5.2-2.3-7.8c-0.2-1.2-0.4-3.1-0.5-4c-0.5,0.8-1.7,2.4-2.7,2.7c-0.8,0.3-3,0.4-4.6,0.4
				c-0.8,0-1.6,0.1-1.8,0.1c-0.3,0.2-1.9,0.4-2.5,0.2c-0.7-0.2-5.4-0.4-6.7,0.1c-0.4,0.2-0.8,0.3-1.1,0.5L160.6,146.4z"/>
		</g>
		<g>
			<path class="st10" d="M171,159.9c-0.1,0.4-0.2,0.7-0.3,1.1c-1.2,0-3.6,0.4-6.9,2.4c-0.2,0.1-0.5,0.3-0.7,0.4l-0.5-10
				c2.2,0.2,5.9,0.6,7.9,0.8C170.2,156.4,171.4,157.6,171,159.9z"/>
			<path class="st6" d="M163,164.1l-0.5-10.5h0.2c2.2,0.2,5.9,0.6,7.9,0.8h0.2v0.2c-0.1,0.8,0,1.4,0.2,2.2s0.5,1.8,0.3,3l0,0
				c-0.1,0.4-0.2,0.8-0.3,1.1v0.1h-0.1c-1.1,0-3.5,0.4-6.8,2.4l-0.1,0.1c-0.2,0.1-0.4,0.2-0.5,0.3L163,164.1z M162.8,154l0.5,9.5
				c0.1-0.1,0.2-0.1,0.3-0.2l0.1-0.1c3.3-2,5.7-2.4,6.9-2.5c0.1-0.3,0.2-0.6,0.3-1c0.2-1.2,0-2-0.3-2.9c-0.2-0.7-0.4-1.4-0.3-2.1
				C168.4,154.6,165,154.3,162.8,154z"/>
		</g>
		<g>
			<path class="st10" d="M170.7,161c-0.7,1.7-2.3,3.1-3.4,3.7c-1.4,0.8-1.5,1.5-1,2.8c0.1,0.3,0.2,0.5,0.3,0.8
				c-0.6,0.4-1.8,1.2-2.5,1.7c-0.2,0.1-0.4,0.2-0.6,0.3c-0.7,0.3-1.5,0.6-1.4,0.2c0.1-0.5,0.4-1.8,0-1.6c-0.3,0.1-1.6,0.7-2.3,1.1
				l-0.1-0.2l0,0c-0.4-0.6-0.8-1.3-1.3-2.1c0.8-0.9,2.3-2.2,4.9-3.9c0.2-0.1,0.4-0.3,0.7-0.4C167.1,161.4,169.5,161,170.7,161z"/>
			<path class="st6" d="M162.2,170.9c-0.1,0-0.2,0-0.3-0.1s-0.1-0.2-0.1-0.3s0-0.2,0.1-0.3c0.1-0.3,0.2-0.9,0.1-1.1
				c-0.3,0.1-1,0.5-1.7,0.8l-0.8,0.4l-0.2-0.4c-0.3-0.6-0.8-1.3-1.3-2.1l-0.1-0.1l0.1-0.1c1.1-1.2,2.7-2.5,4.9-3.9
				c0.1-0.1,0.3-0.2,0.4-0.2l0.3-0.2c3.4-2.1,5.8-2.4,7-2.5h0.3l-0.1,0.2c-0.7,1.8-2.3,3.2-3.5,3.8c-1.4,0.8-1.4,1.5-0.9,2.6
				c0.1,0.2,0.2,0.5,0.3,0.8l0.1,0.1l-0.1,0.1c-0.6,0.4-1.8,1.2-2.6,1.7c-0.2,0.1-0.4,0.2-0.6,0.3h-0.1
				C162.9,170.7,162.5,170.9,162.2,170.9z M162.1,168.7c0.1,0,0.1,0,0.2,0.1c0.2,0.2,0.1,0.7,0,1.4c0,0.1,0,0.2-0.1,0.3l0,0
				c0.1,0.1,0.8-0.2,1.1-0.4h0.1c0.2-0.1,0.4-0.2,0.5-0.3c0.7-0.4,1.8-1.2,2.4-1.6c-0.1-0.3-0.2-0.5-0.3-0.7
				c-0.5-1.3-0.5-2.2,1.1-3.1c1.1-0.6,2.5-1.8,3.3-3.4c-1.2,0.1-3.5,0.5-6.5,2.4l-0.3,0.2c-0.1,0.1-0.3,0.2-0.4,0.2
				c-2.1,1.3-3.7,2.6-4.8,3.7c0.5,0.7,0.9,1.4,1.3,2l0.1,0.1l0.5-0.2c0.7-0.3,1.5-0.7,1.7-0.8C162,168.7,162.1,168.7,162.1,168.7z"
				/>
		</g>
		<g>
			<path class="st10" d="M169,179.2c-0.7-0.1-1.3-0.2-1.9-0.4c-0.4-0.1-2.5,0-3.5,0c0-1.5-0.1-4,0.3-5.1c0.1-0.3,0.2-0.6,0.2-1
				c0.1-0.9,0.1-1.8,0-2.7c0.8-0.5,2-1.3,2.5-1.7c0.8,2,1.4,4,1.7,6.1C168.6,176,168.8,177.6,169,179.2z"/>
			<path class="st6" d="M169.1,179.4h-0.2c-0.7-0.1-1.3-0.2-2-0.4c-0.3-0.1-2.2,0-3.4,0h-0.2v-0.2c0-0.3,0-0.5,0-0.8
				c0-1.5,0-3.4,0.3-4.4c0.1-0.3,0.2-0.6,0.2-0.9c0.1-0.9,0.1-1.8,0-2.7v-0.1l0.1-0.1c0.8-0.5,2-1.3,2.5-1.7l0.2-0.1l0.1,0.2
				c0.8,2,1.4,4,1.7,6.1c0.3,1.6,0.5,3.2,0.7,4.8L169.1,179.4z M165.9,178.6c0.6,0,1,0,1.2,0c0.6,0.2,1.2,0.3,1.7,0.4
				c-0.1-1.5-0.4-3.1-0.7-4.6c-0.3-2-0.9-4-1.6-5.8c-0.6,0.4-1.6,1.1-2.3,1.5c0.1,0.9,0.1,1.8,0,2.6c0,0.3-0.1,0.7-0.2,1
				c-0.3,0.9-0.3,2.8-0.3,4.3c0,0.2,0,0.4,0,0.7C164.3,178.7,165.2,178.6,165.9,178.6z"/>
		</g>
		<g>
			<path class="st10" d="M169.1,183c-0.1,0.9-0.3,1.9-0.6,2.7c-1.6-0.7-4.2-1.8-4.6-1.8c-0.1,0-0.1,0-0.2,0c0-0.8,0-1.8-0.2-2.1
				c-0.1-0.2-0.2-0.4-0.2-0.6c-0.1-0.4,0-1,0.2-1.2c0.1-0.1,0.1-0.6,0.1-1.2c1,0,3.1-0.1,3.5,0c0.6,0.2,1.3,0.3,1.9,0.4
				C169.1,180.9,169.1,182.2,169.1,183z"/>
			<path class="st6" d="M168.6,186l-0.6-0.3c-1.5-0.6-3.7-1.6-4.1-1.6c-0.1,0-0.1,0-0.2,0h-0.2v-0.2c0-1.6-0.1-2-0.2-2
				c-0.1-0.2-0.2-0.4-0.2-0.6c-0.1-0.5,0-1,0.2-1.3c0-0.1,0.1-0.4,0.1-1.1v-0.2h0.2c0.7,0,3.1-0.1,3.5,0c0.6,0.2,1.3,0.3,1.9,0.4
				h0.1v0.1c0.1,1.3,0.2,2.6,0.2,3.8l0,0c-0.1,1-0.3,1.9-0.6,2.8L168.6,186z M163.8,183.7C163.8,183.7,163.9,183.7,163.8,183.7
				c0.5,0.1,2.2,0.8,4.3,1.6l0.3,0.1c0.3-0.8,0.5-1.6,0.6-2.5c0-1.2-0.1-2.4-0.2-3.6c-0.6-0.1-1.2-0.2-1.8-0.4c-0.3,0-1.8,0-3.2,0
				c0,0.8,0,1.1-0.2,1.2c-0.1,0.1-0.2,0.6-0.1,1c0,0.2,0.1,0.4,0.2,0.5C163.7,181.8,163.8,182.1,163.8,183.7z"/>
		</g>
		<g>
			<path class="st10" d="M138.2,202.8c0,0.3-0.1,0.6-0.1,0.9l0,0c-1.9,0.3-4.5,0.6-8,1c-3.4,0.4-7.7,1.2-12.1,2
				c-0.1-0.5-0.1-1-0.1-1.2c-0.2-1.8-0.4-9.4-1.2-14.4l21.5-6.7C138.3,191.4,138.4,200.5,138.2,202.8z"/>
			<path class="st6" d="M117.9,207v-0.2c-0.1-0.5-0.1-1-0.1-1.2c-0.1-0.5-0.1-1.5-0.2-2.7c-0.2-3.2-0.4-8.1-1.1-11.7v-0.1l21.8-6.8
				v0.2c0.1,6.8,0.3,16.1,0.1,18.4c0,0.2-0.1,0.5-0.1,1v0.1h-0.1c-2,0.3-4.7,0.6-8,1c-3.2,0.4-7.2,1.1-12,2H117.9z M116.8,191.3
				c0.6,3.6,0.9,8.4,1,11.6c0.1,1.2,0.1,2.2,0.2,2.7c0,0.2,0.1,0.6,0.1,1c4.8-0.9,8.8-1.6,11.9-2c3.3-0.4,5.8-0.7,7.9-1
				c0.1-0.3,0.1-0.6,0.1-0.8l0,0c0.2-2.3,0.1-11.3-0.1-18.1L116.8,191.3z"/>
		</g>
		<g>
			<path class="st10" d="M138.1,184.5l-21.5,6.7c-0.2-1.2-0.5-2.4-1-3.6c-1.7-3.6-6-12.2-6-13.1c0-0.1,0-0.1,0-0.2
				c2-0.3,2.7-0.7,3.2-1.3c0.6-0.7,1.4-2,2.5-2s2.4,1.7,3.2,1.7c0.6,0,2.2-0.1,3.2-0.2c0.4,0.5,0.9,0.9,1.4,1.2
				c3.5,1.7,3.1,1.3,4.4,0.4s2.5-2,4.5-0.7c1.9,1.2,1.7,1.3,2,1c0.2-0.3,0.9-1,1.9,0.3c0.9,1.1,1.4,3.6,2.1,3.8
				C138,180.1,138,182.2,138.1,184.5z"/>
			<path class="st6" d="M116.5,191.4v-0.2c-0.2-1.2-0.5-2.4-1-3.5c-0.4-0.8-0.9-1.9-1.5-3.1c-2.6-5.3-4.6-9.4-4.6-10.1v-0.1v-0.2
				h0.2c2.1-0.3,2.7-0.8,3.1-1.2c0.1-0.1,0.2-0.2,0.3-0.3c0.6-0.7,1.3-1.7,2.3-1.7c0.6,0,1.3,0.5,1.9,1c0.5,0.4,1,0.8,1.3,0.8
				c0.6,0,2.3-0.1,3.2-0.2h0.1l0.1,0.1c0.4,0.5,0.8,0.9,1.3,1.2c2.9,1.4,3,1.3,3.7,0.7c0.1-0.1,0.3-0.2,0.4-0.3l0.1-0.1
				c1.2-0.9,2.6-1.9,4.5-0.6c0.6,0.4,1,0.7,1.3,0.9c0.2,0.1,0.3,0.2,0.4,0.2l0,0v-0.1c0.1-0.1,0.4-0.5,0.9-0.5
				c0.4,0,0.8,0.3,1.2,0.8s0.8,1.4,1.1,2.1c0.3,0.7,0.7,1.6,0.9,1.7h0.1v1.2c0,1.3,0.1,3,0.1,4.7v0.1h-0.1L116.5,191.4z
				 M109.8,174.5L109.8,174.5c0,0.7,2.7,6.3,4.5,10c0.6,1.2,1.1,2.3,1.5,3.1c0.5,1.1,0.8,2.3,0.9,3.4l21.2-6.6
				c0-1.7-0.1-3.3-0.1-4.6v-1c-0.4-0.2-0.7-0.9-1-1.8c-0.3-0.7-0.6-1.5-1-2c-0.4-0.4-0.7-0.7-1-0.7c-0.2,0-0.4,0.1-0.7,0.4l0,0
				c-0.2,0.3-0.3,0.2-0.8-0.1c-0.3-0.2-0.7-0.5-1.3-0.9c-1.8-1.1-3-0.2-4.2,0.6l-0.1,0.1c-0.2,0.1-0.3,0.2-0.4,0.3
				c-0.8,0.7-1.1,0.8-4.1-0.7c-0.5-0.3-1-0.7-1.4-1.2c-1.2,0.1-2.6,0.2-3.2,0.2c-0.5,0-1-0.4-1.5-0.8c-0.6-0.5-1.2-0.9-1.7-0.9
				c-0.8,0-1.5,0.9-2.1,1.5c-0.1,0.1-0.2,0.2-0.3,0.4C112.4,173.8,111.7,174.2,109.8,174.5z"/>
		</g>
		<g>
			<path class="st10" d="M152.6,189.6c0,0-3.4,5.7-5.9,9.6c-1.2,1.9-2.2,3.3-2.6,3.4c-0.7,0.2-1,0.4-6,1.1l0,0
				c0.1-0.4,0.1-0.7,0.1-0.9c0.2-2.3,0.1-11.4-0.1-18.3c-0.1-2.3-0.1-4.3-0.2-5.8c0.1,0,0.2,0,0.2,0c0.8-0.5,1.7-1.5,3.1-1
				c1.2,0.4,2.3,0.4,3.4-0.5c1,1.6,1.9,3.1,2.8,4.5C150.4,186.2,152.6,189.6,152.6,189.6z"/>
			<path class="st6" d="M137.9,203.9v-0.2c0.1-0.4,0.1-0.7,0.1-0.9c0.2-1.8,0.1-7.9-0.1-18.3c-0.1-2.3-0.1-4.3-0.2-5.8v-0.2h0.2h0.1
				c0.1-0.1,0.3-0.2,0.4-0.3c0.7-0.5,1.6-1.1,2.8-0.7c1.3,0.5,2.2,0.3,3.2-0.5l0.1-0.1l0.1,0.2c1,1.6,1.9,3.1,2.8,4.5
				c2.8,4.5,5,7.9,5,8l0.1,0.1l-0.1,0.1c0,0.1-3.4,5.8-5.9,9.6c-1.9,2.9-2.4,3.4-2.7,3.5l-0.2,0.1c-0.7,0.2-1.2,0.4-5.9,1
				L137.9,203.9z M138.1,178.8c0,1.5,0.1,3.4,0.1,5.6c0.2,10.4,0.3,16.6,0.1,18.4c0,0.2,0,0.4-0.1,0.7c4.4-0.6,5-0.8,5.6-1l0.2-0.1
				c0.1,0,0.6-0.4,2.5-3.3c2.3-3.6,5.4-8.8,5.8-9.5c-0.4-0.6-2.4-3.8-4.9-7.9c-0.9-1.4-1.8-2.9-2.7-4.4c-1,0.8-2.1,0.9-3.4,0.4
				c-1.1-0.4-1.8,0.2-2.5,0.6c-0.2,0.1-0.3,0.2-0.5,0.3C138.2,178.8,138.2,178.8,138.1,178.8z"/>
		</g>
		<g>
			<path class="st10" d="M144.7,177.1c-1.1,0.9-2.2,1-3.4,0.5c-1.4-0.5-2.3,0.5-3.1,1c-0.1,0-0.2,0.1-0.2,0
				c-0.7-0.2-1.2-2.7-2.1-3.8c-1-1.3-1.7-0.6-1.9-0.3s0,0.2-2-1s-3.3-0.2-4.5,0.7s-0.9,1.3-4.4-0.4c-0.5-0.3-1-0.7-1.4-1.2
				c-2.7-3.2-6.3-11.3-7.8-15.1l0.3-0.1l16.3-9.9l3.6,6.6l2.6,4.8c-1.8,0-1.9,0.7-1.9,1.7C134.9,161.3,140,169.6,144.7,177.1z"/>
			<path class="st6" d="M138,178.8h-0.1c-0.4-0.1-0.8-0.9-1.2-1.9c-0.3-0.7-0.6-1.5-1-2c-0.4-0.4-0.7-0.7-1-0.7l0,0
				c-0.2,0-0.4,0.1-0.7,0.4l0,0c-0.2,0.3-0.3,0.2-0.8-0.1c-0.3-0.2-0.7-0.5-1.3-0.9c-1.8-1.1-3-0.2-4.2,0.6l-0.1,0.1
				c-0.2,0.1-0.3,0.2-0.4,0.3c-0.8,0.7-1.1,0.8-4.1-0.7c-0.6-0.3-1.1-0.8-1.5-1.3c-2.8-3.3-6.4-11.7-7.9-15.1l-0.1-0.2l0.5-0.1
				l16.4-9.9l6.4,11.8h-0.3c-1.6,0-1.7,0.6-1.7,1.5c0,0.3,1.8,3.4,9.8,16.3l0.1,0.1l-0.1,0.1c-1.1,0.9-2.2,1-3.5,0.5
				c-1.1-0.4-1.8,0.2-2.5,0.6c-0.2,0.1-0.3,0.2-0.5,0.3C138.2,178.8,138.1,178.8,138,178.8z M134.7,173.9L134.7,173.9
				c0.4,0,0.8,0.3,1.3,0.8c0.4,0.5,0.8,1.4,1.1,2.1c0.3,0.7,0.7,1.6,0.9,1.7h0.1c0.1-0.1,0.3-0.2,0.4-0.3c0.7-0.5,1.6-1.1,2.8-0.7
				c1.2,0.4,2.2,0.3,3.1-0.4c-8.7-13.9-9.8-16-9.8-16.4c0-1,0.1-1.8,1.8-1.8l-6-11l-16.2,9.8H114c1.5,3.6,5,11.7,7.7,14.9
				c0.4,0.5,0.8,0.9,1.4,1.2c2.9,1.4,3,1.3,3.7,0.7c0.1-0.1,0.3-0.2,0.4-0.3l0.1-0.1c1.2-0.9,2.6-1.9,4.5-0.6
				c0.7,0.4,1.1,0.7,1.3,0.9c0.2,0.1,0.3,0.2,0.4,0.2l0,0v-0.1C134.1,174.1,134.4,173.9,134.7,173.9z"/>
		</g>
		<g>
			<path class="st10" d="M151.9,159.1c-3.1,0-13.3,0-14.9,0h-0.2l-2.6-4.8c3-0.8,9-2.4,15-3.7h0.2
				C149.8,152.3,150.8,156.7,151.9,159.1z"/>
			<path class="st6" d="M140.9,159.3c-1.9,0-3.4,0-3.9,0h-0.3l-2.7-5.1l0.2-0.1c3.8-1,9.5-2.5,15-3.7l0.4-0.1v0.2
				c0.4,1.8,1.4,6.2,2.5,8.5l0.1,0.2h-0.3c-0.9,0-2.4,0-4,0C145.7,159.3,143,159.3,140.9,159.3z M136.9,158.9h0.1
				c1.2,0,6.8,0,10.9,0c1.5,0,2.9,0,3.8,0c-1-2.3-2-6.4-2.4-8.2l0,0c-5.4,1.2-11,2.6-14.8,3.7L136.9,158.9z"/>
		</g>
		<g>
			<path class="st11" d="M170.5,154.6L170.5,154.6c-2-0.2-5.7-0.6-7.9-0.8c-1.1-0.1-1.8-0.2-1.9-0.2c-0.3-0.1-0.1-4.9,0-6.9
				c0-0.1,0-0.1,0-0.2c2.2,0.2,8.3,1.4,10.6,1.8c0.1,0.5,0.2,1.1,0.3,1.7C172,152.6,170.8,152.9,170.5,154.6z"/>
			<path class="st6" d="M170.7,154.9h-0.2c-2-0.2-5.6-0.6-7.9-0.8c-0.8-0.1-1.8-0.2-1.9-0.2c-0.2,0-0.4-0.1-0.2-7.1v-0.3h0.2
				c2.2,0.2,8.1,1.3,10.6,1.8h0.1v0.1c0.1,0.3,0.1,0.6,0.2,0.9c0,0.3,0.1,0.5,0.1,0.8c0.3,1.7-0.1,2.4-0.5,3.2
				c-0.2,0.4-0.5,0.8-0.6,1.4L170.7,154.9L170.7,154.9z M160.8,153.5c0.2,0,0.7,0.1,1.8,0.2c2.2,0.2,5.7,0.6,7.7,0.8
				c0.1-0.6,0.4-1,0.6-1.4c0.4-0.7,0.8-1.4,0.5-3c0-0.3-0.1-0.5-0.1-0.8s-0.1-0.5-0.1-0.8c-2.5-0.5-8-1.5-10.3-1.8
				C160.7,151.2,160.8,153.1,160.8,153.5z"/>
		</g>
		<g>
			<path class="st10" d="M158.2,167.7c-0.3,0.4-0.6,0.8-0.9,1.2c-0.2,0.3-0.5,3.8-0.7,7.1c-0.2,2.4-0.3,4.8-0.4,5.9h-0.1
				c-0.4,0-6.7-0.2-8.5-0.3c-0.9-1.4-1.9-3-2.8-4.5c-4.7-7.6-9.8-15.9-9.8-16.4c0-0.9,0.1-1.7,1.9-1.7h0.2c1.6,0,11.8,0,14.9,0
				c0.2,0.4,0.4,0.8,0.6,1.1C153.6,161.6,156.3,164.9,158.2,167.7z"/>
			<path class="st6" d="M156.3,182.2l-0.2-0.1c0,0,0,0-0.1,0c-0.4,0-7.2-0.2-8.5-0.3h-0.1v-0.1c-0.9-1.4-1.9-3-2.8-4.5
				c-9.9-15.8-9.9-16.3-9.9-16.5c0-1,0.2-1.8,2-1.8h0.2c1.2,0,6.8,0,10.9,0c1.7,0,3.1,0,4,0h0.1v0.1c0.2,0.4,0.4,0.7,0.6,1.1
				c1.2,1.4,3.8,4.8,5.7,7.5l0.1,0.1l-0.1,0.1c-0.3,0.4-0.6,0.8-0.9,1.2c0,0.1-0.2,0.9-0.7,7.1c-0.1,1.6-0.2,3.1-0.3,4.3
				c0,0.7-0.1,1.2-0.1,1.6L156.3,182.2z M147.6,181.5c2.2,0.1,7.8,0.3,8.4,0.3c0-0.4,0.1-0.9,0.1-1.4c0.1-1.2,0.2-2.7,0.3-4.3
				c0.5-6.7,0.7-7.1,0.7-7.2c0.2-0.4,0.5-0.8,0.8-1.2c-1.9-2.7-4.5-6-5.6-7.4c-0.3-0.3-0.5-0.7-0.6-1.1c-0.9,0-2.3,0-3.9,0
				c-4.1,0-9.7,0-10.9,0h-0.2c-1.6,0-1.7,0.6-1.7,1.5c0,0.3,1.4,2.8,9.8,16.3C145.8,178.6,146.8,180.1,147.6,181.5z"/>
		</g>
		<g>
			<path class="st10" d="M163.1,163.8c-2.6,1.7-4.1,3-4.9,3.9c-1.9-2.8-4.6-6.1-5.7-7.5c-0.3-0.3-0.5-0.7-0.6-1.1
				c-1.1-2.3-2.1-6.8-2.5-8.5c8.2-1.8,8.8-4.1,11.2-4l0,0l0.2,0.2c-0.1,2-0.2,6.8,0,6.9c0.1,0,0.8,0.1,1.9,0.2L163.1,163.8z"/>
			<path class="st6" d="M158.2,168l-0.1-0.2c-2-2.9-4.9-6.5-5.7-7.5c-0.3-0.4-0.5-0.7-0.7-1.1c-1.1-2.4-2.1-6.8-2.5-8.6v-0.2h0.2
				c4.7-1,6.9-2.3,8.3-3.1c1.1-0.6,1.8-1,2.9-0.9h0.1l0.3,0.3v0.1c-0.2,4.4-0.1,6.3,0,6.7c0.1,0,0.2,0,0.4,0c0.3,0,0.8,0.1,1.4,0.2
				h0.1l0.5,10.2l-0.1,0.1c-2.2,1.4-3.8,2.7-4.9,3.8L158.2,168z M149.5,150.7c0.4,1.9,1.4,6.1,2.5,8.4c0.2,0.4,0.4,0.7,0.6,1.1
				c0.8,1,3.6,4.4,5.6,7.3c1.1-1.2,2.7-2.4,4.7-3.7l-0.5-9.7c-0.5-0.1-0.9-0.1-1.2-0.1c-0.2,0-0.4-0.1-0.5-0.1l0,0
				c-0.2,0-0.4-0.1-0.2-7l-0.1-0.1c-0.9,0-1.6,0.3-2.7,0.9C156.3,148.4,154.1,149.6,149.5,150.7z"/>
		</g>
		<g>
			<path class="st10" d="M159.5,169.8L159.5,169.8c0,0.1-0.1,0.2-0.1,0.3c-0.1,0.6-0.2,1.7-0.3,3.1c-0.1,0.8-0.1,1.8-0.2,2.7
				l-2.4,0.1c0.3-3.3,0.6-6.8,0.7-7.1c0.2-0.4,0.5-0.9,0.9-1.2C158.7,168.4,159.2,169.1,159.5,169.8z"/>
			<path class="st6" d="M156.4,176.2V176c0.5-6.7,0.7-7.1,0.7-7.2c0.2-0.5,0.6-0.9,0.9-1.3l0.1-0.2l0.1,0.2c0.5,0.7,0.9,1.4,1.3,2.1
				v0.1v0.1c0,0.1-0.1,0.2-0.1,0.3c-0.1,0.5-0.2,1.5-0.3,3.1c-0.1,0.8-0.1,1.8-0.2,2.7v0.2L156.4,176.2z M158.2,167.9
				c-0.3,0.3-0.5,0.7-0.7,1c-0.1,0.1-0.2,1-0.7,6.9l2.1-0.1c0.1-0.9,0.1-1.8,0.2-2.6c0.1-1.7,0.2-2.7,0.3-3.2c0-0.1,0-0.2,0.1-0.3
				C159,169.2,158.6,168.5,158.2,167.9z"/>
		</g>
		<g>
			<path class="st10" d="M164,172.7c-0.4,0.1-1,0.2-1.4,0.4c-0.5,0.2-2.6,0.2-3.4,0.2c0.1-1.4,0.2-2.6,0.3-3.1l0.2-0.1
				c0.8-0.4,2-1,2.3-1.1c0.4-0.2,0.1,1.1,0,1.6s0.7,0.1,1.4-0.2c0.2-0.1,0.4-0.2,0.6-0.3C164.1,170.9,164.1,171.8,164,172.7z"/>
			<path class="st6" d="M160,173.4c-0.4,0-0.7,0-0.8,0H159v-0.2c0.1-1.7,0.2-2.7,0.3-3.2v-0.1l0.3-0.1c1.3-0.6,2.1-1,2.4-1.1
				c0.2-0.1,0.3,0,0.3,0c0.2,0.2,0.1,0.7,0,1.4c0,0.1,0,0.2-0.1,0.3l0,0c0.1,0.1,0.8-0.2,1.1-0.4h0.1c0.2-0.1,0.4-0.2,0.5-0.3
				l0.2-0.1v0.3c0.1,0.9,0.1,1.8,0,2.8v0.1H164c-0.4,0.1-1,0.2-1.4,0.4C162.2,173.4,160.9,173.4,160,173.4z M159.4,173.1
				c1.1,0,2.8,0,3.2-0.1s0.9-0.2,1.3-0.3c0.1-0.8,0.1-1.5,0-2.3c-0.1,0.1-0.2,0.1-0.3,0.2h-0.1c-0.8,0.3-1.2,0.5-1.5,0.3
				c-0.1-0.1-0.1-0.2-0.1-0.3s0-0.2,0.1-0.3c0.1-0.3,0.2-0.9,0.1-1.1c-0.3,0.1-1.1,0.5-2.3,1.1l-0.1,0.1
				C159.5,170.7,159.5,171.6,159.4,173.1z"/>
		</g>
		<g>
			<path class="st10" d="M163.6,183.9c-1,0-3.7,0.2-4.2,0c-0.3-0.1-0.6-0.3-0.8-0.5c0-0.6,0.1-1.3,0.1-2.2h4.6
				c0,0.2,0.1,0.4,0.2,0.6C163.6,182.1,163.6,183.1,163.6,183.9z"/>
			<path class="st6" d="M160.5,184.2c-0.5,0-0.9,0-1.1-0.1c-0.3-0.1-0.6-0.3-0.9-0.5l-0.1-0.1v-0.1c0-0.6,0.1-1.3,0.1-2.2V181h4.9
				v0.1c0,0.2,0.1,0.3,0.2,0.5c0.1,0.1,0.2,0.3,0.2,2.2v0.2h-0.2c-0.3,0-0.9,0-1.4,0C161.5,184.2,160.9,184.2,160.5,184.2z
				 M158.7,183.3c0.2,0.2,0.5,0.3,0.7,0.4c0.3,0.1,1.7,0.1,2.7,0c0.5,0,0.9,0,1.3,0c0-1.5-0.1-1.8-0.2-1.9c-0.1-0.2-0.1-0.3-0.2-0.5
				h-4.3C158.8,182.2,158.8,182.8,158.7,183.3z"/>
		</g>
		<g>
			<path class="st10" d="M159,176c-0.1,1.8-0.2,3.7-0.3,5.3c0,0.9-0.1,1.6-0.1,2.2c-0.8-0.5-1.9-1.3-2.4-1.4
				c0.1-1.1,0.2-3.5,0.4-5.9L159,176z"/>
			<path class="st6" d="M158.7,183.7l-0.2-0.2c-0.2-0.1-0.4-0.2-0.6-0.4c-0.7-0.4-1.4-0.9-1.8-1H156V182c0.1-1.1,0.2-3.4,0.4-5.9
				V176l2.7-0.1v0.2c-0.1,1.5-0.2,3.2-0.3,5.3c0,0.9-0.1,1.6-0.1,2.2L158.7,183.7z M156.4,181.9c0.4,0.2,1.1,0.6,1.7,1
				c0.1,0.1,0.2,0.1,0.3,0.2c0-0.5,0.1-1.2,0.1-1.9c0.1-2,0.2-3.7,0.3-5.1l-2.1,0.1C156.6,178.6,156.4,180.8,156.4,181.9z"/>
		</g>
		<g>
			<path class="st10" d="M163.8,173.7c-0.4,1.1-0.3,3.6-0.3,5.1c0,0.7,0,1.1-0.1,1.2c-0.2,0.2-0.3,0.7-0.2,1.2h-4.6
				c0.1-1.5,0.2-3.5,0.3-5.3c0.1-1,0.1-1.9,0.2-2.7c0.8,0,2.9,0,3.4-0.2c0.4-0.1,1-0.3,1.4-0.4C164,173.1,163.9,173.4,163.8,173.7z"
				/>
			<path class="st6" d="M163.5,181.4h-4.9v-0.2c0.1-2.1,0.2-3.8,0.3-5.3c0.1-1,0.1-1.9,0.2-2.7V173h0.4c0.9,0,2.7,0,3.2-0.1
				c0.4-0.1,0.9-0.3,1.4-0.4l0.2-0.1v0.2c0,0.3-0.1,0.7-0.2,1l0,0c-0.3,0.9-0.3,2.7-0.3,4.2c0,0.3,0,0.6,0,0.9c0,1-0.1,1.2-0.2,1.3
				c-0.1,0.1-0.2,0.6-0.1,1L163.5,181.4z M158.9,181.1h4.2c0-0.4,0-0.9,0.3-1.1c0,0,0.1-0.3,0.1-1.1c0-0.3,0-0.6,0-0.9
				c0-1.5,0-3.3,0.3-4.3c0.1-0.2,0.1-0.5,0.2-0.7c-0.4,0.1-0.9,0.2-1.2,0.3c-0.5,0.2-1.9,0.2-3.3,0.2h-0.1c-0.1,0.8-0.1,1.7-0.2,2.5
				C159.1,177.4,159,179.1,158.9,181.1z"/>
		</g>
	</g>
</g>
<g>
	<g>
		<g>
			<path class="st9" d="M999.4,161.5L999.4,161.5L999.4,161.5c0.6-2.4,1.2-4.8,2.4-6.6c4.2-7.2,6-15.6,4.2-24.1l-0.6-4.2
				c-0.6-1.8-0.6-3.6-1.2-6l0,0c-2.4-12.6-4.2-22.9-7.8-31.3c-5.4-15-10.2-30.1-13.8-45.1c-1.8-8.4-3-25.9-3-25.9
				c-0.6-4.8-4.2-8.4-9-7.8c-3,0-5.4,1.8-7.2,4.2c-4.2,6.6-10.2,13.8-12.6,15c-3.6,1.2-16.8,1.8-24.1,1.8
				c-9.6,0.6-13.2,0.6-15.6,1.8c-2.4,0.6-4.8,0.6-7.8,0c-4.8-1.2-35.5-3.6-46.3,0.6c-3.6,1.2-6,2.4-8.4,3.6l0,0l-2.4,1.2
				c-1.2,0.6-3,1.8-4.2,2.4c-15,1.8-30.7,3-46.3,3.6l0,0h-4.2c-25.9,0.6-41.5-2.4-43.3-3.6c-0.6,0-0.6-0.6-1.2-0.6
				c-5.4-2.4-19.9-9-37.3-6l0,0h-0.6l0,0h-1.2c-18.6,4.2-28.9,9-31.3,10.2c-3.6,1.2-30.7,10.2-42.1,13.8c-3-4.8-7.2-13.2-9.6-18.6
				c-8.4-16.8-10.2-19.2-12.6-21.1c-3-1.8-22.3-9-27.7-10.8c-27.7-9.6-28.9-9-32.5-6.6c-2.4,1.2-3,2.4-10.2,14.4
				c-6,10.2-22.3,37.3-27.7,40.9c-3,1.2-17.4,6.6-33.1,12.6c-19.9,7.8-45.1,17.4-65.6,25.3c-11.4,4.2-19.2,7.8-25.3,10.2
				c-3.6,1.2-6,2.4-7.8,3c-2.4,1.2-9,4.2-7.2,10.8c0.6,3,1.2,3.6,10.8,14.4c10.2,11.4,28.9,31.9,34.9,43.3c3,5.4,9,19.2,16.8,38.5
				l0,0c6,15,13.2,33.1,19.2,49.3l0,0c5.4,13.8,9,25.3,11.4,31.9c4.2,12.6,18.6,59,42.1,133.5l0,0l10.2,33.1l12,42.7l0,0l50.5,176.9
				c1.2,3.6,4.2,6,8.4,6c0.6,0,0.6,0,1.2,0l105.3-12.6h0.6h0.6l0,0l76.4-13.2l0,0h1.2h0.6l87.8-22.3c3-0.6,5.4-3,6-6
				c3-12,11.4-33.7,19.2-39.7c0.6-0.6,1.2-1.2,1.8-1.2c0,0,0.6-0.6,1.2-1.8l0,0c24.1-28.9,24.1-34.9,24.1-37.9v-1.8
				c0.6-29.5,4.8-39.1,6.6-42.1l0.6-1.2l0,0c6-8.4,10.2-18,12-28.3c2.4-11.4,3.6-19.2,4.2-22.3l0,0l0,0l0.6-2.4v-0.6
				c1.8-16.8,6.6-33.1,13.2-48.7c4.8-9.6,10.2-18.6,17.4-27.1c4.2-5.4,8.4-10.2,10.2-16.2c0.6-2.4,1.8-5.4,3-7.8
				c0.6-1.8,1.2-3,1.8-4.8l0,0c2.4-6,4.2-12.6,4.2-19.2c0-5.4,0-13.2-1.2-23.5l0,0c-1.2-10.2-2.4-19.9-4.2-30.1
				c-2.4-13.2-5.4-25.9-10.2-37.9l0,0l0,0c-0.6-1.8-1.2-3-1.8-4.8c-0.6-1.2-1.2-2.4-1.2-4.2c0,0,0.6-0.6,3-2.4
				c8.4-4.8,19.2-14.4,24.7-26.5l0,0c1.2-3,1.8-5.4,2.4-8.4c1.2-7.2,0.6-14.4-1.8-21.1C999.4,166.9,998.8,164.5,999.4,161.5z"/>
		</g>
		<g>
			<path class="st10" d="M698.1,268.6c-6,0.6-16.2,1.2-19.2,1.2c-5.4,0-12.6-10.2-19.2-10.2c-6.6,0-11.4,7.8-15,12
				c-3,3-7.2,6-19.2,7.8c-2.4,0.6-5.4,0.6-9,0.6c-19.2,1.2-25.9-7.8-37.3-9.6c-10.8-2.4-11.4,1.8-19.2,3.6
				c-7.2,1.8-12.6-8.4-32.5-18.6c-19.9-9.6-18-3-26.5-1.2c-9,2.4-22.9-10.8-24.7-10.2c-1.2,0.6-7.2,10.2-12,18
				c-6-15.6-12.6-33.7-19.2-49.3c12-1.8,38.5-5.4,85.4-13.2c59.6-9.6,110.1-18.6,120.9-20.5C660.2,200.6,681.2,249.3,698.1,268.6z"
				/>
			<path class="st6" d="M612.7,280.6c-10.8,0-17.4-3-22.9-6c-3.6-1.8-6.6-3-10.8-4.2c-7.2-1.2-9.6,0-12.6,1.2
				c-1.8,0.6-3.6,1.8-6,2.4c-4.2,1.2-7.8-1.8-13.8-6c-4.2-3.6-10.8-7.8-19.9-12.6c-14.4-7.2-16.8-5.4-20.5-3.6
				c-1.2,0.6-3,1.8-5.4,2.4c-6.6,1.8-15-4.2-20.5-7.8c-1.8-1.2-3.6-2.4-4.2-2.4c-0.6,0.6-3,3.6-11.4,17.4l-1.2,1.8l-0.6-1.8
				c-6-16.2-13.2-34.3-19.2-49.3l-0.6-1.2h1.2c12-1.8,38.5-5.4,85.4-13.2c62.6-10.2,114.9-19.2,120.9-20.5h0.6l0.6,0.6
				c8.4,20.5,30.7,71,46.9,90.8l1.2,1.8h-1.8c-6.6,0.6-16.2,1.2-19.2,1.2c-3,0-6-2.4-9-4.8c-3.6-3-7.2-5.4-10.2-5.4
				c-4.8,0-9,5.4-12,9c-0.6,0.6-1.2,1.8-1.8,2.4c-3,3.6-7.8,6.6-19.9,7.8c-2.4,0.6-5.4,0.6-9,0.6
				C615.1,280.6,613.9,280.6,612.7,280.6z M573,268c1.8,0,3.6,0,6,0.6c4.2,0.6,7.2,2.4,10.8,4.2c6,3,13.2,6.6,25.9,5.4
				c3.6,0,6.6-0.6,9-0.6c12.6-1.8,16.2-4.8,18.6-7.2c0.6-0.6,1.2-1.2,1.8-2.4c3.6-4.2,7.8-9.6,13.8-9.6c3.6,0,7.8,3,11.4,6
				c3,2.4,6,4.8,7.8,4.8c3,0,12.6-0.6,17.4-0.6c-16.2-20.5-37.3-68-45.7-89c-9,1.8-59.6,10.2-120.3,20.5
				c-45.7,7.2-72.2,11.4-84.2,13.2c6,14.4,12.6,31.3,18,46.3c9.6-16.2,10.8-16.2,11.4-16.8c1.2,0,2.4,0.6,6,3
				c4.8,3.6,13.2,9,18.6,7.8c2.4-0.6,3.6-1.2,4.8-2.4c4.8-2.4,7.8-3.6,22.3,3.6c9.6,4.8,15.6,9,20.5,12.6c5.4,4.2,8.4,6.6,12,5.4
				c2.4-0.6,4.2-1.2,5.4-1.8C567.5,268.6,569.3,268,573,268z"/>
		</g>
		<g>
			<path class="st10" d="M751,118.2l-98,59.6l-1.8,0.6c-10.8,1.8-61.4,10.8-120.9,20.5c-46.9,7.8-74,11.4-85.4,13.2
				c-7.2-17.4-13.8-33.1-17.4-39.7c-9.6-17.4-44.5-52.9-45.1-54.7c-0.6-1.8,124.5-48.7,134.1-52.9c9.6-4.2,36.7-54.7,39.1-55.9
				c1.8-1.2,48.7,15.6,51.7,17.4c3,1.8,21.1,42.7,24.1,42.7s46.9-14.4,49.3-15.6c2.4-1.2,11.4-5.4,29.5-9.6c0.6,0,0.6,0,1.2,0
				L751,118.2z"/>
			<path class="st6" d="M443.6,212.6V212c-5.4-13.8-13.2-31.9-17.4-39.1c-6.6-11.4-24.7-31.9-36.1-44.5c-7.8-9-9-10.2-9-10.8
				c0-1.2-0.6-1.8,101.1-40.9c17.4-6.6,30.7-12,33.7-13.2c6.6-3,22.3-29.5,31.3-43.9c5.4-9,6.6-11.4,7.8-12
				c3-1.8,52.3,17.4,52.3,17.4c1.2,0.6,4.2,6,10.2,18c4.8,9.6,12,23.5,13.8,24.7c3,0,46.3-14.4,48.7-15.6c1.2-0.6,10.8-5.4,29.5-9.6
				c0.6,0,1.2,0,1.2,0h0.6l40.9,75.8L653,178.4l-1.8,0.6c-2.4,0.6-55.9,9.6-120.9,20.5c-46.9,7.8-74,11.4-85.4,13.2L443.6,212.6z
				 M383.5,117.6c1.2,1.2,4.8,5.4,8.4,9.6c10.8,12,29.5,33.1,36.1,44.5c4.2,7.2,11.4,25.3,16.8,39.1c12-1.8,38.5-5.4,84.8-13.2
				c65-10.8,118.5-19.9,120.9-20.5l1.8-0.6l96.8-59l-39.1-72.8h-0.6c-18.6,4.2-28.3,9-29.5,9c-1.8,1.2-46.3,15.6-49.9,15.6
				c-2.4,0-5.4-6-15-25.3c-4.2-7.8-8.4-16.2-9.6-17.4c-3-1.8-46.3-17.4-50.5-17.4c-0.6,0.6-3.6,6-6.6,10.8
				c-12.6,21.1-25.3,42.1-31.9,44.5c-3,1.2-16.2,6.6-33.7,13.2C447.8,91.7,390.1,114,383.5,117.6z"/>
		</g>
		<g>
			<path class="st10" d="M666.8,379.9L517,426.8c-13.2-43.3-36.1-116.1-42.1-133.5c-2.4-7.2-6.6-19.2-12-32.5
				c4.8-7.8,10.8-17.4,12-18c1.8-0.6,15.6,12.6,24.7,10.2c9-2.4,6.6-8.4,26.5,1.2c19.9,9.6,25.3,19.9,32.5,18.6
				c7.2-1.8,7.8-5.4,19.2-3.6c10.8,2.4,17.4,10.8,37.3,9.6c3.6,0,6.6-0.6,9-0.6c0,0.6,0,0.6,0,1.2c0,5.4,25.9,57.1,36.1,78.8
				C664.4,365.4,666.2,372.6,666.8,379.9z"/>
			<path class="st6" d="M516.4,428v-1.2c-8.4-26.5-35.5-114.3-42.1-133.5c-2.4-7.2-6.6-19.2-12-32.5v-0.6v-0.6
				c10.8-18,12-18,12.6-18.6c1.2,0,2.4,0.6,6,3c4.8,3,13.2,9,18.6,7.2c2.4-0.6,3.6-1.2,4.8-2.4c4.8-2.4,7.8-3.6,22.3,3.6
				c9.6,4.8,15.6,9,20.5,12.6c5.4,4.2,8.4,6.6,12,5.4c2.4-0.6,4.2-1.2,5.4-1.8c3.6-1.8,6-3,13.8-1.2c4.2,0.6,7.2,2.4,10.8,4.2
				c6,3,13.2,6.6,25.9,5.4c3.6,0,6.6-0.6,9-0.6h0.6v0.6c0,0.6,0,1.2,0,1.2c0,4.2,16.8,39.1,28.3,62.6c3,6,5.4,11.4,7.8,15.6
				c3,7.2,4.8,14.4,6,21.7v0.6h-0.6L516.4,428z M464.7,260.8c4.8,13.2,9,24.7,11.4,31.9c6.6,19.2,33.1,105.3,41.5,132.9l148-46.3
				c-1.2-7.2-3-13.8-5.4-20.5c-1.8-4.2-4.8-9.6-7.8-15.6c-15.6-31.9-28.9-59-28.9-63.2l0,0c-2.4,0-4.8,0.6-7.8,0.6
				c-12.6,0.6-20.5-3-26.5-6c-3.6-1.8-6.6-3-10.8-4.2c-7.2-1.2-9.6,0-12.6,1.2c-1.8,0.6-3.6,1.8-6,2.4c-4.2,1.2-7.8-1.8-13.8-6
				c-4.2-3.6-10.8-7.8-19.9-12.6c-14.4-7.2-16.8-5.4-20.5-3.6c-1.2,0.6-3,1.8-5.4,2.4c-6.6,1.8-15-4.2-20.5-7.8
				c-1.8-1.2-3.6-2.4-4.2-2.4C475.5,244.5,473.1,247.5,464.7,260.8z"/>
		</g>
		<g>
			<path class="st10" d="M979,347.4c-1.8,4.2-3,8.4-4.8,12.6c-3.6,10.2-15.6,18-27.1,42.1c-7.2,16.2-12,33.7-14.4,51.1
				c0,0,0,0.6-0.6,2.4c-13.2-3.6-49.3-12.6-57.1-15c-6.6-2.4-20.5-9-27.7-12c15-23.5,35.5-57.7,35.5-57.7s-13.2-20.5-30.1-48.1
				c10.8,0.6,48.7,1.8,51.1,1.8h0.6c3,0.6,9.6,5.4,14.4,8.4c1.8,1.2,3.6,1.8,5.4,3c3.6,1.2,19.9,0,25.3,0c0.6,0,0.6,0,1.2,0
				C953.7,336.6,969.4,343.2,979,347.4z"/>
			<path class="st6" d="M933.3,456.9h-1.2c-31.9-8.4-51.7-13.8-57.1-15c-7.2-2.4-21.7-9.6-27.7-12.6l-1.2-0.6l0.6-1.2
				c13.8-21.7,32.5-52.9,34.9-57.1c-2.4-3.6-14.4-22.9-30.1-47.5l-1.2-1.8h1.8c18,0.6,48.7,1.8,51.1,1.8c0.6,0,0.6,0,1.2,0
				c2.4,0.6,6.6,3.6,10.8,6.6c1.2,0.6,2.4,1.8,3.6,2.4c1.8,1.2,3,1.8,4.8,3c1.8,0.6,9.6,0.6,15.6,0c3.6,0,7.2-0.6,9,0
				c0.6,0,0.6,0,1.2,0c2.4,0,11.4,3.6,28.3,10.8l0.6,0.6l-0.6,0.6c-0.6,1.8-1.2,3-1.8,4.8c-1.2,2.4-1.8,5.4-3,8.4
				c-1.8,4.8-4.8,8.4-9,13.8c-5.4,6.6-12,15-18,28.9c-7.2,16.2-12,33.7-13.8,51.1c0,0,0,0.6-0.6,2.4L933.3,456.9z M849.1,428
				c6.6,3,19.9,9.6,26.5,12c5.4,1.8,24.7,6.6,55.9,15c0-0.6,0-1.2,0-1.2c2.4-18,7.2-34.9,14.4-51.7c6.6-13.8,13.2-22.3,18.6-28.9
				c4.2-4.8,7.2-9,8.4-13.2c1.2-3,1.8-5.4,3-8.4c0.6-1.2,1.2-2.4,1.2-3.6c-19.9-8.4-25.3-10.2-26.5-10.8c-0.6,0-0.6,0-1.2,0
				c-2.4,0-5.4,0-9,0c-8.4,0.6-14.4,0.6-16.8-0.6c-1.8-0.6-3.6-1.8-5.4-3c-1.2-0.6-2.4-1.2-3.6-2.4c-4.2-2.4-8.4-5.4-10.8-6h-0.6
				c-2.4,0-40.3-1.2-49.3-1.8c16.8,26.5,29.5,46.3,29.5,46.3l0.6,0.6l-0.6,0.6C883.9,371.4,864.1,405.1,849.1,428z"/>
		</g>
		<g>
			<path class="st10" d="M930.9,111.6c-14.4-1.2-18,13.2-66.8,24.1h-1.2c-36.1,7.8-72.2,17.4-90.2,22.3L751,118.2l-40.3-74
				c16.8-3,31.9,4.8,34.3,6c3,1.2,19.2,4.2,46.3,3.6h4.2c8.4,13.8,27.7,44.5,28.3,44.5c0.6,0,46.9-13.2,68-19.2L930.9,111.6z"/>
			<path class="st6" d="M772.1,159.1L709.5,43h1.2c15-3,27.7,3,33.1,5.4c0.6,0.6,1.2,0.6,1.8,0.6c3,1.2,18.6,4.2,46.3,3.6h4.8v0.6
				c12,19.9,25.3,41.5,27.7,43.9c3-0.6,27.7-7.8,47.5-13.2c7.8-2.4,14.4-4.2,20.5-5.4h0.6l41.5,34.3h-3c-6-0.6-9.6,1.8-16.2,5.4
				c-9,4.8-22.3,12-50.5,18.6h-1.2c-33.1,7.2-67.4,16.2-90.2,22.3L772.1,159.1z M712.5,44.8l60.8,111.9c22.9-6,56.5-15,89.6-22.3
				h1.2c27.7-6,40.9-13.2,49.9-18c5.4-3,9.6-5.4,14.4-5.4l-36.1-30.1c-5.4,1.8-12.6,3.6-19.9,5.4c-37.9,10.8-47.5,13.2-48.1,13.2
				c-0.6,0-1.8,0-28.9-44.5h-3.6c-27.7,0.6-43.9-3-46.9-3.6c-0.6,0-1.2-0.6-1.8-0.6C737.8,47.8,726.3,42.4,712.5,44.8z"/>
		</g>
		<g>
			<path class="st10" d="M892.4,79.1c-21.1,6-67.4,18.6-68,19.2s-19.9-30.7-28.3-44.5c16.2,0,31.9-1.8,47.5-3.6c3-1.2,6-2.4,8.4-3.6
				L892.4,79.1z"/>
			<path class="st6" d="M824.4,99.6c-1.2,0-3-3-29.5-45.1l-1.2-1.2h1.8c15.6,0,31.9-1.8,47.5-3.6c3-1.2,5.4-2.4,8.4-3.6l0.6-0.6
				l42.1,34.9l-1.8,0.6C870.7,86.3,825,99,824.4,99.6L824.4,99.6z M797.3,54.4c19.9,32.5,25.3,40.9,27.1,42.7
				c4.8-1.2,45.1-12.6,65.6-18.6l-37.9-31.9c-2.4,1.2-5.4,2.4-8.4,3.6C828.6,53.2,813,54.4,797.3,54.4z"/>
		</g>
		<g>
			<path class="st10" d="M995.8,122.4c-13.8-2.4-50.5-9.6-63.8-10.8h-1.2l0,0l-38.5-31.9L852.1,46c2.4-1.2,4.8-2.4,7.8-3.6
				c7.8-3,36.7-1.8,40.9-0.6c3.6,1.2,13.2,0,14.4-1.2c1.2-1.2,30.1-0.6,38.5-3.6c8.4-3,17.4-18.6,17.4-18.6s1.2,18,3.6,27.1
				c3.6,15.6,8.4,31.3,13.8,46.9C991.6,102.6,994,112.2,995.8,122.4z"/>
			<path class="st6" d="M997,123.6h-1.2c-15-3-50.5-9.6-63.8-10.8h-1.8l0,0l-80-66.8l1.2-0.6c2.4-1.2,4.8-2.4,7.8-3.6
				c8.4-3.6,37.3-1.8,41.5-0.6c3.6,1.2,12,0,13.2-0.6c0.6-0.6,1.8-0.6,12-1.2c9-0.6,22.3-0.6,27.1-2.4c7.8-2.4,16.8-18,16.8-18
				l1.8-3v3c0,0,1.2,18,3.6,27.1c3.6,15.6,8.4,31.3,13.8,46.3c3.6,9.6,6,19.9,7.2,29.5L997,123.6z M931.5,110.4h1.2
				c12.6,1.2,46.9,7.8,62.6,10.8c-1.8-9.6-4.2-18.6-7.2-27.7c-5.4-15-10.2-31.3-13.8-46.9c-1.2-7.2-2.4-18.6-3-24.1
				c-3,4.8-10.2,14.4-16.2,16.2c-4.8,1.8-18,2.4-27.7,2.4c-4.8,0-9.6,0.6-10.8,0.6c-1.8,1.2-11.4,2.4-15,1.2
				c-4.2-1.2-32.5-2.4-40.3,0.6c-2.4,1.2-4.8,1.8-6.6,3L931.5,110.4z"/>
		</g>
		<g>
			<path class="st10" d="M994,191.6c-0.6,2.4-1.2,4.2-1.8,6.6c-7.2,0-21.7,2.4-41.5,14.4c-1.2,0.6-3,1.8-4.2,2.4l-3-60.2
				c13.2,1.2,35.5,3.6,47.5,4.8C989.2,170.5,996.4,177.8,994,191.6z"/>
			<path class="st6" d="M945.9,216.9l-3-63.2h1.2c13.2,1.2,35.5,3.6,47.5,4.8h1.2v1.2c-0.6,4.8,0,8.4,1.2,13.2
				c1.2,4.8,3,10.8,1.8,18l0,0c-0.6,2.4-1.2,4.8-1.8,6.6v0.6h-0.6c-6.6,0-21.1,2.4-40.9,14.4l-0.6,0.6c-1.2,0.6-2.4,1.2-3,1.8
				L945.9,216.9z M944.7,156.1l3,57.1c0.6-0.6,1.2-0.6,1.8-1.2l0.6-0.6c19.9-12,34.3-14.4,41.5-15c0.6-1.8,1.2-3.6,1.8-6
				c1.2-7.2,0-12-1.8-17.4c-1.2-4.2-2.4-8.4-1.8-12.6C978.4,159.7,957.9,157.9,944.7,156.1z"/>
		</g>
		<g>
			<path class="st10" d="M992.2,198.2c-4.2,10.2-13.8,18.6-20.5,22.3c-8.4,4.8-9,9-6,16.8c0.6,1.8,1.2,3,1.8,4.8
				c-3.6,2.4-10.8,7.2-15,10.2c-1.2,0.6-2.4,1.2-3.6,1.8c-4.2,1.8-9,3.6-8.4,1.2c0.6-3,2.4-10.8,0-9.6c-1.8,0.6-9.6,4.2-13.8,6.6
				l-0.6-1.2l0,0c-2.4-3.6-4.8-7.8-7.8-12.6c4.8-5.4,13.8-13.2,29.5-23.5c1.2-0.6,2.4-1.8,4.2-2.4
				C970.6,200.6,985,198.2,992.2,198.2z"/>
			<path class="st6" d="M941.1,257.8c-0.6,0-1.2,0-1.8-0.6c-0.6-0.6-0.6-1.2-0.6-1.8c0-0.6,0-1.2,0.6-1.8c0.6-1.8,1.2-5.4,0.6-6.6
				c-1.8,0.6-6,3-10.2,4.8l-4.8,2.4l-1.2-2.4c-1.8-3.6-4.8-7.8-7.8-12.6l-0.6-0.6l0.6-0.6c6.6-7.2,16.2-15,29.5-23.5
				c0.6-0.6,1.8-1.2,2.4-1.2l1.8-1.2c20.5-12.6,34.9-14.4,42.1-15h1.8l-0.6,1.2c-4.2,10.8-13.8,19.2-21.1,22.9
				c-8.4,4.8-8.4,9-5.4,15.6c0.6,1.2,1.2,3,1.8,4.8l0.6,0.6l-0.6,0.6c-3.6,2.4-10.8,7.2-15.6,10.2c-1.2,0.6-2.4,1.2-3.6,1.8h-0.6
				C945.3,256.6,942.9,257.8,941.1,257.8z M940.5,244.5c0.6,0,0.6,0,1.2,0.6c1.2,1.2,0.6,4.2,0,8.4c0,0.6,0,1.2-0.6,1.8l0,0
				c0.6,0.6,4.8-1.2,6.6-2.4h0.6c1.2-0.6,2.4-1.2,3-1.8c4.2-2.4,10.8-7.2,14.4-9.6c-0.6-1.8-1.2-3-1.8-4.2c-3-7.8-3-13.2,6.6-18.6
				c6.6-3.6,15-10.8,19.9-20.5c-7.2,0.6-21.1,3-39.1,14.4l-1.8,1.2c-0.6,0.6-1.8,1.2-2.4,1.2c-12.6,7.8-22.3,15.6-28.9,22.3
				c3,4.2,5.4,8.4,7.8,12l0.6,0.6l3-1.2c4.2-1.8,9-4.2,10.2-4.8C939.9,244.5,940.5,244.5,940.5,244.5z"/>
		</g>
		<g>
			<path class="st10" d="M982,307.7c-4.2-0.6-7.8-1.2-11.4-2.4c-2.4-0.6-15,0-21.1,0c0-9-0.6-24.1,1.8-30.7c0.6-1.8,1.2-3.6,1.2-6
				c0.6-5.4,0.6-10.8,0-16.2c4.8-3,12-7.8,15-10.2c4.8,12,8.4,24.1,10.2,36.7C979.6,288.4,980.8,298.1,982,307.7z"/>
			<path class="st6" d="M982.6,308.9h-1.2c-4.2-0.6-7.8-1.2-12-2.4c-1.8-0.6-13.2,0-20.5,0h-1.2v-1.2c0-1.8,0-3,0-4.8
				c0-9,0-20.5,1.8-26.5c0.6-1.8,1.2-3.6,1.2-5.4c0.6-5.4,0.6-10.8,0-16.2v-0.6l0.6-0.6c4.8-3,12-7.8,15-10.2l1.2-0.6l0.6,1.2
				c4.8,12,8.4,24.1,10.2,36.7c1.8,9.6,3,19.2,4.2,28.9L982.6,308.9z M963.4,304.1c3.6,0,6,0,7.2,0c3.6,1.2,7.2,1.8,10.2,2.4
				c-0.6-9-2.4-18.6-4.2-27.7c-1.8-12-5.4-24.1-9.6-34.9c-3.6,2.4-9.6,6.6-13.8,9c0.6,5.4,0.6,10.8,0,15.6c0,1.8-0.6,4.2-1.2,6
				c-1.8,5.4-1.8,16.8-1.8,25.9c0,1.2,0,2.4,0,4.2C953.7,304.7,959.1,304.1,963.4,304.1z"/>
		</g>
		<g>
			<path class="st10" d="M982.6,330.5c-0.6,5.4-1.8,11.4-3.6,16.2c-9.6-4.2-25.3-10.8-27.7-10.8c-0.6,0-0.6,0-1.2,0
				c0-4.8,0-10.8-1.2-12.6c-0.6-1.2-1.2-2.4-1.2-3.6c-0.6-2.4,0-6,1.2-7.2c0.6-0.6,0.6-3.6,0.6-7.2c6,0,18.6-0.6,21.1,0
				c3.6,1.2,7.8,1.8,11.4,2.4C982.6,317.9,982.6,325.7,982.6,330.5z"/>
			<path class="st6" d="M979.6,348.6l-3.6-1.8c-9-3.6-22.3-9.6-24.7-9.6c-0.6,0-0.6,0-1.2,0h-1.2V336c0-9.6-0.6-12-1.2-12
				c-0.6-1.2-1.2-2.4-1.2-3.6c-0.6-3,0-6,1.2-7.8c0-0.6,0.6-2.4,0.6-6.6v-1.2h1.2c4.2,0,18.6-0.6,21.1,0c3.6,1.2,7.8,1.8,11.4,2.4
				h0.6v0.6c0.6,7.8,1.2,15.6,1.2,22.9l0,0c-0.6,6-1.8,11.4-3.6,16.8L979.6,348.6z M950.7,334.8
				C950.7,334.8,951.3,334.8,950.7,334.8c3,0.6,13.2,4.8,25.9,9.6l1.8,0.6c1.8-4.8,3-9.6,3.6-15c0-7.2-0.6-14.4-1.2-21.7
				c-3.6-0.6-7.2-1.2-10.8-2.4c-1.8,0-10.8,0-19.2,0c0,4.8,0,6.6-1.2,7.2c-0.6,0.6-1.2,3.6-0.6,6c0,1.2,0.6,2.4,1.2,3
				C950.1,323.3,950.7,325.1,950.7,334.8z"/>
		</g>
		<g>
			<path class="st10" d="M796.7,449.6c0,1.8-0.6,3.6-0.6,5.4l0,0c-11.4,1.8-27.1,3.6-48.1,6c-20.5,2.4-46.3,7.2-72.8,12
				c-0.6-3-0.6-6-0.6-7.2c-1.2-10.8-2.4-56.5-7.2-86.6L796.7,339C797.3,381.1,797.9,435.8,796.7,449.6z"/>
			<path class="st6" d="M674.6,474.9v-1.2c-0.6-3-0.6-6-0.6-7.2c-0.6-3-0.6-9-1.2-16.2c-1.2-19.2-2.4-48.7-6.6-70.4v-0.6l131.1-40.9
				v1.2c0.6,40.9,1.8,96.8,0.6,110.7c0,1.2-0.6,3-0.6,6v0.6h-0.6c-12,1.8-28.3,3.6-48.1,6c-19.2,2.4-43.3,6.6-72.2,12H674.6z
				 M668,380.5c3.6,21.7,5.4,50.5,6,69.8c0.6,7.2,0.6,13.2,1.2,16.2c0,1.2,0.6,3.6,0.6,6c28.9-5.4,52.9-9.6,71.6-12
				c19.9-2.4,34.9-4.2,47.5-6c0.6-1.8,0.6-3.6,0.6-4.8l0,0c1.2-13.8,0.6-68-0.6-108.9L668,380.5z"/>
		</g>
		<g>
			<path class="st10" d="M796.1,339.6l-129.3,40.3c-1.2-7.2-3-14.4-6-21.7c-10.2-21.7-36.1-73.4-36.1-78.8c0-0.6,0-0.6,0-1.2
				c12-1.8,16.2-4.2,19.2-7.8c3.6-4.2,8.4-12,15-12c6.6,0,14.4,10.2,19.2,10.2c3.6,0,13.2-0.6,19.2-1.2c2.4,3,5.4,5.4,8.4,7.2
				c21.1,10.2,18.6,7.8,26.5,2.4c7.8-5.4,15-12,27.1-4.2c11.4,7.2,10.2,7.8,12,6c1.2-1.8,5.4-6,11.4,1.8c5.4,6.6,8.4,21.7,12.6,22.9
				C795.5,313.1,795.5,325.7,796.1,339.6z"/>
			<path class="st6" d="M666.2,381.1v-1.2c-1.2-7.2-3-14.4-6-21.1c-2.4-4.8-5.4-11.4-9-18.6c-15.6-31.9-27.7-56.5-27.7-60.8v-0.6
				v-1.2h1.2c12.6-1.8,16.2-4.8,18.6-7.2c0.6-0.6,1.2-1.2,1.8-1.8c3.6-4.2,7.8-10.2,13.8-10.2c3.6,0,7.8,3,11.4,6
				c3,2.4,6,4.8,7.8,4.8c3.6,0,13.8-0.6,19.2-1.2h0.6l0.6,0.6c2.4,3,4.8,5.4,7.8,7.2c17.4,8.4,18,7.8,22.3,4.2
				c0.6-0.6,1.8-1.2,2.4-1.8l0.6-0.6c7.2-5.4,15.6-11.4,27.1-3.6c3.6,2.4,6,4.2,7.8,5.4c1.2,0.6,1.8,1.2,2.4,1.2l0,0V280
				c0.6-0.6,2.4-3,5.4-3c2.4,0,4.8,1.8,7.2,4.8c2.4,3,4.8,8.4,6.6,12.6c1.8,4.2,4.2,9.6,5.4,10.2h0.6v7.2c0,7.8,0.6,18,0.6,28.3v0.6
				h-0.6L666.2,381.1z M625.9,279.4L625.9,279.4c0,4.2,16.2,37.9,27.1,60.2c3.6,7.2,6.6,13.8,9,18.6c3,6.6,4.8,13.8,5.4,20.5
				L794.9,339c0-10.2-0.6-19.9-0.6-27.7v-6c-2.4-1.2-4.2-5.4-6-10.8c-1.8-4.2-3.6-9-6-12c-2.4-2.4-4.2-4.2-6-4.2
				c-1.2,0-2.4,0.6-4.2,2.4l0,0c-1.2,1.8-1.8,1.2-4.8-0.6c-1.8-1.2-4.2-3-7.8-5.4c-10.8-6.6-18-1.2-25.3,3.6l-0.6,0.6
				c-1.2,0.6-1.8,1.2-2.4,1.8c-4.8,4.2-6.6,4.8-24.7-4.2c-3-1.8-6-4.2-8.4-7.2c-7.2,0.6-15.6,1.2-19.2,1.2c-3,0-6-2.4-9-4.8
				c-3.6-3-7.2-5.4-10.2-5.4c-4.8,0-9,5.4-12.6,9c-0.6,0.6-1.2,1.2-1.8,2.4C641.5,275.2,637.3,277.6,625.9,279.4z"/>
		</g>
		<g>
			<path class="st10" d="M883.3,370.2c0,0-20.5,34.3-35.5,57.7c-7.2,11.4-13.2,19.9-15.6,20.5c-4.2,1.2-6,2.4-36.1,6.6l0,0
				c0.6-2.4,0.6-4.2,0.6-5.4c1.2-13.8,0.6-68.6-0.6-110.1c-0.6-13.8-0.6-25.9-1.2-34.9c0.6,0,1.2,0,1.2,0c4.8-3,10.2-9,18.6-6
				c7.2,2.4,13.8,2.4,20.5-3c6,9.6,11.4,18.6,16.8,27.1C870.1,349.8,883.3,370.2,883.3,370.2z"/>
			<path class="st6" d="M794.9,456.3v-1.2c0.6-2.4,0.6-4.2,0.6-5.4c1.2-10.8,0.6-47.5-0.6-110.1c-0.6-13.8-0.6-25.9-1.2-34.9v-1.2
				h1.2h0.6c0.6-0.6,1.8-1.2,2.4-1.8c4.2-3,9.6-6.6,16.8-4.2c7.8,3,13.2,1.8,19.2-3l0.6-0.6l0.6,1.2c6,9.6,11.4,18.6,16.8,27.1
				c16.8,27.1,30.1,47.5,30.1,48.1l0.6,0.6l-0.6,0.6c0,0.6-20.5,34.9-35.5,57.7c-11.4,17.4-14.4,20.5-16.2,21.1l-1.2,0.6
				c-4.2,1.2-7.2,2.4-35.5,6L794.9,456.3z M796.1,305.3c0,9,0.6,20.5,0.6,33.7c1.2,62.6,1.8,99.9,0.6,110.7c0,1.2,0,2.4-0.6,4.2
				c26.5-3.6,30.1-4.8,33.7-6l1.2-0.6c0.6,0,3.6-2.4,15-19.9c13.8-21.7,32.5-52.9,34.9-57.1c-2.4-3.6-14.4-22.9-29.5-47.5
				c-5.4-8.4-10.8-17.4-16.2-26.5c-6,4.8-12.6,5.4-20.5,2.4c-6.6-2.4-10.8,1.2-15,3.6c-1.2,0.6-1.8,1.2-3,1.8
				C796.7,305.3,796.7,305.3,796.1,305.3z"/>
		</g>
		<g>
			<path class="st10" d="M835.8,295.1c-6.6,5.4-13.2,6-20.5,3c-8.4-3-13.8,3-18.6,6c-0.6,0-1.2,0.6-1.2,0
				c-4.2-1.2-7.2-16.2-12.6-22.9c-6-7.8-10.2-3.6-11.4-1.8c-1.2,1.8,0,1.2-12-6c-12-7.2-19.9-1.2-27.1,4.2
				c-7.2,5.4-5.4,7.8-26.5-2.4c-3-1.8-6-4.2-8.4-7.2c-16.2-19.2-37.9-68-46.9-90.8l1.8-0.6l98-59.6l21.7,39.7l15.6,28.9
				c-10.8,0-11.4,4.2-11.4,10.2C776.9,200,807.6,249.9,835.8,295.1z"/>
			<path class="st6" d="M795.5,305.3h-0.6c-2.4-0.6-4.8-5.4-7.2-11.4c-1.8-4.2-3.6-9-6-12c-2.4-2.4-4.2-4.2-6-4.2l0,0
				c-1.2,0-2.4,0.6-4.2,2.4l0,0c-1.2,1.8-1.8,1.2-4.8-0.6c-1.8-1.2-4.2-3-7.8-5.4c-10.8-6.6-18-1.2-25.3,3.6l-0.6,0.6
				c-1.2,0.6-1.8,1.2-2.4,1.8c-4.8,4.2-6.6,4.8-24.7-4.2c-3.6-1.8-6.6-4.8-9-7.8c-16.8-19.9-38.5-70.4-47.5-90.8l-0.6-1.2l3-0.6
				l98.7-59.6l38.5,71h-1.8c-9.6,0-10.2,3.6-10.2,9c0,1.8,10.8,20.5,59,98l0.6,0.6l-0.6,0.6c-6.6,5.4-13.2,6-21.1,3
				c-6.6-2.4-10.8,1.2-15,3.6c-1.2,0.6-1.8,1.2-3,1.8C796.7,305.3,796.1,305.3,795.5,305.3z M775.7,275.8L775.7,275.8
				c2.4,0,4.8,1.8,7.8,4.8c2.4,3,4.8,8.4,6.6,12.6c1.8,4.2,4.2,9.6,5.4,10.2h0.6c0.6-0.6,1.8-1.2,2.4-1.8c4.2-3,9.6-6.6,16.8-4.2
				c7.2,2.4,13.2,1.8,18.6-2.4c-52.3-83.6-59-96.2-59-98.7c0-6,0.6-10.8,10.8-10.8l-36.1-66.2l-97.4,59h-1.2
				c9,21.7,30.1,70.4,46.3,89.6c2.4,3,4.8,5.4,8.4,7.2c17.4,8.4,18,7.8,22.3,4.2c0.6-0.6,1.8-1.2,2.4-1.8l0.6-0.6
				c7.2-5.4,15.6-11.4,27.1-3.6c4.2,2.4,6.6,4.2,7.8,5.4c1.2,0.6,1.8,1.2,2.4,1.2l0,0v-0.6C772.1,277,773.9,275.8,775.7,275.8z"/>
		</g>
		<g>
			<path class="st10" d="M879.1,186.8c-18.6,0-80,0-89.6,0h-1.2l-15.6-28.9c18-4.8,54.1-14.4,90.2-22.3h1.2
				C866.5,145.9,872.5,172.3,879.1,186.8z"/>
			<path class="st6" d="M813,188c-11.4,0-20.5,0-23.5,0h-1.8l-16.2-30.7l1.2-0.6c22.9-6,57.1-15,90.2-22.3l2.4-0.6v1.2
				c2.4,10.8,8.4,37.3,15,51.1l0.6,1.2h-1.8c-5.4,0-14.4,0-24.1,0C841.8,188,825.6,188,813,188z M788.9,185.6h0.6
				c7.2,0,40.9,0,65.6,0c9,0,17.4,0,22.9,0c-6-13.8-12-38.5-14.4-49.3l0,0c-32.5,7.2-66.2,15.6-89,22.3L788.9,185.6z"/>
		</g>
		<g>
			<path class="st11" d="M991,159.7L991,159.7c-12-1.2-34.3-3.6-47.5-4.8c-6.6-0.6-10.8-1.2-11.4-1.2c-1.8-0.6-0.6-29.5,0-41.5
				c0-0.6,0-0.6,0-1.2c13.2,1.2,49.9,8.4,63.8,10.8c0.6,3,1.2,6.6,1.8,10.2C1000,147.7,992.8,149.5,991,159.7z"/>
			<path class="st6" d="M992.2,161.5H991c-12-1.2-33.7-3.6-47.5-4.8c-4.8-0.6-10.8-1.2-11.4-1.2c-1.2,0-2.4-0.6-1.2-42.7V111h1.2
				c13.2,1.2,48.7,7.8,63.8,10.8h0.6v0.6c0.6,1.8,0.6,3.6,1.2,5.4c0,1.8,0.6,3,0.6,4.8c1.8,10.2-0.6,14.4-3,19.2
				c-1.2,2.4-3,4.8-3.6,8.4L992.2,161.5L992.2,161.5z M932.7,153.1c1.2,0,4.2,0.6,10.8,1.2c13.2,1.2,34.3,3.6,46.3,4.8
				c0.6-3.6,2.4-6,3.6-8.4c2.4-4.2,4.8-8.4,3-18c0-1.8-0.6-3-0.6-4.8s-0.6-3-0.6-4.8c-15-3-48.1-9-62-10.8
				C932.1,139.3,932.7,150.7,932.7,153.1z"/>
		</g>
		<g>
			<path class="st10" d="M917,238.5c-1.8,2.4-3.6,4.8-5.4,7.2c-1.2,1.8-3,22.9-4.2,42.7c-1.2,14.4-1.8,28.9-2.4,35.5h-0.6
				c-2.4,0-40.3-1.2-51.1-1.8c-5.4-8.4-11.4-18-16.8-27.1c-28.3-45.7-59-95.6-59-98.7c0-5.4,0.6-10.2,11.4-10.2h1.2
				c9.6,0,71,0,89.6,0c1.2,2.4,2.4,4.8,3.6,6.6C889.4,201.8,905.6,221.7,917,238.5z"/>
			<path class="st6" d="M905.6,325.7l-1.2-0.6c0,0,0,0-0.6,0c-2.4,0-43.3-1.2-51.1-1.8h-0.6v-0.6c-5.4-8.4-11.4-18-16.8-27.1
				c-59.6-95-59.6-98-59.6-99.3c0-6,1.2-10.8,12-10.8h1.2c7.2,0,40.9,0,65.6,0c10.2,0,18.6,0,24.1,0h0.6v0.6
				c1.2,2.4,2.4,4.2,3.6,6.6c7.2,8.4,22.9,28.9,34.3,45.1l0.6,0.6l-0.6,0.6c-1.8,2.4-3.6,4.8-5.4,7.2c0,0.6-1.2,5.4-4.2,42.7
				c-0.6,9.6-1.2,18.6-1.8,25.9c0,4.2-0.6,7.2-0.6,9.6L905.6,325.7z M853.3,321.5c13.2,0.6,46.9,1.8,50.5,1.8c0-2.4,0.6-5.4,0.6-8.4
				c0.6-7.2,1.2-16.2,1.8-25.9c3-40.3,4.2-42.7,4.2-43.3c1.2-2.4,3-4.8,4.8-7.2c-11.4-16.2-27.1-36.1-33.7-44.5
				c-1.8-1.8-3-4.2-3.6-6.6c-5.4,0-13.8,0-23.5,0c-24.7,0-58.3,0-65.6,0h-1.2c-9.6,0-10.2,3.6-10.2,9c0,1.8,8.4,16.8,59,98
				C842.4,304.1,848.5,313.1,853.3,321.5z"/>
		</g>
		<g>
			<path class="st10" d="M946.5,215c-15.6,10.2-24.7,18-29.5,23.5c-11.4-16.8-27.7-36.7-34.3-45.1c-1.8-1.8-3-4.2-3.6-6.6
				c-6.6-13.8-12.6-40.9-15-51.1c49.3-10.8,52.9-24.7,67.4-24.1l0,0l1.2,1.2c-0.6,12-1.2,40.9,0,41.5c0.6,0,4.8,0.6,11.4,1.2
				L946.5,215z"/>
			<path class="st6" d="M917,240.3l-0.6-1.2c-12-17.4-29.5-39.1-34.3-45.1c-1.8-2.4-3-4.2-4.2-6.6c-6.6-14.4-12.6-40.9-15-51.7v-1.2
				h1.2c28.3-6,41.5-13.8,49.9-18.6c6.6-3.6,10.8-6,17.4-5.4h0.6l1.8,1.8v0.6c-1.2,26.5-0.6,37.9,0,40.3c0.6,0,1.2,0,2.4,0
				c1.8,0,4.8,0.6,8.4,1.2h0.6l3,61.4l-0.6,0.6c-13.2,8.4-22.9,16.2-29.5,22.9L917,240.3z M864.7,136.2c2.4,11.4,8.4,36.7,15,50.5
				c1.2,2.4,2.4,4.2,3.6,6.6c4.8,6,21.7,26.5,33.7,43.9c6.6-7.2,16.2-14.4,28.3-22.3l-3-58.3c-3-0.6-5.4-0.6-7.2-0.6
				c-1.2,0-2.4-0.6-3-0.6l0,0c-1.2,0-2.4-0.6-1.2-42.1l-0.6-0.6c-5.4,0-9.6,1.8-16.2,5.4C905.6,122.4,892.4,129.6,864.7,136.2z"/>
		</g>
		<g>
			<path class="st10" d="M924.9,251.1L924.9,251.1c0,0.6-0.6,1.2-0.6,1.8c-0.6,3.6-1.2,10.2-1.8,18.6c-0.6,4.8-0.6,10.8-1.2,16.2
				l-14.4,0.6c1.8-19.9,3.6-40.9,4.2-42.7c1.2-2.4,3-5.4,5.4-7.2C920,242.7,923,246.9,924.9,251.1z"/>
			<path class="st6" d="M906.2,289.6v-1.2c3-40.3,4.2-42.7,4.2-43.3c1.2-3,3.6-5.4,5.4-7.8l0.6-1.2l0.6,1.2c3,4.2,5.4,8.4,7.8,12.6
				v0.6v0.6c0,0.6-0.6,1.2-0.6,1.8c-0.6,3-1.2,9-1.8,18.6c-0.6,4.8-0.6,10.8-1.2,16.2v1.2L906.2,289.6z M917,239.7
				c-1.8,1.8-3,4.2-4.2,6c-0.6,0.6-1.2,6-4.2,41.5l12.6-0.6c0.6-5.4,0.6-10.8,1.2-15.6c0.6-10.2,1.2-16.2,1.8-19.2
				c0-0.6,0-1.2,0.6-1.8C921.8,247.5,919.4,243.3,917,239.7z"/>
		</g>
		<g>
			<path class="st10" d="M951.9,268.6c-2.4,0.6-6,1.2-8.4,2.4c-3,1.2-15.6,1.2-20.5,1.2c0.6-8.4,1.2-15.6,1.8-18.6l1.2-0.6
				c4.8-2.4,12-6,13.8-6.6c2.4-1.2,0.6,6.6,0,9.6s4.2,0.6,8.4-1.2c1.2-0.6,2.4-1.2,3.6-1.8C952.5,257.8,952.5,263.2,951.9,268.6z"/>
			<path class="st6" d="M927.9,272.8c-2.4,0-4.2,0-4.8,0h-1.2v-1.2c0.6-10.2,1.2-16.2,1.8-19.2v-0.6l1.8-0.6
				c7.8-3.6,12.6-6,14.4-6.6c1.2-0.6,1.8,0,1.8,0c1.2,1.2,0.6,4.2,0,8.4c0,0.6,0,1.2-0.6,1.8l0,0c0.6,0.6,4.8-1.2,6.6-2.4h0.6
				c1.2-0.6,2.4-1.2,3-1.8l1.2-0.6v1.8c0.6,5.4,0.6,10.8,0,16.8v0.6h-0.6c-2.4,0.6-6,1.2-8.4,2.4
				C941.1,272.8,933.3,272.8,927.9,272.8z M924.3,271c6.6,0,16.8,0,19.2-0.6c2.4-0.6,5.4-1.2,7.8-1.8c0.6-4.8,0.6-9,0-13.8
				c-0.6,0.6-1.2,0.6-1.8,1.2h-0.6c-4.8,1.8-7.2,3-9,1.8c-0.6-0.6-0.6-1.2-0.6-1.8s0-1.2,0.6-1.8c0.6-1.8,1.2-5.4,0.6-6.6
				c-1.8,0.6-6.6,3-13.8,6.6l-0.6,0.6C924.9,256.6,924.9,262,924.3,271z"/>
		</g>
		<g>
			<path class="st10" d="M949.5,336c-6,0-22.3,1.2-25.3,0c-1.8-0.6-3.6-1.8-4.8-3c0-3.6,0.6-7.8,0.6-13.2h27.7
				c0,1.2,0.6,2.4,1.2,3.6C949.5,325.1,949.5,331.1,949.5,336z"/>
			<path class="st6" d="M930.9,337.8c-3,0-5.4,0-6.6-0.6c-1.8-0.6-3.6-1.8-5.4-3l-0.6-0.6v-0.6c0-3.6,0.6-7.8,0.6-13.2v-1.2h29.5
				v0.6c0,1.2,0.6,1.8,1.2,3c0.6,0.6,1.2,1.8,1.2,13.2v1.2h-1.2c-1.8,0-5.4,0-8.4,0C936.9,337.8,933.3,337.8,930.9,337.8z
				 M920,332.3c1.2,1.2,3,1.8,4.2,2.4c1.8,0.6,10.2,0.6,16.2,0c3,0,5.4,0,7.8,0c0-9-0.6-10.8-1.2-11.4c-0.6-1.2-0.6-1.8-1.2-3H920
				C920.6,325.7,920.6,329.3,920,332.3z"/>
		</g>
		<g>
			<path class="st10" d="M921.8,288.4c-0.6,10.8-1.2,22.3-1.8,31.9c0,5.4-0.6,9.6-0.6,13.2c-4.8-3-11.4-7.8-14.4-8.4
				c0.6-6.6,1.2-21.1,2.4-35.5L921.8,288.4z"/>
			<path class="st6" d="M920,334.8l-1.2-1.2c-1.2-0.6-2.4-1.2-3.6-2.4c-4.2-2.4-8.4-5.4-10.8-6h-0.6v-0.6c0.6-6.6,1.2-20.5,2.4-35.5
				v-0.6l16.2-0.6v1.2c-0.6,9-1.2,19.2-1.8,31.9c0,5.4-0.6,9.6-0.6,13.2L920,334.8z M906.2,323.9c2.4,1.2,6.6,3.6,10.2,6
				c0.6,0.6,1.2,0.6,1.8,1.2c0-3,0.6-7.2,0.6-11.4c0.6-12,1.2-22.3,1.8-30.7l-12.6,0.6C907.4,304.1,906.2,317.3,906.2,323.9z"/>
		</g>
		<g>
			<path class="st10" d="M950.7,274.6c-2.4,6.6-1.8,21.7-1.8,30.7c0,4.2,0,6.6-0.6,7.2c-1.2,1.2-1.8,4.2-1.2,7.2h-27.7
				c0.6-9,1.2-21.1,1.8-31.9c0.6-6,0.6-11.4,1.2-16.2c4.8,0,17.4,0,20.5-1.2c2.4-0.6,6-1.8,8.4-2.4
				C951.9,271,951.3,272.8,950.7,274.6z"/>
			<path class="st6" d="M948.9,320.9h-29.5v-1.2c0.6-12.6,1.2-22.9,1.8-31.9c0.6-6,0.6-11.4,1.2-16.2v-1.2h2.4
				c5.4,0,16.2,0,19.2-0.6c2.4-0.6,5.4-1.8,8.4-2.4l1.2-0.6v1.2c0,1.8-0.6,4.2-1.2,6l0,0c-1.8,5.4-1.8,16.2-1.8,25.3
				c0,1.8,0,3.6,0,5.4c0,6-0.6,7.2-1.2,7.8c-0.6,0.6-1.2,3.6-0.6,6L948.9,320.9z M921.2,319.1h25.3c0-2.4,0-5.4,1.8-6.6
				c0,0,0.6-1.8,0.6-6.6c0-1.8,0-3.6,0-5.4c0-9,0-19.9,1.8-25.9c0.6-1.2,0.6-3,1.2-4.2c-2.4,0.6-5.4,1.2-7.2,1.8
				c-3,1.2-11.4,1.2-19.9,1.2h-0.6c-0.6,4.8-0.6,10.2-1.2,15C922.4,296.9,921.8,307.1,921.2,319.1z"/>
		</g>
	</g>
</g>
</svg>
