<?xml version="1.0" encoding="utf-8"?>
<!-- Generator: Adobe Illustrator 26.0.0, SVG Export Plug-In . SVG Version: 6.00 Build 0)  -->
<svg version="1.1" id="Layer_1" xmlns="http://www.w3.org/2000/svg" xmlns:xlink="http://www.w3.org/1999/xlink" x="0px" y="0px"
	 viewBox="0 0 1116 360" style="enable-background:new 0 0 1116 360;" xml:space="preserve">
<style type="text/css">
	.st0{fill:#ED2F38;}
	.st1{opacity:0.24;}
	.st2{opacity:0.19;fill:#FFFFFF;enable-background:new    ;}
	.st3{font-family:'Poppins-ExtraBold';}
	.st4{font-size:65.16px;}
	.st5{font-size:71.62px;}
	.st6{fill:#1B1E2A;}
	.st7{font-family:'Poppins-Regular';}
	.st8{font-size:69.773px;}
	.st9{fill:#FFFFFF;}
	.st10{fill:#46506D;}
	.st11{fill:#1B1D29;}
</style>
<rect class="st0" width="1116" height="360"/>
<g>
	<g class="st1">
		<text transform="matrix(1 0 0 1 -143.1066 115.6999)" class="st2 st3 st4">DUMAGUETE</text>
		<text transform="matrix(1 0 0 1 285.7234 115.6999)" class="st2 st3 st4">DUMAGUETE</text>
	</g>
	<g class="st1">
		<text transform="matrix(1 0 0 1 -397.3566 176.5399)" class="st2 st3 st4">DUMAGUETE</text>
		<text transform="matrix(1 0 0 1 31.4734 176.5399)" class="st2 st3 st4">DUMAGUETE</text>
	</g>
	<g class="st1">
		<text transform="matrix(1 0 0 1 -103.7266 234.0798)" class="st2 st3 st4">DUMAGUETE</text>
		<text transform="matrix(1 0 0 1 325.1034 234.0798)" class="st2 st3 st4">DUMAGUETE</text>
	</g>
	<g class="st1">
		<text transform="matrix(1 0 0 1 -400.5767 295.0599)" class="st2 st3 st4">DUMAGUETE</text>
		<text transform="matrix(1 0 0 1 28.2534 295.0599)" class="st2 st3 st4">DUMAGUETE</text>
	</g>
	<g class="st1">
		<text transform="matrix(1 0 0 1 -211.1266 355.1899)" class="st2 st3 st4">DUMAGUETE</text>
		<text transform="matrix(1 0 0 1 217.7034 355.1899)" class="st2 st3 st4">DUMAGUETE</text>
	</g>
	<g class="st1">
		<text transform="matrix(1 0 0 1 -51.9866 59.0099)" class="st2 st3 st5">DUMAGUETE</text>
	</g>
	<g class="st1">
		<text transform="matrix(1 0 0 1 714.0093 115.6999)" class="st2 st3 st4">DUMAGUETE</text>
	</g>
	<g class="st1">
		<text transform="matrix(1 0 0 1 459.7594 176.5399)" class="st2 st3 st4">DUMAGUETE</text>
		<text transform="matrix(1 0 0 1 888.5894 176.5399)" class="st2 st3 st4">DUMAGUETE</text>
	</g>
	<g class="st1">
		<text transform="matrix(1 0 0 1 753.3894 234.0798)" class="st2 st3 st4">DUMAGUETE</text>
	</g>
	<g class="st1">
		<text transform="matrix(1 0 0 1 456.5393 295.0598)" class="st2 st3 st4">DUMAGUETE</text>
		<text transform="matrix(1 0 0 1 885.3694 295.0598)" class="st2 st3 st4">DUMAGUETE</text>
	</g>
	<g class="st1">
		<text transform="matrix(1 0 0 1 645.9893 355.1898)" class="st2 st3 st4">DUMAGUETE</text>
		<text transform="matrix(1 0 0 1 1074.8193 355.1898)" class="st2 st3 st4">DUMAGUETE</text>
	</g>
	<g class="st1">
		<text transform="matrix(1 0 0 1 413.5199 59.0103)" class="st2 st3 st5">DUMAGUETE</text>
	</g>
	<g class="st1">
		<text transform="matrix(1 0 0 1 876.388 59.5117)" class="st2 st3 st5">DUMAGUETE</text>
	</g>
</g>
<g>
	<text transform="matrix(1 0 0 1 184.1554 213.1137)" class="st6 st7 st8">PULANTUBIG</text>
	<g>
		<g>
			<path class="st9" d="M171.9,154.9L171.9,154.9L171.9,154.9c0.1-0.4,0.2-0.8,0.4-1.1c0.7-1.2,1-2.6,0.7-4l-0.1-0.7
				c-0.1-0.3-0.1-0.6-0.2-1l0,0c-0.4-2.1-0.7-3.8-1.3-5.2c-0.9-2.5-1.7-5-2.3-7.5c-0.3-1.4-0.5-4.3-0.5-4.3
				c-0.1-0.8-0.7-1.4-1.5-1.3c-0.5,0-0.9,0.3-1.2,0.7c-0.7,1.1-1.7,2.3-2.1,2.5c-0.6,0.2-2.8,0.3-4,0.3c-1.6,0.1-2.2,0.1-2.6,0.3
				c-0.4,0.1-0.8,0.1-1.3,0c-0.8-0.2-5.9-0.6-7.7,0.1c-0.6,0.2-1,0.4-1.4,0.6l0,0l-0.4,0.2c-0.2,0.1-0.5,0.3-0.7,0.4
				c-2.5,0.3-5.1,0.5-7.7,0.6l0,0h-0.7c-4.3,0.1-6.9-0.4-7.2-0.6c-0.1,0-0.1-0.1-0.2-0.1c-0.9-0.4-3.3-1.5-6.2-1l0,0h-0.1l0,0h-0.2
				c-3.1,0.7-4.8,1.5-5.2,1.7c-0.6,0.2-5.1,1.7-7,2.3c-0.5-0.8-1.2-2.2-1.6-3.1c-1.4-2.8-1.7-3.2-2.1-3.5c-0.5-0.3-3.7-1.5-4.6-1.8
				c-4.6-1.6-4.8-1.5-5.4-1.1c-0.4,0.2-0.5,0.4-1.7,2.4c-1,1.7-3.7,6.2-4.6,6.8c-0.5,0.2-2.9,1.1-5.5,2.1c-3.3,1.3-7.5,2.9-10.9,4.2
				c-1.9,0.7-3.2,1.3-4.2,1.7c-0.6,0.2-1,0.4-1.3,0.5c-0.4,0.2-1.5,0.7-1.2,1.8c0.1,0.5,0.2,0.6,1.8,2.4c1.7,1.9,4.8,5.3,5.8,7.2
				c0.5,0.9,1.5,3.2,2.8,6.4l0,0c1,2.5,2.2,5.5,3.2,8.2l0,0c0.9,2.3,1.5,4.2,1.9,5.3c0.7,2.1,3.1,9.8,7,22.2l0,0l1.7,5.5l2,7.1l0,0
				l8.4,29.4c0.2,0.6,0.7,1,1.4,1c0.1,0,0.1,0,0.2,0l17.5-2.1h0.1h0.1l0,0l12.7-2.2l0,0h0.2h0.1l14.6-3.7c0.5-0.1,0.9-0.5,1-1
				c0.5-2,1.9-5.6,3.2-6.6c0.1-0.1,0.2-0.2,0.3-0.2c0,0,0.1-0.1,0.2-0.3l0,0c4-4.8,4-5.8,4-6.3v-0.3c0.1-4.9,0.8-6.5,1.1-7l0.1-0.2
				l0,0c1-1.4,1.7-3,2-4.7c0.4-1.9,0.6-3.2,0.7-3.7l0,0l0,0l0.1-0.4v-0.1c0.3-2.8,1.1-5.5,2.2-8.1c0.8-1.6,1.7-3.1,2.9-4.5
				c0.7-0.9,1.4-1.7,1.7-2.7c0.1-0.4,0.3-0.9,0.5-1.3c0.1-0.3,0.2-0.5,0.3-0.8l0,0c0.4-1,0.7-2.1,0.7-3.2c0-0.9,0-2.2-0.2-3.9l0,0
				c-0.2-1.7-0.4-3.3-0.7-5c-0.4-2.2-0.9-4.3-1.7-6.3l0,0l0,0c-0.1-0.3-0.2-0.5-0.3-0.8c-0.1-0.2-0.2-0.4-0.2-0.7
				c0,0,0.1-0.1,0.5-0.4c1.4-0.8,3.2-2.4,4.1-4.4l0,0c0.2-0.5,0.3-0.9,0.4-1.4c0.2-1.2,0.1-2.4-0.3-3.5
				C171.9,155.8,171.8,155.4,171.9,154.9z"/>
		</g>
		<g>
			<path class="st10" d="M121.8,172.7c-1,0.1-2.7,0.2-3.2,0.2c-0.9,0-2.1-1.7-3.2-1.7s-1.9,1.3-2.5,2c-0.5,0.5-1.2,1-3.2,1.3
				c-0.4,0.1-0.9,0.1-1.5,0.1c-3.2,0.2-4.3-1.3-6.2-1.6c-1.8-0.4-1.9,0.3-3.2,0.6c-1.2,0.3-2.1-1.4-5.4-3.1c-3.3-1.6-3-0.5-4.4-0.2
				c-1.5,0.4-3.8-1.8-4.1-1.7c-0.2,0.1-1.2,1.7-2,3c-1-2.6-2.1-5.6-3.2-8.2c2-0.3,6.4-0.9,14.2-2.2c9.9-1.6,18.3-3.1,20.1-3.4
				C115.5,161.4,119,169.5,121.8,172.7z"/>
			<path class="st6" d="M107.6,174.7c-1.8,0-2.9-0.5-3.8-1c-0.6-0.3-1.1-0.5-1.8-0.7c-1.2-0.2-1.6,0-2.1,0.2c-0.3,0.1-0.6,0.3-1,0.4
				c-0.7,0.2-1.3-0.3-2.3-1c-0.7-0.6-1.8-1.3-3.3-2.1c-2.4-1.2-2.8-0.9-3.4-0.6c-0.2,0.1-0.5,0.3-0.9,0.4c-1.1,0.3-2.5-0.7-3.4-1.3
				c-0.3-0.2-0.6-0.4-0.7-0.4c-0.1,0.1-0.5,0.6-1.9,2.9l-0.2,0.3l-0.1-0.3c-1-2.7-2.2-5.7-3.2-8.2l-0.1-0.2h0.2
				c2-0.3,6.4-0.9,14.2-2.2c10.4-1.7,19.1-3.2,20.1-3.4h0.1l0.1,0.1c1.4,3.4,5.1,11.8,7.8,15.1l0.2,0.3h-0.3
				c-1.1,0.1-2.7,0.2-3.2,0.2s-1-0.4-1.5-0.8c-0.6-0.5-1.2-0.9-1.7-0.9c-0.8,0-1.5,0.9-2,1.5c-0.1,0.1-0.2,0.3-0.3,0.4
				c-0.5,0.6-1.3,1.1-3.3,1.3c-0.4,0.1-0.9,0.1-1.5,0.1C108,174.7,107.8,174.7,107.6,174.7z M101,172.6c0.3,0,0.6,0,1,0.1
				c0.7,0.1,1.2,0.4,1.8,0.7c1,0.5,2.2,1.1,4.3,0.9c0.6,0,1.1-0.1,1.5-0.1c2.1-0.3,2.7-0.8,3.1-1.2c0.1-0.1,0.2-0.2,0.3-0.4
				c0.6-0.7,1.3-1.6,2.3-1.6c0.6,0,1.3,0.5,1.9,1c0.5,0.4,1,0.8,1.3,0.8c0.5,0,2.1-0.1,2.9-0.1c-2.7-3.4-6.2-11.3-7.6-14.8
				c-1.5,0.3-9.9,1.7-20,3.4c-7.6,1.2-12,1.9-14,2.2c1,2.4,2.1,5.2,3,7.7c1.6-2.7,1.8-2.7,1.9-2.8c0.2,0,0.4,0.1,1,0.5
				c0.8,0.6,2.2,1.5,3.1,1.3c0.4-0.1,0.6-0.2,0.8-0.4c0.8-0.4,1.3-0.6,3.7,0.6c1.6,0.8,2.6,1.5,3.4,2.1c0.9,0.7,1.4,1.1,2,0.9
				c0.4-0.1,0.7-0.2,0.9-0.3C100.1,172.7,100.4,172.6,101,172.6z"/>
		</g>
		<g>
			<path class="st10" d="M130.6,147.7l-16.3,9.9l-0.3,0.1c-1.8,0.3-10.2,1.8-20.1,3.4c-7.8,1.3-12.3,1.9-14.2,2.2
				c-1.2-2.9-2.3-5.5-2.9-6.6c-1.6-2.9-7.4-8.8-7.5-9.1s20.7-8.1,22.3-8.8s6.1-9.1,6.5-9.3c0.3-0.2,8.1,2.6,8.6,2.9
				c0.5,0.3,3.5,7.1,4,7.1s7.8-2.4,8.2-2.6c0.4-0.2,1.9-0.9,4.9-1.6c0.1,0,0.1,0,0.2,0L130.6,147.7z"/>
			<path class="st6" d="M79.5,163.4v-0.1c-0.9-2.3-2.2-5.3-2.9-6.5c-1.1-1.9-4.1-5.3-6-7.4c-1.3-1.5-1.5-1.7-1.5-1.8
				c0-0.2-0.1-0.3,16.8-6.8c2.9-1.1,5.1-2,5.6-2.2c1.1-0.5,3.7-4.9,5.2-7.3c0.9-1.5,1.1-1.9,1.3-2c0.5-0.3,8.7,2.9,8.7,2.9
				c0.2,0.1,0.7,1,1.7,3c0.8,1.6,2,3.9,2.3,4.1c0.5,0,7.7-2.4,8.1-2.6c0.2-0.1,1.8-0.9,4.9-1.6c0.1,0,0.2,0,0.2,0h0.1l6.8,12.6
				l-16.5,10l-0.3,0.1c-0.4,0.1-9.3,1.6-20.1,3.4c-7.8,1.3-12.3,1.9-14.2,2.2L79.5,163.4z M69.5,147.6c0.2,0.2,0.8,0.9,1.4,1.6
				c1.8,2,4.9,5.5,6,7.4c0.7,1.2,1.9,4.2,2.8,6.5c2-0.3,6.4-0.9,14.1-2.2c10.8-1.8,19.7-3.3,20.1-3.4l0.3-0.1l16.1-9.8l-6.5-12.1
				h-0.1c-3.1,0.7-4.7,1.5-4.9,1.5c-0.3,0.2-7.7,2.6-8.3,2.6c-0.4,0-0.9-1-2.5-4.2c-0.7-1.3-1.4-2.7-1.6-2.9
				c-0.5-0.3-7.7-2.9-8.4-2.9c-0.1,0.1-0.6,1-1.1,1.8c-2.1,3.5-4.2,7-5.3,7.4c-0.5,0.2-2.7,1.1-5.6,2.2
				C80.2,143.3,70.6,147,69.5,147.6z"/>
		</g>
		<g>
			<path class="st10" d="M116.6,191.2L91.7,199c-2.2-7.2-6-19.3-7-22.2c-0.4-1.2-1.1-3.2-2-5.4c0.8-1.3,1.8-2.9,2-3
				c0.3-0.1,2.6,2.1,4.1,1.7s1.1-1.4,4.4,0.2c3.3,1.6,4.2,3.3,5.4,3.1c1.2-0.3,1.3-0.9,3.2-0.6c1.8,0.4,2.9,1.8,6.2,1.6
				c0.6,0,1.1-0.1,1.5-0.1c0,0.1,0,0.1,0,0.2c0,0.9,4.3,9.5,6,13.1C116.2,188.8,116.5,190,116.6,191.2z"/>
			<path class="st6" d="M91.6,199.2V199c-1.4-4.4-5.9-19-7-22.2c-0.4-1.2-1.1-3.2-2-5.4v-0.1v-0.1c1.8-3,2-3,2.1-3.1
				c0.2,0,0.4,0.1,1,0.5c0.8,0.5,2.2,1.5,3.1,1.2c0.4-0.1,0.6-0.2,0.8-0.4c0.8-0.4,1.3-0.6,3.7,0.6c1.6,0.8,2.6,1.5,3.4,2.1
				c0.9,0.7,1.4,1.1,2,0.9c0.4-0.1,0.7-0.2,0.9-0.3c0.6-0.3,1-0.5,2.3-0.2c0.7,0.1,1.2,0.4,1.8,0.7c1,0.5,2.2,1.1,4.3,0.9
				c0.6,0,1.1-0.1,1.5-0.1h0.1v0.1c0,0.1,0,0.2,0,0.2c0,0.7,2.8,6.5,4.7,10.4c0.5,1,0.9,1.9,1.3,2.6c0.5,1.2,0.8,2.4,1,3.6v0.1h-0.1
				L91.6,199.2z M83,171.4c0.8,2.2,1.5,4.1,1.9,5.3c1.1,3.2,5.5,17.5,6.9,22.1l24.6-7.7c-0.2-1.2-0.5-2.3-0.9-3.4
				c-0.3-0.7-0.8-1.6-1.3-2.6c-2.6-5.3-4.8-9.8-4.8-10.5l0,0c-0.4,0-0.8,0.1-1.3,0.1c-2.1,0.1-3.4-0.5-4.4-1
				c-0.6-0.3-1.1-0.5-1.8-0.7c-1.2-0.2-1.6,0-2.1,0.2c-0.3,0.1-0.6,0.3-1,0.4c-0.7,0.2-1.3-0.3-2.3-1c-0.7-0.6-1.8-1.3-3.3-2.1
				c-2.4-1.2-2.8-0.9-3.4-0.6c-0.2,0.1-0.5,0.3-0.9,0.4c-1.1,0.3-2.5-0.7-3.4-1.3c-0.3-0.2-0.6-0.4-0.7-0.4
				C84.8,168.7,84.4,169.2,83,171.4z"/>
		</g>
		<g>
			<path class="st10" d="M118,206.8c-8.8,1.7-18.2,3.8-22.5,4.8l-2-7.1c0,0-0.7-2.3-1.7-5.5l24.9-7.8c0.9,5,1.1,12.6,1.2,14.4
				C117.9,205.8,117.9,206.3,118,206.8z"/>
			<path class="st6" d="M95.4,211.8l-2.1-7.2l0,0c0,0-0.7-2.3-1.7-5.5v-0.2l25.2-7.9v0.2c0.6,3.6,0.9,8.5,1.1,11.7
				c0.1,1.2,0.1,2.2,0.2,2.7c0,0.2,0.1,0.6,0.1,1.2v0.2H118C108.9,208.8,99.2,211,95.4,211.8L95.4,211.8z M91.9,199.1
				c1,3.2,1.7,5.4,1.7,5.4l2,6.9c3.8-0.9,13.2-3,22.2-4.8c-0.1-0.5-0.1-0.8-0.1-1c-0.1-0.5-0.1-1.5-0.2-2.7c-0.2-3.2-0.4-7.9-1-11.5
				L91.9,199.1z"/>
		</g>
		<g>
			<path class="st10" d="M121.5,238.9L121.5,238.9l-17.6,2.1l-8.4-29.4c4.3-1,13.7-3.1,22.5-4.8c0.5,4.9,2.3,21.2,2.5,25.2
				C120.6,234.3,121,236.6,121.5,238.9z"/>
			<path class="st6" d="M103.8,241.2l-8.5-29.7h0.2c2.9-0.7,12.9-3,22.5-4.8h0.2l0.2,1.8c0.6,6,2.2,20,2.3,23.6
				c0.1,2.3,0.5,4.6,1.1,6.9v0.2l-0.3,0.1L103.8,241.2z M95.7,211.7l8.4,29.1l17.3-2.1c-0.6-2.2-0.9-4.5-1-6.7
				c-0.1-3.6-1.7-17.6-2.3-23.5l-0.2-1.4C108.5,208.8,98.7,211,95.7,211.7z"/>
		</g>
		<g>
			<path class="st10" d="M133.4,219c-0.2,0.6,0.6,13.3,0.9,17.6l-12.7,2.2c-0.6-2.3-0.9-4.6-1.1-6.9c-0.2-4-1.9-20.2-2.5-25.2
				c4.4-0.8,8.6-1.6,12.1-2s6.1-0.8,8-1c-0.5,2.3-1.1,4.5-1.8,6.7C135,214.5,133.5,218.6,133.4,219z"/>
			<path class="st6" d="M121.4,239v-0.1c-0.6-2.3-0.9-4.6-1.1-6.9c-0.1-3.6-1.7-17.6-2.3-23.5l-0.2-1.8h0.2c4.9-0.9,9-1.6,12.1-2
				c3.3-0.4,6-0.8,8-1h0.2v0.2c-0.5,2.3-1.1,4.5-1.8,6.7c-0.9,2.8-1.8,5.6-2.4,7.3c-0.2,0.7-0.4,1.2-0.4,1.3
				c-0.1,0.5,0.4,9.4,0.9,17.5v0.1L121.4,239z M118.2,206.9l0.2,1.5c0.6,6,2.2,19.9,2.3,23.5c0.1,2.3,0.5,4.5,1,6.7l12.4-2.2
				c-0.3-5.2-1-16.9-0.8-17.5l0,0c0-0.1,0.2-0.6,0.4-1.3c0.6-1.7,1.5-4.4,2.4-7.3c0.7-2.1,1.3-4.3,1.7-6.4c-2,0.3-4.6,0.6-7.8,1
				C127,205.3,123,206,118.2,206.9z"/>
		</g>
		<g>
			<path class="st10" d="M153.1,225.3l-0.2,0.3c-2.3,1.6-3.8,7.4-3.8,7.4l-14.6,3.7h-0.2c-0.3-4.3-1-17-0.9-17.6
				c0.1-0.4,1.6-4.5,2.9-8.6c1,2.5,3.1,7,3.7,7.6C140.7,218.7,149.6,223.4,153.1,225.3z"/>
			<path class="st6" d="M134.1,236.8v-0.2c-0.1-1.7-1-16.9-0.8-17.7c0-0.1,0.2-0.7,0.5-1.4c0.6-1.6,1.5-4.4,2.4-7.2l0.1-0.4l0.2,0.4
				c1.4,3.4,3.1,7.1,3.7,7.6c0.8,0.7,10.2,5.7,13.1,7.2l0.2,0.1l-0.4,0.5c-2.2,1.6-3.7,7.2-3.7,7.3v0.1L134.1,236.8z M136.3,210.9
				c-0.8,2.6-1.7,5.2-2.2,6.8c-0.3,0.7-0.4,1.3-0.5,1.4c-0.1,0.5,0.4,10.6,0.8,17.4l14.5-3.7c0.2-0.8,1.7-5.8,3.8-7.4l0.1-0.1
				c-3.8-2-12.2-6.4-13-7.1C139.1,217.5,137,212.6,136.3,210.9z"/>
		</g>
		<g>
			<path class="st10" d="M158.4,211.6c-0.1,0.1-0.1,0.1-0.1,0.1c-1.4,1.8-1.4,7-1.5,8.1c0,0.9-2.9,4.4-3.7,5.4
				c-3.5-1.9-12.4-6.5-13.1-7.2c-0.7-0.6-2.7-5.2-3.7-7.6c0.7-2.2,1.3-4.4,1.8-6.7l0,0c2.4,0.3,6.9,2.8,8.4,3.4
				C147.6,207.6,154.7,210.2,158.4,211.6z"/>
			<path class="st6" d="M153.2,225.5l-0.1-0.1c-3.7-1.9-12.4-6.5-13.1-7.2c-0.7-0.7-2.9-5.6-3.8-7.7v-0.1v-0.1
				c0.7-2.2,1.3-4.4,1.8-6.7v-0.2h0.2c1.7,0.2,4.5,1.6,6.6,2.6c0.8,0.4,1.4,0.7,1.9,0.9c1.1,0.4,7.9,2.9,11.5,4.3l0.6,0.2l-0.1,0.2
				c-0.1,0.1-0.1,0.1-0.1,0.1c-1.2,1.7-1.4,6.2-1.4,7.7v0.3c0,0.9-2.3,3.8-3.7,5.5L153.2,225.5z M136.5,210.4
				c1.8,4.3,3.2,7.1,3.7,7.5c0.7,0.7,9.9,5.5,13,7.1c2.2-2.6,3.5-4.6,3.6-5.2v-0.3c0-1.5,0.2-6.1,1.5-7.9l-0.2-0.1
				c-3.9-1.5-10.4-3.9-11.5-4.3c-0.4-0.2-1.1-0.5-1.9-0.9c-1.9-1-4.6-2.2-6.3-2.5C137.7,206.1,137.1,208.3,136.5,210.4z"/>
		</g>
		<g>
			<path class="st10" d="M160.8,203.8c-0.1,0.6-0.3,1.9-0.7,3.7c-0.3,1.5-0.9,2.9-1.7,4.1c-3.7-1.4-10.8-4-11.9-4.4
				c-1.5-0.6-6-3.1-8.4-3.4c5-0.7,5.3-0.9,6-1.1c0.3-0.1,1.3-1.5,2.6-3.4c1.2,0.6,3.5,1.7,4.6,2
				C152.5,201.7,158.6,203.3,160.8,203.8z"/>
			<path class="st6" d="M158.4,211.8h-0.1c-3.7-1.4-10.8-4-11.9-4.4c-0.4-0.2-1.1-0.5-1.9-0.9c-2-1-4.7-2.3-6.4-2.5l-1.3-0.2
				l1.3-0.2c4.6-0.6,5.2-0.8,5.8-1h0.2c0.2-0.1,0.7-0.7,2.5-3.3l0.1-0.1l0.1,0.1c1,0.5,3.4,1.7,4.6,2c0.9,0.3,4.2,1.1,9.5,2.5h0.1
				v0.2c-0.1,0.7-0.4,2.2-0.7,3.7s-0.9,2.9-1.8,4.2L158.4,211.8z M139.1,203.8c1.7,0.5,3.9,1.5,5.6,2.3c0.8,0.4,1.5,0.7,1.9,0.9
				c1.1,0.4,8,3,11.8,4.4c0.8-1.2,1.4-2.5,1.6-3.9c0.3-1.4,0.5-2.8,0.6-3.5c-5.3-1.4-8.5-2.2-9.4-2.5c-1.1-0.4-3.4-1.5-4.5-2
				c-1.8,2.8-2.3,3.3-2.6,3.3H144C143.4,203.1,142.9,203.2,139.1,203.8z"/>
		</g>
		<g>
			<path class="st10" d="M168.5,185.8c-0.3,0.7-0.5,1.4-0.8,2.1c-0.6,1.7-2.6,3-4.5,7c-1.2,2.7-2,5.6-2.4,8.5c0,0,0,0.1-0.1,0.4
				c-2.2-0.6-8.2-2.1-9.5-2.5c-1.1-0.4-3.4-1.5-4.6-2c2.5-3.9,5.9-9.6,5.9-9.6s-2.2-3.4-5-8c1.8,0.1,8.1,0.3,8.5,0.3h0.1
				c0.5,0.1,1.6,0.9,2.4,1.4c0.3,0.2,0.6,0.3,0.9,0.5c0.6,0.2,3.3,0,4.2,0c0.1,0,0.1,0,0.2,0C164.3,184,166.9,185.1,168.5,185.8z"/>
			<path class="st6" d="M160.9,204h-0.2c-5.3-1.4-8.6-2.3-9.5-2.5c-1.2-0.4-3.6-1.6-4.6-2.1l-0.2-0.1l0.1-0.2
				c2.3-3.6,5.4-8.8,5.8-9.5c-0.4-0.6-2.4-3.8-5-7.9l-0.2-0.3h0.3c3,0.1,8.1,0.3,8.5,0.3c0.1,0,0.1,0,0.2,0c0.4,0.1,1.1,0.6,1.8,1.1
				c0.2,0.1,0.4,0.3,0.6,0.4c0.3,0.2,0.5,0.3,0.8,0.5c0.3,0.1,1.6,0.1,2.6,0c0.6,0,1.2-0.1,1.5,0c0.1,0,0.1,0,0.2,0
				c0.4,0,1.9,0.6,4.7,1.8l0.1,0.1l-0.1,0.1c-0.1,0.3-0.2,0.5-0.3,0.8c-0.2,0.4-0.3,0.9-0.5,1.4c-0.3,0.8-0.8,1.4-1.5,2.3
				c-0.9,1.1-2,2.5-3,4.8c-1.2,2.7-2,5.6-2.3,8.5c0,0,0,0.1-0.1,0.4L160.9,204z M146.9,199.2c1.1,0.5,3.3,1.6,4.4,2
				c0.9,0.3,4.1,1.1,9.3,2.5c0-0.1,0-0.2,0-0.2c0.4-3,1.2-5.8,2.4-8.6c1.1-2.3,2.2-3.7,3.1-4.8c0.7-0.8,1.2-1.5,1.4-2.2
				c0.2-0.5,0.3-0.9,0.5-1.4c0.1-0.2,0.2-0.4,0.2-0.6c-3.3-1.4-4.2-1.7-4.4-1.8c-0.1,0-0.1,0-0.2,0c-0.4,0-0.9,0-1.5,0
				c-1.4,0.1-2.4,0.1-2.8-0.1c-0.3-0.1-0.6-0.3-0.9-0.5c-0.2-0.1-0.4-0.2-0.6-0.4c-0.7-0.4-1.4-0.9-1.8-1h-0.1
				c-0.4,0-6.7-0.2-8.2-0.3c2.8,4.4,4.9,7.7,4.9,7.7l0.1,0.1l-0.1,0.1C152.7,189.8,149.4,195.4,146.9,199.2z"/>
		</g>
		<g>
			<path class="st11" d="M160.5,146.6c-2.4-0.2-3,2.2-11.1,4h-0.2c-6,1.3-12,2.9-15,3.7l-3.6-6.6l-6.7-12.3c2.8-0.5,5.3,0.8,5.7,1
				c0.5,0.2,3.2,0.7,7.7,0.6h0.7c1.4,2.3,4.6,7.4,4.7,7.4c0.1,0,7.8-2.2,11.3-3.2L160.5,146.6z"/>
			<path class="st6" d="M134.1,154.5l-10.4-19.3h0.2c2.5-0.5,4.6,0.5,5.5,0.9c0.1,0.1,0.2,0.1,0.3,0.1c0.5,0.2,3.1,0.7,7.7,0.6h0.8
				v0.1c2,3.3,4.2,6.9,4.6,7.3c0.5-0.1,4.6-1.3,7.9-2.2c1.3-0.4,2.4-0.7,3.4-0.9h0.1l6.9,5.7h-0.5c-1-0.1-1.6,0.3-2.7,0.9
				c-1.5,0.8-3.7,2-8.4,3.1h-0.2c-5.5,1.2-11.2,2.7-15,3.7L134.1,154.5z M124.2,135.5l10.1,18.6c3.8-1,9.4-2.5,14.9-3.7h0.2
				c4.6-1,6.8-2.2,8.3-3c0.9-0.5,1.6-0.9,2.4-0.9l-6-5c-0.9,0.3-2.1,0.6-3.3,0.9c-6.3,1.8-7.9,2.2-8,2.2s-0.3,0-4.8-7.4h-0.6
				c-4.6,0.1-7.3-0.5-7.8-0.6c-0.1,0-0.2-0.1-0.3-0.1C128.4,136,126.5,135.1,124.2,135.5z"/>
		</g>
		<g>
			<path class="st10" d="M154.1,141.2c-3.5,1-11.2,3.1-11.3,3.2s-3.3-5.1-4.7-7.4c2.7,0,5.3-0.3,7.9-0.6c0.5-0.2,1-0.4,1.4-0.6
				L154.1,141.2z"/>
			<path class="st6" d="M142.8,144.6c-0.2,0-0.5-0.5-4.9-7.5l-0.2-0.2h0.3c2.6,0,5.3-0.3,7.9-0.6c0.5-0.2,0.9-0.4,1.4-0.6l0.1-0.1
				l7,5.8l-0.3,0.1C150.5,142.4,142.9,144.5,142.8,144.6L142.8,144.6z M138.3,137.1c3.3,5.4,4.2,6.8,4.5,7.1
				c0.8-0.2,7.5-2.1,10.9-3.1l-6.3-5.3c-0.4,0.2-0.9,0.4-1.4,0.6C143.5,136.9,140.9,137.1,138.3,137.1z"/>
		</g>
		<g>
			<path class="st10" d="M171.3,148.4c-2.3-0.4-8.4-1.6-10.6-1.8h-0.2l0,0l-6.4-5.3l-6.7-5.6c0.4-0.2,0.8-0.4,1.3-0.6
				c1.3-0.5,6.1-0.3,6.8-0.1c0.6,0.2,2.2,0,2.4-0.2s5-0.1,6.4-0.6s2.9-3.1,2.9-3.1s0.2,3,0.6,4.5c0.6,2.6,1.4,5.2,2.3,7.8
				C170.6,145.1,171,146.7,171.3,148.4z"/>
			<path class="st6" d="M171.5,148.6h-0.2c-2.5-0.5-8.4-1.6-10.6-1.8h-0.3l0,0l-13.3-11.1l0.2-0.1c0.4-0.2,0.8-0.4,1.3-0.6
				c1.4-0.6,6.2-0.3,6.9-0.1c0.6,0.2,2,0,2.2-0.1c0.1-0.1,0.3-0.1,2-0.2c1.5-0.1,3.7-0.1,4.5-0.4c1.3-0.4,2.8-3,2.8-3l0.3-0.5v0.5
				c0,0,0.2,3,0.6,4.5c0.6,2.6,1.4,5.2,2.3,7.7c0.6,1.6,1,3.3,1.2,4.9L171.5,148.6z M160.6,146.4h0.2c2.1,0.2,7.8,1.3,10.4,1.8
				c-0.3-1.6-0.7-3.1-1.2-4.6c-0.9-2.5-1.7-5.2-2.3-7.8c-0.2-1.2-0.4-3.1-0.5-4c-0.5,0.8-1.7,2.4-2.7,2.7c-0.8,0.3-3,0.4-4.6,0.4
				c-0.8,0-1.6,0.1-1.8,0.1c-0.3,0.2-1.9,0.4-2.5,0.2c-0.7-0.2-5.4-0.4-6.7,0.1c-0.4,0.2-0.8,0.3-1.1,0.5L160.6,146.4z"/>
		</g>
		<g>
			<path class="st10" d="M171,159.9c-0.1,0.4-0.2,0.7-0.3,1.1c-1.2,0-3.6,0.4-6.9,2.4c-0.2,0.1-0.5,0.3-0.7,0.4l-0.5-10
				c2.2,0.2,5.9,0.6,7.9,0.8C170.2,156.4,171.4,157.6,171,159.9z"/>
			<path class="st6" d="M163,164.1l-0.5-10.5h0.2c2.2,0.2,5.9,0.6,7.9,0.8h0.2v0.2c-0.1,0.8,0,1.4,0.2,2.2s0.5,1.8,0.3,3l0,0
				c-0.1,0.4-0.2,0.8-0.3,1.1v0.1h-0.1c-1.1,0-3.5,0.4-6.8,2.4l-0.1,0.1c-0.2,0.1-0.4,0.2-0.5,0.3L163,164.1z M162.8,154l0.5,9.5
				c0.1-0.1,0.2-0.1,0.3-0.2l0.1-0.1c3.3-2,5.7-2.4,6.9-2.5c0.1-0.3,0.2-0.6,0.3-1c0.2-1.2,0-2-0.3-2.9c-0.2-0.7-0.4-1.4-0.3-2.1
				C168.4,154.6,165,154.3,162.8,154z"/>
		</g>
		<g>
			<path class="st10" d="M170.7,161c-0.7,1.7-2.3,3.1-3.4,3.7c-1.4,0.8-1.5,1.5-1,2.8c0.1,0.3,0.2,0.5,0.3,0.8
				c-0.6,0.4-1.8,1.2-2.5,1.7c-0.2,0.1-0.4,0.2-0.6,0.3c-0.7,0.3-1.5,0.6-1.4,0.2c0.1-0.5,0.4-1.8,0-1.6c-0.3,0.1-1.6,0.7-2.3,1.1
				l-0.1-0.2l0,0c-0.4-0.6-0.8-1.3-1.3-2.1c0.8-0.9,2.3-2.2,4.9-3.9c0.2-0.1,0.4-0.3,0.7-0.4C167.1,161.4,169.5,161,170.7,161z"/>
			<path class="st6" d="M162.2,170.9c-0.1,0-0.2,0-0.3-0.1s-0.1-0.2-0.1-0.3s0-0.2,0.1-0.3c0.1-0.3,0.2-0.9,0.1-1.1
				c-0.3,0.1-1,0.5-1.7,0.8l-0.8,0.4l-0.2-0.4c-0.3-0.6-0.8-1.3-1.3-2.1l-0.1-0.1l0.1-0.1c1.1-1.2,2.7-2.5,4.9-3.9
				c0.1-0.1,0.3-0.2,0.4-0.2l0.3-0.2c3.4-2.1,5.8-2.4,7-2.5h0.3l-0.1,0.2c-0.7,1.8-2.3,3.2-3.5,3.8c-1.4,0.8-1.4,1.5-0.9,2.6
				c0.1,0.2,0.2,0.5,0.3,0.8l0.1,0.1l-0.1,0.1c-0.6,0.4-1.8,1.2-2.6,1.7c-0.2,0.1-0.4,0.2-0.6,0.3h-0.1
				C162.9,170.7,162.5,170.9,162.2,170.9z M162.1,168.7c0.1,0,0.1,0,0.2,0.1c0.2,0.2,0.1,0.7,0,1.4c0,0.1,0,0.2-0.1,0.3l0,0
				c0.1,0.1,0.8-0.2,1.1-0.4h0.1c0.2-0.1,0.4-0.2,0.5-0.3c0.7-0.4,1.8-1.2,2.4-1.6c-0.1-0.3-0.2-0.5-0.3-0.7
				c-0.5-1.3-0.5-2.2,1.1-3.1c1.1-0.6,2.5-1.8,3.3-3.4c-1.2,0.1-3.5,0.5-6.5,2.4l-0.3,0.2c-0.1,0.1-0.3,0.2-0.4,0.2
				c-2.1,1.3-3.7,2.6-4.8,3.7c0.5,0.7,0.9,1.4,1.3,2l0.1,0.1l0.5-0.2c0.7-0.3,1.5-0.7,1.7-0.8C162,168.7,162.1,168.7,162.1,168.7z"
				/>
		</g>
		<g>
			<path class="st10" d="M169,179.2c-0.7-0.1-1.3-0.2-1.9-0.4c-0.4-0.1-2.5,0-3.5,0c0-1.5-0.1-4,0.3-5.1c0.1-0.3,0.2-0.6,0.2-1
				c0.1-0.9,0.1-1.8,0-2.7c0.8-0.5,2-1.3,2.5-1.7c0.8,2,1.4,4,1.7,6.1C168.6,176,168.8,177.6,169,179.2z"/>
			<path class="st6" d="M169.1,179.4h-0.2c-0.7-0.1-1.3-0.2-2-0.4c-0.3-0.1-2.2,0-3.4,0h-0.2v-0.2c0-0.3,0-0.5,0-0.8
				c0-1.5,0-3.4,0.3-4.4c0.1-0.3,0.2-0.6,0.2-0.9c0.1-0.9,0.1-1.8,0-2.7v-0.1l0.1-0.1c0.8-0.5,2-1.3,2.5-1.7l0.2-0.1l0.1,0.2
				c0.8,2,1.4,4,1.7,6.1c0.3,1.6,0.5,3.2,0.7,4.8L169.1,179.4z M165.9,178.6c0.6,0,1,0,1.2,0c0.6,0.2,1.2,0.3,1.7,0.4
				c-0.1-1.5-0.4-3.1-0.7-4.6c-0.3-2-0.9-4-1.6-5.8c-0.6,0.4-1.6,1.1-2.3,1.5c0.1,0.9,0.1,1.8,0,2.6c0,0.3-0.1,0.7-0.2,1
				c-0.3,0.9-0.3,2.8-0.3,4.3c0,0.2,0,0.4,0,0.7C164.3,178.7,165.2,178.6,165.9,178.6z"/>
		</g>
		<g>
			<path class="st10" d="M169.1,183c-0.1,0.9-0.3,1.9-0.6,2.7c-1.6-0.7-4.2-1.8-4.6-1.8c-0.1,0-0.1,0-0.2,0c0-0.8,0-1.8-0.2-2.1
				c-0.1-0.2-0.2-0.4-0.2-0.6c-0.1-0.4,0-1,0.2-1.2c0.1-0.1,0.1-0.6,0.1-1.2c1,0,3.1-0.1,3.5,0c0.6,0.2,1.3,0.3,1.9,0.4
				C169.1,180.9,169.1,182.2,169.1,183z"/>
			<path class="st6" d="M168.6,186l-0.6-0.3c-1.5-0.6-3.7-1.6-4.1-1.6c-0.1,0-0.1,0-0.2,0h-0.2v-0.2c0-1.6-0.1-2-0.2-2
				c-0.1-0.2-0.2-0.4-0.2-0.6c-0.1-0.5,0-1,0.2-1.3c0-0.1,0.1-0.4,0.1-1.1v-0.2h0.2c0.7,0,3.1-0.1,3.5,0c0.6,0.2,1.3,0.3,1.9,0.4
				h0.1v0.1c0.1,1.3,0.2,2.6,0.2,3.8l0,0c-0.1,1-0.3,1.9-0.6,2.8L168.6,186z M163.8,183.7C163.8,183.7,163.9,183.7,163.8,183.7
				c0.5,0.1,2.2,0.8,4.3,1.6l0.3,0.1c0.3-0.8,0.5-1.6,0.6-2.5c0-1.2-0.1-2.4-0.2-3.6c-0.6-0.1-1.2-0.2-1.8-0.4c-0.3,0-1.8,0-3.2,0
				c0,0.8,0,1.1-0.2,1.2c-0.1,0.1-0.2,0.6-0.1,1c0,0.2,0.1,0.4,0.2,0.5C163.7,181.8,163.8,182.1,163.8,183.7z"/>
		</g>
		<g>
			<path class="st10" d="M138.2,202.8c0,0.3-0.1,0.6-0.1,0.9l0,0c-1.9,0.3-4.5,0.6-8,1c-3.4,0.4-7.7,1.2-12.1,2
				c-0.1-0.5-0.1-1-0.1-1.2c-0.2-1.8-0.4-9.4-1.2-14.4l21.5-6.7C138.3,191.4,138.4,200.5,138.2,202.8z"/>
			<path class="st6" d="M117.9,207v-0.2c-0.1-0.5-0.1-1-0.1-1.2c-0.1-0.5-0.1-1.5-0.2-2.7c-0.2-3.2-0.4-8.1-1.1-11.7v-0.1l21.8-6.8
				v0.2c0.1,6.8,0.3,16.1,0.1,18.4c0,0.2-0.1,0.5-0.1,1v0.1h-0.1c-2,0.3-4.7,0.6-8,1c-3.2,0.4-7.2,1.1-12,2H117.9z M116.8,191.3
				c0.6,3.6,0.9,8.4,1,11.6c0.1,1.2,0.1,2.2,0.2,2.7c0,0.2,0.1,0.6,0.1,1c4.8-0.9,8.8-1.6,11.9-2c3.3-0.4,5.8-0.7,7.9-1
				c0.1-0.3,0.1-0.6,0.1-0.8l0,0c0.2-2.3,0.1-11.3-0.1-18.1L116.8,191.3z"/>
		</g>
		<g>
			<path class="st10" d="M138.1,184.5l-21.5,6.7c-0.2-1.2-0.5-2.4-1-3.6c-1.7-3.6-6-12.2-6-13.1c0-0.1,0-0.1,0-0.2
				c2-0.3,2.7-0.7,3.2-1.3c0.6-0.7,1.4-2,2.5-2s2.4,1.7,3.2,1.7c0.6,0,2.2-0.1,3.2-0.2c0.4,0.5,0.9,0.9,1.4,1.2
				c3.5,1.7,3.1,1.3,4.4,0.4s2.5-2,4.5-0.7c1.9,1.2,1.7,1.3,2,1c0.2-0.3,0.9-1,1.9,0.3c0.9,1.1,1.4,3.6,2.1,3.8
				C138,180.1,138,182.2,138.1,184.5z"/>
			<path class="st6" d="M116.5,191.4v-0.2c-0.2-1.2-0.5-2.4-1-3.5c-0.4-0.8-0.9-1.9-1.5-3.1c-2.6-5.3-4.6-9.4-4.6-10.1v-0.1v-0.2
				h0.2c2.1-0.3,2.7-0.8,3.1-1.2c0.1-0.1,0.2-0.2,0.3-0.3c0.6-0.7,1.3-1.7,2.3-1.7c0.6,0,1.3,0.5,1.9,1c0.5,0.4,1,0.8,1.3,0.8
				c0.6,0,2.3-0.1,3.2-0.2h0.1l0.1,0.1c0.4,0.5,0.8,0.9,1.3,1.2c2.9,1.4,3,1.3,3.7,0.7c0.1-0.1,0.3-0.2,0.4-0.3l0.1-0.1
				c1.2-0.9,2.6-1.9,4.5-0.6c0.6,0.4,1,0.7,1.3,0.9c0.2,0.1,0.3,0.2,0.4,0.2l0,0v-0.1c0.1-0.1,0.4-0.5,0.9-0.5
				c0.4,0,0.8,0.3,1.2,0.8s0.8,1.4,1.1,2.1c0.3,0.7,0.7,1.6,0.9,1.7h0.1v1.2c0,1.3,0.1,3,0.1,4.7v0.1h-0.1L116.5,191.4z
				 M109.8,174.5L109.8,174.5c0,0.7,2.7,6.3,4.5,10c0.6,1.2,1.1,2.3,1.5,3.1c0.5,1.1,0.8,2.3,0.9,3.4l21.2-6.6
				c0-1.7-0.1-3.3-0.1-4.6v-1c-0.4-0.2-0.7-0.9-1-1.8c-0.3-0.7-0.6-1.5-1-2c-0.4-0.4-0.7-0.7-1-0.7c-0.2,0-0.4,0.1-0.7,0.4l0,0
				c-0.2,0.3-0.3,0.2-0.8-0.1c-0.3-0.2-0.7-0.5-1.3-0.9c-1.8-1.1-3-0.2-4.2,0.6l-0.1,0.1c-0.2,0.1-0.3,0.2-0.4,0.3
				c-0.8,0.7-1.1,0.8-4.1-0.7c-0.5-0.3-1-0.7-1.4-1.2c-1.2,0.1-2.6,0.2-3.2,0.2c-0.5,0-1-0.4-1.5-0.8c-0.6-0.5-1.2-0.9-1.7-0.9
				c-0.8,0-1.5,0.9-2.1,1.5c-0.1,0.1-0.2,0.2-0.3,0.4C112.4,173.8,111.7,174.2,109.8,174.5z"/>
		</g>
		<g>
			<path class="st10" d="M152.6,189.6c0,0-3.4,5.7-5.9,9.6c-1.2,1.9-2.2,3.3-2.6,3.4c-0.7,0.2-1,0.4-6,1.1l0,0
				c0.1-0.4,0.1-0.7,0.1-0.9c0.2-2.3,0.1-11.4-0.1-18.3c-0.1-2.3-0.1-4.3-0.2-5.8c0.1,0,0.2,0,0.2,0c0.8-0.5,1.7-1.5,3.1-1
				c1.2,0.4,2.3,0.4,3.4-0.5c1,1.6,1.9,3.1,2.8,4.5C150.4,186.2,152.6,189.6,152.6,189.6z"/>
			<path class="st6" d="M137.9,203.9v-0.2c0.1-0.4,0.1-0.7,0.1-0.9c0.2-1.8,0.1-7.9-0.1-18.3c-0.1-2.3-0.1-4.3-0.2-5.8v-0.2h0.2h0.1
				c0.1-0.1,0.3-0.2,0.4-0.3c0.7-0.5,1.6-1.1,2.8-0.7c1.3,0.5,2.2,0.3,3.2-0.5l0.1-0.1l0.1,0.2c1,1.6,1.9,3.1,2.8,4.5
				c2.8,4.5,5,7.9,5,8l0.1,0.1l-0.1,0.1c0,0.1-3.4,5.8-5.9,9.6c-1.9,2.9-2.4,3.4-2.7,3.5l-0.2,0.1c-0.7,0.2-1.2,0.4-5.9,1
				L137.9,203.9z M138.1,178.8c0,1.5,0.1,3.4,0.1,5.6c0.2,10.4,0.3,16.6,0.1,18.4c0,0.2,0,0.4-0.1,0.7c4.4-0.6,5-0.8,5.6-1l0.2-0.1
				c0.1,0,0.6-0.4,2.5-3.3c2.3-3.6,5.4-8.8,5.8-9.5c-0.4-0.6-2.4-3.8-4.9-7.9c-0.9-1.4-1.8-2.9-2.7-4.4c-1,0.8-2.1,0.9-3.4,0.4
				c-1.1-0.4-1.8,0.2-2.5,0.6c-0.2,0.1-0.3,0.2-0.5,0.3C138.2,178.8,138.2,178.8,138.1,178.8z"/>
		</g>
		<g>
			<path class="st10" d="M144.7,177.1c-1.1,0.9-2.2,1-3.4,0.5c-1.4-0.5-2.3,0.5-3.1,1c-0.1,0-0.2,0.1-0.2,0
				c-0.7-0.2-1.2-2.7-2.1-3.8c-1-1.3-1.7-0.6-1.9-0.3s0,0.2-2-1s-3.3-0.2-4.5,0.7s-0.9,1.3-4.4-0.4c-0.5-0.3-1-0.7-1.4-1.2
				c-2.7-3.2-6.3-11.3-7.8-15.1l0.3-0.1l16.3-9.9l3.6,6.6l2.6,4.8c-1.8,0-1.9,0.7-1.9,1.7C134.9,161.3,140,169.6,144.7,177.1z"/>
			<path class="st6" d="M138,178.8h-0.1c-0.4-0.1-0.8-0.9-1.2-1.9c-0.3-0.7-0.6-1.5-1-2c-0.4-0.4-0.7-0.7-1-0.7l0,0
				c-0.2,0-0.4,0.1-0.7,0.4l0,0c-0.2,0.3-0.3,0.2-0.8-0.1c-0.3-0.2-0.7-0.5-1.3-0.9c-1.8-1.1-3-0.2-4.2,0.6l-0.1,0.1
				c-0.2,0.1-0.3,0.2-0.4,0.3c-0.8,0.7-1.1,0.8-4.1-0.7c-0.6-0.3-1.1-0.8-1.5-1.3c-2.8-3.3-6.4-11.7-7.9-15.1l-0.1-0.2l0.5-0.1
				l16.4-9.9l6.4,11.8h-0.3c-1.6,0-1.7,0.6-1.7,1.5c0,0.3,1.8,3.4,9.8,16.3l0.1,0.1l-0.1,0.1c-1.1,0.9-2.2,1-3.5,0.5
				c-1.1-0.4-1.8,0.2-2.5,0.6c-0.2,0.1-0.3,0.2-0.5,0.3C138.2,178.8,138.1,178.8,138,178.8z M134.7,173.9L134.7,173.9
				c0.4,0,0.8,0.3,1.3,0.8c0.4,0.5,0.8,1.4,1.1,2.1c0.3,0.7,0.7,1.6,0.9,1.7h0.1c0.1-0.1,0.3-0.2,0.4-0.3c0.7-0.5,1.6-1.1,2.8-0.7
				c1.2,0.4,2.2,0.3,3.1-0.4c-8.7-13.9-9.8-16-9.8-16.4c0-1,0.1-1.8,1.8-1.8l-6-11l-16.2,9.8H114c1.5,3.6,5,11.7,7.7,14.9
				c0.4,0.5,0.8,0.9,1.4,1.2c2.9,1.4,3,1.3,3.7,0.7c0.1-0.1,0.3-0.2,0.4-0.3l0.1-0.1c1.2-0.9,2.6-1.9,4.5-0.6
				c0.7,0.4,1.1,0.7,1.3,0.9c0.2,0.1,0.3,0.2,0.4,0.2l0,0v-0.1C134.1,174.1,134.4,173.9,134.7,173.9z"/>
		</g>
		<g>
			<path class="st10" d="M151.9,159.1c-3.1,0-13.3,0-14.9,0h-0.2l-2.6-4.8c3-0.8,9-2.4,15-3.7h0.2
				C149.8,152.3,150.8,156.7,151.9,159.1z"/>
			<path class="st6" d="M140.9,159.3c-1.9,0-3.4,0-3.9,0h-0.3l-2.7-5.1l0.2-0.1c3.8-1,9.5-2.5,15-3.7l0.4-0.1v0.2
				c0.4,1.8,1.4,6.2,2.5,8.5l0.1,0.2h-0.3c-0.9,0-2.4,0-4,0C145.7,159.3,143,159.3,140.9,159.3z M136.9,158.9h0.1
				c1.2,0,6.8,0,10.9,0c1.5,0,2.9,0,3.8,0c-1-2.3-2-6.4-2.4-8.2l0,0c-5.4,1.2-11,2.6-14.8,3.7L136.9,158.9z"/>
		</g>
		<g>
			<path class="st10" d="M170.5,154.6L170.5,154.6c-2-0.2-5.7-0.6-7.9-0.8c-1.1-0.1-1.8-0.2-1.9-0.2c-0.3-0.1-0.1-4.9,0-6.9
				c0-0.1,0-0.1,0-0.2c2.2,0.2,8.3,1.4,10.6,1.8c0.1,0.5,0.2,1.1,0.3,1.7C172,152.6,170.8,152.9,170.5,154.6z"/>
			<path class="st6" d="M170.7,154.9h-0.2c-2-0.2-5.6-0.6-7.9-0.8c-0.8-0.1-1.8-0.2-1.9-0.2c-0.2,0-0.4-0.1-0.2-7.1v-0.3h0.2
				c2.2,0.2,8.1,1.3,10.6,1.8h0.1v0.1c0.1,0.3,0.1,0.6,0.2,0.9c0,0.3,0.1,0.5,0.1,0.8c0.3,1.7-0.1,2.4-0.5,3.2
				c-0.2,0.4-0.5,0.8-0.6,1.4L170.7,154.9L170.7,154.9z M160.8,153.5c0.2,0,0.7,0.1,1.8,0.2c2.2,0.2,5.7,0.6,7.7,0.8
				c0.1-0.6,0.4-1,0.6-1.4c0.4-0.7,0.8-1.4,0.5-3c0-0.3-0.1-0.5-0.1-0.8s-0.1-0.5-0.1-0.8c-2.5-0.5-8-1.5-10.3-1.8
				C160.7,151.2,160.8,153.1,160.8,153.5z"/>
		</g>
		<g>
			<path class="st10" d="M158.2,167.7c-0.3,0.4-0.6,0.8-0.9,1.2c-0.2,0.3-0.5,3.8-0.7,7.1c-0.2,2.4-0.3,4.8-0.4,5.9h-0.1
				c-0.4,0-6.7-0.2-8.5-0.3c-0.9-1.4-1.9-3-2.8-4.5c-4.7-7.6-9.8-15.9-9.8-16.4c0-0.9,0.1-1.7,1.9-1.7h0.2c1.6,0,11.8,0,14.9,0
				c0.2,0.4,0.4,0.8,0.6,1.1C153.6,161.6,156.3,164.9,158.2,167.7z"/>
			<path class="st6" d="M156.3,182.2l-0.2-0.1c0,0,0,0-0.1,0c-0.4,0-7.2-0.2-8.5-0.3h-0.1v-0.1c-0.9-1.4-1.9-3-2.8-4.5
				c-9.9-15.8-9.9-16.3-9.9-16.5c0-1,0.2-1.8,2-1.8h0.2c1.2,0,6.8,0,10.9,0c1.7,0,3.1,0,4,0h0.1v0.1c0.2,0.4,0.4,0.7,0.6,1.1
				c1.2,1.4,3.8,4.8,5.7,7.5l0.1,0.1l-0.1,0.1c-0.3,0.4-0.6,0.8-0.9,1.2c0,0.1-0.2,0.9-0.7,7.1c-0.1,1.6-0.2,3.1-0.3,4.3
				c0,0.7-0.1,1.2-0.1,1.6L156.3,182.2z M147.6,181.5c2.2,0.1,7.8,0.3,8.4,0.3c0-0.4,0.1-0.9,0.1-1.4c0.1-1.2,0.2-2.7,0.3-4.3
				c0.5-6.7,0.7-7.1,0.7-7.2c0.2-0.4,0.5-0.8,0.8-1.2c-1.9-2.7-4.5-6-5.6-7.4c-0.3-0.3-0.5-0.7-0.6-1.1c-0.9,0-2.3,0-3.9,0
				c-4.1,0-9.7,0-10.9,0h-0.2c-1.6,0-1.7,0.6-1.7,1.5c0,0.3,1.4,2.8,9.8,16.3C145.8,178.6,146.8,180.1,147.6,181.5z"/>
		</g>
		<g>
			<path class="st10" d="M163.1,163.8c-2.6,1.7-4.1,3-4.9,3.9c-1.9-2.8-4.6-6.1-5.7-7.5c-0.3-0.3-0.5-0.7-0.6-1.1
				c-1.1-2.3-2.1-6.8-2.5-8.5c8.2-1.8,8.8-4.1,11.2-4l0,0l0.2,0.2c-0.1,2-0.2,6.8,0,6.9c0.1,0,0.8,0.1,1.9,0.2L163.1,163.8z"/>
			<path class="st6" d="M158.2,168l-0.1-0.2c-2-2.9-4.9-6.5-5.7-7.5c-0.3-0.4-0.5-0.7-0.7-1.1c-1.1-2.4-2.1-6.8-2.5-8.6v-0.2h0.2
				c4.7-1,6.9-2.3,8.3-3.1c1.1-0.6,1.8-1,2.9-0.9h0.1l0.3,0.3v0.1c-0.2,4.4-0.1,6.3,0,6.7c0.1,0,0.2,0,0.4,0c0.3,0,0.8,0.1,1.4,0.2
				h0.1l0.5,10.2l-0.1,0.1c-2.2,1.4-3.8,2.7-4.9,3.8L158.2,168z M149.5,150.7c0.4,1.9,1.4,6.1,2.5,8.4c0.2,0.4,0.4,0.7,0.6,1.1
				c0.8,1,3.6,4.4,5.6,7.3c1.1-1.2,2.7-2.4,4.7-3.7l-0.5-9.7c-0.5-0.1-0.9-0.1-1.2-0.1c-0.2,0-0.4-0.1-0.5-0.1l0,0
				c-0.2,0-0.4-0.1-0.2-7l-0.1-0.1c-0.9,0-1.6,0.3-2.7,0.9C156.3,148.4,154.1,149.6,149.5,150.7z"/>
		</g>
		<g>
			<path class="st10" d="M159.5,169.8L159.5,169.8c0,0.1-0.1,0.2-0.1,0.3c-0.1,0.6-0.2,1.7-0.3,3.1c-0.1,0.8-0.1,1.8-0.2,2.7
				l-2.4,0.1c0.3-3.3,0.6-6.8,0.7-7.1c0.2-0.4,0.5-0.9,0.9-1.2C158.7,168.4,159.2,169.1,159.5,169.8z"/>
			<path class="st6" d="M156.4,176.2V176c0.5-6.7,0.7-7.1,0.7-7.2c0.2-0.5,0.6-0.9,0.9-1.3l0.1-0.2l0.1,0.2c0.5,0.7,0.9,1.4,1.3,2.1
				v0.1v0.1c0,0.1-0.1,0.2-0.1,0.3c-0.1,0.5-0.2,1.5-0.3,3.1c-0.1,0.8-0.1,1.8-0.2,2.7v0.2L156.4,176.2z M158.2,167.9
				c-0.3,0.3-0.5,0.7-0.7,1c-0.1,0.1-0.2,1-0.7,6.9l2.1-0.1c0.1-0.9,0.1-1.8,0.2-2.6c0.1-1.7,0.2-2.7,0.3-3.2c0-0.1,0-0.2,0.1-0.3
				C159,169.2,158.6,168.5,158.2,167.9z"/>
		</g>
		<g>
			<path class="st10" d="M164,172.7c-0.4,0.1-1,0.2-1.4,0.4c-0.5,0.2-2.6,0.2-3.4,0.2c0.1-1.4,0.2-2.6,0.3-3.1l0.2-0.1
				c0.8-0.4,2-1,2.3-1.1c0.4-0.2,0.1,1.1,0,1.6s0.7,0.1,1.4-0.2c0.2-0.1,0.4-0.2,0.6-0.3C164.1,170.9,164.1,171.8,164,172.7z"/>
			<path class="st6" d="M160,173.4c-0.4,0-0.7,0-0.8,0H159v-0.2c0.1-1.7,0.2-2.7,0.3-3.2v-0.1l0.3-0.1c1.3-0.6,2.1-1,2.4-1.1
				c0.2-0.1,0.3,0,0.3,0c0.2,0.2,0.1,0.7,0,1.4c0,0.1,0,0.2-0.1,0.3l0,0c0.1,0.1,0.8-0.2,1.1-0.4h0.1c0.2-0.1,0.4-0.2,0.5-0.3
				l0.2-0.1v0.3c0.1,0.9,0.1,1.8,0,2.8v0.1H164c-0.4,0.1-1,0.2-1.4,0.4C162.2,173.4,160.9,173.4,160,173.4z M159.4,173.1
				c1.1,0,2.8,0,3.2-0.1s0.9-0.2,1.3-0.3c0.1-0.8,0.1-1.5,0-2.3c-0.1,0.1-0.2,0.1-0.3,0.2h-0.1c-0.8,0.3-1.2,0.5-1.5,0.3
				c-0.1-0.1-0.1-0.2-0.1-0.3s0-0.2,0.1-0.3c0.1-0.3,0.2-0.9,0.1-1.1c-0.3,0.1-1.1,0.5-2.3,1.1l-0.1,0.1
				C159.5,170.7,159.5,171.6,159.4,173.1z"/>
		</g>
		<g>
			<path class="st10" d="M163.6,183.9c-1,0-3.7,0.2-4.2,0c-0.3-0.1-0.6-0.3-0.8-0.5c0-0.6,0.1-1.3,0.1-2.2h4.6
				c0,0.2,0.1,0.4,0.2,0.6C163.6,182.1,163.6,183.1,163.6,183.9z"/>
			<path class="st6" d="M160.5,184.2c-0.5,0-0.9,0-1.1-0.1c-0.3-0.1-0.6-0.3-0.9-0.5l-0.1-0.1v-0.1c0-0.6,0.1-1.3,0.1-2.2V181h4.9
				v0.1c0,0.2,0.1,0.3,0.2,0.5c0.1,0.1,0.2,0.3,0.2,2.2v0.2h-0.2c-0.3,0-0.9,0-1.4,0C161.5,184.2,160.9,184.2,160.5,184.2z
				 M158.7,183.3c0.2,0.2,0.5,0.3,0.7,0.4c0.3,0.1,1.7,0.1,2.7,0c0.5,0,0.9,0,1.3,0c0-1.5-0.1-1.8-0.2-1.9c-0.1-0.2-0.1-0.3-0.2-0.5
				h-4.3C158.8,182.2,158.8,182.8,158.7,183.3z"/>
		</g>
		<g>
			<path class="st10" d="M159,176c-0.1,1.8-0.2,3.7-0.3,5.3c0,0.9-0.1,1.6-0.1,2.2c-0.8-0.5-1.9-1.3-2.4-1.4
				c0.1-1.1,0.2-3.5,0.4-5.9L159,176z"/>
			<path class="st6" d="M158.7,183.7l-0.2-0.2c-0.2-0.1-0.4-0.2-0.6-0.4c-0.7-0.4-1.4-0.9-1.8-1H156V182c0.1-1.1,0.2-3.4,0.4-5.9
				V176l2.7-0.1v0.2c-0.1,1.5-0.2,3.2-0.3,5.3c0,0.9-0.1,1.6-0.1,2.2L158.7,183.7z M156.4,181.9c0.4,0.2,1.1,0.6,1.7,1
				c0.1,0.1,0.2,0.1,0.3,0.2c0-0.5,0.1-1.2,0.1-1.9c0.1-2,0.2-3.7,0.3-5.1l-2.1,0.1C156.6,178.6,156.4,180.8,156.4,181.9z"/>
		</g>
		<g>
			<path class="st10" d="M163.8,173.7c-0.4,1.1-0.3,3.6-0.3,5.1c0,0.7,0,1.1-0.1,1.2c-0.2,0.2-0.3,0.7-0.2,1.2h-4.6
				c0.1-1.5,0.2-3.5,0.3-5.3c0.1-1,0.1-1.9,0.2-2.7c0.8,0,2.9,0,3.4-0.2c0.4-0.1,1-0.3,1.4-0.4C164,173.1,163.9,173.4,163.8,173.7z"
				/>
			<path class="st6" d="M163.5,181.4h-4.9v-0.2c0.1-2.1,0.2-3.8,0.3-5.3c0.1-1,0.1-1.9,0.2-2.7V173h0.4c0.9,0,2.7,0,3.2-0.1
				c0.4-0.1,0.9-0.3,1.4-0.4l0.2-0.1v0.2c0,0.3-0.1,0.7-0.2,1l0,0c-0.3,0.9-0.3,2.7-0.3,4.2c0,0.3,0,0.6,0,0.9c0,1-0.1,1.2-0.2,1.3
				c-0.1,0.1-0.2,0.6-0.1,1L163.5,181.4z M158.9,181.1h4.2c0-0.4,0-0.9,0.3-1.1c0,0,0.1-0.3,0.1-1.1c0-0.3,0-0.6,0-0.9
				c0-1.5,0-3.3,0.3-4.3c0.1-0.2,0.1-0.5,0.2-0.7c-0.4,0.1-0.9,0.2-1.2,0.3c-0.5,0.2-1.9,0.2-3.3,0.2h-0.1c-0.1,0.8-0.1,1.7-0.2,2.5
				C159.1,177.4,159,179.1,158.9,181.1z"/>
		</g>
	</g>
</g>
<g>
	<g>
		<g>
			<path class="st9" d="M1041.5,162.7L1041.5,162.7L1041.5,162.7c0.4-1.8,0.9-3.5,1.8-4.8c3.1-5.3,4.4-11.5,3.1-17.6l-0.4-3.1
				c-0.4-1.3-0.4-2.6-0.9-4.4l0,0c-1.8-9.2-3.1-16.7-5.7-22.9c-4-11-7.5-22-10.1-33c-1.3-6.2-2.2-18.9-2.2-18.9
				c-0.4-3.5-3.1-6.2-6.6-5.7c-2.2,0-4,1.3-5.3,3.1c-3.1,4.8-7.5,10.1-9.2,11c-2.6,0.9-12.3,1.3-17.6,1.3c-7,0.4-9.7,0.4-11.5,1.3
				c-1.8,0.4-3.5,0.4-5.7,0c-3.5-0.9-26-2.6-33.9,0.4c-2.6,0.9-4.4,1.8-6.2,2.6l0,0l-1.8,0.9c-0.9,0.4-2.2,1.3-3.1,1.8
				c-11,1.3-22.5,2.2-33.9,2.6l0,0h-3.1c-18.9,0.4-30.4-1.8-31.7-2.6c-0.4,0-0.4-0.4-0.9-0.4c-4-1.8-14.5-6.6-27.3-4.4l0,0h-0.4l0,0
				h-0.9c-13.7,3.1-21.1,6.6-22.9,7.5c-2.6,0.9-22.5,7.5-30.8,10.1c-2.2-3.5-5.3-9.7-7-13.7c-6.2-12.3-7.5-14.1-9.2-15.4
				c-2.2-1.3-16.3-6.6-20.3-7.9c-20.3-7-21.1-6.6-23.8-4.8c-1.8,0.9-2.2,1.8-7.5,10.6c-4.4,7.5-16.3,27.3-20.3,30
				c-2.2,0.9-12.8,4.8-24.2,9.2c-14.5,5.7-33,12.8-48,18.5c-8.4,3.1-14.1,5.7-18.5,7.5c-2.6,0.9-4.4,1.8-5.7,2.2
				c-1.8,0.9-6.6,3.1-5.3,7.9c0.4,2.2,0.9,2.6,7.9,10.6c7.5,8.4,21.1,23.3,25.5,31.7c2.2,4,6.6,14.1,12.3,28.2l0,0
				c4.4,11,9.7,24.2,14.1,36.1l0,0c4,10.1,6.6,18.5,8.4,23.3c3.1,9.2,13.7,43.2,30.8,97.8l0,0l7.5,24.2l8.8,31.3l0,0l37,129.5
				c0.9,2.6,3.1,4.4,6.2,4.4c0.4,0,0.4,0,0.9,0l77.1-9.2h0.4h0.4l0,0l55.9-9.7l0,0h0.9h0.4l64.3-16.3c2.2-0.4,4-2.2,4.4-4.4
				c2.2-8.8,8.4-24.7,14.1-29.1c0.4-0.4,0.9-0.9,1.3-0.9c0,0,0.4-0.4,0.9-1.3l0,0c17.6-21.1,17.6-25.5,17.6-27.7v-1.3
				c0.4-21.6,3.5-28.6,4.8-30.8l0.4-0.9l0,0c4.4-6.2,7.5-13.2,8.8-20.7c1.8-8.4,2.6-14.1,3.1-16.3l0,0l0,0l0.4-1.8v-0.4
				c1.3-12.3,4.8-24.2,9.7-35.7c3.5-7,7.5-13.7,12.8-19.8c3.1-4,6.2-7.5,7.5-11.9c0.4-1.8,1.3-4,2.2-5.7c0.4-1.3,0.9-2.2,1.3-3.5
				l0,0c1.8-4.4,3.1-9.2,3.1-14.1c0-4,0-9.7-0.9-17.2l0,0c-0.9-7.5-1.8-14.5-3.1-22c-1.8-9.7-4-18.9-7.5-27.7l0,0l0,0
				c-0.4-1.3-0.9-2.2-1.3-3.5c-0.4-0.9-0.9-1.8-0.9-3.1c0,0,0.4-0.4,2.2-1.8c6.2-3.5,14.1-10.6,18.1-19.4l0,0c0.9-2.2,1.3-4,1.8-6.2
				c0.9-5.3,0.4-10.6-1.3-15.4C1041.5,166.7,1041.1,164.9,1041.5,162.7z"/>
		</g>
		<g>
			<path class="st10" d="M820.8,241.1c-4.4,0.4-11.9,0.9-14.1,0.9c-4,0-9.2-7.5-14.1-7.5s-8.4,5.7-11,8.8c-2.2,2.2-5.3,4.4-14.1,5.7
				c-1.8,0.4-4,0.4-6.6,0.4c-14.1,0.9-18.9-5.7-27.3-7c-7.9-1.8-8.4,1.3-14.1,2.6c-5.3,1.3-9.2-6.2-23.8-13.7
				c-14.5-7-13.2-2.2-19.4-0.9c-6.6,1.8-16.7-7.9-18.1-7.5c-0.9,0.4-5.3,7.5-8.8,13.2c-4.4-11.5-9.2-24.7-14.1-36.1
				c8.8-1.3,28.2-4,62.5-9.7c43.6-7,80.6-13.7,88.5-15C793.1,191.4,808.5,227,820.8,241.1z"/>
			<path class="st6" d="M758.3,249.9c-7.9,0-12.8-2.2-16.7-4.4c-2.6-1.3-4.8-2.2-7.9-3.1c-5.3-0.9-7,0-9.2,0.9
				c-1.3,0.4-2.6,1.3-4.4,1.8c-3.1,0.9-5.7-1.3-10.1-4.4c-3.1-2.6-7.9-5.7-14.5-9.2c-10.6-5.3-12.3-4-15-2.6c-0.9,0.4-2.2,1.3-4,1.8
				c-4.8,1.3-11-3.1-15-5.7c-1.3-0.9-2.6-1.8-3.1-1.8c-0.4,0.4-2.2,2.6-8.4,12.8l-0.9,1.3l-0.4-1.3c-4.4-11.9-9.7-25.1-14.1-36.1
				l-0.4-0.9h0.9c8.8-1.3,28.2-4,62.5-9.7c45.8-7.5,84.1-14.1,88.5-15h0.4l0.4,0.4c6.2,15,22.5,52,34.4,66.5l0.9,1.3h-1.3
				c-4.8,0.4-11.9,0.9-14.1,0.9s-4.4-1.8-6.6-3.5c-2.6-2.2-5.3-4-7.5-4c-3.5,0-6.6,4-8.8,6.6c-0.4,0.4-0.9,1.3-1.3,1.8
				c-2.2,2.6-5.7,4.8-14.5,5.7c-1.8,0.4-4,0.4-6.6,0.4C760.1,249.9,759.2,249.9,758.3,249.9z M729.2,240.7c1.3,0,2.6,0,4.4,0.4
				c3.1,0.4,5.3,1.8,7.9,3.1c4.4,2.2,9.7,4.8,18.9,4c2.6,0,4.8-0.4,6.6-0.4c9.2-1.3,11.9-3.5,13.7-5.3c0.4-0.4,0.9-0.9,1.3-1.8
				c2.6-3.1,5.7-7,10.1-7c2.6,0,5.7,2.2,8.4,4.4c2.2,1.8,4.4,3.5,5.7,3.5c2.2,0,9.2-0.4,12.8-0.4c-11.9-15-27.3-49.8-33.5-65.2
				c-6.6,1.3-43.6,7.5-88.1,15c-33.5,5.3-52.9,8.4-61.7,9.7c4.4,10.6,9.2,22.9,13.2,33.9c7-11.9,7.9-11.9,8.4-12.3
				c0.9,0,1.8,0.4,4.4,2.2c3.5,2.6,9.7,6.6,13.7,5.7c1.8-0.4,2.6-0.9,3.5-1.8c3.5-1.8,5.7-2.6,16.3,2.6c7,3.5,11.5,6.6,15,9.2
				c4,3.1,6.2,4.8,8.8,4c1.8-0.4,3.1-0.9,4-1.3C725.3,241.1,726.6,240.7,729.2,240.7z"/>
		</g>
		<g>
			<path class="st10" d="M859.6,131l-71.8,43.6l-1.3,0.4c-7.9,1.3-44.9,7.9-88.5,15c-34.4,5.7-54.2,8.4-62.5,9.7
				c-5.3-12.8-10.1-24.2-12.8-29.1c-7-12.8-32.6-38.8-33-40.1s91.2-35.7,98.2-38.8c7-3.1,26.9-40.1,28.6-41
				c1.3-0.9,35.7,11.5,37.9,12.8c2.2,1.3,15.4,31.3,17.6,31.3s34.4-10.6,36.1-11.5c1.8-0.9,8.4-4,21.6-7c0.4,0,0.4,0,0.9,0
				L859.6,131z"/>
			<path class="st6" d="M634.5,200.2v-0.4c-4-10.1-9.7-23.3-12.8-28.6c-4.8-8.4-18.1-23.3-26.4-32.6c-5.7-6.6-6.6-7.5-6.6-7.9
				c0-0.9-0.4-1.3,74-30c12.8-4.8,22.5-8.8,24.7-9.7c4.8-2.2,16.3-21.6,22.9-32.2c4-6.6,4.8-8.4,5.7-8.8
				c2.2-1.3,38.3,12.8,38.3,12.8c0.9,0.4,3.1,4.4,7.5,13.2c3.5,7,8.8,17.2,10.1,18.1c2.2,0,33.9-10.6,35.7-11.5
				c0.9-0.4,7.9-4,21.6-7c0.4,0,0.9,0,0.9,0h0.4l30,55.5l-72.7,44l-1.3,0.4c-1.8,0.4-41,7-88.5,15c-34.4,5.7-54.2,8.4-62.5,9.7
				L634.5,200.2z M590.5,130.6c0.9,0.9,3.5,4,6.2,7c7.9,8.8,21.6,24.2,26.4,32.6c3.1,5.3,8.4,18.5,12.3,28.6
				c8.8-1.3,28.2-4,62.1-9.7c47.6-7.9,86.8-14.5,88.5-15l1.3-0.4l70.9-43.2l-28.6-53.3h-0.4c-13.7,3.1-20.7,6.6-21.6,6.6
				c-1.3,0.9-33.9,11.5-36.6,11.5c-1.8,0-4-4.4-11-18.5c-3.1-5.7-6.2-11.9-7-12.8c-2.2-1.3-33.9-12.8-37-12.8
				c-0.4,0.4-2.6,4.4-4.8,7.9c-9.2,15.4-18.5,30.8-23.3,32.6c-2.2,0.9-11.9,4.8-24.7,9.7C637.6,111.6,595.3,127.9,590.5,130.6z"/>
		</g>
		<g>
			<path class="st10" d="M797.9,322.6L688.3,357c-9.7-31.7-26.4-85-30.8-97.8c-1.8-5.3-4.8-14.1-8.8-23.8c3.5-5.7,7.9-12.8,8.8-13.2
				c1.3-0.4,11.5,9.2,18.1,7.5c6.6-1.8,4.8-6.2,19.4,0.9c14.5,7,18.5,14.5,23.8,13.7c5.3-1.3,5.7-4,14.1-2.6
				c7.9,1.8,12.8,7.9,27.3,7c2.6,0,4.8-0.4,6.6-0.4c0,0.4,0,0.4,0,0.9c0,4,18.9,41.8,26.4,57.7C796.2,312,797.5,317.3,797.9,322.6z"
				/>
			<path class="st6" d="M687.8,357.8V357c-6.2-19.4-26-83.7-30.8-97.8c-1.8-5.3-4.8-14.1-8.8-23.8V235v-0.4
				c7.9-13.2,8.8-13.2,9.2-13.7c0.9,0,1.8,0.4,4.4,2.2c3.5,2.2,9.7,6.6,13.7,5.3c1.8-0.4,2.6-0.9,3.5-1.8c3.5-1.8,5.7-2.6,16.3,2.6
				c7,3.5,11.5,6.6,15,9.2c4,3.1,6.2,4.8,8.8,4c1.8-0.4,3.1-0.9,4-1.3c2.6-1.3,4.4-2.2,10.1-0.9c3.1,0.4,5.3,1.8,7.9,3.1
				c4.4,2.2,9.7,4.8,18.9,4c2.6,0,4.8-0.4,6.6-0.4h0.4v0.4c0,0.4,0,0.9,0,0.9c0,3.1,12.3,28.6,20.7,45.8c2.2,4.4,4,8.4,5.7,11.5
				c2.2,5.3,3.5,10.6,4.4,15.9v0.4h-0.4L687.8,357.8z M649.9,235.4c3.5,9.7,6.6,18.1,8.4,23.3c4.8,14.1,24.2,77.1,30.4,97.3
				l108.3-33.9c-0.9-5.3-2.2-10.1-4-15c-1.3-3.1-3.5-7-5.7-11.5c-11.5-23.3-21.1-43.2-21.1-46.2l0,0c-1.8,0-3.5,0.4-5.7,0.4
				c-9.2,0.4-15-2.2-19.4-4.4c-2.6-1.3-4.8-2.2-7.9-3.1c-5.3-0.9-7,0-9.2,0.9c-1.3,0.4-2.6,1.3-4.4,1.8c-3.1,0.9-5.7-1.3-10.1-4.4
				c-3.1-2.6-7.9-5.7-14.5-9.2c-10.6-5.3-12.3-4-15-2.6c-0.9,0.4-2.2,1.3-4,1.8c-4.8,1.3-11-3.1-15-5.7c-1.3-0.9-2.6-1.8-3.1-1.8
				C657.9,223.5,656.1,225.7,649.9,235.4z"/>
		</g>
		<g>
			<path class="st10" d="M804.1,391.3c-38.8,7.5-80.2,16.7-99.1,21.1l-8.8-31.3c0,0-3.1-10.1-7.5-24.2l109.7-34.4
				c4,22,4.8,55.5,5.3,63.4C803.7,386.9,803.7,389.1,804.1,391.3z"/>
			<path class="st6" d="M704.6,413.3l-9.2-31.7l0,0c0,0-3.1-10.1-7.5-24.2v-0.9l111-34.8v0.9c2.6,15.9,4,37.4,4.8,51.5
				c0.4,5.3,0.4,9.7,0.9,11.9c0,0.9,0.4,2.6,0.4,5.3v0.9h-0.9C764,400.1,721.3,409.8,704.6,413.3L704.6,413.3z M689.1,357.4
				c4.4,14.1,7.5,23.8,7.5,23.8l8.8,30.4c16.7-4,58.1-13.2,97.8-21.1c-0.4-2.2-0.4-3.5-0.4-4.4c-0.4-2.2-0.4-6.6-0.9-11.9
				c-0.9-14.1-1.8-34.8-4.4-50.7L689.1,357.4z"/>
		</g>
		<g>
			<path class="st10" d="M992.6,378.1c-0.4,2.6-1.3,8.4-3.1,16.3c-1.3,6.6-4,12.8-7.5,18.1c-16.3-6.2-47.6-17.6-52.4-19.4
				c-6.6-2.6-26.4-13.7-37-15c22-3.1,23.3-4,26.4-4.8c1.3-0.4,5.7-6.6,11.5-15c5.3,2.6,15.4,7.5,20.3,8.8
				C956.1,368.9,982.9,375.9,992.6,378.1z"/>
			<path class="st6" d="M982,413.3h-0.4c-16.3-6.2-47.6-17.6-52.4-19.4c-1.8-0.9-4.8-2.2-8.4-4c-8.8-4.4-20.7-10.1-28.2-11l-5.7-0.9
				l5.7-0.9c20.3-2.6,22.9-3.5,25.5-4.4h0.9c0.9-0.4,3.1-3.1,11-14.5l0.4-0.4l0.4,0.4c4.4,2.2,15,7.5,20.3,8.8
				c4,1.3,18.5,4.8,41.8,11h0.4v0.9c-0.4,3.1-1.8,9.7-3.1,16.3c-1.3,6.6-4,12.8-7.9,18.5L982,413.3z M897,378.1
				c7.5,2.2,17.2,6.6,24.7,10.1c3.5,1.8,6.6,3.1,8.4,4c4.8,1.8,35.2,13.2,52,19.4c3.5-5.3,6.2-11,7-17.2c1.3-6.2,2.2-12.3,2.6-15.4
				c-23.3-6.2-37.4-9.7-41.4-11c-4.8-1.8-15-6.6-19.8-8.8c-7.9,12.3-10.1,14.5-11.5,14.5h-0.4C916,375,913.8,375.5,897,378.1z"/>
		</g>
		<g>
			<path class="st10" d="M1026.5,298.8c-1.3,3.1-2.2,6.2-3.5,9.2c-2.6,7.5-11.5,13.2-19.8,30.8c-5.3,11.9-8.8,24.7-10.6,37.4
				c0,0,0,0.4-0.4,1.8c-9.7-2.6-36.1-9.2-41.8-11c-4.8-1.8-15-6.6-20.3-8.8c11-17.2,26-42.3,26-42.3s-9.7-15-22-35.2
				c7.9,0.4,35.7,1.3,37.4,1.3h0.4c2.2,0.4,7,4,10.6,6.2c1.3,0.9,2.6,1.3,4,2.2c2.6,0.9,14.5,0,18.5,0c0.4,0,0.4,0,0.9,0
				C1008,290.9,1019.5,295.7,1026.5,298.8z"/>
			<path class="st6" d="M993.1,379h-0.9c-23.3-6.2-37.9-10.1-41.8-11c-5.3-1.8-15.9-7-20.3-9.2l-0.9-0.4l0.4-0.9
				c10.1-15.9,23.8-38.8,25.5-41.8c-1.8-2.6-10.6-16.7-22-34.8l-0.9-1.3h1.3c13.2,0.4,35.7,1.3,37.4,1.3c0.4,0,0.4,0,0.9,0
				c1.8,0.4,4.8,2.6,7.9,4.8c0.9,0.4,1.8,1.3,2.6,1.8c1.3,0.9,2.2,1.3,3.5,2.2c1.3,0.4,7,0.4,11.5,0c2.6,0,5.3-0.4,6.6,0
				c0.4,0,0.4,0,0.9,0c1.8,0,8.4,2.6,20.7,7.9l0.4,0.4l-0.4,0.4c-0.4,1.3-0.9,2.2-1.3,3.5c-0.9,1.8-1.3,4-2.2,6.2
				c-1.3,3.5-3.5,6.2-6.6,10.1c-4,4.8-8.8,11-13.2,21.1c-5.3,11.9-8.8,24.7-10.1,37.4c0,0,0,0.4-0.4,1.8L993.1,379z M931.4,357.8
				c4.8,2.2,14.5,7,19.4,8.8c4,1.3,18.1,4.8,41,11c0-0.4,0-0.9,0-0.9c1.8-13.2,5.3-25.5,10.6-37.9c4.8-10.1,9.7-16.3,13.7-21.1
				c3.1-3.5,5.3-6.6,6.2-9.7c0.9-2.2,1.3-4,2.2-6.2c0.4-0.9,0.9-1.8,0.9-2.6c-14.5-6.2-18.5-7.5-19.4-7.9c-0.4,0-0.4,0-0.9,0
				c-1.8,0-4,0-6.6,0c-6.2,0.4-10.6,0.4-12.3-0.4c-1.3-0.4-2.6-1.3-4-2.2c-0.9-0.4-1.8-0.9-2.6-1.8c-3.1-1.8-6.2-4-7.9-4.4H971
				c-1.8,0-29.5-0.9-36.1-1.3c12.3,19.4,21.6,33.9,21.6,33.9l0.4,0.4l-0.4,0.4C956.9,316.4,942.4,341.1,931.4,357.8z"/>
		</g>
		<g>
			<path class="st11" d="M991.3,126.2c-10.6-0.9-13.2,9.7-48.9,17.6h-0.9c-26.4,5.7-52.9,12.8-66.1,16.3L859.6,131l-29.5-54.2
				c12.3-2.2,23.3,3.5,25.1,4.4c2.2,0.9,14.1,3.1,33.9,2.6h3.1c6.2,10.1,20.3,32.6,20.7,32.6c0.4,0,34.4-9.7,49.8-14.1L991.3,126.2z
				"/>
			<path class="st6" d="M875,161l-45.8-85h0.9c11-2.2,20.3,2.2,24.2,4c0.4,0.4,0.9,0.4,1.3,0.4c2.2,0.9,13.7,3.1,33.9,2.6h3.5v0.4
				c8.8,14.5,18.5,30.4,20.3,32.2c2.2-0.4,20.3-5.7,34.8-9.7c5.7-1.8,10.6-3.1,15-4h0.4l30.4,25.1h-2.2c-4.4-0.4-7,1.3-11.9,4
				c-6.6,3.5-16.3,8.8-37,13.7H942c-24.2,5.3-49.3,11.9-66.1,16.3L875,161z M831.4,77.3l44.5,81.9c16.7-4.4,41.4-11,65.6-16.3h0.9
				c20.3-4.4,30-9.7,36.6-13.2c4-2.2,7-4,10.6-4l-26.4-22c-4,1.3-9.2,2.6-14.5,4c-27.7,7.9-34.8,9.7-35.2,9.7
				c-0.4,0-1.3,0-21.1-32.6h-2.6c-20.3,0.4-32.2-2.2-34.4-2.6c-0.4,0-0.9-0.4-1.3-0.4C849.9,79.5,841.5,75.5,831.4,77.3z"/>
		</g>
		<g>
			<path class="st10" d="M963.1,102.4c-15.4,4.4-49.3,13.7-49.8,14.1c-0.4,0.4-14.5-22.5-20.7-32.6c11.9,0,23.3-1.3,34.8-2.6
				c2.2-0.9,4.4-1.8,6.2-2.6L963.1,102.4z"/>
			<path class="st6" d="M913.3,117.4c-0.9,0-2.2-2.2-21.6-33l-0.9-0.9h1.3c11.5,0,23.3-1.3,34.8-2.6c2.2-0.9,4-1.8,6.2-2.6l0.4-0.4
				l30.8,25.5l-1.3,0.4C947.2,107.7,913.8,116.9,913.3,117.4L913.3,117.4z M893.5,84.3c14.5,23.8,18.5,30,19.8,31.3
				c3.5-0.9,33-9.2,48-13.7l-27.7-23.3c-1.8,0.9-4,1.8-6.2,2.6C916.4,83.4,905,84.3,893.5,84.3z"/>
		</g>
		<g>
			<path class="st10" d="M1038.9,134.1c-10.1-1.8-37-7-46.7-7.9h-0.9l0,0l-28.2-23.3l-29.5-24.7c1.8-0.9,3.5-1.8,5.7-2.6
				c5.7-2.2,26.9-1.3,30-0.4c2.6,0.9,9.7,0,10.6-0.9c0.9-0.9,22-0.4,28.2-2.6c6.2-2.2,12.8-13.7,12.8-13.7s0.9,13.2,2.6,19.8
				c2.6,11.5,6.2,22.9,10.1,34.4C1035.8,119.6,1037.5,126.6,1038.9,134.1z"/>
			<path class="st6" d="M1039.7,135h-0.9c-11-2.2-37-7-46.7-7.9h-1.3l0,0l-58.6-48.9l0.9-0.4c1.8-0.9,3.5-1.8,5.7-2.6
				c6.2-2.6,27.3-1.3,30.4-0.4c2.6,0.9,8.8,0,9.7-0.4c0.4-0.4,1.3-0.4,8.8-0.9c6.6-0.4,16.3-0.4,19.8-1.8
				c5.7-1.8,12.3-13.2,12.3-13.2l1.3-2.2v2.2c0,0,0.9,13.2,2.6,19.8c2.6,11.5,6.2,22.9,10.1,33.9c2.6,7,4.4,14.5,5.3,21.6
				L1039.7,135z M991.7,125.3h0.9c9.2,0.9,34.4,5.7,45.8,7.9c-1.3-7-3.1-13.7-5.3-20.3c-4-11-7.5-22.9-10.1-34.4
				c-0.9-5.3-1.8-13.7-2.2-17.6c-2.2,3.5-7.5,10.6-11.9,11.9c-3.5,1.3-13.2,1.8-20.3,1.8c-3.5,0-7,0.4-7.9,0.4
				c-1.3,0.9-8.4,1.8-11,0.9c-3.1-0.9-23.8-1.8-29.5,0.4c-1.8,0.9-3.5,1.3-4.8,2.2L991.7,125.3z"/>
		</g>
		<g>
			<path class="st10" d="M1037.5,184.8c-0.4,1.8-0.9,3.1-1.3,4.8c-5.3,0-15.9,1.8-30.4,10.6c-0.9,0.4-2.2,1.3-3.1,1.8l-2.2-44
				c9.7,0.9,26,2.6,34.8,3.5C1034,169.3,1039.3,174.6,1037.5,184.8z"/>
			<path class="st6" d="M1002.3,203.3l-2.2-46.2h0.9c9.7,0.9,26,2.6,34.8,3.5h0.9v0.9c-0.4,3.5,0,6.2,0.9,9.7
				c0.9,3.5,2.2,7.9,1.3,13.2l0,0c-0.4,1.8-0.9,3.5-1.3,4.8v0.4h-0.4c-4.8,0-15.4,1.8-30,10.6l-0.4,0.4c-0.9,0.4-1.8,0.9-2.2,1.3
				L1002.3,203.3z M1001.4,158.8l2.2,41.8c0.4-0.4,0.9-0.4,1.3-0.9l0.4-0.4c14.5-8.8,25.1-10.6,30.4-11c0.4-1.3,0.9-2.6,1.3-4.4
				c0.9-5.3,0-8.8-1.3-12.8c-0.9-3.1-1.8-6.2-1.3-9.2C1026.1,161.4,1011.1,160.1,1001.4,158.8z"/>
		</g>
		<g>
			<path class="st10" d="M1036.2,189.6c-3.1,7.5-10.1,13.7-15,16.3c-6.2,3.5-6.6,6.6-4.4,12.3c0.4,1.3,0.9,2.2,1.3,3.5
				c-2.6,1.8-7.9,5.3-11,7.5c-0.9,0.4-1.8,0.9-2.6,1.3c-3.1,1.3-6.6,2.6-6.2,0.9c0.4-2.2,1.8-7.9,0-7c-1.3,0.4-7,3.1-10.1,4.8
				l-0.4-0.9l0,0c-1.8-2.6-3.5-5.7-5.7-9.2c3.5-4,10.1-9.7,21.6-17.2c0.9-0.4,1.8-1.3,3.1-1.8
				C1020.4,191.4,1030.9,189.6,1036.2,189.6z"/>
			<path class="st6" d="M998.8,233.2c-0.4,0-0.9,0-1.3-0.4s-0.4-0.9-0.4-1.3s0-0.9,0.4-1.3c0.4-1.3,0.9-4,0.4-4.8
				c-1.3,0.4-4.4,2.2-7.5,3.5l-3.5,1.8l-0.9-1.8c-1.3-2.6-3.5-5.7-5.7-9.2l-0.4-0.4l0.4-0.4c4.8-5.3,11.9-11,21.6-17.2
				c0.4-0.4,1.3-0.9,1.8-0.9l1.3-0.9c15-9.2,25.5-10.6,30.8-11h1.3l-0.4,0.9c-3.1,7.9-10.1,14.1-15.4,16.7c-6.2,3.5-6.2,6.6-4,11.5
				c0.4,0.9,0.9,2.2,1.3,3.5l0.4,0.4l-0.4,0.4c-2.6,1.8-7.9,5.3-11.5,7.5c-0.9,0.4-1.8,0.9-2.6,1.3h-0.4
				C1001.9,232.3,1000.1,233.2,998.8,233.2z M998.3,223.5c0.4,0,0.4,0,0.9,0.4c0.9,0.9,0.4,3.1,0,6.2c0,0.4,0,0.9-0.4,1.3l0,0
				c0.4,0.4,3.5-0.9,4.8-1.8h0.4c0.9-0.4,1.8-0.9,2.2-1.3c3.1-1.8,7.9-5.3,10.6-7c-0.4-1.3-0.9-2.2-1.3-3.1
				c-2.2-5.7-2.2-9.7,4.8-13.7c4.8-2.6,11-7.9,14.5-15c-5.3,0.4-15.4,2.2-28.6,10.6l-1.3,0.9c-0.4,0.4-1.3,0.9-1.8,0.9
				c-9.2,5.7-16.3,11.5-21.1,16.3c2.2,3.1,4,6.2,5.7,8.8l0.4,0.4l2.2-0.9c3.1-1.3,6.6-3.1,7.5-3.5
				C997.9,223.5,998.3,223.5,998.3,223.5z"/>
		</g>
		<g>
			<path class="st10" d="M1028.7,269.8c-3.1-0.4-5.7-0.9-8.4-1.8c-1.8-0.4-11,0-15.4,0c0-6.6-0.4-17.6,1.3-22.5
				c0.4-1.3,0.9-2.6,0.9-4.4c0.4-4,0.4-7.9,0-11.9c3.5-2.2,8.8-5.7,11-7.5c3.5,8.8,6.2,17.6,7.5,26.9
				C1027,255.7,1027.9,262.7,1028.7,269.8z"/>
			<path class="st6" d="M1029.2,270.6h-0.9c-3.1-0.4-5.7-0.9-8.8-1.8c-1.3-0.4-9.7,0-15,0h-0.9V268c0-1.3,0-2.2,0-3.5
				c0-6.6,0-15,1.3-19.4c0.4-1.3,0.9-2.6,0.9-4c0.4-4,0.4-7.9,0-11.9v-0.4l0.4-0.4c3.5-2.2,8.8-5.7,11-7.5l0.9-0.4l0.4,0.9
				c3.5,8.8,6.2,17.6,7.5,26.9c1.3,7,2.2,14.1,3.1,21.1V270.6z M1015.1,267.1c2.6,0,4.4,0,5.3,0c2.6,0.9,5.3,1.3,7.5,1.8
				c-0.4-6.6-1.8-13.7-3.1-20.3c-1.3-8.8-4-17.6-7-25.5c-2.6,1.8-7,4.8-10.1,6.6c0.4,4,0.4,7.9,0,11.5c0,1.3-0.4,3.1-0.9,4.4
				c-1.3,4-1.3,12.3-1.3,18.9c0,0.9,0,1.8,0,3.1C1008,267.6,1012,267.1,1015.1,267.1z"/>
		</g>
		<g>
			<path class="st10" d="M1029.2,286.5c-0.4,4-1.3,8.4-2.6,11.9c-7-3.1-18.5-7.9-20.3-7.9c-0.4,0-0.4,0-0.9,0c0-3.5,0-7.9-0.9-9.2
				c-0.4-0.9-0.9-1.8-0.9-2.6c-0.4-1.8,0-4.4,0.9-5.3c0.4-0.4,0.4-2.6,0.4-5.3c4.4,0,13.7-0.4,15.4,0c2.6,0.9,5.7,1.3,8.4,1.8
				C1029.2,277.2,1029.2,283,1029.2,286.5z"/>
			<path class="st6" d="M1027,299.7l-2.6-1.3c-6.6-2.6-16.3-7-18.1-7c-0.4,0-0.4,0-0.9,0h-0.9v-0.9c0-7-0.4-8.8-0.9-8.8
				c-0.4-0.9-0.9-1.8-0.9-2.6c-0.4-2.2,0-4.4,0.9-5.7c0-0.4,0.4-1.8,0.4-4.8v-0.9h0.9c3.1,0,13.7-0.4,15.4,0
				c2.6,0.9,5.7,1.3,8.4,1.8h0.4v0.4c0.4,5.7,0.9,11.5,0.9,16.7l0,0c-0.4,4.4-1.3,8.4-2.6,12.3L1027,299.7z M1005.8,289.6
				C1005.8,289.6,1006.3,289.6,1005.8,289.6c2.2,0.4,9.7,3.5,18.9,7l1.3,0.4c1.3-3.5,2.2-7,2.6-11c0-5.3-0.4-10.6-0.9-15.9
				c-2.6-0.4-5.3-0.9-7.9-1.8c-1.3,0-7.9,0-14.1,0c0,3.5,0,4.8-0.9,5.3c-0.4,0.4-0.9,2.6-0.4,4.4c0,0.9,0.4,1.8,0.9,2.2
				C1005.4,281.2,1005.8,282.5,1005.8,289.6z"/>
		</g>
		<g>
			<path class="st10" d="M893.1,373.7c0,1.3-0.4,2.6-0.4,4l0,0c-8.4,1.3-19.8,2.6-35.2,4.4c-15,1.8-33.9,5.3-53.3,8.8
				c-0.4-2.2-0.4-4.4-0.4-5.3c-0.9-7.9-1.8-41.4-5.3-63.4l94.7-29.5C893.5,323.5,894,363.6,893.1,373.7z"/>
			<path class="st6" d="M803.7,392.2v-0.9c-0.4-2.2-0.4-4.4-0.4-5.3c-0.4-2.2-0.4-6.6-0.9-11.9c-0.9-14.1-1.8-35.7-4.8-51.5v-0.4
				l96-30v0.9c0.4,30,1.3,70.9,0.4,81c0,0.9-0.4,2.2-0.4,4.4v0.4h-0.4c-8.8,1.3-20.7,2.6-35.2,4.4c-14.1,1.8-31.7,4.8-52.9,8.8
				H803.7z M798.8,323.1c2.6,15.9,4,37,4.4,51.1c0.4,5.3,0.4,9.7,0.9,11.9c0,0.9,0.4,2.6,0.4,4.4c21.1-4,38.8-7,52.4-8.8
				c14.5-1.8,25.5-3.1,34.8-4.4c0.4-1.3,0.4-2.6,0.4-3.5l0,0c0.9-10.1,0.4-49.8-0.4-79.7L798.8,323.1z"/>
		</g>
		<g>
			<path class="st10" d="M892.6,293.1l-94.7,29.5c-0.9-5.3-2.2-10.6-4.4-15.9c-7.5-15.9-26.4-53.7-26.4-57.7c0-0.4,0-0.4,0-0.9
				c8.8-1.3,11.9-3.1,14.1-5.7c2.6-3.1,6.2-8.8,11-8.8c4.8,0,10.6,7.5,14.1,7.5c2.6,0,9.7-0.4,14.1-0.9c1.8,2.2,4,4,6.2,5.3
				c15.4,7.5,13.7,5.7,19.4,1.8c5.7-4,11-8.8,19.8-3.1c8.4,5.3,7.5,5.7,8.8,4.4c0.9-1.3,4-4.4,8.4,1.3c4,4.8,6.2,15.9,9.2,16.7
				C892.2,273.7,892.2,283,892.6,293.1z"/>
			<path class="st6" d="M797.5,323.5v-0.9c-0.9-5.3-2.2-10.6-4.4-15.4c-1.8-3.5-4-8.4-6.6-13.7c-11.5-23.3-20.3-41.4-20.3-44.5v-0.4
				v-0.9h0.9c9.2-1.3,11.9-3.5,13.7-5.3c0.4-0.4,0.9-0.9,1.3-1.3c2.6-3.1,5.7-7.5,10.1-7.5c2.6,0,5.7,2.2,8.4,4.4
				c2.2,1.8,4.4,3.5,5.7,3.5c2.6,0,10.1-0.4,14.1-0.9h0.4l0.4,0.4c1.8,2.2,3.5,4,5.7,5.3c12.8,6.2,13.2,5.7,16.3,3.1
				c0.4-0.4,1.3-0.9,1.8-1.3l0.4-0.4c5.3-4,11.5-8.4,19.8-2.6c2.6,1.8,4.4,3.1,5.7,4c0.9,0.4,1.3,0.9,1.8,0.9l0,0v-0.4
				c0.4-0.4,1.8-2.2,4-2.2c1.8,0,3.5,1.3,5.3,3.5c1.8,2.2,3.5,6.2,4.8,9.2c1.3,3.1,3.1,7,4,7.5h0.4v5.3c0,5.7,0.4,13.2,0.4,20.7v0.4
				h-0.4L797.5,323.5z M768,249.1L768,249.1c0,3.1,11.9,27.7,19.8,44c2.6,5.3,4.8,10.1,6.6,13.7c2.2,4.8,3.5,10.1,4,15l93.4-29.1
				c0-7.5-0.4-14.5-0.4-20.3V268c-1.8-0.9-3.1-4-4.4-7.9c-1.3-3.1-2.6-6.6-4.4-8.8c-1.8-1.8-3.1-3.1-4.4-3.1c-0.9,0-1.8,0.4-3.1,1.8
				l0,0c-0.9,1.3-1.3,0.9-3.5-0.4c-1.3-0.9-3.1-2.2-5.7-4c-7.9-4.8-13.2-0.9-18.5,2.6l-0.4,0.4c-0.9,0.4-1.3,0.9-1.8,1.3
				c-3.5,3.1-4.8,3.5-18.1-3.1c-2.2-1.3-4.4-3.1-6.2-5.3c-5.3,0.4-11.5,0.9-14.1,0.9c-2.2,0-4.4-1.8-6.6-3.5c-2.6-2.2-5.3-4-7.5-4
				c-3.5,0-6.6,4-9.2,6.6c-0.4,0.4-0.9,0.9-1.3,1.8C779.4,246,776.4,247.7,768,249.1z"/>
		</g>
		<g>
			<path class="st10" d="M956.5,315.6c0,0-15,25.1-26,42.3c-5.3,8.4-9.7,14.5-11.5,15c-3.1,0.9-4.4,1.8-26.4,4.8l0,0
				c0.4-1.8,0.4-3.1,0.4-4c0.9-10.1,0.4-50.2-0.4-80.6c-0.4-10.1-0.4-18.9-0.9-25.5c0.4,0,0.9,0,0.9,0c3.5-2.2,7.5-6.6,13.7-4.4
				c5.3,1.8,10.1,1.8,15-2.2c4.4,7,8.4,13.7,12.3,19.8C946.8,300.6,956.5,315.6,956.5,315.6z"/>
			<path class="st6" d="M891.8,378.5v-0.9c0.4-1.8,0.4-3.1,0.4-4c0.9-7.9,0.4-34.8-0.4-80.6c-0.4-10.1-0.4-18.9-0.9-25.5v-0.9h0.9
				h0.4c0.4-0.4,1.3-0.9,1.8-1.3c3.1-2.2,7-4.8,12.3-3.1c5.7,2.2,9.7,1.3,14.1-2.2l0.4-0.4l0.4,0.9c4.4,7,8.4,13.7,12.3,19.8
				c12.3,19.8,22,34.8,22,35.2l0.4,0.4l-0.4,0.4c0,0.4-15,25.5-26,42.3c-8.4,12.8-10.6,15-11.9,15.4l-0.9,0.4
				c-3.1,0.9-5.3,1.8-26,4.4L891.8,378.5z M892.6,268c0,6.6,0.4,15,0.4,24.7c0.9,45.8,1.3,73.1,0.4,81c0,0.9,0,1.8-0.4,3.1
				c19.4-2.6,22-3.5,24.7-4.4l0.9-0.4c0.4,0,2.6-1.8,11-14.5c10.1-15.9,23.8-38.8,25.5-41.8c-1.8-2.6-10.6-16.7-21.6-34.8
				c-4-6.2-7.9-12.8-11.9-19.4c-4.4,3.5-9.2,4-15,1.8c-4.8-1.8-7.9,0.9-11,2.6c-0.9,0.4-1.3,0.9-2.2,1.3
				C893.1,268,893.1,268,892.6,268z"/>
		</g>
		<g>
			<path class="st10" d="M921.7,260.5c-4.8,4-9.7,4.4-15,2.2c-6.2-2.2-10.1,2.2-13.7,4.4c-0.4,0-0.9,0.4-0.9,0
				c-3.1-0.9-5.3-11.9-9.2-16.7c-4.4-5.7-7.5-2.6-8.4-1.3c-0.9,1.3,0,0.9-8.8-4.4c-8.8-5.3-14.5-0.9-19.8,3.1s-4,5.7-19.4-1.8
				c-2.2-1.3-4.4-3.1-6.2-5.3c-11.9-14.1-27.7-49.8-34.4-66.5l1.3-0.4l71.8-43.6l15.9,29.1l11.5,21.1c-7.9,0-8.4,3.1-8.4,7.5
				C878.5,190.9,901,227.5,921.7,260.5z"/>
			<path class="st6" d="M892.2,268h-0.4c-1.8-0.4-3.5-4-5.3-8.4c-1.3-3.1-2.6-6.6-4.4-8.8c-1.8-1.8-3.1-3.1-4.4-3.1l0,0
				c-0.9,0-1.8,0.4-3.1,1.8l0,0c-0.9,1.3-1.3,0.9-3.5-0.4c-1.3-0.9-3.1-2.2-5.7-4c-7.9-4.8-13.2-0.9-18.5,2.6l-0.4,0.4
				c-0.9,0.4-1.3,0.9-1.8,1.3c-3.5,3.1-4.8,3.5-18.1-3.1c-2.6-1.3-4.8-3.5-6.6-5.7c-12.3-14.5-28.2-51.5-34.8-66.5l-0.4-0.9l2.2-0.4
				l72.2-43.6l28.2,52H886c-7,0-7.5,2.6-7.5,6.6c0,1.3,7.9,15,43.2,71.8l0.4,0.4l-0.4,0.4c-4.8,4-9.7,4.4-15.4,2.2
				c-4.8-1.8-7.9,0.9-11,2.6c-0.9,0.4-1.3,0.9-2.2,1.3C893.1,268,892.6,268,892.2,268z M877.7,246.4L877.7,246.4
				c1.8,0,3.5,1.3,5.7,3.5c1.8,2.2,3.5,6.2,4.8,9.2c1.3,3.1,3.1,7,4,7.5h0.4c0.4-0.4,1.3-0.9,1.8-1.3c3.1-2.2,7-4.8,12.3-3.1
				c5.3,1.8,9.7,1.3,13.7-1.8c-38.3-61.2-43.2-70.5-43.2-72.2c0-4.4,0.4-7.9,7.9-7.9l-26.4-48.4l-71.4,43.2h-0.9
				c6.6,15.9,22,51.5,33.9,65.6c1.8,2.2,3.5,4,6.2,5.3c12.8,6.2,13.2,5.7,16.3,3.1c0.4-0.4,1.3-0.9,1.8-1.3l0.4-0.4
				c5.3-4,11.5-8.4,19.8-2.6c3.1,1.8,4.8,3.1,5.7,4c0.9,0.4,1.3,0.9,1.8,0.9l0,0v-0.4C875,247.3,876.3,246.4,877.7,246.4z"/>
		</g>
		<g>
			<path class="st10" d="M953.4,181.2c-13.7,0-58.6,0-65.6,0h-0.9l-11.5-21.1c13.2-3.5,39.6-10.6,66.1-16.3h0.9
				C944.2,151.3,948.6,170.7,953.4,181.2z"/>
			<path class="st6" d="M905,182.1c-8.4,0-15,0-17.2,0h-1.3l-11.9-22.5l0.9-0.4c16.7-4.4,41.8-11,66.1-16.3l1.8-0.4v0.9
				c1.8,7.9,6.2,27.3,11,37.4l0.4,0.9h-1.3c-4,0-10.6,0-17.6,0C926.1,182.1,914.2,182.1,905,182.1z M887.3,180.3h0.4
				c5.3,0,30,0,48,0c6.6,0,12.8,0,16.7,0c-4.4-10.1-8.8-28.2-10.6-36.1l0,0c-23.8,5.3-48.4,11.5-65.2,16.3L887.3,180.3z"/>
		</g>
		<g>
			<path class="st10" d="M1035.3,161.4L1035.3,161.4c-8.8-0.9-25.1-2.6-34.8-3.5c-4.8-0.4-7.9-0.9-8.4-0.9c-1.3-0.4-0.4-21.6,0-30.4
				c0-0.4,0-0.4,0-0.9c9.7,0.9,36.6,6.2,46.7,7.9c0.4,2.2,0.9,4.8,1.3,7.5C1041.9,152.6,1036.7,153.9,1035.3,161.4z"/>
			<path class="st6" d="M1036.2,162.7h-0.9c-8.8-0.9-24.7-2.6-34.8-3.5c-3.5-0.4-7.9-0.9-8.4-0.9c-0.9,0-1.8-0.4-0.9-31.3v-1.3h0.9
				c9.7,0.9,35.7,5.7,46.7,7.9h0.4v0.4c0.4,1.3,0.4,2.6,0.9,4c0,1.3,0.4,2.2,0.4,3.5c1.3,7.5-0.4,10.6-2.2,14.1
				c-0.9,1.8-2.2,3.5-2.6,6.2L1036.2,162.7L1036.2,162.7z M992.6,156.6c0.9,0,3.1,0.4,7.9,0.9c9.7,0.9,25.1,2.6,33.9,3.5
				c0.4-2.6,1.8-4.4,2.6-6.2c1.8-3.1,3.5-6.2,2.2-13.2c0-1.3-0.4-2.2-0.4-3.5c0-1.3-0.4-2.2-0.4-3.5c-11-2.2-35.2-6.6-45.4-7.9
				C992.2,146.4,992.6,154.8,992.6,156.6z"/>
		</g>
		<g>
			<path class="st10" d="M981.2,219.1c-1.3,1.8-2.6,3.5-4,5.3c-0.9,1.3-2.2,16.7-3.1,31.3c-0.9,10.6-1.3,21.1-1.8,26h-0.4
				c-1.8,0-29.5-0.9-37.4-1.3c-4-6.2-8.4-13.2-12.3-19.8c-20.7-33.5-43.2-70-43.2-72.2c0-4,0.4-7.5,8.4-7.5h0.9c7,0,52,0,65.6,0
				c0.9,1.8,1.8,3.5,2.6,4.8C960.9,192.2,972.8,206.8,981.2,219.1z"/>
			<path class="st6" d="M972.8,283l-0.9-0.4c0,0,0,0-0.4,0c-1.8,0-31.7-0.9-37.4-1.3h-0.4v-0.4c-4-6.2-8.4-13.2-12.3-19.8
				c-43.6-69.6-43.6-71.8-43.6-72.7c0-4.4,0.9-7.9,8.8-7.9h0.9c5.3,0,30,0,48,0c7.5,0,13.7,0,17.6,0h0.4v0.4
				c0.9,1.8,1.8,3.1,2.6,4.8c5.3,6.2,16.7,21.1,25.1,33l0.4,0.4l-0.4,0.4c-1.3,1.8-2.6,3.5-4,5.3c0,0.4-0.9,4-3.1,31.3
				c-0.4,7-0.9,13.7-1.3,18.9c0,3.1-0.4,5.3-0.4,7L972.8,283z M934.5,279.9c9.7,0.4,34.4,1.3,37,1.3c0-1.8,0.4-4,0.4-6.2
				c0.4-5.3,0.9-11.9,1.3-18.9c2.2-29.5,3.1-31.3,3.1-31.7c0.9-1.8,2.2-3.5,3.5-5.3c-8.4-11.9-19.8-26.4-24.7-32.6
				c-1.3-1.3-2.2-3.1-2.6-4.8c-4,0-10.1,0-17.2,0c-18.1,0-42.7,0-48,0h-0.9c-7,0-7.5,2.6-7.5,6.6c0,1.3,6.2,12.3,43.2,71.8
				C926.5,267.1,931,273.7,934.5,279.9z"/>
		</g>
		<g>
			<path class="st10" d="M1002.7,201.9c-11.5,7.5-18.1,13.2-21.6,17.2c-8.4-12.3-20.3-26.9-25.1-33c-1.3-1.3-2.2-3.1-2.6-4.8
				c-4.8-10.1-9.2-30-11-37.4c36.1-7.9,38.8-18.1,49.3-17.6l0,0l0.9,0.9c-0.4,8.8-0.9,30,0,30.4c0.4,0,3.5,0.4,8.4,0.9L1002.7,201.9
				z"/>
			<path class="st6" d="M981.2,220.4l-0.4-0.9c-8.8-12.8-21.6-28.6-25.1-33c-1.3-1.8-2.2-3.1-3.1-4.8c-4.8-10.6-9.2-30-11-37.9v-0.9
				h0.9c20.7-4.4,30.4-10.1,36.6-13.7c4.8-2.6,7.9-4.4,12.8-4h0.4l1.3,1.3v0.4c-0.9,19.4-0.4,27.7,0,29.5c0.4,0,0.9,0,1.8,0
				c1.3,0,3.5,0.4,6.2,0.9h0.4l2.2,44.9l-0.4,0.4c-9.7,6.2-16.7,11.9-21.6,16.7L981.2,220.4z M942.8,144.2c1.8,8.4,6.2,26.9,11,37
				c0.9,1.8,1.8,3.1,2.6,4.8c3.5,4.4,15.9,19.4,24.7,32.2c4.8-5.3,11.9-10.6,20.7-16.3l-2.2-42.7c-2.2-0.4-4-0.4-5.3-0.4
				c-0.9,0-1.8-0.4-2.2-0.4l0,0c-0.9,0-1.8-0.4-0.9-30.8l-0.4-0.4c-4,0-7,1.3-11.9,4C972.8,134.1,963.1,139.4,942.8,144.2z"/>
		</g>
		<g>
			<path class="st10" d="M986.9,228.4L986.9,228.4c0,0.4-0.4,0.9-0.4,1.3c-0.4,2.6-0.9,7.5-1.3,13.7c-0.4,3.5-0.4,7.9-0.9,11.9
				l-10.6,0.4c1.3-14.5,2.6-30,3.1-31.3c0.9-1.8,2.2-4,4-5.3C983.4,222.2,985.6,225.3,986.9,228.4z"/>
			<path class="st6" d="M973.2,256.5v-0.9c2.2-29.5,3.1-31.3,3.1-31.7c0.9-2.2,2.6-4,4-5.7l0.4-0.9l0.4,0.9c2.2,3.1,4,6.2,5.7,9.2
				v0.4v0.4c0,0.4-0.4,0.9-0.4,1.3c-0.4,2.2-0.9,6.6-1.3,13.7c-0.4,3.5-0.4,7.9-0.9,11.9v0.9L973.2,256.5z M981.2,220
				c-1.3,1.3-2.2,3.1-3.1,4.4c-0.4,0.4-0.9,4.4-3.1,30.4l9.2-0.4c0.4-4,0.4-7.9,0.9-11.5c0.4-7.5,0.9-11.9,1.3-14.1
				c0-0.4,0-0.9,0.4-1.3C984.7,225.7,982.9,222.6,981.2,220z"/>
		</g>
		<g>
			<path class="st10" d="M1006.7,241.1c-1.8,0.4-4.4,0.9-6.2,1.8c-2.2,0.9-11.5,0.9-15,0.9c0.4-6.2,0.9-11.5,1.3-13.7l0.9-0.4
				c3.5-1.8,8.8-4.4,10.1-4.8c1.8-0.9,0.4,4.8,0,7c-0.4,2.2,3.1,0.4,6.2-0.9c0.9-0.4,1.8-0.9,2.6-1.3
				C1007.2,233.2,1007.2,237.2,1006.7,241.1z"/>
			<path class="st6" d="M989.1,244.2c-1.8,0-3.1,0-3.5,0h-0.9v-0.9c0.4-7.5,0.9-11.9,1.3-14.1v-0.4l1.3-0.4
				c5.7-2.6,9.2-4.4,10.6-4.8c0.9-0.4,1.3,0,1.3,0c0.9,0.9,0.4,3.1,0,6.2c0,0.4,0,0.9-0.4,1.3l0,0c0.4,0.4,3.5-0.9,4.8-1.8h0.4
				c0.9-0.4,1.8-0.9,2.2-1.3l0.9-0.4v1.3c0.4,4,0.4,7.9,0,12.3v0.4h-0.4c-1.8,0.4-4.4,0.9-6.2,1.8
				C998.8,244.2,993.1,244.2,989.1,244.2z M986.4,242.9c4.8,0,12.3,0,14.1-0.4c1.8-0.4,4-0.9,5.7-1.3c0.4-3.5,0.4-6.6,0-10.1
				c-0.4,0.4-0.9,0.4-1.3,0.9h-0.4c-3.5,1.3-5.3,2.2-6.6,1.3c-0.4-0.4-0.4-0.9-0.4-1.3s0-0.9,0.4-1.3c0.4-1.3,0.9-4,0.4-4.8
				c-1.3,0.4-4.8,2.2-10.1,4.8l-0.4,0.4C986.9,232.3,986.9,236.3,986.4,242.9z"/>
		</g>
		<g>
			<path class="st10" d="M1004.9,290.5c-4.4,0-16.3,0.9-18.5,0c-1.3-0.4-2.6-1.3-3.5-2.2c0-2.6,0.4-5.7,0.4-9.7h20.3
				c0,0.9,0.4,1.8,0.9,2.6C1004.9,282.5,1004.9,286.9,1004.9,290.5z"/>
			<path class="st6" d="M991.3,291.8c-2.2,0-4,0-4.8-0.4c-1.3-0.4-2.6-1.3-4-2.2l-0.4-0.4v-0.4c0-2.6,0.4-5.7,0.4-9.7v-0.9h21.6v0.4
				c0,0.9,0.4,1.3,0.9,2.2c0.4,0.4,0.9,1.3,0.9,9.7v0.9h-0.9c-1.3,0-4,0-6.2,0C995.7,291.8,993.1,291.8,991.3,291.8z M983.4,287.8
				c0.9,0.9,2.2,1.3,3.1,1.8c1.3,0.4,7.5,0.4,11.9,0c2.2,0,4,0,5.7,0c0-6.6-0.4-7.9-0.9-8.4c-0.4-0.9-0.4-1.3-0.9-2.2h-18.9
				C983.8,283,983.8,285.6,983.4,287.8z"/>
		</g>
		<g>
			<path class="st10" d="M984.7,255.7c-0.4,7.9-0.9,16.3-1.3,23.3c0,4-0.4,7-0.4,9.7c-3.5-2.2-8.4-5.7-10.6-6.2
				c0.4-4.8,0.9-15.4,1.8-26L984.7,255.7z"/>
			<path class="st6" d="M983.4,289.6l-0.9-0.9c-0.9-0.4-1.8-0.9-2.6-1.8c-3.1-1.8-6.2-4-7.9-4.4h-0.4v-0.4c0.4-4.8,0.9-15,1.8-26
				v-0.4l11.9-0.4v0.9c-0.4,6.6-0.9,14.1-1.3,23.3c0,4-0.4,7-0.4,9.7L983.4,289.6z M973.2,281.7c1.8,0.9,4.8,2.6,7.5,4.4
				c0.4,0.4,0.9,0.4,1.3,0.9c0-2.2,0.4-5.3,0.4-8.4c0.4-8.8,0.9-16.3,1.3-22.5l-9.2,0.4C974.1,267.1,973.2,276.8,973.2,281.7z"/>
		</g>
		<g>
			<path class="st10" d="M1005.8,245.5c-1.8,4.8-1.3,15.9-1.3,22.5c0,3.1,0,4.8-0.4,5.3c-0.9,0.9-1.3,3.1-0.9,5.3h-20.3
				c0.4-6.6,0.9-15.4,1.3-23.3c0.4-4.4,0.4-8.4,0.9-11.9c3.5,0,12.8,0,15-0.9c1.8-0.4,4.4-1.3,6.2-1.8
				C1006.7,242.9,1006.3,244.2,1005.8,245.5z"/>
			<path class="st6" d="M1004.5,279.4h-21.6v-0.9c0.4-9.2,0.9-16.7,1.3-23.3c0.4-4.4,0.4-8.4,0.9-11.9v-0.9h1.8c4,0,11.9,0,14.1-0.4
				c1.8-0.4,4-1.3,6.2-1.8l0.9-0.4v0.9c0,1.3-0.4,3.1-0.9,4.4l0,0c-1.3,4-1.3,11.9-1.3,18.5c0,1.3,0,2.6,0,4c0,4.4-0.4,5.3-0.9,5.7
				c-0.4,0.4-0.9,2.6-0.4,4.4L1004.5,279.4z M984.2,278.1h18.5c0-1.8,0-4,1.3-4.8c0,0,0.4-1.3,0.4-4.8c0-1.3,0-2.6,0-4
				c0-6.6,0-14.5,1.3-18.9c0.4-0.9,0.4-2.2,0.9-3.1c-1.8,0.4-4,0.9-5.3,1.3c-2.2,0.9-8.4,0.9-14.5,0.9h-0.4c-0.4,3.5-0.4,7.5-0.9,11
				C985.1,261.8,984.7,269.3,984.2,278.1z"/>
		</g>
	</g>
</g>
</svg>
