<?xml version="1.0" encoding="utf-8"?>
<!-- Generator: Adobe Illustrator 26.0.0, SVG Export Plug-In . SVG Version: 6.00 Build 0)  -->
<svg version="1.1" id="Layer_1" xmlns="http://www.w3.org/2000/svg" xmlns:xlink="http://www.w3.org/1999/xlink" x="0px" y="0px"
	 viewBox="0 0 1116 360" style="enable-background:new 0 0 1116 360;" xml:space="preserve">
<style type="text/css">
	.st0{fill:#ED2F38;}
	.st1{opacity:0.24;}
	.st2{opacity:0.19;fill:#FFFFFF;enable-background:new    ;}
	.st3{font-family:'Poppins-ExtraBold';}
	.st4{font-size:65.16px;}
	.st5{font-size:71.62px;}
	.st6{fill:#1B1E2A;}
	.st7{font-family:'Poppins-Regular';}
	.st8{font-size:69.773px;}
	.st9{fill:#FFFFFF;}
	.st10{fill:#46506D;}
	.st11{fill:#1B1D29;}
</style>
<rect class="st0" width="1116" height="360"/>
<g>
	<g class="st1">
		<text transform="matrix(1 0 0 1 -143.1066 115.6999)" class="st2 st3 st4">DUMAGUETE</text>
		<text transform="matrix(1 0 0 1 285.7234 115.6999)" class="st2 st3 st4">DUMAGUETE</text>
	</g>
	<g class="st1">
		<text transform="matrix(1 0 0 1 -397.3566 176.5399)" class="st2 st3 st4">DUMAGUETE</text>
		<text transform="matrix(1 0 0 1 31.4734 176.5399)" class="st2 st3 st4">DUMAGUETE</text>
	</g>
	<g class="st1">
		<text transform="matrix(1 0 0 1 -103.7266 234.0798)" class="st2 st3 st4">DUMAGUETE</text>
		<text transform="matrix(1 0 0 1 325.1034 234.0798)" class="st2 st3 st4">DUMAGUETE</text>
	</g>
	<g class="st1">
		<text transform="matrix(1 0 0 1 -400.5767 295.0599)" class="st2 st3 st4">DUMAGUETE</text>
		<text transform="matrix(1 0 0 1 28.2534 295.0599)" class="st2 st3 st4">DUMAGUETE</text>
	</g>
	<g class="st1">
		<text transform="matrix(1 0 0 1 -211.1266 355.1899)" class="st2 st3 st4">DUMAGUETE</text>
		<text transform="matrix(1 0 0 1 217.7034 355.1899)" class="st2 st3 st4">DUMAGUETE</text>
	</g>
	<g class="st1">
		<text transform="matrix(1 0 0 1 -51.9866 59.0099)" class="st2 st3 st5">DUMAGUETE</text>
	</g>
	<g class="st1">
		<text transform="matrix(1 0 0 1 714.0093 115.6999)" class="st2 st3 st4">DUMAGUETE</text>
	</g>
	<g class="st1">
		<text transform="matrix(1 0 0 1 459.7594 176.5399)" class="st2 st3 st4">DUMAGUETE</text>
		<text transform="matrix(1 0 0 1 888.5894 176.5399)" class="st2 st3 st4">DUMAGUETE</text>
	</g>
	<g class="st1">
		<text transform="matrix(1 0 0 1 753.3894 234.0798)" class="st2 st3 st4">DUMAGUETE</text>
	</g>
	<g class="st1">
		<text transform="matrix(1 0 0 1 456.5393 295.0598)" class="st2 st3 st4">DUMAGUETE</text>
		<text transform="matrix(1 0 0 1 885.3694 295.0598)" class="st2 st3 st4">DUMAGUETE</text>
	</g>
	<g class="st1">
		<text transform="matrix(1 0 0 1 645.9893 355.1898)" class="st2 st3 st4">DUMAGUETE</text>
		<text transform="matrix(1 0 0 1 1074.8193 355.1898)" class="st2 st3 st4">DUMAGUETE</text>
	</g>
	<g class="st1">
		<text transform="matrix(1 0 0 1 413.5199 59.0103)" class="st2 st3 st5">DUMAGUETE</text>
	</g>
	<g class="st1">
		<text transform="matrix(1 0 0 1 876.388 59.5117)" class="st2 st3 st5">DUMAGUETE</text>
	</g>
</g>
<g>
	<text transform="matrix(1 0 0 1 184.1554 213.1137)" class="st6 st7 st8">TACLOBO</text>
	<g>
		<g>
			<path class="st9" d="M171.9,154.9L171.9,154.9L171.9,154.9c0.1-0.4,0.2-0.8,0.4-1.1c0.7-1.2,1-2.6,0.7-4l-0.1-0.7
				c-0.1-0.3-0.1-0.6-0.2-1l0,0c-0.4-2.1-0.7-3.8-1.3-5.2c-0.9-2.5-1.7-5-2.3-7.5c-0.3-1.4-0.5-4.3-0.5-4.3
				c-0.1-0.8-0.7-1.4-1.5-1.3c-0.5,0-0.9,0.3-1.2,0.7c-0.7,1.1-1.7,2.3-2.1,2.5c-0.6,0.2-2.8,0.3-4,0.3c-1.6,0.1-2.2,0.1-2.6,0.3
				c-0.4,0.1-0.8,0.1-1.3,0c-0.8-0.2-5.9-0.6-7.7,0.1c-0.6,0.2-1,0.4-1.4,0.6l0,0l-0.4,0.2c-0.2,0.1-0.5,0.3-0.7,0.4
				c-2.5,0.3-5.1,0.5-7.7,0.6l0,0h-0.7c-4.3,0.1-6.9-0.4-7.2-0.6c-0.1,0-0.1-0.1-0.2-0.1c-0.9-0.4-3.3-1.5-6.2-1l0,0h-0.1l0,0h-0.2
				c-3.1,0.7-4.8,1.5-5.2,1.7c-0.6,0.2-5.1,1.7-7,2.3c-0.5-0.8-1.2-2.2-1.6-3.1c-1.4-2.8-1.7-3.2-2.1-3.5c-0.5-0.3-3.7-1.5-4.6-1.8
				c-4.6-1.6-4.8-1.5-5.4-1.1c-0.4,0.2-0.5,0.4-1.7,2.4c-1,1.7-3.7,6.2-4.6,6.8c-0.5,0.2-2.9,1.1-5.5,2.1c-3.3,1.3-7.5,2.9-10.9,4.2
				c-1.9,0.7-3.2,1.3-4.2,1.7c-0.6,0.2-1,0.4-1.3,0.5c-0.4,0.2-1.5,0.7-1.2,1.8c0.1,0.5,0.2,0.6,1.8,2.4c1.7,1.9,4.8,5.3,5.8,7.2
				c0.5,0.9,1.5,3.2,2.8,6.4l0,0c1,2.5,2.2,5.5,3.2,8.2l0,0c0.9,2.3,1.5,4.2,1.9,5.3c0.7,2.1,3.1,9.8,7,22.2l0,0l1.7,5.5l2,7.1l0,0
				l8.4,29.4c0.2,0.6,0.7,1,1.4,1c0.1,0,0.1,0,0.2,0l17.5-2.1h0.1h0.1l0,0l12.7-2.2l0,0h0.2h0.1l14.6-3.7c0.5-0.1,0.9-0.5,1-1
				c0.5-2,1.9-5.6,3.2-6.6c0.1-0.1,0.2-0.2,0.3-0.2c0,0,0.1-0.1,0.2-0.3l0,0c4-4.8,4-5.8,4-6.3v-0.3c0.1-4.9,0.8-6.5,1.1-7l0.1-0.2
				l0,0c1-1.4,1.7-3,2-4.7c0.4-1.9,0.6-3.2,0.7-3.7l0,0l0,0l0.1-0.4v-0.1c0.3-2.8,1.1-5.5,2.2-8.1c0.8-1.6,1.7-3.1,2.9-4.5
				c0.7-0.9,1.4-1.7,1.7-2.7c0.1-0.4,0.3-0.9,0.5-1.3c0.1-0.3,0.2-0.5,0.3-0.8l0,0c0.4-1,0.7-2.1,0.7-3.2c0-0.9,0-2.2-0.2-3.9l0,0
				c-0.2-1.7-0.4-3.3-0.7-5c-0.4-2.2-0.9-4.3-1.7-6.3l0,0l0,0c-0.1-0.3-0.2-0.5-0.3-0.8c-0.1-0.2-0.2-0.4-0.2-0.7
				c0,0,0.1-0.1,0.5-0.4c1.4-0.8,3.2-2.4,4.1-4.4l0,0c0.2-0.5,0.3-0.9,0.4-1.4c0.2-1.2,0.1-2.4-0.3-3.5
				C171.9,155.8,171.8,155.4,171.9,154.9z"/>
		</g>
		<g>
			<path class="st10" d="M121.8,172.7c-1,0.1-2.7,0.2-3.2,0.2c-0.9,0-2.1-1.7-3.2-1.7s-1.9,1.3-2.5,2c-0.5,0.5-1.2,1-3.2,1.3
				c-0.4,0.1-0.9,0.1-1.5,0.1c-3.2,0.2-4.3-1.3-6.2-1.6c-1.8-0.4-1.9,0.3-3.2,0.6c-1.2,0.3-2.1-1.4-5.4-3.1c-3.3-1.6-3-0.5-4.4-0.2
				c-1.5,0.4-3.8-1.8-4.1-1.7c-0.2,0.1-1.2,1.7-2,3c-1-2.6-2.1-5.6-3.2-8.2c2-0.3,6.4-0.9,14.2-2.2c9.9-1.6,18.3-3.1,20.1-3.4
				C115.5,161.4,119,169.5,121.8,172.7z"/>
			<path class="st6" d="M107.6,174.7c-1.8,0-2.9-0.5-3.8-1c-0.6-0.3-1.1-0.5-1.8-0.7c-1.2-0.2-1.6,0-2.1,0.2c-0.3,0.1-0.6,0.3-1,0.4
				c-0.7,0.2-1.3-0.3-2.3-1c-0.7-0.6-1.8-1.3-3.3-2.1c-2.4-1.2-2.8-0.9-3.4-0.6c-0.2,0.1-0.5,0.3-0.9,0.4c-1.1,0.3-2.5-0.7-3.4-1.3
				c-0.3-0.2-0.6-0.4-0.7-0.4c-0.1,0.1-0.5,0.6-1.9,2.9l-0.2,0.3l-0.1-0.3c-1-2.7-2.2-5.7-3.2-8.2l-0.1-0.2h0.2
				c2-0.3,6.4-0.9,14.2-2.2c10.4-1.7,19.1-3.2,20.1-3.4h0.1l0.1,0.1c1.4,3.4,5.1,11.8,7.8,15.1l0.2,0.3h-0.3
				c-1.1,0.1-2.7,0.2-3.2,0.2s-1-0.4-1.5-0.8c-0.6-0.5-1.2-0.9-1.7-0.9c-0.8,0-1.5,0.9-2,1.5c-0.1,0.1-0.2,0.3-0.3,0.4
				c-0.5,0.6-1.3,1.1-3.3,1.3c-0.4,0.1-0.9,0.1-1.5,0.1C108,174.7,107.8,174.7,107.6,174.7z M101,172.6c0.3,0,0.6,0,1,0.1
				c0.7,0.1,1.2,0.4,1.8,0.7c1,0.5,2.2,1.1,4.3,0.9c0.6,0,1.1-0.1,1.5-0.1c2.1-0.3,2.7-0.8,3.1-1.2c0.1-0.1,0.2-0.2,0.3-0.4
				c0.6-0.7,1.3-1.6,2.3-1.6c0.6,0,1.3,0.5,1.9,1c0.5,0.4,1,0.8,1.3,0.8c0.5,0,2.1-0.1,2.9-0.1c-2.7-3.4-6.2-11.3-7.6-14.8
				c-1.5,0.3-9.9,1.7-20,3.4c-7.6,1.2-12,1.9-14,2.2c1,2.4,2.1,5.2,3,7.7c1.6-2.7,1.8-2.7,1.9-2.8c0.2,0,0.4,0.1,1,0.5
				c0.8,0.6,2.2,1.5,3.1,1.3c0.4-0.1,0.6-0.2,0.8-0.4c0.8-0.4,1.3-0.6,3.7,0.6c1.6,0.8,2.6,1.5,3.4,2.1c0.9,0.7,1.4,1.1,2,0.9
				c0.4-0.1,0.7-0.2,0.9-0.3C100.1,172.7,100.4,172.6,101,172.6z"/>
		</g>
		<g>
			<path class="st10" d="M130.6,147.7l-16.3,9.9l-0.3,0.1c-1.8,0.3-10.2,1.8-20.1,3.4c-7.8,1.3-12.3,1.9-14.2,2.2
				c-1.2-2.9-2.3-5.5-2.9-6.6c-1.6-2.9-7.4-8.8-7.5-9.1s20.7-8.1,22.3-8.8s6.1-9.1,6.5-9.3c0.3-0.2,8.1,2.6,8.6,2.9
				c0.5,0.3,3.5,7.1,4,7.1s7.8-2.4,8.2-2.6c0.4-0.2,1.9-0.9,4.9-1.6c0.1,0,0.1,0,0.2,0L130.6,147.7z"/>
			<path class="st6" d="M79.5,163.4v-0.1c-0.9-2.3-2.2-5.3-2.9-6.5c-1.1-1.9-4.1-5.3-6-7.4c-1.3-1.5-1.5-1.7-1.5-1.8
				c0-0.2-0.1-0.3,16.8-6.8c2.9-1.1,5.1-2,5.6-2.2c1.1-0.5,3.7-4.9,5.2-7.3c0.9-1.5,1.1-1.9,1.3-2c0.5-0.3,8.7,2.9,8.7,2.9
				c0.2,0.1,0.7,1,1.7,3c0.8,1.6,2,3.9,2.3,4.1c0.5,0,7.7-2.4,8.1-2.6c0.2-0.1,1.8-0.9,4.9-1.6c0.1,0,0.2,0,0.2,0h0.1l6.8,12.6
				l-16.5,10l-0.3,0.1c-0.4,0.1-9.3,1.6-20.1,3.4c-7.8,1.3-12.3,1.9-14.2,2.2L79.5,163.4z M69.5,147.6c0.2,0.2,0.8,0.9,1.4,1.6
				c1.8,2,4.9,5.5,6,7.4c0.7,1.2,1.9,4.2,2.8,6.5c2-0.3,6.4-0.9,14.1-2.2c10.8-1.8,19.7-3.3,20.1-3.4l0.3-0.1l16.1-9.8l-6.5-12.1
				h-0.1c-3.1,0.7-4.7,1.5-4.9,1.5c-0.3,0.2-7.7,2.6-8.3,2.6c-0.4,0-0.9-1-2.5-4.2c-0.7-1.3-1.4-2.7-1.6-2.9
				c-0.5-0.3-7.7-2.9-8.4-2.9c-0.1,0.1-0.6,1-1.1,1.8c-2.1,3.5-4.2,7-5.3,7.4c-0.5,0.2-2.7,1.1-5.6,2.2
				C80.2,143.3,70.6,147,69.5,147.6z"/>
		</g>
		<g>
			<path class="st10" d="M116.6,191.2L91.7,199c-2.2-7.2-6-19.3-7-22.2c-0.4-1.2-1.1-3.2-2-5.4c0.8-1.3,1.8-2.9,2-3
				c0.3-0.1,2.6,2.1,4.1,1.7s1.1-1.4,4.4,0.2c3.3,1.6,4.2,3.3,5.4,3.1c1.2-0.3,1.3-0.9,3.2-0.6c1.8,0.4,2.9,1.8,6.2,1.6
				c0.6,0,1.1-0.1,1.5-0.1c0,0.1,0,0.1,0,0.2c0,0.9,4.3,9.5,6,13.1C116.2,188.8,116.5,190,116.6,191.2z"/>
			<path class="st6" d="M91.6,199.2V199c-1.4-4.4-5.9-19-7-22.2c-0.4-1.2-1.1-3.2-2-5.4v-0.1v-0.1c1.8-3,2-3,2.1-3.1
				c0.2,0,0.4,0.1,1,0.5c0.8,0.5,2.2,1.5,3.1,1.2c0.4-0.1,0.6-0.2,0.8-0.4c0.8-0.4,1.3-0.6,3.7,0.6c1.6,0.8,2.6,1.5,3.4,2.1
				c0.9,0.7,1.4,1.1,2,0.9c0.4-0.1,0.7-0.2,0.9-0.3c0.6-0.3,1-0.5,2.3-0.2c0.7,0.1,1.2,0.4,1.8,0.7c1,0.5,2.2,1.1,4.3,0.9
				c0.6,0,1.1-0.1,1.5-0.1h0.1v0.1c0,0.1,0,0.2,0,0.2c0,0.7,2.8,6.5,4.7,10.4c0.5,1,0.9,1.9,1.3,2.6c0.5,1.2,0.8,2.4,1,3.6v0.1h-0.1
				L91.6,199.2z M83,171.4c0.8,2.2,1.5,4.1,1.9,5.3c1.1,3.2,5.5,17.5,6.9,22.1l24.6-7.7c-0.2-1.2-0.5-2.3-0.9-3.4
				c-0.3-0.7-0.8-1.6-1.3-2.6c-2.6-5.3-4.8-9.8-4.8-10.5l0,0c-0.4,0-0.8,0.1-1.3,0.1c-2.1,0.1-3.4-0.5-4.4-1
				c-0.6-0.3-1.1-0.5-1.8-0.7c-1.2-0.2-1.6,0-2.1,0.2c-0.3,0.1-0.6,0.3-1,0.4c-0.7,0.2-1.3-0.3-2.3-1c-0.7-0.6-1.8-1.3-3.3-2.1
				c-2.4-1.2-2.8-0.9-3.4-0.6c-0.2,0.1-0.5,0.3-0.9,0.4c-1.1,0.3-2.5-0.7-3.4-1.3c-0.3-0.2-0.6-0.4-0.7-0.4
				C84.8,168.7,84.4,169.2,83,171.4z"/>
		</g>
		<g>
			<path class="st10" d="M118,206.8c-8.8,1.7-18.2,3.8-22.5,4.8l-2-7.1c0,0-0.7-2.3-1.7-5.5l24.9-7.8c0.9,5,1.1,12.6,1.2,14.4
				C117.9,205.8,117.9,206.3,118,206.8z"/>
			<path class="st6" d="M95.4,211.8l-2.1-7.2l0,0c0,0-0.7-2.3-1.7-5.5v-0.2l25.2-7.9v0.2c0.6,3.6,0.9,8.5,1.1,11.7
				c0.1,1.2,0.1,2.2,0.2,2.7c0,0.2,0.1,0.6,0.1,1.2v0.2H118C108.9,208.8,99.2,211,95.4,211.8L95.4,211.8z M91.9,199.1
				c1,3.2,1.7,5.4,1.7,5.4l2,6.9c3.8-0.9,13.2-3,22.2-4.8c-0.1-0.5-0.1-0.8-0.1-1c-0.1-0.5-0.1-1.5-0.2-2.7c-0.2-3.2-0.4-7.9-1-11.5
				L91.9,199.1z"/>
		</g>
		<g>
			<path class="st10" d="M121.5,238.9L121.5,238.9l-17.6,2.1l-8.4-29.4c4.3-1,13.7-3.1,22.5-4.8c0.5,4.9,2.3,21.2,2.5,25.2
				C120.6,234.3,121,236.6,121.5,238.9z"/>
			<path class="st6" d="M103.8,241.2l-8.5-29.7h0.2c2.9-0.7,12.9-3,22.5-4.8h0.2l0.2,1.8c0.6,6,2.2,20,2.3,23.6
				c0.1,2.3,0.5,4.6,1.1,6.9v0.2l-0.3,0.1L103.8,241.2z M95.7,211.7l8.4,29.1l17.3-2.1c-0.6-2.2-0.9-4.5-1-6.7
				c-0.1-3.6-1.7-17.6-2.3-23.5l-0.2-1.4C108.5,208.8,98.7,211,95.7,211.7z"/>
		</g>
		<g>
			<path class="st10" d="M133.4,219c-0.2,0.6,0.6,13.3,0.9,17.6l-12.7,2.2c-0.6-2.3-0.9-4.6-1.1-6.9c-0.2-4-1.9-20.2-2.5-25.2
				c4.4-0.8,8.6-1.6,12.1-2s6.1-0.8,8-1c-0.5,2.3-1.1,4.5-1.8,6.7C135,214.5,133.5,218.6,133.4,219z"/>
			<path class="st6" d="M121.4,239v-0.1c-0.6-2.3-0.9-4.6-1.1-6.9c-0.1-3.6-1.7-17.6-2.3-23.5l-0.2-1.8h0.2c4.9-0.9,9-1.6,12.1-2
				c3.3-0.4,6-0.8,8-1h0.2v0.2c-0.5,2.3-1.1,4.5-1.8,6.7c-0.9,2.8-1.8,5.6-2.4,7.3c-0.2,0.7-0.4,1.2-0.4,1.3
				c-0.1,0.5,0.4,9.4,0.9,17.5v0.1L121.4,239z M118.2,206.9l0.2,1.5c0.6,6,2.2,19.9,2.3,23.5c0.1,2.3,0.5,4.5,1,6.7l12.4-2.2
				c-0.3-5.2-1-16.9-0.8-17.5l0,0c0-0.1,0.2-0.6,0.4-1.3c0.6-1.7,1.5-4.4,2.4-7.3c0.7-2.1,1.3-4.3,1.7-6.4c-2,0.3-4.6,0.6-7.8,1
				C127,205.3,123,206,118.2,206.9z"/>
		</g>
		<g>
			<path class="st10" d="M153.1,225.3l-0.2,0.3c-2.3,1.6-3.8,7.4-3.8,7.4l-14.6,3.7h-0.2c-0.3-4.3-1-17-0.9-17.6
				c0.1-0.4,1.6-4.5,2.9-8.6c1,2.5,3.1,7,3.7,7.6C140.7,218.7,149.6,223.4,153.1,225.3z"/>
			<path class="st6" d="M134.1,236.8v-0.2c-0.1-1.7-1-16.9-0.8-17.7c0-0.1,0.2-0.7,0.5-1.4c0.6-1.6,1.5-4.4,2.4-7.2l0.1-0.4l0.2,0.4
				c1.4,3.4,3.1,7.1,3.7,7.6c0.8,0.7,10.2,5.7,13.1,7.2l0.2,0.1l-0.4,0.5c-2.2,1.6-3.7,7.2-3.7,7.3v0.1L134.1,236.8z M136.3,210.9
				c-0.8,2.6-1.7,5.2-2.2,6.8c-0.3,0.7-0.4,1.3-0.5,1.4c-0.1,0.5,0.4,10.6,0.8,17.4l14.5-3.7c0.2-0.8,1.7-5.8,3.8-7.4l0.1-0.1
				c-3.8-2-12.2-6.4-13-7.1C139.1,217.5,137,212.6,136.3,210.9z"/>
		</g>
		<g>
			<path class="st10" d="M158.4,211.6c-0.1,0.1-0.1,0.1-0.1,0.1c-1.4,1.8-1.4,7-1.5,8.1c0,0.9-2.9,4.4-3.7,5.4
				c-3.5-1.9-12.4-6.5-13.1-7.2c-0.7-0.6-2.7-5.2-3.7-7.6c0.7-2.2,1.3-4.4,1.8-6.7l0,0c2.4,0.3,6.9,2.8,8.4,3.4
				C147.6,207.6,154.7,210.2,158.4,211.6z"/>
			<path class="st6" d="M153.2,225.5l-0.1-0.1c-3.7-1.9-12.4-6.5-13.1-7.2c-0.7-0.7-2.9-5.6-3.8-7.7v-0.1v-0.1
				c0.7-2.2,1.3-4.4,1.8-6.7v-0.2h0.2c1.7,0.2,4.5,1.6,6.6,2.6c0.8,0.4,1.4,0.7,1.9,0.9c1.1,0.4,7.9,2.9,11.5,4.3l0.6,0.2l-0.1,0.2
				c-0.1,0.1-0.1,0.1-0.1,0.1c-1.2,1.7-1.4,6.2-1.4,7.7v0.3c0,0.9-2.3,3.8-3.7,5.5L153.2,225.5z M136.5,210.4
				c1.8,4.3,3.2,7.1,3.7,7.5c0.7,0.7,9.9,5.5,13,7.1c2.2-2.6,3.5-4.6,3.6-5.2v-0.3c0-1.5,0.2-6.1,1.5-7.9l-0.2-0.1
				c-3.9-1.5-10.4-3.9-11.5-4.3c-0.4-0.2-1.1-0.5-1.9-0.9c-1.9-1-4.6-2.2-6.3-2.5C137.7,206.1,137.1,208.3,136.5,210.4z"/>
		</g>
		<g>
			<path class="st10" d="M160.8,203.8c-0.1,0.6-0.3,1.9-0.7,3.7c-0.3,1.5-0.9,2.9-1.7,4.1c-3.7-1.4-10.8-4-11.9-4.4
				c-1.5-0.6-6-3.1-8.4-3.4c5-0.7,5.3-0.9,6-1.1c0.3-0.1,1.3-1.5,2.6-3.4c1.2,0.6,3.5,1.7,4.6,2
				C152.5,201.7,158.6,203.3,160.8,203.8z"/>
			<path class="st6" d="M158.4,211.8h-0.1c-3.7-1.4-10.8-4-11.9-4.4c-0.4-0.2-1.1-0.5-1.9-0.9c-2-1-4.7-2.3-6.4-2.5l-1.3-0.2
				l1.3-0.2c4.6-0.6,5.2-0.8,5.8-1h0.2c0.2-0.1,0.7-0.7,2.5-3.3l0.1-0.1l0.1,0.1c1,0.5,3.4,1.7,4.6,2c0.9,0.3,4.2,1.1,9.5,2.5h0.1
				v0.2c-0.1,0.7-0.4,2.2-0.7,3.7s-0.9,2.9-1.8,4.2L158.4,211.8z M139.1,203.8c1.7,0.5,3.9,1.5,5.6,2.3c0.8,0.4,1.5,0.7,1.9,0.9
				c1.1,0.4,8,3,11.8,4.4c0.8-1.2,1.4-2.5,1.6-3.9c0.3-1.4,0.5-2.8,0.6-3.5c-5.3-1.4-8.5-2.2-9.4-2.5c-1.1-0.4-3.4-1.5-4.5-2
				c-1.8,2.8-2.3,3.3-2.6,3.3H144C143.4,203.1,142.9,203.2,139.1,203.8z"/>
		</g>
		<g>
			<path class="st10" d="M168.5,185.8c-0.3,0.7-0.5,1.4-0.8,2.1c-0.6,1.7-2.6,3-4.5,7c-1.2,2.7-2,5.6-2.4,8.5c0,0,0,0.1-0.1,0.4
				c-2.2-0.6-8.2-2.1-9.5-2.5c-1.1-0.4-3.4-1.5-4.6-2c2.5-3.9,5.9-9.6,5.9-9.6s-2.2-3.4-5-8c1.8,0.1,8.1,0.3,8.5,0.3h0.1
				c0.5,0.1,1.6,0.9,2.4,1.4c0.3,0.2,0.6,0.3,0.9,0.5c0.6,0.2,3.3,0,4.2,0c0.1,0,0.1,0,0.2,0C164.3,184,166.9,185.1,168.5,185.8z"/>
			<path class="st6" d="M160.9,204h-0.2c-5.3-1.4-8.6-2.3-9.5-2.5c-1.2-0.4-3.6-1.6-4.6-2.1l-0.2-0.1l0.1-0.2
				c2.3-3.6,5.4-8.8,5.8-9.5c-0.4-0.6-2.4-3.8-5-7.9l-0.2-0.3h0.3c3,0.1,8.1,0.3,8.5,0.3c0.1,0,0.1,0,0.2,0c0.4,0.1,1.1,0.6,1.8,1.1
				c0.2,0.1,0.4,0.3,0.6,0.4c0.3,0.2,0.5,0.3,0.8,0.5c0.3,0.1,1.6,0.1,2.6,0c0.6,0,1.2-0.1,1.5,0c0.1,0,0.1,0,0.2,0
				c0.4,0,1.9,0.6,4.7,1.8l0.1,0.1l-0.1,0.1c-0.1,0.3-0.2,0.5-0.3,0.8c-0.2,0.4-0.3,0.9-0.5,1.4c-0.3,0.8-0.8,1.4-1.5,2.3
				c-0.9,1.1-2,2.5-3,4.8c-1.2,2.7-2,5.6-2.3,8.5c0,0,0,0.1-0.1,0.4L160.9,204z M146.9,199.2c1.1,0.5,3.3,1.6,4.4,2
				c0.9,0.3,4.1,1.1,9.3,2.5c0-0.1,0-0.2,0-0.2c0.4-3,1.2-5.8,2.4-8.6c1.1-2.3,2.2-3.7,3.1-4.8c0.7-0.8,1.2-1.5,1.4-2.2
				c0.2-0.5,0.3-0.9,0.5-1.4c0.1-0.2,0.2-0.4,0.2-0.6c-3.3-1.4-4.2-1.7-4.4-1.8c-0.1,0-0.1,0-0.2,0c-0.4,0-0.9,0-1.5,0
				c-1.4,0.1-2.4,0.1-2.8-0.1c-0.3-0.1-0.6-0.3-0.9-0.5c-0.2-0.1-0.4-0.2-0.6-0.4c-0.7-0.4-1.4-0.9-1.8-1h-0.1
				c-0.4,0-6.7-0.2-8.2-0.3c2.8,4.4,4.9,7.7,4.9,7.7l0.1,0.1l-0.1,0.1C152.7,189.8,149.4,195.4,146.9,199.2z"/>
		</g>
		<g>
			<path class="st10" d="M160.5,146.6c-2.4-0.2-3,2.2-11.1,4h-0.2c-6,1.3-12,2.9-15,3.7l-3.6-6.6l-6.7-12.3c2.8-0.5,5.3,0.8,5.7,1
				c0.5,0.2,3.2,0.7,7.7,0.6h0.7c1.4,2.3,4.6,7.4,4.7,7.4c0.1,0,7.8-2.2,11.3-3.2L160.5,146.6z"/>
			<path class="st6" d="M134.1,154.5l-10.4-19.3h0.2c2.5-0.5,4.6,0.5,5.5,0.9c0.1,0.1,0.2,0.1,0.3,0.1c0.5,0.2,3.1,0.7,7.7,0.6h0.8
				v0.1c2,3.3,4.2,6.9,4.6,7.3c0.5-0.1,4.6-1.3,7.9-2.2c1.3-0.4,2.4-0.7,3.4-0.9h0.1l6.9,5.7h-0.5c-1-0.1-1.6,0.3-2.7,0.9
				c-1.5,0.8-3.7,2-8.4,3.1h-0.2c-5.5,1.2-11.2,2.7-15,3.7L134.1,154.5z M124.2,135.5l10.1,18.6c3.8-1,9.4-2.5,14.9-3.7h0.2
				c4.6-1,6.8-2.2,8.3-3c0.9-0.5,1.6-0.9,2.4-0.9l-6-5c-0.9,0.3-2.1,0.6-3.3,0.9c-6.3,1.8-7.9,2.2-8,2.2s-0.3,0-4.8-7.4h-0.6
				c-4.6,0.1-7.3-0.5-7.8-0.6c-0.1,0-0.2-0.1-0.3-0.1C128.4,136,126.5,135.1,124.2,135.5z"/>
		</g>
		<g>
			<path class="st10" d="M154.1,141.2c-3.5,1-11.2,3.1-11.3,3.2s-3.3-5.1-4.7-7.4c2.7,0,5.3-0.3,7.9-0.6c0.5-0.2,1-0.4,1.4-0.6
				L154.1,141.2z"/>
			<path class="st6" d="M142.8,144.6c-0.2,0-0.5-0.5-4.9-7.5l-0.2-0.2h0.3c2.6,0,5.3-0.3,7.9-0.6c0.5-0.2,0.9-0.4,1.4-0.6l0.1-0.1
				l7,5.8l-0.3,0.1C150.5,142.4,142.9,144.5,142.8,144.6L142.8,144.6z M138.3,137.1c3.3,5.4,4.2,6.8,4.5,7.1
				c0.8-0.2,7.5-2.1,10.9-3.1l-6.3-5.3c-0.4,0.2-0.9,0.4-1.4,0.6C143.5,136.9,140.9,137.1,138.3,137.1z"/>
		</g>
		<g>
			<path class="st10" d="M171.3,148.4c-2.3-0.4-8.4-1.6-10.6-1.8h-0.2l0,0l-6.4-5.3l-6.7-5.6c0.4-0.2,0.8-0.4,1.3-0.6
				c1.3-0.5,6.1-0.3,6.8-0.1c0.6,0.2,2.2,0,2.4-0.2s5-0.1,6.4-0.6s2.9-3.1,2.9-3.1s0.2,3,0.6,4.5c0.6,2.6,1.4,5.2,2.3,7.8
				C170.6,145.1,171,146.7,171.3,148.4z"/>
			<path class="st6" d="M171.5,148.6h-0.2c-2.5-0.5-8.4-1.6-10.6-1.8h-0.3l0,0l-13.3-11.1l0.2-0.1c0.4-0.2,0.8-0.4,1.3-0.6
				c1.4-0.6,6.2-0.3,6.9-0.1c0.6,0.2,2,0,2.2-0.1c0.1-0.1,0.3-0.1,2-0.2c1.5-0.1,3.7-0.1,4.5-0.4c1.3-0.4,2.8-3,2.8-3l0.3-0.5v0.5
				c0,0,0.2,3,0.6,4.5c0.6,2.6,1.4,5.2,2.3,7.7c0.6,1.6,1,3.3,1.2,4.9L171.5,148.6z M160.6,146.4h0.2c2.1,0.2,7.8,1.3,10.4,1.8
				c-0.3-1.6-0.7-3.1-1.2-4.6c-0.9-2.5-1.7-5.2-2.3-7.8c-0.2-1.2-0.4-3.1-0.5-4c-0.5,0.8-1.7,2.4-2.7,2.7c-0.8,0.3-3,0.4-4.6,0.4
				c-0.8,0-1.6,0.1-1.8,0.1c-0.3,0.2-1.9,0.4-2.5,0.2c-0.7-0.2-5.4-0.4-6.7,0.1c-0.4,0.2-0.8,0.3-1.1,0.5L160.6,146.4z"/>
		</g>
		<g>
			<path class="st10" d="M171,159.9c-0.1,0.4-0.2,0.7-0.3,1.1c-1.2,0-3.6,0.4-6.9,2.4c-0.2,0.1-0.5,0.3-0.7,0.4l-0.5-10
				c2.2,0.2,5.9,0.6,7.9,0.8C170.2,156.4,171.4,157.6,171,159.9z"/>
			<path class="st6" d="M163,164.1l-0.5-10.5h0.2c2.2,0.2,5.9,0.6,7.9,0.8h0.2v0.2c-0.1,0.8,0,1.4,0.2,2.2s0.5,1.8,0.3,3l0,0
				c-0.1,0.4-0.2,0.8-0.3,1.1v0.1h-0.1c-1.1,0-3.5,0.4-6.8,2.4l-0.1,0.1c-0.2,0.1-0.4,0.2-0.5,0.3L163,164.1z M162.8,154l0.5,9.5
				c0.1-0.1,0.2-0.1,0.3-0.2l0.1-0.1c3.3-2,5.7-2.4,6.9-2.5c0.1-0.3,0.2-0.6,0.3-1c0.2-1.2,0-2-0.3-2.9c-0.2-0.7-0.4-1.4-0.3-2.1
				C168.4,154.6,165,154.3,162.8,154z"/>
		</g>
		<g>
			<path class="st10" d="M170.7,161c-0.7,1.7-2.3,3.1-3.4,3.7c-1.4,0.8-1.5,1.5-1,2.8c0.1,0.3,0.2,0.5,0.3,0.8
				c-0.6,0.4-1.8,1.2-2.5,1.7c-0.2,0.1-0.4,0.2-0.6,0.3c-0.7,0.3-1.5,0.6-1.4,0.2c0.1-0.5,0.4-1.8,0-1.6c-0.3,0.1-1.6,0.7-2.3,1.1
				l-0.1-0.2l0,0c-0.4-0.6-0.8-1.3-1.3-2.1c0.8-0.9,2.3-2.2,4.9-3.9c0.2-0.1,0.4-0.3,0.7-0.4C167.1,161.4,169.5,161,170.7,161z"/>
			<path class="st6" d="M162.2,170.9c-0.1,0-0.2,0-0.3-0.1s-0.1-0.2-0.1-0.3s0-0.2,0.1-0.3c0.1-0.3,0.2-0.9,0.1-1.1
				c-0.3,0.1-1,0.5-1.7,0.8l-0.8,0.4l-0.2-0.4c-0.3-0.6-0.8-1.3-1.3-2.1l-0.1-0.1l0.1-0.1c1.1-1.2,2.7-2.5,4.9-3.9
				c0.1-0.1,0.3-0.2,0.4-0.2l0.3-0.2c3.4-2.1,5.8-2.4,7-2.5h0.3l-0.1,0.2c-0.7,1.8-2.3,3.2-3.5,3.8c-1.4,0.8-1.4,1.5-0.9,2.6
				c0.1,0.2,0.2,0.5,0.3,0.8l0.1,0.1l-0.1,0.1c-0.6,0.4-1.8,1.2-2.6,1.7c-0.2,0.1-0.4,0.2-0.6,0.3h-0.1
				C162.9,170.7,162.5,170.9,162.2,170.9z M162.1,168.7c0.1,0,0.1,0,0.2,0.1c0.2,0.2,0.1,0.7,0,1.4c0,0.1,0,0.2-0.1,0.3l0,0
				c0.1,0.1,0.8-0.2,1.1-0.4h0.1c0.2-0.1,0.4-0.2,0.5-0.3c0.7-0.4,1.8-1.2,2.4-1.6c-0.1-0.3-0.2-0.5-0.3-0.7
				c-0.5-1.3-0.5-2.2,1.1-3.1c1.1-0.6,2.5-1.8,3.3-3.4c-1.2,0.1-3.5,0.5-6.5,2.4l-0.3,0.2c-0.1,0.1-0.3,0.2-0.4,0.2
				c-2.1,1.3-3.7,2.6-4.8,3.7c0.5,0.7,0.9,1.4,1.3,2l0.1,0.1l0.5-0.2c0.7-0.3,1.5-0.7,1.7-0.8C162,168.7,162.1,168.7,162.1,168.7z"
				/>
		</g>
		<g>
			<path class="st10" d="M169,179.2c-0.7-0.1-1.3-0.2-1.9-0.4c-0.4-0.1-2.5,0-3.5,0c0-1.5-0.1-4,0.3-5.1c0.1-0.3,0.2-0.6,0.2-1
				c0.1-0.9,0.1-1.8,0-2.7c0.8-0.5,2-1.3,2.5-1.7c0.8,2,1.4,4,1.7,6.1C168.6,176,168.8,177.6,169,179.2z"/>
			<path class="st6" d="M169.1,179.4h-0.2c-0.7-0.1-1.3-0.2-2-0.4c-0.3-0.1-2.2,0-3.4,0h-0.2v-0.2c0-0.3,0-0.5,0-0.8
				c0-1.5,0-3.4,0.3-4.4c0.1-0.3,0.2-0.6,0.2-0.9c0.1-0.9,0.1-1.8,0-2.7v-0.1l0.1-0.1c0.8-0.5,2-1.3,2.5-1.7l0.2-0.1l0.1,0.2
				c0.8,2,1.4,4,1.7,6.1c0.3,1.6,0.5,3.2,0.7,4.8L169.1,179.4z M165.9,178.6c0.6,0,1,0,1.2,0c0.6,0.2,1.2,0.3,1.7,0.4
				c-0.1-1.5-0.4-3.1-0.7-4.6c-0.3-2-0.9-4-1.6-5.8c-0.6,0.4-1.6,1.1-2.3,1.5c0.1,0.9,0.1,1.8,0,2.6c0,0.3-0.1,0.7-0.2,1
				c-0.3,0.9-0.3,2.8-0.3,4.3c0,0.2,0,0.4,0,0.7C164.3,178.7,165.2,178.6,165.9,178.6z"/>
		</g>
		<g>
			<path class="st10" d="M169.1,183c-0.1,0.9-0.3,1.9-0.6,2.7c-1.6-0.7-4.2-1.8-4.6-1.8c-0.1,0-0.1,0-0.2,0c0-0.8,0-1.8-0.2-2.1
				c-0.1-0.2-0.2-0.4-0.2-0.6c-0.1-0.4,0-1,0.2-1.2c0.1-0.1,0.1-0.6,0.1-1.2c1,0,3.1-0.1,3.5,0c0.6,0.2,1.3,0.3,1.9,0.4
				C169.1,180.9,169.1,182.2,169.1,183z"/>
			<path class="st6" d="M168.6,186l-0.6-0.3c-1.5-0.6-3.7-1.6-4.1-1.6c-0.1,0-0.1,0-0.2,0h-0.2v-0.2c0-1.6-0.1-2-0.2-2
				c-0.1-0.2-0.2-0.4-0.2-0.6c-0.1-0.5,0-1,0.2-1.3c0-0.1,0.1-0.4,0.1-1.1v-0.2h0.2c0.7,0,3.1-0.1,3.5,0c0.6,0.2,1.3,0.3,1.9,0.4
				h0.1v0.1c0.1,1.3,0.2,2.6,0.2,3.8l0,0c-0.1,1-0.3,1.9-0.6,2.8L168.6,186z M163.8,183.7C163.8,183.7,163.9,183.7,163.8,183.7
				c0.5,0.1,2.2,0.8,4.3,1.6l0.3,0.1c0.3-0.8,0.5-1.6,0.6-2.5c0-1.2-0.1-2.4-0.2-3.6c-0.6-0.1-1.2-0.2-1.8-0.4c-0.3,0-1.8,0-3.2,0
				c0,0.8,0,1.1-0.2,1.2c-0.1,0.1-0.2,0.6-0.1,1c0,0.2,0.1,0.4,0.2,0.5C163.7,181.8,163.8,182.1,163.8,183.7z"/>
		</g>
		<g>
			<path class="st10" d="M138.2,202.8c0,0.3-0.1,0.6-0.1,0.9l0,0c-1.9,0.3-4.5,0.6-8,1c-3.4,0.4-7.7,1.2-12.1,2
				c-0.1-0.5-0.1-1-0.1-1.2c-0.2-1.8-0.4-9.4-1.2-14.4l21.5-6.7C138.3,191.4,138.4,200.5,138.2,202.8z"/>
			<path class="st6" d="M117.9,207v-0.2c-0.1-0.5-0.1-1-0.1-1.2c-0.1-0.5-0.1-1.5-0.2-2.7c-0.2-3.2-0.4-8.1-1.1-11.7v-0.1l21.8-6.8
				v0.2c0.1,6.8,0.3,16.1,0.1,18.4c0,0.2-0.1,0.5-0.1,1v0.1h-0.1c-2,0.3-4.7,0.6-8,1c-3.2,0.4-7.2,1.1-12,2H117.9z M116.8,191.3
				c0.6,3.6,0.9,8.4,1,11.6c0.1,1.2,0.1,2.2,0.2,2.7c0,0.2,0.1,0.6,0.1,1c4.8-0.9,8.8-1.6,11.9-2c3.3-0.4,5.8-0.7,7.9-1
				c0.1-0.3,0.1-0.6,0.1-0.8l0,0c0.2-2.3,0.1-11.3-0.1-18.1L116.8,191.3z"/>
		</g>
		<g>
			<path class="st10" d="M138.1,184.5l-21.5,6.7c-0.2-1.2-0.5-2.4-1-3.6c-1.7-3.6-6-12.2-6-13.1c0-0.1,0-0.1,0-0.2
				c2-0.3,2.7-0.7,3.2-1.3c0.6-0.7,1.4-2,2.5-2s2.4,1.7,3.2,1.7c0.6,0,2.2-0.1,3.2-0.2c0.4,0.5,0.9,0.9,1.4,1.2
				c3.5,1.7,3.1,1.3,4.4,0.4s2.5-2,4.5-0.7c1.9,1.2,1.7,1.3,2,1c0.2-0.3,0.9-1,1.9,0.3c0.9,1.1,1.4,3.6,2.1,3.8
				C138,180.1,138,182.2,138.1,184.5z"/>
			<path class="st6" d="M116.5,191.4v-0.2c-0.2-1.2-0.5-2.4-1-3.5c-0.4-0.8-0.9-1.9-1.5-3.1c-2.6-5.3-4.6-9.4-4.6-10.1v-0.1v-0.2
				h0.2c2.1-0.3,2.7-0.8,3.1-1.2c0.1-0.1,0.2-0.2,0.3-0.3c0.6-0.7,1.3-1.7,2.3-1.7c0.6,0,1.3,0.5,1.9,1c0.5,0.4,1,0.8,1.3,0.8
				c0.6,0,2.3-0.1,3.2-0.2h0.1l0.1,0.1c0.4,0.5,0.8,0.9,1.3,1.2c2.9,1.4,3,1.3,3.7,0.7c0.1-0.1,0.3-0.2,0.4-0.3l0.1-0.1
				c1.2-0.9,2.6-1.9,4.5-0.6c0.6,0.4,1,0.7,1.3,0.9c0.2,0.1,0.3,0.2,0.4,0.2l0,0v-0.1c0.1-0.1,0.4-0.5,0.9-0.5
				c0.4,0,0.8,0.3,1.2,0.8s0.8,1.4,1.1,2.1c0.3,0.7,0.7,1.6,0.9,1.7h0.1v1.2c0,1.3,0.1,3,0.1,4.7v0.1h-0.1L116.5,191.4z
				 M109.8,174.5L109.8,174.5c0,0.7,2.7,6.3,4.5,10c0.6,1.2,1.1,2.3,1.5,3.1c0.5,1.1,0.8,2.3,0.9,3.4l21.2-6.6
				c0-1.7-0.1-3.3-0.1-4.6v-1c-0.4-0.2-0.7-0.9-1-1.8c-0.3-0.7-0.6-1.5-1-2c-0.4-0.4-0.7-0.7-1-0.7c-0.2,0-0.4,0.1-0.7,0.4l0,0
				c-0.2,0.3-0.3,0.2-0.8-0.1c-0.3-0.2-0.7-0.5-1.3-0.9c-1.8-1.1-3-0.2-4.2,0.6l-0.1,0.1c-0.2,0.1-0.3,0.2-0.4,0.3
				c-0.8,0.7-1.1,0.8-4.1-0.7c-0.5-0.3-1-0.7-1.4-1.2c-1.2,0.1-2.6,0.2-3.2,0.2c-0.5,0-1-0.4-1.5-0.8c-0.6-0.5-1.2-0.9-1.7-0.9
				c-0.8,0-1.5,0.9-2.1,1.5c-0.1,0.1-0.2,0.2-0.3,0.4C112.4,173.8,111.7,174.2,109.8,174.5z"/>
		</g>
		<g>
			<path class="st10" d="M152.6,189.6c0,0-3.4,5.7-5.9,9.6c-1.2,1.9-2.2,3.3-2.6,3.4c-0.7,0.2-1,0.4-6,1.1l0,0
				c0.1-0.4,0.1-0.7,0.1-0.9c0.2-2.3,0.1-11.4-0.1-18.3c-0.1-2.3-0.1-4.3-0.2-5.8c0.1,0,0.2,0,0.2,0c0.8-0.5,1.7-1.5,3.1-1
				c1.2,0.4,2.3,0.4,3.4-0.5c1,1.6,1.9,3.1,2.8,4.5C150.4,186.2,152.6,189.6,152.6,189.6z"/>
			<path class="st6" d="M137.9,203.9v-0.2c0.1-0.4,0.1-0.7,0.1-0.9c0.2-1.8,0.1-7.9-0.1-18.3c-0.1-2.3-0.1-4.3-0.2-5.8v-0.2h0.2h0.1
				c0.1-0.1,0.3-0.2,0.4-0.3c0.7-0.5,1.6-1.1,2.8-0.7c1.3,0.5,2.2,0.3,3.2-0.5l0.1-0.1l0.1,0.2c1,1.6,1.9,3.1,2.8,4.5
				c2.8,4.5,5,7.9,5,8l0.1,0.1l-0.1,0.1c0,0.1-3.4,5.8-5.9,9.6c-1.9,2.9-2.4,3.4-2.7,3.5l-0.2,0.1c-0.7,0.2-1.2,0.4-5.9,1
				L137.9,203.9z M138.1,178.8c0,1.5,0.1,3.4,0.1,5.6c0.2,10.4,0.3,16.6,0.1,18.4c0,0.2,0,0.4-0.1,0.7c4.4-0.6,5-0.8,5.6-1l0.2-0.1
				c0.1,0,0.6-0.4,2.5-3.3c2.3-3.6,5.4-8.8,5.8-9.5c-0.4-0.6-2.4-3.8-4.9-7.9c-0.9-1.4-1.8-2.9-2.7-4.4c-1,0.8-2.1,0.9-3.4,0.4
				c-1.1-0.4-1.8,0.2-2.5,0.6c-0.2,0.1-0.3,0.2-0.5,0.3C138.2,178.8,138.2,178.8,138.1,178.8z"/>
		</g>
		<g>
			<path class="st10" d="M144.7,177.1c-1.1,0.9-2.2,1-3.4,0.5c-1.4-0.5-2.3,0.5-3.1,1c-0.1,0-0.2,0.1-0.2,0
				c-0.7-0.2-1.2-2.7-2.1-3.8c-1-1.3-1.7-0.6-1.9-0.3s0,0.2-2-1s-3.3-0.2-4.5,0.7s-0.9,1.3-4.4-0.4c-0.5-0.3-1-0.7-1.4-1.2
				c-2.7-3.2-6.3-11.3-7.8-15.1l0.3-0.1l16.3-9.9l3.6,6.6l2.6,4.8c-1.8,0-1.9,0.7-1.9,1.7C134.9,161.3,140,169.6,144.7,177.1z"/>
			<path class="st6" d="M138,178.8h-0.1c-0.4-0.1-0.8-0.9-1.2-1.9c-0.3-0.7-0.6-1.5-1-2c-0.4-0.4-0.7-0.7-1-0.7l0,0
				c-0.2,0-0.4,0.1-0.7,0.4l0,0c-0.2,0.3-0.3,0.2-0.8-0.1c-0.3-0.2-0.7-0.5-1.3-0.9c-1.8-1.1-3-0.2-4.2,0.6l-0.1,0.1
				c-0.2,0.1-0.3,0.2-0.4,0.3c-0.8,0.7-1.1,0.8-4.1-0.7c-0.6-0.3-1.1-0.8-1.5-1.3c-2.8-3.3-6.4-11.7-7.9-15.1l-0.1-0.2l0.5-0.1
				l16.4-9.9l6.4,11.8h-0.3c-1.6,0-1.7,0.6-1.7,1.5c0,0.3,1.8,3.4,9.8,16.3l0.1,0.1l-0.1,0.1c-1.1,0.9-2.2,1-3.5,0.5
				c-1.1-0.4-1.8,0.2-2.5,0.6c-0.2,0.1-0.3,0.2-0.5,0.3C138.2,178.8,138.1,178.8,138,178.8z M134.7,173.9L134.7,173.9
				c0.4,0,0.8,0.3,1.3,0.8c0.4,0.5,0.8,1.4,1.1,2.1c0.3,0.7,0.7,1.6,0.9,1.7h0.1c0.1-0.1,0.3-0.2,0.4-0.3c0.7-0.5,1.6-1.1,2.8-0.7
				c1.2,0.4,2.2,0.3,3.1-0.4c-8.7-13.9-9.8-16-9.8-16.4c0-1,0.1-1.8,1.8-1.8l-6-11l-16.2,9.8H114c1.5,3.6,5,11.7,7.7,14.9
				c0.4,0.5,0.8,0.9,1.4,1.2c2.9,1.4,3,1.3,3.7,0.7c0.1-0.1,0.3-0.2,0.4-0.3l0.1-0.1c1.2-0.9,2.6-1.9,4.5-0.6
				c0.7,0.4,1.1,0.7,1.3,0.9c0.2,0.1,0.3,0.2,0.4,0.2l0,0v-0.1C134.1,174.1,134.4,173.9,134.7,173.9z"/>
		</g>
		<g>
			<path class="st10" d="M151.9,159.1c-3.1,0-13.3,0-14.9,0h-0.2l-2.6-4.8c3-0.8,9-2.4,15-3.7h0.2
				C149.8,152.3,150.8,156.7,151.9,159.1z"/>
			<path class="st6" d="M140.9,159.3c-1.9,0-3.4,0-3.9,0h-0.3l-2.7-5.1l0.2-0.1c3.8-1,9.5-2.5,15-3.7l0.4-0.1v0.2
				c0.4,1.8,1.4,6.2,2.5,8.5l0.1,0.2h-0.3c-0.9,0-2.4,0-4,0C145.7,159.3,143,159.3,140.9,159.3z M136.9,158.9h0.1
				c1.2,0,6.8,0,10.9,0c1.5,0,2.9,0,3.8,0c-1-2.3-2-6.4-2.4-8.2l0,0c-5.4,1.2-11,2.6-14.8,3.7L136.9,158.9z"/>
		</g>
		<g>
			<path class="st10" d="M170.5,154.6L170.5,154.6c-2-0.2-5.7-0.6-7.9-0.8c-1.1-0.1-1.8-0.2-1.9-0.2c-0.3-0.1-0.1-4.9,0-6.9
				c0-0.1,0-0.1,0-0.2c2.2,0.2,8.3,1.4,10.6,1.8c0.1,0.5,0.2,1.1,0.3,1.7C172,152.6,170.8,152.9,170.5,154.6z"/>
			<path class="st6" d="M170.7,154.9h-0.2c-2-0.2-5.6-0.6-7.9-0.8c-0.8-0.1-1.8-0.2-1.9-0.2c-0.2,0-0.4-0.1-0.2-7.1v-0.3h0.2
				c2.2,0.2,8.1,1.3,10.6,1.8h0.1v0.1c0.1,0.3,0.1,0.6,0.2,0.9c0,0.3,0.1,0.5,0.1,0.8c0.3,1.7-0.1,2.4-0.5,3.2
				c-0.2,0.4-0.5,0.8-0.6,1.4L170.7,154.9L170.7,154.9z M160.8,153.5c0.2,0,0.7,0.1,1.8,0.2c2.2,0.2,5.7,0.6,7.7,0.8
				c0.1-0.6,0.4-1,0.6-1.4c0.4-0.7,0.8-1.4,0.5-3c0-0.3-0.1-0.5-0.1-0.8s-0.1-0.5-0.1-0.8c-2.5-0.5-8-1.5-10.3-1.8
				C160.7,151.2,160.8,153.1,160.8,153.5z"/>
		</g>
		<g>
			<path class="st11" d="M158.2,167.7c-0.3,0.4-0.6,0.8-0.9,1.2c-0.2,0.3-0.5,3.8-0.7,7.1c-0.2,2.4-0.3,4.8-0.4,5.9h-0.1
				c-0.4,0-6.7-0.2-8.5-0.3c-0.9-1.4-1.9-3-2.8-4.5c-4.7-7.6-9.8-15.9-9.8-16.4c0-0.9,0.1-1.7,1.9-1.7h0.2c1.6,0,11.8,0,14.9,0
				c0.2,0.4,0.4,0.8,0.6,1.1C153.6,161.6,156.3,164.9,158.2,167.7z"/>
			<path class="st6" d="M156.3,182.2l-0.2-0.1c0,0,0,0-0.1,0c-0.4,0-7.2-0.2-8.5-0.3h-0.1v-0.1c-0.9-1.4-1.9-3-2.8-4.5
				c-9.9-15.8-9.9-16.3-9.9-16.5c0-1,0.2-1.8,2-1.8h0.2c1.2,0,6.8,0,10.9,0c1.7,0,3.1,0,4,0h0.1v0.1c0.2,0.4,0.4,0.7,0.6,1.1
				c1.2,1.4,3.8,4.8,5.7,7.5l0.1,0.1l-0.1,0.1c-0.3,0.4-0.6,0.8-0.9,1.2c0,0.1-0.2,0.9-0.7,7.1c-0.1,1.6-0.2,3.1-0.3,4.3
				c0,0.7-0.1,1.2-0.1,1.6L156.3,182.2z M147.6,181.5c2.2,0.1,7.8,0.3,8.4,0.3c0-0.4,0.1-0.9,0.1-1.4c0.1-1.2,0.2-2.7,0.3-4.3
				c0.5-6.7,0.7-7.1,0.7-7.2c0.2-0.4,0.5-0.8,0.8-1.2c-1.9-2.7-4.5-6-5.6-7.4c-0.3-0.3-0.5-0.7-0.6-1.1c-0.9,0-2.3,0-3.9,0
				c-4.1,0-9.7,0-10.9,0h-0.2c-1.6,0-1.7,0.6-1.7,1.5c0,0.3,1.4,2.8,9.8,16.3C145.8,178.6,146.8,180.1,147.6,181.5z"/>
		</g>
		<g>
			<path class="st10" d="M163.1,163.8c-2.6,1.7-4.1,3-4.9,3.9c-1.9-2.8-4.6-6.1-5.7-7.5c-0.3-0.3-0.5-0.7-0.6-1.1
				c-1.1-2.3-2.1-6.8-2.5-8.5c8.2-1.8,8.8-4.1,11.2-4l0,0l0.2,0.2c-0.1,2-0.2,6.8,0,6.9c0.1,0,0.8,0.1,1.9,0.2L163.1,163.8z"/>
			<path class="st6" d="M158.2,168l-0.1-0.2c-2-2.9-4.9-6.5-5.7-7.5c-0.3-0.4-0.5-0.7-0.7-1.1c-1.1-2.4-2.1-6.8-2.5-8.6v-0.2h0.2
				c4.7-1,6.9-2.3,8.3-3.1c1.1-0.6,1.8-1,2.9-0.9h0.1l0.3,0.3v0.1c-0.2,4.4-0.1,6.3,0,6.7c0.1,0,0.2,0,0.4,0c0.3,0,0.8,0.1,1.4,0.2
				h0.1l0.5,10.2l-0.1,0.1c-2.2,1.4-3.8,2.7-4.9,3.8L158.2,168z M149.5,150.7c0.4,1.9,1.4,6.1,2.5,8.4c0.2,0.4,0.4,0.7,0.6,1.1
				c0.8,1,3.6,4.4,5.6,7.3c1.1-1.2,2.7-2.4,4.7-3.7l-0.5-9.7c-0.5-0.1-0.9-0.1-1.2-0.1c-0.2,0-0.4-0.1-0.5-0.1l0,0
				c-0.2,0-0.4-0.1-0.2-7l-0.1-0.1c-0.9,0-1.6,0.3-2.7,0.9C156.3,148.4,154.1,149.6,149.5,150.7z"/>
		</g>
		<g>
			<path class="st10" d="M159.5,169.8L159.5,169.8c0,0.1-0.1,0.2-0.1,0.3c-0.1,0.6-0.2,1.7-0.3,3.1c-0.1,0.8-0.1,1.8-0.2,2.7
				l-2.4,0.1c0.3-3.3,0.6-6.8,0.7-7.1c0.2-0.4,0.5-0.9,0.9-1.2C158.7,168.4,159.2,169.1,159.5,169.8z"/>
			<path class="st6" d="M156.4,176.2V176c0.5-6.7,0.7-7.1,0.7-7.2c0.2-0.5,0.6-0.9,0.9-1.3l0.1-0.2l0.1,0.2c0.5,0.7,0.9,1.4,1.3,2.1
				v0.1v0.1c0,0.1-0.1,0.2-0.1,0.3c-0.1,0.5-0.2,1.5-0.3,3.1c-0.1,0.8-0.1,1.8-0.2,2.7v0.2L156.4,176.2z M158.2,167.9
				c-0.3,0.3-0.5,0.7-0.7,1c-0.1,0.1-0.2,1-0.7,6.9l2.1-0.1c0.1-0.9,0.1-1.8,0.2-2.6c0.1-1.7,0.2-2.7,0.3-3.2c0-0.1,0-0.2,0.1-0.3
				C159,169.2,158.6,168.5,158.2,167.9z"/>
		</g>
		<g>
			<path class="st10" d="M164,172.7c-0.4,0.1-1,0.2-1.4,0.4c-0.5,0.2-2.6,0.2-3.4,0.2c0.1-1.4,0.2-2.6,0.3-3.1l0.2-0.1
				c0.8-0.4,2-1,2.3-1.1c0.4-0.2,0.1,1.1,0,1.6s0.7,0.1,1.4-0.2c0.2-0.1,0.4-0.2,0.6-0.3C164.1,170.9,164.1,171.8,164,172.7z"/>
			<path class="st6" d="M160,173.4c-0.4,0-0.7,0-0.8,0H159v-0.2c0.1-1.7,0.2-2.7,0.3-3.2v-0.1l0.3-0.1c1.3-0.6,2.1-1,2.4-1.1
				c0.2-0.1,0.3,0,0.3,0c0.2,0.2,0.1,0.7,0,1.4c0,0.1,0,0.2-0.1,0.3l0,0c0.1,0.1,0.8-0.2,1.1-0.4h0.1c0.2-0.1,0.4-0.2,0.5-0.3
				l0.2-0.1v0.3c0.1,0.9,0.1,1.8,0,2.8v0.1H164c-0.4,0.1-1,0.2-1.4,0.4C162.2,173.4,160.9,173.4,160,173.4z M159.4,173.1
				c1.1,0,2.8,0,3.2-0.1s0.9-0.2,1.3-0.3c0.1-0.8,0.1-1.5,0-2.3c-0.1,0.1-0.2,0.1-0.3,0.2h-0.1c-0.8,0.3-1.2,0.5-1.5,0.3
				c-0.1-0.1-0.1-0.2-0.1-0.3s0-0.2,0.1-0.3c0.1-0.3,0.2-0.9,0.1-1.1c-0.3,0.1-1.1,0.5-2.3,1.1l-0.1,0.1
				C159.5,170.7,159.5,171.6,159.4,173.1z"/>
		</g>
		<g>
			<path class="st10" d="M163.6,183.9c-1,0-3.7,0.2-4.2,0c-0.3-0.1-0.6-0.3-0.8-0.5c0-0.6,0.1-1.3,0.1-2.2h4.6
				c0,0.2,0.1,0.4,0.2,0.6C163.6,182.1,163.6,183.1,163.6,183.9z"/>
			<path class="st6" d="M160.5,184.2c-0.5,0-0.9,0-1.1-0.1c-0.3-0.1-0.6-0.3-0.9-0.5l-0.1-0.1v-0.1c0-0.6,0.1-1.3,0.1-2.2V181h4.9
				v0.1c0,0.2,0.1,0.3,0.2,0.5c0.1,0.1,0.2,0.3,0.2,2.2v0.2h-0.2c-0.3,0-0.9,0-1.4,0C161.5,184.2,160.9,184.2,160.5,184.2z
				 M158.7,183.3c0.2,0.2,0.5,0.3,0.7,0.4c0.3,0.1,1.7,0.1,2.7,0c0.5,0,0.9,0,1.3,0c0-1.5-0.1-1.8-0.2-1.9c-0.1-0.2-0.1-0.3-0.2-0.5
				h-4.3C158.8,182.2,158.8,182.8,158.7,183.3z"/>
		</g>
		<g>
			<path class="st10" d="M159,176c-0.1,1.8-0.2,3.7-0.3,5.3c0,0.9-0.1,1.6-0.1,2.2c-0.8-0.5-1.9-1.3-2.4-1.4
				c0.1-1.1,0.2-3.5,0.4-5.9L159,176z"/>
			<path class="st6" d="M158.7,183.7l-0.2-0.2c-0.2-0.1-0.4-0.2-0.6-0.4c-0.7-0.4-1.4-0.9-1.8-1H156V182c0.1-1.1,0.2-3.4,0.4-5.9
				V176l2.7-0.1v0.2c-0.1,1.5-0.2,3.2-0.3,5.3c0,0.9-0.1,1.6-0.1,2.2L158.7,183.7z M156.4,181.9c0.4,0.2,1.1,0.6,1.7,1
				c0.1,0.1,0.2,0.1,0.3,0.2c0-0.5,0.1-1.2,0.1-1.9c0.1-2,0.2-3.7,0.3-5.1l-2.1,0.1C156.6,178.6,156.4,180.8,156.4,181.9z"/>
		</g>
		<g>
			<path class="st10" d="M163.8,173.7c-0.4,1.1-0.3,3.6-0.3,5.1c0,0.7,0,1.1-0.1,1.2c-0.2,0.2-0.3,0.7-0.2,1.2h-4.6
				c0.1-1.5,0.2-3.5,0.3-5.3c0.1-1,0.1-1.9,0.2-2.7c0.8,0,2.9,0,3.4-0.2c0.4-0.1,1-0.3,1.4-0.4C164,173.1,163.9,173.4,163.8,173.7z"
				/>
			<path class="st6" d="M163.5,181.4h-4.9v-0.2c0.1-2.1,0.2-3.8,0.3-5.3c0.1-1,0.1-1.9,0.2-2.7V173h0.4c0.9,0,2.7,0,3.2-0.1
				c0.4-0.1,0.9-0.3,1.4-0.4l0.2-0.1v0.2c0,0.3-0.1,0.7-0.2,1l0,0c-0.3,0.9-0.3,2.7-0.3,4.2c0,0.3,0,0.6,0,0.9c0,1-0.1,1.2-0.2,1.3
				c-0.1,0.1-0.2,0.6-0.1,1L163.5,181.4z M158.9,181.1h4.2c0-0.4,0-0.9,0.3-1.1c0,0,0.1-0.3,0.1-1.1c0-0.3,0-0.6,0-0.9
				c0-1.5,0-3.3,0.3-4.3c0.1-0.2,0.1-0.5,0.2-0.7c-0.4,0.1-0.9,0.2-1.2,0.3c-0.5,0.2-1.9,0.2-3.3,0.2h-0.1c-0.1,0.8-0.1,1.7-0.2,2.5
				C159.1,177.4,159,179.1,158.9,181.1z"/>
		</g>
	</g>
</g>
<g>
	<g>
		<g>
			<path class="st9" d="M1040.7,89.7L1040.7,89.7L1040.7,89.7c0.5-2,1-4,2-5.5c3.5-6,5-13.1,3.5-20.1l-0.5-3.5c-0.5-1.5-0.5-3-1-5
				l0,0c-2-10.6-3.5-19.1-6.5-26.2c-4.5-12.6-8.6-25.2-11.6-37.7c-1.5-7-2.5-21.6-2.5-21.6c-0.5-4-3.5-7-7.5-6.5
				c-2.5,0-4.5,1.5-6,3.5c-3.5,5.5-8.6,11.6-10.6,12.6c-3,1-14.1,1.5-20.1,1.5c-8.1,0.5-11.1,0.5-13.1,1.5c-2,0.5-4,0.5-6.5,0
				c-4-1-29.7-3-38.7,0.5c-3,1-5,2-7,3l0,0l-2,1c-1,0.5-2.5,1.5-3.5,2c-12.6,1.5-25.7,2.5-38.7,3l0,0h-3.5c-21.6,0.5-34.7-2-36.2-3
				c-0.5,0-0.5-0.5-1-0.5c-4.5-2-16.6-7.5-31.2-5l0,0h-0.5l0,0h-1C781.1-13,772.6-9,770.5-7.9c-3,1-25.7,8.6-35.2,11.6
				c-2.5-4-6-11.1-8.1-15.6c-7-14.1-8.6-16.1-10.6-17.6c-2.5-1.5-18.6-7.5-23.1-9.1c-23.1-8.1-24.2-7.5-27.2-5.5
				c-2,1-2.5,2-8.6,12.1c-5,8.6-18.6,31.2-23.1,34.2c-2.5,1-14.6,5.5-27.7,10.6c-16.6,6.5-37.7,14.6-54.8,21.1
				c-9.6,3.5-16.1,6.5-21.1,8.6c-3,1-5,2-6.5,2.5c-2,1-7.5,3.5-6,9.1c0.5,2.5,1,3,9.1,12.1c8.6,9.6,24.2,26.7,29.2,36.2
				c2.5,4.5,7.5,16.1,14.1,32.2l0,0c5,12.6,11.1,27.7,16.1,41.3l0,0c4.5,11.6,7.5,21.1,9.6,26.7c3.5,10.6,15.6,49.3,35.2,111.7l0,0
				l8.6,27.7l10.1,35.7l0,0l42.3,147.9c1,3,3.5,5,7,5c0.5,0,0.5,0,1,0l88.1-10.6h0.5h0.5l0,0l63.9-11.1l0,0h1h0.5l73.5-18.6
				c2.5-0.5,4.5-2.5,5-5c2.5-10.1,9.6-28.2,16.1-33.2c0.5-0.5,1-1,1.5-1c0,0,0.5-0.5,1-1.5l0,0c20.1-24.2,20.1-29.2,20.1-31.7v-1.5
				c0.5-24.7,4-32.7,5.5-35.2l0.5-1l0,0c5-7,8.6-15.1,10.1-23.6c2-9.6,3-16.1,3.5-18.6l0,0l0,0l0.5-2v-0.5
				c1.5-14.1,5.5-27.7,11.1-40.8c4-8.1,8.6-15.6,14.6-22.6c3.5-4.5,7-8.6,8.6-13.6c0.5-2,1.5-4.5,2.5-6.5c0.5-1.5,1-2.5,1.5-4l0,0
				c2-5,3.5-10.6,3.5-16.1c0-4.5,0-11.1-1-19.6l0,0c-1-8.6-2-16.6-3.5-25.2c-2-11.1-4.5-21.6-8.6-31.7l0,0l0,0c-0.5-1.5-1-2.5-1.5-4
				c-0.5-1-1-2-1-3.5c0,0,0.5-0.5,2.5-2c7-4,16.1-12.1,20.6-22.1l0,0c1-2.5,1.5-4.5,2-7c1-6,0.5-12.1-1.5-17.6
				C1040.7,94.2,1040.2,92.2,1040.7,89.7z"/>
		</g>
		<g>
			<path class="st10" d="M788.7,179.2c-5,0.5-13.6,1-16.1,1c-4.5,0-10.6-8.6-16.1-8.6c-5.5,0-9.6,6.5-12.6,10.1
				c-2.5,2.5-6,5-16.1,6.5c-2,0.5-4.5,0.5-7.5,0.5c-16.1,1-21.6-6.5-31.2-8.1c-9.1-2-9.6,1.5-16.1,3c-6,1.5-10.6-7-27.2-15.6
				c-16.6-8.1-15.1-2.5-22.1-1c-7.5,2-19.1-9.1-20.6-8.6c-1,0.5-6,8.6-10.1,15.1c-5-13.1-10.6-28.2-16.1-41.3
				c10.1-1.5,32.2-4.5,71.4-11.1c49.8-8.1,92.1-15.6,101.1-17.1C757,122.4,774.6,163.1,788.7,179.2z"/>
			<path class="st6" d="M717.2,189.3c-9.1,0-14.6-2.5-19.1-5c-3-1.5-5.5-2.5-9.1-3.5c-6-1-8.1,0-10.6,1c-1.5,0.5-3,1.5-5,2
				c-3.5,1-6.5-1.5-11.6-5c-3.5-3-9.1-6.5-16.6-10.6c-12.1-6-14.1-4.5-17.1-3c-1,0.5-2.5,1.5-4.5,2c-5.5,1.5-12.6-3.5-17.1-6.5
				c-1.5-1-3-2-3.5-2c-0.5,0.5-2.5,3-9.6,14.6l-1,1.5l-0.5-1.5c-5-13.6-11.1-28.7-16.1-41.3l-0.5-1h1c10.1-1.5,32.2-4.5,71.4-11.1
				c52.3-8.6,96.1-16.1,101.1-17.1h0.5l0.5,0.5c7,17.1,25.7,59.4,39.2,76l1,1.5h-1.5c-5.5,0.5-13.6,1-16.1,1s-5-2-7.5-4
				c-3-2.5-6-4.5-8.6-4.5c-4,0-7.5,4.5-10.1,7.5c-0.5,0.5-1,1.5-1.5,2c-2.5,3-6.5,5.5-16.6,6.5c-2,0.5-4.5,0.5-7.5,0.5
				C719.2,189.3,718.2,189.3,717.2,189.3z M684,178.7c1.5,0,3,0,5,0.5c3.5,0.5,6,2,9.1,3.5c5,2.5,11.1,5.5,21.6,4.5
				c3,0,5.5-0.5,7.5-0.5c10.6-1.5,13.6-4,15.6-6c0.5-0.5,1-1,1.5-2c3-3.5,6.5-8.1,11.6-8.1c3,0,6.5,2.5,9.6,5c2.5,2,5,4,6.5,4
				c2.5,0,10.6-0.5,14.6-0.5c-13.6-17.1-31.2-56.9-38.2-74.5c-7.5,1.5-49.8,8.6-100.6,17.1c-38.2,6-60.4,9.6-70.4,11.1
				c5,12.1,10.6,26.2,15.1,38.7c8.1-13.6,9.1-13.6,9.6-14.1c1,0,2,0.5,5,2.5c4,3,11.1,7.5,15.6,6.5c2-0.5,3-1,4-2c4-2,6.5-3,18.6,3
				c8.1,4,13.1,7.5,17.1,10.6c4.5,3.5,7,5.5,10.1,4.5c2-0.5,3.5-1,4.5-1.5C679.5,179.2,681,178.7,684,178.7z"/>
		</g>
		<g>
			<path class="st10" d="M832.9,53.4l-82,49.8l-1.5,0.5c-9.1,1.5-51.3,9.1-101.1,17.1c-39.2,6.5-61.9,9.6-71.4,11.1
				c-6-14.6-11.6-27.7-14.6-33.2c-8.1-14.6-37.2-44.3-37.7-45.8S628.7,12.2,636.7,8.7c8.1-3.5,30.7-45.8,32.7-46.8
				c1.5-1,40.8,13.1,43.3,14.6c2.5,1.5,17.6,35.7,20.1,35.7s39.2-12.1,41.3-13.1c2-1,9.6-4.5,24.7-8.1c0.5,0,0.5,0,1,0L832.9,53.4z"
				/>
			<path class="st6" d="M575.8,132.4v-0.5c-4.5-11.6-11.1-26.7-14.6-32.7c-5.5-9.6-20.6-26.7-30.2-37.2c-6.5-7.5-7.5-8.6-7.5-9.1
				c0-1-0.5-1.5,84.5-34.2c14.6-5.5,25.7-10.1,28.2-11.1c5.5-2.5,18.6-24.7,26.2-36.7c4.5-7.5,5.5-9.6,6.5-10.1
				c2.5-1.5,43.8,14.6,43.8,14.6c1,0.5,3.5,5,8.6,15.1c4,8.1,10.1,19.6,11.6,20.6c2.5,0,38.7-12.1,40.8-13.1c1-0.5,9.1-4.5,24.7-8.1
				c0.5,0,1,0,1,0h0.5l34.2,63.4l-83,50.3l-1.5,0.5c-2,0.5-46.8,8.1-101.1,17.1c-39.2,6.5-61.9,9.6-71.4,11.1L575.8,132.4z
				 M525.5,52.9c1,1,4,4.5,7,8.1c9.1,10.1,24.7,27.7,30.2,37.2c3.5,6,9.6,21.1,14.1,32.7c10.1-1.5,32.2-4.5,70.9-11.1
				c54.3-9.1,99.1-16.6,101.1-17.1l1.5-0.5l81-49.3L798.7-7.9h-0.5c-15.6,3.5-23.6,7.5-24.7,7.5c-1.5,1-38.7,13.1-41.8,13.1
				c-2,0-4.5-5-12.6-21.1c-3.5-6.5-7-13.6-8.1-14.6c-2.5-1.5-38.7-14.6-42.3-14.6c-0.5,0.5-3,5-5.5,9.1
				C652.8-11,642.2,6.6,636.7,8.7c-2.5,1-13.6,5.5-28.2,11.1C579.3,31.3,531,49.9,525.5,52.9z"/>
		</g>
		<g>
			<path class="st10" d="M762.5,272.3l-125.3,39.2c-11.1-36.2-30.2-97.1-35.2-111.7c-2-6-5.5-16.1-10.1-27.2
				c4-6.5,9.1-14.6,10.1-15.1c1.5-0.5,13.1,10.6,20.6,8.6c7.5-2,5.5-7,22.1,1c16.6,8.1,21.1,16.6,27.2,15.6c6-1.5,6.5-4.5,16.1-3
				c9.1,2,14.6,9.1,31.2,8.1c3,0,5.5-0.5,7.5-0.5c0,0.5,0,0.5,0,1c0,4.5,21.6,47.8,30.2,65.9C760.5,260.2,762,266.3,762.5,272.3z"/>
			<path class="st6" d="M636.7,312.6v-1c-7-22.1-29.7-95.6-35.2-111.7c-2-6-5.5-16.1-10.1-27.2v-0.5v-0.5
				c9.1-15.1,10.1-15.1,10.6-15.6c1,0,2,0.5,5,2.5c4,2.5,11.1,7.5,15.6,6c2-0.5,3-1,4-2c4-2,6.5-3,18.6,3c8.1,4,13.1,7.5,17.1,10.6
				c4.5,3.5,7,5.5,10.1,4.5c2-0.5,3.5-1,4.5-1.5c3-1.5,5-2.5,11.6-1c3.5,0.5,6,2,9.1,3.5c5,2.5,11.1,5.5,21.6,4.5
				c3,0,5.5-0.5,7.5-0.5h0.5v0.5c0,0.5,0,1,0,1c0,3.5,14.1,32.7,23.6,52.3c2.5,5,4.5,9.6,6.5,13.1c2.5,6,4,12.1,5,18.1v0.5H762
				L636.7,312.6z M593.4,172.7c4,11.1,7.5,20.6,9.6,26.7c5.5,16.1,27.7,88.1,34.7,111.2l123.8-38.7c-1-6-2.5-11.6-4.5-17.1
				c-1.5-3.5-4-8.1-6.5-13.1c-13.1-26.7-24.2-49.3-24.2-52.8l0,0c-2,0-4,0.5-6.5,0.5c-10.6,0.5-17.1-2.5-22.1-5
				c-3-1.5-5.5-2.5-9.1-3.5c-6-1-8.1,0-10.6,1c-1.5,0.5-3,1.5-5,2c-3.5,1-6.5-1.5-11.6-5c-3.5-3-9.1-6.5-16.6-10.6
				c-12.1-6-14.1-4.5-17.1-3c-1,0.5-2.5,1.5-4.5,2c-5.5,1.5-12.6-3.5-17.1-6.5c-1.5-1-3-2-3.5-2
				C602.5,159.1,600.5,161.6,593.4,172.7z"/>
		</g>
		<g>
			<path class="st10" d="M769.5,350.8c-44.3,8.6-91.6,19.1-113.2,24.2l-10.1-35.7c0,0-3.5-11.6-8.6-27.7L763,272.3
				c4.5,25.2,5.5,63.4,6,72.5C769,345.8,769,348.3,769.5,350.8z"/>
			<path class="st6" d="M655.8,376l-10.6-36.2l0,0c0,0-3.5-11.6-8.6-27.7v-1l126.8-39.7v1c3,18.1,4.5,42.8,5.5,58.9
				c0.5,6,0.5,11.1,1,13.6c0,1,0.5,3,0.5,6v1h-1C723.8,360.9,674.9,371.9,655.8,376L655.8,376z M638.2,312.1
				c5,16.1,8.6,27.2,8.6,27.2l10.1,34.7c19.1-4.5,66.4-15.1,111.7-24.2c-0.5-2.5-0.5-4-0.5-5c-0.5-2.5-0.5-7.5-1-13.6
				c-1-16.1-2-39.7-5-57.9L638.2,312.1z"/>
		</g>
		<g>
			<path class="st10" d="M787.1,512.3L787.1,512.3l-88.6,10.6L656.3,375c21.6-5,68.9-15.6,113.2-24.2
				c2.5,24.7,11.6,106.7,12.6,126.8C782.6,489.2,784.6,500.7,787.1,512.3z"/>
			<path class="st6" d="M698.1,523.9l-42.8-149.4h1c14.6-3.5,64.9-15.1,113.2-24.2h1l1,9.1c3,30.2,11.1,100.6,11.6,118.7
				c0.5,11.6,2.5,23.1,5.5,34.7v1l-1.5,0.5L698.1,523.9z M657.3,375.5l42.3,146.4l87-10.6c-3-11.1-4.5-22.6-5-33.7
				c-0.5-18.1-8.6-88.6-11.6-118.2l-1-7C721.7,360.9,672.4,371.9,657.3,375.5z"/>
		</g>
		<g>
			<path class="st10" d="M847,412.2c-1,3,3,66.9,4.5,88.6l-63.9,11.1c-3-11.6-4.5-23.1-5.5-34.7c-1-20.1-9.6-101.6-12.6-126.8
				c22.1-4,43.3-8.1,60.9-10.1c17.6-2,30.7-4,40.3-5c-2.5,11.6-5.5,22.6-9.1,33.7C855.1,389.5,847.5,410.2,847,412.2z"/>
			<path class="st6" d="M786.6,512.8v-0.5c-3-11.6-4.5-23.1-5.5-34.7c-0.5-18.1-8.6-88.6-11.6-118.2l-1-9.1h1
				c24.7-4.5,45.3-8.1,60.9-10.1c16.6-2,30.2-4,40.3-5h1v1c-2.5,11.6-5.5,22.6-9.1,33.7c-4.5,14.1-9.1,28.2-12.1,36.7
				c-1,3.5-2,6-2,6.5c-0.5,2.5,2,47.3,4.5,88.1v0.5L786.6,512.8z M770.5,351.3l1,7.5c3,30.2,11.1,100.1,11.6,118.2
				c0.5,11.6,2.5,22.6,5,33.7l62.4-11.1c-1.5-26.2-5-85-4-88.1l0,0c0-0.5,1-3,2-6.5c3-8.6,7.5-22.1,12.1-36.7
				c3.5-10.6,6.5-21.6,8.6-32.2c-10.1,1.5-23.1,3-39.2,5C814.8,343.3,794.7,346.8,770.5,351.3z"/>
		</g>
		<g>
			<path class="st10" d="M972.8,375c-0.5,0.5-0.5,0.5-0.5,0.5c-7,9.1-7,35.2-7.5,40.8c0,4.5-14.6,22.1-18.6,27.2
				c-17.6-9.6-62.4-32.7-65.9-36.2c-3.5-3-13.6-26.2-18.6-38.2c3.5-11.1,6.5-22.1,9.1-33.7l0,0c12.1,1.5,34.7,14.1,42.3,17.1
				C918.5,354.8,954.2,367.9,972.8,375z"/>
			<path class="st6" d="M946.7,444.9l-0.5-0.5c-18.6-9.6-62.4-32.7-65.9-36.2c-3.5-3.5-14.6-28.2-19.1-38.7v-0.5v-0.5
				c3.5-11.1,6.5-22.1,9.1-33.7v-1h1c8.6,1,22.6,8.1,33.2,13.1c4,2,7,3.5,9.6,4.5c5.5,2,39.7,14.6,57.9,21.6l3,1l-0.5,1
				c-0.5,0.5-0.5,0.5-0.5,0.5c-6,8.6-7,31.2-7,38.7v1.5c0,4.5-11.6,19.1-18.6,27.7L946.7,444.9z M862.6,368.9
				c9.1,21.6,16.1,35.7,18.6,37.7c3.5,3.5,49.8,27.7,65.4,35.7c11.1-13.1,17.6-23.1,18.1-26.2v-1.5c0-7.5,1-30.7,7.5-39.7l-1-0.5
				c-19.6-7.5-52.3-19.6-57.9-21.6c-2-1-5.5-2.5-9.6-4.5c-9.6-5-23.1-11.1-31.7-12.6C868.7,347.3,865.6,358.4,862.6,368.9z"/>
		</g>
		<g>
			<path class="st10" d="M984.9,335.7c-0.5,3-1.5,9.6-3.5,18.6c-1.5,7.5-4.5,14.6-8.6,20.6c-18.6-7-54.3-20.1-59.9-22.1
				c-7.5-3-30.2-15.6-42.3-17.1c25.2-3.5,26.7-4.5,30.2-5.5c1.5-0.5,6.5-7.5,13.1-17.1c6,3,17.6,8.6,23.1,10.1
				C943.1,325.1,973.8,333.2,984.9,335.7z"/>
			<path class="st6" d="M972.8,376h-0.5c-18.6-7-54.3-20.1-59.9-22.1c-2-1-5.5-2.5-9.6-4.5c-10.1-5-23.6-11.6-32.2-12.6l-6.5-1
				l6.5-1c23.1-3,26.2-4,29.2-5h1c1-0.5,3.5-3.5,12.6-16.6l0.5-0.5l0.5,0.5c5,2.5,17.1,8.6,23.1,10.1c4.5,1.5,21.1,5.5,47.8,12.6
				h0.5v1c-0.5,3.5-2,11.1-3.5,18.6c-1.5,7.5-4.5,14.6-9.1,21.1L972.8,376z M875.7,335.7c8.6,2.5,19.6,7.5,28.2,11.6
				c4,2,7.5,3.5,9.6,4.5c5.5,2,40.3,15.1,59.4,22.1c4-6,7-12.6,8.1-19.6c1.5-7,2.5-14.1,3-17.6c-26.7-7-42.8-11.1-47.3-12.6
				c-5.5-2-17.1-7.5-22.6-10.1c-9.1,14.1-11.6,16.6-13.1,16.6h-0.5C897.3,332.2,894.8,332.7,875.7,335.7z"/>
		</g>
		<g>
			<path class="st10" d="M1023.6,245.1c-1.5,3.5-2.5,7-4,10.6c-3,8.6-13.1,15.1-22.6,35.2c-6,13.6-10.1,28.2-12.1,42.8
				c0,0,0,0.5-0.5,2c-11.1-3-41.3-10.6-47.8-12.6c-5.5-2-17.1-7.5-23.1-10.1c12.6-19.6,29.7-48.3,29.7-48.3s-11.1-17.1-25.2-40.3
				c9.1,0.5,40.8,1.5,42.8,1.5h0.5c2.5,0.5,8.1,4.5,12.1,7c1.5,1,3,1.5,4.5,2.5c3,1,16.6,0,21.1,0c0.5,0,0.5,0,1,0
				C1002.5,236.1,1015.6,241.6,1023.6,245.1z"/>
			<path class="st6" d="M985.4,336.7h-1c-26.7-7-43.3-11.6-47.8-12.6c-6-2-18.1-8.1-23.1-10.6l-1-0.5l0.5-1
				c11.6-18.1,27.2-44.3,29.2-47.8c-2-3-12.1-19.1-25.2-39.7l-1-1.5h1.5c15.1,0.5,40.8,1.5,42.8,1.5c0.5,0,0.5,0,1,0
				c2,0.5,5.5,3,9.1,5.5c1,0.5,2,1.5,3,2c1.5,1,2.5,1.5,4,2.5c1.5,0.5,8.1,0.5,13.1,0c3,0,6-0.5,7.5,0c0.5,0,0.5,0,1,0
				c2,0,9.6,3,23.6,9.1l0.5,0.5l-0.5,0.5c-0.5,1.5-1,2.5-1.5,4c-1,2-1.5,4.5-2.5,7c-1.5,4-4,7-7.5,11.6
				c-4.5,5.5-10.1,12.6-15.1,24.2c-6,13.6-10.1,28.2-11.6,42.8c0,0,0,0.5-0.5,2L985.4,336.7z M915,312.6c5.5,2.5,16.6,8.1,22.1,10.1
				c4.5,1.5,20.6,5.5,46.8,12.6c0-0.5,0-1,0-1c2-15.1,6-29.2,12.1-43.3c5.5-11.6,11.1-18.6,15.6-24.2c3.5-4,6-7.5,7-11.1
				c1-2.5,1.5-4.5,2.5-7c0.5-1,1-2,1-3c-16.6-7-21.1-8.6-22.1-9.1c-0.5,0-0.5,0-1,0c-2,0-4.5,0-7.5,0c-7,0.5-12.1,0.5-14.1-0.5
				c-1.5-0.5-3-1.5-4.5-2.5c-1-0.5-2-1-3-2c-3.5-2-7-4.5-9.1-5h-0.5c-2,0-33.7-1-41.3-1.5c14.1,22.1,24.7,38.7,24.7,38.7l0.5,0.5
				l-0.5,0.5C944.1,265.3,927.5,293.4,915,312.6z"/>
		</g>
		<g>
			<path class="st10" d="M983.4,47.9c-12.1-1-15.1,11.1-55.9,20.1h-1c-30.2,6.5-60.4,14.6-75.5,18.6l-18.1-33.2L799.2-8.5
				c14.1-2.5,26.7,4,28.7,5c2.5,1,16.1,3.5,38.7,3h3.5c7,11.6,23.1,37.2,23.6,37.2c0.5,0,39.2-11.1,56.9-16.1L983.4,47.9z"/>
			<path class="st6" d="M850.5,87.7L798.2-9.5h1c12.6-2.5,23.1,2.5,27.7,4.5c0.5,0.5,1,0.5,1.5,0.5c2.5,1,15.6,3.5,38.7,3h4v0.5
				c10.1,16.6,21.1,34.7,23.1,36.7c2.5-0.5,23.1-6.5,39.7-11.1c6.5-2,12.1-3.5,17.1-4.5h0.5l34.7,28.7h-2.5c-5-0.5-8.1,1.5-13.6,4.5
				c-7.5,4-18.6,10.1-42.3,15.6h-1c-27.7,6-56.4,13.6-75.5,18.6L850.5,87.7z M800.7-7.9l50.8,93.6c19.1-5,47.3-12.6,75-18.6h1
				c23.1-5,34.2-11.1,41.8-15.1c4.5-2.5,8.1-4.5,12.1-4.5l-30.2-25.2c-4.5,1.5-10.6,3-16.6,4.5c-31.7,9.1-39.7,11.1-40.3,11.1
				c-0.5,0-1.5,0-24.2-37.2h-3c-23.1,0.5-36.7-2.5-39.2-3c-0.5,0-1-0.5-1.5-0.5C821.9-5.4,812.3-10,800.7-7.9z"/>
		</g>
		<g>
			<path class="st10" d="M951.2,20.7c-17.6,5-56.4,15.6-56.9,16.1c-0.5,0.5-16.6-25.7-23.6-37.2c13.6,0,26.7-1.5,39.7-3
				c2.5-1,5-2,7-3L951.2,20.7z"/>
			<path class="st6" d="M894.3,37.8c-1,0-2.5-2.5-24.7-37.7l-1-1h1.5c13.1,0,26.7-1.5,39.7-3c2.5-1,4.5-2,7-3l0.5-0.5l35.2,29.2
				l-1.5,0.5C933.1,26.8,894.8,37.3,894.3,37.8L894.3,37.8z M871.7,0.1c16.6,27.2,21.1,34.2,22.6,35.7c4-1,37.7-10.6,54.8-15.6
				L917.5-6.4c-2,1-4.5,2-7,3C897.8-0.9,884.8,0.1,871.7,0.1z"/>
		</g>
		<g>
			<path class="st10" d="M1037.7,57c-11.6-2-42.3-8.1-53.3-9.1h-1l0,0l-32.2-26.7L917.5-6.9c2-1,4-2,6.5-3
				c6.5-2.5,30.7-1.5,34.2-0.5c3,1,11.1,0,12.1-1c1-1,25.2-0.5,32.2-3c7-2.5,14.6-15.6,14.6-15.6s1,15.1,3,22.6
				c3,13.1,7,26.2,11.6,39.2C1034.2,40.4,1036.2,48.4,1037.7,57z"/>
			<path class="st6" d="M1038.7,58h-1c-12.6-2.5-42.3-8.1-53.3-9.1h-1.5l0,0L916-6.9l1-0.5c2-1,4-2,6.5-3c7-3,31.2-1.5,34.7-0.5
				c3,1,10.1,0,11.1-0.5c0.5-0.5,1.5-0.5,10.1-1c7.5-0.5,18.6-0.5,22.6-2c6.5-2,14.1-15.1,14.1-15.1l1.5-2.5v2.5c0,0,1,15.1,3,22.6
				c3,13.1,7,26.2,11.6,38.7c3,8.1,5,16.6,6,24.7L1038.7,58z M983.9,46.9h1c10.6,1,39.2,6.5,52.3,9.1c-1.5-8.1-3.5-15.6-6-23.1
				c-4.5-12.6-8.6-26.2-11.6-39.2c-1-6-2-15.6-2.5-20.1c-2.5,4-8.6,12.1-13.6,13.6c-4,1.5-15.1,2-23.1,2c-4,0-8.1,0.5-9.1,0.5
				c-1.5,1-9.6,2-12.6,1c-3.5-1-27.2-2-33.7,0.5c-2,1-4,1.5-5.5,2.5L983.9,46.9z"/>
		</g>
		<g>
			<path class="st10" d="M1036.2,114.8c-0.5,2-1,3.5-1.5,5.5c-6,0-18.1,2-34.7,12.1c-1,0.5-2.5,1.5-3.5,2l-2.5-50.3
				c11.1,1,29.7,3,39.7,4C1032.2,97.2,1038.2,103.3,1036.2,114.8z"/>
			<path class="st6" d="M996,136l-2.5-52.8h1c11.1,1,29.7,3,39.7,4h1v1c-0.5,4,0,7,1,11.1c1,4,2.5,9.1,1.5,15.1l0,0
				c-0.5,2-1,4-1.5,5.5v0.5h-0.5c-5.5,0-17.6,2-34.2,12.1l-0.5,0.5c-1,0.5-2,1-2.5,1.5L996,136z M995,85.1l2.5,47.8
				c0.5-0.5,1-0.5,1.5-1l0.5-0.5c16.6-10.1,28.7-12.1,34.7-12.6c0.5-1.5,1-3,1.5-5c1-6,0-10.1-1.5-14.6c-1-3.5-2-7-1.5-10.6
				C1023.1,88.2,1006,86.6,995,85.1z"/>
		</g>
		<g>
			<path class="st10" d="M1034.7,120.4c-3.5,8.6-11.6,15.6-17.1,18.6c-7,4-7.5,7.5-5,14.1c0.5,1.5,1,2.5,1.5,4c-3,2-9.1,6-12.6,8.6
				c-1,0.5-2,1-3,1.5c-3.5,1.5-7.5,3-7,1c0.5-2.5,2-9.1,0-8.1c-1.5,0.5-8.1,3.5-11.6,5.5l-0.5-1l0,0c-2-3-4-6.5-6.5-10.6
				c4-4.5,11.6-11.1,24.7-19.6c1-0.5,2-1.5,3.5-2C1016.6,122.4,1028.7,120.4,1034.7,120.4z"/>
			<path class="st6" d="M991.9,170.2c-0.5,0-1,0-1.5-0.5c-0.5-0.5-0.5-1-0.5-1.5s0-1,0.5-1.5c0.5-1.5,1-4.5,0.5-5.5
				c-1.5,0.5-5,2.5-8.6,4l-4,2l-1-2c-1.5-3-4-6.5-6.5-10.6l-0.5-0.5l0.5-0.5c5.5-6,13.6-12.6,24.7-19.6c0.5-0.5,1.5-1,2-1l1.5-1
				c17.1-10.6,29.2-12.1,35.2-12.6h1.5l-0.5,1c-3.5,9.1-11.6,16.1-17.6,19.1c-7,4-7,7.5-4.5,13.1c0.5,1,1,2.5,1.5,4l0.5,0.5
				l-0.5,0.5c-3,2-9.1,6-13.1,8.6c-1,0.5-2,1-3,1.5H998C995.5,169.2,993.4,170.2,991.9,170.2z M991.4,159.1c0.5,0,0.5,0,1,0.5
				c1,1,0.5,3.5,0,7c0,0.5,0,1-0.5,1.5l0,0c0.5,0.5,4-1,5.5-2h0.5c1-0.5,2-1,2.5-1.5c3.5-2,9.1-6,12.1-8.1c-0.5-1.5-1-2.5-1.5-3.5
				c-2.5-6.5-2.5-11.1,5.5-15.6c5.5-3,12.6-9.1,16.6-17.1c-6,0.5-17.6,2.5-32.7,12.1l-1.5,1c-0.5,0.5-1.5,1-2,1
				c-10.6,6.5-18.6,13.1-24.2,18.6c2.5,3.5,4.5,7,6.5,10.1l0.5,0.5l2.5-1c3.5-1.5,7.5-3.5,8.6-4
				C990.9,159.1,991.4,159.1,991.4,159.1z"/>
		</g>
		<g>
			<path class="st10" d="M1026.2,211.9c-3.5-0.5-6.5-1-9.6-2c-2-0.5-12.6,0-17.6,0c0-7.5-0.5-20.1,1.5-25.7c0.5-1.5,1-3,1-5
				c0.5-4.5,0.5-9.1,0-13.6c4-2.5,10.1-6.5,12.6-8.6c4,10.1,7,20.1,8.6,30.7C1024.1,195.8,1025.1,203.9,1026.2,211.9z"/>
			<path class="st6" d="M1026.7,212.9h-1c-3.5-0.5-6.5-1-10.1-2c-1.5-0.5-11.1,0-17.1,0h-1v-1c0-1.5,0-2.5,0-4
				c0-7.5,0-17.1,1.5-22.1c0.5-1.5,1-3,1-4.5c0.5-4.5,0.5-9.1,0-13.6v-0.5l0.5-0.5c4-2.5,10.1-6.5,12.6-8.6l1-0.5l0.5,1
				c4,10.1,7,20.1,8.6,30.7c1.5,8.1,2.5,16.1,3.5,24.2L1026.7,212.9z M1010.6,208.9c3,0,5,0,6,0c3,1,6,1.5,8.6,2
				c-0.5-7.5-2-15.6-3.5-23.1c-1.5-10.1-4.5-20.1-8.1-29.2c-3,2-8.1,5.5-11.6,7.5c0.5,4.5,0.5,9.1,0,13.1c0,1.5-0.5,3.5-1,5
				c-1.5,4.5-1.5,14.1-1.5,21.6c0,1,0,2,0,3.5C1002.5,209.4,1007,208.9,1010.6,208.9z"/>
		</g>
		<g>
			<path class="st10" d="M1026.7,231.1c-0.5,4.5-1.5,9.6-3,13.6c-8.1-3.5-21.1-9.1-23.1-9.1c-0.5,0-0.5,0-1,0c0-4,0-9.1-1-10.6
				c-0.5-1-1-2-1-3c-0.5-2,0-5,1-6c0.5-0.5,0.5-3,0.5-6c5,0,15.6-0.5,17.6,0c3,1,6.5,1.5,9.6,2
				C1026.7,220.5,1026.7,227,1026.7,231.1z"/>
			<path class="st6" d="M1024.1,246.1l-3-1.5c-7.5-3-18.6-8.1-20.6-8.1c-0.5,0-0.5,0-1,0h-1v-1c0-8.1-0.5-10.1-1-10.1
				c-0.5-1-1-2-1-3c-0.5-2.5,0-5,1-6.5c0-0.5,0.5-2,0.5-5.5v-1h1c3.5,0,15.6-0.5,17.6,0c3,1,6.5,1.5,9.6,2h0.5v0.5
				c0.5,6.5,1,13.1,1,19.1l0,0c-0.5,5-1.5,9.6-3,14.1L1024.1,246.1z M1000,234.6C1000,234.6,1000.5,234.6,1000,234.6
				c2.5,0.5,11.1,4,21.6,8.1l1.5,0.5c1.5-4,2.5-8.1,3-12.6c0-6-0.5-12.1-1-18.1c-3-0.5-6-1-9.1-2c-1.5,0-9.1,0-16.1,0c0,4,0,5.5-1,6
				c-0.5,0.5-1,3-0.5,5c0,1,0.5,2,1,2.5C999.5,225,1000,226.5,1000,234.6z"/>
		</g>
		<g>
			<path class="st10" d="M871.2,330.7c0,1.5-0.5,3-0.5,4.5l0,0c-9.6,1.5-22.6,3-40.3,5c-17.1,2-38.7,6-60.9,10.1
				c-0.5-2.5-0.5-5-0.5-6c-1-9.1-2-47.3-6-72.5l108.2-33.7C871.7,273.3,872.2,319.1,871.2,330.7z"/>
			<path class="st6" d="M769,351.8v-1c-0.5-2.5-0.5-5-0.5-6c-0.5-2.5-0.5-7.5-1-13.6c-1-16.1-2-40.8-5.5-58.9v-0.5l109.7-34.2v1
				c0.5,34.2,1.5,81,0.5,92.6c0,1-0.5,2.5-0.5,5v0.5h-0.5c-10.1,1.5-23.6,3-40.3,5c-16.1,2-36.2,5.5-60.4,10.1H769z M763.5,272.8
				c3,18.1,4.5,42.3,5,58.4c0.5,6,0.5,11.1,1,13.6c0,1,0.5,3,0.5,5c24.2-4.5,44.3-8.1,59.9-10.1c16.6-2,29.2-3.5,39.7-5
				c0.5-1.5,0.5-3,0.5-4l0,0c1-11.6,0.5-56.9-0.5-91.1L763.5,272.8z"/>
		</g>
		<g>
			<path class="st10" d="M870.7,238.6l-108.2,33.7c-1-6-2.5-12.1-5-18.1c-8.6-18.1-30.2-61.4-30.2-65.9c0-0.5,0-0.5,0-1
				c10.1-1.5,13.6-3.5,16.1-6.5c3-3.5,7-10.1,12.6-10.1s12.1,8.6,16.1,8.6c3,0,11.1-0.5,16.1-1c2,2.5,4.5,4.5,7,6
				c17.6,8.6,15.6,6.5,22.1,2c6.5-4.5,12.6-10.1,22.6-3.5c9.6,6,8.6,6.5,10.1,5c1-1.5,4.5-5,9.6,1.5c4.5,5.5,7,18.1,10.6,19.1
				C870.2,216.5,870.2,227,870.7,238.6z"/>
			<path class="st6" d="M762,273.3v-1c-1-6-2.5-12.1-5-17.6c-2-4-4.5-9.6-7.5-15.6c-13.1-26.7-23.1-47.3-23.1-50.8v-0.5v-1h1
				c10.6-1.5,13.6-4,15.6-6c0.5-0.5,1-1,1.5-1.5c3-3.5,6.5-8.6,11.6-8.6c3,0,6.5,2.5,9.6,5c2.5,2,5,4,6.5,4c3,0,11.6-0.5,16.1-1h0.5
				l0.5,0.5c2,2.5,4,4.5,6.5,6c14.6,7,15.1,6.5,18.6,3.5c0.5-0.5,1.5-1,2-1.5l0.5-0.5c6-4.5,13.1-9.6,22.6-3c3,2,5,3.5,6.5,4.5
				c1,0.5,1.5,1,2,1l0,0v-0.5c0.5-0.5,2-2.5,4.5-2.5c2,0,4,1.5,6,4c2,2.5,4,7,5.5,10.6c1.5,3.5,3.5,8.1,4.5,8.6h0.5v6
				c0,6.5,0.5,15.1,0.5,23.6v0.5h-0.5L762,273.3z M728.3,188.3L728.3,188.3c0,3.5,13.6,31.7,22.6,50.3c3,6,5.5,11.6,7.5,15.6
				c2.5,5.5,4,11.6,4.5,17.1l106.7-33.2c0-8.6-0.5-16.6-0.5-23.1v-5c-2-1-3.5-4.5-5-9.1c-1.5-3.5-3-7.5-5-10.1c-2-2-3.5-3.5-5-3.5
				c-1,0-2,0.5-3.5,2l0,0c-1,1.5-1.5,1-4-0.5c-1.5-1-3.5-2.5-6.5-4.5c-9.1-5.5-15.1-1-21.1,3l-0.5,0.5c-1,0.5-1.5,1-2,1.5
				c-4,3.5-5.5,4-20.6-3.5c-2.5-1.5-5-3.5-7-6c-6,0.5-13.1,1-16.1,1c-2.5,0-5-2-7.5-4c-3-2.5-6-4.5-8.6-4.5c-4,0-7.5,4.5-10.6,7.5
				c-0.5,0.5-1,1-1.5,2C741.4,184.8,737.8,186.8,728.3,188.3z"/>
		</g>
		<g>
			<path class="st10" d="M943.6,264.3c0,0-17.1,28.7-29.7,48.3c-6,9.6-11.1,16.6-13.1,17.1c-3.5,1-5,2-30.2,5.5l0,0
				c0.5-2,0.5-3.5,0.5-4.5c1-11.6,0.5-57.4-0.5-92.1c-0.5-11.6-0.5-21.6-1-29.2c0.5,0,1,0,1,0c4-2.5,8.6-7.5,15.6-5
				c6,2,11.6,2,17.1-2.5c5,8.1,9.6,15.6,14.1,22.6C932.6,247.2,943.6,264.3,943.6,264.3z"/>
			<path class="st6" d="M869.7,336.2v-1c0.5-2,0.5-3.5,0.5-4.5c1-9.1,0.5-39.7-0.5-92.1c-0.5-11.6-0.5-21.6-1-29.2v-1h1h0.5
				c0.5-0.5,1.5-1,2-1.5c3.5-2.5,8.1-5.5,14.1-3.5c6.5,2.5,11.1,1.5,16.1-2.5l0.5-0.5l0.5,1c5,8.1,9.6,15.6,14.1,22.6
				c14.1,22.6,25.2,39.7,25.2,40.3l0.5,0.5l-0.5,0.5c0,0.5-17.1,29.2-29.7,48.3c-9.6,14.6-12.1,17.1-13.6,17.6l-1,0.5
				c-3.5,1-6,2-29.7,5L869.7,336.2z M870.7,209.9c0,7.5,0.5,17.1,0.5,28.2c1,52.3,1.5,83.5,0.5,92.6c0,1,0,2-0.5,3.5
				c22.1-3,25.2-4,28.2-5l1-0.5c0.5,0,3-2,12.6-16.6c11.6-18.1,27.2-44.3,29.2-47.8c-2-3-12.1-19.1-24.7-39.7
				c-4.5-7-9.1-14.6-13.6-22.1c-5,4-10.6,4.5-17.1,2c-5.5-2-9.1,1-12.6,3c-1,0.5-1.5,1-2.5,1.5C871.2,209.9,871.2,209.9,870.7,209.9
				z"/>
		</g>
		<g>
			<path class="st10" d="M903.9,201.4c-5.5,4.5-11.1,5-17.1,2.5c-7-2.5-11.6,2.5-15.6,5c-0.5,0-1,0.5-1,0c-3.5-1-6-13.6-10.6-19.1
				c-5-6.5-8.6-3-9.6-1.5c-1,1.5,0,1-10.1-5c-10.1-6-16.6-1-22.6,3.5c-6,4.5-4.5,6.5-22.1-2c-2.5-1.5-5-3.5-7-6
				c-13.6-16.1-31.7-56.9-39.2-76l1.5-0.5l82-49.8l18.1,33.2l13.1,24.2c-9.1,0-9.6,3.5-9.6,8.6C854.6,121.9,880.2,163.6,903.9,201.4
				z"/>
			<path class="st6" d="M870.2,209.9h-0.5c-2-0.5-4-4.5-6-9.6c-1.5-3.5-3-7.5-5-10.1c-2-2-3.5-3.5-5-3.5l0,0c-1,0-2,0.5-3.5,2l0,0
				c-1,1.5-1.5,1-4-0.5c-1.5-1-3.5-2.5-6.5-4.5c-9.1-5.5-15.1-1-21.1,3l-0.5,0.5c-1,0.5-1.5,1-2,1.5c-4,3.5-5.5,4-20.6-3.5
				c-3-1.5-5.5-4-7.5-6.5c-14.1-16.6-32.2-58.9-39.7-76l-0.5-1l2.5-0.5l82.5-49.8l32.2,59.4h-1.5c-8.1,0-8.6,3-8.6,7.5
				c0,1.5,9.1,17.1,49.3,82l0.5,0.5l-0.5,0.5c-5.5,4.5-11.1,5-17.6,2.5c-5.5-2-9.1,1-12.6,3c-1,0.5-1.5,1-2.5,1.5
				C871.2,209.9,870.7,209.9,870.2,209.9z M853.6,185.3L853.6,185.3c2,0,4,1.5,6.5,4c2,2.5,4,7,5.5,10.6c1.5,3.5,3.5,8.1,4.5,8.6
				h0.5c0.5-0.5,1.5-1,2-1.5c3.5-2.5,8.1-5.5,14.1-3.5c6,2,11.1,1.5,15.6-2c-43.8-69.9-49.3-80.5-49.3-82.5c0-5,0.5-9.1,9.1-9.1
				l-30.2-55.3l-81.5,49.3h-1c7.5,18.1,25.2,58.9,38.7,75c2,2.5,4,4.5,7,6c14.6,7,15.1,6.5,18.6,3.5c0.5-0.5,1.5-1,2-1.5l0.5-0.5
				c6-4.5,13.1-9.6,22.6-3c3.5,2,5.5,3.5,6.5,4.5c1,0.5,1.5,1,2,1l0,0v-0.5C850.5,186.3,852.1,185.3,853.6,185.3z"/>
		</g>
		<g>
			<path class="st10" d="M940.1,110.8c-15.6,0-66.9,0-75,0h-1l-13.1-24.2c15.1-4,45.3-12.1,75.5-18.6h1
				C929.5,76.6,934.6,98.7,940.1,110.8z"/>
			<path class="st6" d="M884.8,111.8c-9.6,0-17.1,0-19.6,0h-1.5L850,86.1l1-0.5c19.1-5,47.8-12.6,75.5-18.6l2-0.5v1
				c2,9.1,7,31.2,12.6,42.8l0.5,1h-1.5c-4.5,0-12.1,0-20.1,0C908.9,111.8,895.3,111.8,884.8,111.8z M864.6,109.8h0.5
				c6,0,34.2,0,54.8,0c7.5,0,14.6,0,19.1,0c-5-11.6-10.1-32.2-12.1-41.3l0,0c-27.2,6-55.3,13.1-74.5,18.6L864.6,109.8z"/>
		</g>
		<g>
			<path class="st10" d="M1033.7,88.2L1033.7,88.2c-10.1-1-28.7-3-39.7-4c-5.5-0.5-9.1-1-9.6-1c-1.5-0.5-0.5-24.7,0-34.7
				c0-0.5,0-0.5,0-1c11.1,1,41.8,7,53.3,9.1c0.5,2.5,1,5.5,1.5,8.6C1041.2,78.1,1035.2,79.6,1033.7,88.2z"/>
			<path class="st6" d="M1034.7,89.7h-1c-10.1-1-28.2-3-39.7-4c-4-0.5-9.1-1-9.6-1c-1,0-2-0.5-1-35.7v-1.5h1
				c11.1,1,40.8,6.5,53.3,9.1h0.5V57c0.5,1.5,0.5,3,1,4.5c0,1.5,0.5,2.5,0.5,4c1.5,8.6-0.5,12.1-2.5,16.1c-1,2-2.5,4-3,7
				L1034.7,89.7L1034.7,89.7z M984.9,82.6c1,0,3.5,0.5,9.1,1c11.1,1,28.7,3,38.7,4c0.5-3,2-5,3-7c2-3.5,4-7,2.5-15.1
				c0-1.5-0.5-2.5-0.5-4c0-1.5-0.5-2.5-0.5-4c-12.6-2.5-40.3-7.5-51.8-9.1C984.4,71,984.9,80.6,984.9,82.6z"/>
		</g>
		<g>
			<path class="st11" d="M971.8,154.1c-1.5,2-3,4-4.5,6c-1,1.5-2.5,19.1-3.5,35.7c-1,12.1-1.5,24.2-2,29.7h-0.5
				c-2,0-33.7-1-42.8-1.5c-4.5-7-9.6-15.1-14.1-22.6c-23.6-38.2-49.3-80-49.3-82.5c0-4.5,0.5-8.6,9.6-8.6h1c8.1,0,59.4,0,75,0
				c1,2,2,4,3,5.5C948.7,123.4,962.2,140,971.8,154.1z"/>
			<path class="st6" d="M962.2,227l-1-0.5c0,0,0,0-0.5,0c-2,0-36.2-1-42.8-1.5h-0.5v-0.5c-4.5-7-9.6-15.1-14.1-22.6
				c-49.8-79.5-49.8-82-49.8-83c0-5,1-9.1,10.1-9.1h1c6,0,34.2,0,54.8,0c8.6,0,15.6,0,20.1,0h0.5v0.5c1,2,2,3.5,3,5.5
				c6,7,19.1,24.2,28.7,37.7l0.5,0.5l-0.5,0.5c-1.5,2-3,4-4.5,6c0,0.5-1,4.5-3.5,35.7c-0.5,8.1-1,15.6-1.5,21.6c0,3.5-0.5,6-0.5,8.1
				L962.2,227z M918.5,223.5c11.1,0.5,39.2,1.5,42.3,1.5c0-2,0.5-4.5,0.5-7c0.5-6,1-13.6,1.5-21.6c2.5-33.7,3.5-35.7,3.5-36.2
				c1-2,2.5-4,4-6c-9.6-13.6-22.6-30.2-28.2-37.2c-1.5-1.5-2.5-3.5-3-5.5c-4.5,0-11.6,0-19.6,0c-20.6,0-48.8,0-54.8,0h-1
				c-8.1,0-8.6,3-8.6,7.5c0,1.5,7,14.1,49.3,82C909.4,208.9,914.4,216.5,918.5,223.5z"/>
		</g>
		<g>
			<path class="st10" d="M996.5,134.4c-13.1,8.6-20.6,15.1-24.7,19.6c-9.6-14.1-23.1-30.7-28.7-37.7c-1.5-1.5-2.5-3.5-3-5.5
				c-5.5-11.6-10.6-34.2-12.6-42.8c41.3-9.1,44.3-20.6,56.4-20.1l0,0l1,1c-0.5,10.1-1,34.2,0,34.7c0.5,0,4,0.5,9.6,1L996.5,134.4z"
				/>
			<path class="st6" d="M971.8,155.6l-0.5-1c-10.1-14.6-24.7-32.7-28.7-37.7c-1.5-2-2.5-3.5-3.5-5.5c-5.5-12.1-10.6-34.2-12.6-43.3
				v-1h1c23.6-5,34.7-11.6,41.8-15.6c5.5-3,9.1-5,14.6-4.5h0.5l1.5,1.5v0.5c-1,22.1-0.5,31.7,0,33.7c0.5,0,1,0,2,0c1.5,0,4,0.5,7,1
				h0.5l2.5,51.3l-0.5,0.5c-11.1,7-19.1,13.6-24.7,19.1L971.8,155.6z M928,68.5c2,9.6,7,30.7,12.6,42.3c1,2,2,3.5,3,5.5
				c4,5,18.1,22.1,28.2,36.7c5.5-6,13.6-12.1,23.6-18.6l-2.5-48.8c-2.5-0.5-4.5-0.5-6-0.5c-1,0-2-0.5-2.5-0.5l0,0c-1,0-2-0.5-1-35.2
				l-0.5-0.5c-4.5,0-8.1,1.5-13.6,4.5C962.2,57,951.2,63,928,68.5z"/>
		</g>
		<g>
			<path class="st10" d="M978.4,164.6L978.4,164.6c0,0.5-0.5,1-0.5,1.5c-0.5,3-1,8.6-1.5,15.6c-0.5,4-0.5,9.1-1,13.6l-12.1,0.5
				c1.5-16.6,3-34.2,3.5-35.7c1-2,2.5-4.5,4.5-6C974.3,157.6,976.8,161.1,978.4,164.6z"/>
			<path class="st6" d="M962.8,196.8v-1c2.5-33.7,3.5-35.7,3.5-36.2c1-2.5,3-4.5,4.5-6.5l0.5-1l0.5,1c2.5,3.5,4.5,7,6.5,10.6v0.5
				v0.5c0,0.5-0.5,1-0.5,1.5c-0.5,2.5-1,7.5-1.5,15.6c-0.5,4-0.5,9.1-1,13.6v1L962.8,196.8z M971.8,155.1c-1.5,1.5-2.5,3.5-3.5,5
				c-0.5,0.5-1,5-3.5,34.7l10.6-0.5c0.5-4.5,0.5-9.1,1-13.1c0.5-8.6,1-13.6,1.5-16.1c0-0.5,0-1,0.5-1.5
				C975.8,161.6,973.8,158.1,971.8,155.1z"/>
		</g>
		<g>
			<path class="st10" d="M1001,179.2c-2,0.5-5,1-7,2c-2.5,1-13.1,1-17.1,1c0.5-7,1-13.1,1.5-15.6l1-0.5c4-2,10.1-5,11.6-5.5
				c2-1,0.5,5.5,0,8.1c-0.5,2.5,3.5,0.5,7-1c1-0.5,2-1,3-1.5C1001.5,170.2,1001.5,174.7,1001,179.2z"/>
			<path class="st6" d="M980.9,182.7c-2,0-3.5,0-4,0h-1v-1c0.5-8.6,1-13.6,1.5-16.1v-0.5l1.5-0.5c6.5-3,10.6-5,12.1-5.5
				c1-0.5,1.5,0,1.5,0c1,1,0.5,3.5,0,7c0,0.5,0,1-0.5,1.5l0,0c0.5,0.5,4-1,5.5-2h0.5c1-0.5,2-1,2.5-1.5l1-0.5v1.5
				c0.5,4.5,0.5,9.1,0,14.1v0.5h-0.5c-2,0.5-5,1-7,2C991.9,182.7,985.4,182.7,980.9,182.7z M977.8,181.2c5.5,0,14.1,0,16.1-0.5
				c2-0.5,4.5-1,6.5-1.5c0.5-4,0.5-7.5,0-11.6c-0.5,0.5-1,0.5-1.5,1h-0.5c-4,1.5-6,2.5-7.5,1.5c-0.5-0.5-0.5-1-0.5-1.5s0-1,0.5-1.5
				c0.5-1.5,1-4.5,0.5-5.5c-1.5,0.5-5.5,2.5-11.6,5.5l-0.5,0.5C978.4,169.2,978.4,173.7,977.8,181.2z"/>
		</g>
		<g>
			<path class="st10" d="M999,235.6c-5,0-18.6,1-21.1,0c-1.5-0.5-3-1.5-4-2.5c0-3,0.5-6.5,0.5-11.1h23.1c0,1,0.5,2,1,3
				C999,226.5,999,231.6,999,235.6z"/>
			<path class="st6" d="M983.4,237.1c-2.5,0-4.5,0-5.5-0.5c-1.5-0.5-3-1.5-4.5-2.5l-0.5-0.5v-0.5c0-3,0.5-6.5,0.5-11.1v-1H998v0.5
				c0,1,0.5,1.5,1,2.5c0.5,0.5,1,1.5,1,11.1v1h-1c-1.5,0-4.5,0-7,0C988.4,237.1,985.4,237.1,983.4,237.1z M974.3,232.6
				c1,1,2.5,1.5,3.5,2c1.5,0.5,8.6,0.5,13.6,0c2.5,0,4.5,0,6.5,0c0-7.5-0.5-9.1-1-9.6c-0.5-1-0.5-1.5-1-2.5h-21.6
				C974.8,227,974.8,230,974.3,232.6z"/>
		</g>
		<g>
			<path class="st10" d="M975.8,195.8c-0.5,9.1-1,18.6-1.5,26.7c0,4.5-0.5,8.1-0.5,11.1c-4-2.5-9.6-6.5-12.1-7
				c0.5-5.5,1-17.6,2-29.7L975.8,195.8z"/>
			<path class="st6" d="M974.3,234.6l-1-1c-1-0.5-2-1-3-2c-3.5-2-7-4.5-9.1-5h-0.5V226c0.5-5.5,1-17.1,2-29.7v-0.5l13.6-0.5v1
				c-0.5,7.5-1,16.1-1.5,26.7c0,4.5-0.5,8.1-0.5,11.1L974.3,234.6z M962.8,225.5c2,1,5.5,3,8.6,5c0.5,0.5,1,0.5,1.5,1
				c0-2.5,0.5-6,0.5-9.6c0.5-10.1,1-18.6,1.5-25.7l-10.6,0.5C963.8,208.9,962.8,220,962.8,225.5z"/>
		</g>
		<g>
			<path class="st10" d="M1000,184.3c-2,5.5-1.5,18.1-1.5,25.7c0,3.5,0,5.5-0.5,6c-1,1-1.5,3.5-1,6h-23.1c0.5-7.5,1-17.6,1.5-26.7
				c0.5-5,0.5-9.6,1-13.6c4,0,14.6,0,17.1-1c2-0.5,5-1.5,7-2C1001,181.2,1000.5,182.7,1000,184.3z"/>
			<path class="st6" d="M998.5,223h-24.7v-1c0.5-10.6,1-19.1,1.5-26.7c0.5-5,0.5-9.6,1-13.6v-1h2c4.5,0,13.6,0,16.1-0.5
				c2-0.5,4.5-1.5,7-2l1-0.5v1c0,1.5-0.5,3.5-1,5l0,0c-1.5,4.5-1.5,13.6-1.5,21.1c0,1.5,0,3,0,4.5c0,5-0.5,6-1,6.5
				c-0.5,0.5-1,3-0.5,5L998.5,223z M975.3,221.5h21.1c0-2,0-4.5,1.5-5.5c0,0,0.5-1.5,0.5-5.5c0-1.5,0-3,0-4.5c0-7.5,0-16.6,1.5-21.6
				c0.5-1,0.5-2.5,1-3.5c-2,0.5-4.5,1-6,1.5c-2.5,1-9.6,1-16.6,1h-0.5c-0.5,4-0.5,8.6-1,12.6C976.3,202.9,975.8,211.4,975.3,221.5z"
				/>
		</g>
	</g>
</g>
</svg>
