<?xml version="1.0" encoding="utf-8"?>
<!-- Generator: Adobe Illustrator 26.0.0, SVG Export Plug-In . SVG Version: 6.00 Build 0)  -->
<svg version="1.1" id="Layer_1" xmlns="http://www.w3.org/2000/svg" xmlns:xlink="http://www.w3.org/1999/xlink" x="0px" y="0px"
	 viewBox="0 0 1116 360" style="enable-background:new 0 0 1116 360;" xml:space="preserve">
<style type="text/css">
	.st0{fill:#ED2F38;}
	.st1{opacity:0.24;}
	.st2{opacity:0.19;fill:#FFFFFF;enable-background:new    ;}
	.st3{font-family:'Poppins-ExtraBold';}
	.st4{font-size:65.16px;}
	.st5{font-size:71.62px;}
	.st6{fill:#1B1E2A;}
	.st7{font-family:'Poppins-Regular';}
	.st8{font-size:69.773px;}
	.st9{fill:#FFFFFF;}
	.st10{fill:#46506D;}
	.st11{fill:#1B1D29;}
</style>
<rect class="st0" width="1116" height="360"/>
<g>
	<g class="st1">
		<text transform="matrix(1 0 0 1 -143.1066 115.6999)" class="st2 st3 st4">DUMAGUETE</text>
		<text transform="matrix(1 0 0 1 285.7234 115.6999)" class="st2 st3 st4">DUMAGUETE</text>
	</g>
	<g class="st1">
		<text transform="matrix(1 0 0 1 -397.3566 176.5399)" class="st2 st3 st4">DUMAGUETE</text>
		<text transform="matrix(1 0 0 1 31.4734 176.5399)" class="st2 st3 st4">DUMAGUETE</text>
	</g>
	<g class="st1">
		<text transform="matrix(1 0 0 1 -103.7266 234.0798)" class="st2 st3 st4">DUMAGUETE</text>
		<text transform="matrix(1 0 0 1 325.1034 234.0798)" class="st2 st3 st4">DUMAGUETE</text>
	</g>
	<g class="st1">
		<text transform="matrix(1 0 0 1 -400.5767 295.0599)" class="st2 st3 st4">DUMAGUETE</text>
		<text transform="matrix(1 0 0 1 28.2534 295.0599)" class="st2 st3 st4">DUMAGUETE</text>
	</g>
	<g class="st1">
		<text transform="matrix(1 0 0 1 -211.1266 355.1899)" class="st2 st3 st4">DUMAGUETE</text>
		<text transform="matrix(1 0 0 1 217.7034 355.1899)" class="st2 st3 st4">DUMAGUETE</text>
	</g>
	<g class="st1">
		<text transform="matrix(1 0 0 1 -51.9866 59.0099)" class="st2 st3 st5">DUMAGUETE</text>
	</g>
	<g class="st1">
		<text transform="matrix(1 0 0 1 714.0093 115.6999)" class="st2 st3 st4">DUMAGUETE</text>
	</g>
	<g class="st1">
		<text transform="matrix(1 0 0 1 459.7594 176.5399)" class="st2 st3 st4">DUMAGUETE</text>
		<text transform="matrix(1 0 0 1 888.5894 176.5399)" class="st2 st3 st4">DUMAGUETE</text>
	</g>
	<g class="st1">
		<text transform="matrix(1 0 0 1 753.3894 234.0798)" class="st2 st3 st4">DUMAGUETE</text>
	</g>
	<g class="st1">
		<text transform="matrix(1 0 0 1 456.5393 295.0598)" class="st2 st3 st4">DUMAGUETE</text>
		<text transform="matrix(1 0 0 1 885.3694 295.0598)" class="st2 st3 st4">DUMAGUETE</text>
	</g>
	<g class="st1">
		<text transform="matrix(1 0 0 1 645.9893 355.1898)" class="st2 st3 st4">DUMAGUETE</text>
		<text transform="matrix(1 0 0 1 1074.8193 355.1898)" class="st2 st3 st4">DUMAGUETE</text>
	</g>
	<g class="st1">
		<text transform="matrix(1 0 0 1 413.5199 59.0103)" class="st2 st3 st5">DUMAGUETE</text>
	</g>
	<g class="st1">
		<text transform="matrix(1 0 0 1 876.388 59.5117)" class="st2 st3 st5">DUMAGUETE</text>
	</g>
</g>
<g>
	<text transform="matrix(1 0 0 1 184.1554 213.1137)" class="st6 st7 st8">TALAY</text>
	<g>
		<g>
			<path class="st9" d="M171.9,154.9L171.9,154.9L171.9,154.9c0.1-0.4,0.2-0.8,0.4-1.1c0.7-1.2,1-2.6,0.7-4l-0.1-0.7
				c-0.1-0.3-0.1-0.6-0.2-1l0,0c-0.4-2.1-0.7-3.8-1.3-5.2c-0.9-2.5-1.7-5-2.3-7.5c-0.3-1.4-0.5-4.3-0.5-4.3
				c-0.1-0.8-0.7-1.4-1.5-1.3c-0.5,0-0.9,0.3-1.2,0.7c-0.7,1.1-1.7,2.3-2.1,2.5c-0.6,0.2-2.8,0.3-4,0.3c-1.6,0.1-2.2,0.1-2.6,0.3
				c-0.4,0.1-0.8,0.1-1.3,0c-0.8-0.2-5.9-0.6-7.7,0.1c-0.6,0.2-1,0.4-1.4,0.6l0,0l-0.4,0.2c-0.2,0.1-0.5,0.3-0.7,0.4
				c-2.5,0.3-5.1,0.5-7.7,0.6l0,0h-0.7c-4.3,0.1-6.9-0.4-7.2-0.6c-0.1,0-0.1-0.1-0.2-0.1c-0.9-0.4-3.3-1.5-6.2-1l0,0h-0.1l0,0h-0.2
				c-3.1,0.7-4.8,1.5-5.2,1.7c-0.6,0.2-5.1,1.7-7,2.3c-0.5-0.8-1.2-2.2-1.6-3.1c-1.4-2.8-1.7-3.2-2.1-3.5c-0.5-0.3-3.7-1.5-4.6-1.8
				c-4.6-1.6-4.8-1.5-5.4-1.1c-0.4,0.2-0.5,0.4-1.7,2.4c-1,1.7-3.7,6.2-4.6,6.8c-0.5,0.2-2.9,1.1-5.5,2.1c-3.3,1.3-7.5,2.9-10.9,4.2
				c-1.9,0.7-3.2,1.3-4.2,1.7c-0.6,0.2-1,0.4-1.3,0.5c-0.4,0.2-1.5,0.7-1.2,1.8c0.1,0.5,0.2,0.6,1.8,2.4c1.7,1.9,4.8,5.3,5.8,7.2
				c0.5,0.9,1.5,3.2,2.8,6.4l0,0c1,2.5,2.2,5.5,3.2,8.2l0,0c0.9,2.3,1.5,4.2,1.9,5.3c0.7,2.1,3.1,9.8,7,22.2l0,0l1.7,5.5l2,7.1l0,0
				l8.4,29.4c0.2,0.6,0.7,1,1.4,1c0.1,0,0.1,0,0.2,0l17.5-2.1h0.1h0.1l0,0l12.7-2.2l0,0h0.2h0.1l14.6-3.7c0.5-0.1,0.9-0.5,1-1
				c0.5-2,1.9-5.6,3.2-6.6c0.1-0.1,0.2-0.2,0.3-0.2c0,0,0.1-0.1,0.2-0.3l0,0c4-4.8,4-5.8,4-6.3v-0.3c0.1-4.9,0.8-6.5,1.1-7l0.1-0.2
				l0,0c1-1.4,1.7-3,2-4.7c0.4-1.9,0.6-3.2,0.7-3.7l0,0l0,0l0.1-0.4v-0.1c0.3-2.8,1.1-5.5,2.2-8.1c0.8-1.6,1.7-3.1,2.9-4.5
				c0.7-0.9,1.4-1.7,1.7-2.7c0.1-0.4,0.3-0.9,0.5-1.3c0.1-0.3,0.2-0.5,0.3-0.8l0,0c0.4-1,0.7-2.1,0.7-3.2c0-0.9,0-2.2-0.2-3.9l0,0
				c-0.2-1.7-0.4-3.3-0.7-5c-0.4-2.2-0.9-4.3-1.7-6.3l0,0l0,0c-0.1-0.3-0.2-0.5-0.3-0.8c-0.1-0.2-0.2-0.4-0.2-0.7
				c0,0,0.1-0.1,0.5-0.4c1.4-0.8,3.2-2.4,4.1-4.4l0,0c0.2-0.5,0.3-0.9,0.4-1.4c0.2-1.2,0.1-2.4-0.3-3.5
				C171.9,155.8,171.8,155.4,171.9,154.9z"/>
		</g>
		<g>
			<path class="st10" d="M121.8,172.7c-1,0.1-2.7,0.2-3.2,0.2c-0.9,0-2.1-1.7-3.2-1.7s-1.9,1.3-2.5,2c-0.5,0.5-1.2,1-3.2,1.3
				c-0.4,0.1-0.9,0.1-1.5,0.1c-3.2,0.2-4.3-1.3-6.2-1.6c-1.8-0.4-1.9,0.3-3.2,0.6c-1.2,0.3-2.1-1.4-5.4-3.1c-3.3-1.6-3-0.5-4.4-0.2
				c-1.5,0.4-3.8-1.8-4.1-1.7c-0.2,0.1-1.2,1.7-2,3c-1-2.6-2.1-5.6-3.2-8.2c2-0.3,6.4-0.9,14.2-2.2c9.9-1.6,18.3-3.1,20.1-3.4
				C115.5,161.4,119,169.5,121.8,172.7z"/>
			<path class="st6" d="M107.6,174.7c-1.8,0-2.9-0.5-3.8-1c-0.6-0.3-1.1-0.5-1.8-0.7c-1.2-0.2-1.6,0-2.1,0.2c-0.3,0.1-0.6,0.3-1,0.4
				c-0.7,0.2-1.3-0.3-2.3-1c-0.7-0.6-1.8-1.3-3.3-2.1c-2.4-1.2-2.8-0.9-3.4-0.6c-0.2,0.1-0.5,0.3-0.9,0.4c-1.1,0.3-2.5-0.7-3.4-1.3
				c-0.3-0.2-0.6-0.4-0.7-0.4c-0.1,0.1-0.5,0.6-1.9,2.9l-0.2,0.3l-0.1-0.3c-1-2.7-2.2-5.7-3.2-8.2l-0.1-0.2h0.2
				c2-0.3,6.4-0.9,14.2-2.2c10.4-1.7,19.1-3.2,20.1-3.4h0.1l0.1,0.1c1.4,3.4,5.1,11.8,7.8,15.1l0.2,0.3h-0.3
				c-1.1,0.1-2.7,0.2-3.2,0.2s-1-0.4-1.5-0.8c-0.6-0.5-1.2-0.9-1.7-0.9c-0.8,0-1.5,0.9-2,1.5c-0.1,0.1-0.2,0.3-0.3,0.4
				c-0.5,0.6-1.3,1.1-3.3,1.3c-0.4,0.1-0.9,0.1-1.5,0.1C108,174.7,107.8,174.7,107.6,174.7z M101,172.6c0.3,0,0.6,0,1,0.1
				c0.7,0.1,1.2,0.4,1.8,0.7c1,0.5,2.2,1.1,4.3,0.9c0.6,0,1.1-0.1,1.5-0.1c2.1-0.3,2.7-0.8,3.1-1.2c0.1-0.1,0.2-0.2,0.3-0.4
				c0.6-0.7,1.3-1.6,2.3-1.6c0.6,0,1.3,0.5,1.9,1c0.5,0.4,1,0.8,1.3,0.8c0.5,0,2.1-0.1,2.9-0.1c-2.7-3.4-6.2-11.3-7.6-14.8
				c-1.5,0.3-9.9,1.7-20,3.4c-7.6,1.2-12,1.9-14,2.2c1,2.4,2.1,5.2,3,7.7c1.6-2.7,1.8-2.7,1.9-2.8c0.2,0,0.4,0.1,1,0.5
				c0.8,0.6,2.2,1.5,3.1,1.3c0.4-0.1,0.6-0.2,0.8-0.4c0.8-0.4,1.3-0.6,3.7,0.6c1.6,0.8,2.6,1.5,3.4,2.1c0.9,0.7,1.4,1.1,2,0.9
				c0.4-0.1,0.7-0.2,0.9-0.3C100.1,172.7,100.4,172.6,101,172.6z"/>
		</g>
		<g>
			<path class="st10" d="M130.6,147.7l-16.3,9.9l-0.3,0.1c-1.8,0.3-10.2,1.8-20.1,3.4c-7.8,1.3-12.3,1.9-14.2,2.2
				c-1.2-2.9-2.3-5.5-2.9-6.6c-1.6-2.9-7.4-8.8-7.5-9.1s20.7-8.1,22.3-8.8s6.1-9.1,6.5-9.3c0.3-0.2,8.1,2.6,8.6,2.9
				c0.5,0.3,3.5,7.1,4,7.1s7.8-2.4,8.2-2.6c0.4-0.2,1.9-0.9,4.9-1.6c0.1,0,0.1,0,0.2,0L130.6,147.7z"/>
			<path class="st6" d="M79.5,163.4v-0.1c-0.9-2.3-2.2-5.3-2.9-6.5c-1.1-1.9-4.1-5.3-6-7.4c-1.3-1.5-1.5-1.7-1.5-1.8
				c0-0.2-0.1-0.3,16.8-6.8c2.9-1.1,5.1-2,5.6-2.2c1.1-0.5,3.7-4.9,5.2-7.3c0.9-1.5,1.1-1.9,1.3-2c0.5-0.3,8.7,2.9,8.7,2.9
				c0.2,0.1,0.7,1,1.7,3c0.8,1.6,2,3.9,2.3,4.1c0.5,0,7.7-2.4,8.1-2.6c0.2-0.1,1.8-0.9,4.9-1.6c0.1,0,0.2,0,0.2,0h0.1l6.8,12.6
				l-16.5,10l-0.3,0.1c-0.4,0.1-9.3,1.6-20.1,3.4c-7.8,1.3-12.3,1.9-14.2,2.2L79.5,163.4z M69.5,147.6c0.2,0.2,0.8,0.9,1.4,1.6
				c1.8,2,4.9,5.5,6,7.4c0.7,1.2,1.9,4.2,2.8,6.5c2-0.3,6.4-0.9,14.1-2.2c10.8-1.8,19.7-3.3,20.1-3.4l0.3-0.1l16.1-9.8l-6.5-12.1
				h-0.1c-3.1,0.7-4.7,1.5-4.9,1.5c-0.3,0.2-7.7,2.6-8.3,2.6c-0.4,0-0.9-1-2.5-4.2c-0.7-1.3-1.4-2.7-1.6-2.9
				c-0.5-0.3-7.7-2.9-8.4-2.9c-0.1,0.1-0.6,1-1.1,1.8c-2.1,3.5-4.2,7-5.3,7.4c-0.5,0.2-2.7,1.1-5.6,2.2
				C80.2,143.3,70.6,147,69.5,147.6z"/>
		</g>
		<g>
			<path class="st10" d="M116.6,191.2L91.7,199c-2.2-7.2-6-19.3-7-22.2c-0.4-1.2-1.1-3.2-2-5.4c0.8-1.3,1.8-2.9,2-3
				c0.3-0.1,2.6,2.1,4.1,1.7s1.1-1.4,4.4,0.2c3.3,1.6,4.2,3.3,5.4,3.1c1.2-0.3,1.3-0.9,3.2-0.6c1.8,0.4,2.9,1.8,6.2,1.6
				c0.6,0,1.1-0.1,1.5-0.1c0,0.1,0,0.1,0,0.2c0,0.9,4.3,9.5,6,13.1C116.2,188.8,116.5,190,116.6,191.2z"/>
			<path class="st6" d="M91.6,199.2V199c-1.4-4.4-5.9-19-7-22.2c-0.4-1.2-1.1-3.2-2-5.4v-0.1v-0.1c1.8-3,2-3,2.1-3.1
				c0.2,0,0.4,0.1,1,0.5c0.8,0.5,2.2,1.5,3.1,1.2c0.4-0.1,0.6-0.2,0.8-0.4c0.8-0.4,1.3-0.6,3.7,0.6c1.6,0.8,2.6,1.5,3.4,2.1
				c0.9,0.7,1.4,1.1,2,0.9c0.4-0.1,0.7-0.2,0.9-0.3c0.6-0.3,1-0.5,2.3-0.2c0.7,0.1,1.2,0.4,1.8,0.7c1,0.5,2.2,1.1,4.3,0.9
				c0.6,0,1.1-0.1,1.5-0.1h0.1v0.1c0,0.1,0,0.2,0,0.2c0,0.7,2.8,6.5,4.7,10.4c0.5,1,0.9,1.9,1.3,2.6c0.5,1.2,0.8,2.4,1,3.6v0.1h-0.1
				L91.6,199.2z M83,171.4c0.8,2.2,1.5,4.1,1.9,5.3c1.1,3.2,5.5,17.5,6.9,22.1l24.6-7.7c-0.2-1.2-0.5-2.3-0.9-3.4
				c-0.3-0.7-0.8-1.6-1.3-2.6c-2.6-5.3-4.8-9.8-4.8-10.5l0,0c-0.4,0-0.8,0.1-1.3,0.1c-2.1,0.1-3.4-0.5-4.4-1
				c-0.6-0.3-1.1-0.5-1.8-0.7c-1.2-0.2-1.6,0-2.1,0.2c-0.3,0.1-0.6,0.3-1,0.4c-0.7,0.2-1.3-0.3-2.3-1c-0.7-0.6-1.8-1.3-3.3-2.1
				c-2.4-1.2-2.8-0.9-3.4-0.6c-0.2,0.1-0.5,0.3-0.9,0.4c-1.1,0.3-2.5-0.7-3.4-1.3c-0.3-0.2-0.6-0.4-0.7-0.4
				C84.8,168.7,84.4,169.2,83,171.4z"/>
		</g>
		<g>
			<path class="st11" d="M118,206.8c-8.8,1.7-18.2,3.8-22.5,4.8l-2-7.1c0,0-0.7-2.3-1.7-5.5l24.9-7.8c0.9,5,1.1,12.6,1.2,14.4
				C117.9,205.8,117.9,206.3,118,206.8z"/>
			<path class="st6" d="M95.4,211.8l-2.1-7.2l0,0c0,0-0.7-2.3-1.7-5.5v-0.2l25.2-7.9v0.2c0.6,3.6,0.9,8.5,1.1,11.7
				c0.1,1.2,0.1,2.2,0.2,2.7c0,0.2,0.1,0.6,0.1,1.2v0.2H118C108.9,208.8,99.2,211,95.4,211.8L95.4,211.8z M91.9,199.1
				c1,3.2,1.7,5.4,1.7,5.4l2,6.9c3.8-0.9,13.2-3,22.2-4.8c-0.1-0.5-0.1-0.8-0.1-1c-0.1-0.5-0.1-1.5-0.2-2.7c-0.2-3.2-0.4-7.9-1-11.5
				L91.9,199.1z"/>
		</g>
		<g>
			<path class="st10" d="M121.5,238.9L121.5,238.9l-17.6,2.1l-8.4-29.4c4.3-1,13.7-3.1,22.5-4.8c0.5,4.9,2.3,21.2,2.5,25.2
				C120.6,234.3,121,236.6,121.5,238.9z"/>
			<path class="st6" d="M103.8,241.2l-8.5-29.7h0.2c2.9-0.7,12.9-3,22.5-4.8h0.2l0.2,1.8c0.6,6,2.2,20,2.3,23.6
				c0.1,2.3,0.5,4.6,1.1,6.9v0.2l-0.3,0.1L103.8,241.2z M95.7,211.7l8.4,29.1l17.3-2.1c-0.6-2.2-0.9-4.5-1-6.7
				c-0.1-3.6-1.7-17.6-2.3-23.5l-0.2-1.4C108.5,208.8,98.7,211,95.7,211.7z"/>
		</g>
		<g>
			<path class="st10" d="M133.4,219c-0.2,0.6,0.6,13.3,0.9,17.6l-12.7,2.2c-0.6-2.3-0.9-4.6-1.1-6.9c-0.2-4-1.9-20.2-2.5-25.2
				c4.4-0.8,8.6-1.6,12.1-2s6.1-0.8,8-1c-0.5,2.3-1.1,4.5-1.8,6.7C135,214.5,133.5,218.6,133.4,219z"/>
			<path class="st6" d="M121.4,239v-0.1c-0.6-2.3-0.9-4.6-1.1-6.9c-0.1-3.6-1.7-17.6-2.3-23.5l-0.2-1.8h0.2c4.9-0.9,9-1.6,12.1-2
				c3.3-0.4,6-0.8,8-1h0.2v0.2c-0.5,2.3-1.1,4.5-1.8,6.7c-0.9,2.8-1.8,5.6-2.4,7.3c-0.2,0.7-0.4,1.2-0.4,1.3
				c-0.1,0.5,0.4,9.4,0.9,17.5v0.1L121.4,239z M118.2,206.9l0.2,1.5c0.6,6,2.2,19.9,2.3,23.5c0.1,2.3,0.5,4.5,1,6.7l12.4-2.2
				c-0.3-5.2-1-16.9-0.8-17.5l0,0c0-0.1,0.2-0.6,0.4-1.3c0.6-1.7,1.5-4.4,2.4-7.3c0.7-2.1,1.3-4.3,1.7-6.4c-2,0.3-4.6,0.6-7.8,1
				C127,205.3,123,206,118.2,206.9z"/>
		</g>
		<g>
			<path class="st10" d="M153.1,225.3l-0.2,0.3c-2.3,1.6-3.8,7.4-3.8,7.4l-14.6,3.7h-0.2c-0.3-4.3-1-17-0.9-17.6
				c0.1-0.4,1.6-4.5,2.9-8.6c1,2.5,3.1,7,3.7,7.6C140.7,218.7,149.6,223.4,153.1,225.3z"/>
			<path class="st6" d="M134.1,236.8v-0.2c-0.1-1.7-1-16.9-0.8-17.7c0-0.1,0.2-0.7,0.5-1.4c0.6-1.6,1.5-4.4,2.4-7.2l0.1-0.4l0.2,0.4
				c1.4,3.4,3.1,7.1,3.7,7.6c0.8,0.7,10.2,5.7,13.1,7.2l0.2,0.1l-0.4,0.5c-2.2,1.6-3.7,7.2-3.7,7.3v0.1L134.1,236.8z M136.3,210.9
				c-0.8,2.6-1.7,5.2-2.2,6.8c-0.3,0.7-0.4,1.3-0.5,1.4c-0.1,0.5,0.4,10.6,0.8,17.4l14.5-3.7c0.2-0.8,1.7-5.8,3.8-7.4l0.1-0.1
				c-3.8-2-12.2-6.4-13-7.1C139.1,217.5,137,212.6,136.3,210.9z"/>
		</g>
		<g>
			<path class="st10" d="M158.4,211.6c-0.1,0.1-0.1,0.1-0.1,0.1c-1.4,1.8-1.4,7-1.5,8.1c0,0.9-2.9,4.4-3.7,5.4
				c-3.5-1.9-12.4-6.5-13.1-7.2c-0.7-0.6-2.7-5.2-3.7-7.6c0.7-2.2,1.3-4.4,1.8-6.7l0,0c2.4,0.3,6.9,2.8,8.4,3.4
				C147.6,207.6,154.7,210.2,158.4,211.6z"/>
			<path class="st6" d="M153.2,225.5l-0.1-0.1c-3.7-1.9-12.4-6.5-13.1-7.2c-0.7-0.7-2.9-5.6-3.8-7.7v-0.1v-0.1
				c0.7-2.2,1.3-4.4,1.8-6.7v-0.2h0.2c1.7,0.2,4.5,1.6,6.6,2.6c0.8,0.4,1.4,0.7,1.9,0.9c1.1,0.4,7.9,2.9,11.5,4.3l0.6,0.2l-0.1,0.2
				c-0.1,0.1-0.1,0.1-0.1,0.1c-1.2,1.7-1.4,6.2-1.4,7.7v0.3c0,0.9-2.3,3.8-3.7,5.5L153.2,225.5z M136.5,210.4
				c1.8,4.3,3.2,7.1,3.7,7.5c0.7,0.7,9.9,5.5,13,7.1c2.2-2.6,3.5-4.6,3.6-5.2v-0.3c0-1.5,0.2-6.1,1.5-7.9l-0.2-0.1
				c-3.9-1.5-10.4-3.9-11.5-4.3c-0.4-0.2-1.1-0.5-1.9-0.9c-1.9-1-4.6-2.2-6.3-2.5C137.7,206.1,137.1,208.3,136.5,210.4z"/>
		</g>
		<g>
			<path class="st10" d="M160.8,203.8c-0.1,0.6-0.3,1.9-0.7,3.7c-0.3,1.5-0.9,2.9-1.7,4.1c-3.7-1.4-10.8-4-11.9-4.4
				c-1.5-0.6-6-3.1-8.4-3.4c5-0.7,5.3-0.9,6-1.1c0.3-0.1,1.3-1.5,2.6-3.4c1.2,0.6,3.5,1.7,4.6,2
				C152.5,201.7,158.6,203.3,160.8,203.8z"/>
			<path class="st6" d="M158.4,211.8h-0.1c-3.7-1.4-10.8-4-11.9-4.4c-0.4-0.2-1.1-0.5-1.9-0.9c-2-1-4.7-2.3-6.4-2.5l-1.3-0.2
				l1.3-0.2c4.6-0.6,5.2-0.8,5.8-1h0.2c0.2-0.1,0.7-0.7,2.5-3.3l0.1-0.1l0.1,0.1c1,0.5,3.4,1.7,4.6,2c0.9,0.3,4.2,1.1,9.5,2.5h0.1
				v0.2c-0.1,0.7-0.4,2.2-0.7,3.7s-0.9,2.9-1.8,4.2L158.4,211.8z M139.1,203.8c1.7,0.5,3.9,1.5,5.6,2.3c0.8,0.4,1.5,0.7,1.9,0.9
				c1.1,0.4,8,3,11.8,4.4c0.8-1.2,1.4-2.5,1.6-3.9c0.3-1.4,0.5-2.8,0.6-3.5c-5.3-1.4-8.5-2.2-9.4-2.5c-1.1-0.4-3.4-1.5-4.5-2
				c-1.8,2.8-2.3,3.3-2.6,3.3H144C143.4,203.1,142.9,203.2,139.1,203.8z"/>
		</g>
		<g>
			<path class="st10" d="M168.5,185.8c-0.3,0.7-0.5,1.4-0.8,2.1c-0.6,1.7-2.6,3-4.5,7c-1.2,2.7-2,5.6-2.4,8.5c0,0,0,0.1-0.1,0.4
				c-2.2-0.6-8.2-2.1-9.5-2.5c-1.1-0.4-3.4-1.5-4.6-2c2.5-3.9,5.9-9.6,5.9-9.6s-2.2-3.4-5-8c1.8,0.1,8.1,0.3,8.5,0.3h0.1
				c0.5,0.1,1.6,0.9,2.4,1.4c0.3,0.2,0.6,0.3,0.9,0.5c0.6,0.2,3.3,0,4.2,0c0.1,0,0.1,0,0.2,0C164.3,184,166.9,185.1,168.5,185.8z"/>
			<path class="st6" d="M160.9,204h-0.2c-5.3-1.4-8.6-2.3-9.5-2.5c-1.2-0.4-3.6-1.6-4.6-2.1l-0.2-0.1l0.1-0.2
				c2.3-3.6,5.4-8.8,5.8-9.5c-0.4-0.6-2.4-3.8-5-7.9l-0.2-0.3h0.3c3,0.1,8.1,0.3,8.5,0.3c0.1,0,0.1,0,0.2,0c0.4,0.1,1.1,0.6,1.8,1.1
				c0.2,0.1,0.4,0.3,0.6,0.4c0.3,0.2,0.5,0.3,0.8,0.5c0.3,0.1,1.6,0.1,2.6,0c0.6,0,1.2-0.1,1.5,0c0.1,0,0.1,0,0.2,0
				c0.4,0,1.9,0.6,4.7,1.8l0.1,0.1l-0.1,0.1c-0.1,0.3-0.2,0.5-0.3,0.8c-0.2,0.4-0.3,0.9-0.5,1.4c-0.3,0.8-0.8,1.4-1.5,2.3
				c-0.9,1.1-2,2.5-3,4.8c-1.2,2.7-2,5.6-2.3,8.5c0,0,0,0.1-0.1,0.4L160.9,204z M146.9,199.2c1.1,0.5,3.3,1.6,4.4,2
				c0.9,0.3,4.1,1.1,9.3,2.5c0-0.1,0-0.2,0-0.2c0.4-3,1.2-5.8,2.4-8.6c1.1-2.3,2.2-3.7,3.1-4.8c0.7-0.8,1.2-1.5,1.4-2.2
				c0.2-0.5,0.3-0.9,0.5-1.4c0.1-0.2,0.2-0.4,0.2-0.6c-3.3-1.4-4.2-1.7-4.4-1.8c-0.1,0-0.1,0-0.2,0c-0.4,0-0.9,0-1.5,0
				c-1.4,0.1-2.4,0.1-2.8-0.1c-0.3-0.1-0.6-0.3-0.9-0.5c-0.2-0.1-0.4-0.2-0.6-0.4c-0.7-0.4-1.4-0.9-1.8-1h-0.1
				c-0.4,0-6.7-0.2-8.2-0.3c2.8,4.4,4.9,7.7,4.9,7.7l0.1,0.1l-0.1,0.1C152.7,189.8,149.4,195.4,146.9,199.2z"/>
		</g>
		<g>
			<path class="st10" d="M160.5,146.6c-2.4-0.2-3,2.2-11.1,4h-0.2c-6,1.3-12,2.9-15,3.7l-3.6-6.6l-6.7-12.3c2.8-0.5,5.3,0.8,5.7,1
				c0.5,0.2,3.2,0.7,7.7,0.6h0.7c1.4,2.3,4.6,7.4,4.7,7.4c0.1,0,7.8-2.2,11.3-3.2L160.5,146.6z"/>
			<path class="st6" d="M134.1,154.5l-10.4-19.3h0.2c2.5-0.5,4.6,0.5,5.5,0.9c0.1,0.1,0.2,0.1,0.3,0.1c0.5,0.2,3.1,0.7,7.7,0.6h0.8
				v0.1c2,3.3,4.2,6.9,4.6,7.3c0.5-0.1,4.6-1.3,7.9-2.2c1.3-0.4,2.4-0.7,3.4-0.9h0.1l6.9,5.7h-0.5c-1-0.1-1.6,0.3-2.7,0.9
				c-1.5,0.8-3.7,2-8.4,3.1h-0.2c-5.5,1.2-11.2,2.7-15,3.7L134.1,154.5z M124.2,135.5l10.1,18.6c3.8-1,9.4-2.5,14.9-3.7h0.2
				c4.6-1,6.8-2.2,8.3-3c0.9-0.5,1.6-0.9,2.4-0.9l-6-5c-0.9,0.3-2.1,0.6-3.3,0.9c-6.3,1.8-7.9,2.2-8,2.2s-0.3,0-4.8-7.4h-0.6
				c-4.6,0.1-7.3-0.5-7.8-0.6c-0.1,0-0.2-0.1-0.3-0.1C128.4,136,126.5,135.1,124.2,135.5z"/>
		</g>
		<g>
			<path class="st10" d="M154.1,141.2c-3.5,1-11.2,3.1-11.3,3.2s-3.3-5.1-4.7-7.4c2.7,0,5.3-0.3,7.9-0.6c0.5-0.2,1-0.4,1.4-0.6
				L154.1,141.2z"/>
			<path class="st6" d="M142.8,144.6c-0.2,0-0.5-0.5-4.9-7.5l-0.2-0.2h0.3c2.6,0,5.3-0.3,7.9-0.6c0.5-0.2,0.9-0.4,1.4-0.6l0.1-0.1
				l7,5.8l-0.3,0.1C150.5,142.4,142.9,144.5,142.8,144.6L142.8,144.6z M138.3,137.1c3.3,5.4,4.2,6.8,4.5,7.1
				c0.8-0.2,7.5-2.1,10.9-3.1l-6.3-5.3c-0.4,0.2-0.9,0.4-1.4,0.6C143.5,136.9,140.9,137.1,138.3,137.1z"/>
		</g>
		<g>
			<path class="st10" d="M171.3,148.4c-2.3-0.4-8.4-1.6-10.6-1.8h-0.2l0,0l-6.4-5.3l-6.7-5.6c0.4-0.2,0.8-0.4,1.3-0.6
				c1.3-0.5,6.1-0.3,6.8-0.1c0.6,0.2,2.2,0,2.4-0.2s5-0.1,6.4-0.6s2.9-3.1,2.9-3.1s0.2,3,0.6,4.5c0.6,2.6,1.4,5.2,2.3,7.8
				C170.6,145.1,171,146.7,171.3,148.4z"/>
			<path class="st6" d="M171.5,148.6h-0.2c-2.5-0.5-8.4-1.6-10.6-1.8h-0.3l0,0l-13.3-11.1l0.2-0.1c0.4-0.2,0.8-0.4,1.3-0.6
				c1.4-0.6,6.2-0.3,6.9-0.1c0.6,0.2,2,0,2.2-0.1c0.1-0.1,0.3-0.1,2-0.2c1.5-0.1,3.7-0.1,4.5-0.4c1.3-0.4,2.8-3,2.8-3l0.3-0.5v0.5
				c0,0,0.2,3,0.6,4.5c0.6,2.6,1.4,5.2,2.3,7.7c0.6,1.6,1,3.3,1.2,4.9L171.5,148.6z M160.6,146.4h0.2c2.1,0.2,7.8,1.3,10.4,1.8
				c-0.3-1.6-0.7-3.1-1.2-4.6c-0.9-2.5-1.7-5.2-2.3-7.8c-0.2-1.2-0.4-3.1-0.5-4c-0.5,0.8-1.7,2.4-2.7,2.7c-0.8,0.3-3,0.4-4.6,0.4
				c-0.8,0-1.6,0.1-1.8,0.1c-0.3,0.2-1.9,0.4-2.5,0.2c-0.7-0.2-5.4-0.4-6.7,0.1c-0.4,0.2-0.8,0.3-1.1,0.5L160.6,146.4z"/>
		</g>
		<g>
			<path class="st10" d="M171,159.9c-0.1,0.4-0.2,0.7-0.3,1.1c-1.2,0-3.6,0.4-6.9,2.4c-0.2,0.1-0.5,0.3-0.7,0.4l-0.5-10
				c2.2,0.2,5.9,0.6,7.9,0.8C170.2,156.4,171.4,157.6,171,159.9z"/>
			<path class="st6" d="M163,164.1l-0.5-10.5h0.2c2.2,0.2,5.9,0.6,7.9,0.8h0.2v0.2c-0.1,0.8,0,1.4,0.2,2.2s0.5,1.8,0.3,3l0,0
				c-0.1,0.4-0.2,0.8-0.3,1.1v0.1h-0.1c-1.1,0-3.5,0.4-6.8,2.4l-0.1,0.1c-0.2,0.1-0.4,0.2-0.5,0.3L163,164.1z M162.8,154l0.5,9.5
				c0.1-0.1,0.2-0.1,0.3-0.2l0.1-0.1c3.3-2,5.7-2.4,6.9-2.5c0.1-0.3,0.2-0.6,0.3-1c0.2-1.2,0-2-0.3-2.9c-0.2-0.7-0.4-1.4-0.3-2.1
				C168.4,154.6,165,154.3,162.8,154z"/>
		</g>
		<g>
			<path class="st10" d="M170.7,161c-0.7,1.7-2.3,3.1-3.4,3.7c-1.4,0.8-1.5,1.5-1,2.8c0.1,0.3,0.2,0.5,0.3,0.8
				c-0.6,0.4-1.8,1.2-2.5,1.7c-0.2,0.1-0.4,0.2-0.6,0.3c-0.7,0.3-1.5,0.6-1.4,0.2c0.1-0.5,0.4-1.8,0-1.6c-0.3,0.1-1.6,0.7-2.3,1.1
				l-0.1-0.2l0,0c-0.4-0.6-0.8-1.3-1.3-2.1c0.8-0.9,2.3-2.2,4.9-3.9c0.2-0.1,0.4-0.3,0.7-0.4C167.1,161.4,169.5,161,170.7,161z"/>
			<path class="st6" d="M162.2,170.9c-0.1,0-0.2,0-0.3-0.1s-0.1-0.2-0.1-0.3s0-0.2,0.1-0.3c0.1-0.3,0.2-0.9,0.1-1.1
				c-0.3,0.1-1,0.5-1.7,0.8l-0.8,0.4l-0.2-0.4c-0.3-0.6-0.8-1.3-1.3-2.1l-0.1-0.1l0.1-0.1c1.1-1.2,2.7-2.5,4.9-3.9
				c0.1-0.1,0.3-0.2,0.4-0.2l0.3-0.2c3.4-2.1,5.8-2.4,7-2.5h0.3l-0.1,0.2c-0.7,1.8-2.3,3.2-3.5,3.8c-1.4,0.8-1.4,1.5-0.9,2.6
				c0.1,0.2,0.2,0.5,0.3,0.8l0.1,0.1l-0.1,0.1c-0.6,0.4-1.8,1.2-2.6,1.7c-0.2,0.1-0.4,0.2-0.6,0.3h-0.1
				C162.9,170.7,162.5,170.9,162.2,170.9z M162.1,168.7c0.1,0,0.1,0,0.2,0.1c0.2,0.2,0.1,0.7,0,1.4c0,0.1,0,0.2-0.1,0.3l0,0
				c0.1,0.1,0.8-0.2,1.1-0.4h0.1c0.2-0.1,0.4-0.2,0.5-0.3c0.7-0.4,1.8-1.2,2.4-1.6c-0.1-0.3-0.2-0.5-0.3-0.7
				c-0.5-1.3-0.5-2.2,1.1-3.1c1.1-0.6,2.5-1.8,3.3-3.4c-1.2,0.1-3.5,0.5-6.5,2.4l-0.3,0.2c-0.1,0.1-0.3,0.2-0.4,0.2
				c-2.1,1.3-3.7,2.6-4.8,3.7c0.5,0.7,0.9,1.4,1.3,2l0.1,0.1l0.5-0.2c0.7-0.3,1.5-0.7,1.7-0.8C162,168.7,162.1,168.7,162.1,168.7z"
				/>
		</g>
		<g>
			<path class="st10" d="M169,179.2c-0.7-0.1-1.3-0.2-1.9-0.4c-0.4-0.1-2.5,0-3.5,0c0-1.5-0.1-4,0.3-5.1c0.1-0.3,0.2-0.6,0.2-1
				c0.1-0.9,0.1-1.8,0-2.7c0.8-0.5,2-1.3,2.5-1.7c0.8,2,1.4,4,1.7,6.1C168.6,176,168.8,177.6,169,179.2z"/>
			<path class="st6" d="M169.1,179.4h-0.2c-0.7-0.1-1.3-0.2-2-0.4c-0.3-0.1-2.2,0-3.4,0h-0.2v-0.2c0-0.3,0-0.5,0-0.8
				c0-1.5,0-3.4,0.3-4.4c0.1-0.3,0.2-0.6,0.2-0.9c0.1-0.9,0.1-1.8,0-2.7v-0.1l0.1-0.1c0.8-0.5,2-1.3,2.5-1.7l0.2-0.1l0.1,0.2
				c0.8,2,1.4,4,1.7,6.1c0.3,1.6,0.5,3.2,0.7,4.8L169.1,179.4z M165.9,178.6c0.6,0,1,0,1.2,0c0.6,0.2,1.2,0.3,1.7,0.4
				c-0.1-1.5-0.4-3.1-0.7-4.6c-0.3-2-0.9-4-1.6-5.8c-0.6,0.4-1.6,1.1-2.3,1.5c0.1,0.9,0.1,1.8,0,2.6c0,0.3-0.1,0.7-0.2,1
				c-0.3,0.9-0.3,2.8-0.3,4.3c0,0.2,0,0.4,0,0.7C164.3,178.7,165.2,178.6,165.9,178.6z"/>
		</g>
		<g>
			<path class="st10" d="M169.1,183c-0.1,0.9-0.3,1.9-0.6,2.7c-1.6-0.7-4.2-1.8-4.6-1.8c-0.1,0-0.1,0-0.2,0c0-0.8,0-1.8-0.2-2.1
				c-0.1-0.2-0.2-0.4-0.2-0.6c-0.1-0.4,0-1,0.2-1.2c0.1-0.1,0.1-0.6,0.1-1.2c1,0,3.1-0.1,3.5,0c0.6,0.2,1.3,0.3,1.9,0.4
				C169.1,180.9,169.1,182.2,169.1,183z"/>
			<path class="st6" d="M168.6,186l-0.6-0.3c-1.5-0.6-3.7-1.6-4.1-1.6c-0.1,0-0.1,0-0.2,0h-0.2v-0.2c0-1.6-0.1-2-0.2-2
				c-0.1-0.2-0.2-0.4-0.2-0.6c-0.1-0.5,0-1,0.2-1.3c0-0.1,0.1-0.4,0.1-1.1v-0.2h0.2c0.7,0,3.1-0.1,3.5,0c0.6,0.2,1.3,0.3,1.9,0.4
				h0.1v0.1c0.1,1.3,0.2,2.6,0.2,3.8l0,0c-0.1,1-0.3,1.9-0.6,2.8L168.6,186z M163.8,183.7C163.8,183.7,163.9,183.7,163.8,183.7
				c0.5,0.1,2.2,0.8,4.3,1.6l0.3,0.1c0.3-0.8,0.5-1.6,0.6-2.5c0-1.2-0.1-2.4-0.2-3.6c-0.6-0.1-1.2-0.2-1.8-0.4c-0.3,0-1.8,0-3.2,0
				c0,0.8,0,1.1-0.2,1.2c-0.1,0.1-0.2,0.6-0.1,1c0,0.2,0.1,0.4,0.2,0.5C163.7,181.8,163.8,182.1,163.8,183.7z"/>
		</g>
		<g>
			<path class="st10" d="M138.2,202.8c0,0.3-0.1,0.6-0.1,0.9l0,0c-1.9,0.3-4.5,0.6-8,1c-3.4,0.4-7.7,1.2-12.1,2
				c-0.1-0.5-0.1-1-0.1-1.2c-0.2-1.8-0.4-9.4-1.2-14.4l21.5-6.7C138.3,191.4,138.4,200.5,138.2,202.8z"/>
			<path class="st6" d="M117.9,207v-0.2c-0.1-0.5-0.1-1-0.1-1.2c-0.1-0.5-0.1-1.5-0.2-2.7c-0.2-3.2-0.4-8.1-1.1-11.7v-0.1l21.8-6.8
				v0.2c0.1,6.8,0.3,16.1,0.1,18.4c0,0.2-0.1,0.5-0.1,1v0.1h-0.1c-2,0.3-4.7,0.6-8,1c-3.2,0.4-7.2,1.1-12,2H117.9z M116.8,191.3
				c0.6,3.6,0.9,8.4,1,11.6c0.1,1.2,0.1,2.2,0.2,2.7c0,0.2,0.1,0.6,0.1,1c4.8-0.9,8.8-1.6,11.9-2c3.3-0.4,5.8-0.7,7.9-1
				c0.1-0.3,0.1-0.6,0.1-0.8l0,0c0.2-2.3,0.1-11.3-0.1-18.1L116.8,191.3z"/>
		</g>
		<g>
			<path class="st10" d="M138.1,184.5l-21.5,6.7c-0.2-1.2-0.5-2.4-1-3.6c-1.7-3.6-6-12.2-6-13.1c0-0.1,0-0.1,0-0.2
				c2-0.3,2.7-0.7,3.2-1.3c0.6-0.7,1.4-2,2.5-2s2.4,1.7,3.2,1.7c0.6,0,2.2-0.1,3.2-0.2c0.4,0.5,0.9,0.9,1.4,1.2
				c3.5,1.7,3.1,1.3,4.4,0.4s2.5-2,4.5-0.7c1.9,1.2,1.7,1.3,2,1c0.2-0.3,0.9-1,1.9,0.3c0.9,1.1,1.4,3.6,2.1,3.8
				C138,180.1,138,182.2,138.1,184.5z"/>
			<path class="st6" d="M116.5,191.4v-0.2c-0.2-1.2-0.5-2.4-1-3.5c-0.4-0.8-0.9-1.9-1.5-3.1c-2.6-5.3-4.6-9.4-4.6-10.1v-0.1v-0.2
				h0.2c2.1-0.3,2.7-0.8,3.1-1.2c0.1-0.1,0.2-0.2,0.3-0.3c0.6-0.7,1.3-1.7,2.3-1.7c0.6,0,1.3,0.5,1.9,1c0.5,0.4,1,0.8,1.3,0.8
				c0.6,0,2.3-0.1,3.2-0.2h0.1l0.1,0.1c0.4,0.5,0.8,0.9,1.3,1.2c2.9,1.4,3,1.3,3.7,0.7c0.1-0.1,0.3-0.2,0.4-0.3l0.1-0.1
				c1.2-0.9,2.6-1.9,4.5-0.6c0.6,0.4,1,0.7,1.3,0.9c0.2,0.1,0.3,0.2,0.4,0.2l0,0v-0.1c0.1-0.1,0.4-0.5,0.9-0.5
				c0.4,0,0.8,0.3,1.2,0.8s0.8,1.4,1.1,2.1c0.3,0.7,0.7,1.6,0.9,1.7h0.1v1.2c0,1.3,0.1,3,0.1,4.7v0.1h-0.1L116.5,191.4z
				 M109.8,174.5L109.8,174.5c0,0.7,2.7,6.3,4.5,10c0.6,1.2,1.1,2.3,1.5,3.1c0.5,1.1,0.8,2.3,0.9,3.4l21.2-6.6
				c0-1.7-0.1-3.3-0.1-4.6v-1c-0.4-0.2-0.7-0.9-1-1.8c-0.3-0.7-0.6-1.5-1-2c-0.4-0.4-0.7-0.7-1-0.7c-0.2,0-0.4,0.1-0.7,0.4l0,0
				c-0.2,0.3-0.3,0.2-0.8-0.1c-0.3-0.2-0.7-0.5-1.3-0.9c-1.8-1.1-3-0.2-4.2,0.6l-0.1,0.1c-0.2,0.1-0.3,0.2-0.4,0.3
				c-0.8,0.7-1.1,0.8-4.1-0.7c-0.5-0.3-1-0.7-1.4-1.2c-1.2,0.1-2.6,0.2-3.2,0.2c-0.5,0-1-0.4-1.5-0.8c-0.6-0.5-1.2-0.9-1.7-0.9
				c-0.8,0-1.5,0.9-2.1,1.5c-0.1,0.1-0.2,0.2-0.3,0.4C112.4,173.8,111.7,174.2,109.8,174.5z"/>
		</g>
		<g>
			<path class="st10" d="M152.6,189.6c0,0-3.4,5.7-5.9,9.6c-1.2,1.9-2.2,3.3-2.6,3.4c-0.7,0.2-1,0.4-6,1.1l0,0
				c0.1-0.4,0.1-0.7,0.1-0.9c0.2-2.3,0.1-11.4-0.1-18.3c-0.1-2.3-0.1-4.3-0.2-5.8c0.1,0,0.2,0,0.2,0c0.8-0.5,1.7-1.5,3.1-1
				c1.2,0.4,2.3,0.4,3.4-0.5c1,1.6,1.9,3.1,2.8,4.5C150.4,186.2,152.6,189.6,152.6,189.6z"/>
			<path class="st6" d="M137.9,203.9v-0.2c0.1-0.4,0.1-0.7,0.1-0.9c0.2-1.8,0.1-7.9-0.1-18.3c-0.1-2.3-0.1-4.3-0.2-5.8v-0.2h0.2h0.1
				c0.1-0.1,0.3-0.2,0.4-0.3c0.7-0.5,1.6-1.1,2.8-0.7c1.3,0.5,2.2,0.3,3.2-0.5l0.1-0.1l0.1,0.2c1,1.6,1.9,3.1,2.8,4.5
				c2.8,4.5,5,7.9,5,8l0.1,0.1l-0.1,0.1c0,0.1-3.4,5.8-5.9,9.6c-1.9,2.9-2.4,3.4-2.7,3.5l-0.2,0.1c-0.7,0.2-1.2,0.4-5.9,1
				L137.9,203.9z M138.1,178.8c0,1.5,0.1,3.4,0.1,5.6c0.2,10.4,0.3,16.6,0.1,18.4c0,0.2,0,0.4-0.1,0.7c4.4-0.6,5-0.8,5.6-1l0.2-0.1
				c0.1,0,0.6-0.4,2.5-3.3c2.3-3.6,5.4-8.8,5.8-9.5c-0.4-0.6-2.4-3.8-4.9-7.9c-0.9-1.4-1.8-2.9-2.7-4.4c-1,0.8-2.1,0.9-3.4,0.4
				c-1.1-0.4-1.8,0.2-2.5,0.6c-0.2,0.1-0.3,0.2-0.5,0.3C138.2,178.8,138.2,178.8,138.1,178.8z"/>
		</g>
		<g>
			<path class="st10" d="M144.7,177.1c-1.1,0.9-2.2,1-3.4,0.5c-1.4-0.5-2.3,0.5-3.1,1c-0.1,0-0.2,0.1-0.2,0
				c-0.7-0.2-1.2-2.7-2.1-3.8c-1-1.3-1.7-0.6-1.9-0.3s0,0.2-2-1s-3.3-0.2-4.5,0.7s-0.9,1.3-4.4-0.4c-0.5-0.3-1-0.7-1.4-1.2
				c-2.7-3.2-6.3-11.3-7.8-15.1l0.3-0.1l16.3-9.9l3.6,6.6l2.6,4.8c-1.8,0-1.9,0.7-1.9,1.7C134.9,161.3,140,169.6,144.7,177.1z"/>
			<path class="st6" d="M138,178.8h-0.1c-0.4-0.1-0.8-0.9-1.2-1.9c-0.3-0.7-0.6-1.5-1-2c-0.4-0.4-0.7-0.7-1-0.7l0,0
				c-0.2,0-0.4,0.1-0.7,0.4l0,0c-0.2,0.3-0.3,0.2-0.8-0.1c-0.3-0.2-0.7-0.5-1.3-0.9c-1.8-1.1-3-0.2-4.2,0.6l-0.1,0.1
				c-0.2,0.1-0.3,0.2-0.4,0.3c-0.8,0.7-1.1,0.8-4.1-0.7c-0.6-0.3-1.1-0.8-1.5-1.3c-2.8-3.3-6.4-11.7-7.9-15.1l-0.1-0.2l0.5-0.1
				l16.4-9.9l6.4,11.8h-0.3c-1.6,0-1.7,0.6-1.7,1.5c0,0.3,1.8,3.4,9.8,16.3l0.1,0.1l-0.1,0.1c-1.1,0.9-2.2,1-3.5,0.5
				c-1.1-0.4-1.8,0.2-2.5,0.6c-0.2,0.1-0.3,0.2-0.5,0.3C138.2,178.8,138.1,178.8,138,178.8z M134.7,173.9L134.7,173.9
				c0.4,0,0.8,0.3,1.3,0.8c0.4,0.5,0.8,1.4,1.1,2.1c0.3,0.7,0.7,1.6,0.9,1.7h0.1c0.1-0.1,0.3-0.2,0.4-0.3c0.7-0.5,1.6-1.1,2.8-0.7
				c1.2,0.4,2.2,0.3,3.1-0.4c-8.7-13.9-9.8-16-9.8-16.4c0-1,0.1-1.8,1.8-1.8l-6-11l-16.2,9.8H114c1.5,3.6,5,11.7,7.7,14.9
				c0.4,0.5,0.8,0.9,1.4,1.2c2.9,1.4,3,1.3,3.7,0.7c0.1-0.1,0.3-0.2,0.4-0.3l0.1-0.1c1.2-0.9,2.6-1.9,4.5-0.6
				c0.7,0.4,1.1,0.7,1.3,0.9c0.2,0.1,0.3,0.2,0.4,0.2l0,0v-0.1C134.1,174.1,134.4,173.9,134.7,173.9z"/>
		</g>
		<g>
			<path class="st10" d="M151.9,159.1c-3.1,0-13.3,0-14.9,0h-0.2l-2.6-4.8c3-0.8,9-2.4,15-3.7h0.2
				C149.8,152.3,150.8,156.7,151.9,159.1z"/>
			<path class="st6" d="M140.9,159.3c-1.9,0-3.4,0-3.9,0h-0.3l-2.7-5.1l0.2-0.1c3.8-1,9.5-2.5,15-3.7l0.4-0.1v0.2
				c0.4,1.8,1.4,6.2,2.5,8.5l0.1,0.2h-0.3c-0.9,0-2.4,0-4,0C145.7,159.3,143,159.3,140.9,159.3z M136.9,158.9h0.1
				c1.2,0,6.8,0,10.9,0c1.5,0,2.9,0,3.8,0c-1-2.3-2-6.4-2.4-8.2l0,0c-5.4,1.2-11,2.6-14.8,3.7L136.9,158.9z"/>
		</g>
		<g>
			<path class="st10" d="M170.5,154.6L170.5,154.6c-2-0.2-5.7-0.6-7.9-0.8c-1.1-0.1-1.8-0.2-1.9-0.2c-0.3-0.1-0.1-4.9,0-6.9
				c0-0.1,0-0.1,0-0.2c2.2,0.2,8.3,1.4,10.6,1.8c0.1,0.5,0.2,1.1,0.3,1.7C172,152.6,170.8,152.9,170.5,154.6z"/>
			<path class="st6" d="M170.7,154.9h-0.2c-2-0.2-5.6-0.6-7.9-0.8c-0.8-0.1-1.8-0.2-1.9-0.2c-0.2,0-0.4-0.1-0.2-7.1v-0.3h0.2
				c2.2,0.2,8.1,1.3,10.6,1.8h0.1v0.1c0.1,0.3,0.1,0.6,0.2,0.9c0,0.3,0.1,0.5,0.1,0.8c0.3,1.7-0.1,2.4-0.5,3.2
				c-0.2,0.4-0.5,0.8-0.6,1.4L170.7,154.9L170.7,154.9z M160.8,153.5c0.2,0,0.7,0.1,1.8,0.2c2.2,0.2,5.7,0.6,7.7,0.8
				c0.1-0.6,0.4-1,0.6-1.4c0.4-0.7,0.8-1.4,0.5-3c0-0.3-0.1-0.5-0.1-0.8s-0.1-0.5-0.1-0.8c-2.5-0.5-8-1.5-10.3-1.8
				C160.7,151.2,160.8,153.1,160.8,153.5z"/>
		</g>
		<g>
			<path class="st10" d="M158.2,167.7c-0.3,0.4-0.6,0.8-0.9,1.2c-0.2,0.3-0.5,3.8-0.7,7.1c-0.2,2.4-0.3,4.8-0.4,5.9h-0.1
				c-0.4,0-6.7-0.2-8.5-0.3c-0.9-1.4-1.9-3-2.8-4.5c-4.7-7.6-9.8-15.9-9.8-16.4c0-0.9,0.1-1.7,1.9-1.7h0.2c1.6,0,11.8,0,14.9,0
				c0.2,0.4,0.4,0.8,0.6,1.1C153.6,161.6,156.3,164.9,158.2,167.7z"/>
			<path class="st6" d="M156.3,182.2l-0.2-0.1c0,0,0,0-0.1,0c-0.4,0-7.2-0.2-8.5-0.3h-0.1v-0.1c-0.9-1.4-1.9-3-2.8-4.5
				c-9.9-15.8-9.9-16.3-9.9-16.5c0-1,0.2-1.8,2-1.8h0.2c1.2,0,6.8,0,10.9,0c1.7,0,3.1,0,4,0h0.1v0.1c0.2,0.4,0.4,0.7,0.6,1.1
				c1.2,1.4,3.8,4.8,5.7,7.5l0.1,0.1l-0.1,0.1c-0.3,0.4-0.6,0.8-0.9,1.2c0,0.1-0.2,0.9-0.7,7.1c-0.1,1.6-0.2,3.1-0.3,4.3
				c0,0.7-0.1,1.2-0.1,1.6L156.3,182.2z M147.6,181.5c2.2,0.1,7.8,0.3,8.4,0.3c0-0.4,0.1-0.9,0.1-1.4c0.1-1.2,0.2-2.7,0.3-4.3
				c0.5-6.7,0.7-7.1,0.7-7.2c0.2-0.4,0.5-0.8,0.8-1.2c-1.9-2.7-4.5-6-5.6-7.4c-0.3-0.3-0.5-0.7-0.6-1.1c-0.9,0-2.3,0-3.9,0
				c-4.1,0-9.7,0-10.9,0h-0.2c-1.6,0-1.7,0.6-1.7,1.5c0,0.3,1.4,2.8,9.8,16.3C145.8,178.6,146.8,180.1,147.6,181.5z"/>
		</g>
		<g>
			<path class="st10" d="M163.1,163.8c-2.6,1.7-4.1,3-4.9,3.9c-1.9-2.8-4.6-6.1-5.7-7.5c-0.3-0.3-0.5-0.7-0.6-1.1
				c-1.1-2.3-2.1-6.8-2.5-8.5c8.2-1.8,8.8-4.1,11.2-4l0,0l0.2,0.2c-0.1,2-0.2,6.8,0,6.9c0.1,0,0.8,0.1,1.9,0.2L163.1,163.8z"/>
			<path class="st6" d="M158.2,168l-0.1-0.2c-2-2.9-4.9-6.5-5.7-7.5c-0.3-0.4-0.5-0.7-0.7-1.1c-1.1-2.4-2.1-6.8-2.5-8.6v-0.2h0.2
				c4.7-1,6.9-2.3,8.3-3.1c1.1-0.6,1.8-1,2.9-0.9h0.1l0.3,0.3v0.1c-0.2,4.4-0.1,6.3,0,6.7c0.1,0,0.2,0,0.4,0c0.3,0,0.8,0.1,1.4,0.2
				h0.1l0.5,10.2l-0.1,0.1c-2.2,1.4-3.8,2.7-4.9,3.8L158.2,168z M149.5,150.7c0.4,1.9,1.4,6.1,2.5,8.4c0.2,0.4,0.4,0.7,0.6,1.1
				c0.8,1,3.6,4.4,5.6,7.3c1.1-1.2,2.7-2.4,4.7-3.7l-0.5-9.7c-0.5-0.1-0.9-0.1-1.2-0.1c-0.2,0-0.4-0.1-0.5-0.1l0,0
				c-0.2,0-0.4-0.1-0.2-7l-0.1-0.1c-0.9,0-1.6,0.3-2.7,0.9C156.3,148.4,154.1,149.6,149.5,150.7z"/>
		</g>
		<g>
			<path class="st10" d="M159.5,169.8L159.5,169.8c0,0.1-0.1,0.2-0.1,0.3c-0.1,0.6-0.2,1.7-0.3,3.1c-0.1,0.8-0.1,1.8-0.2,2.7
				l-2.4,0.1c0.3-3.3,0.6-6.8,0.7-7.1c0.2-0.4,0.5-0.9,0.9-1.2C158.7,168.4,159.2,169.1,159.5,169.8z"/>
			<path class="st6" d="M156.4,176.2V176c0.5-6.7,0.7-7.1,0.7-7.2c0.2-0.5,0.6-0.9,0.9-1.3l0.1-0.2l0.1,0.2c0.5,0.7,0.9,1.4,1.3,2.1
				v0.1v0.1c0,0.1-0.1,0.2-0.1,0.3c-0.1,0.5-0.2,1.5-0.3,3.1c-0.1,0.8-0.1,1.8-0.2,2.7v0.2L156.4,176.2z M158.2,167.9
				c-0.3,0.3-0.5,0.7-0.7,1c-0.1,0.1-0.2,1-0.7,6.9l2.1-0.1c0.1-0.9,0.1-1.8,0.2-2.6c0.1-1.7,0.2-2.7,0.3-3.2c0-0.1,0-0.2,0.1-0.3
				C159,169.2,158.6,168.5,158.2,167.9z"/>
		</g>
		<g>
			<path class="st10" d="M164,172.7c-0.4,0.1-1,0.2-1.4,0.4c-0.5,0.2-2.6,0.2-3.4,0.2c0.1-1.4,0.2-2.6,0.3-3.1l0.2-0.1
				c0.8-0.4,2-1,2.3-1.1c0.4-0.2,0.1,1.1,0,1.6s0.7,0.1,1.4-0.2c0.2-0.1,0.4-0.2,0.6-0.3C164.1,170.9,164.1,171.8,164,172.7z"/>
			<path class="st6" d="M160,173.4c-0.4,0-0.7,0-0.8,0H159v-0.2c0.1-1.7,0.2-2.7,0.3-3.2v-0.1l0.3-0.1c1.3-0.6,2.1-1,2.4-1.1
				c0.2-0.1,0.3,0,0.3,0c0.2,0.2,0.1,0.7,0,1.4c0,0.1,0,0.2-0.1,0.3l0,0c0.1,0.1,0.8-0.2,1.1-0.4h0.1c0.2-0.1,0.4-0.2,0.5-0.3
				l0.2-0.1v0.3c0.1,0.9,0.1,1.8,0,2.8v0.1H164c-0.4,0.1-1,0.2-1.4,0.4C162.2,173.4,160.9,173.4,160,173.4z M159.4,173.1
				c1.1,0,2.8,0,3.2-0.1s0.9-0.2,1.3-0.3c0.1-0.8,0.1-1.5,0-2.3c-0.1,0.1-0.2,0.1-0.3,0.2h-0.1c-0.8,0.3-1.2,0.5-1.5,0.3
				c-0.1-0.1-0.1-0.2-0.1-0.3s0-0.2,0.1-0.3c0.1-0.3,0.2-0.9,0.1-1.1c-0.3,0.1-1.1,0.5-2.3,1.1l-0.1,0.1
				C159.5,170.7,159.5,171.6,159.4,173.1z"/>
		</g>
		<g>
			<path class="st10" d="M163.6,183.9c-1,0-3.7,0.2-4.2,0c-0.3-0.1-0.6-0.3-0.8-0.5c0-0.6,0.1-1.3,0.1-2.2h4.6
				c0,0.2,0.1,0.4,0.2,0.6C163.6,182.1,163.6,183.1,163.6,183.9z"/>
			<path class="st6" d="M160.5,184.2c-0.5,0-0.9,0-1.1-0.1c-0.3-0.1-0.6-0.3-0.9-0.5l-0.1-0.1v-0.1c0-0.6,0.1-1.3,0.1-2.2V181h4.9
				v0.1c0,0.2,0.1,0.3,0.2,0.5c0.1,0.1,0.2,0.3,0.2,2.2v0.2h-0.2c-0.3,0-0.9,0-1.4,0C161.5,184.2,160.9,184.2,160.5,184.2z
				 M158.7,183.3c0.2,0.2,0.5,0.3,0.7,0.4c0.3,0.1,1.7,0.1,2.7,0c0.5,0,0.9,0,1.3,0c0-1.5-0.1-1.8-0.2-1.9c-0.1-0.2-0.1-0.3-0.2-0.5
				h-4.3C158.8,182.2,158.8,182.8,158.7,183.3z"/>
		</g>
		<g>
			<path class="st10" d="M159,176c-0.1,1.8-0.2,3.7-0.3,5.3c0,0.9-0.1,1.6-0.1,2.2c-0.8-0.5-1.9-1.3-2.4-1.4
				c0.1-1.1,0.2-3.5,0.4-5.9L159,176z"/>
			<path class="st6" d="M158.7,183.7l-0.2-0.2c-0.2-0.1-0.4-0.2-0.6-0.4c-0.7-0.4-1.4-0.9-1.8-1H156V182c0.1-1.1,0.2-3.4,0.4-5.9
				V176l2.7-0.1v0.2c-0.1,1.5-0.2,3.2-0.3,5.3c0,0.9-0.1,1.6-0.1,2.2L158.7,183.7z M156.4,181.9c0.4,0.2,1.1,0.6,1.7,1
				c0.1,0.1,0.2,0.1,0.3,0.2c0-0.5,0.1-1.2,0.1-1.9c0.1-2,0.2-3.7,0.3-5.1l-2.1,0.1C156.6,178.6,156.4,180.8,156.4,181.9z"/>
		</g>
		<g>
			<path class="st10" d="M163.8,173.7c-0.4,1.1-0.3,3.6-0.3,5.1c0,0.7,0,1.1-0.1,1.2c-0.2,0.2-0.3,0.7-0.2,1.2h-4.6
				c0.1-1.5,0.2-3.5,0.3-5.3c0.1-1,0.1-1.9,0.2-2.7c0.8,0,2.9,0,3.4-0.2c0.4-0.1,1-0.3,1.4-0.4C164,173.1,163.9,173.4,163.8,173.7z"
				/>
			<path class="st6" d="M163.5,181.4h-4.9v-0.2c0.1-2.1,0.2-3.8,0.3-5.3c0.1-1,0.1-1.9,0.2-2.7V173h0.4c0.9,0,2.7,0,3.2-0.1
				c0.4-0.1,0.9-0.3,1.4-0.4l0.2-0.1v0.2c0,0.3-0.1,0.7-0.2,1l0,0c-0.3,0.9-0.3,2.7-0.3,4.2c0,0.3,0,0.6,0,0.9c0,1-0.1,1.2-0.2,1.3
				c-0.1,0.1-0.2,0.6-0.1,1L163.5,181.4z M158.9,181.1h4.2c0-0.4,0-0.9,0.3-1.1c0,0,0.1-0.3,0.1-1.1c0-0.3,0-0.6,0-0.9
				c0-1.5,0-3.3,0.3-4.3c0.1-0.2,0.1-0.5,0.2-0.7c-0.4,0.1-0.9,0.2-1.2,0.3c-0.5,0.2-1.9,0.2-3.3,0.2h-0.1c-0.1,0.8-0.1,1.7-0.2,2.5
				C159.1,177.4,159,179.1,158.9,181.1z"/>
		</g>
	</g>
</g>
<g>
	<g>
		<g>
			<path class="st9" d="M1008.5-94.7L1008.5-94.7L1008.5-94.7c0.6-2.4,1.2-4.7,2.4-6.5c4.1-7.1,5.9-15.3,4.1-23.6l-0.6-4.1
				c-0.6-1.8-0.6-3.5-1.2-5.9l0,0c-2.4-12.4-4.1-22.4-7.7-30.6c-5.3-14.7-10-29.5-13.5-44.2c-1.8-8.2-2.9-25.3-2.9-25.3
				c-0.6-4.7-4.1-8.2-8.8-7.7c-2.9,0-5.3,1.8-7.1,4.1c-4.1,6.5-10,13.5-12.4,14.7c-3.5,1.2-16.5,1.8-23.6,1.8
				c-9.4,0.6-13,0.6-15.3,1.8c-2.4,0.6-4.7,0.6-7.7,0c-4.7-1.2-34.8-3.5-45.4,0.6c-3.5,1.2-5.9,2.4-8.2,3.5l0,0l-2.4,1.2
				c-1.2,0.6-2.9,1.8-4.1,2.4c-14.7,1.8-30,2.9-45.4,3.5l0,0h-4.1c-25.3,0.6-40.6-2.4-42.4-3.5c-0.6,0-0.6-0.6-1.2-0.6
				c-5.3-2.4-19.4-8.8-36.5-5.9l0,0H724l0,0h-1.2c-18.3,4.1-28.3,8.8-30.6,10c-3.5,1.2-30,10-41.2,13.5c-2.9-4.7-7.1-13-9.4-18.3
				c-8.2-16.5-10-18.9-12.4-20.6c-2.9-1.8-21.8-8.8-27.1-10.6c-27.1-9.4-28.3-8.8-31.8-6.5c-2.4,1.2-2.9,2.4-10,14.1
				c-5.9,10-21.8,36.5-27.1,40.1c-2.9,1.2-17.1,6.5-32.4,12.4c-19.4,7.7-44.2,17.1-64.2,24.7c-11.2,4.1-18.9,7.7-24.7,10
				c-3.5,1.2-5.9,2.4-7.7,2.9c-2.4,1.2-8.8,4.1-7.1,10.6c0.6,2.9,1.2,3.5,10.6,14.1c10,11.2,28.3,31.2,34.2,42.4
				c2.9,5.3,8.8,18.9,16.5,37.7l0,0c5.9,14.7,13,32.4,18.9,48.3l0,0c5.3,13.5,8.8,24.7,11.2,31.2c4.1,12.4,18.3,57.7,41.2,130.8l0,0
				l10,32.4l11.8,41.8l0,0l49.5,173.2c1.2,3.5,4.1,5.9,8.2,5.9c0.6,0,0.6,0,1.2,0L713.4,409h0.6h0.6l0,0l74.8-13l0,0h1.2h0.6
				l86-21.8c2.9-0.6,5.3-2.9,5.9-5.9c2.9-11.8,11.2-33,18.9-38.9c0.6-0.6,1.2-1.2,1.8-1.2c0,0,0.6-0.6,1.2-1.8l0,0
				c23.6-28.3,23.6-34.2,23.6-37.1v-1.8c0.6-28.9,4.7-38.3,6.5-41.2l0.6-1.2l0,0c5.9-8.2,10-17.7,11.8-27.7
				c2.4-11.2,3.5-18.9,4.1-21.8l0,0l0,0l0.6-2.4v-0.6c1.8-16.5,6.5-32.4,13-47.7c4.7-9.4,10-18.3,17.1-26.5c4.1-5.3,8.2-10,10-15.9
				c0.6-2.4,1.8-5.3,2.9-7.7c0.6-1.8,1.2-2.9,1.8-4.7l0,0c2.4-5.9,4.1-12.4,4.1-18.9c0-5.3,0-13-1.2-23l0,0
				c-1.2-10-2.4-19.4-4.1-29.5c-2.4-13-5.3-25.3-10-37.1l0,0l0,0c-0.6-1.8-1.2-2.9-1.8-4.7c-0.6-1.2-1.2-2.4-1.2-4.1
				c0,0,0.6-0.6,2.9-2.4c8.2-4.7,18.9-14.1,24.2-25.9l0,0c1.2-2.9,1.8-5.3,2.4-8.2c1.2-7.1,0.6-14.1-1.8-20.6
				C1008.5-89.4,1007.9-91.7,1008.5-94.7z"/>
		</g>
		<g>
			<path class="st10" d="M713.4,10.2c-5.9,0.6-15.9,1.2-18.9,1.2c-5.3,0-12.4-10-18.9-10c-6.5,0-11.2,7.7-14.7,11.8
				c-2.9,2.9-7.1,5.9-18.9,7.7c-2.4,0.6-5.3,0.6-8.8,0.6c-18.9,1.2-25.3-7.7-36.5-9.4c-10.6-2.4-11.2,1.8-18.9,3.5
				c-7.1,1.8-12.4-8.2-31.8-18.3c-19.4-9.4-17.7-2.9-25.9-1.2c-8.8,2.4-22.4-10.6-24.2-10c-1.2,0.6-7.1,10-11.8,17.7
				c-5.9-15.3-12.4-33-18.9-48.3c11.8-1.8,37.7-5.3,83.7-13c58.3-9.4,107.8-18.3,118.4-20C676.2-56.4,696.9-8.6,713.4,10.2z"/>
			<path class="st6" d="M629.7,22c-10.6,0-17.1-2.9-22.4-5.9c-3.5-1.8-6.5-2.9-10.6-4.1c-7.1-1.2-9.4,0-12.4,1.2
				c-1.8,0.6-3.5,1.8-5.9,2.4c-4.1,1.2-7.7-1.8-13.5-5.9c-4.1-3.5-10.6-7.7-19.4-12.4c-14.1-7.1-16.5-5.3-20-3.5
				c-1.2,0.6-2.9,1.8-5.3,2.4c-6.5,1.8-14.7-4.1-20-7.7c-1.8-1.2-3.5-2.4-4.1-2.4c-0.6,0.6-2.9,3.5-11.2,17.1l-1.2,1.8L483,3.1
				c-5.9-15.9-13-33.6-18.9-48.3l-0.6-1.2h1.2c11.8-1.8,37.7-5.3,83.7-13c61.3-10,112.5-18.9,118.4-20h0.6l0.6,0.6
				c8.2,20,30,69.5,46,89l1.2,1.8h-1.8c-6.5,0.6-15.9,1.2-18.9,1.2s-5.9-2.4-8.8-4.7c-3.5-2.9-7.1-5.3-10-5.3
				c-4.7,0-8.8,5.3-11.8,8.8c-0.6,0.6-1.2,1.8-1.8,2.4c-2.9,3.5-7.7,6.5-19.4,7.7c-2.4,0.6-5.3,0.6-8.8,0.6
				C632.1,22,630.9,22,629.7,22z M590.8,9.6c1.8,0,3.5,0,5.9,0.6c4.1,0.6,7.1,2.4,10.6,4.1c5.9,2.9,13,6.5,25.3,5.3
				c3.5,0,6.5-0.6,8.8-0.6c12.4-1.8,15.9-4.7,18.3-7.1c0.6-0.6,1.2-1.2,1.8-2.4c3.5-4.1,7.7-9.4,13.5-9.4c3.5,0,7.7,2.9,11.2,5.9
				c2.9,2.4,5.9,4.7,7.7,4.7c2.9,0,12.4-0.6,17.1-0.6c-15.9-20-36.5-66.6-44.8-87.2c-8.8,1.8-58.3,10-117.8,20
				c-44.8,7.1-70.7,11.2-82.5,13c5.9,14.1,12.4,30.6,17.7,45.4c9.4-15.9,10.6-15.9,11.2-16.5c1.2,0,2.4,0.6,5.9,2.9
				c4.7,3.5,13,8.8,18.3,7.7c2.4-0.6,3.5-1.2,4.7-2.4c4.7-2.4,7.7-3.5,21.8,3.5c9.4,4.7,15.3,8.8,20,12.4c5.3,4.1,8.2,6.5,11.8,5.3
				c2.4-0.6,4.1-1.2,5.3-1.8C585.5,10.2,587.3,9.6,590.8,9.6z"/>
		</g>
		<g>
			<path class="st10" d="M682.7,119.2l-146.7,46c-13-42.4-35.3-113.7-41.2-130.8c-2.4-7.1-6.5-18.9-11.8-31.8
				c4.7-7.7,10.6-17.1,11.8-17.7c1.8-0.6,15.3,12.4,24.2,10c8.8-2.4,6.5-8.2,25.9,1.2c19.4,9.4,24.7,19.4,31.8,18.3
				c7.1-1.8,7.7-5.3,18.9-3.5c10.6,2.4,17.1,10.6,36.5,9.4c3.5,0,6.5-0.6,8.8-0.6c0,0.6,0,0.6,0,1.2c0,5.3,25.3,56,35.3,77.2
				C680.4,105.1,682.1,112.1,682.7,119.2z"/>
			<path class="st6" d="M535.4,166.3v-1.2c-8.2-25.9-34.8-111.9-41.2-130.8c-2.4-7.1-6.5-18.9-11.8-31.8V2V1.4
				c10.6-17.7,11.8-17.7,12.4-18.3c1.2,0,2.4,0.6,5.9,2.9c4.7,2.9,13,8.8,18.3,7.1c2.4-0.6,3.5-1.2,4.7-2.4
				c4.7-2.4,7.7-3.5,21.8,3.5c9.4,4.7,15.3,8.8,20,12.4c5.3,4.1,8.2,6.5,11.8,5.3c2.4-0.6,4.1-1.2,5.3-1.8c3.5-1.8,5.9-2.9,13.5-1.2
				c4.1,0.6,7.1,2.4,10.6,4.1c5.9,2.9,13,6.5,25.3,5.3c3.5,0,6.5-0.6,8.8-0.6h0.6v0.6c0,0.6,0,1.2,0,1.2c0,4.1,16.5,38.3,27.7,61.3
				c2.9,5.9,5.3,11.2,7.7,15.3c2.9,7.1,4.7,14.1,5.9,21.2v0.6h-0.6L535.4,166.3z M484.8,2.5c4.7,13,8.8,24.2,11.2,31.2
				c6.5,18.9,32.4,103.1,40.6,130.2l144.9-45.4c-1.2-7.1-2.9-13.5-5.3-20c-1.8-4.1-4.7-9.4-7.7-15.3c-15.3-31.2-28.3-57.7-28.3-61.9
				l0,0c-2.4,0-4.7,0.6-7.7,0.6c-12.4,0.6-20-2.9-25.9-5.9c-3.5-1.8-6.5-2.9-10.6-4.1c-7.1-1.2-9.4,0-12.4,1.2
				c-1.8,0.6-3.5,1.8-5.9,2.4c-4.1,1.2-7.7-1.8-13.5-5.9c-4.1-3.5-10.6-7.7-19.4-12.4c-14.1-7.1-16.5-5.3-20-3.5
				c-1.2,0.6-2.9,1.8-5.3,2.4c-6.5,1.8-14.7-4.1-20-7.7c-1.8-1.2-3.5-2.4-4.1-2.4C495.4-13.4,493-10.4,484.8,2.5z"/>
		</g>
		<g>
			<path class="st11" d="M691,211.1c-51.8,10-107.2,22.4-132.5,28.3l-11.8-41.8c0,0-4.1-13.5-10-32.4l146.7-46
				c5.3,29.5,6.5,74.2,7.1,84.8C690.4,205.2,690.4,208.1,691,211.1z"/>
			<path class="st6" d="M557.8,240.6l-12.4-42.4l0,0c0,0-4.1-13.5-10-32.4v-1.2L683.9,118v1.2c3.5,21.2,5.3,50.1,6.5,68.9
				c0.6,7.1,0.6,13,1.2,15.9c0,1.2,0.6,3.5,0.6,7.1v1.2H691C637.4,222.9,580.2,235.8,557.8,240.6L557.8,240.6z M537.2,165.7
				c5.9,18.9,10,31.8,10,31.8l11.8,40.6c22.4-5.3,77.8-17.7,130.8-28.3c-0.6-2.9-0.6-4.7-0.6-5.9c-0.6-2.9-0.6-8.8-1.2-15.9
				c-1.2-18.9-2.4-46.5-5.9-67.7L537.2,165.7z"/>
		</g>
		<g>
			<path class="st10" d="M711.6,400.2L711.6,400.2l-103.7,12.4l-49.5-173.2c25.3-5.9,80.7-18.3,132.5-28.3
				c2.9,28.9,13.5,124.9,14.7,148.5C706.3,373.1,708.6,386.6,711.6,400.2z"/>
			<path class="st6" d="M607.3,413.7l-50.1-175h1.2c17.1-4.1,76-17.7,132.5-28.3h1.2l1.2,10.6c3.5,35.3,13,117.8,13.5,139
				c0.6,13.5,2.9,27.1,6.5,40.6v1.2l-1.8,0.6L607.3,413.7z M559.6,240l49.5,171.4L711,399c-3.5-13-5.3-26.5-5.9-39.5
				c-0.6-21.2-10-103.7-13.5-138.4l-1.2-8.2C635,222.9,577.3,235.8,559.6,240z"/>
		</g>
		<g>
			<path class="st10" d="M781.7,283c-1.2,3.5,3.5,78.4,5.3,103.7l-74.8,13c-3.5-13.5-5.3-27.1-6.5-40.6
				c-1.2-23.6-11.2-119-14.7-148.5c25.9-4.7,50.7-9.4,71.3-11.8c20.6-2.4,35.9-4.7,47.1-5.9c-2.9,13.5-6.5,26.5-10.6,39.5
				C791.1,256.5,782.3,280.6,781.7,283z"/>
			<path class="st6" d="M711,400.8v-0.6c-3.5-13.5-5.3-27.1-6.5-40.6c-0.6-21.2-10-103.7-13.5-138.4l-1.2-10.6h1.2
				c28.9-5.3,53-9.4,71.3-11.8c19.4-2.4,35.3-4.7,47.1-5.9h1.2v1.2c-2.9,13.5-6.5,26.5-10.6,39.5c-5.3,16.5-10.6,33-14.1,43
				c-1.2,4.1-2.4,7.1-2.4,7.7c-0.6,2.9,2.4,55.4,5.3,103.1v0.6L711,400.8z M692.2,211.7l1.2,8.8c3.5,35.3,13,117.2,13.5,138.4
				c0.6,13.5,2.9,26.5,5.9,39.5l73-13c-1.8-30.6-5.9-99.6-4.7-103.1l0,0c0-0.6,1.2-3.5,2.4-7.7c3.5-10,8.8-25.9,14.1-43
				c4.1-12.4,7.7-25.3,10-37.7c-11.8,1.8-27.1,3.5-46,5.9C744,202.3,720.4,206.4,692.2,211.7z"/>
		</g>
		<g>
			<path class="st10" d="M897.8,320.1l-1.2,1.8c-13.5,9.4-22.4,43.6-22.4,43.6l-86,21.8H787c-1.8-25.3-5.9-100.1-5.3-103.7
				c0.6-2.4,9.4-26.5,17.1-50.7c5.9,14.7,18.3,41.2,21.8,44.8C824.7,281.2,877.1,308.9,897.8,320.1z"/>
			<path class="st6" d="M785.8,387.8v-1.2c-0.6-10-5.9-99.6-4.7-104.3c0-0.6,1.2-4.1,2.9-8.2c3.5-9.4,8.8-25.9,14.1-42.4l0.6-2.4
				l1.2,2.4c8.2,20,18.3,41.8,21.8,44.8c4.7,4.1,60.1,33.6,77.2,42.4l1.2,0.6l-2.4,2.9c-13,9.4-21.8,42.4-21.8,43v0.6L785.8,387.8z
				 M798.8,235.2c-4.7,15.3-10,30.6-13,40.1c-1.8,4.1-2.4,7.7-2.9,8.2c-0.6,2.9,2.4,62.4,4.7,102.5l85.4-21.8
				c1.2-4.7,10-34.2,22.4-43.6l0.6-0.6c-22.4-11.8-71.9-37.7-76.6-41.8C815.3,274.1,802.9,245.3,798.8,235.2z"/>
		</g>
		<g>
			<path class="st10" d="M929,239.4c-0.6,0.6-0.6,0.6-0.6,0.6c-8.2,10.6-8.2,41.2-8.8,47.7c0,5.3-17.1,25.9-21.8,31.8
				c-20.6-11.2-73-38.3-77.2-42.4c-4.1-3.5-15.9-30.6-21.8-44.8c4.1-13,7.7-25.9,10.6-39.5l0,0c14.1,1.8,40.6,16.5,49.5,20
				C865.3,215.8,907.2,231.1,929,239.4z"/>
			<path class="st6" d="M898.3,321.3l-0.6-0.6c-21.8-11.2-73-38.3-77.2-42.4c-4.1-4.1-17.1-33-22.4-45.4v-0.6v-0.6
				c4.1-13,7.7-25.9,10.6-39.5v-1.2h1.2c10,1.2,26.5,9.4,38.9,15.3c4.7,2.4,8.2,4.1,11.2,5.3c6.5,2.4,46.5,17.1,67.7,25.3l3.5,1.2
				l-0.6,1.2c-0.6,0.6-0.6,0.6-0.6,0.6c-7.1,10-8.2,36.5-8.2,45.4v1.8c0,5.3-13.5,22.4-21.8,32.4L898.3,321.3z M800,232.3
				c10.6,25.3,18.9,41.8,21.8,44.2c4.1,4.1,58.3,32.4,76.6,41.8c13-15.3,20.6-27.1,21.2-30.6v-1.8c0-8.8,1.2-35.9,8.8-46.5l-1.2-0.6
				c-23-8.8-61.3-23-67.7-25.3c-2.4-1.2-6.5-2.9-11.2-5.3c-11.2-5.9-27.1-13-37.1-14.7C807,207,803.5,219.9,800,232.3z"/>
		</g>
		<g>
			<path class="st10" d="M943.1,193.4c-0.6,3.5-1.8,11.2-4.1,21.8c-1.8,8.8-5.3,17.1-10,24.2c-21.8-8.2-63.6-23.6-70.1-25.9
				c-8.8-3.5-35.3-18.3-49.5-20c29.5-4.1,31.2-5.3,35.3-6.5c1.8-0.6,7.7-8.8,15.3-20c7.1,3.5,20.6,10,27.1,11.8
				C894.2,181.1,930.2,190.5,943.1,193.4z"/>
			<path class="st6" d="M929,240.6h-0.6c-21.8-8.2-63.6-23.6-70.1-25.9c-2.4-1.2-6.5-2.9-11.2-5.3c-11.8-5.9-27.7-13.5-37.7-14.7
				l-7.7-1.2l7.7-1.2c27.1-3.5,30.6-4.7,34.2-5.9h1.2c1.2-0.6,4.1-4.1,14.7-19.4l0.6-0.6l0.6,0.6c5.9,2.9,20,10,27.1,11.8
				c5.3,1.8,24.7,6.5,56,14.7h0.6v1.2c-0.6,4.1-2.4,13-4.1,21.8c-1.8,8.8-5.3,17.1-10.6,24.7L929,240.6z M815.3,193.4
				c10,2.9,23,8.8,33,13.5c4.7,2.4,8.8,4.1,11.2,5.3c6.5,2.4,47.1,17.7,69.5,25.9c4.7-7.1,8.2-14.7,9.4-23
				c1.8-8.2,2.9-16.5,3.5-20.6c-31.2-8.2-50.1-13-55.4-14.7c-6.5-2.4-20-8.8-26.5-11.8c-10.6,16.5-13.5,19.4-15.3,19.4h-0.6
				C840.6,189.3,837.7,189.9,815.3,193.4z"/>
		</g>
		<g>
			<path class="st10" d="M988.5,87.4c-1.8,4.1-2.9,8.2-4.7,12.4c-3.5,10-15.3,17.7-26.5,41.2c-7.1,15.9-11.8,33-14.1,50.1
				c0,0,0,0.6-0.6,2.4c-13-3.5-48.3-12.4-56-14.7c-6.5-2.4-20-8.8-27.1-11.8c14.7-23,34.8-56.6,34.8-56.6s-13-20-29.5-47.1
				c10.6,0.6,47.7,1.8,50.1,1.8h0.6c2.9,0.6,9.4,5.3,14.1,8.2c1.8,1.2,3.5,1.8,5.3,2.9c3.5,1.2,19.4,0,24.7,0c0.6,0,0.6,0,1.2,0
				C963.7,76.8,979,83.3,988.5,87.4z"/>
			<path class="st6" d="M943.7,194.6h-1.2c-31.2-8.2-50.7-13.5-56-14.7c-7.1-2.4-21.2-9.4-27.1-12.4l-1.2-0.6l0.6-1.2
				c13.5-21.2,31.8-51.8,34.2-56c-2.4-3.5-14.1-22.4-29.5-46.5l-1.2-1.8h1.8c17.7,0.6,47.7,1.8,50.1,1.8c0.6,0,0.6,0,1.2,0
				c2.4,0.6,6.5,3.5,10.6,6.5c1.2,0.6,2.4,1.8,3.5,2.4c1.8,1.2,2.9,1.8,4.7,2.9c1.8,0.6,9.4,0.6,15.3,0c3.5,0,7.1-0.6,8.8,0
				c0.6,0,0.6,0,1.2,0c2.4,0,11.2,3.5,27.7,10.6l0.6,0.6l-0.6,0.6c-0.6,1.8-1.2,2.9-1.8,4.7c-1.2,2.4-1.8,5.3-2.9,8.2
				c-1.8,4.7-4.7,8.2-8.8,13.5c-5.3,6.5-11.8,14.7-17.7,28.3c-7.1,15.9-11.8,33-13.5,50.1c0,0,0,0.6-0.6,2.4L943.7,194.6z
				 M861.2,166.3c6.5,2.9,19.4,9.4,25.9,11.8c5.3,1.8,24.2,6.5,54.8,14.7c0-0.6,0-1.2,0-1.2c2.4-17.7,7.1-34.2,14.1-50.7
				c6.5-13.5,13-21.8,18.3-28.3c4.1-4.7,7.1-8.8,8.2-13c1.2-2.9,1.8-5.3,2.9-8.2c0.6-1.2,1.2-2.4,1.2-3.5
				c-19.4-8.2-24.7-10-25.9-10.6c-0.6,0-0.6,0-1.2,0c-2.4,0-5.3,0-8.8,0c-8.2,0.6-14.1,0.6-16.5-0.6c-1.8-0.6-3.5-1.8-5.3-2.9
				c-1.2-0.6-2.4-1.2-3.5-2.4c-4.1-2.4-8.2-5.3-10.6-5.9h-0.6c-2.4,0-39.5-1.2-48.3-1.8c16.5,25.9,28.9,45.4,28.9,45.4l0.6,0.6
				l-0.6,0.6C895.4,110.9,876,143.9,861.2,166.3z"/>
		</g>
		<g>
			<path class="st10" d="M991.4,48.5c-4.1-0.6-7.7-1.2-11.2-2.4c-2.4-0.6-14.7,0-20.6,0c0-8.8-0.6-23.6,1.8-30
				c0.6-1.8,1.2-3.5,1.2-5.9c0.6-5.3,0.6-10.6,0-15.9c4.7-2.9,11.8-7.7,14.7-10c4.7,11.8,8.2,23.6,10,35.9
				C989.1,29.6,990.2,39.1,991.4,48.5z"/>
			<path class="st6" d="M992,49.7h-1.2c-4.1-0.6-7.7-1.2-11.8-2.4c-1.8-0.6-13,0-20,0h-1.2v-1.2c0-1.8,0-2.9,0-4.7
				c0-8.8,0-20,1.8-25.9c0.6-1.8,1.2-3.5,1.2-5.3c0.6-5.3,0.6-10.6,0-15.9v-0.6l0.6-0.6c4.7-2.9,11.8-7.7,14.7-10l1.2-0.6l0.6,1.2
				c4.7,11.8,8.2,23.6,10,35.9c1.8,9.4,2.9,18.9,4.1,28.3L992,49.7z M973.2,45c3.5,0,5.9,0,7.1,0c3.5,1.2,7.1,1.8,10,2.4
				c-0.6-8.8-2.4-18.3-4.1-27.1c-1.8-11.8-5.3-23.6-9.4-34.2c-3.5,2.4-9.4,6.5-13.5,8.8c0.6,5.3,0.6,10.6,0,15.3
				c0,1.8-0.6,4.1-1.2,5.9c-1.8,5.3-1.8,16.5-1.8,25.3c0,1.2,0,2.4,0,4.1C963.7,45.6,969,45,973.2,45z"/>
		</g>
		<g>
			<path class="st10" d="M992,70.9c-0.6,5.3-1.8,11.2-3.5,15.9c-9.4-4.1-24.7-10.6-27.1-10.6c-0.6,0-0.6,0-1.2,0
				c0-4.7,0-10.6-1.2-12.4c-0.6-1.2-1.2-2.4-1.2-3.5c-0.6-2.4,0-5.9,1.2-7.1c0.6-0.6,0.6-3.5,0.6-7.1c5.9,0,18.3-0.6,20.6,0
				c3.5,1.2,7.7,1.8,11.2,2.4C992,58.5,992,66.2,992,70.9z"/>
			<path class="st6" d="M989.1,88.6l-3.5-1.8c-8.8-3.5-21.8-9.4-24.2-9.4c-0.6,0-0.6,0-1.2,0H959v-1.2c0-9.4-0.6-11.8-1.2-11.8
				c-0.6-1.2-1.2-2.4-1.2-3.5c-0.6-2.9,0-5.9,1.2-7.7c0-0.6,0.6-2.4,0.6-6.5v-1.2h1.2c4.1,0,18.3-0.6,20.6,0
				c3.5,1.2,7.7,1.8,11.2,2.4h0.6v0.6c0.6,7.7,1.2,15.3,1.2,22.4l0,0c-0.6,5.9-1.8,11.2-3.5,16.5L989.1,88.6z M960.8,75
				C960.8,75,961.4,75,960.8,75c2.9,0.6,13,4.7,25.3,9.4l1.8,0.6c1.8-4.7,2.9-9.4,3.5-14.7c0-7.1-0.6-14.1-1.2-21.2
				c-3.5-0.6-7.1-1.2-10.6-2.4c-1.8,0-10.6,0-18.9,0c0,4.7,0,6.5-1.2,7.1c-0.6,0.6-1.2,3.5-0.6,5.9c0,1.2,0.6,2.4,1.2,2.9
				C960.2,63.8,960.8,65.6,960.8,75z"/>
		</g>
		<g>
			<path class="st10" d="M810,187.5c0,1.8-0.6,3.5-0.6,5.3l0,0c-11.2,1.8-26.5,3.5-47.1,5.9c-20,2.4-45.4,7.1-71.3,11.8
				c-0.6-2.9-0.6-5.9-0.6-7.1c-1.2-10.6-2.4-55.4-7.1-84.8L810,79.1C810.6,120.4,811.2,174,810,187.5z"/>
			<path class="st6" d="M690.4,212.3v-1.2c-0.6-2.9-0.6-5.9-0.6-7.1c-0.6-2.9-0.6-8.8-1.2-15.9c-1.2-18.9-2.4-47.7-6.5-68.9v-0.6
				l128.4-40.1v1.2c0.6,40.1,1.8,94.8,0.6,108.4c0,1.2-0.6,2.9-0.6,5.9v0.6H810c-11.8,1.8-27.7,3.5-47.1,5.9
				c-18.9,2.4-42.4,6.5-70.7,11.8H690.4z M683.9,119.8c3.5,21.2,5.3,49.5,5.9,68.3c0.6,7.1,0.6,13,1.2,15.9c0,1.2,0.6,3.5,0.6,5.9
				c28.3-5.3,51.8-9.4,70.1-11.8c19.4-2.4,34.2-4.1,46.5-5.9c0.6-1.8,0.6-3.5,0.6-4.7l0,0c1.2-13.5,0.6-66.6-0.6-106.6L683.9,119.8z
				"/>
		</g>
		<g>
			<path class="st10" d="M809.4,79.7l-126.7,39.5c-1.2-7.1-2.9-14.1-5.9-21.2c-10-21.2-35.3-71.9-35.3-77.2c0-0.6,0-0.6,0-1.2
				c11.8-1.8,15.9-4.1,18.9-7.7c3.5-4.1,8.2-11.8,14.7-11.8c6.5,0,14.1,10,18.9,10c3.5,0,13-0.6,18.9-1.2c2.4,2.9,5.3,5.3,8.2,7.1
				c20.6,10,18.3,7.7,25.9,2.4s14.7-11.8,26.5-4.1c11.2,7.1,10,7.7,11.8,5.9c1.2-1.8,5.3-5.9,11.2,1.8c5.3,6.5,8.2,21.2,12.4,22.4
				C808.8,53.8,808.8,66.2,809.4,79.7z"/>
			<path class="st6" d="M682.1,120.4v-1.2c-1.2-7.1-2.9-14.1-5.9-20.6c-2.4-4.7-5.3-11.2-8.8-18.3c-15.3-31.2-27.1-55.4-27.1-59.5
				v-0.6V19h1.2c12.4-1.8,15.9-4.7,18.3-7.1c0.6-0.6,1.2-1.2,1.8-1.8c3.5-4.1,7.7-10,13.5-10c3.5,0,7.7,2.9,11.2,5.9
				c2.9,2.4,5.9,4.7,7.7,4.7c3.5,0,13.5-0.6,18.9-1.2h0.6l0.6,0.6c2.4,2.9,4.7,5.3,7.7,7.1c17.1,8.2,17.7,7.7,21.8,4.1
				c0.6-0.6,1.8-1.2,2.4-1.8l0.6-0.6c7.1-5.3,15.3-11.2,26.5-3.5c3.5,2.4,5.9,4.1,7.7,5.3c1.2,0.6,1.8,1.2,2.4,1.2l0,0v-0.6
				c0.6-0.6,2.4-2.9,5.3-2.9c2.4,0,4.7,1.8,7.1,4.7s4.7,8.2,6.5,12.4c1.8,4.1,4.1,9.4,5.3,10h0.6v7.1c0,7.7,0.6,17.7,0.6,27.7v0.6
				h-0.6L682.1,120.4z M642.7,20.8L642.7,20.8c0,4.1,15.9,37.1,26.5,58.9c3.5,7.1,6.5,13.5,8.8,18.3c2.9,6.5,4.7,13.5,5.3,20
				l124.9-38.9c0-10-0.6-19.4-0.6-27.1v-5.9c-2.4-1.2-4.1-5.3-5.9-10.6c-1.8-4.1-3.5-8.8-5.9-11.8c-2.4-2.4-4.1-4.1-5.9-4.1
				c-1.2,0-2.4,0.6-4.1,2.4l0,0c-1.2,1.8-1.8,1.2-4.7-0.6c-1.8-1.2-4.1-2.9-7.7-5.3c-10.6-6.5-17.7-1.2-24.7,3.5l-0.6,0.6
				c-1.2,0.6-1.8,1.2-2.4,1.8c-4.7,4.1-6.5,4.7-24.2-4.1c-2.9-1.8-5.9-4.1-8.2-7.1c-7.1,0.6-15.3,1.2-18.9,1.2
				c-2.9,0-5.9-2.4-8.8-4.7c-3.5-2.9-7.1-5.3-10-5.3c-4.7,0-8.8,5.3-12.4,8.8c-0.6,0.6-1.2,1.2-1.8,2.4
				C658,16.7,653.9,19,642.7,20.8z"/>
		</g>
		<g>
			<path class="st10" d="M894.8,109.8c0,0-20,33.6-34.8,56.6c-7.1,11.2-13,19.4-15.3,20c-4.1,1.2-5.9,2.4-35.3,6.5l0,0
				c0.6-2.4,0.6-4.1,0.6-5.3c1.2-13.5,0.6-67.2-0.6-107.8c-0.6-13.5-0.6-25.3-1.2-34.2c0.6,0,1.2,0,1.2,0c4.7-2.9,10-8.8,18.3-5.9
				c7.1,2.4,13.5,2.4,20-2.9c5.9,9.4,11.2,18.3,16.5,26.5C881.8,89.7,894.8,109.8,894.8,109.8z"/>
			<path class="st6" d="M808.2,194v-1.2c0.6-2.4,0.6-4.1,0.6-5.3c1.2-10.6,0.6-46.5-0.6-107.8c-0.6-13.5-0.6-25.3-1.2-34.2v-1.2h1.2
				h0.6c0.6-0.6,1.8-1.2,2.4-1.8c4.1-2.9,9.4-6.5,16.5-4.1c7.7,2.9,13,1.8,18.9-2.9l0.6-0.6l0.6,1.2c5.9,9.4,11.2,18.3,16.5,26.5
				c16.5,26.5,29.5,46.5,29.5,47.1l0.6,0.6l-0.6,0.6c0,0.6-20,34.2-34.8,56.6c-11.2,17.1-14.1,20-15.9,20.6l-1.2,0.6
				c-4.1,1.2-7.1,2.4-34.8,5.9L808.2,194z M809.4,46.1c0,8.8,0.6,20,0.6,33c1.2,61.3,1.8,97.8,0.6,108.4c0,1.2,0,2.4-0.6,4.1
				c25.9-3.5,29.5-4.7,33-5.9l1.2-0.6c0.6,0,3.5-2.4,14.7-19.4c13.5-21.2,31.8-51.8,34.2-56c-2.4-3.5-14.1-22.4-28.9-46.5
				c-5.3-8.2-10.6-17.1-15.9-25.9c-5.9,4.7-12.4,5.3-20,2.4c-6.5-2.4-10.6,1.2-14.7,3.5c-1.2,0.6-1.8,1.2-2.9,1.8
				C810,46.1,810,46.1,809.4,46.1z"/>
		</g>
		<g>
			<path class="st10" d="M848.3,36.1c-6.5,5.3-13,5.9-20,2.9C820,36.1,814.7,42,810,45c-0.6,0-1.2,0.6-1.2,0
				c-4.1-1.2-7.1-15.9-12.4-22.4c-5.9-7.7-10-3.5-11.2-1.8c-1.2,1.8,0,1.2-11.8-5.9c-11.8-7.1-19.4-1.2-26.5,4.1
				c-7.1,5.3-5.3,7.7-25.9-2.4c-2.9-1.8-5.9-4.1-8.2-7.1c-15.9-18.9-37.1-66.6-46-89l1.8-0.6l96-58.3l21.2,38.9l15.3,28.3
				c-10.6,0-11.2,4.1-11.2,10C790.5-57,820.6-8.1,848.3,36.1z"/>
			<path class="st6" d="M808.8,46.1h-0.6c-2.4-0.6-4.7-5.3-7.1-11.2c-1.8-4.1-3.5-8.8-5.9-11.8c-2.4-2.4-4.1-4.1-5.9-4.1l0,0
				c-1.2,0-2.4,0.6-4.1,2.4l0,0c-1.2,1.8-1.8,1.2-4.7-0.6c-1.8-1.2-4.1-2.9-7.7-5.3c-10.6-6.5-17.7-1.2-24.7,3.5l-0.6,0.6
				c-1.2,0.6-1.8,1.2-2.4,1.8c-4.7,4.1-6.5,4.7-24.2-4.1c-3.5-1.8-6.5-4.7-8.8-7.7c-16.5-19.4-37.7-68.9-46.5-89l-0.6-1.2l2.9-0.6
				l96.6-58.3l37.7,69.5h-1.8c-9.4,0-10,3.5-10,8.8c0,1.8,10.6,20,57.7,96l0.6,0.6l-0.6,0.6c-6.5,5.3-13,5.9-20.6,2.9
				c-6.5-2.4-10.6,1.2-14.7,3.5c-1.2,0.6-1.8,1.2-2.9,1.8C810,46.1,809.4,46.1,808.8,46.1z M789.4,17.3L789.4,17.3
				c2.4,0,4.7,1.8,7.7,4.7c2.4,2.9,4.7,8.2,6.5,12.4c1.8,4.1,4.1,9.4,5.3,10h0.6c0.6-0.6,1.8-1.2,2.4-1.8c4.1-2.9,9.4-6.5,16.5-4.1
				c7.1,2.4,13,1.8,18.3-2.4c-51.3-81.9-57.7-94.3-57.7-96.6c0-5.9,0.6-10.6,10.6-10.6L764-135.9l-95.4,57.7h-1.2
				c8.8,21.2,29.5,68.9,45.4,87.8c2.4,2.9,4.7,5.3,8.2,7.1c17.1,8.2,17.7,7.7,21.8,4.1c0.6-0.6,1.8-1.2,2.4-1.8l0.6-0.6
				c7.1-5.3,15.3-11.2,26.5-3.5c4.1,2.4,6.5,4.1,7.7,5.3c1.2,0.6,1.8,1.2,2.4,1.2l0,0v-0.6C785.8,18.5,787.6,17.3,789.4,17.3z"/>
		</g>
		<g>
			<path class="st10" d="M927.8-19.2c-1.8,2.4-3.5,4.7-5.3,7.1c-1.2,1.8-2.9,22.4-4.1,41.8c-1.2,14.1-1.8,28.3-2.4,34.8h-0.6
				c-2.4,0-39.5-1.2-50.1-1.8c-5.3-8.2-11.2-17.7-16.5-26.5c-27.7-44.8-57.7-93.7-57.7-96.6c0-5.3,0.6-10,11.2-10h1.2
				c9.4,0,69.5,0,87.8,0c1.2,2.4,2.4,4.7,3.5,6.5C900.7-55.2,916.6-35.7,927.8-19.2z"/>
			<path class="st6" d="M916.6,66.2l-1.2-0.6c0,0,0,0-0.6,0c-2.4,0-42.4-1.2-50.1-1.8h-0.6v-0.6c-5.3-8.2-11.2-17.7-16.5-26.5
				c-58.3-93.1-58.3-96-58.3-97.2c0-5.9,1.2-10.6,11.8-10.6h1.2c7.1,0,40.1,0,64.2,0c10,0,18.3,0,23.6,0h0.6v0.6
				c1.2,2.4,2.4,4.1,3.5,6.5c7.1,8.2,22.4,28.3,33.6,44.2l0.6,0.6l-0.6,0.6c-1.8,2.4-3.5,4.7-5.3,7.1c0,0.6-1.2,5.3-4.1,41.8
				c-0.6,9.4-1.2,18.3-1.8,25.3c0,4.1-0.6,7.1-0.6,9.4L916.6,66.2z M865.3,62.1c13,0.6,46,1.8,49.5,1.8c0-2.4,0.6-5.3,0.6-8.2
				c0.6-7.1,1.2-15.9,1.8-25.3c2.9-39.5,4.1-41.8,4.1-42.4c1.2-2.4,2.9-4.7,4.7-7.1c-11.2-15.9-26.5-35.3-33-43.6
				c-1.8-1.8-2.9-4.1-3.5-6.5c-5.3,0-13.5,0-23,0c-24.2,0-57.1,0-64.2,0h-1.2c-9.4,0-10,3.5-10,8.8c0,1.8,8.2,16.5,57.7,96
				C854.7,45,860.6,53.8,865.3,62.1z"/>
		</g>
		<g>
			<path class="st10" d="M935.5-6.9L935.5-6.9c0,0.6-0.6,1.2-0.6,1.8c-0.6,3.5-1.2,10-1.8,18.3c-0.6,4.7-0.6,10.6-1.2,15.9
				l-14.1,0.6c1.8-19.4,3.5-40.1,4.1-41.8c1.2-2.4,2.9-5.3,5.3-7.1C930.7-15.1,933.7-11,935.5-6.9z"/>
			<path class="st6" d="M917.2,30.8v-1.2c2.9-39.5,4.1-41.8,4.1-42.4c1.2-2.9,3.5-5.3,5.3-7.7l0.6-1.2l0.6,1.2
				c2.9,4.1,5.3,8.2,7.7,12.4v0.6v0.6c0,0.6-0.6,1.2-0.6,1.8c-0.6,2.9-1.2,8.8-1.8,18.3c-0.6,4.7-0.6,10.6-1.2,15.9v1.2L917.2,30.8z
				 M927.8-18.1c-1.8,1.8-2.9,4.1-4.1,5.9c-0.6,0.6-1.2,5.9-4.1,40.6l12.4-0.6c0.6-5.3,0.6-10.6,1.2-15.3c0.6-10,1.2-15.9,1.8-18.9
				c0-0.6,0-1.2,0.6-1.8C932.5-10.4,930.2-14.5,927.8-18.1z"/>
		</g>
		<g>
			<path class="st10" d="M962,10.2c-2.4,0.6-5.9,1.2-8.2,2.4c-2.9,1.2-15.3,1.2-20,1.2c0.6-8.2,1.2-15.3,1.8-18.3l1.2-0.6
				c4.7-2.4,11.8-5.9,13.5-6.5c2.4-1.2,0.6,6.5,0,9.4c-0.6,2.9,4.1,0.6,8.2-1.2c1.2-0.6,2.4-1.2,3.5-1.8
				C962.6-0.4,962.6,4.9,962,10.2z"/>
			<path class="st6" d="M938.4,14.3c-2.4,0-4.1,0-4.7,0h-1.2v-1.2c0.6-10,1.2-15.9,1.8-18.9v-0.6l1.8-0.6c7.7-3.5,12.4-5.9,14.1-6.5
				c1.2-0.6,1.8,0,1.8,0c1.2,1.2,0.6,4.1,0,8.2c0,0.6,0,1.2-0.6,1.8l0,0c0.6,0.6,4.7-1.2,6.5-2.4h0.6c1.2-0.6,2.4-1.2,2.9-1.8
				l1.2-0.6v1.8c0.6,5.3,0.6,10.6,0,16.5v0.6H962c-2.4,0.6-5.9,1.2-8.2,2.4C951.4,14.3,943.7,14.3,938.4,14.3z M934.9,12.6
				c6.5,0,16.5,0,18.9-0.6c2.4-0.6,5.3-1.2,7.7-1.8c0.6-4.7,0.6-8.8,0-13.5c-0.6,0.6-1.2,0.6-1.8,1.2H959c-4.7,1.8-7.1,2.9-8.8,1.8
				c-0.6-0.6-0.6-1.2-0.6-1.8s0-1.2,0.6-1.8c0.6-1.8,1.2-5.3,0.6-6.5c-1.8,0.6-6.5,2.9-13.5,6.5l-0.6,0.6
				C935.5-1.6,935.5,3.7,934.9,12.6z"/>
		</g>
		<g>
			<path class="st10" d="M959.6,76.2c-5.9,0-21.8,1.2-24.7,0c-1.8-0.6-3.5-1.8-4.7-2.9c0-3.5,0.6-7.7,0.6-13h27.1
				c0,1.2,0.6,2.4,1.2,3.5C959.6,65.6,959.6,71.5,959.6,76.2z"/>
			<path class="st6" d="M941.3,78c-2.9,0-5.3,0-6.5-0.6c-1.8-0.6-3.5-1.8-5.3-2.9l-0.6-0.6v-0.6c0-3.5,0.6-7.7,0.6-13v-1.2h28.9v0.6
				c0,1.2,0.6,1.8,1.2,2.9c0.6,0.6,1.2,1.8,1.2,13v1.2h-1.2c-1.8,0-5.3,0-8.2,0C947.2,78,943.7,78,941.3,78z M930.7,72.7
				c1.2,1.2,2.9,1.8,4.1,2.4c1.8,0.6,10,0.6,15.9,0c2.9,0,5.3,0,7.7,0c0-8.8-0.6-10.6-1.2-11.2c-0.6-1.2-0.6-1.8-1.2-2.9h-25.3
				C931.3,66.2,931.3,69.7,930.7,72.7z"/>
		</g>
		<g>
			<path class="st10" d="M932.5,29.6c-0.6,10.6-1.2,21.8-1.8,31.2c0,5.3-0.6,9.4-0.6,13c-4.7-2.9-11.2-7.7-14.1-8.2
				c0.6-6.5,1.2-20.6,2.4-34.8L932.5,29.6z"/>
			<path class="st6" d="M930.7,75l-1.2-1.2c-1.2-0.6-2.4-1.2-3.5-2.4c-4.1-2.4-8.2-5.3-10.6-5.9h-0.6V65c0.6-6.5,1.2-20,2.4-34.8
				v-0.6l15.9-0.6v1.2c-0.6,8.8-1.2,18.9-1.8,31.2c0,5.3-0.6,9.4-0.6,13L930.7,75z M917.2,64.4c2.4,1.2,6.5,3.5,10,5.9
				c0.6,0.6,1.2,0.6,1.8,1.2c0-2.9,0.6-7.1,0.6-11.2c0.6-11.8,1.2-21.8,1.8-30L919,30.8C918.4,45,917.2,57.9,917.2,64.4z"/>
		</g>
		<g>
			<path class="st10" d="M960.8,16.1c-2.4,6.5-1.8,21.2-1.8,30c0,4.1,0,6.5-0.6,7.1c-1.2,1.2-1.8,4.1-1.2,7.1h-27.1
				c0.6-8.8,1.2-20.6,1.8-31.2c0.6-5.9,0.6-11.2,1.2-15.9c4.7,0,17.1,0,20-1.2c2.4-0.6,5.9-1.8,8.2-2.4
				C962,12.6,961.4,14.3,960.8,16.1z"/>
			<path class="st6" d="M959,61.5h-28.9v-1.2c0.6-12.4,1.2-22.4,1.8-31.2c0.6-5.9,0.6-11.2,1.2-15.9V12h2.4c5.3,0,15.9,0,18.9-0.6
				c2.4-0.6,5.3-1.8,8.2-2.4l1.2-0.6v1.2c0,1.8-0.6,4.1-1.2,5.9l0,0c-1.8,5.3-1.8,15.9-1.8,24.7c0,1.8,0,3.5,0,5.3
				c0,5.9-0.6,7.1-1.2,7.7c-0.6,0.6-1.2,3.5-0.6,5.9L959,61.5z M931.9,59.7h24.7c0-2.4,0-5.3,1.8-6.5c0,0,0.6-1.8,0.6-6.5
				c0-1.8,0-3.5,0-5.3c0-8.8,0-19.4,1.8-25.3c0.6-1.2,0.6-2.9,1.2-4.1c-2.4,0.6-5.3,1.2-7.1,1.8c-2.9,1.2-11.2,1.2-19.4,1.2h-0.6
				c-0.6,4.7-0.6,10-1.2,14.7C933.1,37.9,932.5,47.9,931.9,59.7z"/>
		</g>
	</g>
</g>
</svg>
