<svg id="Layer_1" data-name="Layer 1" xmlns="http://www.w3.org/2000/svg" xmlns:xlink="http://www.w3.org/1999/xlink" viewBox="0 0 648 174.75"><defs><style>.cls-1{fill:none;}.cls-2{fill:#ed2f38;}.cls-3{clip-path:url(#clip-path);}.cls-4{fill:#fff;}</style><clipPath id="clip-path"><rect class="cls-1" y="67" width="297.18" height="107.43"/></clipPath></defs><rect class="cls-2" y="0.22" width="297.18" height="59.52"/><g class="cls-3"><path class="cls-2" d="M185.29,299.1c16-26.57,17.38-72.52,3-98.33-8.6-15.48-25.62-34.84-74-24.45-12.15,2.61-30.07,11.18-40.57,26.75C41.06,251.58,52.2,308.31,52.32,308.88a1.93,1.93,0,0,0,2.25,1.39,1.76,1.76,0,0,0,1.56-2c-.12-.55-11-56,20.95-103.39,9.25-13.71,25.83-22.52,38.17-25.17,45.67-9.81,61.6,8.21,69.61,22.62,13.87,25,12.47,69.42-3,95.15-7.47,12.43-17.74,19.69-29.7,21-30.56,3.32-44.48-32.26-46.29-41.24-6-29.91,1-46.6,4.26-52.38,5.8-10.23,17.78-15.38,25.58-14.31,12.29,1.71,26.59,15.86,28.28,34.2,2.24,24.35-2.58,32.82-7,35.65-3.2,2.05-7.51,2-12.78-.09-13.32-5.32-17.64-37.51-14-50.46a9,9,0,0,1,5.9-6.35c2.27-.6,4.73.16,7.11,2.17,7.69,6.54,14.37,27.47,12.11,38-.21.84-2.5,3.53-4.41,3.53-5.68,0-10.69-19.42-12.3-32.55a1.91,1.91,0,0,0-2.13-1.54,1.79,1.79,0,0,0-1.71,1.92c.72,5.95,4.91,35.64,16.14,35.64,4.26,0,7.79-4.41,8.2-6.34,2.29-10.56-4-33.26-13.24-41.13-3.39-2.88-7.24-3.94-10.86-3a12.57,12.57,0,0,0-8.56,8.84c-3.59,12.89-.11,48,16.21,54.47,6.51,2.6,12.25,2.52,16.59-.25,7.65-4.87,10.56-17.91,8.64-38.77C166,223.81,150,209,136.32,207.09c-9.34-1.29-22.95,4.4-29.62,16.16-3.45,6.1-10.83,23.63-4.61,54.57,2.9,14.46,18.4,44.31,46.22,44.31a40.42,40.42,0,0,0,4.34-.24C165.91,320.46,177.2,312.57,185.29,299.1Z"/><path class="cls-2" d="M90.75,178c15-7.23,37.29-14.08,54.88-11.58,28.71,4.07,37,14.18,37.05,14.27a2.08,2.08,0,0,0,2.69.45,1.64,1.64,0,0,0,.5-2.42c-.36-.46-9.06-11.39-39.64-15.73-23.32-3.31-49.76,8.31-57.31,12-64.78,31.24-70.44,97.43-70.49,98.09a1.81,1.81,0,0,0,1.8,1.85h.13a1.86,1.86,0,0,0,1.93-1.62C22.34,272.66,27.9,208.35,90.75,178Z"/><path class="cls-2" d="M136.51,150.78a1.81,1.81,0,0,0-1.77,1.87,1.88,1.88,0,0,0,2.09,1.59c2.34-.17,57.66-3.4,82.9,59.39,14.77,36.73,6,84.4,5.87,84.88a1.76,1.76,0,0,0,1.58,2l.33,0a1.89,1.89,0,0,0,1.9-1.45c.09-.48,9.08-49-6-86.64C197.09,147.07,137.1,150.75,136.51,150.78Z"/><path class="cls-2" d="M127.08,154.17a1.79,1.79,0,0,0,1.74-1.89,1.88,1.88,0,0,0-2.11-1.56c-.74.06-73.89,7.19-117.1,87.22a1.66,1.66,0,0,0,.9,2.31,2.08,2.08,0,0,0,.84.18,2,2,0,0,0,1.75-1C55.31,161.26,126.36,154.24,127.08,154.17Z"/><path class="cls-2" d="M178.8,149.91c-27.38-11.85-53.28-11.72-58.3-9a1.64,1.64,0,0,0-.68,2.38,2.07,2.07,0,0,0,2.65.61c3.86-2,28.65-2.07,54.65,9.18,24.69,10.69,55.73,33.89,63.39,83.71,3,19.63-1,53.23-1,53.57a1.78,1.78,0,0,0,1.71,1.91h.21a1.87,1.87,0,0,0,1.92-1.55c.17-1.39,4.11-34.36,1-54.42C236.45,184.93,204.34,161,178.8,149.91Z"/><path class="cls-2" d="M110.31,145.83a1.68,1.68,0,0,0,1.16-2.22,2,2,0,0,0-2.48-1C22.65,170.68,3.85,218,3.09,220a1.7,1.7,0,0,0,1.21,2.2,2.16,2.16,0,0,0,.62.09,1.92,1.92,0,0,0,1.83-1.17C6.93,220.66,25.86,173.33,110.31,145.83Z"/><path class="cls-2" d="M5,194.59l4.93-4.34C30.06,172.45,46,158.4,88.07,144a1.68,1.68,0,0,0,1.12-2.23,2,2,0,0,0-2.49-1c-42.86,14.62-59,28.9-79.5,47l-4.92,4.33a1.61,1.61,0,0,0,0,2.45,2,2,0,0,0,1.39.52A2.06,2.06,0,0,0,5,194.59Z"/><path class="cls-2" d="M149.42,129.47C71.53,116.81-1.06,175.32-1.79,175.92a1.61,1.61,0,0,0-.12,2.45,2.09,2.09,0,0,0,2.73.11c.71-.58,72-57.94,147.93-45.59,45.15,7.34,83.13,37.56,112.91,89.8a2,2,0,0,0,1.72.95,2.08,2.08,0,0,0,.88-.19,1.66,1.66,0,0,0,.84-2.34C234.75,167.85,195.83,137,149.42,129.47Z"/><path class="cls-2" d="M-.91,161.22c.45-.4,45.27-40.44,118.8-40.44a1.74,1.74,0,1,0,0-3.47c-75.21,0-121.1,41.06-121.55,41.48a1.61,1.61,0,0,0,0,2.45,2.06,2.06,0,0,0,1.36.5A2,2,0,0,0-.91,161.22Z"/><path class="cls-2" d="M137.59,116.39h0a1.74,1.74,0,1,0,0,3.47c.81,0,81.39,2,129.66,89.72a2,2,0,0,0,1.73,1,2.16,2.16,0,0,0,.86-.17,1.67,1.67,0,0,0,.88-2.33C221.31,118.36,138.43,116.4,137.59,116.39Z"/><path class="cls-2" d="M103.09,106.82a1.84,1.84,0,0,0-1.93-1.74C37.33,105.08-9,142.54-9.51,142.92a1.61,1.61,0,0,0-.12,2.45,2,2,0,0,0,1.43.56,2.07,2.07,0,0,0,1.3-.45c.45-.37,45.78-36.93,108.06-36.93A1.83,1.83,0,0,0,103.09,106.82Z"/><path class="cls-2" d="M179,114.53c-36.87-11.75-67.78-10.84-68.09-10.83a1.75,1.75,0,1,0,.15,3.47c.3,0,30.47-.9,66.65,10.63,33.36,10.62,78.74,34.28,105.47,86.65a2,2,0,0,0,1.76,1,2,2,0,0,0,.8-.16,1.67,1.67,0,0,0,1-2.3C259.36,149.54,213,125.38,179,114.53Z"/><path class="cls-2" d="M-8.53,130.4c.83-.6,84.84-59.9,192.46-22a2,2,0,0,0,2.51-1,1.68,1.68,0,0,0-1.1-2.25,224.74,224.74,0,0,0-139.75-3.45c-34.78,10.38-56.34,25.79-56.55,26a1.62,1.62,0,0,0-.29,2.44,2,2,0,0,0,1.51.64A2.07,2.07,0,0,0-8.53,130.4Z"/><path class="cls-2" d="M132.4,85.47a1.88,1.88,0,0,0,2.08-1.59A1.81,1.81,0,0,0,132.71,82C34.93,74.89-13.63,111.82-14.1,112.2a1.61,1.61,0,0,0-.19,2.45,2,2,0,0,0,1.46.59,2.1,2.1,0,0,0,1.27-.42C-11.1,114.45,36.37,78.46,132.4,85.47Z"/><path class="cls-2" d="M198.67,109.89a2,2,0,0,0-2.54.91,1.68,1.68,0,0,0,1,2.28c.8.3,79.69,31.14,98.76,85.86a1.9,1.9,0,0,0,1.84,1.22,2.32,2.32,0,0,0,.58-.08,1.7,1.7,0,0,0,1.27-2.17C280,141.65,199.48,110.2,198.67,109.89Z"/><path class="cls-2" d="M144.51,81a1.93,1.93,0,0,0-2.28,1.36,1.75,1.75,0,0,0,1.52,2c50.4,9,118.18,40.9,156,91.69a2,2,0,0,0,1.62.78,2.09,2.09,0,0,0,1.07-.3,1.62,1.62,0,0,0,.53-2.4C264.53,122.58,195.69,90.21,144.51,81Z"/><path class="cls-2" d="M-11.42,95.63a2,2,0,0,0,1.68.87,2.19,2.19,0,0,0,1-.23C-8.21,96,49.28,66.92,131.38,75a1.89,1.89,0,0,0,2.13-1.53,1.79,1.79,0,0,0-1.71-1.92C48.44,63.35-10.13,93-10.71,93.26A1.63,1.63,0,0,0-11.42,95.63Z"/><path class="cls-2" d="M206.14,72.39a1.69,1.69,0,0,0-1.07-2.26C140.47,46.61,84.42,50,48.78,57c-38.66,7.58-62.42,21-62.65,21.09a1.63,1.63,0,0,0-.6,2.39,2,2,0,0,0,1.64.81,2.11,2.11,0,0,0,1-.27c.93-.53,93.66-52,215.42-7.65A2,2,0,0,0,206.14,72.39Z"/><path class="cls-2" d="M181,75.47C141.51,63,111.24,62.86,110.94,62.86a1.75,1.75,0,1,0,0,3.47c1.18,0,119,1.13,196.55,99.41a2,2,0,0,0,1.59.73,2,2,0,0,0,1.11-.32,1.62,1.62,0,0,0,.46-2.42C269.55,111.63,217.48,87,181,75.47Z"/><path class="cls-2" d="M215,74.62a2.07,2.07,0,0,0-2.64.65,1.65,1.65,0,0,0,.73,2.37c32.21,16.47,51.23,27.27,98.71,74.64a2.09,2.09,0,0,0,2.74.13,1.61,1.61,0,0,0,.14-2.45C266.75,102.19,247.52,91.28,215,74.62Z"/><path class="cls-2" d="M243.63,81.82a2.08,2.08,0,0,0,1.1.31,2,2,0,0,0,1.6-.75,1.63,1.63,0,0,0-.5-2.41c-62-38.39-130.25-41.18-176.56-36.77C19.15,47-16.86,61-17.22,61.16a1.67,1.67,0,0,0-1,2.28,2,2,0,0,0,2.55.89c.36-.14,35.91-14,85.46-18.69C115.43,41.3,182.62,44.07,243.63,81.82Z"/><path class="cls-2" d="M311.7,135.84a2,2,0,0,0,1.49.63,2.08,2.08,0,0,0,1.24-.4,1.61,1.61,0,0,0,.25-2.44c-18.44-20-56.49-47-56.87-47.33a2.1,2.1,0,0,0-2.72.29,1.62,1.62,0,0,0,.32,2.44C255.79,89.3,293.52,116.14,311.7,135.84Z"/><path class="cls-2" d="M-12.83,47.86a2.12,2.12,0,0,0,.88-.19c.75-.34,77.05-34.29,200.11-5.4A2,2,0,0,0,190.52,41a1.73,1.73,0,0,0-1.38-2.12C64.56,9.67-12.95,44.23-13.72,44.58a1.67,1.67,0,0,0-.84,2.34A2,2,0,0,0-12.83,47.86Z"/><path class="cls-2" d="M196.67,40.69a2,2,0,0,0-2.45,1.08,1.69,1.69,0,0,0,1.2,2.2c.62.19,62.41,19.64,121.46,80.37a2,2,0,0,0,1.46.6,2.11,2.11,0,0,0,1.27-.43,1.62,1.62,0,0,0,.19-2.45C260,60.58,197.3,40.88,196.67,40.69Z"/><path class="cls-2" d="M-2.28,30.73a2,2,0,0,0,.89-.2c.62-.28,62.92-28.43,175.1-1.81a2,2,0,0,0,2.36-1.23,1.72,1.72,0,0,0-1.37-2.12C60.94-1.63-2.55,27.16-3.18,27.46A1.65,1.65,0,0,0-4,29.8,2,2,0,0,0-2.28,30.73Z"/><path class="cls-2" d="M243.66,45.43C195.65,17.65,116.31-11.92,11,5A1.76,1.76,0,0,0,9.45,7a1.93,1.93,0,0,0,2.24,1.4C115.69-8.31,194,20.87,241.43,48.27,292.87,78,320,112.14,320.31,112.48a2,2,0,0,0,1.58.74,2,2,0,0,0,1.12-.32,1.61,1.61,0,0,0,.46-2.41C323.2,110.14,295.68,75.53,243.66,45.43Z"/><path class="cls-2" d="M18.78-3.95c.54-.19,55-18.44,164.7,10.43a2,2,0,0,0,.54.07,1.92,1.92,0,0,0,1.86-1.25,1.72,1.72,0,0,0-1.31-2.15C73.43-26.1,19.61-8,17.37-7.18a1.67,1.67,0,0,0-1.1,2.24A2,2,0,0,0,18.78-3.95Z"/><path class="cls-2" d="M331.82,99.71C276.3,39.38,194.18,7.57,193.36,7.25a2,2,0,0,0-2.54.92,1.67,1.67,0,0,0,1,2.27c.82.32,82.09,31.82,137,91.48a2,2,0,0,0,1.49.63,2.1,2.1,0,0,0,1.23-.4A1.61,1.61,0,0,0,331.82,99.71Z"/><path class="cls-2" d="M20.56-20.2c1.09-.25,109.89-24.95,231.08,44.78a2.06,2.06,0,0,0,1,.28,2,2,0,0,0,1.64-.8,1.64,1.64,0,0,0-.59-2.4C131.13-48.89,20.67-23.81,19.57-23.55a1.72,1.72,0,0,0-1.37,2.12A2,2,0,0,0,20.56-20.2Z"/><path class="cls-2" d="M262.49,26.9a2.09,2.09,0,0,0-2.7.41,1.62,1.62,0,0,0,.46,2.42C260.64,30,299,54.35,327,80.29a2,2,0,0,0,1.39.52,2.06,2.06,0,0,0,1.34-.48,1.62,1.62,0,0,0,.05-2.46C301.51,51.7,262.87,27.14,262.49,26.9Z"/><path class="cls-2" d="M325.34,60.41a2,2,0,0,0,1.47.61,2,2,0,0,0,1.25-.42,1.61,1.61,0,0,0,.22-2.44C277.06,4.42,179.42-25.77,178.44-26.07A2,2,0,0,0,176-25a1.69,1.69,0,0,0,1.2,2.2C178.17-22.49,274.82,7.41,325.34,60.41Z"/><path class="cls-2" d="M55.4-53.46c156.13,4.77,269,90,270.15,90.87a2.09,2.09,0,0,0,2.73-.19,1.61,1.61,0,0,0-.21-2.44c-1.14-.87-115-86.89-272.54-91.7a1.9,1.9,0,0,0-2,1.67A1.82,1.82,0,0,0,55.4-53.46Z"/><path class="cls-2" d="M61.32-68.43c141.9,6.19,261.18,87.77,262.37,88.59a2.1,2.1,0,0,0,1.18.36,2,2,0,0,0,1.54-.67,1.63,1.63,0,0,0-.35-2.44c-1.2-.83-121.41-83.06-264.55-89.31a1.86,1.86,0,0,0-2,1.65A1.82,1.82,0,0,0,61.32-68.43Z"/><path class="cls-2" d="M67.5-82.49C69-82.36,219-68.79,323.63,9.61a2,2,0,0,0,1.24.41,2,2,0,0,0,1.49-.62A1.62,1.62,0,0,0,326.12,7C220.59-72.14,69.38-85.81,67.87-85.94a1.86,1.86,0,0,0-2.11,1.56A1.79,1.79,0,0,0,67.5-82.49Z"/></g><path class="cls-4" d="M318.91,21.91A15.53,15.53,0,0,1,324.86,16a16.87,16.87,0,0,1,8.45-2.13,16.66,16.66,0,0,1,9.6,2.81,14.7,14.7,0,0,1,5.76,7.78h-7.54A7.78,7.78,0,0,0,338,20.9a9.3,9.3,0,0,0-4.71-1.17,9.68,9.68,0,0,0-5.08,1.34,9,9,0,0,0-3.46,3.77,12.39,12.39,0,0,0-1.24,5.71,12.45,12.45,0,0,0,1.24,5.69A9,9,0,0,0,328.18,40a9.68,9.68,0,0,0,5.08,1.34,9.12,9.12,0,0,0,4.71-1.2,7.91,7.91,0,0,0,3.16-3.53h7.54a14.63,14.63,0,0,1-5.74,7.8,17.94,17.94,0,0,1-18.07.65,15.52,15.52,0,0,1-5.95-5.92,17,17,0,0,1-2.18-8.62A17.14,17.14,0,0,1,318.91,21.91Z"/><path class="cls-4" d="M371.15,46.94,363.94,34.2h-3.1V46.94h-6.55V14.25h12.27A14.31,14.31,0,0,1,373,15.59a9.33,9.33,0,0,1,4,3.6,10.16,10.16,0,0,1-.53,10.92,9.66,9.66,0,0,1-5.58,3.58l7.82,13.25ZM360.84,29.29h5.48a5.46,5.46,0,0,0,4-1.29,4.77,4.77,0,0,0,1.32-3.58,4.55,4.55,0,0,0-1.32-3.49,5.58,5.58,0,0,0-4-1.24h-5.48Z"/><path class="cls-4" d="M390.86,14.25V46.94h-6.55V14.25Z"/><path class="cls-4" d="M433,14.25V46.94h-6.55V25.68l-8.76,21.26h-5l-8.8-21.26V46.94h-6.56V14.25h7.45l10.4,24.31,10.39-24.31Z"/><path class="cls-4" d="M446,19.55v8.19h11v5.2H446V41.6h12.41v5.34h-19V14.21h19v5.34Z"/><path class="cls-4" d="M496,16.27A14.34,14.34,0,0,1,502,22a17.13,17.13,0,0,1,2.13,8.64,16.85,16.85,0,0,1-2.13,8.6,14.5,14.5,0,0,1-6,5.69,19.57,19.57,0,0,1-9.06,2H475.48V14.25h11.43A19.57,19.57,0,0,1,496,16.27Zm-1.33,22.29c1.87-1.88,2.81-4.51,2.81-7.92s-.94-6.06-2.81-8-4.53-2.88-8-2.88H482V41.37h4.63C490.11,41.37,492.76,40.43,494.64,38.56Z"/><path class="cls-4" d="M529.1,40.71h-13l-2.15,6.23H507L518.8,14.21h7.63l11.76,32.73h-6.93Zm-1.78-5.24-4.73-13.68-4.73,13.68Z"/><path class="cls-4" d="M564.83,14.25v5.3h-8.71V46.94h-6.55V19.55h-8.71v-5.3Z"/><path class="cls-4" d="M589.65,40.71h-13l-2.15,6.23h-6.89l11.76-32.73H587l11.76,32.73h-6.93Zm-1.78-5.24-4.73-13.68-4.73,13.68Z"/><path class="cls-4" d="M354,70.45v32.69h-6.55V81.88l-8.76,21.26h-5l-8.8-21.26v21.26h-6.56V70.45h7.45l10.4,24.3,10.39-24.3Z"/><path class="cls-4" d="M380.47,96.91h-13l-2.16,6.23h-6.88L370.16,70.4h7.64l11.75,32.74h-6.93Zm-1.78-5.25L374,78l-4.73,13.67Z"/><path class="cls-4" d="M421.91,103.14h-6.56L400.51,80.7v22.44H394V70.4h6.56l14.84,22.48V70.4h6.56Z"/><path class="cls-4" d="M448.42,96.91h-13l-2.16,6.23h-6.88L438.11,70.4h7.64l11.75,32.74h-6.93Zm-1.78-5.25L441.91,78l-4.73,13.67Z"/><path class="cls-4" d="M484.66,80.28a7.64,7.64,0,0,0-3.09-3.13A9.38,9.38,0,0,0,477,76.07a10.06,10.06,0,0,0-5.15,1.31,9,9,0,0,0-3.51,3.75,13.18,13.18,0,0,0,0,11.33,9.18,9.18,0,0,0,3.58,3.75,10.62,10.62,0,0,0,5.34,1.31,9.32,9.32,0,0,0,6.14-2A9.52,9.52,0,0,0,486.53,90H475.29V85H493v5.71A15.43,15.43,0,0,1,490.19,97a15.88,15.88,0,0,1-5.55,4.66,16.35,16.35,0,0,1-7.61,1.76,17.22,17.22,0,0,1-8.55-2.13,15.51,15.51,0,0,1-6-5.93,18.15,18.15,0,0,1,0-17.25,15.43,15.43,0,0,1,6-6,18.26,18.26,0,0,1,18.1.56,13.77,13.77,0,0,1,5.62,7.56Z"/><path class="cls-4" d="M504.42,75.74v8.2h11v5.19h-11V97.8h12.41v5.34h-19V70.4h19v5.34Z"/><path class="cls-4" d="M558.42,70.45v32.69h-6.56V81.88l-8.76,21.26h-5l-8.81-21.26v21.26h-6.55V70.45h7.44l10.4,24.3L551,70.45Z"/><path class="cls-4" d="M571.43,75.74v8.2h11v5.19h-11V97.8h12.41v5.34h-19V70.4h19v5.34Z"/><path class="cls-4" d="M617.75,103.14h-6.56L596.35,80.7v22.44h-6.56V70.4h6.56l14.84,22.48V70.4h6.56Z"/><path class="cls-4" d="M646.45,70.45v5.29h-8.71v27.4h-6.55V75.74h-8.71V70.45Z"/><path class="cls-4" d="M323.45,158.49a10.18,10.18,0,0,1-4.33-3.37,8.89,8.89,0,0,1-1.64-5.2h7a4.51,4.51,0,0,0,1.42,3.18,5.07,5.07,0,0,0,3.54,1.17,5.43,5.43,0,0,0,3.61-1.1,3.58,3.58,0,0,0,1.31-2.88,3.37,3.37,0,0,0-.89-2.39,6.38,6.38,0,0,0-2.23-1.47,34.87,34.87,0,0,0-3.67-1.19,41.47,41.47,0,0,1-5.18-1.85,9.07,9.07,0,0,1-3.42-2.77,7.88,7.88,0,0,1-1.43-4.94,8.85,8.85,0,0,1,1.46-5.06,9.24,9.24,0,0,1,4.07-3.3,14.92,14.92,0,0,1,6-1.14,13,13,0,0,1,8.22,2.45,9.12,9.12,0,0,1,3.49,6.86h-7.21a3.73,3.73,0,0,0-1.43-2.78,5.4,5.4,0,0,0-3.53-1.1,4.58,4.58,0,0,0-3.07,1,3.55,3.55,0,0,0-1.15,2.86,3,3,0,0,0,.87,2.18,6.73,6.73,0,0,0,2.15,1.4c.86.36,2.07.77,3.63,1.24a39.64,39.64,0,0,1,5.2,1.87,9.42,9.42,0,0,1,3.46,2.81,7.8,7.8,0,0,1,1.46,4.92,9.3,9.3,0,0,1-1.36,4.87,9.59,9.59,0,0,1-4,3.58,13.6,13.6,0,0,1-6.23,1.34A15.55,15.55,0,0,1,323.45,158.49Z"/><path class="cls-4" d="M372.83,126.64,361.78,148v11.38h-6.56V148l-11.09-21.31h7.4l7,14.94,7-14.94Z"/><path class="cls-4" d="M381.75,158.49a10.18,10.18,0,0,1-4.33-3.37,8.89,8.89,0,0,1-1.64-5.2h7a4.52,4.52,0,0,0,1.43,3.18,5,5,0,0,0,3.53,1.17,5.43,5.43,0,0,0,3.61-1.1,3.58,3.58,0,0,0,1.31-2.88,3.37,3.37,0,0,0-.89-2.39,6.29,6.29,0,0,0-2.23-1.47,34.87,34.87,0,0,0-3.67-1.19,41.47,41.47,0,0,1-5.18-1.85,9.15,9.15,0,0,1-3.42-2.77,7.88,7.88,0,0,1-1.42-4.94,8.84,8.84,0,0,1,1.45-5.06,9.3,9.3,0,0,1,4.07-3.3,14.93,14.93,0,0,1,6-1.14,13.07,13.07,0,0,1,8.22,2.45,9.14,9.14,0,0,1,3.48,6.86h-7.21a3.73,3.73,0,0,0-1.43-2.78,5.38,5.38,0,0,0-3.53-1.1,4.6,4.6,0,0,0-3.07,1,3.58,3.58,0,0,0-1.15,2.86,3,3,0,0,0,.87,2.18,6.84,6.84,0,0,0,2.15,1.4c.86.36,2.07.77,3.63,1.24a39.11,39.11,0,0,1,5.2,1.87A9.53,9.53,0,0,1,398,145a7.86,7.86,0,0,1,1.45,4.92,9.21,9.21,0,0,1-1.36,4.87,9.59,9.59,0,0,1-4,3.58,13.57,13.57,0,0,1-6.23,1.34A15.55,15.55,0,0,1,381.75,158.49Z"/><path class="cls-4" d="M427.39,126.64v5.3h-8.71v27.39h-6.56V131.94h-8.71v-5.3Z"/><path class="cls-4" d="M438.72,131.94v8.19h11v5.2h-11V154h12.41v5.34h-19V126.6h19v5.34Z"/><path class="cls-4" d="M492.71,126.64v32.69h-6.55V138.07l-8.76,21.26h-5l-8.81-21.26v21.26h-6.55V126.64h7.44L474.92,151l10.4-24.31Z"/><path class="cls-4" d="M34.81,17.61A13.51,13.51,0,0,1,40.48,23a16.05,16.05,0,0,1,2,8.1,15.82,15.82,0,0,1-2,8.06,13.64,13.64,0,0,1-5.67,5.33,18.25,18.25,0,0,1-8.49,1.89H15.61V15.72H26.32A18.25,18.25,0,0,1,34.81,17.61Zm-1.25,20.9q2.64-2.64,2.64-7.42a10.26,10.26,0,0,0-2.64-7.49q-2.63-2.7-7.46-2.7H21.75V41.14H26.1C29.32,41.14,31.81,40.27,33.56,38.51Z"/><path class="cls-4" d="M53.14,15.72v19a6.45,6.45,0,0,0,1.63,4.76,6.1,6.1,0,0,0,4.56,1.65,6.17,6.17,0,0,0,4.61-1.65,6.49,6.49,0,0,0,1.63-4.76v-19h6.19V34.65a12.26,12.26,0,0,1-1.69,6.6,10.7,10.7,0,0,1-4.53,4.06,14.27,14.27,0,0,1-6.3,1.37A13.94,13.94,0,0,1,53,45.31a10.28,10.28,0,0,1-4.41-4.06A12.61,12.61,0,0,1,47,34.65V15.72Z"/><path class="cls-4" d="M111.09,15.72V46.37H105V26.44L96.74,46.37H92.08L83.83,26.44V46.37H77.68V15.72h7l9.75,22.79,9.75-22.79Z"/><path class="cls-4" d="M135.94,40.53h-12.2l-2,5.84h-6.46l11-30.69h7.16l11,30.69H138Zm-1.67-4.92-4.43-12.82L125.4,35.61Z"/><path class="cls-4" d="M169.92,24.94A7.27,7.27,0,0,0,167,22a8.84,8.84,0,0,0-4.3-1,9.43,9.43,0,0,0-4.83,1.23,8.52,8.52,0,0,0-3.29,3.51A11.31,11.31,0,0,0,153.41,31a11.36,11.36,0,0,0,1.21,5.36A8.62,8.62,0,0,0,158,39.87a9.88,9.88,0,0,0,5,1.23,8.67,8.67,0,0,0,5.76-1.87,8.89,8.89,0,0,0,2.94-5.2H161.14v-4.7h16.6v5.36a14.39,14.39,0,0,1-2.64,5.93A14.9,14.9,0,0,1,169.9,45a15.38,15.38,0,0,1-7.13,1.64,16.1,16.1,0,0,1-8-2,14.55,14.55,0,0,1-5.62-5.55,15.93,15.93,0,0,1-2-8.08,16.09,16.09,0,0,1,2-8.1,14.53,14.53,0,0,1,5.62-5.57,17.12,17.12,0,0,1,17,.52A12.93,12.93,0,0,1,177,24.94Z"/><path class="cls-4" d="M188.36,15.72v19A6.49,6.49,0,0,0,190,39.45a7.21,7.21,0,0,0,9.18,0,6.49,6.49,0,0,0,1.62-4.76v-19H207V34.65a12.18,12.18,0,0,1-1.7,6.6,10.61,10.61,0,0,1-4.52,4.06,14.3,14.3,0,0,1-6.3,1.37,13.94,13.94,0,0,1-6.21-1.37,10.28,10.28,0,0,1-4.41-4.06,12.61,12.61,0,0,1-1.63-6.6V15.72Z"/><path class="cls-4" d="M219.05,20.69v7.68h10.31v4.87H219.05v8.12h11.63v5H212.9V15.68h17.78v5Z"/><path class="cls-4" d="M257.11,15.72v5H249V46.37H242.8V20.69h-8.17v-5Z"/><path class="cls-4" d="M267.74,20.69v7.68h10.31v4.87H267.74v8.12h11.63v5H261.59V15.68h17.78v5Z"/></svg>