<?xml version="1.0" encoding="utf-8"?>
<!-- Generator: Adobe Illustrator 26.3.1, SVG Export Plug-In . SVG Version: 6.00 Build 0)  -->
<svg version="1.1" id="Layer_1" xmlns="http://www.w3.org/2000/svg" xmlns:xlink="http://www.w3.org/1999/xlink" x="0px" y="0px"
	 viewBox="0 0 648 174.8" style="enable-background:new 0 0 648 174.8;" xml:space="preserve">
<style type="text/css">
	.st0{fill:#ED3030;}
	.st1{fill:#FFFFFF;}
	.st2{clip-path:url(#SVGID_00000115516864307049017660000001828139150784650405_);}
	.st3{fill:#0F3465;}
</style>
<rect y="0.2" class="st0" width="297.2" height="59.5"/>
<path class="st1" d="M318.9,21.9c1.4-2.5,3.5-4.5,5.9-5.9c2.6-1.4,5.5-2.2,8.5-2.1c3.4-0.1,6.8,0.9,9.6,2.8c2.7,1.9,4.8,4.6,5.8,7.8
	h-7.5c-0.6-1.5-1.7-2.7-3.1-3.6c-1.4-0.8-3.1-1.2-4.7-1.2c-1.8,0-3.5,0.4-5.1,1.3c-1.5,0.9-2.7,2.2-3.5,3.8
	c-0.9,1.8-1.3,3.7-1.2,5.7c0,2,0.4,3.9,1.2,5.7c0.8,1.6,1.9,2.9,3.4,3.8c1.5,0.9,3.3,1.4,5.1,1.3c1.6,0,3.3-0.4,4.7-1.2
	c1.4-0.8,2.5-2.1,3.2-3.5h7.5c-1,3.2-3,5.9-5.7,7.8c-5.5,3.5-12.4,3.7-18.1,0.7c-2.5-1.4-4.5-3.4-6-5.9c-1.5-2.6-2.2-5.6-2.2-8.6
	C316.7,27.5,317.4,24.5,318.9,21.9z"/>
<path class="st1" d="M371.1,46.9l-7.2-12.7h-3.1v12.7h-6.5V14.2h12.3c2.2-0.1,4.4,0.4,6.4,1.3c1.7,0.8,3,2,4,3.6
	c2,3.4,1.8,7.7-0.5,10.9c-1.4,1.8-3.4,3.1-5.6,3.6l7.8,13.2L371.1,46.9z M360.8,29.3h5.5c1.5,0.1,2.9-0.3,4-1.3
	c0.9-1,1.4-2.3,1.3-3.6c0.1-1.3-0.4-2.6-1.3-3.5c-1.1-0.9-2.6-1.4-4-1.2h-5.5V29.3z"/>
<path class="st1" d="M390.9,14.2v32.7h-6.5V14.2H390.9z"/>
<path class="st1" d="M433,14.2v32.7h-6.5V25.7L417.7,47h-5l-8.8-21.3V47h-6.6V14.2h7.5l10.4,24.3l10.4-24.3L433,14.2z"/>
<path class="st1" d="M446,19.5v8.2h11v5.2h-11v8.7h12.4v5.3h-19V14.2h19v5.3H446z"/>
<path class="st1" d="M496,16.3c2.5,1.3,4.6,3.3,6,5.7c1.5,2.6,2.2,5.6,2.1,8.6c0.1,3-0.7,6-2.1,8.6c-1.4,2.4-3.5,4.4-6,5.7
	c-2.8,1.4-5.9,2.1-9.1,2h-11.5V14.2h11.4C490.1,14.2,493.2,14.9,496,16.3z M494.7,38.6c1.9-1.9,2.8-4.5,2.8-7.9s-0.9-6.1-2.8-8
	s-4.5-2.9-8-2.9H482v21.6h4.6C490.1,41.4,492.8,40.4,494.7,38.6L494.7,38.6z"/>
<path class="st1" d="M529.1,40.7h-13l-2.2,6.2H507l11.8-32.7h7.6l11.8,32.7h-6.9L529.1,40.7z M527.3,35.5l-4.7-13.7l-4.7,13.7H527.3
	z"/>
<path class="st1" d="M564.8,14.2v5.3h-8.7v27.4h-6.5V19.5h-8.7v-5.3H564.8z"/>
<path class="st1" d="M589.7,40.7h-13l-2.2,6.2h-6.9l11.8-32.7h7.6l11.8,32.7h-6.9L589.7,40.7z M587.9,35.5l-4.7-13.7l-4.7,13.7
	H587.9z"/>
<path class="st1" d="M354,70.4v32.7h-6.5V81.9l-8.8,21.3h-5l-8.8-21.3v21.3h-6.6V70.4h7.5l10.4,24.3l10.4-24.3
	C346.6,70.4,354,70.4,354,70.4z"/>
<path class="st1" d="M380.5,96.9h-13l-2.2,6.2h-6.9l11.7-32.7h7.6l11.8,32.7h-6.9L380.5,96.9z M378.7,91.7L374,78l-4.7,13.7H378.7z"
	/>
<path class="st1" d="M421.9,103.1h-6.6l-14.8-22.4v22.4H394V70.4h6.6l14.8,22.5V70.4h6.6L421.9,103.1z"/>
<path class="st1" d="M448.4,96.9h-13l-2.2,6.2h-6.9L438,70.4h7.6l11.8,32.7h-6.9L448.4,96.9z M446.6,91.7L441.9,78l-4.7,13.7H446.6z
	"/>
<path class="st1" d="M484.7,80.3c-0.7-1.3-1.8-2.4-3.1-3.1c-1.4-0.7-3-1.1-4.6-1.1c-1.8,0-3.6,0.4-5.1,1.3s-2.7,2.2-3.5,3.8
	c-1.7,3.6-1.7,7.7,0,11.3c0.8,1.6,2.1,2.9,3.6,3.8c1.6,0.9,3.5,1.3,5.3,1.3c2.2,0.1,4.4-0.6,6.1-2c1.6-1.4,2.7-3.4,3.1-5.5h-11.2v-5
	H493v5.7c-0.5,2.3-1.4,4.4-2.8,6.3c-1.5,2-3.4,3.6-5.5,4.7c-2.4,1.2-5,1.8-7.6,1.8c-3,0-5.9-0.7-8.5-2.1c-2.5-1.4-4.6-3.4-6-5.9
	c-2.9-5.4-2.9-11.9,0-17.2c1.4-2.5,3.5-4.6,6-6c5.7-3,12.6-2.8,18.1,0.6c2.7,1.8,4.7,4.5,5.6,7.6L484.7,80.3z"/>
<path class="st1" d="M504.4,75.7v8.2h11v5.2h-11v8.7h12.4v5.3h-19V70.4h19v5.3L504.4,75.7z"/>
<path class="st1" d="M558.4,70.4v32.7h-6.6V81.9l-8.8,21.3h-5l-8.8-21.3v21.3h-6.5V70.4h7.4l10.4,24.3L551,70.4H558.4z"/>
<path class="st1" d="M571.4,75.7v8.2h11v5.2h-11v8.7h12.4v5.3h-19V70.4h19v5.3L571.4,75.7z"/>
<path class="st1" d="M617.8,103.1h-6.6l-14.8-22.4v22.4h-6.6V70.4h6.6l14.8,22.5V70.4h6.6V103.1z"/>
<path class="st1" d="M646.5,70.4v5.3h-8.7v27.4h-6.5V75.7h-8.7v-5.3C622.6,70.4,646.5,70.4,646.5,70.4z"/>
<path class="st1" d="M323.5,158.5c-1.7-0.7-3.2-1.9-4.3-3.4c-1.1-1.5-1.7-3.3-1.6-5.2h7c0,1.2,0.5,2.4,1.4,3.2
	c1,0.8,2.3,1.2,3.5,1.2c1.3,0.1,2.6-0.3,3.6-1.1c0.9-0.7,1.3-1.8,1.3-2.9c0-0.9-0.3-1.7-0.9-2.4c-0.6-0.6-1.4-1.1-2.2-1.5
	c-1.2-0.5-2.4-0.9-3.7-1.2c-1.8-0.5-3.5-1.1-5.2-1.9c-1.4-0.6-2.5-1.6-3.4-2.8c-1-1.4-1.5-3.2-1.4-4.9c0-1.8,0.5-3.6,1.5-5.1
	s2.4-2.6,4.1-3.3c1.9-0.8,3.9-1.2,6-1.1c2.9-0.1,5.8,0.7,8.2,2.4c2.1,1.7,3.4,4.2,3.5,6.9h-7.2c0-1.1-0.6-2.1-1.4-2.8
	c-1-0.8-2.3-1.2-3.5-1.1c-1.1-0.1-2.2,0.3-3.1,1c-0.8,0.7-1.2,1.8-1.1,2.9c0,0.8,0.3,1.6,0.9,2.2c0.6,0.6,1.4,1.1,2.1,1.4
	c0.9,0.4,2.1,0.8,3.6,1.2c1.8,0.5,3.5,1.1,5.2,1.9c1.4,0.6,2.5,1.6,3.5,2.8c1,1.4,1.5,3.2,1.5,4.9s-0.5,3.4-1.4,4.9
	c-1,1.5-2.4,2.8-4,3.6c-1.9,0.9-4.1,1.4-6.2,1.3C327.5,159.7,325.4,159.3,323.5,158.5z"/>
<path class="st1" d="M372.8,126.6l-11,21.4v11.4h-6.6V148l-11.1-21.3h7.4l7,14.9l7-14.9L372.8,126.6z"/>
<path class="st1" d="M381.8,158.5c-1.7-0.7-3.2-1.9-4.3-3.4c-1.1-1.5-1.7-3.3-1.6-5.2h7c0,1.2,0.5,2.4,1.4,3.2
	c1,0.8,2.2,1.2,3.5,1.2c1.3,0.1,2.6-0.3,3.6-1.1c0.9-0.7,1.3-1.8,1.3-2.9c0-0.9-0.3-1.7-0.9-2.4c-0.6-0.6-1.4-1.1-2.2-1.5
	c-1.2-0.5-2.4-0.9-3.7-1.2c-1.8-0.5-3.5-1.1-5.2-1.9c-1.3-0.6-2.5-1.6-3.4-2.8c-1-1.4-1.5-3.2-1.4-4.9c0-1.8,0.5-3.6,1.5-5.1
	s2.4-2.6,4.1-3.3c1.9-0.8,3.9-1.2,6-1.1c2.9-0.1,5.8,0.7,8.2,2.4c2.1,1.7,3.4,4.2,3.5,6.9H392c0-1.1-0.6-2.1-1.4-2.8
	c-1-0.8-2.3-1.2-3.5-1.1c-1.1,0-2.2,0.3-3.1,1c-0.8,0.7-1.2,1.8-1.1,2.9c0,0.8,0.3,1.6,0.9,2.2c0.6,0.6,1.4,1.1,2.1,1.4
	c0.9,0.4,2.1,0.8,3.6,1.2c1.8,0.5,3.5,1.1,5.2,1.9c1.4,0.7,2.6,1.6,3.5,2.8c1,1.4,1.5,3.2,1.5,4.9s-0.5,3.4-1.4,4.9
	c-1,1.5-2.4,2.8-4,3.6c-1.9,0.9-4.1,1.4-6.2,1.3C385.8,159.7,383.7,159.3,381.8,158.5z"/>
<path class="st1" d="M427.4,126.6v5.3h-8.7v27.4h-6.6v-27.4h-8.7v-5.3C403.4,126.6,427.4,126.6,427.4,126.6z"/>
<path class="st1" d="M438.7,131.9v8.2h11v5.2h-11v8.7h12.4v5.3h-19v-32.7h19v5.3H438.7z"/>
<path class="st1" d="M492.7,126.6v32.7h-6.5V138l-8.8,21.3h-5l-8.8-21.3v21.3H457v-32.7h7.4l10.4,24.4l10.4-24.3L492.7,126.6z"/>
<path class="st1" d="M34.8,17.6c2.4,1.2,4.4,3.1,5.7,5.4c1.4,2.5,2.1,5.3,2,8.1c0.1,2.8-0.6,5.6-2,8.1c-1.3,2.3-3.3,4.1-5.7,5.3
	c-2.6,1.3-5.5,2-8.5,1.9H15.6V15.7h10.7C29.3,15.7,32.2,16.3,34.8,17.6z M33.6,38.5c1.8-1.8,2.6-4.2,2.6-7.4
	c0.2-2.7-0.8-5.4-2.6-7.5c-1.8-1.8-4.2-2.7-7.5-2.7h-4.4v20.2h4.4C29.3,41.1,31.8,40.3,33.6,38.5z"/>
<path class="st1" d="M53.1,15.7v19c-0.1,1.7,0.5,3.5,1.6,4.8c1.2,1.2,2.9,1.8,4.6,1.7c1.7,0.1,3.4-0.5,4.6-1.7
	c1.2-1.3,1.7-3,1.6-4.8v-19h6.2v18.9c0.1,2.3-0.5,4.6-1.7,6.6c-1.1,1.8-2.7,3.2-4.5,4.1c-2,0.9-4.1,1.4-6.3,1.4s-4.3-0.4-6.2-1.4
	c-1.8-0.9-3.4-2.3-4.4-4.1c-1.1-2-1.7-4.3-1.6-6.6V15.7H53.1z"/>
<path class="st1" d="M111.1,15.7v30.6H105V26.4l-8.3,19.9H92l-8.2-19.9v19.9h-6.2V15.7h7l9.8,22.8l9.8-22.8L111.1,15.7z"/>
<path class="st1" d="M135.9,40.5h-12.2l-2,5.8h-6.5l11-30.7h7.2l11,30.7H138L135.9,40.5z M134.3,35.6l-4.4-12.8l-4.4,12.8H134.3z"/>
<path class="st1" d="M169.9,24.9c-0.7-1.2-1.7-2.3-2.9-2.9c-1.3-0.7-2.8-1-4.3-1c-1.7,0-3.4,0.4-4.8,1.2c-1.4,0.8-2.6,2-3.3,3.5
	c-0.8,1.6-1.2,3.4-1.2,5.3c0,1.9,0.4,3.7,1.2,5.4c0.8,1.5,1.9,2.7,3.4,3.5s3.3,1.3,5,1.2c2.1,0.1,4.1-0.6,5.8-1.9
	c1.6-1.3,2.6-3.2,2.9-5.2h-10.6v-4.7h16.6v5.4c-0.4,2.2-1.3,4.2-2.6,5.9c-1.4,1.8-3.2,3.3-5.2,4.4c-2.2,1.1-4.7,1.7-7.1,1.6
	c-2.8,0-5.6-0.7-8-2c-2.3-1.3-4.3-3.2-5.6-5.5c-1.4-2.5-2.1-5.3-2-8.1c-0.1-2.8,0.6-5.6,2-8.1c1.3-2.3,3.3-4.3,5.6-5.6
	c5.4-2.9,11.8-2.7,17,0.5c2.5,1.7,4.4,4.2,5.2,7.1C177,24.9,169.9,24.9,169.9,24.9z"/>
<path class="st1" d="M188.4,15.7v19c-0.1,1.7,0.5,3.4,1.6,4.7c2.7,2.2,6.5,2.2,9.2,0c1.2-1.3,1.7-3,1.6-4.8v-19h6.2v19
	c0.1,2.3-0.5,4.6-1.7,6.6c-1.1,1.8-2.6,3.2-4.5,4.1c-2,0.9-4.1,1.4-6.3,1.4c-2.1,0-4.3-0.4-6.2-1.4c-1.8-0.9-3.4-2.3-4.4-4.1
	c-1.1-2-1.7-4.3-1.6-6.6V15.7H188.4z"/>
<path class="st1" d="M219.1,20.7v7.7h10.3v4.9h-10.3v8.1h11.6v5h-17.8V15.7h17.8v5H219.1z"/>
<path class="st1" d="M257.1,15.7v5H249v25.6h-6.2V20.7h-8.2v-5L257.1,15.7z"/>
<path class="st1" d="M267.7,20.7v7.7H278v4.9h-10.3v8.1h11.6v5h-17.8V15.7h17.8v5H267.7z"/>
<g>
	<g>
		<defs>
			<rect id="SVGID_1_" y="67.4" width="297.2" height="107.4"/>
		</defs>
		<clipPath id="SVGID_00000159441898942401941130000009965408289767963797_">
			<use xlink:href="#SVGID_1_"  style="overflow:visible;"/>
		</clipPath>
		<g style="clip-path:url(#SVGID_00000159441898942401941130000009965408289767963797_);">
			<g>
				<g>
					<path class="st0" d="M185.3,299.5c16-26.6,17.4-72.5,3-98.3c-8.6-15.5-25.6-34.8-74-24.4c-12.2,2.6-30.1,11.2-40.6,26.8
						C41,252.1,52.2,308.8,52.3,309.4c0.3,1,1.3,1.6,2.2,1.4c1-0.1,1.7-1,1.6-1.9c0,0,0,0,0-0.1c-0.1-0.5-11-56,21-103.4
						c9.2-13.7,25.8-22.5,38.2-25.2c45.7-9.8,61.6,8.2,69.6,22.6c13.9,25,12.5,69.4-3,95.1c-7.5,12.4-17.7,19.7-29.7,21
						c-30.6,3.3-44.5-32.3-46.3-41.2c-6-29.9,1-46.6,4.3-52.4c5.8-10.2,17.8-15.4,25.6-14.3c12.3,1.7,26.6,15.9,28.3,34.2
						c2.2,24.3-2.6,32.8-7,35.7c-3.2,2-7.5,2-12.8-0.1c-13.3-5.3-17.6-37.5-14-50.5c0.8-3,3-5.4,5.9-6.4c2.3-0.6,4.7,0.2,7.1,2.2
						c7.7,6.5,14.4,27.5,12.1,38c-0.2,0.8-2.5,3.5-4.4,3.5c-5.7,0-10.7-19.4-12.3-32.6c-0.2-1-1.1-1.7-2.1-1.5c-1,0-1.8,0.9-1.7,1.9
						c0,0,0,0,0,0.1c0.7,5.9,4.9,35.6,16.1,35.6c4.3,0,7.8-4.4,8.2-6.3c2.3-10.6-4-33.3-13.2-41.1c-3.4-2.9-7.2-3.9-10.9-3
						c-4.2,1.3-7.4,4.6-8.6,8.8c-3.6,12.9-0.1,48,16.2,54.5c6.5,2.6,12.2,2.5,16.6-0.2c7.6-4.9,10.6-17.9,8.6-38.8
						c-1.9-20.7-17.9-35.5-31.6-37.4c-9.3-1.3-22.9,4.4-29.6,16.2c-3.4,6.1-10.8,23.6-4.6,54.6c2.9,14.5,18.4,44.3,46.2,44.3
						c1.4,0,2.9-0.1,4.3-0.2C165.9,320.9,177.2,313,185.3,299.5z"/>
					<path class="st0" d="M90.8,178.4c15-7.2,37.3-14.1,54.9-11.6c28.7,4.1,37,14.2,37.1,14.3c0.7,0.8,1.8,1,2.7,0.4
						c0.8-0.4,1.1-1.4,0.6-2.2c0-0.1-0.1-0.1-0.1-0.2c-0.4-0.5-9.1-11.4-39.6-15.7c-23.3-3.3-49.8,8.3-57.3,12
						c-64.8,31.2-70.4,97.4-70.5,98.1c0,1,0.8,1.8,1.8,1.8l0,0h0.1c1,0,1.8-0.7,1.9-1.6C22.3,273.1,27.9,208.8,90.8,178.4z"/>
					<path class="st0" d="M136.5,151.2c-1,0-1.8,0.8-1.8,1.8l0,0c0.1,1,1.1,1.7,2.1,1.6c2.3-0.2,57.7-3.4,82.9,59.4
						c14.8,36.7,6,84.4,5.9,84.9c-0.1,1,0.5,1.9,1.5,2h0.1h0.3c0.9,0,1.7-0.6,1.9-1.5c0.1-0.5,9.1-49-6-86.6
						C197.1,147.5,137.1,151.2,136.5,151.2z"/>
					<path class="st0" d="M127.1,154.6c1,0,1.8-0.8,1.7-1.8c0,0,0,0,0-0.1c-0.2-1-1.1-1.7-2.1-1.6c-0.7,0.1-73.9,7.2-117.1,87.2
						c-0.4,0.8-0.1,1.8,0.7,2.2c0.1,0,0.1,0.1,0.2,0.1c0.3,0.1,0.6,0.2,0.8,0.2c0.7,0,1.4-0.4,1.8-1
						C55.3,161.7,126.4,154.7,127.1,154.6z"/>
					<path class="st0" d="M178.8,150.3c-27.4-11.9-53.3-11.7-58.3-9c-0.8,0.4-1.2,1.4-0.8,2.2c0,0.1,0.1,0.1,0.1,0.2
						c0.6,0.8,1.7,1.1,2.7,0.6c3.9-2,28.6-2.1,54.6,9.2c24.7,10.7,55.7,33.9,63.4,83.7c3,19.6-1,53.2-1,53.6c-0.1,1,0.7,1.8,1.6,1.9
						c0,0,0,0,0.1,0h0.2c0.9,0,1.8-0.6,1.9-1.5c0.2-1.4,4.1-34.4,1-54.4C236.4,185.3,204.3,161.4,178.8,150.3z"/>
					<path class="st0" d="M110.3,146.3c0.9-0.2,1.4-1.1,1.2-2c0-0.1,0-0.1-0.1-0.2c-0.4-0.9-1.5-1.3-2.5-1
						c-86.3,28-105.1,75.3-105.8,77.3c-0.3,0.9,0.2,1.9,1.1,2.2h0.1c0.2,0.1,0.4,0.1,0.6,0.1c0.8,0,1.5-0.4,1.8-1.2
						C6.9,221.1,25.9,173.8,110.3,146.3z"/>
					<path class="st0" d="M5,195l4.9-4.3C30,172.9,46,158.8,88,144.5c0.9-0.2,1.4-1.2,1.2-2.1c0-0.1,0-0.1-0.1-0.2
						c-0.5-0.9-1.5-1.4-2.5-1c-42.9,14.6-59,28.9-79.5,47l-4.9,4.3c-0.7,0.6-0.8,1.6-0.2,2.3c0.1,0.1,0.1,0.1,0.2,0.2
						c0.4,0.3,0.9,0.5,1.4,0.5C4.2,195.5,4.6,195.3,5,195z"/>
					<path class="st0" d="M149.4,129.9C71.5,117.2-1.1,175.7-1.8,176.3c-0.7,0.5-0.8,1.6-0.3,2.3c0.1,0.1,0.1,0.1,0.2,0.2
						c0.8,0.7,1.9,0.8,2.7,0.1c0.7-0.6,72-57.9,147.9-45.6c45.1,7.3,83.1,37.6,112.9,89.8c0.4,0.6,1,1,1.7,0.9
						c0.3,0,0.6-0.1,0.9-0.2c0.9-0.3,1.3-1.3,0.9-2.2c0-0.1-0.1-0.1-0.1-0.2C234.8,168.3,195.8,137.4,149.4,129.9z"/>
					<path class="st0" d="M-0.9,161.6c0.4-0.4,45.3-40.4,118.8-40.4c1,0.1,1.8-0.6,1.9-1.6s-0.6-1.8-1.6-1.9c-0.1,0-0.2,0-0.3,0
						c-75.2,0-121.1,41.1-121.6,41.5c-0.7,0.6-0.8,1.6-0.2,2.3c0.1,0.1,0.1,0.1,0.2,0.2c0.4,0.3,0.9,0.5,1.4,0.5
						C-1.8,162.2-1.3,162-0.9,161.6z"/>
					<path class="st0" d="M137.6,116.8L137.6,116.8c-1-0.1-1.8,0.6-1.9,1.6s0.6,1.8,1.6,1.9c0.1,0,0.2,0,0.3,0
						c0.8,0,81.4,2,129.7,89.7c0.4,0.6,1,1,1.7,1c0.3,0,0.6-0.1,0.9-0.2c0.9-0.3,1.3-1.3,1-2.2c0-0.1,0-0.1-0.1-0.2
						C221.3,118.8,138.4,116.8,137.6,116.8z"/>
					<path class="st0" d="M103.1,107.2c-0.1-1-0.9-1.8-1.9-1.7C37.3,105.5-9,143-9.5,143.3c-0.7,0.5-0.8,1.6-0.3,2.3
						c0.1,0.1,0.1,0.1,0.2,0.2c0.4,0.4,0.9,0.6,1.4,0.6s0.9-0.2,1.3-0.4c0.4-0.4,45.8-36.9,108.1-36.9
						C102.2,109,103,108.3,103.1,107.2L103.1,107.2z"/>
					<path class="st0" d="M179,115c-36.9-11.8-67.8-10.8-68.1-10.8c-1-0.1-1.8,0.6-1.9,1.6s0.6,1.8,1.6,1.9c0.1,0,0.3,0,0.4,0
						c0.3,0,30.5-0.9,66.7,10.6c33.4,10.6,78.7,34.3,105.5,86.7c0.4,0.6,1,1,1.8,1c0.3,0,0.5-0.1,0.8-0.2c0.9-0.3,1.4-1.2,1.1-2.1
						c0-0.1,0-0.1-0.1-0.2C259.4,150,213,125.8,179,115z"/>
					<path class="st0" d="M-8.5,130.8c0.8-0.6,84.8-59.9,192.5-22c1,0.4,2.1-0.1,2.5-1c0.3-0.9-0.1-1.8-0.9-2.2
						c-0.1,0-0.1,0-0.2-0.1c-45-16-94-17.2-139.8-3.4c-34.8,10.4-56.3,25.8-56.5,26c-0.7,0.5-0.9,1.5-0.4,2.2c0,0.1,0.1,0.1,0.2,0.2
						c0.4,0.4,0.9,0.7,1.5,0.6C-9.3,131.2-8.9,131.1-8.5,130.8z"/>
					<path class="st0" d="M132.4,85.9c1,0.1,1.9-0.6,2.1-1.6c0-1-0.7-1.8-1.7-1.9l0,0C35,75.3-13.5,112.2-14,112.6
						c-0.7,0.5-0.9,1.5-0.4,2.2c0.1,0.1,0.1,0.1,0.2,0.2c0.4,0.4,0.9,0.6,1.5,0.6c0.5,0,0.9-0.1,1.3-0.4
						C-11.1,114.9,36.4,78.9,132.4,85.9z"/>
					<path class="st0" d="M198.7,110.3c-1-0.4-2.1,0-2.5,0.9c-0.4,0.8,0,1.8,0.8,2.2c0.1,0,0.1,0,0.2,0.1
						c0.8,0.3,79.7,31.1,98.8,85.9c0.3,0.8,1,1.2,1.8,1.2c0.2,0,0.4,0,0.6-0.1c0.9-0.2,1.5-1.1,1.3-2c0-0.1,0-0.1,0-0.2
						C280,142.1,199.5,110.6,198.7,110.3z"/>
					<path class="st0" d="M144.5,81.4c-1-0.2-2,0.4-2.3,1.4c-0.1,1,0.5,1.8,1.5,2c0,0,0,0,0.1,0c50.4,9,118.2,40.9,156,91.7
						c0.4,0.5,1,0.8,1.6,0.8c0.4,0,0.7-0.1,1.1-0.3c0.8-0.4,1.1-1.4,0.7-2.2c0-0.1-0.1-0.1-0.1-0.2C264.5,123,195.7,90.6,144.5,81.4
						z"/>
					<path class="st0" d="M-11.4,96.1c0.4,0.6,1,0.9,1.7,0.9c0.3,0,0.7-0.1,1-0.2c0.5-0.3,58-29.3,140.1-21.3c1,0.1,1.9-0.5,2.1-1.5
						c0.1-1-0.7-1.8-1.7-1.9c0,0,0,0-0.1,0C48.4,63.8-10.1,93.4-10.7,93.7c-0.8,0.4-1.2,1.3-0.8,2.2C-11.5,95.9-11.5,96-11.4,96.1z"
						/>
					<path class="st0" d="M206.1,72.8c0.4-0.9-0.1-1.9-0.9-2.2c0,0-0.1,0-0.2-0.1C140.5,47,84.4,50.4,48.8,57.4
						c-38.7,7.6-62.4,21-62.7,21.1c-0.8,0.4-1.1,1.4-0.7,2.2c0,0.1,0.1,0.1,0.1,0.2c0.4,0.5,1,0.8,1.6,0.8c0.4,0,0.7-0.1,1-0.3
						c0.9-0.5,93.7-52,215.4-7.7C204.6,74.2,205.7,73.8,206.1,72.8z"/>
					<path class="st0" d="M181,75.9c-39.5-12.5-69.8-12.6-70.1-12.6c-1-0.1-1.8,0.5-2,1.5c-0.1,1,0.5,1.8,1.5,2c0.2,0,0.3,0,0.5,0
						c1.2,0,119,1.1,196.5,99.4c0.4,0.5,1,0.7,1.6,0.7c0.4,0,0.8-0.1,1.1-0.3c0.8-0.4,1-1.4,0.6-2.2c0-0.1-0.1-0.1-0.1-0.2
						C269.5,112.1,217.5,87.4,181,75.9z"/>
					<path class="st0" d="M215,75c-0.9-0.5-2-0.2-2.6,0.7c-0.5,0.8-0.2,1.8,0.5,2.3c0.1,0,0.1,0.1,0.2,0.1
						c32.2,16.5,51.2,27.3,98.7,74.6c0.8,0.7,1.9,0.8,2.7,0.1c0.7-0.5,0.8-1.5,0.3-2.3c-0.1-0.1-0.1-0.1-0.2-0.2
						C266.8,102.6,247.5,91.7,215,75z"/>
					<path class="st0" d="M243.6,82.2c0.3,0.2,0.7,0.3,1.1,0.3c0.6,0,1.2-0.3,1.6-0.8c0.5-0.7,0.4-1.7-0.3-2.3
						c-0.1,0-0.1-0.1-0.2-0.1c-62-38.4-130.2-41.2-176.6-36.8c-50.1,4.8-86.1,18.8-86.5,19c-0.9,0.3-1.4,1.2-1.1,2.1
						c0,0.1,0,0.1,0.1,0.2c0.5,0.9,1.6,1.3,2.6,0.9c0.4-0.1,35.9-14,85.5-18.7C115.4,41.7,182.6,44.5,243.6,82.2z"/>
					<path class="st0" d="M311.7,136.3c0.4,0.4,0.9,0.6,1.5,0.6c0.4,0,0.9-0.1,1.2-0.4c0.7-0.5,0.9-1.5,0.4-2.2
						c0-0.1-0.1-0.1-0.2-0.2c-18.4-20-56.5-47-56.9-47.3c-0.9-0.6-2-0.5-2.7,0.3c-0.6,0.7-0.5,1.7,0.1,2.3c0.1,0.1,0.1,0.1,0.2,0.2
						C255.8,89.7,293.5,116.6,311.7,136.3z"/>
					<path class="st3" d="M-12.8,48.3c0.3,0,0.6-0.1,0.9-0.2c0.8-0.3,77.1-34.3,200.1-5.4c1,0.2,2-0.3,2.4-1.3
						c0.2-0.9-0.3-1.9-1.3-2.1h-0.1C64.6,10.1-12.9,44.7-13.7,45c-0.9,0.3-1.3,1.3-0.9,2.2c0,0.1,0,0.1,0.1,0.2
						C-14.2,47.9-13.5,48.3-12.8,48.3z"/>
					<path class="st0" d="M196.7,41.1c-1-0.3-2,0.1-2.4,1.1c-0.3,0.9,0.2,1.8,1,2.2c0.1,0,0.1,0,0.2,0c0.6,0.2,62.4,19.6,121.5,80.4
						c0.4,0.4,0.9,0.6,1.5,0.6c0.5,0,0.9-0.2,1.3-0.4c0.7-0.5,0.9-1.5,0.3-2.3c0-0.1-0.1-0.1-0.2-0.2C260,61,197.3,41.3,196.7,41.1z
						"/>
					<path class="st3" d="M-2.3,31.2c0.3,0,0.6-0.1,0.9-0.2c0.6-0.3,62.9-28.4,175.1-1.8c1,0.2,2-0.3,2.4-1.2
						c0.2-0.9-0.3-1.9-1.2-2.1h-0.1C60.9-1.2-2.5,27.6-3.2,27.9C-4,28.2-4.5,29.2-4.1,30c0,0.1,0.1,0.1,0.1,0.2
						C-3.6,30.8-3,31.2-2.3,31.2z"/>
					<path class="st0" d="M243.7,45.9C195.6,18.1,116.3-11.5,11,5.4c-1,0.1-1.7,1-1.6,1.9c0,0,0,0,0,0.1c0.3,1,1.2,1.6,2.2,1.4
						C115.7-7.9,194,21.3,241.4,48.7c51.4,29.7,78.6,63.9,78.9,64.2c0.4,0.5,1,0.7,1.6,0.7c0.4,0,0.8-0.1,1.1-0.3
						c0.8-0.4,1-1.4,0.6-2.2c0-0.1-0.1-0.1-0.1-0.2C323.2,110.6,295.7,76,243.7,45.9z"/>
					<path class="st3" d="M18.8-3.5c0.5-0.2,55-18.4,164.7,10.4c0.2,0,0.4,0.1,0.5,0.1c0.8,0,1.6-0.5,1.9-1.2
						c0.3-0.9-0.3-1.9-1.2-2.1h-0.1C73.4-25.7,19.6-7.6,17.4-6.8c-0.9,0.2-1.4,1.2-1.2,2.1c0,0.1,0,0.1,0.1,0.2
						C16.7-3.6,17.8-3.2,18.8-3.5z"/>
					<path class="st0" d="M331.8,100.1C276.3,39.8,194.2,8,193.4,7.7c-1-0.4-2.1,0-2.5,0.9c-0.4,0.8,0,1.8,0.8,2.2
						c0.1,0,0.1,0,0.2,0.1c0.8,0.3,82.1,31.8,137,91.5c0.4,0.4,0.9,0.6,1.5,0.6c0.4,0,0.9-0.1,1.2-0.4c0.7-0.5,0.9-1.5,0.4-2.2
						C331.9,100.3,331.9,100.2,331.8,100.1z"/>
					<path class="st3" d="M20.6-19.8c1.1-0.2,109.9-25,231.1,44.8c0.3,0.2,0.6,0.3,1,0.3c0.6,0,1.3-0.3,1.6-0.8
						c0.5-0.7,0.3-1.8-0.4-2.3c-0.1,0-0.1-0.1-0.2-0.1C131.1-48.5,20.7-23.4,19.6-23.1c-0.9,0.2-1.6,1.1-1.4,2v0.1
						C18.6-20.1,19.6-19.5,20.6-19.8z"/>
					<path class="st3" d="M262.5,27.3c-0.9-0.6-2-0.4-2.7,0.4c-0.6,0.7-0.4,1.7,0.3,2.3c0.1,0.1,0.1,0.1,0.2,0.1
						c0.4,0.3,38.8,24.6,66.8,50.6c0.4,0.3,0.9,0.5,1.4,0.5s1-0.2,1.3-0.5c0.7-0.6,0.8-1.6,0.2-2.3c-0.1-0.1-0.1-0.1-0.2-0.2
						C301.5,52.1,262.9,27.6,262.5,27.3z"/>
					<path class="st3" d="M325.3,60.8c0.4,0.4,0.9,0.6,1.5,0.6c0.5,0,0.9-0.1,1.2-0.4c0.7-0.5,0.9-1.5,0.4-2.2
						c0-0.1-0.1-0.1-0.2-0.2C277.1,4.8,179.4-25.3,178.4-25.6c-1-0.3-2,0.1-2.4,1.1c-0.3,0.9,0.2,1.8,1,2.2c0.1,0,0.1,0,0.2,0
						C178.2-22.1,274.8,7.8,325.3,60.8z"/>
					<path class="st3" d="M55.4-53c156.1,4.8,269,90,270.1,90.9c0.8,0.6,2,0.5,2.7-0.2c0.6-0.6,0.6-1.7,0-2.3
						c-0.1-0.1-0.1-0.1-0.2-0.2c-1.1-0.9-115-86.9-272.5-91.7c-1-0.1-1.9,0.7-2,1.7C53.5-53.8,54.4-53,55.4-53L55.4-53z"/>
					<path class="st3" d="M61.3-68c141.9,6.2,261.2,87.8,262.4,88.6c0.3,0.2,0.8,0.4,1.2,0.4c0.6,0,1.1-0.2,1.5-0.7
						c0.6-0.7,0.5-1.7-0.2-2.3c-0.1-0.1-0.1-0.1-0.2-0.1c-1.2-0.8-121.4-83.1-264.5-89.3c-1-0.1-1.9,0.6-2,1.7
						C59.5-68.8,60.3-68,61.3-68z"/>
					<path class="st3" d="M67.5-82.1C69-81.9,219-68.4,323.6,10c0.4,0.3,0.8,0.4,1.2,0.4c0.6,0,1.1-0.2,1.5-0.6
						c0.6-0.7,0.6-1.7-0.1-2.3l-0.1-0.1C220.6-71.7,69.4-85.4,67.9-85.5c-1-0.1-2,0.5-2.1,1.6C65.7-83,66.5-82.1,67.5-82.1
						L67.5-82.1z"/>
				</g>
			</g>
		</g>
	</g>
</g>
</svg>
