<svg id="Layer_1" data-name="Layer 1" xmlns="http://www.w3.org/2000/svg" viewBox="0 0 360 95.55"><defs><style>.cls-1{fill:#ed2f38;}.cls-2{fill:#1b1e2a;}.cls-3{fill:#e0e0e0;}.cls-4{fill:#fff;}</style></defs><rect class="cls-1" x="0.04" width="359.96" height="95.55"/><path class="cls-2" d="M319.48,44.93V79.35H40.56V44.93A32.06,32.06,0,0,1,72.63,12.87h214.8A32.05,32.05,0,0,1,319.48,44.93Z"/><path class="cls-3" d="M319.48,79.35V259.74a32.06,32.06,0,0,1-32.05,32.05H72.63a32.07,32.07,0,0,1-32.07-32.05V79.35Z"/><path class="cls-4" d="M104.14,45.17a9,9,0,0,1,3.53-3.57,10.28,10.28,0,0,1,5.13-1.28,9.79,9.79,0,0,1,6,1.86,8.86,8.86,0,0,1,3.34,5h-5.28a4.26,4.26,0,0,0-1.67-1.88,4.7,4.7,0,0,0-2.46-.64,4.56,4.56,0,0,0-3.59,1.54,6,6,0,0,0-1.38,4.13,6,6,0,0,0,1.38,4.13,4.57,4.57,0,0,0,3.59,1.55,4.71,4.71,0,0,0,2.46-.65,4.26,4.26,0,0,0,1.67-1.88h5.28a8.83,8.83,0,0,1-3.34,5,9.84,9.84,0,0,1-6,1.84,10.17,10.17,0,0,1-5.13-1.28,9.06,9.06,0,0,1-3.53-3.55,11.38,11.38,0,0,1,0-10.41Z"/><path class="cls-4" d="M137.38,56.79H130l-1.18,3.48h-5L131,40.55h5.56l7.14,19.72h-5.09Zm-1.23-3.71-2.45-7.22-2.42,7.22Z"/><path class="cls-4" d="M150.61,56.56h6.3v3.71h-11.1V40.55h4.8Z"/><path class="cls-4" d="M164,44.4v4h6.43V52.1H164v4.32h7.27v3.85H159.21V40.55h12.08V44.4Z"/><path class="cls-4" d="M192.06,60.27h-4.81l-8-12.16V60.27h-4.81V40.55h4.81l8,12.22V40.55h4.81Z"/><path class="cls-4" d="M208.38,41.78A8.82,8.82,0,0,1,212,45.25a11,11,0,0,1,0,10.3A8.83,8.83,0,0,1,208.37,59a11.57,11.57,0,0,1-5.44,1.23h-7.39V40.55h7.39A11.5,11.5,0,0,1,208.38,41.78Zm-1.52,12.84a5.63,5.63,0,0,0,1.52-4.21,5.27,5.27,0,0,0-5.76-5.76h-2.27V56.11h2.27A5.76,5.76,0,0,0,206.86,54.62Z"/><path class="cls-4" d="M228.25,56.79h-7.37l-1.18,3.48h-5l7.14-19.72h5.56l7.14,19.72h-5.09ZM227,53.08l-2.45-7.22-2.41,7.22Z"/><path class="cls-4" d="M246.73,60.27l-4.1-7.44h-1.15v7.44h-4.81V40.55h8.07a8.89,8.89,0,0,1,4,.81,5.6,5.6,0,0,1,2.46,2.24,6.25,6.25,0,0,1,.82,3.16,5.87,5.87,0,0,1-1.11,3.51,6,6,0,0,1-3.28,2.19l4.55,7.81Zm-5.25-10.84h3a2.73,2.73,0,0,0,2-.65A2.44,2.44,0,0,0,247.1,47a2.36,2.36,0,0,0-.66-1.77,2.73,2.73,0,0,0-2-.64h-3Z"/></svg>