<?xml version="1.0" encoding="UTF-8"?>
<svg id="Layer_1" data-name="Layer 1" xmlns="http://www.w3.org/2000/svg" viewBox="0 0 888 1056.77">
  <defs>
    <style>
      .cls-1 {
        fill: #232323;
      }

      .cls-2 {
        fill: #fffffe;
      }

      .cls-3 {
        fill: #fdecdc;
      }

      .cls-4 {
        fill: #078080;
      }
    </style>
  </defs>
  <rect class="cls-3" width="888" height="1056.77"/>
  <g>
    <g>
      <circle class="cls-4" cx="402.1" cy="875.19" r="338.05"/>
      <path class="cls-1" d="M402.1,543.52c182.88,0,331.67,148.79,331.67,331.67s-148.79,331.67-331.67,331.67S70.43,1058.08,70.43,875.19s148.79-331.67,331.67-331.67m0-12.76c-190.22,0-344.43,154.2-344.43,344.43s154.2,344.43,344.43,344.43,344.43-154.2,344.43-344.43-154.2-344.43-344.43-344.43h0Z"/>
    </g>
    <path class="cls-2" d="M579.53,828.49v141.95c0,11.48-1.09,22.71-3.17,33.59-15.7,81.93-87.75,143.84-174.26,143.84s-156.25-59.95-173.45-139.94c-2.61-12.08-3.97-24.62-3.97-37.49v-224.25c0-17.03,13.8-30.83,30.83-30.83,8.51,0,16.21,3.46,21.79,9.02,5.58,5.58,9.02,13.29,9.02,21.81v134.74c0,3.36,2.73,6.07,6.08,6.07s6.07-2.71,6.07-6.07v-212.9c0-17.03,13.8-30.83,30.83-30.83,8.52,0,16.23,3.44,21.81,9.02,5.57,5.58,9.02,13.3,9.02,21.81v197c0,3.06,2.5,5.55,5.55,5.55s5.57-2.5,5.57-5.55v-231.68c0-17.03,13.8-30.83,30.83-30.83,8.51,0,16.21,3.46,21.79,9.02,5.57,5.58,9.02,13.29,9.02,21.81v231.68c0,3.33,2.71,6.04,6.05,6.04s6.04-2.71,6.04-6.04v-197c0-17.03,13.8-30.83,30.83-30.83,8.51,0,16.23,3.44,21.81,9.02s9.02,13.3,9.02,21.81v264.25s-26.3,1.12-50.32,9.7c-7.15,2.54-14.09,5.74-20.07,9.77-26.14,17.59-33.22,25.4-40.3,41.52-7.09,16.11,8.31-1.46,15.87-8.8,7.58-7.33,28.28-28.32,61.55-35.41,26.33-5.61,34.42-4.95,36.64-4.43,.2,.1,.43,.19,.65,.22,.04,.01,.07,.03,.09,.03,.01,.01,.03,.01,.03,.01h.01c.46,.14,.95,.2,1.43,.2,3.08,0,5.6-2.5,5.6-5.58v-111.03c0-17.03,13.8-30.83,30.83-30.83,8.51,0,16.21,3.46,21.79,9.02,5.58,5.58,9.04,13.29,9.04,21.81Z"/>
  </g>
  <g>
    <g>
      <circle class="cls-4" cx="788.51" cy="424.92" r="338.05"/>
      <path class="cls-1" d="M647.04,124.94c165.41-78.01,363.45-6.9,441.45,158.51,78.01,165.41,6.9,363.45-158.51,441.45-165.41,78.01-363.45,6.9-441.45-158.51-78.01-165.41-6.9-363.45,158.51-441.45m-5.44-11.54c-172.05,81.14-245.75,286.39-164.61,458.43,81.14,172.05,286.39,245.75,458.43,164.61,172.05-81.14,245.75-286.39,164.61-458.43-81.14-172.05-286.39-245.75-458.43-164.61h0Z"/>
    </g>
    <g>
      <path class="cls-2" d="M660.73,400.88l37.91,80.39c.24,.51,.46,1.01,.66,1.51,.18,.45,.36,.91,.52,1.37,.06,.13,.11,.27,.14,.41,.14,.41,.27,.81,.4,1.22,.07,.24,.14,.47,.2,.72,.08,.28,.15,.56,.22,.85,.03,.13,.07,.25,.09,.39,.1,.41,.19,.81,.26,1.23,.08,.41,.16,.81,.21,1.22,.02,.04,.02,.08,.02,.14,.02,.15,.04,.3,.07,.44,.07,.44,.11,.88,.16,1.34,0,.17,.02,.35,.04,.52,.03,.23,.04,.46,.04,.68,.02,.14,.02,.28,.02,.42,.02,.39,.03,.78,.02,1.18,0,.11,0,.21,0,.3,0,.31,0,.62-.02,.93,0,.28,0,.56-.03,.84-.03,.54-.08,1.08-.14,1.62-.09,.72-.19,1.44-.33,2.16-.02,.12-.04,.22-.07,.33-.02,.1-.04,.19-.06,.28h0c-.02,.07-.03,.12-.04,.17,0,.03,0,.05-.01,.07-.04,.21-.08,.4-.14,.61-.04,.22-.09,.44-.16,.66-.11,.5-.26,1-.41,1.48-.11,.37-.24,.75-.35,1.1-.05,.17-.1,.32-.17,.48-.14,.4-.29,.79-.46,1.18-.01,.04-.03,.1-.06,.14-.14,.37-.31,.73-.47,1.09-.12,.28-.26,.58-.42,.86-.12,.25-.24,.5-.37,.73-.17,.35-.36,.68-.56,1.01-.09,.15-.17,.3-.26,.46-.22,.37-.44,.75-.69,1.1-.07,.11-.15,.23-.23,.35-.23,.36-.48,.7-.73,1.04-.05,.09-.13,.17-.19,.25-.11,.18-.23,.35-.38,.51-.07,.09-.13,.17-.2,.25-.15,.2-.3,.4-.47,.59-.25,.31-.52,.61-.79,.91-.16,.19-.33,.38-.51,.56-.11,.13-.24,.26-.36,.38-.06,.08-.13,.14-.19,.2-.05,.04-.09,.09-.13,.13-.04,.05-.08,.1-.14,.14-.15,.15-.29,.29-.45,.42-.07,.08-.14,.16-.23,.22-.25,.24-.51,.48-.77,.69-.31,.28-.62,.53-.94,.79-.37,.3-.75,.59-1.15,.89-.05,.04-.09,.07-.14,.1-.23,.19-.47,.35-.72,.52-.1,.08-.22,.15-.33,.22-.06,.04-.1,.08-.17,.11-.36,.25-.72,.46-1.09,.69-.4,.25-.82,.48-1.24,.71-.12,.07-.25,.14-.38,.2-.42,.23-.84,.44-1.28,.65-8.02,3.78-16.82,3.97-24.54,1.17-2.44-.88-4.79-2.04-6.96-3.49-.37-.25-.75-.52-1.12-.79-.78-.55-1.53-1.16-2.26-1.8-.26-.22-.52-.45-.77-.7-1.56-1.47-3-3.1-4.28-4.91-.24-.35-.47-.7-.7-1.05-.25-.4-.51-.81-.75-1.22-.23-.38-.44-.77-.66-1.16l-.07-.14c-.21-.41-.42-.82-.62-1.25l-38.39-81.39c-7.87-16.68-.13-36.73,17.31-43.6,15.92-6.28,33.97,1.73,41.26,17.21Z"/>
      <path class="cls-2" d="M720.51,349.86l45.86,97.24c7.27,15.41,1.96,34.3-12.92,42.6-8.54,4.77-18.17,5.23-26.58,2.21-7.72-2.77-14.4-8.5-18.18-16.52l-45.81-97.15c-7.3-15.47-1.98-34.49,13-42.76,16.41-9.06,36.78-2.3,44.64,14.38Z"/>
      <path class="cls-2" d="M955.68,363.44l33.7,71.45c1.96,4.15,3.75,8.35,5.37,12.59,.69,1.8,1.34,3.61,1.95,5.42,.64,1.82,1.24,3.65,1.81,5.49,25.67,83.06-13.02,174.5-93.93,212.66-88.62,41.79-194.36,3.84-236.16-84.8-.49-1.04-.96-2.07-1.44-3.11l-26.13-55.4c3.66,3.22,7.83,5.76,12.3,7.59,10.9,4.44,23.56,4.48,35.02-.92,1.45-.69,2.86-1.44,4.19-2.28,12.38-7.57,19.85-20.64,20.73-34.49,13.06,8.94,30.65,10.51,45.71,2.22,20.34-11.2,27.74-36.86,17.84-57.86-23.65-50.14-85.57-181.46-106.39-225.6-7.26-15.39-1.98-34.24,12.87-42.56,8.55-4.79,18.22-5.26,26.61-2.23,7.75,2.77,14.42,8.51,18.2,16.53l81.37,172.54c1.59,3.38,5.52,5.28,9.01,3.94,2.68-1.04,4.33-3.5,4.47-6.13,0-.02,0-.05,0-.06h0s-.58-3.12-.58-3.12t0-.03l-4.09-21.83-29.58-158.04c-3.26-17.44,8.23-34.21,25.67-37.47,14.66-2.76,28.86,4.95,34.94,17.84,1.14,2.43,2.01,5.05,2.53,7.82l33.45,178.71,1.07,5.73-48.51,22.88c-6.99,3.3-12.71,8.23-16.89,14.14-8.83,12.43-10.89,29.14-3.94,43.88,3.8,8.06,9.76,14.42,16.89,18.69,12.07,7.29,27.45,8.6,41.13,2.15l30.92-14.58,5.07,10.76c-3.5,1.89-39.74,21.77-55.1,47.49-16.13,27.05-19.2,37.15-18.73,54.74,.46,17.6,6.89-4.87,10.6-14.72,3.73-9.85,13.48-37.67,40.57-58.28,15.25-11.6,23.49-16.39,27.78-18.35,1.77-.82,2.88-1.17,3.51-1.29,.01,0,.03,0,.06-.01,.22,0,.45-.02,.66-.07,.02,0,.03,0,.03,0h.02s0,0,0,0c.43-.06,.83-.19,1.23-.38h0c2.95-.62,4.54-3.82,3.26-6.55l-11.41-24.2c-1.15-2.43-4.05-3.48-6.48-2.33l-36.9,17.4c-10.69,5.04-22.76,3.67-31.86-2.57-4.54-3.11-8.36-7.43-10.88-12.78-4.08-8.64-3.96-18.18-.47-26.33,2.98-6.97,8.42-12.92,15.82-16.41l70.36-33.18c11.89-5.61,25.49-3.28,34.8,4.84,3.25,2.83,5.98,6.35,7.94,10.5Z"/>
    </g>
  </g>
  <g>
    <g>
      <circle class="cls-4" cx="139.08" cy="221.01" r="338.05"/>
      <path class="cls-1" d="M373.61-13.51c129.32,129.32,129.32,339.73,0,469.05-129.32,129.32-339.73,129.32-469.05,0-129.32-129.32-129.32-339.73,0-469.05,129.32-129.32,339.73-129.32,469.05,0m9.02-9.02C248.12-157.04,30.04-157.04-104.46-22.53c-134.51,134.51-134.51,352.58,0,487.09,134.51,134.51,352.58,134.51,487.09,0s134.51-352.58,0-487.09h0Z"/>
    </g>
    <g>
      <path class="cls-2" d="M304.04,306.97l-55.86,55.86c-3.25,3.25-6.59,6.35-10.03,9.3-1.46,1.26-2.94,2.48-4.44,3.67-1.5,1.22-3.01,2.4-4.56,3.56-69.5,52.23-168.64,46.71-231.89-16.54-68.78-68.78-69.29-179.94-1.55-249.35l47.3-47.3c-1.79,4.55-2.78,9.33-2.97,14.15-.5,11.76,3.74,23.69,12.7,32.65,1.14,1.14,2.32,2.2,3.56,3.18,11.31,9.1,26.14,11.71,39.47,7.85-3.78,14.48,0,30.54,11.32,41.86s27.31,15.1,41.76,11.36c-4.23,14.74-.55,31.31,11.05,42.91,6.49,6.49,14.55,10.51,22.98,12.02,.66,10.18,4.87,20.15,12.63,27.91l24.18,24.18-8.41,8.41c-2.96-2.66-33.93-30.05-63.32-35.8-30.91-6.04-41.44-5.53-57.85,.87-16.41,6.38,6.9,4.83,17.44,5,10.54,.17,40.01-.04,68.55,18.48,16.08,10.44,23.38,16.58,26.67,19.96,1.35,1.37,2.04,2.28,2.38,2.85h.01c.09,.24,.19,.47,.33,.67,0,.02,.01,.03,.01,.03v.02s.01-.01,.01-.01c.19,.38,.46,.72,.77,1.03,0,0,0,0,0,0,1.63,2.58,5.41,2.69,7.57,.53l18.83-18.83c1.78-1.78,1.78-4.66,0-6.44l-29.08-29.08c-5.39-5.39-8.46-12.22-9.2-19.25-.22-1.91-.25-3.82-.11-5.73,.13-1.98,.46-3.95,.96-5.87,1.38-5.34,4.17-10.38,8.35-14.56,6.76-6.76,15.78-9.87,24.61-9.33,2.35,.12,4.68,.52,6.95,1.17,1.83,.53,3.62,1.21,5.35,2.08l54.57,54.57,1.21-1.21,7.73,7.73c9.29,9.29,11.7,22.88,7.2,34.39-1.56,4.02-3.96,7.77-7.2,11.02Z"/>
      <path class="cls-2" d="M169.12,42.03l-62.85,62.85c-11.39,11.39-29.23,12.43-41.8,3.1-1.27-.92-2.48-1.97-3.62-3.11-6.27-6.27-9.4-14.48-9.4-22.72,0-2.6,.31-5.18,.94-7.72,.4-.17,.79-.34,1.18-.51l-.82-.82c1.46-4.99,4.17-9.71,8.11-13.65L124.48-4.18c13.04-13.04,34.52-12.53,46.89,1.55,11.29,12.86,9.85,32.55-2.25,44.65Z"/>
      <path class="cls-2" d="M237.34,81.04l-75.93,75.93c-12.1,12.1-31.79,13.53-44.64,2.25-14.09-12.37-14.61-33.84-1.57-46.88L191.15,36.39c12.1-12.1,31.79-13.52,44.64-2.22,14.07,12.38,14.59,33.84,1.55,46.87Z"/>
      <path class="cls-2" d="M290.09,135.35l-51.96,51.96c-14.68-4.11-31.11-.41-42.63,11.12-6.29,6.29-10.26,14.05-11.87,22.2-5.74-1.28-11.17-4.15-15.62-8.6-6.27-6.27-9.4-14.48-9.4-22.72,0-8.2,3.13-16.43,9.4-22.7l77.45-77.45c13.04-13.04,34.51-12.52,46.87,1.56,11.29,12.85,9.85,32.54-2.24,44.63Z"/>
      <path class="cls-2" d="M329.7,204.2l-33.39,33.39-39.16-39.16c-2.14-2.14-4.46-4.02-6.9-5.62l34.79-34.79c13.05-13.05,34.5-12.53,46.88,1.54,11.3,12.85,9.88,32.54-2.22,44.64Z"/>
    </g>
  </g>
</svg>