<?xml version="1.0" encoding="UTF-8"?>
<svg id="Layer_1" data-name="Layer 1" xmlns="http://www.w3.org/2000/svg" viewBox="0 0 888 1056.77">
  <defs>
    <style>
      .cls-1 {
        fill: #232323;
      }

      .cls-2 {
        fill: #fffffe;
      }

      .cls-3 {
        fill: #fdecdc;
      }

      .cls-4 {
        fill: #078080;
      }
    </style>
  </defs>
  <rect class="cls-3" y="0" width="888" height="1056.77"/>
  <g>
    <circle class="cls-4" cx="49.41" cy="633.64" r="338.05"/>
    <path class="cls-1" d="M248.15,368.11c146.41,109.59,176.38,317.86,66.79,464.27C205.36,978.8-2.91,1008.76-149.33,899.18c-146.41-109.59-176.38-317.86-66.79-464.27,109.59-146.41,317.86-176.38,464.27-66.79m7.64-10.21c-152.29-113.98-368.14-82.93-482.13,69.36-113.98,152.29-82.93,368.14,69.36,482.13,152.29,113.98,368.14,82.93,482.13-69.36,113.98-152.29,82.93-368.14-69.36-482.13h0Z"/>
  </g>
  <g>
    <circle class="cls-4" cx="464.67" cy="157.51" r="338.05"/>
    <path class="cls-1" d="M663.41-108.02C809.82,1.57,839.78,209.84,730.2,356.25c-109.59,146.41-317.86,176.38-464.27,66.79C119.51,313.45,89.55,105.18,199.14-41.23c109.59-146.41,317.86-176.38,464.27-66.79m7.64-10.21c-152.29-113.98-368.14-82.93-482.13,69.36-113.98,152.29-82.93,368.14,69.36,482.13,152.29,113.98,368.14,82.93,482.13-69.36,113.98-152.29,82.93-368.14-69.36-482.13h0Z"/>
  </g>
  <g>
    <g>
      <circle class="cls-4" cx="716.02" cy="797.68" r="338.05"/>
      <path class="cls-1" d="M914.76,532.15c146.41,109.59,176.38,317.86,66.79,464.27-109.59,146.41-317.86,176.38-464.27,66.79-146.41-109.59-176.38-317.86-66.79-464.27,109.59-146.41,317.86-176.38,464.27-66.79m7.64-10.21c-152.29-113.98-368.14-82.93-482.13,69.36-113.98,152.29-82.93,368.14,69.36,482.13,152.29,113.98,368.14,82.93,482.13-69.36,113.98-152.29,82.93-368.14-69.36-482.13h0Z"/>
    </g>
    <path class="cls-2" d="M859.66,1019.22l-5.92-73.54c-.63-7.8-3.96-15.06-9.2-20.62,4.77-6.56,7.02-14.51,6.36-22.68-.63-7.89-4.04-15.23-9.38-20.81,4.38-6.37,6.57-14.15,5.94-22.04h0s-.03-.4-.03-.4c-.76-9.45-5.42-17.98-12.57-23.74,2.08-4.58,2.99-9.66,2.58-14.83l-9.23-114.7c-4.14-51.42-44.5-75.49-59.35-82.66l-.99-12.31c1.98-.95,3.76-2.31,5.21-4.03,2.74-3.22,4.06-7.3,3.72-11.51-.34-4.21-2.29-8.03-5.51-10.77-1.88-1.61-4.07-2.72-6.4-3.31l-2.56-31.84c-1.07-13.31-12.76-23.27-26.08-22.2l-53.56,4.31c-13.31,1.07-23.27,12.77-22.2,26.09l2.56,31.85c-6.05,2.61-10.07,8.86-9.51,15.79,.34,4.21,2.3,8.03,5.49,10.75,1.72,1.47,3.69,2.54,5.81,3.15l.99,12.3c-13.52,9.45-49.51,39.66-45.38,91.08l9.23,114.7c.42,5.17,2.13,10.04,4.92,14.23-6.13,6.83-9.38,15.99-8.61,25.43l.03,.41c.63,7.88,4.04,15.22,9.38,20.81-4.38,6.36-6.57,14.15-5.93,22.04,.66,8.16,4.15,15.66,9.91,21.37-4.29,6.32-6.42,14.03-5.79,21.83l5.92,73.54c.73,9.04,4.93,17.26,11.84,23.15,6.2,5.28,13.91,8.11,21.96,8.11,.92,0,1.85-.04,2.78-.11l152.45-12.26c9.04-.73,17.26-4.93,23.15-11.84s8.72-15.7,7.99-24.74Zm-192.11,21.8c-1.83-1.55-2.94-3.72-3.13-6.1l-5.92-73.54c-.4-4.93,3.29-9.26,8.21-9.65l152.45-12.26c.24-.02,.49-.03,.73-.03,2.12,0,4.15,.75,5.79,2.14,1.83,1.55,2.94,3.72,3.13,6.1l5.92,73.54c.19,2.38-.56,4.69-2.11,6.52-1.55,1.83-3.72,2.94-6.1,3.13l-152.45,12.26c-2.37,.19-4.69-.56-6.52-2.11Zm17.93-484.59l51.98-4.18,1.87,23.24-51.98,4.18-1.87-23.24Zm-2.29,93.58l3.86-2.21c3.03-1.73,4.78-5.06,4.5-8.53l-2.55-31.67-.16-2.95,52.99-4.26c.04,.14,.09,.28,.14,.42l2.4,29.78,.37,4.42c.29,3.45,2.53,6.43,5.76,7.66l4.09,1.56c.12,.04,11.69,4.63,23.35,14.81,6.78,5.91,12.31,12.55,16.45,19.75,5.06,8.83,8.06,18.61,8.9,29.09l2.52,31.33c-4.37-1.05-7.9-3.3-12-5.91-7.94-5.05-17.8-11.34-35.86-9.89-.53,.04-1.08,.09-1.62,.15-18.05,1.87-28.97,10.09-35.62,16.12-2.18,1.98-4.16,3.96-5.9,5.71-2.39,2.4-4.45,4.47-6.31,5.84-1.6,1.18-5.53,2.72-11.31,3.18-3.94,.32-8.04,.08-11.82-.68-.6-.12-1.2-.26-1.81-.41-.04,0-.07-.02-.1-.03-.26-.06-.51-.13-.79-.21-.59-.17-1.17-.35-1.7-.52-4.01-1.35-7.26-3.27-9.66-5.72-6.34-6.47-14.67-10.68-24.79-12.5-.06,0-.11-.02-.17-.03l-.92-11.44c.05-.51,.05-1.03,0-1.56l-.06-.75c-.84-10.48,.55-20.62,4.14-30.14,2.92-7.76,7.32-15.2,13.08-22.12,9.88-11.9,20.56-18.28,20.59-18.3Zm-24.07,215.29l153.73-12.37c.24-.02,.49-.03,.73-.03,2.12,0,4.16,.75,5.8,2.14,1.83,1.55,2.94,3.72,3.13,6.1l.03,.39c.19,2.38-.56,4.7-2.12,6.52-1.55,1.83-3.72,2.94-6.1,3.13l-153.73,12.37h0c-2.38,.19-4.69-.56-6.52-2.12-1.83-1.56-2.94-3.72-3.13-6.11l-.03-.39c-.4-4.92,3.29-9.25,8.21-9.65Zm3.48,43.24l153.73-12.37c.24-.02,.49-.03,.73-.03,2.12,0,4.16,.75,5.79,2.14,1.83,1.55,2.94,3.72,3.13,6.1,.19,2.39-.55,4.7-2.1,6.52-1.57,1.85-3.69,2.93-6.11,3.13l-153.73,12.37c-2.42,.2-4.68-.54-6.52-2.1-1.83-1.56-2.94-3.73-3.13-6.11-.4-4.92,3.29-9.25,8.21-9.65Zm148.72-82.31c-.87,1.03-2.09,1.65-3.42,1.76l-147.87,11.9c-2.75,.22-5.19-1.85-5.42-4.61l-5.98-74.29c1.88,.9,3.49,2.02,4.8,3.36,10.62,10.84,27.71,16.45,45.75,15,9.76-.79,18.1-3.54,24.1-7.95,3.41-2.5,6.34-5.44,9.17-8.28l.1-.1c1.6-1.61,3.25-3.27,4.96-4.81,4.89-4.43,10.86-8.68,21.44-9.77,.34-.04,.68-.07,1.02-.1,9.67-.78,13.7,1.79,20.42,6.07,4.97,3.16,11.16,7.1,19.59,9.12,2.84,.68,5.5,1.25,7.93,1.69l4.61,57.35c.11,1.33-.32,2.63-1.19,3.66Z"/>
  </g>
  <g>
    <path class="cls-2" d="M105.86,511.84c-18.62-3.74-32.64-20.21-32.64-39.94,0-8.38,2.52-16.16,6.84-22.62-7.31-9.7-15.93-18.37-25.57-25.75-6.68,4.81-14.88,7.64-23.74,7.64-20.24,0-37.03-14.76-40.18-34.11-5.75-.75-11.62-1.14-17.57-1.14-6.45,0-12.79,.46-18.99,1.35-3.23,19.24-19.97,33.91-40.14,33.91-8.55,0-16.48-2.64-23.03-7.14-9.29,7.22-17.61,15.63-24.74,25.02,4.43,6.52,7.02,14.38,7.02,22.85,0,19.85-14.19,36.38-32.98,39.99-.81,5.92-1.23,11.97-1.23,18.11s.44,12.56,1.31,18.65c18.74,3.65,32.9,20.14,32.9,39.97,0,8.36-2.52,16.12-6.83,22.58,7.33,9.61,15.93,18.22,25.56,25.54,6.61-4.66,14.68-7.38,23.39-7.38,20.05,0,36.71,14.48,40.09,33.56,5.78,.77,11.67,1.16,17.67,1.16s11.89-.39,17.67-1.16c3.38-19.08,20.04-33.56,40.09-33.56,8.71,0,16.78,2.72,23.39,7.38,9.32-7.08,17.67-15.36,24.84-24.6-4.71-6.64-7.49-14.76-7.49-23.52,0-20.32,14.88-37.17,34.32-40.22,.84-6.01,1.27-12.16,1.27-18.39s-.42-12.23-1.23-18.17ZM-27.01,601.85c-39.54,0-71.6-32.05-71.6-71.6s32.06-71.6,71.6-71.6,71.6,32.06,71.6,71.6-32.05,71.6-71.6,71.6Z"/>
    <path class="cls-2" d="M295.55,669.61c-12.19-10.14-15.95-27.79-8.12-42.28,3.32-6.15,8.26-10.87,14-13.9-1.52-10.02-4.41-19.81-8.56-29.05-6.81,.88-13.96-.3-20.46-3.81-14.86-8.03-21.33-25.53-15.97-40.99-3.92-2.84-8.08-5.45-12.45-7.81-4.74-2.56-9.57-4.74-14.48-6.55-10.01,12.85-28.12,16.97-42.93,8.97-6.28-3.39-11.05-8.48-14.07-14.38-9.69,1.61-19.14,4.49-28.09,8.55,.67,6.54-.56,13.34-3.92,19.56-7.88,14.57-24.86,21.08-40.08,16.28-2.94,4.03-5.65,8.3-8.09,12.81s-4.66,9.4-6.44,14.21c12.31,10.12,16.16,27.85,8.29,42.4-3.32,6.14-8.25,10.84-13.97,13.87,1.56,9.97,4.47,19.7,8.63,28.9,6.7-.8,13.71,.41,20.1,3.86,14.72,7.96,21.21,25.2,16.12,40.55,3.94,2.86,8.11,5.48,12.51,7.86s8.89,4.43,13.43,6.16c10.05-12.67,28.03-16.69,42.75-8.73,6.4,3.46,11.24,8.66,14.25,14.7,9.65-1.5,19.07-4.27,28-8.2-.83-6.74,.36-13.81,3.84-20.24,8.06-14.92,25.67-21.38,41.16-15.91,3-4.08,5.75-8.43,8.23-13,2.45-4.53,4.55-9.14,6.31-13.82Zm-133.28,13.37c-29.03-15.69-39.85-51.94-24.16-80.98,15.69-29.03,51.95-39.85,80.98-24.16,29.04,15.69,39.85,51.95,24.16,80.98-15.69,29.04-51.94,39.85-80.98,24.16Z"/>
    <path class="cls-2" d="M97.73,846.31c-7.45-13.99-4.25-31.76,8.47-42.21,5.4-4.44,11.76-6.94,18.21-7.57,2.38-9.85,3.41-20,3.06-30.13-6.64-1.76-12.81-5.55-17.5-11.27-10.72-13.05-10.1-31.7,.71-43.98-2.56-4.11-5.42-8.1-8.57-11.94-3.42-4.16-7.07-8.01-10.93-11.53-14.12,8.11-32.45,5.08-43.13-7.93-4.53-5.52-7.03-12.03-7.59-18.63-9.58-2.17-19.41-3.08-29.24-2.7-1.86,6.31-5.56,12.14-11.02,16.63-12.8,10.51-30.99,10.12-43.26-.08-4.25,2.62-8.37,5.55-12.33,8.8s-7.87,6.94-11.34,10.72c7.58,14.02,4.43,31.89-8.35,42.39-5.39,4.43-11.73,6.91-18.18,7.56-2.32,9.82-3.31,19.93-2.94,30.02,6.51,1.8,12.53,5.56,17.15,11.18,10.62,12.93,10.11,31.34-.41,43.63,2.56,4.13,5.44,8.14,8.61,12.01,3.17,3.86,6.55,7.46,10.11,10.78,14.1-7.93,32.26-4.85,42.88,8.08,4.62,5.62,7.13,12.26,7.63,18.99,9.5,2.26,19.27,3.26,29.03,2.99,1.79-6.56,5.55-12.65,11.21-17.29,13.11-10.76,31.85-10.09,44.12,.83,4.32-2.64,8.51-5.62,12.53-8.93s7.66-6.75,11.07-10.41Zm-128.44-38.01c-20.94-25.5-17.26-63.15,8.25-84.1,25.5-20.94,63.16-17.25,84.1,8.25,20.95,25.51,17.25,63.16-8.25,84.1-25.51,20.95-63.15,17.26-84.1-8.25Z"/>
  </g>
  <g>
    <path class="cls-2" d="M396.09,127.12v107.67c-15.96-5.57-30.12-14.98-41.38-27.13V127.12c0-3.5,2.83-6.33,6.33-6.33h28.72c3.5,0,6.33,2.83,6.33,6.33Z"/>
    <path class="cls-2" d="M450.64,161.49v76.94c-6.68,1.37-13.61,2.08-20.69,2.08s-14-.72-20.69-2.08v-76.94c0-3.5,2.83-6.33,6.32-6.33h28.73c3.5,0,6.33,2.83,6.33,6.33Z"/>
    <path class="cls-2" d="M506.03,90.71v116.02c-11.19,12.38-25.36,22.01-41.38,27.76V90.71c0-3.5,2.83-6.33,6.33-6.33h28.72c3.5,0,6.33,2.83,6.33,6.33Z"/>
    <path class="cls-2" d="M640.51,294.85l-81.75-68.45c17.31-25.15,27.45-55.63,27.45-88.47,0-86.31-69.97-156.28-156.27-156.28s-156.27,69.97-156.27,156.28,69.97,156.27,156.27,156.27c34.7,0,66.75-11.32,92.67-30.44l67.7,80.86s25.29,31.61,53.44,3.5l.23,.2c28.15-28.15-3.48-53.46-3.48-53.46Zm-134.48-72.67c-11.81,10.67-25.86,18.89-41.38,23.87-4.55,1.46-9.23,2.65-14.02,3.52-6.71,1.24-13.63,1.88-20.69,1.88s-13.98-.64-20.69-1.88c-4.66-.86-9.21-2-13.65-3.4-15.28-4.85-29.17-12.84-40.89-23.22-23.49-20.8-38.3-51.18-38.3-85.03,0-62.7,50.83-113.53,113.53-113.53s113.53,50.83,113.53,113.53c0,33.43-14.45,63.48-37.44,84.26Z"/>
  </g>
</svg>