<?xml version="1.0" encoding="UTF-8"?>
<svg id="Layer_1" data-name="Layer 1" xmlns="http://www.w3.org/2000/svg" viewBox="0 0 888 1056.77">
  <defs>
    <style>
      .cls-1 {
        font-family: AbrilFatface-Regular, 'Abril Fatface';
        font-size: 266.1px;
      }

      .cls-1, .cls-2 {
        fill: #fffffe;
      }

      .cls-3 {
        fill: #232323;
      }

      .cls-4 {
        letter-spacing: -.11em;
      }

      .cls-5 {
        fill: #fdecdc;
      }

      .cls-6 {
        fill: #078080;
      }
    </style>
  </defs>
  <rect class="cls-5" y=".85" width="888" height="1056.77"/>
  <g>
    <circle class="cls-6" cx="173.01" cy="887.32" r="338.05"/>
    <path class="cls-3" d="M173.01,555.66c182.88,0,331.67,148.79,331.67,331.67s-148.79,331.67-331.67,331.67-331.67-148.79-331.67-331.67S-9.87,555.66,173.01,555.66m0-12.76c-190.22,0-344.43,154.2-344.43,344.43S-17.21,1231.75,173.01,1231.75s344.43-154.2,344.43-344.43-154.2-344.43-344.43-344.43h0Z"/>
  </g>
  <g>
    <g>
      <circle class="cls-6" cx="313.54" cy="226.45" r="338.05"/>
      <path class="cls-3" d="M313.54-105.22c182.88,0,331.67,148.79,331.67,331.67s-148.79,331.67-331.67,331.67S-18.13,409.33-18.13,226.45,130.66-105.22,313.54-105.22m0-12.76C123.32-117.98-30.89,36.23-30.89,226.45s154.2,344.43,344.43,344.43,344.43-154.2,344.43-344.43S503.76-117.98,313.54-117.98h0Z"/>
    </g>
    <g>
      <path class="cls-2" d="M509.53,191.87l30.8-65.95c5.27-11.29,.4-24.7-10.89-29.97L278.62-21.2c-11.29-5.27-24.7-.4-29.97,10.89L91.34,326.51c-5.27,11.28-.4,24.7,10.89,29.97l250.83,117.14c11.29,5.27,24.71,.39,29.97-10.89l42.4-90.79,8.63,.31,1.66-11.26c2.27-3.51,8.95-13.33,27.73-38.73,.6,.21,1.18,.42,1.8,.59,1.74,.47,3.49,.8,5.24,.97l-70.14,150.18c-8.88,19.02-31.51,27.24-50.53,18.36L89.96,371c-19.03-8.89-27.25-31.51-18.37-50.53L231.33-21.57c8.89-19.03,31.51-27.25,50.55-18.36l259.86,121.36c19.02,8.88,27.24,31.51,18.35,50.54l-19.75,42.28-30.8,17.62Z"/>
      <g>
        <path class="cls-2" d="M282.04,24.42l29.93,13.98-.85,1.83-8.81-4.12-25.47,54.54,2.99,1.4c4.71,2.2,9.14,2.51,13.29,.94,4.14-1.57,9.06-4.68,14.74-9.32l1.75,.82-10.67,18.72-44.07-20.58,.85-1.83,4.91,2.29,25.47-54.54-4.91-2.29,.85-1.83Z"/>
        <path class="cls-2" d="M332.46,119.87c-9.26-4.32-15-10.06-17.23-17.21-2.23-7.15-1.13-15.48,3.31-24.99,4.44-9.51,10.39-15.84,17.84-19.01,7.45-3.17,15.67-2.66,24.65,1.54,8.98,4.19,14.55,9.95,16.7,17.27,2.15,7.32,1,15.75-3.45,25.28-4.45,9.54-10.22,15.85-17.31,18.96-7.09,3.11-15.26,2.49-24.52-1.83Zm23.03-21.55l2.87-6.15c4.74-10.14,7.23-16.78,7.47-19.9,.31-3.57-.38-6.19-2.1-7.87-.96-.99-2.27-1.87-3.93-2.65-1.66-.78-3.19-1.22-4.59-1.33-1.4-.11-2.75,.2-4.04,.95-1.29,.75-2.46,1.62-3.5,2.62-1.04,1-2.22,2.54-3.53,4.63-1.83,3.06-4.21,7.72-7.14,13.99l-2.8,5.99c-3.16,6.76-5.14,11.69-5.95,14.79-.81,3.1-1.11,5.44-.9,7.02,.45,3.52,2.47,6.12,6.08,7.8,4.38,2.04,8.08,1.53,11.1-1.55,3.02-3.08,6.67-9.19,10.94-18.34Z"/>
        <path class="cls-2" d="M396.12,146.66l2.32-20.79-16.46-7.69-14.79,14.97,6.24,2.91-.74,1.58-12.72-5.94,.74-1.58,3.91,1.83,47.88-47.22,6.82,3.18-5.72,66.91,3.82,1.79-.74,1.58-27.19-12.7,.74-1.58,5.9,2.76Zm5.45-48.1l-17.99,18.13,15.05,7.03,2.94-25.16Z"/>
        <path class="cls-2" d="M492.66,124.7l-26.44,56.62-11.64-5.44-3.4-67.11-24.39,52.22,4.57,2.14-.74,1.58-11.39-5.32,.74-1.58,4.57,2.14,25.71-55.04-4.57-2.14,.74-1.58,22.95,10.72,2.29,51.91,18.76-40.16-4.57-2.14,.74-1.58,11.39,5.32-.74,1.58-4.57-2.14Z"/>
      </g>
      <path class="cls-2" d="M458.14,221.26l-14.71,8.41L224.18,127.28c-3.54-1.66-5.08-5.87-3.42-9.42,.83-1.77,2.29-3.04,4-3.66,1.7-.62,3.64-.58,5.41,.25l226.24,105.66c.64,.3,1.22,.69,1.73,1.15Z"/>
      <path class="cls-2" d="M409.41,254.29c-13.95,1.49-22.55,2.25-27.77,2.65l-178.97-83.59c-3.54-1.66-5.08-5.87-3.42-9.42,.83-1.77,2.28-3.03,4-3.64,1.7-.62,3.64-.59,5.42,.23l200.76,93.76Z"/>
      <path class="cls-2" d="M350.95,279.15c-2.56,4.16-5.16,8.16-7.8,11.98l-160.43-74.92c-3.54-1.66-5.08-5.87-3.42-9.42,.83-1.77,2.28-3.03,4-3.64,1.7-.62,3.64-.59,5.42,.23l162.24,75.77Z"/>
      <path class="cls-2" d="M319.89,320.19c-3.58,3.87-7.1,7.45-10.5,10.72l-147.97-69.1c-3.54-1.66-5.08-5.87-3.42-9.42,.83-1.77,2.28-3.03,4-3.64,1.7-.62,3.64-.59,5.42,.23l152.47,71.21Z"/>
      <path class="cls-2" d="M376.61,407.88c-.83,1.77-2.29,3.04-4,3.66-1.7,.62-3.64,.58-5.39-.24l-48.91-22.84c5.56-2.11,12.12-4.37,19.54-6.5l35.36,16.52c3.53,1.65,5.06,5.87,3.41,9.41Z"/>
      <path class="cls-2" d="M281.03,371.04l-140.07-65.42c-3.54-1.66-5.08-5.86-3.43-9.4,.83-1.77,2.29-3.04,4-3.66,1.7-.62,3.64-.59,5.42,.23l133.22,62.22c-3.49,2.38-5.66,3.67-6.06,3.9l6.92,12.12Z"/>
      <path class="cls-2" d="M420.16,355.58c-74.07-2.6-126.5,25.68-131.26,28.33l97.27-57.81s7.95,7.77,17.74,1.06c9.78-6.72,3.74-17.94,3.74-17.94l-1.02-1.67s-6.67-10.87-17.39-5.76c-10.72,5.09-8,15.86-8,15.86l-98.99,55.22c3.2-1.87,55.06-32.97,90.57-99.4,0,0,2.54,1.01,58.37-5.31l11.27,19.51,.3,.55,11.29,19.54c-33.51,45.1-33.9,47.81-33.9,47.81Z"/>
      <rect class="cls-2" x="486.78" y="162.1" width="68.95" height="162.82" rx="10.74" ry="10.74" transform="translate(473.89 -329.86) rotate(60.24)"/>
    </g>
  </g>
  <g>
    <circle class="cls-6" cx="804.98" cy="619.21" r="338.05"/>
    <path class="cls-3" d="M804.98,287.54c182.88,0,331.67,148.79,331.67,331.67s-148.79,331.67-331.67,331.67-331.67-148.79-331.67-331.67,148.79-331.67,331.67-331.67m0-12.76c-190.22,0-344.43,154.2-344.43,344.43s154.2,344.43,344.43,344.43,344.43-154.2,344.43-344.43-154.2-344.43-344.43-344.43h0Z"/>
  </g>
  <path class="cls-2" d="M916.85,453.11l-17.14,14.8c-1.76-2.35-3.6-4.67-5.55-6.92-2.69-3.11-5.46-6.05-8.3-8.82l17.29-14.93c4.7-4.05,5.22-11.15,1.16-15.84-4.05-4.7-11.15-5.22-15.84-1.16l-20.33,17.55c-8.05-5.36-16.61-9.61-25.69-12.74-19.63-6.76-40.71-7.2-63.22-1.32-22.51,5.89-45,18.52-67.47,37.92l-95.03,82.04c-6.57,5.67-7.29,15.58-1.62,22.15l44.73,51.8-26.41,22.8c-4.7,4.05-5.22,11.15-1.16,15.84,4.05,4.7,11.15,5.22,15.84,1.16l26.41-22.8,13.71,15.88-26.41,22.8c-4.7,4.05-5.22,11.15-1.16,15.84s11.15,5.22,15.84,1.16l26.41-22.8,142.38,164.91c5.67,6.57,15.58,7.29,22.15,1.62l34.47-29.76c6.57-5.67,7.29-15.58,1.62-22.15l-85.99-99.6,48.67-42.02c23.85-20.59,40.02-41.81,48.51-63.66,8.48-21.84,10.54-42.74,6.15-62.68-2.08-9.44-5.18-18.38-9.28-26.83l19.96-17.23c4.7-4.05,5.22-11.15,1.16-15.84-4.05-4.7-11.15-5.22-15.84-1.16Zm-212.83,97.97l46.18-39.87c19.57-16.9,37.76-23.13,54.58-18.73l-86.71,74.86-14.04-16.27Zm28.72,33.27l92.97-80.26c2.89,2.51,5.74,5.37,8.54,8.62,2.01,2.33,3.82,4.68,5.43,7.03l-93.24,80.5-13.71-15.88Zm116.62-30.6c-1.42,14.06-10.18,28.03-26.26,41.91l-46.18,39.87-15.8-18.3,87.79-75.8c.7,4.07,.86,8.18,.44,12.32Z"/>
  <text class="cls-1" transform="translate(160.41 1133.2) rotate(-64.17)"><tspan class="cls-4" x="0" y="0">PA</tspan><tspan x="294.84" y="0">Y</tspan></text>
</svg>