<?xml version="1.0" encoding="utf-8"?>
<!-- Generator: Adobe Illustrator 26.5.0, SVG Export Plug-In . SVG Version: 6.00 Build 0)  -->
<svg version="1.1" id="Layer_1" xmlns="http://www.w3.org/2000/svg" xmlns:xlink="http://www.w3.org/1999/xlink" x="0px" y="0px"
	 viewBox="0 0 4000 2363.17" style="enable-background:new 0 0 4000 2363.17;" xml:space="preserve">
<style type="text/css">
	.st0{fill-rule:evenodd;clip-rule:evenodd;fill:#F46F62;}
	.st1{fill-rule:evenodd;clip-rule:evenodd;fill:#FDEBDC;}
	.st2{fill-rule:evenodd;clip-rule:evenodd;fill:#FCD9CB;}
	.st3{fill-rule:evenodd;clip-rule:evenodd;fill:#FAC8B9;}
	.st4{fill-rule:evenodd;clip-rule:evenodd;fill:#F9B6A8;}
	.st5{fill-rule:evenodd;clip-rule:evenodd;fill:#F8A496;}
	.st6{fill-rule:evenodd;clip-rule:evenodd;fill:#F79285;}
	.st7{fill-rule:evenodd;clip-rule:evenodd;fill:#F58173;}
</style>
<g>
	<rect x="-0.4" class="st0" width="4000.4" height="2363.17"/>
	<path class="st1" d="M2395.59,1181.58c0-218.59-177.2-395.79-395.79-395.79s-395.79,177.2-395.79,395.79
		c0,218.59,177.2,395.79,395.79,395.79S2395.59,1400.17,2395.59,1181.58"/>
	<path class="st2" d="M1999.8,585.19c-329.38,0-596.39,267.01-596.39,596.39c0,329.38,267.01,596.39,596.39,596.39
		s596.39-267.01,596.39-596.39C2596.19,852.21,2329.18,585.19,1999.8,585.19 M1604.01,1181.58c0-218.59,177.2-395.79,395.79-395.79
		s395.79,177.2,395.79,395.79c0,218.59-177.2,395.79-395.79,395.79S1604.01,1400.17,1604.01,1181.58z"/>
	<path class="st3" d="M1999.8,379.25c-443.12,0-802.33,359.21-802.33,802.33c0,443.11,359.21,802.33,802.33,802.33
		c443.11,0,802.33-359.21,802.33-802.33C2802.13,738.47,2442.92,379.25,1999.8,379.25 M1403.41,1181.58
		c0-329.38,267.01-596.39,596.39-596.39s596.39,267.01,596.39,596.39c0,329.38-267.01,596.39-596.39,596.39
		S1403.41,1510.96,1403.41,1181.58z"/>
	<path class="st4" d="M1999.8,174.42c-556.24,0-1007.16,450.92-1007.16,1007.16c0,556.24,450.92,1007.16,1007.16,1007.16
		s1007.16-450.92,1007.16-1007.16C3006.96,625.34,2556.04,174.42,1999.8,174.42 M1197.47,1181.58
		c0-443.12,359.21-802.33,802.33-802.33c443.11,0,802.33,359.21,802.33,802.33c0,443.11-359.22,802.33-802.33,802.33
		C1556.68,1983.91,1197.47,1624.7,1197.47,1181.58z"/>
	<path class="st5" d="M1999.8,0C1347.23,0,818.22,529.01,818.22,1181.58c0,652.57,529.01,1181.58,1181.58,1181.58
		s1181.58-529.01,1181.58-1181.58C3181.38,529.01,2652.37,0,1999.8,0 M992.64,1181.58c0-556.24,450.92-1007.16,1007.16-1007.16
		s1007.16,450.92,1007.16,1007.16c0,556.24-450.92,1007.16-1007.16,1007.16S992.64,1737.82,992.64,1181.58z"/>
	<path class="st6" d="M818.22,1181.58C818.22,529.01,1347.23,0,1999.8,0h-688.97c-405.9,237.19-678.59,677.54-678.59,1181.58
		c0,504.05,272.69,944.4,678.59,1181.58l688.96,0C1347.23,2363.17,818.22,1834.15,818.22,1181.58"/>
	<path class="st7" d="M632.25,1181.58c0-504.04,272.69-944.4,678.59-1181.58H970.43C640.95,287.28,432.74,710.12,432.74,1181.58
		c0,471.47,208.21,894.31,537.69,1181.58h340.41C904.94,2125.98,632.25,1685.63,632.25,1181.58"/>
	<path class="st6" d="M3367.35,1181.58c0-504.04-272.69-944.4-678.59-1181.58H1999.8c652.57,0,1181.58,529.01,1181.58,1181.58
		c0,652.57-529.01,1181.58-1181.58,1181.58h688.96C3094.66,2125.98,3367.35,1685.63,3367.35,1181.58"/>
	<path class="st7" d="M2688.77,0c405.9,237.19,678.59,677.54,678.59,1181.58c0,504.05-272.69,944.4-678.59,1181.58h340.41
		c329.48-287.28,537.69-710.12,537.69-1181.58c0-471.47-208.2-894.31-537.69-1181.58H2688.77z"/>
</g>
</svg>
