<?xml version="1.0" encoding="UTF-8"?>
<svg id="Layer_1" data-name="Layer 1" xmlns="http://www.w3.org/2000/svg" viewBox="0 0 425 183">
  <defs>
    <style>
      .cls-1 {
        fill: #232323;
      }

      .cls-2 {
        fill: #f45d48;
      }

      .cls-3 {
        fill: #fffffe;
      }

      .cls-4 {
        fill: #078080;
      }
    </style>
  </defs>
  <g>
    <g>
      <g>
        <circle class="cls-4" cx="89.5" cy="91.5" r="73.04"/>
        <path class="cls-1" d="M89.5,20.46c39.17,0,71.04,31.87,71.04,71.04s-31.87,71.04-71.04,71.04S18.46,130.67,18.46,91.5,50.33,20.46,89.5,20.46m0-4C48.05,16.46,14.46,50.06,14.46,91.5s33.6,75.04,75.04,75.04,75.04-33.6,75.04-75.04S130.94,16.46,89.5,16.46h0Z"/>
      </g>
      <path class="cls-3" d="M128.15,81.33v30.92c0,2.5-.24,4.95-.69,7.32-3.42,17.85-19.12,31.34-37.96,31.34s-34.04-13.06-37.79-30.49c-.57-2.63-.87-5.36-.87-8.17V63.39c0-3.71,3.01-6.72,6.72-6.72,1.85,0,3.53,.75,4.75,1.97,1.22,1.22,1.97,2.89,1.97,4.75v29.36c0,.73,.59,1.32,1.33,1.32s1.32-.59,1.32-1.32V46.37c0-3.71,3.01-6.72,6.72-6.72,1.86,0,3.54,.75,4.75,1.97,1.21,1.22,1.97,2.9,1.97,4.75v42.92c0,.67,.54,1.21,1.21,1.21s1.21-.54,1.21-1.21V38.81c0-3.71,3.01-6.72,6.72-6.72,1.85,0,3.53,.75,4.75,1.97,1.21,1.22,1.97,2.89,1.97,4.75v50.47c0,.73,.59,1.32,1.32,1.32s1.32-.59,1.32-1.32V46.37c0-3.71,3.01-6.72,6.72-6.72,1.85,0,3.54,.75,4.75,1.97s1.97,2.9,1.97,4.75v57.57s-5.73,.24-10.96,2.11c-1.56,.55-3.07,1.25-4.37,2.13-5.7,3.83-7.24,5.53-8.78,9.05-1.54,3.51,1.81-.32,3.46-1.92,1.65-1.6,6.16-6.17,13.41-7.71,5.74-1.22,7.5-1.08,7.98-.97,.04,.02,.09,.04,.14,.05,0,0,.02,0,.02,0,0,0,0,0,0,0h0c.1,.03,.21,.04,.31,.04,.67,0,1.22-.54,1.22-1.22v-24.19c0-3.71,3.01-6.72,6.72-6.72,1.85,0,3.53,.75,4.75,1.97,1.22,1.22,1.97,2.89,1.97,4.75Z"/>
    </g>
    <g>
      <g>
        <circle class="cls-4" cx="335.5" cy="91.5" r="73.04" transform="translate(81.28 328.79) rotate(-58.28)"/>
        <path class="cls-1" d="M335.5,20.46c39.17,0,71.04,31.87,71.04,71.04s-31.87,71.04-71.04,71.04-71.04-31.87-71.04-71.04,31.87-71.04,71.04-71.04m0-4c-41.44,0-75.04,33.6-75.04,75.04s33.6,75.04,75.04,75.04,75.04-33.6,75.04-75.04-33.6-75.04-75.04-75.04h0Z"/>
      </g>
      <path class="cls-3" d="M374.16,81.33v30.92c0,2.5-.24,4.95-.69,7.32-3.42,17.85-19.12,31.34-37.96,31.34s-34.04-13.06-37.79-30.49c-.57-2.63-.87-5.36-.87-8.17V63.39c0-3.71,3.01-6.72,6.72-6.72,1.85,0,3.53,.75,4.75,1.97,1.22,1.22,1.97,2.89,1.97,4.75v29.36c0,.73,.59,1.32,1.33,1.32s1.32-.59,1.32-1.32V46.37c0-3.71,3.01-6.72,6.72-6.72,1.86,0,3.54,.75,4.75,1.97,1.21,1.22,1.97,2.9,1.97,4.75v42.92c0,.67,.54,1.21,1.21,1.21s1.21-.54,1.21-1.21V38.81c0-3.71,3.01-6.72,6.72-6.72,1.85,0,3.53,.75,4.75,1.97,1.21,1.22,1.97,2.89,1.97,4.75v50.47c0,.73,.59,1.32,1.32,1.32s1.32-.59,1.32-1.32V46.37c0-3.71,3.01-6.72,6.72-6.72,1.85,0,3.54,.75,4.75,1.97s1.97,2.9,1.97,4.75v57.57s-5.73,.24-10.96,2.11c-1.56,.55-3.07,1.25-4.37,2.13-5.7,3.83-7.24,5.53-8.78,9.05-1.54,3.51,1.81-.32,3.46-1.92,1.65-1.6,6.16-6.17,13.41-7.71,5.74-1.22,7.5-1.08,7.98-.97,.04,.02,.09,.04,.14,.05,0,0,.02,0,.02,0,0,0,0,0,0,0h0c.1,.03,.21,.04,.31,.04,.67,0,1.22-.54,1.22-1.22v-24.19c0-3.71,3.01-6.72,6.72-6.72,1.85,0,3.53,.75,4.75,1.97,1.22,1.22,1.97,2.89,1.97,4.75Z"/>
    </g>
  </g>
  <polygon class="cls-2" points="248.76 91.5 225.1 79.07 225.1 89.29 176.24 89.29 176.24 93.71 225.1 93.71 225.1 103.93 248.76 91.5"/>
</svg>