<?xml version="1.0" encoding="UTF-8"?>
<svg id="Layer_1" data-name="Layer 1" xmlns="http://www.w3.org/2000/svg" viewBox="0 0 216 216">
  <defs>
    <style>
      .cls-1 {
        fill: #232323;
      }

      .cls-2 {
        fill: #fffffe;
      }

      .cls-3 {
        fill: #078080;
      }
    </style>
  </defs>
  <g>
    <circle class="cls-3" cx="108" cy="108" r="106"/>
    <path class="cls-1" d="M108,4c57.35,0,104,46.65,104,104s-46.65,104-104,104S4,165.35,4,108,50.65,4,108,4m0-4C48.35,0,0,48.35,0,108s48.35,108,108,108,108-48.35,108-108S167.65,0,108,0h0Z"/>
  </g>
  <path class="cls-2" d="M163.64,93.36v44.51c0,3.6-.34,7.12-.99,10.53-4.92,25.69-27.52,45.1-54.64,45.1s-48.99-18.8-54.39-43.88c-.82-3.79-1.25-7.72-1.25-11.76V67.55c0-5.34,4.33-9.67,9.67-9.67,2.67,0,5.08,1.08,6.83,2.83,1.75,1.75,2.83,4.17,2.83,6.84v42.25c0,1.05,.85,1.9,1.91,1.9s1.9-.85,1.9-1.9V43.04c0-5.34,4.33-9.67,9.67-9.67,2.67,0,5.09,1.08,6.84,2.83,1.75,1.75,2.83,4.17,2.83,6.84v61.77c0,.96,.78,1.74,1.74,1.74s1.75-.78,1.75-1.74V32.17c0-5.34,4.33-9.67,9.67-9.67,2.67,0,5.08,1.08,6.83,2.83,1.75,1.75,2.83,4.17,2.83,6.84V104.81c0,1.04,.85,1.89,1.9,1.89s1.89-.85,1.89-1.89V43.04c0-5.34,4.33-9.67,9.67-9.67,2.67,0,5.09,1.08,6.84,2.83s2.83,4.17,2.83,6.84V125.9s-8.25,.35-15.78,3.04c-2.24,.8-4.42,1.8-6.29,3.06-8.2,5.52-10.42,7.96-12.64,13.02-2.22,5.05,2.6-.46,4.98-2.76,2.38-2.3,8.87-8.88,19.3-11.1,8.26-1.76,10.79-1.55,11.49-1.39,.06,.03,.13,.06,.2,.07,.01,0,.02,0,.03,0,0,0,0,0,0,0h0c.14,.04,.3,.06,.45,.06,.97,0,1.75-.78,1.75-1.75v-34.81c0-5.34,4.33-9.67,9.67-9.67,2.67,0,5.08,1.08,6.83,2.83,1.75,1.75,2.83,4.17,2.83,6.84Z"/>
</svg>