<?xml version="1.0" encoding="UTF-8"?>
<svg id="Layer_1" data-name="Layer 1" xmlns="http://www.w3.org/2000/svg" viewBox="0 0 425 183">
  <defs>
    <style>
      .cls-1 {
        fill: #232323;
      }

      .cls-2 {
        fill: #f45d48;
      }

      .cls-3 {
        fill: #fffffe;
      }

      .cls-4 {
        fill: #078080;
      }
    </style>
  </defs>
  <g>
    <g>
      <circle class="cls-4" cx="335.5" cy="91.5" r="73.04" transform="translate(81.28 328.79) rotate(-58.28)"/>
      <path class="cls-1" d="M335.5,20.46c39.17,0,71.04,31.87,71.04,71.04s-31.87,71.04-71.04,71.04-71.04-31.87-71.04-71.04,31.87-71.04,71.04-71.04m0-4c-41.44,0-75.04,33.6-75.04,75.04s33.6,75.04,75.04,75.04,75.04-33.6,75.04-75.04-33.6-75.04-75.04-75.04h0Z"/>
    </g>
    <g>
      <path class="cls-3" d="M374.16,79.33v17.21c0,1-.04,1.99-.11,2.98-.03,.42-.07,.83-.12,1.25-.04,.42-.09,.83-.15,1.25-2.66,18.75-18.78,33.18-38.27,33.18-21.19,0-38.4-17.05-38.65-38.17v-14.57c.43,.98,1.01,1.87,1.72,2.64,1.73,1.89,4.23,3.07,6.99,3.07,.35,0,.7-.02,1.04-.06,3.14-.34,5.83-2.22,7.29-4.87,1.65,2.81,4.7,4.7,8.19,4.7s6.53-1.88,8.18-4.68c1.62,2.92,4.74,4.91,8.31,4.91,2,0,3.86-.62,5.39-1.69,1.67,1.47,3.85,2.35,6.25,2.35h7.45v2.59c-.87,.05-9.86,.6-15.27,4.24-5.69,3.83-7.24,5.53-8.78,9.05-1.54,3.51,1.81-.32,3.46-1.92,1.65-1.6,6.16-6.17,13.41-7.71,4.09-.87,6.15-1.05,7.18-1.03,.42,0,.67,.04,.81,.07h0c.05,.02,.1,.04,.15,.05,0,0,0,0,0,0h0s0,0,0,0c.09,.03,.18,.04,.28,.04,0,0,0,0,0,0,.65,.15,1.25-.42,1.25-1.08v-5.8c0-.55-.44-.99-.99-.99h-8.96c-1.66,0-3.19-.58-4.38-1.55-.33-.26-.63-.55-.9-.87-.28-.33-.54-.68-.76-1.05-.61-1.03-.96-2.24-.96-3.53,0-2.08,.91-3.95,2.35-5.23,.38-.34,.8-.64,1.25-.89,.36-.2,.74-.37,1.14-.5h16.81v-.37h2.38c2.86,0,5.33,1.72,6.41,4.19,.38,.86,.59,1.81,.59,2.81Z"/>
      <path class="cls-3" d="M312.56,59.3v19.36c0,3.51-2.59,6.42-5.96,6.92-.34,.05-.68,.08-1.04,.08-1.93,0-3.68-.78-4.95-2.05-.4-.4-.75-.85-1.04-1.33,.03-.09,.07-.18,.1-.26h-.25c-.54-.99-.85-2.14-.85-3.35v-19.61c0-4.02,3.39-7.25,7.46-6.98,3.72,.24,6.53,3.5,6.53,7.23Z"/>
      <path class="cls-3" d="M329.08,54.8v23.39c0,3.73-2.81,6.98-6.53,7.22-4.08,.26-7.46-2.96-7.46-6.98v-23.4c0-3.73,2.81-6.98,6.53-7.22,4.08-.26,7.46,2.96,7.46,6.98Z"/>
      <path class="cls-3" d="M345.57,55.04v16.01c-2.89,1.63-4.85,4.73-4.85,8.28,0,1.94,.58,3.74,1.59,5.25-1.08,.69-2.36,1.08-3.73,1.08-1.93,0-3.68-.78-4.95-2.05-1.26-1.26-2.05-3.01-2.05-4.95v-23.86c0-4.02,3.39-7.24,7.46-6.98,3.72,.24,6.53,3.49,6.53,7.22Z"/>
      <path class="cls-3" d="M362.28,59.55v10.29h-12.07c-.66,0-1.31,.07-1.93,.2v-10.72c0-4.02,3.38-7.24,7.46-6.98,3.72,.24,6.53,3.49,6.53,7.22Z"/>
    </g>
  </g>
  <polygon class="cls-2" points="248.76 91.5 225.1 79.07 225.1 89.29 176.24 89.29 176.24 93.71 225.1 93.71 225.1 103.93 248.76 91.5"/>
  <g>
    <g>
      <circle class="cls-4" cx="94.61" cy="91.5" r="73.04" transform="translate(-32.96 123.88) rotate(-58.28)"/>
      <path class="cls-1" d="M94.61,20.46c39.17,0,71.04,31.87,71.04,71.04s-31.87,71.04-71.04,71.04S23.57,130.67,23.57,91.5,55.44,20.46,94.61,20.46m0-4c-41.44,0-75.04,33.6-75.04,75.04s33.6,75.04,75.04,75.04,75.04-33.6,75.04-75.04S136.05,16.46,94.61,16.46h0Z"/>
    </g>
    <g>
      <path class="cls-3" d="M133.26,79.33v17.21c0,1-.04,1.99-.11,2.98-.03,.42-.07,.83-.12,1.25-.04,.42-.09,.83-.15,1.25-2.66,18.75-18.78,33.18-38.27,33.18-21.19,0-38.4-17.05-38.65-38.17v-14.57c.43,.98,1.01,1.87,1.72,2.64,1.73,1.89,4.23,3.07,6.99,3.07,.35,0,.7-.02,1.04-.06,3.14-.34,5.83-2.22,7.29-4.87,1.65,2.81,4.7,4.7,8.19,4.7s6.53-1.88,8.18-4.68c1.62,2.92,4.74,4.91,8.31,4.91,2,0,3.86-.62,5.39-1.69,1.67,1.47,3.85,2.35,6.25,2.35h7.45v2.59c-.87,.05-9.86,.6-15.27,4.24-5.69,3.83-7.24,5.53-8.78,9.05-1.54,3.51,1.81-.32,3.46-1.92,1.65-1.6,6.16-6.17,13.41-7.71,4.09-.87,6.15-1.05,7.18-1.03,.42,0,.67,.04,.81,.07h0c.05,.02,.1,.04,.15,.05,0,0,0,0,0,0h0s0,0,0,0c.09,.03,.18,.04,.28,.04,0,0,0,0,0,0,.65,.15,1.25-.42,1.25-1.08v-5.8c0-.55-.44-.99-.99-.99h-8.96c-1.66,0-3.19-.58-4.38-1.55-.33-.26-.63-.55-.9-.87-.28-.33-.54-.68-.76-1.05-.61-1.03-.96-2.24-.96-3.53,0-2.08,.91-3.95,2.35-5.23,.38-.34,.8-.64,1.25-.89,.36-.2,.74-.37,1.14-.5h16.81v-.37h2.38c2.86,0,5.33,1.72,6.41,4.19,.38,.86,.59,1.81,.59,2.81Z"/>
      <path class="cls-3" d="M71.67,59.3v19.36c0,3.51-2.59,6.42-5.96,6.92-.34,.05-.68,.08-1.04,.08-1.93,0-3.68-.78-4.95-2.05-.4-.4-.75-.85-1.04-1.33,.03-.09,.07-.18,.1-.26h-.25c-.54-.99-.85-2.14-.85-3.35v-19.61c0-4.02,3.39-7.25,7.46-6.98,3.72,.24,6.53,3.5,6.53,7.23Z"/>
      <path class="cls-3" d="M88.19,54.8v23.39c0,3.73-2.81,6.98-6.53,7.22-4.08,.26-7.46-2.96-7.46-6.98v-23.4c0-3.73,2.81-6.98,6.53-7.22,4.08-.26,7.46,2.96,7.46,6.98Z"/>
      <path class="cls-3" d="M104.68,55.04v16.01c-2.89,1.63-4.85,4.73-4.85,8.28,0,1.94,.58,3.74,1.59,5.25-1.08,.69-2.36,1.08-3.73,1.08-1.93,0-3.68-.78-4.95-2.05-1.26-1.26-2.05-3.01-2.05-4.95v-23.86c0-4.02,3.39-7.24,7.46-6.98,3.72,.24,6.53,3.49,6.53,7.22Z"/>
      <path class="cls-3" d="M121.39,59.55v10.29h-12.07c-.66,0-1.31,.07-1.93,.2v-10.72c0-4.02,3.38-7.24,7.46-6.98,3.72,.24,6.53,3.49,6.53,7.22Z"/>
    </g>
  </g>
</svg>