<?xml version="1.0" encoding="UTF-8"?>
<svg id="Layer_1" data-name="Layer 1" xmlns="http://www.w3.org/2000/svg" viewBox="0 0 216 216">
  <defs>
    <style>
      .cls-1 {
        fill: #232323;
      }

      .cls-2 {
        fill: #f45d48;
      }

      .cls-3 {
        fill: #fffffe;
      }
    </style>
  </defs>
  <g>
    <circle class="cls-2" cx="108" cy="108" r="106"/>
    <path class="cls-1" d="M108,4c57.35,0,104,46.65,104,104s-46.65,104-104,104S4,165.35,4,108,50.65,4,108,4m0-4C48.35,0,0,48.35,0,108s48.35,108,108,108,108-48.35,108-108S167.65,0,108,0h0Z"/>
  </g>
  <g>
    <path class="cls-3" d="M163.63,90.48v24.77c0,1.44-.05,2.87-.16,4.29-.05,.6-.1,1.2-.17,1.8-.06,.6-.13,1.2-.22,1.8-3.83,26.99-27.03,47.75-55.08,47.75-30.5,0-55.26-24.53-55.63-54.94v-20.97c.61,1.4,1.45,2.69,2.48,3.8,2.5,2.72,6.08,4.42,10.06,4.42,.5,0,1-.03,1.49-.09,4.53-.49,8.39-3.2,10.49-7.01,2.37,4.05,6.77,6.77,11.79,6.77s9.4-2.71,11.78-6.74c2.33,4.21,6.82,7.06,11.96,7.06,2.88,0,5.56-.9,7.76-2.43,2.4,2.11,5.55,3.39,8.99,3.39h10.72v3.73c-1.25,.07-14.19,.86-21.98,6.1-8.19,5.52-10.42,7.96-12.63,13.02-2.22,5.05,2.6-.46,4.98-2.76,2.38-2.3,8.86-8.88,19.3-11.1,5.88-1.25,8.86-1.51,10.34-1.49,.6,0,.96,.05,1.16,.1h0c.07,.03,.14,.06,.22,.07,0,0,0,0,0,0h0s0,0,0,0c.13,.04,.26,.06,.4,.06,0,0,0,0,0,0,.93,.21,1.8-.6,1.8-1.56v-8.35c0-.79-.64-1.43-1.43-1.43h-12.89c-2.39,0-4.58-.83-6.31-2.23-.47-.37-.9-.79-1.3-1.25-.41-.47-.77-.98-1.09-1.52-.88-1.49-1.38-3.23-1.38-5.08,0-3,1.31-5.69,3.39-7.53,.55-.49,1.15-.92,1.8-1.28,.52-.29,1.07-.54,1.65-.72h24.2v-.54h3.43c4.12,0,7.67,2.48,9.22,6.03,.54,1.24,.85,2.6,.85,4.04Z"/>
    <path class="cls-3" d="M74.97,61.65v27.87c0,5.05-3.73,9.24-8.58,9.96-.49,.08-.99,.11-1.49,.11-2.78,0-5.3-1.12-7.12-2.95-.58-.58-1.08-1.22-1.5-1.92,.05-.13,.1-.25,.15-.37h-.36c-.78-1.43-1.23-3.08-1.23-4.82v-28.22c0-5.78,4.88-10.43,10.74-10.05,5.35,.35,9.4,5.03,9.4,10.4Z"/>
    <path class="cls-3" d="M98.75,55.18v33.67c0,5.36-4.05,10.05-9.4,10.4-5.87,.38-10.74-4.26-10.74-10.05V55.52c0-5.36,4.05-10.05,9.41-10.39,5.87-.38,10.74,4.27,10.74,10.05Z"/>
    <path class="cls-3" d="M122.49,55.52v23.04c-4.17,2.34-6.99,6.81-6.99,11.92,0,2.79,.84,5.39,2.29,7.55-1.56,.99-3.4,1.56-5.37,1.56-2.78,0-5.3-1.12-7.12-2.95-1.82-1.82-2.95-4.34-2.95-7.12V55.18c0-5.78,4.87-10.43,10.74-10.05,5.35,.35,9.4,5.03,9.4,10.39Z"/>
    <path class="cls-3" d="M146.54,62.01v14.81h-17.37c-.95,0-1.88,.1-2.78,.28v-15.43c0-5.78,4.87-10.43,10.74-10.05,5.35,.34,9.41,5.02,9.41,10.39Z"/>
  </g>
</svg>