<?xml version="1.0" encoding="UTF-8"?>
<svg id="Layer_1" data-name="Layer 1" xmlns="http://www.w3.org/2000/svg" viewBox="0 0 750 356">
  <defs>
    <style>
      .cls-1 {
        fill: #874538;
      }

      .cls-2 {
        fill: #cfd8dc;
      }

      .cls-3 {
        fill: #ffb878;
      }

      .cls-4 {
        fill: #c96f32;
      }

      .cls-5 {
        fill: #8b383e;
      }

      .cls-6 {
        font-size: 13.98px;
      }

      .cls-6, .cls-7, .cls-8, .cls-9, .cls-10, .cls-11 {
        fill: #fff;
        font-family: Boughies-Demo, Boughies;
      }

      .cls-12 {
        fill: #f2a668;
      }

      .cls-13 {
        fill: #ff8b66;
      }

      .cls-14 {
        fill: #1a4850;
      }

      .cls-15 {
        stroke: #db614d;
        stroke-miterlimit: 10;
        stroke-width: .75px;
      }

      .cls-15, .cls-16 {
        fill: none;
      }

      .cls-17 {
        fill: #e28a42;
      }

      .cls-18 {
        fill: #f24052;
      }

      .cls-19 {
        fill: #a8604f;
      }

      .cls-20 {
        fill: #105e99;
      }

      .cls-21 {
        fill: #0e3944;
      }

      .cls-22 {
        fill: #ef6e4b;
      }

      .cls-7 {
        font-size: 10.04px;
      }

      .cls-23 {
        fill: #662c33;
      }

      .cls-8 {
        font-size: 12.46px;
      }

      .cls-16 {
        stroke: #8b383e;
        stroke-linecap: round;
        stroke-linejoin: round;
      }

      .cls-24 {
        fill: #ce364c;
      }

      .cls-9 {
        font-size: 9.4px;
      }

      .cls-25 {
        fill: #a1b1b5;
      }

      .cls-26 {
        fill: #db614d;
      }

      .cls-10 {
        font-size: 9.25px;
      }

      .cls-27 {
        fill: #b72e48;
      }

      .cls-28 {
        fill: #0a3d56;
      }

      .cls-29 {
        fill: #0d527c;
      }

      .cls-11 {
        font-size: 10.84px;
      }

      .cls-30 {
        fill: #8bbddb;
      }
    </style>
  </defs>
  <g>
    <g>
      <path class="cls-29" d="M194.48,385.54c.21-13.22,2.85-33.24,3.21-36.56,.23-2.14,2.08-7.74,4.54-15.92,5.71-18.97,6.08-32.66,4.13-45.02l-12.76,.29c-2.21,9.81-14.73,20.4-6.21,31.75,.34,4.24,2.76,18.61,1.74,24.94-1.21,7.47-1.93,11.12-1.48,19.8,.19,3.61,2.15,14.93,2.14,20.72h4.7Z"/>
      <g>
        <path class="cls-13" d="M227.15,261.69l-2.45,2.91c-2.45,2.91-1.84,3.14-1.38,5.14,.43,1.87,3.93,1.46,5.33,.9,1.18-.47,4.33,.26,5.2-.4,.35-.26,0-.4-1.01-.5-1.19-.12-2.24-.64-2.24-.64,.75-1.1,5.02-.24,5.65-1.54,.3-.63-4.8,.49-5.29-.16,0,0,.23-.43,2.69-1.18,1.41-.44,2.87-.87,2.95-1.34,.14-.86-2.65,.56-6.2,.88,0,0,1.43-.74,2.81-1.33,1.26-.53,2.48-.9,2.19-1.44-.24-.44-2.17,.45-3.43,.97-2.34,.96-4.26,1.16-5.26,1.19-.48,.02-.74-.01-.74-.01,2.25-3.17,1.19-3.44,1.19-3.44Z"/>
        <path class="cls-22" d="M225.96,265.12s.24,1.66-.66,2.58c0,0,1.87-.53,1.4-2.56-.48,.02-.74-.01-.74-.01Z"/>
      </g>
      <path class="cls-21" d="M177.58,227.79c-3.17,4.01-5.73,38.37,0,50.76,0,0,11.22,1.81,20.13-1.24,0,0,2.14-44.65-3.22-50.22l-16.91,.69Z"/>
      <path class="cls-24" d="M195.6,251.9c8.26,1.99,9.8,2.62,14.43,25.85,0,0,12.03-13.83,14.39-12.8,0,0-.78,1.24,.89,4.13,.97,1.68,2.7,1.77,2.7,1.77,.34,2.74-11.86,21.4-15.77,22.6-3.92,1.2-14.32-11.53-15.88-15.7-1.56-4.17-.75-25.85-.75-25.85Z"/>
      <path class="cls-27" d="M183.14,248.16c.51-.95,9.43,.64,10.3,1.37,.87,.73-3.34,3.95-5.6,3.02-2.26-.93-5.3-3.27-4.7-4.39Z"/>
      <path class="cls-20" d="M176.81,331.55h0c.51,4.22,1.46,7.05,1.84,10.6,.55,5.18-2.61,12.67-.56,21.01,.97,3.95,2.38,16.97,3.11,24.18h4.81c0-.07,0-.14,.01-.2,1.26-17.54,.98-37.75,1.91-45.7,.39-3.35,2.72-8.79,3.63-13.11,0-.02,2.77-12.57,4.66-13.63,7.75-4.31,10.14-26.64,10.14-26.64l-19.04,.89s-11.72,9.22-9.99,25.62c0,0-.02,.17-.06,.46-1.02,7.72-.92,12.71-.46,16.53Z"/>
      <path class="cls-18" d="M177.94,310.4c3.45,7.79,35.31,5.39,34.15-1.71-3.09-18.97-7.85-30.73-7.85-30.73,8.75-14.94-6.54-25.41-6.54-25.41,0,0-14.27-5.23-22.1,1.49-7.83,6.71,8.74,27.46,8.74,27.46-2.25,5.55-7.9,25.56-6.41,28.91Z"/>
      <g>
        <path class="cls-13" d="M181.9,227.17s11.25-3.77,13.51,4.15c2.27,7.92,.21,16.27-5.07,15.71-7.43-.79-17.18-15.41-8.44-19.87Z"/>
        <path class="cls-26" d="M187.57,238.29c-.05,.47,.39,.91,.98,.97,.59,.06,1.11-.27,1.16-.75,.05-.47-.39-.91-.98-.97-.59-.06-1.11,.27-1.16,.75Z"/>
        <path class="cls-14" d="M188.44,233.44c.07,0,.14-.04,.18-.11,.47-.73,1.38-.65,1.38-.64,.13,.01,.24-.08,.26-.21,.01-.13-.08-.24-.21-.26-.05,0-1.2-.12-1.83,.86-.07,.11-.04,.25,.07,.32,.04,.03,.09,.04,.14,.04Z"/>
        <path class="cls-14" d="M193.62,232.23s.09-.02,.13-.05c.66-.55,1.48-.21,1.52-.19,.12,.05,.26,0,.31-.12,.05-.12,0-.26-.12-.31-.05-.02-1.11-.48-2,.26-.1,.08-.11,.23-.03,.33,.05,.06,.12,.09,.19,.08Z"/>
        <path class="cls-14" d="M194.77,240.53s-1.7,1.09-4.66,.14c0,0,.89,3.52,2.78,3.07,1.89-.45,1.89-3.21,1.89-3.21Z"/>
        <path class="cls-21" d="M186.38,231.24s-2.57,3.28-2.44,7.54c0,0-1.89-2.31-2.87-.3-.99,2.01,2.97,4.95,2.97,4.95,0,0-6.37,.36-7.11-7.87-.31-3.47,4.19-6.64,9.46-4.31Z"/>
        <path class="cls-22" d="M184.17,241.64c.86,2.32,4.17,6.35,7.68,5.2,0,0-.88,3.47,.58,4.73,0,0,1.54,2.68-1.96,3.06-4.38,.48-6.82-3.06-6.82-3.06,1.91-4.25-.71-9.5-.71-9.5,.95,.63,1.25-.43,1.25-.43Z"/>
        <path class="cls-14" d="M191.25,235.86s-1.5-.74-2.61,0c0,0,1.29-.29,2.32,.29l.29-.29Z"/>
        <path class="cls-14" d="M195.6,235.28s-.93-.33-1.33,.55l.22,.31s.1-.74,1.11-.86Z"/>
        <path class="cls-26" d="M194.21,239.36l-.21-.47c.09-.04,.83-.4,.53-1.12-.09-.22-.22-.36-.37-.42-.28-.1-.59,.07-.59,.07l-.25-.45s.51-.28,1.01-.11c.3,.11,.53,.34,.68,.71,.4,.96-.35,1.59-.8,1.79Z"/>
        <path class="cls-21" d="M180.92,225.17c-6.94,3.13-4,10.38-4,10.38,.71-2.76,6-4.77,6-4.77-.39,2.14,1.61,4.11,1.61,4.11,.55-.78,1.17-1.42,1.83-1.94,.14-.36,.28-.75,.39-1.16,.09-.37,.18-.74,.22-1.09,.02-.18,.05-.35,.05-.51,0-.16,.03-.32,.02-.46,0-.29-.02-.53-.04-.69-.02-.17-.03-.26-.03-.26,0,0,.02,.09,.06,.26,.05,.16,.09,.4,.12,.69,.03,.14,.02,.3,.04,.47,.01,.17,0,.34,0,.53,0,.37-.05,.76-.1,1.14-.03,.22-.07,.43-.12,.64,.25-.17,.51-.33,.76-.47,.09-.15,.19-.31,.27-.48,.31-.59,.52-1.23,.59-1.73,.04-.25,.06-.46,.05-.61,0-.15,0-.23,0-.23,0,0,0,.08,.03,.23,.03,.15,.03,.36,.03,.62-.01,.52-.15,1.2-.39,1.86,0,.02-.01,.03-.02,.05,.75-.36,1.52-.61,2.27-.77-.02-.21-.05-.43-.08-.65-.07-.49-.19-.97-.3-1.32-.12-.35-.23-.58-.23-.58,0,0,.15,.2,.33,.54,.18,.33,.37,.8,.53,1.28,.07,.22,.14,.43,.2,.64,.48-.09,.95-.15,1.39-.18-.07-.36-.18-.81-.31-1.26-.15-.5-.34-.99-.51-1.35-.18-.35-.33-.57-.33-.57,0,0,.18,.19,.42,.52,.23,.33,.51,.79,.74,1.28,.23,.48,.43,.97,.57,1.35,.79-.03,1.49,.01,2.05,.07,0-.06,0-.11,0-.18,0-.33-.03-.77-.12-1.2-.08-.43-.22-.86-.36-1.17-.07-.15-.13-.28-.19-.36-.05-.09-.08-.14-.08-.14,0,0,.04,.04,.1,.12,.07,.07,.16,.19,.26,.33,.2,.28,.43,.69,.6,1.12,.17,.43,.29,.89,.36,1.23,.03,.13,.04,.23,.06,.33,.43,.07,.68,.13,.68,.13,.51-6.85-8.48-8.9-15.41-5.78Z"/>
      </g>
      <path class="cls-24" d="M181.64,251.12c.07,1.69,4.41,4.79,9.61,4.15,5.19-.64,3.14-5.16,2.19-5.75,0,0-3.11,2.17-10.3-1.37,0,0-.97,.54-.86,1.56,.11,1.03-.64,1.4-.64,1.4Z"/>
      <g>
        <path class="cls-22" d="M179.55,323.67s.3,1.27,0,2.05c-.3,.78-1.6,2.49-1.4,3.43,.2,.94-.83,1.37-.74-1.28s0-4.71,2.14-4.2Z"/>
        <path class="cls-13" d="M178.15,324.01l-.74,3.85s-.51,2.65-1.03,2.57-.77-2.14-.77-2.14c0,0-1.28-.68-1.37-1.07s-.08-1.76-.73-1.93-.47-4.97-.47-4.97c0,0,4.56,2.4,5.11,3.68Z"/>
      </g>
      <path class="cls-24" d="M175.61,254.03c3.49-2.49,7.86,10.56,8.39,15.3,1.2,10.73-.34,51.63-3.25,55.08-2.91,3.45-6.34-.85-8.22-2.3s.99-30.72,.99-30.72c0,0-4.57-32.59,2.1-37.36Z"/>
    </g>
    <g>
      <path class="cls-25" d="M82.71,277.04c2.26,.29-.38,9.26-3.85,8.69-3.47-.57-1.71-7.27-1.71-7.27,0,0,3.2-1.72,5.56-1.42Z"/>
      <g>
        <path class="cls-13" d="M89.1,286.34c-.54-.63-2.82-1.86-2.82-1.86-1.97-.66-3.05-1.03-3.88-1.86-.83-.83-4.01-.7-4.01-.7,0,0,.46-2.92,2.52-4.98,0,0,1.59,.46,2.08,.29,.98-.35,1.68-1.8,3.61-2.07,1.93-.26,4.22-1.54,4.22-1.54,0,0,.9,.58,.2,1.31-.71,.74-2.26,1.05-2.48,1.48-.04,.09-.08,.17-.1,.26,0,0,0,0-.01,.02-.09,.33-.06,.69,.11,.93,0,.02,.02,.04,.04,.06,.76,.87,3.29,1.39,4.43,1.52,1.59,.17,3.76,.54,3.26,1.45-.5,.91-1.26-.09-4.85,.17l-.1,.36c-.26,.03,2.02,1.02,4.22,1.49,1.51,.32,.81,1.25,.3,1.4-.51,.16-1.99-.39-3.09-.61-.72-.15-1.48-.32-1.92-.42l-.29,.39c2.44,1.89,3.61,1.52,3.54,2.42-.07,.89-2.26,.26-3.05-.33-.34-.25-1.08-.56-1.81-.82,1.58,1.81,2.55,1.77,2.34,2.47-.22,.72-1.92-.19-2.46-.82Z"/>
        <path class="cls-22" d="M85.88,279.04c1.53-.33,2.45-2.12,2.56-2.34-.09,.33-.06,.69,.11,.93-1.08,1.73-2.67,1.41-2.67,1.41Z"/>
      </g>
      <path class="cls-2" d="M56.49,232.9c5.28,6.89,9.85,37.97,9.85,37.97,0,0,1.83-.32,1.72,.76-.1,1.08,14.64,5.41,14.64,5.41,0,0-5.49,2.67-3.85,8.69,0,0-17.13-2.66-22.02-4.83-4.89-2.17-6.02-35-6.02-35l5.66-12.99Z"/>
      <path class="cls-5" d="M20.21,288.85c0,13.65-4.39,62.9-4.86,66.42-.9,6.73-.4,18.38-1.64,25.51-1.34,7.7-.98,14.57-.98,14.57,0,0,7.44-6.01,11.65-1.55l1.74-6.09-1.29-4.8,2.44-7.05c-1.73-3.08,10.77-68.97,10.77-68.97l1.27-.21-.51,76.23v4.34s1.41,5.53,1.44,9.06l12.65-3.6-1.73-5,1.15-6.46-.42-8.63s4.07-74.24,4.96-82.42l-36.64-1.36Z"/>
      <path class="cls-2" d="M19.63,292.26s3.49,3.02,20.53,2.69c13.16-.25,16.65-3.44,16.65-3.44,0,0,3.07-54.21-.31-58.61-2.46-3.19-7.29-4.56-13.6-4.9-2.38-.12-4.96-.1-7.71,.03-2.04,.09-3.97,.42-5.76,.92-7.05,1.97-12,6.6-12.75,10.23-.94,4.55,2.95,53.08,2.95,53.08Z"/>
      <path class="cls-18" d="M61.05,265.84c1.45,3.77,.64,13.09-.72,15.54-1.54,2.78-8.56,1.53-8.56,1.53,0,0,.17-23.49-.94-35.44-1.11-11.95-6.3-19.36-6.3-19.36,0,0,12.55,.48,14.43,7.47,1.23,4.55,.86,8.22,.45,10.22-.22,1.08-.45,1.67-.45,1.67,.03,0,.08,0,.11,0,.4,.08,1.78,.69,2.75,5.69,1.14,5.9-1.49,11.47-1.49,11.47,.29,.27,.52,.68,.72,1.2Z"/>
      <path class="cls-24" d="M49.35,239.31s2.16-7.18-.42-10.6c-2.58-3.42-5.38-3.99-5.38-3.99,0,0,3.47,3.31,3.94,5.48,.46,2.17,1.87,9.11,1.87,9.11Z"/>
      <path class="cls-27" d="M43.55,224.72c-3.68-1.11-12.61-2.8-17.12-.94,0,0-.37,3.85,1.21,5.19s16.94-6.48,21.42,8.9c0,0,1.34-11.1-5.51-13.16Z"/>
      <path class="cls-18" d="M36.19,259.72c-.17,19.74-2.47,25.39-2.47,25.39,0,0-14.54,1.88-17.17-1.03s0-12.1,0-12.1c0,0-.58-1.42-1.2-3.6h0c-.26-.92-.53-1.97-.77-3.1-.24-1.12-.44-2.32-.58-3.55-.35-3.18,.41-5.59,1.09-7.03,.47-1,.91-1.53,.91-1.53,0,0-2.78-11.46-1.55-16.53,.27-1.14,.77-2.1,1.41-2.92,3.69-4.76,12.27-4.76,12.27-4.76,2.41,.66,6.07,7.01,7.47,19.15h0c.4,3.42,.62,7.28,.58,11.61Z"/>
      <path class="cls-22" d="M42.56,223.39l-2.24,8.82s-2.53,1.19-7.91-2.42c0,0,2.85-6.71,.33-11.48,0,0,.64,.04,1.65,.16,0,0,1.02,5.25,8.17,4.93Z"/>
      <g>
        <path class="cls-13" d="M32.41,213.75c-.1,10.44,9.93,11.94,12.53,8.08,.83-1.23,1.61-3.49,2.08-5.95,.11-.56,.2-1.12,.27-1.69,.48-3.85,.11-7.75-2.04-8.78-7.48-3.59-12.73-2.11-12.84,8.33Z"/>
        <path class="cls-14" d="M39.69,212.02c-.05,.58,.16,1.07,.48,1.1,.32,.03,.62-.41,.68-.99,.05-.58-.16-1.07-.48-1.1-.32-.03-.62,.41-.68,.99Z"/>
        <path class="cls-14" d="M44.94,212.95c-.05,.58,.16,1.07,.48,1.1,.32,.03,.62-.41,.68-.99,.05-.58-.16-1.07-.48-1.1-.32-.03-.62,.41-.68,.99Z"/>
        <path class="cls-26" d="M37.29,213.61c-.18,.44,.11,.98,.66,1.21,.55,.23,1.14,.06,1.33-.38,.18-.44-.11-.98-.66-1.21-.55-.23-1.14-.06-1.33,.38Z"/>
        <path class="cls-26" d="M45.87,215.23c.08,.45,.59,.74,1.16,.66,.11-.56,.2-1.12,.27-1.69-.17-.04-.34-.04-.52-.01-.59,.11-.99,.58-.9,1.04Z"/>
        <path class="cls-3" d="M39.35,209.05c.06,0,.13-.02,.19-.06,.74-.49,1.8-.22,1.81-.22,.18,.05,.37-.06,.42-.24,.05-.18-.06-.37-.24-.42-.05-.02-1.37-.35-2.36,.31-.16,.1-.2,.32-.1,.47,.07,.1,.17,.15,.29,.15Z"/>
        <path class="cls-3" d="M47.01,210.69c.18,0,.34-.15,.34-.33,.03-.79-.94-1.11-1.52-1.18-.18-.02-.36,.11-.38,.3-.02,.19,.11,.36,.3,.38,.32,.04,.92,.22,.92,.48,0,.19,.14,.35,.33,.35,0,0,0,0,.01,0Z"/>
        <path class="cls-15" d="M44.1,211.23s-.05,2.66,1.41,4.79c0,0,.06,1.12-1.96,.7"/>
        <path class="cls-14" d="M44.71,218.24s-.35-.14-2.15-.52c-1.8-.38-2.81-.49-2.81-.49,0,0,.07,2.28,2.81,2.52,2.27,.2,2.15-1.51,2.15-1.51Z"/>
        <path class="cls-3" d="M46.87,207.39s2.4-.37,3.32-2.02c0,0-.92,.17-1.66,0,0,0,1.14-.8,.74-2.74,0,0-2.39,.34-3.28,0l1.3-.97s-1.87,.11-4.4-.46c-2.53-.57-7.82-.8-10.97,1.54-3.15,2.34-5.22,13.24,1.64,17.95l-.42-2.38s-1.17-2.15-.72-3.64c.46-1.48,1.27-.29,1.27-.29,0,0,2.38-3.85,2.38-6.37v-2.53s7.53-1.72,10.78,1.91Z"/>
        <path class="cls-13" d="M33.5,213.82s-1.51-2.13-3.18-1.06c-1.67,1.07,.62,4.95,2.32,4.97,1.7,.02,.86-3.9,.86-3.9Z"/>
      </g>
      <path class="cls-24" d="M33.57,237.87s2.33-7.5,1.61-9.84-8.08-4.97-8.76-4.26-1.45,2.83-.73,5.37c0,0,4.58,.71,7.87,8.73Z"/>
      <path class="cls-24" d="M35.61,248.11h0c-2.19,2.84-15.17,2.98-15.17,2.98,0,0-8.56,12.56-2.4,16.44,6.05,3.81,16.88,1.13,17.27,1.03-2.39,1.96-17.35,3.29-19.96-.18h0c-.12-.16-.21-.34-.27-.51-.25-.68-.4-1.58-.49-2.58-.29-3.32,.18-7.88,.51-10.58,.47-1,.91-1.53,.91-1.53,0,0-2.78-11.46-1.55-16.53,.27-1.14,.77-2.1,1.41-2.92,7.69,.19,8.34,14.39,8.34,14.39,2.14,.77,11.1,.03,11.4,0h0Z"/>
      <path class="cls-25" d="M17.67,311.48c.1,1.79-8.38,5.33-8.73,2.74-.35-2.59,8.48-7.28,8.73-2.74Z"/>
      <g>
        <path class="cls-13" d="M10.44,313.04c-.15,.83-.92,6.55-.56,7.57,.01,.04,.03,.08,.04,.12,.42,.99,1.66,1.93,2.07,2.59,.43,.69,1.2,.8,1.82,1.35,.62,.56,2.18,.65,2.18,.65,0,0,2.46,1.8,2.53,.82,.08-1.23-1.36-2.3-1.36-2.3l-1.09-2.77s.64-3.74,1.36-3.74c.72,0,.45,1.55,.82,2.78,.24,.81,1.15,.68,1.15,.68l.09-2.24s-.15-3.21-.56-3.82c-.41-.61-2.48-2.74-2.48-2.74l-.86-4.62-6.19,.37s1.19,4.46,1.04,5.28Z"/>
        <path class="cls-22" d="M9.93,320.73c.42,.99,1.66,1.93,2.07,2.59,.43,.69,1.2,.8,1.82,1.35,.62,.56,2.18,.65,2.18,.65-.59-.47-1.65-3.08-1.92-3.24-.27-.16-.43,.21-.91,.21s-.69-.96-1.17-.8-.96,.22-1.33-.42c-.16-.28-.45-.33-.74-.35Z"/>
      </g>
      <path class="cls-2" d="M17.11,234.45c4.84,2.54,6.55,13.13,6.04,17.43l-6.85,20.87s-.17,2.43-1.03,2.77l2.4,35.96c-.69-1.37-7.74-.25-8.73,2.74,0,0-4.8-34.72-4.11-44.24,.14-1.89,12.29-35.53,12.29-35.53Z"/>
      <path class="cls-24" d="M51.6,247.48s4.38-.12,7.81-1.67c-.22,1.08-.45,1.67-.45,1.67,0,0-4.74,.61-7.36,0Z"/>
      <path class="cls-24" d="M61.05,265.84c-3.19,.35-7.73-.38-7.73-.38,0,0,5.01,.05,7.01-.82,.29,.27,.52,.68,.72,1.2Z"/>
    </g>
    <g>
      <path class="cls-4" d="M104.66,263.21c-.54-1-4.97,4.36-3.72,7.65,1.25,3.29,3.72,2.74,3.72,2.74,0,0,1.57-7.47,0-10.39Z"/>
      <g>
        <path class="cls-13" d="M99.09,255.18l2.45,2.91c2.45,2.91,1.84,3.14,1.38,5.14-.43,1.87-3.93,1.46-5.33,.9-1.18-.47-4.33,.26-5.2-.4-.35-.26,0-.4,1.01-.5,1.19-.12,2.24-.64,2.24-.64-.75-1.1-5.02-.24-5.65-1.54-.3-.63,4.8,.49,5.29-.16,0,0-.23-.43-2.69-1.18-1.41-.44-2.87-.87-2.95-1.34-.14-.86,2.65,.56,6.2,.88,0,0-1.43-.74-2.81-1.33-1.26-.53-2.48-.9-2.19-1.44,.24-.44,2.17,.45,3.43,.97,2.34,.96,4.26,1.16,5.26,1.19,.48,.02,.74-.01,.74-.01-2.25-3.17-1.19-3.44-1.19-3.44Z"/>
        <path class="cls-22" d="M100.28,258.62s-.24,1.66,.66,2.58c0,0-1.87-.53-1.4-2.56,.48,.02,.74-.01,.74-.01Z"/>
      </g>
      <path class="cls-13" d="M103.32,261.01l2.37,5.74-2.35,5.49s-1.77-6.52-2.4-8.58,2.38-2.66,2.38-2.66Z"/>
      <path class="cls-12" d="M130.25,252.11s-8.23,2.99-10.69,5.27l-6.68,20.7s-.23-1.45-.68-.86l-7.53-14.02s-.13,7.65-3.72,7.65c0,0,7.37,20.32,11.48,21.46s11.19-16.79,11.19-16.79l6.64-23.42Z"/>
      <path class="cls-4" d="M109.74,305.54c3.4-3.6,31.77-1.13,34.86,2.13,3.09,3.25-4.57-42.94-4.57-42.94,0,0-13.98-1.29-14.77,2.37-4.11,19.18-15.53,38.44-15.53,38.44Z"/>
      <path class="cls-4" d="M134.65,249.62s5.26-2.32,9.95-.59l.81,6.68s-11.16,4.07-14.77,2.87c-3.61-1.2-4.58-4.05,4.01-8.96Z"/>
      <path class="cls-22" d="M103.34,386.61c3.46-13.32,7.75-33.49,8.3-36.83,.36-2.16,.68-9.01,1.53-17.42,.22-9.59,1.33-31.52,6.71-43.97l12.68,.3c-.51,9.88,9.07,20.55-2.6,31.98-1.52,4.27-6.56,18.75-7.29,25.12-.86,7.52-2.26,10.86-6.62,19.25-3.77,7.26-6.43,15.73-8.03,21.56h-4.7Z"/>
      <path class="cls-13" d="M146.32,331.76h0c-.81,4.21-1.97,7.03-2.6,10.57-.92,5.16,1.7,12.63-.95,20.94-1.25,3.93-3.6,16.92-4.85,24.1h-4.81c0-.07,0-.14,0-.2,0-17.48,2.41-38.32,2.05-46.25-.15-3.34-.72-8.08-1.32-12.39,0-.02-1.87-12.54-3.68-13.59-7.44-4.3-10.28-26.56-10.28-26.56l18.98,.88s11.06,9.19,8.15,25.54c0,0,.01,.17,.03,.46,.46,7.7,0,12.67-.73,16.48Z"/>
      <path class="cls-24" d="M141.89,281.85c2.25,5.54,9.23,24.98,6.95,50.97,0,0-6.79,4.27-21.4,3.79-15.8-.53-19.68-5.56-19.68-5.56,6.2-24.22,14.23-52.73,14.23-52.73-8.75-14.95,6.54-25.41,6.54-25.41,0,0,.11-.04,.32-.11,2.01-.67,13.14-4.08,20.4,.58,.48,.3,.94,.64,1.38,1.02,7.83,6.71-8.74,27.46-8.74,27.46Z"/>
      <g>
        <path class="cls-5" d="M145.98,230s3.35-3.44,6.58-.47c3.23,2.97-.16,9.06,0,10.18,.16,1.12,2.78,1.39,2.16,2.8-.63,1.4-2.31,1.63-2.16,2.32,.16,.68,1.76,1.79,1.07,2.49-.68,.71-2.18-.03-2.06,1.2,.12,1.22,.92,2.82-.56,2.93,0,0,1.14-1.37,.11-1.83-1.03-.46-1.82,.05-2.28-1.4-.46-1.45,1.66-2.02,.72-2.82-.95-.8-3.04-.8-2.05-2.05s1.34-2.4-.49-3.46c-1.83-1.06-1.03-9.89-1.03-9.89Z"/>
        <path class="cls-5" d="M131.48,228.32c-3.77-.1-4.02,8.17,.51,12.57,4.53,4.4,5.65-12.4-.51-12.57Z"/>
        <path class="cls-13" d="M144.34,227.52s-11.25-3.77-13.51,4.15c-2.27,7.92-.21,16.27,5.07,15.71,7.43-.79,17.18-15.41,8.44-19.87Z"/>
        <path class="cls-26" d="M138.68,238.64c.05,.47-.39,.91-.98,.97-.59,.06-1.11-.27-1.16-.75-.05-.47,.39-.91,.98-.97,.59-.06,1.11,.27,1.16,.75Z"/>
        <path class="cls-5" d="M137.8,233.79c-.07,0-.14-.04-.18-.11-.47-.73-1.38-.65-1.38-.64-.13,.01-.24-.08-.26-.21-.01-.13,.08-.24,.21-.26,.05,0,1.2-.12,1.83,.86,.07,.11,.04,.25-.07,.32-.04,.03-.09,.04-.14,.04Z"/>
        <path class="cls-5" d="M132.62,232.59s-.09-.02-.13-.05c-.66-.55-1.48-.21-1.52-.19-.12,.05-.26,0-.31-.12-.05-.12,0-.26,.12-.31,.05-.02,1.11-.48,2,.26,.1,.08,.11,.23,.03,.33-.05,.06-.12,.09-.19,.08Z"/>
        <path class="cls-14" d="M131.48,240.89s1.7,1.09,4.66,.14c0,0-.89,3.52-2.78,3.07-1.89-.45-1.89-3.21-1.89-3.21Z"/>
        <path class="cls-5" d="M139.86,231.59s2.57,3.28,2.44,7.54c0,0,1.89-2.31,2.87-.3,.99,2.01-2.97,4.95-2.97,4.95,0,0,6.37,.36,7.11-7.87,.32-3.47-4.19-6.64-9.46-4.31Z"/>
        <path class="cls-22" d="M142.07,241.99c-.86,2.32-4.17,6.35-7.68,5.2,0,0,.88,3.47-.58,4.73,0,0-1.54,2.68,1.96,3.06,4.38,.48,6.82-3.06,6.82-3.06-1.91-4.25,.71-9.5,.71-9.5-.95,.63-1.25-.43-1.25-.43Z"/>
        <path class="cls-26" d="M132.03,239.71l.21-.47c-.09-.04-.83-.4-.53-1.12,.09-.22,.22-.36,.37-.42,.28-.1,.59,.07,.59,.07l.25-.45s-.51-.28-1.01-.11c-.3,.11-.53,.34-.68,.71-.4,.96,.35,1.59,.8,1.79Z"/>
        <path class="cls-14" d="M137.02,236.62c-.03,.51-.32,.9-.64,.88-.32-.02-.55-.45-.52-.95,.03-.51,.32-.9,.64-.88s.55,.45,.52,.95Z"/>
        <path class="cls-14" d="M137.33,236.49s-.27-1.16-.68-1.19c-.41-.03-1.1,.75-1.1,.75l-.76-.55,.73,.29s.63-.89,1.2-.71c.57,.18,.61,1.42,.61,1.42Z"/>
        <path class="cls-14" d="M132.34,235.89c-.03,.51-.32,.9-.64,.88-.32-.02-.55-.45-.52-.95,.03-.51,.32-.9,.64-.88,.32,.02,.55,.45,.52,.95Z"/>
        <path class="cls-14" d="M132.64,235.76s-.27-1.16-.68-1.19c-.41-.03-1.1,.75-1.1,.75l-.76-.55,.73,.29s.63-.89,1.2-.71c.57,.18,.61,1.42,.61,1.42Z"/>
        <path class="cls-5" d="M137.01,229.3s-1.7,8.93,5.29,9.83c0,0,2.5-4.24,5.79-1.27,0,0,3.52-9.68-4.78-11.23,0,0-1.61-3.71-8.07-2.53-9.02,1.65-11.53,12.55-6.51,23.32,0,0-4.41-19.38,8.27-18.11Z"/>
      </g>
      <path class="cls-22" d="M149.26,253.37c-.95,.52-2.07,1.08-3.39,1.66-24.08,10.77-18.43,.68-18.43,.68,.01-.73,.25-1.4,.68-2.03,.2-.31,.45-.6,.73-.88,1.97-.66,12.68-3.94,19.95,.3,.16,.08,.31,.18,.46,.27Z"/>
      <path class="cls-13" d="M149.26,253.37c-.95,.52-2.07,1.08-3.39,1.66-24.08,10.77-18.43,.68-18.43,.68,.01-.73,.25-1.4,.68-2.03,.88,.41,2.66,1.22,3.25,1.36l.38,1.48,2.05-1.33s7.24,.21,14.99-2.09c.16,.08,.31,.18,.46,.27Z"/>
      <path class="cls-3" d="M144.6,250.96s-7.01,4.85-11.12,14.51c-4.11,9.66,7.36,50.11,7.36,50.11,0,0,7.36-1.92,13.01-5.52l-8.39-28.43s9.08-18.84,9.25-21.92c0,0-1.56-6.74-10.11-8.76Z"/>
      <path class="cls-12" d="M147.5,251.57s1.06,3.37,.28,10.47c0,0-1.81-1.34-5.23-1.14,0,0-8.5,9.66-8.62,24.28,0,0-3.62-13.99-1.01-21.09,2.61-7.1,11.67-15.06,11.67-15.06l2.9,2.54Z"/>
      <path class="cls-3" d="M130.25,252.11s-7.55,10.9-7.72,14.65,0,15.88,0,15.88l-12.67,26.06s-2.5-5.81,9.71-25.42c0,0-1.49-12.58-.8-16.52,.68-3.94,4.11-11.72,11.49-14.64Z"/>
      <path class="cls-12" d="M122.52,282.64s-.12-15.59,2.38-21.91c2.5-6.32,9.75-11.12,9.75-11.12,0,0-9.08,2.98-12.56,10.7,0,0,.86-.26,1.71-.17,0,0-3.77,3.62-1.28,22.49Z"/>
      <path class="cls-12" d="M154.72,259.72s7.44,28.6,5.18,30.99-5.02,6.78-9.11-2.43c-4.09-9.21-4.79-16.83-4.79-16.83,0,0,3.94-11.57,8.73-11.74Z"/>
      <path class="cls-4" d="M149.34,273.63s5.22-.12,6.45-3.55c0,0-4.03-1.42-6.45,3.55Z"/>
      <path class="cls-13" d="M149.72,265.47l1.85,7.59s3.15-.67,3.83-2.73l-1.37-4.87h-4.31Z"/>
      <g>
        <path class="cls-13" d="M151.42,258.19l-1.21,3.6c-1.22,3.6-.56,3.6,.6,5.29,1.08,1.58,4.19-.08,5.29-1.11,.93-.87,4.12-1.34,4.7-2.27,.23-.37-.15-.38-1.13-.1-1.15,.32-2.32,.23-2.32,.23,.3-1.3,4.59-2.06,4.69-3.5,.05-.7-4.29,2.21-4.98,1.78,0,0,.06-.48,2.08-2.08,1.15-.92,2.35-1.86,2.25-2.33-.18-.86-2.27,1.49-5.45,3.08,0,0,1.06-1.21,2.13-2.26,.97-.96,1.98-1.75,1.52-2.14-.38-.32-1.86,1.21-2.84,2.15-1.83,1.75-3.55,2.64-4.46,3.03-.44,.19-.7,.26-.7,.26,.93-3.78-.15-3.63-.15-3.63Z"/>
        <path class="cls-22" d="M151.57,261.83s.83,1.46,.33,2.64c0,0,1.55-1.17,.37-2.9-.44,.19-.7,.26-.7,.26Z"/>
      </g>
    </g>
    <g>
      <ellipse class="cls-18" cx="218.66" cy="215.71" rx="18" ry="15.82"/>
      <path class="cls-18" d="M210.05,224.8l9.74,1.43s-4.04,8.61-15.16,12.2c0,0,6.39-6.27,5.42-13.62Z"/>
      <text class="cls-11" transform="translate(206.36 221.17)"><tspan x="0" y="0">rock</tspan></text>
    </g>
    <g>
      <ellipse class="cls-3" cx="107.23" cy="221.47" rx="20.04" ry="17.6"/>
      <path class="cls-3" d="M116.81,231.59l-10.84,1.59s4.5,9.58,16.87,13.58c0,0-7.11-6.98-6.03-15.16Z"/>
      <text class="cls-8" transform="translate(92.13 227.1)"><tspan x="0" y="0">rock</tspan></text>
    </g>
    <g>
      <ellipse class="cls-5" cx="73.18" cy="187.39" rx="22.48" ry="19.75"/>
      <path class="cls-5" d="M62.43,198.74l12.16,1.78s-5.05,10.75-18.93,15.23c0,0,7.98-7.83,6.77-17.01Z"/>
      <text class="cls-10" transform="translate(55.5 189.76) rotate(8.19)"><tspan x="0" y="0">scissors</tspan></text>
    </g>
  </g>
  <g>
    <g>
      <path class="cls-28" d="M579.65,319.77c-.1,1.79,8.38,5.33,8.73,2.74,.35-2.59-8.48-7.28-8.73-2.74Z"/>
      <g>
        <path class="cls-13" d="M586.88,321.33c.15,.83,.92,6.55,.56,7.57-.01,.04-.03,.08-.04,.12-.42,.99-1.66,1.93-2.07,2.59-.43,.69-1.2,.8-1.82,1.35-.62,.56-2.18,.65-2.18,.65,0,0-2.46,1.8-2.53,.82-.08-1.23,1.36-2.3,1.36-2.3l1.09-2.77s-.64-3.74-1.36-3.74c-.72,0-.45,1.55-.82,2.78-.24,.81-1.15,.68-1.15,.68l-.09-2.24s.15-3.21,.56-3.82c.41-.61,2.48-2.74,2.48-2.74l.86-4.62,6.19,.37s-1.19,4.46-1.04,5.28Z"/>
        <path class="cls-22" d="M587.39,329.02c-.42,.99-1.66,1.93-2.07,2.59-.43,.69-1.2,.8-1.82,1.35-.62,.56-2.18,.65-2.18,.65,.59-.47,1.65-3.08,1.92-3.24,.27-.16,.43,.21,.91,.21s.69-.96,1.17-.8c.48,.16,.96,.22,1.33-.42,.16-.28,.45-.33,.74-.35Z"/>
      </g>
      <path class="cls-28" d="M511.54,261.14c-1.49-1.72-7.51,5.42-5.13,8s7.01-2.58,7.01-2.58c0,0-.33-3.62-1.88-5.42Z"/>
      <g>
        <path class="cls-13" d="M500.26,260.93c.82,.11,3.1,1.33,3.1,1.33,1.63,1.28,2.54,1.98,3.69,2.21,1.15,.24,2.8,2.96,2.8,2.96,0,0,2.18-2,2.77-4.85,0,0-1.26-1.07-1.39-1.58-.25-1.01,.57-2.4-.27-4.15-.85-1.76-1.05-4.37-1.05-4.37,0,0-.98-.43-1.2,.55-.23,1,.37,2.47,.13,2.88-.05,.08-.1,.16-.17,.23,0,0,0,0-.01,.02-.23,.26-.54,.43-.84,.42-.02,0-.04,0-.07,0-1.14-.16-2.97-1.97-3.71-2.86-1.02-1.23-2.52-2.85-3.01-1.92-.48,.92,.77,1,2.53,4.14l-.24,.28c.11,.23-1.97-1.12-3.57-2.7-1.11-1.08-1.49,.01-1.33,.52,.15,.52,1.42,1.44,2.21,2.24,.53,.52,1.08,1.06,1.41,1.37l-.16,.46c-2.92-1-3.26-2.18-3.97-1.62-.7,.55,1.03,2.03,1.96,2.36,.4,.14,1.06,.6,1.68,1.06-2.38-.33-2.88-1.15-3.35-.59-.48,.58,1.21,1.5,2.04,1.6Z"/>
        <path class="cls-22" d="M508.13,259.59c-.57-1.45,.42-3.21,.54-3.42-.23,.26-.54,.43-.84,.42-.85,1.86,.29,3,.29,3Z"/>
      </g>
      <path class="cls-29" d="M540.83,241.2l-16.48,30.19s-.74-1.7-1.59-1.02-11.22-9.23-11.22-9.23c0,0,.8,6.05-5.13,8,0,0,13.72,12.14,18.23,15.02,4.5,2.88,19.74-22.69,19.74-22.69l-3.55-20.27Z"/>
      <path class="cls-30" d="M577.11,297.14c0,13.65-1.34,27.55-1.69,31.08-.34,3.53-4,42.92-4.51,58.16-.26,7.81-2.77,17.26-2.77,17.26,0,0-7.44-6.01-11.65-1.55l-1.06-6.09,1.97-4.8s-2.11-3.97-.38-7.05c1.73-3.08,2.26-68.97,2.26-68.97l-3.32-.21-15.94,76.23v4.34s-3.46,5.53-3.5,9.06l-10.59-3.6,1.73-5-1.15-7.15,3.85-9.32s11.01-72.87,10.12-81.05l36.64-1.36Z"/>
      <path class="cls-2" d="M577.01,300.55s-5.75,8.1-22.59,5.43c-9.56-1.51-13.91-6.18-13.91-6.18,0,0-3.07-54.21,.31-58.61,2.46-3.19,7.29-4.56,13.6-4.9,2.38-.12,4.96-.1,7.71,.03,2.04,.09,3.97,.42,5.76,.92,7.05,1.97,12,6.6,12.75,10.23,.94,4.55-3.64,53.08-3.64,53.08Z"/>
      <path class="cls-28" d="M563,236.38s3.02,1.76,2.97,4.54c0,0,1.02-6.21-1.4-7.16s-1.58,2.61-1.58,2.61Z"/>
      <path class="cls-20" d="M578.25,306.6s-7.28,4.85-16.23,3.41c0,0-3.02-56.86-2.2-62.19,0,0,2.85-3.17,5.26-4.97,2.12-1.58,2.71-4.81,2.82-5.59,7.05,1.97,12.16,3.53,12.92,7.16,.94,4.55-2.57,62.18-2.57,62.18Z"/>
      <path class="cls-20" d="M554.43,236.3c-.96,1.53-2.76,4.96-3.29,9.87-.36,3.35-6.02,61.39-6.02,61.39-5.11-.03-6.27-2.95-6.27-2.95,0,0-1.4-59.02,1.98-63.41,2.46-3.19,7.29-4.56,13.6-4.9Z"/>
      <path class="cls-29" d="M564.58,233.77s5,.09,6.24,5.2c1.24,5.11-5.29,9.12-5.29,9.12,0,0-1.07-2.76-2.5-2.76-1.43,0-3.21,2.49-3.21,2.49,0,0,1.36-3.11,3.4-4.68s3.98-6,1.36-9.37Z"/>
      <path class="cls-29" d="M555.26,233.65s-6.71,2.22-8.77,10.32c0,0,1.33-2.6,2.51-1.82,1.18,.77,2.14,4.02,2.14,4.02,0,0,1.17-7.93,5.02-9.93l-.9-2.59Z"/>
      <path class="cls-29" d="M580.21,242.74c-4.84,2.54-6.55,13.13-6.04,17.43l6.85,20.87s.17,2.43,1.03,2.77l-2.4,35.96c.69-1.37,7.74-.25,8.73,2.74,0,0,4.8-34.72,4.11-44.24-.14-1.89-12.29-35.53-12.29-35.53Z"/>
      <path class="cls-22" d="M554.76,231.69l2.24,8.82s2.53,1.19,7.91-2.42c0,0-2.85-6.71-.33-11.48,0,0-.64,.04-1.65,.16,0,0-1.01,5.25-8.17,4.93Z"/>
      <g>
        <path class="cls-13" d="M566.03,222.19c.1,10.44-11.05,11.8-13.65,7.94-.83-1.23-1.61-3.49-2.08-5.95-.11-.56-.2-1.12-.27-1.69-.48-3.85-.11-7.75,2.04-8.78,7.48-3.59,13.85-1.97,13.95,8.47Z"/>
        <path class="cls-14" d="M557.63,220.31c.05,.58-.16,1.07-.48,1.1-.32,.03-.62-.41-.68-.99-.05-.58,.16-1.07,.48-1.1,.32-.03,.62,.41,.68,.99Z"/>
        <path class="cls-14" d="M552.38,221.24c.05,.58-.16,1.07-.48,1.1-.32,.03-.62-.41-.68-.99-.05-.58,.16-1.07,.48-1.1s.62,.41,.68,.99Z"/>
        <path class="cls-26" d="M560.04,221.91c.18,.44-.11,.98-.66,1.21s-1.14,.06-1.33-.38c-.18-.44,.11-.98,.66-1.21s1.14-.06,1.33,.38Z"/>
        <path class="cls-26" d="M551.46,223.53c-.08,.45-.59,.74-1.16,.66-.11-.56-.2-1.12-.27-1.69,.17-.04,.34-.04,.52-.01,.59,.11,.99,.58,.9,1.04Z"/>
        <path class="cls-16" d="M555.89,216.74s1.21-.32,2.09,.26"/>
        <path class="cls-16" d="M551.54,217.81s-1.24,.14-1.22,.83"/>
        <path class="cls-15" d="M553.22,219.52s.05,2.66-1.41,4.79c0,0-.06,1.12,1.96,.7"/>
        <path class="cls-5" d="M550.29,216.15s2.08-2.76,8.52-2.04c0,0,.96,3.83,2.91,4.97,1.95,1.14,2.7,4.4,2.7,4.4,0,0,.18-1.62,1.01-1.8,.83-.18-.24,5.07-.24,5.07,0,0,3.17-.48,3.33-9.24,.14-7.92-6.65-5.9-6.65-5.9,0,0-1.63-3.26-9.15-1.58l.54,.29s-3.48,.55-4.71,3.47l.59-.06s-.67,1.55,1.15,2.43Z"/>
        <path class="cls-13" d="M563.82,222.12s1.51-2.13,3.18-1.06c1.67,1.07-.62,4.95-2.32,4.97-1.7,.02-.86-3.9-.86-3.9Z"/>
        <path class="cls-5" d="M550.45,224.89s.9,1.26,3.21,1.03c3.92-.4,8.55-2.23,9.95-5.39l.46,1.28s1.22,4.97,.67,6.64l-.36-.17s.12,2.07-2.8,3.64c-2.96,1.59-5.05,1.59-5.05,1.59l.43,.43s-4.7,.35-5.93-2.93l-.06,.78s-1.88-4.2-.53-6.9Z"/>
        <path class="cls-14" d="M552.61,226.54s.23,.33,2.03-.05c1.8-.38,2.92-.96,2.92-.96,0,0,.03,3.69-2.71,3.92-2.27,.2-2.25-2.92-2.25-2.92Z"/>
      </g>
    </g>
    <g>
      <path class="cls-4" d="M666.46,268.2c-2.02-1.06-5.01,7.8-1.84,9.32,3.17,1.52,5.58-4.97,5.58-4.97,0,0-1.63-3.24-3.74-4.35Z"/>
      <g>
        <path class="cls-19" d="M655.89,272.15c.8-.2,3.38,.1,3.38,.1,1.99,.59,3.09,.91,4.25,.7,1.16-.2,3.69,1.73,3.69,1.73,0,0,1.3-2.66,.8-5.53,0,0-1.57-.53-1.87-.96-.61-.85-.34-2.44-1.77-3.76-1.43-1.32-2.57-3.68-2.57-3.68,0,0-1.07-.05-.92,.96,.16,1.01,1.25,2.16,1.18,2.63-.01,.1-.04,.19-.07,.27,0,0,0,0,0,.02-.12,.33-.34,.6-.62,.7-.01,.01-.04,.02-.06,.03-1.12,.27-3.49-.75-4.5-1.3-1.4-.77-3.39-1.72-3.5-.69-.11,1.04,1.08,.65,3.87,2.93l-.13,.35c.19,.18-2.24-.32-4.31-1.2-1.43-.6-1.38,.56-1.05,.98,.33,.43,1.85,.82,2.88,1.27,.68,.29,1.39,.59,1.81,.76l.02,.49c-3.08,.14-3.83-.83-4.29-.06-.45,.77,1.7,1.51,2.68,1.48,.43-.01,1.21,.17,1.96,.37-2.34,.57-3.1-.02-3.33,.67-.23,.72,1.68,.95,2.48,.74Z"/>
        <path class="cls-1" d="M662.72,268.01c-1.06-1.14-.79-3.14-.75-3.39-.12,.33-.34,.6-.62,.7-.11,2.04,1.37,2.69,1.37,2.69Z"/>
      </g>
      <path class="cls-17" d="M696.91,239.91c-4.96,2.39-13.5,32.64-13.5,32.64,0,0-1.31-1.31-1.85-.37-.54,.94-15.1-3.98-15.1-3.98,0,0,2.96,5.34-1.84,9.32,0,0,15.55,7.66,20.8,8.69,5.25,1.03,13.47-25.53,13.47-25.53l-1.98-20.77Z"/>
      <path class="cls-29" d="M731.96,297.14c0,13.65-1.34,27.55-1.69,31.08s-4,42.92-4.51,58.16c-.26,7.81-2.77,17.26-2.77,17.26,0,0-7.44-6.01-11.65-1.55l-1.06-6.09,1.97-4.8s-2.11-3.97-.38-7.05c1.73-3.08,2.26-68.97,2.26-68.97l-3.32-.21-15.94,76.23v4.34s-3.46,5.53-3.5,9.06l-10.59-3.6,1.73-5-1.15-7.15,3.85-9.32s11.01-72.87,10.12-81.05l36.64-1.36Z"/>
      <path class="cls-3" d="M694.1,258.46c0,.9,0,1.83,0,2.76,0,1.73,.02,3.51,.05,5.3,.01,.91,.03,1.83,.05,2.75,.04,2.19,.1,4.4,.16,6.55,.03,.93,.05,1.86,.08,2.77,.08,2.51,.18,4.95,.27,7.21,.04,.98,.08,1.92,.12,2.83,.08,2.05,.17,3.92,.25,5.5,.05,1.12,.1,2.12,.15,2.94,.09,1.74,.14,2.74,.14,2.74,0,0,4.34,4.67,13.9,6.19,16.84,2.66,22.59-5.43,22.59-5.43,0,0,.07-.64,.18-1.77,.08-.75,.18-1.71,.29-2.86,.14-1.36,.3-2.98,.48-4.79,.09-.88,.18-1.81,.27-2.77,.19-2.02,.4-4.21,.61-6.49,.08-.89,.16-1.8,.23-2.72,.16-1.83,.32-3.71,.47-5.6,.08-.92,.15-1.84,.22-2.76,.16-2.03,.31-4.05,.45-6.03,.06-.95,.12-1.87,.18-2.79,.14-2.16,.25-4.25,.34-6.2,.04-.98,.08-1.92,.1-2.82,.06-2.02,.08-3.83,.04-5.36-.03-1.16-.08-2.15-.18-2.94-.1-.95-.27-1.6-.48-1.92-1.64-2.4-5.26-3.52-12.32-5.49-1.79-.5-3.73-.83-5.76-.92-2.75-.13-5.34-.15-7.71-.03-6.13,.33-10.88,1.63-13.39,4.64-.07,.08-.14,.16-.21,.25-.34,.44-.61,1.38-.83,2.71-.23,1.38-.4,3.2-.51,5.33-.05,.87-.1,1.79-.12,2.77-.07,1.99-.11,4.16-.12,6.45Z"/>
      <g>
        <path class="cls-17" d="M694.85,243.91c14.73-2.79,31.57,.98,40.87,3.69-.03-1.16-.08-2.15-.18-2.94-9.36-2.68-25.16-6.05-39.66-3.72-.07,.08-.14,.16-.21,.25-.34,.44-.61,1.38-.83,2.71Z"/>
        <path class="cls-17" d="M694.21,252c12.52-1.79,30,1.23,41.37,3.77,.04-.98,.08-1.92,.1-2.82-11.38-2.53-28.49-5.43-41.34-3.72-.05,.87-.1,1.79-.12,2.77Z"/>
        <path class="cls-17" d="M694.1,258.46c0,.9,0,1.83,0,2.76,12.94-1.13,29.64,1.36,40.97,3.54,.06-.95,.12-1.87,.18-2.79-11.38-2.19-27.95-4.63-41.15-3.51Z"/>
        <path class="cls-17" d="M694.15,266.52c.01,.91,.03,1.83,.05,2.75,11.59,.06,28.28,2.37,40.21,4.29,.08-.92,.15-1.84,.22-2.76-11.99-1.93-28.64-4.22-40.48-4.27Z"/>
        <path class="cls-17" d="M694.36,275.82c.03,.93,.05,1.86,.08,2.77,12.37,1.28,28.04,2.49,39.26,3.28,.08-.89,.16-1.8,.23-2.72-11.32-.82-27.18-2.03-39.58-3.33Z"/>
        <path class="cls-17" d="M694.71,285.79c.04,.98,.08,1.92,.12,2.83,9.65,2.03,21.48,2.59,31.5,2.59,2.27,0,4.46-.03,6.49-.08,.09-.88,.18-1.81,.27-2.77-11.16,.25-26.69,0-38.39-2.57Z"/>
        <path class="cls-17" d="M695.08,294.12c.05,1.12,.1,2.12,.15,2.94,7.41,2.45,14.63,3.34,21.19,3.34,5.85,0,11.17-.7,15.63-1.62,.08-.75,.18-1.71,.29-2.86-9.36,2.03-23,3.19-37.27-1.8Z"/>
      </g>
      <path class="cls-4" d="M718.74,236.22c.77,.11,2.4,1.16,2.44,1.93,.13,2.43-4.55,4.45-8.83,4.11-4.28-.34-4.29-2.67-3.48-3.82,.84-1.2,2.74-3.25,9.88-2.22Z"/>
      <path class="cls-1" d="M709.69,231.31l1.52,8.97s2.43,1.4,8.08-1.78c0,0-2.3-6.92,.6-11.47,0,0-.64-.01-1.66,.02,0,0-1.44,5.15-8.54,4.25Z"/>
      <g>
        <path class="cls-21" d="M706.52,215.38s-2.59-2.12-.25-2.81c0,0-.99-2.59,.14-3.01,1.13-.42,2.29,.62,2.92-.49,.63-1.11,2-2.89,4.42-1.15,2.42,1.74,3.77-1.12,4.81-.19,1.04,.93,.41,2.42,2.11,2.64,1.7,.22,3.29,.62,2.9,2.32s1.49,1.81,1.57,2.85c.09,1.04-.71,1.34-.78,2.22-.07,.88,1.19,1.26,.74,2.59-.45,1.33-1.74,1.14-1.64,2.09s.95,3.06-.27,3.36c-1.22,.3-1.68,2.45-3.1,2.14-1.42-.31-13.58-12.57-13.58-12.57Z"/>
        <path class="cls-19" d="M721.69,222.75c.31,8.51-11.83,12.16-14.11,8.11-.73-1.3-1.46-4.9-1.72-7.39-.06-.56-.11-1.13-.13-1.71-.17-3.88,.52-7.73,2.74-8.58,7.75-2.98,12.85-.86,13.23,9.57Z"/>
        <path class="cls-14" d="M713.47,220.2c0,.58-.25,1.05-.57,1.06s-.59-.46-.6-1.04c0-.58,.25-1.05,.57-1.06,.32,0,.59,.46,.6,1.04Z"/>
        <path class="cls-14" d="M708.16,220.71c0,.58-.25,1.05-.57,1.06-.32,0-.59-.46-.6-1.04,0-.58,.25-1.05,.57-1.06,.32,0,.59,.46,.6,1.04Z"/>
        <path class="cls-26" d="M715.74,221.99c.15,.45-.19,.97-.76,1.16-.57,.19-1.15-.03-1.29-.48s.19-.97,.76-1.16c.57-.19,1.15,.03,1.29,.48Z"/>
        <path class="cls-26" d="M707.06,222.91c-.11,.45-.65,.69-1.21,.56-.06-.56-.11-1.13-.13-1.71,.17-.03,.34-.01,.52,.03,.58,.15,.94,.65,.82,1.11Z"/>
        <path class="cls-21" d="M714.05,217.27c.11,0,.22-.04,.3-.13,.12-.15,.09-.36-.06-.48-.94-.74-2.27-.51-2.33-.5-.19,.03-.31,.21-.28,.4,.03,.19,.21,.31,.4,.28,.01,0,1.09-.18,1.79,.36,.05,.04,.12,.07,.18,.07Z"/>
        <path class="cls-21" d="M706.29,218.29s0,0,.01,0c.19,0,.35-.14,.36-.33,.01-.26,.62-.39,.95-.4,.19,0,.34-.17,.33-.35,0-.19-.17-.34-.35-.33-.58,.02-1.57,.26-1.61,1.05,0,.18,.13,.34,.31,.36Z"/>
        <path class="cls-1" d="M708.42,224.87c.25,.02,.54,.01,.87-.03l-.06-.51c-.72,.09-1.24,0-1.48-.23-.1-.1-.13-.22-.14-.29,1.61-2.03,1.78-4.63,1.79-4.74l-.51-.03s-.18,2.6-1.73,4.51l-.05,.06v.07s-.06,.44,.27,.77c.23,.23,.58,.37,1.04,.41Z"/>
        <path class="cls-14" d="M707.97,226s.2,.35,2.03,.12c1.83-.23,2.99-.72,2.99-.72,0,0-.26,3.68-3.01,3.69-2.28,.01-2.01-3.09-2.01-3.09Z"/>
        <path class="cls-21" d="M719.25,222.89s.18-3.08-1.68-4.87c-1.87-1.78-.24-4.41-.24-4.41,0,0-7.48-1.26-10.8,1.76,0,0-2.49-4.38,4.62-6.17,7.11-1.79,18.66,3.74,8.96,18.74l1.58-5.19-2.43,.13Z"/>
        <path class="cls-19" d="M719.49,222.5s1.67-2,3.26-.8c1.58,1.2-1.02,4.88-2.72,4.76-1.7-.12-.54-3.96-.54-3.96Z"/>
      </g>
      <path class="cls-4" d="M722.55,276.88c-1.81-.03-2.84,8.32,.71,9.2,0,0,4.25-9.12-.71-9.2Z"/>
      <g>
        <path class="cls-19" d="M722.63,284.41c-.78,.31-6.22,2.25-7.3,2.1-.04,0-.08,0-.12-.02-1.05-.2-2.23-1.23-2.96-1.5-.76-.28-1.03-1.01-1.69-1.5-.67-.49-1.09-2-1.09-2,0,0-2.27-2.03-1.32-2.31,1.18-.33,2.53,.86,2.53,.86l2.94,.5s3.53-1.39,3.38-2.1c-.15-.71-1.61-.13-2.89-.23-.84-.06-.91-.99-.91-.99l2.17-.55s3.17-.52,3.85-.23c.68,.28,3.19,1.86,3.19,1.86l4.7-.1,.91,6.14s-4.61-.25-5.38,.07Z"/>
        <path class="cls-1" d="M715.21,286.49c-1.05-.2-2.23-1.23-2.96-1.5-.76-.28-1.03-1.01-1.69-1.5-.67-.49-1.09-2-1.09-2,.58,.48,3.35,.98,3.56,1.21,.21,.23-.12,.46-.02,.93,.1,.47,1.08,.48,1.02,.98s-.02,.98,.69,1.22c.3,.1,.42,.37,.49,.66Z"/>
      </g>
      <path class="cls-17" d="M735.06,242.74c-4.84,2.54-6.55,13.13-6.04,17.43l5.32,14.13s-1.04,1.91-.19,2.25l-11.61,.33s2.97,3.09,.71,9.2c0,0,15.17,4.55,21.67,0,1.88-1.31,2.89-5.07,2.42-7.81-3.33-19.37-12.29-35.53-12.29-35.53Z"/>
    </g>
    <g>
      <path class="cls-22" d="M655.28,394.91c-3.46-13.32-7.75-33.49-8.3-36.83-.36-2.16-.68-9.01-1.53-17.42-.22-9.59-1.33-31.52-6.71-43.97l-12.68,.3c.51,9.88-9.07,20.55,2.6,31.98,1.52,4.27,6.56,18.75,7.29,25.12,.86,7.52,2.26,10.86,6.62,19.25,3.77,7.26,6.43,15.73,8.03,21.56h4.7Z"/>
      <path class="cls-13" d="M612.3,340.06h0c.81,4.21,1.97,7.03,2.6,10.57,.92,5.16-1.7,12.63,.95,20.94,1.25,3.93,3.6,16.92,4.85,24.1h4.81c0-.07,0-.14,0-.2,0-17.48-2.41-38.32-2.05-46.25,.15-3.34,.72-8.08,1.32-12.39,0-.02,1.87-12.54,3.68-13.59,7.44-4.3,10.28-26.56,10.28-26.56l-18.98,.88s-11.06,9.19-8.15,25.54c0,0-.01,.17-.03,.46-.46,7.7,0,12.67,.73,16.48Z"/>
      <path class="cls-5" d="M651.76,380.38s-3.42,1.5-7.27,.82v-1.03s-8.82-16.44-9.68-27.74c0,0-1.94-5.01-3.97-11.2-.55-1.7-1.12-3.49-1.65-5.29-1.34-4.55-2.47-9.15-2.77-12.51-.86-9.53,1.47-34.31,1.47-34.31l8.66-.22h.66s2.68,5.21,5.17,15.45c2.19,8.97,4.24,21.79,4.24,38.34l5.14,37.7Z"/>
      <path class="cls-5" d="M630.46,323.88s-3.45,28.37-4.43,59.45c0,0-5.32,.88-8.51,0v-2.02s-5.49-18.86-4.23-30.44c0,0-6.23-16.89-1.95-41.32,1.06-6.06,2.77-12.58,5.38-19.41l3.66-.34,12.04-1.1s9.6,16.34-1.97,35.18Z"/>
      <path class="cls-23" d="M622.64,290.56s-3.51,15.44-11.3,18.99c1.06-6.06,2.77-12.58,5.38-19.41l3.66-.34c.74,.16,1.49,.41,2.26,.75Z"/>
      <path class="cls-23" d="M642.38,304.35c-.66-.69-1.19-1.51-1.47-2.49-.92-3.2-3.41-10.27-4.37-12.96h.66s2.68,5.21,5.17,15.45Z"/>
      <path class="cls-23" d="M633.09,333.61c-1.21,1.94-1.88,4.72-2.25,7.62-.55-1.7-1.12-3.49-1.65-5.29,.27-1.38,1.45-8.05,1.99-19.47,.6-12.9-1.41-27.03-1.41-27.03l.97-.25s5.31,18.93,.45,31.94c.2-.21,3.36-3.74,4.25-6.84,0,0,1.47,13.18-2.35,19.32Z"/>
      <g>
        <path class="cls-13" d="M670.11,288.77l-3.64,1.1c-3.64,1.09-3.26,1.63-3.96,3.55-.66,1.8,2.5,3.37,3.97,3.66,1.25,.25,3.49,2.58,4.57,2.51,.44-.03,.22-.34-.57-.98-.93-.75-1.53-1.76-1.53-1.76,1.23-.51,4.34,2.54,5.57,1.79,.6-.37-4.29-2.21-4.34-3.02,0,0,.43-.23,2.9,.48,1.42,.41,2.88,.84,3.2,.49,.59-.64-2.53-.98-5.67-2.65,0,0,1.6,.17,3.07,.42,1.34,.24,2.58,.6,2.62,0,.04-.5-2.07-.81-3.4-1.06-2.49-.47-4.21-1.36-5.06-1.88-.41-.25-.62-.42-.62-.42,3.62-1.43,2.88-2.23,2.88-2.23Z"/>
        <path class="cls-22" d="M667.24,291s-.71,1.52-1.96,1.8c0,0,1.85,.58,2.58-1.38-.41-.25-.62-.42-.62-.42Z"/>
      </g>
      <path class="cls-13" d="M629.77,261.09c6.07,1.61,7.09,5.24,13.43,25.43,0,0,3.6,.09,7.19,1.58,3.6,1.49,14.89,3.26,14.89,3.26l-1.02,2.83s-20.32,.11-23.12-1.31c-2.8-1.42-9.39-18.19-9.39-18.19l-1.99-13.59Z"/>
      <path class="cls-30" d="M616.73,290.14c14.71,3.33,20.48-1.26,20.48-1.26,8.75-14.95-7.13-27.69-7.13-27.69,0,0-.11-.04-.32-.11-2.01-.67-13.14-4.08-20.4,.58-.48,.3-.94,.64-1.38,1.02-7.83,6.71,8.74,27.46,8.74,27.46Z"/>
      <g>
        <path class="cls-3" d="M629.88,255.71s-10.35-2.88-18.76,1.37c0,0-9.55-23.29,7-23.04,16.55,.25,13.24,17.52,11.76,21.67Z"/>
        <path class="cls-13" d="M614.28,235.81s11.25-3.77,13.51,4.15c2.27,7.92,.21,16.27-5.07,15.71-7.43-.79-17.18-15.41-8.44-19.87Z"/>
        <path class="cls-26" d="M619.95,246.94c-.05,.47,.39,.91,.98,.97,.59,.06,1.11-.27,1.16-.75,.05-.47-.39-.91-.98-.97-.59-.06-1.11,.27-1.16,.75Z"/>
        <path class="cls-3" d="M620.82,242.08c.07,0,.14-.04,.18-.11,.47-.73,1.38-.65,1.38-.64,.13,.01,.24-.08,.26-.21,.01-.13-.08-.24-.21-.26-.05,0-1.2-.12-1.83,.86-.07,.11-.04,.25,.07,.32,.04,.03,.09,.04,.14,.04Z"/>
        <path class="cls-3" d="M626,240.88s.09-.02,.13-.05c.66-.55,1.48-.21,1.52-.19,.12,.05,.26,0,.31-.12,.05-.12,0-.26-.12-.31-.05-.02-1.11-.48-2,.26-.1,.08-.11,.23-.03,.33,.05,.06,.12,.09,.19,.08Z"/>
        <path class="cls-14" d="M627.14,249.18s-1.7,1.09-4.66,.14c0,0,.89,3.52,2.78,3.07,1.89-.45,1.89-3.21,1.89-3.21Z"/>
        <path class="cls-3" d="M618.76,239.88s-2.57,3.28-2.44,7.54c0,0-1.89-2.31-2.87-.3-.99,2.01,2.97,4.95,2.97,4.95,0,0-6.37,.36-7.11-7.87-.31-3.47,4.19-6.64,9.46-4.31Z"/>
        <path class="cls-22" d="M616.55,250.29c.86,2.32,4.17,6.35,7.68,5.2,0,0-.88,3.47,.58,4.73,0,0,1.54,2.68-1.96,3.06-4.38,.48-6.82-3.06-6.82-3.06,1.91-4.25-.71-9.5-.71-9.5,.95,.63,1.25-.43,1.25-.43Z"/>
        <path class="cls-26" d="M626.59,248l-.21-.47c.09-.04,.83-.4,.53-1.12-.09-.22-.22-.36-.37-.42-.28-.1-.59,.07-.59,.07l-.25-.45s.51-.28,1.01-.11c.3,.11,.53,.34,.68,.71,.4,.96-.35,1.59-.8,1.79Z"/>
        <path class="cls-14" d="M621.6,244.91c.03,.51,.32,.9,.64,.88,.32-.02,.55-.45,.52-.95-.03-.51-.32-.9-.64-.88-.32,.02-.55,.45-.52,.95Z"/>
        <path class="cls-14" d="M621.29,244.78s.27-1.16,.68-1.19c.41-.03,1.1,.75,1.1,.75l.76-.55-.73,.29s-.63-.89-1.2-.71c-.57,.18-.61,1.42-.61,1.42Z"/>
        <path class="cls-14" d="M626.28,244.19c.03,.51,.32,.9,.64,.88,.32-.02,.55-.45,.52-.95-.03-.51-.32-.9-.64-.88-.32,.02-.55,.45-.52,.95Z"/>
        <path class="cls-14" d="M625.98,244.06s.27-1.16,.68-1.19c.41-.03,1.1,.75,1.1,.75l.76-.55-.73,.29s-.63-.89-1.2-.71c-.57,.18-.61,1.42-.61,1.42Z"/>
        <path class="cls-3" d="M621.61,237.59s1.7,8.93-5.29,9.83c0,0-2.5-4.24-5.79-1.27,0,0-3.52-9.68,4.78-11.23,0,0,1.61-3.71,8.07-2.53,9.02,1.65,11.53,12.55,6.51,23.32,0,0,4.41-19.38-8.27-18.11Z"/>
      </g>
      <path class="cls-22" d="M609.36,261.66c.95,.52,2.07,1.08,3.39,1.66,24.08,10.77,18.43,.68,18.43,.68-.01-.73-.25-1.4-.68-2.03-.2-.31-.45-.6-.73-.88-1.97-.66-12.68-3.94-19.95,.3-.16,.08-.31,.18-.46,.27Z"/>
      <path class="cls-13" d="M609.36,261.66c.95,.52,2.07,1.08,3.39,1.66,24.08,10.77,18.43,.68,18.43,.68-.01-.73-.25-1.4-.68-2.03-.88,.41-2.66,1.22-3.25,1.36l-.38,1.48-2.05-1.33s-7.24,.21-14.99-2.09c-.16,.08-.31,.18-.46,.27Z"/>
      <path class="cls-13" d="M631.9,281.1l-3.64,1.1c-3.64,1.09-3.26,1.63-3.96,3.55-.66,1.8,2.5,3.37,3.97,3.66,1.25,.25,3.49,2.58,4.57,2.51,.44-.03,.22-.34-.57-.98-.93-.75-1.53-1.76-1.53-1.76,1.23-.51,4.34,2.54,5.57,1.79,.6-.37-4.29-2.21-4.34-3.02,0,0,.43-.23,2.9,.48,1.42,.41,2.88,.84,3.2,.49,.59-.64-2.53-.98-5.67-2.65,0,0,1.6,.17,3.07,.42,1.34,.24,2.58,.6,2.62,0,.04-.5-2.07-.81-3.4-1.06-2.49-.47-4.21-1.36-5.06-1.88-.41-.25-.62-.42-.62-.42,3.62-1.43,2.88-2.23,2.88-2.23Z"/>
      <path class="cls-13" d="M607.35,263.32c3.77-2.45,6.67,5.31,6.17,10.44-.23,2.31-6.17,19.11-6.17,19.11l17.79-9.15,1.09,2.8s-8.37,5.92-13.4,10.18-10.39,4.3-12.22,2.91c-1.83-1.39,1.14-14.18,2.17-19.43,1.03-5.25,2.37-15.42,4.56-16.84Z"/>
    </g>
    <g>
      <ellipse class="cls-20" cx="522.91" cy="188.64" rx="22.48" ry="19.75"/>
      <path class="cls-20" d="M533.66,199.99l-12.16,1.78s5.05,10.75,18.93,15.23c0,0-7.98-7.83-6.77-17.01Z"/>
      <text class="cls-6" transform="translate(507.53 196.39) rotate(-6.57)"><tspan x="0" y="0">rock</tspan></text>
    </g>
    <g>
      <ellipse class="cls-17" cx="677.57" cy="181.18" rx="22.48" ry="19.75"/>
      <path class="cls-17" d="M688.32,192.53l-12.16,1.78s5.05,10.75,18.93,15.23c0,0-7.98-7.83-6.77-17.01Z"/>
      <text class="cls-9" transform="translate(663.24 184.41)"><tspan x="0" y="0">paper</tspan></text>
    </g>
    <g>
      <ellipse class="cls-30" cx="654.11" cy="220.94" rx="26.61" ry="18.91"/>
      <path class="cls-30" d="M645.8,234.63l11.65,1.71s-4.84,10.29-18.13,14.59c0,0,7.64-7.5,6.48-16.29Z"/>
      <text class="cls-7" transform="translate(636.19 226.71) rotate(-9.94)"><tspan x="0" y="0">scissors</tspan></text>
    </g>
  </g>
</svg>