<?xml version="1.0" encoding="UTF-8"?>
<svg id="Layer_1" data-name="Layer 1" xmlns="http://www.w3.org/2000/svg" viewBox="0 0 425 183">
  <defs>
    <style>
      .cls-1 {
        fill: #232323;
      }

      .cls-2 {
        fill: #f45d48;
      }

      .cls-3 {
        fill: #fffffe;
      }

      .cls-4 {
        fill: #078080;
      }
    </style>
  </defs>
  <g>
    <g>
      <circle class="cls-4" cx="92.05" cy="91.5" r="73.04" transform="translate(-34.18 121.7) rotate(-58.28)"/>
      <path class="cls-1" d="M92.05,20.46c39.17,0,71.04,31.87,71.04,71.04s-31.87,71.04-71.04,71.04S21.02,130.67,21.02,91.5,52.88,20.46,92.05,20.46m0-4c-41.44,0-75.04,33.6-75.04,75.04s33.6,75.04,75.04,75.04,75.04-33.6,75.04-75.04S133.5,16.46,92.05,16.46h0Z"/>
    </g>
    <g>
      <path class="cls-3" d="M69.11,74.89v19.36c0,.12,0,.24,0,.36,0,.11-.01,.21-.02,.32,0,.03,0,.06,0,.09,0,.09-.02,.18-.03,.28,0,.05-.02,.11-.03,.16,0,.06-.02,.13-.03,.19,0,.03,0,.06-.02,.08-.02,.09-.04,.18-.06,.27-.02,.09-.04,.18-.07,.26,0,0,0,.02,0,.03,0,.03-.02,.06-.03,.09-.03,.09-.06,.18-.09,.28-.02,.03-.03,.07-.04,.11-.02,.05-.03,.09-.06,.14,0,.03-.02,.06-.03,.08-.03,.08-.07,.16-.11,.23,0,.02-.02,.04-.03,.06-.03,.06-.06,.12-.09,.18-.03,.06-.05,.11-.08,.16-.06,.1-.12,.21-.18,.31-.08,.13-.17,.27-.27,.39-.02,.02-.03,.04-.04,.06-.01,.02-.03,.03-.04,.05h0s-.02,.02-.02,.03c0,0,0,0,0,.01-.03,.04-.05,.07-.08,.11-.03,.04-.06,.08-.09,.12-.07,.09-.14,.17-.22,.25-.06,.06-.12,.13-.17,.18-.03,.03-.05,.05-.08,.08-.07,.07-.13,.13-.2,.19,0,0-.02,.02-.03,.02-.06,.06-.13,.12-.19,.17-.05,.04-.11,.09-.16,.13-.05,.04-.09,.08-.14,.11-.07,.05-.13,.1-.2,.15-.03,.02-.06,.04-.09,.07-.08,.05-.16,.11-.24,.15-.03,.02-.05,.03-.08,.05-.08,.05-.16,.09-.24,.14-.02,.01-.04,.02-.06,.03-.04,.02-.08,.05-.12,.07-.02,.01-.04,.02-.06,.03-.05,.02-.1,.05-.15,.07-.08,.04-.16,.07-.24,.11-.05,.02-.1,.04-.15,.06-.03,.02-.07,.03-.11,.04-.02,0-.04,.02-.06,.02-.01,0-.03,0-.04,.01-.01,0-.03,.01-.04,.02-.04,.02-.08,.03-.13,.04-.02,0-.04,.02-.07,.02-.07,.03-.14,.05-.22,.07-.09,.03-.17,.05-.26,.07-.1,.02-.2,.05-.31,.07-.01,0-.03,0-.04,0-.06,.02-.13,.02-.19,.03-.03,0-.06,0-.08,.01-.02,0-.03,0-.04,0-.09,.02-.18,.03-.28,.03-.1,.01-.21,.02-.31,.03-.03,0-.06,0-.09,0-.1,0-.21,0-.31,0-1.93,0-3.68-.78-4.95-2.05-.4-.4-.75-.85-1.05-1.33-.05-.08-.1-.17-.15-.26-.1-.18-.19-.37-.28-.57-.03-.07-.06-.14-.09-.21-.17-.43-.3-.89-.39-1.37-.02-.09-.03-.18-.04-.27-.01-.1-.03-.21-.03-.31,0-.1-.02-.19-.02-.29v-.03c0-.1,0-.2,0-.3v-19.61c0-4.02,3.39-7.25,7.46-6.98,3.72,.24,6.53,3.5,6.53,7.23Z"/>
      <path class="cls-3" d="M85.63,70.39v23.42c0,3.71-2.8,6.94-6.5,7.19-2.13,.15-4.07-.66-5.44-2.03-1.26-1.26-2.05-3.01-2.05-4.95v-23.4c0-3.73,2.81-6.98,6.53-7.22,4.08-.26,7.46,2.96,7.46,6.98Z"/>
      <path class="cls-3" d="M130.71,94.92v17.21c0,1-.04,1.99-.11,2.98-.03,.42-.07,.83-.12,1.25-.04,.42-.09,.83-.15,1.25-2.66,18.75-18.78,33.18-38.27,33.18-21.35,0-38.65-17.31-38.65-38.65,0-.25,0-.5,0-.75v-13.34c.42,.98,1.01,1.86,1.72,2.64,1.73,1.89,4.23,3.07,6.99,3.07,.35,0,.7-.02,1.04-.06,3.14-.34,5.83-2.22,7.29-4.87,1.74,2.98,5.06,4.92,8.8,4.69,5.05-.32,8.89-4.68,8.89-9.74,0-12.08,0-43.71,0-54.34,0-3.71,2.79-6.93,6.49-7.19,2.13-.15,4.08,.66,5.45,2.03,1.27,1.27,2.05,3.02,2.05,4.95v41.56c0,.81,.6,1.55,1.41,1.61,.63,.05,1.18-.29,1.45-.79,0,0,0,0,0-.01h0s.18-.67,.18-.67t0,0l1.22-4.68,8.86-33.89c.98-3.74,4.8-5.98,8.54-5,3.14,.82,5.23,3.66,5.23,6.76,0,.58-.07,1.18-.23,1.78l-10.02,38.32-.32,1.23h-11.68c-1.68,0-3.27,.44-4.64,1.22-2.89,1.63-4.85,4.73-4.85,8.28,0,1.94,.58,3.75,1.59,5.25,1.7,2.56,4.61,4.24,7.91,4.24h7.45v2.59c-.87,.05-9.85,.6-15.27,4.24-5.69,3.83-7.24,5.54-8.78,9.05-1.54,3.51,1.81-.32,3.46-1.92,1.65-1.59,6.16-6.17,13.41-7.71,4.08-.87,6.15-1.05,7.18-1.03,.43,0,.68,.04,.81,.07,0,0,0,0,.01,0,.04,.02,.09,.04,.14,.05,0,0,0,0,0,0h0s0,0,0,0c.09,.03,.18,.04,.28,.04h0c.64,.15,1.25-.33,1.25-.99v-5.83c0-.59-.48-1.06-1.06-1.06h-8.89c-2.58,0-4.83-1.39-6.04-3.47-.61-1.03-.96-2.24-.96-3.53,0-2.08,.91-3.95,2.35-5.23,1.23-1.1,2.86-1.76,4.64-1.76h16.95c2.86,0,5.33,1.72,6.41,4.19,.38,.86,.59,1.81,.59,2.81Z"/>
    </g>
  </g>
  <polygon class="cls-2" points="246.2 91.5 222.54 79.07 222.54 89.29 173.69 89.29 173.69 93.71 222.54 93.71 222.54 103.93 246.2 91.5"/>
  <g>
    <g>
      <circle class="cls-4" cx="332.95" cy="91.5" r="73.04" transform="translate(148.89 383.65) rotate(-73.16)"/>
      <path class="cls-1" d="M332.95,20.46c39.17,0,71.04,31.87,71.04,71.04s-31.87,71.04-71.04,71.04-71.04-31.87-71.04-71.04,31.87-71.04,71.04-71.04m0-4c-41.44,0-75.04,33.6-75.04,75.04s33.6,75.04,75.04,75.04,75.04-33.6,75.04-75.04-33.6-75.04-75.04-75.04h0Z"/>
    </g>
    <g>
      <path class="cls-3" d="M371.6,79.33v17.21c0,1-.04,1.99-.11,2.98-.03,.42-.07,.83-.12,1.25-.04,.42-.09,.83-.15,1.25-2.66,18.75-18.78,33.18-38.27,33.18-21.19,0-38.4-17.05-38.65-38.17v-14.57c.43,.98,1.01,1.87,1.72,2.64,1.73,1.89,4.23,3.07,6.99,3.07,.35,0,.7-.02,1.04-.06,3.14-.34,5.83-2.22,7.29-4.87,1.65,2.81,4.7,4.7,8.19,4.7s6.53-1.88,8.18-4.68c1.62,2.92,4.74,4.91,8.31,4.91,2,0,3.86-.62,5.39-1.69,1.67,1.47,3.85,2.35,6.25,2.35h7.45v2.59c-.87,.05-9.86,.6-15.27,4.24-5.69,3.83-7.24,5.53-8.78,9.05-1.54,3.51,1.81-.32,3.46-1.92,1.65-1.6,6.16-6.17,13.41-7.71,4.09-.87,6.15-1.05,7.18-1.03,.42,0,.67,.04,.81,.07h0c.05,.02,.1,.04,.15,.05,0,0,0,0,0,0h0s0,0,0,0c.09,.03,.18,.04,.28,.04,0,0,0,0,0,0,.65,.15,1.25-.42,1.25-1.08v-5.8c0-.55-.44-.99-.99-.99h-8.96c-1.66,0-3.19-.58-4.38-1.55-.33-.26-.63-.55-.9-.87-.28-.33-.54-.68-.76-1.05-.61-1.03-.96-2.24-.96-3.53,0-2.08,.91-3.95,2.35-5.23,.38-.34,.8-.64,1.25-.89,.36-.2,.74-.37,1.14-.5h16.81v-.37h2.38c2.86,0,5.33,1.72,6.41,4.19,.38,.86,.59,1.81,.59,2.81Z"/>
      <path class="cls-3" d="M310,59.3v19.36c0,3.51-2.59,6.42-5.96,6.92-.34,.05-.68,.08-1.04,.08-1.93,0-3.68-.78-4.95-2.05-.4-.4-.75-.85-1.04-1.33,.03-.09,.07-.18,.1-.26h-.25c-.54-.99-.85-2.14-.85-3.35v-19.61c0-4.02,3.39-7.25,7.46-6.98,3.72,.24,6.53,3.5,6.53,7.23Z"/>
      <path class="cls-3" d="M326.52,54.8v23.39c0,3.73-2.81,6.98-6.53,7.22-4.08,.26-7.46-2.96-7.46-6.98v-23.4c0-3.73,2.81-6.98,6.53-7.22,4.08-.26,7.46,2.96,7.46,6.98Z"/>
      <path class="cls-3" d="M343.01,55.04v16.01c-2.89,1.63-4.85,4.73-4.85,8.28,0,1.94,.58,3.74,1.59,5.25-1.08,.69-2.36,1.08-3.73,1.08-1.93,0-3.68-.78-4.95-2.05s-2.05-3.01-2.05-4.95v-23.86c0-4.02,3.39-7.24,7.46-6.98,3.72,.24,6.53,3.49,6.53,7.22Z"/>
      <path class="cls-3" d="M359.72,59.55v10.29h-12.07c-.66,0-1.31,.07-1.93,.2v-10.72c0-4.02,3.38-7.24,7.46-6.98,3.72,.24,6.53,3.49,6.53,7.22Z"/>
    </g>
  </g>
</svg>