<?xml version="1.0" encoding="utf-8"?>
<!-- Generator: Adobe Illustrator 26.5.0, SVG Export Plug-In . SVG Version: 6.00 Build 0)  -->
<svg version="1.1" id="Layer_1" xmlns="http://www.w3.org/2000/svg" xmlns:xlink="http://www.w3.org/1999/xlink" x="0px" y="0px"
	 viewBox="0 0 16 16" style="enable-background:new 0 0 16 16;" xml:space="preserve">
<style type="text/css">
	.st0{fill:#FFFFFF;}
</style>
<path class="st0" d="M3.4,3.3C2.8,2.5,3.3,1.5,4.2,1l3.3,5.7L10.8,1c0.8,0.5,1.4,1.5,0.8,2.3L8.2,7.9l1.5,2.5c1.1-0.5,2.5-0.1,3.1,1
	c0.5,1.1,0.1,2.5-1,3.1c-1.1,0.5-2.5,0.1-3.1-1c-0.5-0.8-0.3-1.8,0.3-2.5L7.5,8.9l-1.5,2c0.8,1,0.6,2.4-0.3,3.2
	c-1,0.8-2.4,0.6-3.2-0.3s-0.6-2.4,0.3-3.2c0.7-0.5,1.6-0.7,2.5-0.3l1.5-2.5L3.4,3.3z M5.7,12.4C5.7,11.7,5,11,4.3,11
	s-1.4,0.6-1.4,1.4c0,0.7,0.6,1.4,1.4,1.4S5.7,13.1,5.7,12.4z M12,12.4c0-0.7-0.6-1.4-1.4-1.4s-1.4,0.6-1.4,1.4
	c0,0.7,0.6,1.4,1.4,1.4S12,13.1,12,12.4z"/>
</svg>
