<?xml version="1.0" encoding="UTF-8"?>
<svg id="Layer_1" data-name="Layer 1" xmlns="http://www.w3.org/2000/svg" viewBox="0 0 216 216">
  <defs>
    <style>
      .cls-1 {
        fill: #232323;
      }

      .cls-2 {
        fill: #f45d48;
      }

      .cls-3 {
        fill: #fffffe;
      }
    </style>
  </defs>
  <g>
    <circle class="cls-2" cx="108" cy="108" r="106"/>
    <path class="cls-1" d="M108,4c57.35,0,104,46.65,104,104s-46.65,104-104,104S4,165.35,4,108,50.65,4,108,4m0-4C48.35,0,0,48.35,0,108s48.35,108,108,108,108-48.35,108-108S167.65,0,108,0h0Z"/>
  </g>
  <g>
    <path class="cls-3" d="M74.98,84.09v27.87c0,.18,0,.35-.01,.52,0,.15-.02,.31-.04,.46,0,.04,0,.09-.01,.13-.01,.13-.03,.27-.05,.4-.01,.08-.02,.15-.04,.23-.01,.09-.03,.18-.05,.27,0,.04-.01,.08-.03,.12-.03,.13-.05,.26-.09,.38-.03,.13-.06,.25-.1,.37,0,.01,0,.03-.01,.04-.01,.05-.03,.09-.04,.13-.04,.13-.09,.27-.13,.4-.02,.05-.04,.1-.06,.15-.02,.07-.05,.13-.08,.2-.01,.04-.03,.08-.05,.12-.04,.11-.09,.22-.15,.34-.01,.03-.03,.06-.04,.09-.04,.09-.09,.18-.13,.26-.04,.08-.08,.16-.12,.23-.08,.15-.17,.3-.26,.44-.12,.19-.25,.38-.38,.57-.02,.03-.04,.06-.06,.09-.02,.03-.04,.05-.05,.07h0s-.02,.03-.03,.05c0,0,0,.01-.01,.02-.04,.05-.08,.1-.12,.15-.04,.06-.09,.11-.13,.17-.1,.13-.21,.25-.31,.36-.08,.09-.17,.18-.25,.27-.04,.04-.07,.08-.11,.11-.09,.09-.19,.18-.29,.27,0,0-.02,.02-.04,.03-.09,.09-.18,.17-.28,.25-.07,.06-.15,.13-.23,.19-.07,.05-.13,.11-.2,.16-.09,.08-.19,.14-.29,.21-.04,.03-.09,.06-.13,.09-.11,.08-.22,.15-.34,.22-.04,.02-.07,.04-.11,.07-.11,.07-.23,.13-.35,.2-.03,.02-.06,.03-.09,.05-.05,.04-.11,.07-.18,.09-.03,.02-.06,.03-.09,.05-.07,.04-.14,.07-.21,.1-.11,.05-.23,.1-.35,.15-.07,.03-.14,.06-.22,.09-.05,.02-.1,.04-.15,.06-.03,.01-.05,.02-.08,.03-.02,0-.04,.01-.05,.02-.02,0-.04,.02-.06,.02-.06,.02-.12,.04-.18,.06-.03,.01-.06,.03-.09,.03-.1,.04-.21,.07-.31,.09-.13,.04-.25,.07-.37,.1-.14,.04-.29,.07-.45,.1-.02,0-.04,0-.05,0-.09,.02-.18,.04-.27,.05-.04,0-.08,.01-.12,.02-.02,0-.04,0-.06,0-.13,.02-.27,.04-.4,.05-.15,.02-.3,.03-.45,.04-.04,0-.09,0-.13,0-.15,0-.3,.01-.45,.01-2.78,0-5.3-1.12-7.12-2.95-.58-.58-1.08-1.22-1.51-1.92-.07-.12-.14-.25-.21-.37-.15-.26-.28-.54-.4-.81-.05-.1-.09-.2-.13-.3-.25-.63-.44-1.28-.56-1.97-.02-.13-.04-.26-.06-.39-.02-.15-.04-.3-.05-.45-.01-.14-.02-.28-.03-.42v-.05c0-.14,0-.29,0-.44v-28.22c0-5.78,4.88-10.43,10.74-10.05,5.35,.35,9.4,5.03,9.4,10.4Z"/>
    <path class="cls-3" d="M98.75,77.62v33.71c0,5.34-4.03,9.99-9.36,10.35-3.06,.21-5.85-.95-7.83-2.93-1.82-1.82-2.95-4.34-2.95-7.12v-33.68c0-5.36,4.05-10.05,9.41-10.39,5.87-.38,10.74,4.27,10.74,10.05Z"/>
    <path class="cls-3" d="M163.64,112.92v24.77c0,1.44-.05,2.87-.16,4.29-.05,.6-.1,1.2-.17,1.8-.06,.6-.13,1.2-.22,1.8-3.83,26.99-27.03,47.75-55.08,47.75-30.72,0-55.64-24.91-55.64-55.64,0-.36,0-.72,0-1.08v-19.21c.61,1.4,1.45,2.68,2.47,3.8,2.5,2.72,6.08,4.42,10.06,4.42,.5,0,1-.03,1.49-.09,4.52-.49,8.39-3.2,10.49-7.01,2.51,4.28,7.29,7.08,12.67,6.74,7.27-.46,12.8-6.74,12.8-14.02,0-17.38,0-62.91,0-78.21,0-5.34,4.02-9.97,9.34-10.35,3.07-.22,5.87,.95,7.85,2.93,1.83,1.82,2.95,4.34,2.95,7.12v59.82c0,1.17,.86,2.24,2.03,2.32,.9,.06,1.7-.41,2.09-1.14,0,0,0-.01,0-.02h0s.25-.96,.25-.96t0,0l1.76-6.74,12.75-48.78c1.41-5.38,6.91-8.6,12.29-7.19,4.53,1.18,7.52,5.26,7.52,9.73,0,.84-.1,1.7-.33,2.56l-14.41,55.16-.46,1.77h-16.82c-2.42,0-4.71,.63-6.68,1.75-4.17,2.34-6.99,6.81-6.99,11.92,0,2.79,.84,5.39,2.29,7.56,2.45,3.68,6.64,6.11,11.38,6.11h10.72v3.73c-1.25,.07-14.18,.86-21.98,6.1-8.19,5.52-10.42,7.97-12.63,13.02-2.22,5.05,2.6-.46,4.98-2.76,2.38-2.29,8.86-8.88,19.3-11.1,5.88-1.25,8.85-1.51,10.33-1.49,.61,0,.97,.05,1.17,.1,0,0,0,0,.02,0,.06,.03,.13,.05,.2,.07,0,0,0,0,0,0h0s0,0,0,0c.13,.04,.26,.06,.4,.06h0c.92,.22,1.8-.48,1.8-1.42v-8.39c0-.84-.68-1.53-1.53-1.53h-12.79c-3.71,0-6.95-2-8.69-4.99-.87-1.49-1.38-3.23-1.38-5.08,0-3,1.31-5.69,3.39-7.53,1.78-1.58,4.12-2.54,6.68-2.54h24.39c4.12,0,7.67,2.48,9.22,6.03,.54,1.24,.85,2.6,.85,4.04Z"/>
  </g>
</svg>